<svg width="136" height="105" viewBox="0 0 136 105" fill="none" xmlns="http://www.w3.org/2000/svg">
<mask id="mask0_1149_617" style="mask-type:alpha" maskUnits="userSpaceOnUse" x="18" y="6" width="100" height="99">
<rect x="18.53" y="6.1759" width="98.8237" height="98.8237" fill="#D9D9D9"/>
</mask>
<g mask="url(#mask0_1149_617)">
<path d="M67.9416 37.0577C65.9514 37.0577 64.2529 36.3542 62.846 34.9474C61.4391 33.5405 60.7357 31.842 60.7357 29.8518C60.7357 27.8616 61.4391 26.163 62.846 24.7562C64.2529 23.3493 65.9514 22.6459 67.9416 22.6459C69.9318 22.6459 71.6303 23.3493 73.0372 24.7562C74.444 26.163 75.1475 27.8616 75.1475 29.8518C75.1475 31.842 74.444 33.5405 73.0372 34.9474C71.6303 36.3542 69.9318 37.0577 67.9416 37.0577ZM59.7063 88.5283V67.9401H55.5886V49.4106C55.5886 47.1459 56.395 45.2072 58.0077 43.5944C59.6205 41.9817 61.5592 41.1753 63.8239 41.1753H72.0592C74.3239 41.1753 76.2627 41.9817 77.8754 43.5944C79.4882 45.2072 80.2945 47.1459 80.2945 49.4106V67.9401H76.1769V88.5283H59.7063Z" fill="#2E6C4A"/>
</g>
<mask id="mask1_1149_617" style="mask-type:alpha" maskUnits="userSpaceOnUse" x="0" y="0" width="99" height="99">
<rect width="98.8237" height="98.8237" fill="#D9D9D9"/>
</mask>
<g mask="url(#mask1_1149_617)">
<path d="M49.4116 30.8818C47.4214 30.8818 45.7228 30.1783 44.316 28.7715C42.9091 27.3646 42.2057 25.6661 42.2057 23.6759C42.2057 21.6857 42.9091 19.9871 44.316 18.5803C45.7228 17.1734 47.4214 16.47 49.4116 16.47C51.4018 16.47 53.1003 17.1734 54.5072 18.5803C55.914 19.9871 56.6174 21.6857 56.6174 23.6759C56.6174 25.6661 55.914 27.3646 54.5072 28.7715C53.1003 30.1783 51.4018 30.8818 49.4116 30.8818ZM41.1762 82.3524V61.7642H37.0586V43.2347C37.0586 40.97 37.865 39.0313 39.4777 37.4185C41.0905 35.8058 43.0292 34.9994 45.2939 34.9994H53.5292C55.7939 34.9994 57.7326 35.8058 59.3454 37.4185C60.9581 39.0313 61.7645 40.97 61.7645 43.2347V61.7642H57.6469V82.3524H41.1762Z" fill="#2E6C4A"/>
</g>
<mask id="mask2_1149_617" style="mask-type:alpha" maskUnits="userSpaceOnUse" x="37" y="0" width="99" height="99">
<rect x="37.0586" width="98.8237" height="98.8237" fill="#D9D9D9"/>
</mask>
<g mask="url(#mask2_1149_617)">
<path d="M86.4704 30.8818C84.4802 30.8818 82.7817 30.1783 81.3748 28.7715C79.9679 27.3646 79.2645 25.6661 79.2645 23.6759C79.2645 21.6857 79.9679 19.9871 81.3748 18.5803C82.7817 17.1734 84.4802 16.47 86.4704 16.47C88.4606 16.47 90.1591 17.1734 91.566 18.5803C92.9729 19.9871 93.6763 21.6857 93.6763 23.6759C93.6763 25.6661 92.9729 27.3646 91.566 28.7715C90.1591 30.1783 88.4606 30.8818 86.4704 30.8818ZM78.2351 82.3524V61.7642H74.1174V43.2347C74.1174 40.97 74.9238 39.0313 76.5366 37.4185C78.1493 35.8058 80.088 34.9994 82.3527 34.9994H90.588C92.8528 34.9994 94.7915 35.8058 96.4042 37.4185C98.017 39.0313 98.8234 40.97 98.8234 43.2347V61.7642H94.7057V82.3524H78.2351Z" fill="#2E6C4A"/>
</g>
</svg>
