<svg width="100" height="100" viewBox="0 0 100 100" fill="none" xmlns="http://www.w3.org/2000/svg">
<path d="M90.4583 36.2917C95.6666 31.0833 93.2916 25 90.4583 22.0417L77.9583 9.54166C72.7083 4.33332 66.6667 6.70832 63.7083 9.54166L56.625 16.6667H45.8333C37.9167 16.6667 33.3333 20.8333 31 25.625L12.5 44.125V60.7917L9.54166 63.7083C4.33332 68.9583 6.70832 75 9.54166 77.9583L22.0417 90.4583C24.2917 92.7083 26.7083 93.5417 29 93.5417C31.9583 93.5417 34.6667 92.0833 36.2917 90.4583L47.5417 79.1667H62.5C69.5833 79.1667 73.1667 74.75 74.4583 70.4167C79.1667 69.1667 81.75 65.5833 82.7917 62.0833C89.25 60.4167 91.6667 54.2917 91.6667 50V37.5H89.2083L90.4583 36.2917ZM83.3333 50C83.3333 51.875 82.5417 54.1667 79.1667 54.1667H75V58.3333C75 60.2083 74.2083 62.5 70.8333 62.5H66.6667V66.6667C66.6667 68.5417 65.875 70.8333 62.5 70.8333H44.125L30.4583 84.5C29.1667 85.7083 28.4167 85 27.9583 84.5417L15.5 72.125C14.2917 70.8333 15 70.0833 15.4583 69.625L20.8333 64.2083V47.5417L29.1667 39.2083V45.8333C29.1667 50.875 32.5 58.3333 41.6667 58.3333C50.8333 58.3333 54.1667 50.875 54.1667 45.8333H83.3333V50ZM84.5417 30.375L77.4583 37.5H45.8333V45.8333C45.8333 47.7083 45.0417 50 41.6667 50C38.2917 50 37.5 47.7083 37.5 45.8333V33.3333C37.5 31.4167 38.2083 25 45.8333 25H60.0417L69.5417 15.5C70.8333 14.2917 71.5833 15 72.0417 15.4583L84.5 27.875C85.7083 29.1667 85 29.9167 84.5417 30.375Z" fill="#2E6C4A"/>
</svg>
