<svg width="81" height="81" viewBox="0 0 81 81" fill="none" xmlns="http://www.w3.org/2000/svg">
<mask id="mask0_1149_609" style="mask-type:alpha" maskUnits="userSpaceOnUse" x="0" y="0" width="81" height="81">
<rect width="81" height="81" fill="#D9D9D9"/>
</mask>
<g mask="url(#mask0_1149_609)">
<path d="M20.25 74.25V43.3688C17.2125 42.5813 14.7656 40.9781 12.9094 38.5594C11.0531 36.1406 10.125 33.4125 10.125 30.375V6.75H16.875V27H20.25V6.75H27V27H30.375V6.75H37.125V30.375C37.125 33.4125 36.1969 36.1406 34.3406 38.5594C32.4844 40.9781 30.0375 42.5813 27 43.3688V74.25H20.25ZM54 74.25V42.1031C50.9625 41.0906 48.5156 38.9672 46.6594 35.7328C44.8031 32.4984 43.875 28.8281 43.875 24.7219C43.875 19.7156 45.1969 15.4688 47.8406 11.9813C50.4844 8.49375 53.6625 6.75 57.375 6.75C61.0875 6.75 64.2656 8.50781 66.9094 12.0234C69.5531 15.5391 70.875 19.8 70.875 24.8062C70.875 28.9125 69.9469 32.5688 68.0906 35.775C66.2344 38.9813 63.7875 41.0906 60.75 42.1031V74.25H54Z" fill="#2E6C4A"/>
</g>
</svg>
