<svg width="108" height="108" viewBox="0 0 108 108" fill="none" xmlns="http://www.w3.org/2000/svg">
<path fill-rule="evenodd" clip-rule="evenodd" d="M94.5 54C94.5 64.3725 90.5985 73.8382 84.186 81.0023L65.25 62.0685V60.399C65.25 54.2858 62.7705 48.42 58.3605 44.0978C58.252 43.9926 58.1659 43.8667 58.1071 43.7275C58.0483 43.5884 58.0182 43.4388 58.0185 43.2878V24.075C58.0185 23.2042 57.2985 22.5 56.4097 22.5H52.3935C52.1844 22.4976 51.9769 22.5365 51.7828 22.6144C51.5888 22.6923 51.412 22.8077 51.2626 22.954C51.1132 23.1002 50.9941 23.2745 50.9121 23.4669C50.8301 23.6593 50.7868 23.8659 50.7847 24.075V43.2607C50.7839 43.4192 50.7496 43.5756 50.684 43.7199C50.6185 43.8641 50.5232 43.9929 50.4045 44.0978C48.0051 46.2007 46.0813 48.7908 44.7615 51.6956C43.4416 54.6003 42.7559 57.753 42.75 60.9435V82.0215C42.75 83.943 44.3385 85.5 46.2982 85.5H61.4632C63.5557 85.5 65.25 83.8372 65.25 81.7875V68.4315L81.0023 84.186C73.5844 90.8411 63.9657 94.5152 54 94.5C31.6327 94.5 13.5 76.3672 13.5 54C13.5 43.3395 17.6175 33.642 24.3517 26.4083L41.1592 43.2158C41.5836 43.6256 42.152 43.8524 42.7419 43.8473C43.3318 43.8421 43.8962 43.6055 44.3133 43.1883C44.7305 42.7712 44.9671 42.2068 44.9723 41.6169C44.9774 41.027 44.7506 40.4586 44.3408 40.0342L27.5963 23.2897C34.9359 16.961 44.3086 13.4858 54 13.5C76.3672 13.5 94.5 31.6327 94.5 54ZM99 54C99 78.8535 78.8535 99 54 99C29.1465 99 9 78.8535 9 54C9 29.1465 29.1465 9 54 9C78.8535 9 99 29.1465 99 54ZM47.25 58.5H60.75V69.75H47.25V58.5Z" fill="#2E6C4A"/>
</svg>
