<svg width="100" height="100" viewBox="0 0 100 100" fill="none" xmlns="http://www.w3.org/2000/svg">
<path fill-rule="evenodd" clip-rule="evenodd" d="M51.6875 13C51.184 12.677 50.5983 12.5052 50 12.5052C49.4017 12.5052 48.816 12.677 48.3125 13L4.5625 41.125L7.9375 46.375L12.5 43.45V84.375C12.5 85.2038 12.8292 85.9987 13.4153 86.5848C14.0013 87.1708 14.7962 87.5 15.625 87.5H84.375C85.2038 87.5 85.9987 87.1708 86.5847 86.5848C87.1708 85.9987 87.5 85.2038 87.5 84.375V43.45L92.0625 46.3813L95.4375 41.1188L51.6875 13ZM40.625 56.25C39.7962 56.25 39.0013 56.5793 38.4153 57.1653C37.8292 57.7514 37.5 58.5462 37.5 59.375V81.25H43.75V62.5H56.25V81.25H62.5V59.375C62.5 58.5462 62.1708 57.7514 61.5847 57.1653C60.9987 56.5793 60.2038 56.25 59.375 56.25H40.625Z" fill="#2E6C4A"/>
</svg>
