<svg width="102" height="92" viewBox="0 0 102 92" fill="none" xmlns="http://www.w3.org/2000/svg">
<g clip-path="url(#clip0_1209_1700)">
<path d="M17.1874 44.1369L58.3771 6.73888C63.1529 2.50246 69.5801 0.143294 76.2638 0.17338C82.9475 0.203466 89.3485 2.62037 94.0776 6.89958C98.8067 11.1788 101.482 16.975 101.524 23.0304C101.565 29.0857 98.9692 34.9116 94.2991 39.2436L84.9251 48.0354L53.1539 76.8199L43.4879 85.2839C38.7064 89.5149 32.276 91.8669 25.5923 91.8293C18.9086 91.7917 12.511 89.3677 7.78773 85.0832C3.0645 80.7986 0.396803 74.9994 0.363595 68.944C0.330387 62.8886 2.93435 57.0657 7.61036 52.7389L7.6167 52.7274L17.1684 44.1484L17.1747 44.1369H17.1874ZM53.4268 27.7034C53.1321 27.4361 52.7823 27.224 52.3972 27.0792C52.0121 26.9343 51.5992 26.8597 51.1823 26.8594C50.7653 26.8591 50.3524 26.9333 49.9671 27.0776C49.5817 27.2219 49.2316 27.4336 48.9365 27.7005C48.6415 27.9674 48.4073 28.2844 48.2475 28.6333C48.0877 28.9822 48.0053 29.3562 48.005 29.734C48.0047 30.1117 48.0865 30.4858 48.2458 30.835C48.4051 31.1841 48.6387 31.5013 48.9333 31.7686C49.5318 32.2923 50.3334 32.5821 51.1655 32.5756C51.9975 32.569 52.7934 32.2667 53.3818 31.7336C53.9701 31.2006 54.3038 30.4795 54.3111 29.7257C54.3183 28.9718 53.9985 28.2456 53.4204 27.7034H53.4268ZM44.4399 39.8991C44.743 39.6339 44.9847 39.3167 45.1511 38.9659C45.3174 38.6152 45.4049 38.2379 45.4086 37.8562C45.4122 37.4744 45.3319 37.0958 45.1724 36.7425C45.0128 36.3892 44.7772 36.0682 44.4792 35.7982C44.1813 35.5283 43.827 35.3148 43.437 35.1703C43.047 35.0257 42.6291 34.953 42.2078 34.9563C41.7864 34.9596 41.37 35.0389 40.9829 35.1896C40.5957 35.3403 40.2456 35.5593 39.9528 35.8339C39.3748 36.3761 39.0549 37.1023 39.0622 37.8562C39.0694 38.61 39.4031 39.3311 39.9915 39.8641C40.5799 40.3972 41.3758 40.6995 42.2078 40.7061C43.0398 40.7126 43.8414 40.4228 44.4399 39.8991ZM35.4658 48.0354C36.0616 47.4963 36.3967 46.7648 36.3973 46.0019C36.3979 45.239 36.064 44.5071 35.4689 43.9673C34.8739 43.4274 34.0666 43.1238 33.2245 43.1233C32.3824 43.1227 31.5746 43.4253 30.9787 43.9644C30.6836 44.2313 30.4495 44.5483 30.2897 44.8972C30.1299 45.2461 30.0474 45.6201 30.0471 45.9978C30.0465 46.7608 30.3805 47.4927 30.9755 48.0325C31.5705 48.5724 32.3779 48.8759 33.22 48.8765C34.0621 48.877 34.8699 48.5745 35.4658 48.0354ZM53.4141 64.2964C53.7171 64.0312 53.9589 63.7139 54.1252 63.3632C54.2915 63.0124 54.3791 62.6351 54.3827 62.2534C54.3864 61.8717 54.3061 61.4931 54.1465 61.1398C53.987 60.7864 53.7514 60.4654 53.4534 60.1955C53.1554 59.9256 52.8011 59.7121 52.4111 59.5675C52.0212 59.423 51.6033 59.3502 51.1819 59.3535C50.7606 59.3568 50.3442 59.4362 49.957 59.5868C49.5699 59.7375 49.2197 59.9565 48.927 60.2311C48.3489 60.7734 48.0291 61.4996 48.0363 62.2534C48.0435 63.0072 48.3773 63.7283 48.9656 64.2614C49.554 64.7944 50.3499 65.0968 51.1819 65.1033C52.014 65.1099 52.8156 64.8201 53.4141 64.2964ZM62.3882 52.1006C62.0955 51.826 61.7453 51.607 61.3582 51.4563C60.971 51.3057 60.5546 51.2264 60.1333 51.223C59.7119 51.2197 59.294 51.2925 58.9041 51.437C58.5141 51.5816 58.1598 51.7951 57.8618 52.065C57.5639 52.3349 57.3282 52.6559 57.1687 53.0093C57.0091 53.3626 56.9288 53.7412 56.9325 54.1229C56.9361 54.5046 57.0237 54.8819 57.19 55.2327C57.3563 55.5834 57.5981 55.9007 57.9011 56.1659C58.4996 56.6896 59.3012 56.9794 60.1333 56.9728C60.9653 56.9663 61.7612 56.6639 62.3496 56.1309C62.9379 55.5978 63.2717 54.8767 63.2789 54.1229C63.2861 53.3691 62.9663 52.6429 62.3882 52.1006ZM71.3624 48.0354C71.6658 47.7706 71.9081 47.4536 72.0749 47.1031C72.2417 46.7525 72.3298 46.3754 72.3341 45.9937C72.3383 45.612 72.2586 45.2333 72.0996 44.8798C71.9406 44.5263 71.7055 44.205 71.408 43.9347C71.1105 43.6643 70.7565 43.4504 70.3667 43.3054C69.977 43.1603 69.5593 43.087 69.1379 43.0898C68.7166 43.0926 68.3001 43.1713 67.9127 43.3215C67.5253 43.4716 67.1748 43.6902 66.8816 43.9644C66.2858 44.5035 65.9507 45.2349 65.9501 45.9978C65.9495 46.7608 66.2834 47.4927 66.8785 48.0325C67.4735 48.5724 68.2808 48.8759 69.1229 48.8765C69.965 48.877 70.7729 48.5745 71.3687 48.0354H71.3624ZM44.4399 52.1006C44.1472 51.826 43.797 51.607 43.4099 51.4563C43.0227 51.3057 42.6063 51.2264 42.185 51.223C41.7636 51.2197 41.3457 51.2925 40.9558 51.437C40.5658 51.5816 40.2115 51.7951 39.9135 52.065C39.6156 52.3349 39.3799 52.6559 39.2204 53.0093C39.0608 53.3626 38.9805 53.7412 38.9842 54.1229C38.9878 54.5046 39.0754 54.8819 39.2417 55.2327C39.408 55.5834 39.6498 55.9007 39.9528 56.1659C40.5513 56.6896 41.3529 56.9794 42.185 56.9728C43.017 56.9663 43.8129 56.6639 44.4013 56.1309C44.9896 55.5978 45.3234 54.8767 45.3306 54.1229C45.3378 53.3691 45.018 52.6429 44.4399 52.1006ZM53.4141 48.0354C53.7091 47.7685 53.9432 47.4515 54.1031 47.1026C54.2629 46.7537 54.3453 46.3797 54.3456 46.0019C54.3459 45.6242 54.2641 45.25 54.1048 44.9009C53.9455 44.5518 53.7119 44.2346 53.4172 43.9673C53.1226 43.6999 52.7728 43.4878 52.3877 43.343C52.0025 43.1982 51.5897 43.1235 51.1728 43.1233C50.7558 43.123 50.3429 43.1972 49.9576 43.3415C49.5722 43.4858 49.222 43.6974 48.927 43.9644C48.3311 44.5035 47.996 45.2349 47.9954 45.9978C47.9949 46.7608 48.3288 47.4927 48.9238 48.0325C49.5188 48.5724 50.3262 48.8759 51.1683 48.8765C52.0104 48.877 52.8182 48.5745 53.4141 48.0354ZM62.3882 35.8339C62.0955 35.5593 61.7453 35.3403 61.3582 35.1896C60.971 35.0389 60.5546 34.9596 60.1333 34.9563C59.7119 34.953 59.294 35.0257 58.9041 35.1703C58.5141 35.3148 58.1598 35.5283 57.8618 35.7982C57.5639 36.0682 57.3282 36.3892 57.1687 36.7425C57.0091 37.0958 56.9288 37.4744 56.9325 37.8562C56.9361 38.2379 57.0237 38.6152 57.19 38.9659C57.3563 39.3167 57.5981 39.6339 57.9011 39.8991C58.4996 40.4228 59.3012 40.7126 60.1333 40.7061C60.9653 40.6995 61.7612 40.3972 62.3496 39.8641C62.9379 39.3311 63.2717 38.61 63.2789 37.8562C63.2861 37.1023 62.9663 36.3761 62.3882 35.8339ZM55.0515 19.2854L80.4381 42.2854L84.9315 38.2144L59.5449 15.2144L55.0515 19.2854ZM46.8516 72.7144L21.4651 49.7144L16.9717 53.7854L42.3582 76.7854L46.8516 72.7144Z" fill="#FAFAFA"/>
</g>
<defs>
<clipPath id="clip0_1209_1700">
<rect width="101.546" height="92" fill="white" transform="translate(0.178711)"/>
</clipPath>
</defs>
</svg>
