<svg width="100" height="100" viewBox="0 0 100 100" fill="none" xmlns="http://www.w3.org/2000/svg">
<path d="M54.4188 9.37508C53.2467 8.20339 51.6573 7.54517 50 7.54517C48.3428 7.54517 46.7533 8.20339 45.5813 9.37508L4.03754 50.9126C3.74699 51.2031 3.51652 51.5481 3.35927 51.9277C3.20203 52.3073 3.12109 52.7142 3.12109 53.1251C3.12109 53.536 3.20203 53.9429 3.35927 54.3225C3.51652 54.7021 3.74699 55.047 4.03754 55.3376C4.62433 55.9244 5.42019 56.254 6.25004 56.254C6.66094 56.254 7.06782 56.1731 7.44744 56.0159C7.82706 55.8586 8.17199 55.6281 8.46254 55.3376L50 13.7938L91.5375 55.3376C92.1243 55.9244 92.9202 56.254 93.75 56.254C94.5799 56.254 95.3757 55.9244 95.9625 55.3376C96.5493 54.7508 96.879 53.9549 96.879 53.1251C96.879 52.2952 96.5493 51.4994 95.9625 50.9126L81.25 36.2063V15.6251C81.25 14.7963 80.9208 14.0014 80.3347 13.4154C79.7487 12.8293 78.9538 12.5001 78.125 12.5001H71.875C71.0462 12.5001 70.2514 12.8293 69.6653 13.4154C69.0793 14.0014 68.75 14.7963 68.75 15.6251V23.7063L54.4188 9.37508Z" fill="#FAFAFA"/>
<path d="M50 20.5813L87.5 58.0813V84.375C87.5 86.8615 86.5123 89.246 84.7541 91.0042C82.996 92.7623 80.6114 93.75 78.125 93.75H21.875C19.3886 93.75 17.004 92.7623 15.2459 91.0042C13.4877 89.246 12.5 86.8615 12.5 84.375V58.0813L50 20.5813Z" fill="#FAFAFA"/>
</svg>
