<svg width="93" height="90" viewBox="0 0 93 90" fill="none" xmlns="http://www.w3.org/2000/svg">
<path d="M40.7994 25.8315H28.8786V3.15576H20.9314V25.8315H9.01066V3.15576H1.06348V28.2611C1.06348 37.4741 9.67003 45.145 20.9314 46.6274V88.9997H28.8786V46.6274C40.14 45.145 48.7466 37.4741 48.7466 28.2611V3.15576H40.7994V25.8315ZM24.905 40.4088C17.9982 40.4088 12.1091 37.0232 9.9221 32.3103H39.888C37.701 37.0232 31.8119 40.4088 24.905 40.4088Z" fill="#FAFAFA" stroke="#FAFAFA"/>
<path d="M87.8774 1.57418C79.748 2.5937 72.3349 5.95182 66.9793 11.0409C61.6238 16.1299 58.6796 22.6137 58.6797 29.319V63.0848H84.508V89H92.4552V1L87.8774 1.57418ZM84.508 56.606H66.6269V29.319C66.5997 24.8144 68.3121 20.4171 71.5214 16.7502C74.7308 13.0833 79.2742 10.3328 84.508 8.88833V56.606Z" fill="#FAFAFA" stroke="#FAFAFA"/>
</svg>
