<?xml version="1.0" encoding="UTF-8"?>
<!DOCTYPE svg PUBLIC "-//W3C//DTD SVG 1.1//EN" "http://www.w3.org/Graphics/SVG/1.1/DTD/svg11.dtd">
<svg xmlns="http://www.w3.org/2000/svg" version="1.1" width="438px" height="438px" style="shape-rendering:geometricPrecision; text-rendering:geometricPrecision; image-rendering:optimizeQuality; fill-rule:evenodd; clip-rule:evenodd" xmlns:xlink="http://www.w3.org/1999/xlink">
<g><path style="opacity:1" fill="#fefefe" d="M -0.5,-0.5 C 145.5,-0.5 291.5,-0.5 437.5,-0.5C 437.5,145.5 437.5,291.5 437.5,437.5C 291.5,437.5 145.5,437.5 -0.5,437.5C -0.5,291.5 -0.5,145.5 -0.5,-0.5 Z"/></g>
<g><path style="opacity:1" fill="#2a2627" d="M 90.5,151.5 C 111.442,165.98 132.442,180.48 153.5,195C 156.034,197.587 156.034,200.253 153.5,203C 151.833,203.667 150.167,203.667 148.5,203C 129.34,189.586 110.007,176.419 90.5,163.5C 69.8261,176.168 49.4928,189.335 29.5,203C 27.5594,203.743 25.7261,203.576 24,202.5C 23.0218,199.331 23.5218,196.497 25.5,194C 47.5735,180.307 69.2401,166.14 90.5,151.5 Z"/></g>
<g><path style="opacity:1" fill="#abaaaa" d="M 67.5,207.5 C 81.6722,206.174 96.0055,206.174 110.5,207.5C 108.392,208.944 106.059,209.61 103.5,209.5C 104.263,208.732 105.263,208.232 106.5,208C 93.8377,207.5 81.1711,207.333 68.5,207.5C 68.1667,207.5 67.8333,207.5 67.5,207.5 Z"/></g>
<g><path style="opacity:1" fill="#262223" d="M 68.5,207.5 C 81.1711,207.333 93.8377,207.5 106.5,208C 105.263,208.232 104.263,208.732 103.5,209.5C 97.2309,210.565 91.2309,212.231 85.5,214.5C 84.1667,214.5 82.8333,214.5 81.5,214.5C 82.1565,238.191 81.4899,261.524 79.5,284.5C 75.9785,282.574 72.3118,280.907 68.5,279.5C 68.5,279.167 68.5,278.833 68.5,278.5C 68.5,254.833 68.5,231.167 68.5,207.5 Z"/></g>
<g><path style="opacity:1" fill="#969494" d="M 40.5,227.5 C 39.5034,244.325 39.1701,261.325 39.5,278.5C 49.1667,278.5 58.8333,278.5 68.5,278.5C 68.5,278.833 68.5,279.167 68.5,279.5C 58.5,279.5 48.5,279.5 38.5,279.5C 38.3334,256.498 38.5,233.498 39,210.5C 40.029,216.123 40.529,221.79 40.5,227.5 Z"/></g>
<g><path style="opacity:1" fill="#d2d1d1" d="M 85.5,214.5 C 84.791,215.404 83.791,215.737 82.5,215.5C 82.5,238.833 82.5,262.167 82.5,285.5C 81.209,285.737 80.209,285.404 79.5,284.5C 81.4899,261.524 82.1565,238.191 81.5,214.5C 82.8333,214.5 84.1667,214.5 85.5,214.5 Z"/></g>
<g><path style="opacity:1" fill="#2f2f2f" d="M 159.5,215.5 C 162.898,215.18 166.232,215.513 169.5,216.5C 166.914,217.48 164.247,217.813 161.5,217.5C 161.5,219.833 161.5,222.167 161.5,224.5C 164.167,224.5 166.833,224.5 169.5,224.5C 167.365,226.369 164.698,227.036 161.5,226.5C 161.813,229.247 161.48,231.914 160.5,234.5C 159.504,228.202 159.17,221.868 159.5,215.5 Z"/></g>
<g><path style="opacity:1" fill="#727272" d="M 176.5,215.5 C 176.334,221.509 176.501,227.509 177,233.5C 177.186,230.964 177.686,228.631 178.5,226.5C 178.5,229.167 178.5,231.833 178.5,234.5C 177.5,234.5 176.5,234.5 175.5,234.5C 175.177,227.978 175.51,221.645 176.5,215.5 Z"/></g>
<g><path style="opacity:1" fill="#292929" d="M 195.5,215.5 C 196.818,218.258 197.485,221.424 197.5,225C 197.167,228.167 196.833,231.333 196.5,234.5C 195.504,228.202 195.17,221.868 195.5,215.5 Z"/></g>
<g><path style="opacity:1" fill="#5c5c5c" d="M 236.5,215.5 C 236.827,220.544 236.494,225.544 235.5,230.5C 234.893,230.376 234.56,230.043 234.5,229.5C 235.167,224.833 235.833,220.167 236.5,215.5 Z"/></g>
<g><path style="opacity:1" fill="#585858" d="M 246.5,215.5 C 246.5,221.5 246.5,227.5 246.5,233.5C 248.833,233.5 251.167,233.5 253.5,233.5C 251.052,234.473 248.385,234.806 245.5,234.5C 245.177,227.978 245.51,221.645 246.5,215.5 Z"/></g>
<g><path style="opacity:1" fill="#252525" d="M 328.5,217.5 C 325.833,217.5 323.167,217.5 320.5,217.5C 320.5,219.833 320.5,222.167 320.5,224.5C 323.388,223.99 325.721,224.656 327.5,226.5C 325.167,226.5 322.833,226.5 320.5,226.5C 320.813,229.247 320.48,231.914 319.5,234.5C 318.504,228.202 318.17,221.868 318.5,215.5C 322.329,214.931 325.663,215.598 328.5,217.5 Z"/></g>
<g><path style="opacity:1" fill="#c7c7c7" d="M 159.5,215.5 C 162.962,214.518 166.629,214.185 170.5,214.5C 170.5,215.833 170.5,217.167 170.5,218.5C 167.833,218.5 165.167,218.5 162.5,218.5C 162.5,220.167 162.5,221.833 162.5,223.5C 165.059,223.198 167.393,223.532 169.5,224.5C 166.833,224.5 164.167,224.5 161.5,224.5C 161.5,222.167 161.5,219.833 161.5,217.5C 164.247,217.813 166.914,217.48 169.5,216.5C 166.232,215.513 162.898,215.18 159.5,215.5 Z"/></g>
<g><path style="opacity:1" fill="#272727" d="M 205.5,215.5 C 208.898,215.18 212.232,215.513 215.5,216.5C 212.914,217.48 210.247,217.813 207.5,217.5C 207.5,219.5 207.5,221.5 207.5,223.5C 218.167,224.167 218.167,224.833 207.5,225.5C 207.5,227.833 207.5,230.167 207.5,232.5C 210.247,232.187 212.914,232.52 215.5,233.5C 212.232,234.487 208.898,234.82 205.5,234.5C 205.5,228.167 205.5,221.833 205.5,215.5 Z"/></g>
<g><path style="opacity:1" fill="#2e2e2e" d="M 268.5,215.5 C 271.572,215.183 274.572,215.516 277.5,216.5C 274.914,217.48 272.247,217.813 269.5,217.5C 269.34,219.199 269.506,220.866 270,222.5C 272.545,223.522 275.045,224.688 277.5,226C 279.124,229.206 278.458,231.872 275.5,234C 272.518,234.498 269.518,234.665 266.5,234.5C 266.281,233.325 266.614,232.325 267.5,231.5C 271.196,233.28 274.196,232.613 276.5,229.5C 273.838,227.068 271.005,224.735 268,222.5C 267.297,220.071 267.463,217.738 268.5,215.5 Z"/></g>
<g><path style="opacity:1" fill="#959494" d="M 139.5,221.5 C 138.833,222.833 138.167,224.167 137.5,225.5C 137.889,218.83 138.389,212.164 139,205.5C 139.499,210.823 139.666,216.156 139.5,221.5 Z"/></g>
<g><path style="opacity:1" fill="#767676" d="M 226.5,217.5 C 225.85,217.196 225.183,216.863 224.5,216.5C 223.337,222.137 223.17,227.804 224,233.5C 224.172,228.798 224.672,224.132 225.5,219.5C 226.107,219.624 226.44,219.957 226.5,220.5C 225.514,224.97 225.181,229.637 225.5,234.5C 224.5,234.5 223.5,234.5 222.5,234.5C 222.5,228.167 222.5,221.833 222.5,215.5C 224.483,215.157 225.817,215.824 226.5,217.5 Z"/></g>
<g><path style="opacity:1" fill="#b1b1b1" d="M 328.5,217.5 C 326.393,218.468 324.059,218.802 321.5,218.5C 321.5,220.167 321.5,221.833 321.5,223.5C 323.833,223.5 326.167,223.5 328.5,223.5C 328.737,224.791 328.404,225.791 327.5,226.5C 325.721,224.656 323.388,223.99 320.5,224.5C 320.5,222.167 320.5,219.833 320.5,217.5C 323.167,217.5 325.833,217.5 328.5,217.5 Z"/></g>
<g><path style="opacity:1" fill="#232323" d="M 176.5,215.5 C 180.257,215.071 183.757,215.737 187,217.5C 188.075,221.067 187.242,224.067 184.5,226.5C 186.086,228.67 187.42,231.004 188.5,233.5C 187.833,234.833 187.167,234.833 186.5,233.5C 185.041,231.417 183.708,229.25 182.5,227C 181.207,226.51 179.873,226.343 178.5,226.5C 177.686,228.631 177.186,230.964 177,233.5C 176.501,227.509 176.334,221.509 176.5,215.5 Z"/></g>
<g><path style="opacity:1" fill="#efefef" d="M 178.5,217.5 C 184.36,216.074 186.36,218.074 184.5,223.5C 182.591,224.348 180.591,224.682 178.5,224.5C 178.5,222.167 178.5,219.833 178.5,217.5 Z"/></g>
<g><path style="opacity:1" fill="#686666" d="M 139.5,221.5 C 139.5,240.5 139.5,259.5 139.5,278.5C 139.167,278.5 138.833,278.5 138.5,278.5C 138.667,264.829 138.5,251.163 138,237.5C 137.824,241.688 137.324,245.688 136.5,249.5C 136.501,241.483 136.834,233.483 137.5,225.5C 138.167,224.167 138.833,222.833 139.5,221.5 Z"/></g>
<g><path style="opacity:1" fill="#1d1d1d" d="M 236.5,215.5 C 237.817,221.678 237.817,228.012 236.5,234.5C 232.679,230.194 229.345,225.527 226.5,220.5C 226.44,219.957 226.107,219.624 225.5,219.5C 224.672,224.132 224.172,228.798 224,233.5C 223.17,227.804 223.337,222.137 224.5,216.5C 225.183,216.863 225.85,217.196 226.5,217.5C 229.154,221.463 231.82,225.463 234.5,229.5C 234.56,230.043 234.893,230.376 235.5,230.5C 236.494,225.544 236.827,220.544 236.5,215.5 Z"/></g>
<g><path style="opacity:1" fill="#323232" d="M 297.5,215.5 C 309.146,214.311 313.313,219.311 310,230.5C 304.924,235.756 299.924,235.756 295,230.5C 292.448,224.849 293.282,219.849 297.5,215.5 Z"/></g>
<g><path style="opacity:1" fill="#f7f7f7" d="M 299.5,217.5 C 307.515,216.8 310.348,220.466 308,228.5C 306.309,232.213 303.475,233.379 299.5,232C 295.527,227.098 295.527,222.264 299.5,217.5 Z"/></g>
<g><path style="opacity:1" fill="#2b2b2b" d="M 246.5,215.5 C 257.157,213.658 261.657,217.991 260,228.5C 258.809,231.534 256.642,233.201 253.5,233.5C 251.167,233.5 248.833,233.5 246.5,233.5C 246.5,227.5 246.5,221.5 246.5,215.5 Z"/></g>
<g><path style="opacity:1" fill="#f4f4f4" d="M 248.5,217.5 C 258.944,217.706 261.278,222.206 255.5,231C 253.323,232.202 250.989,232.702 248.5,232.5C 248.5,227.5 248.5,222.5 248.5,217.5 Z"/></g>
<g><path style="opacity:1" fill="#363233" d="M 67.5,207.5 C 67.8333,207.5 68.1667,207.5 68.5,207.5C 68.5,231.167 68.5,254.833 68.5,278.5C 58.8333,278.5 49.1667,278.5 39.5,278.5C 39.1701,261.325 39.5034,244.325 40.5,227.5C 41.3328,242.826 41.9995,258.159 42.5,273.5C 50.8333,273.5 59.1667,273.5 67.5,273.5C 67.5,251.5 67.5,229.5 67.5,207.5 Z"/></g>
<g><path style="opacity:1" fill="#0c0c0c" d="M 158.5,238.5 C 164.833,238.5 171.167,238.5 177.5,238.5C 177.5,240.167 177.5,241.833 177.5,243.5C 175.265,243.205 173.265,243.539 171.5,244.5C 171.5,251.167 171.5,257.833 171.5,264.5C 169.167,264.5 166.833,264.5 164.5,264.5C 164.5,257.833 164.5,251.167 164.5,244.5C 162.735,243.539 160.735,243.205 158.5,243.5C 158.5,241.833 158.5,240.167 158.5,238.5 Z"/></g>
<g><path style="opacity:1" fill="#4f4f4f" d="M 182.5,238.5 C 182.5,247.167 182.5,255.833 182.5,264.5C 184.5,264.5 186.5,264.5 188.5,264.5C 186.393,265.468 184.059,265.802 181.5,265.5C 181.173,256.318 181.507,247.318 182.5,238.5 Z"/></g>
<g><path style="opacity:1" fill="#050505" d="M 182.5,238.5 C 184.5,238.5 186.5,238.5 188.5,238.5C 188.5,241.833 188.5,245.167 188.5,248.5C 191.5,248.5 194.5,248.5 197.5,248.5C 197.5,245.167 197.5,241.833 197.5,238.5C 199.833,238.5 202.167,238.5 204.5,238.5C 204.5,247.167 204.5,255.833 204.5,264.5C 202.167,264.5 199.833,264.5 197.5,264.5C 197.5,260.833 197.5,257.167 197.5,253.5C 194.5,253.5 191.5,253.5 188.5,253.5C 188.5,257.167 188.5,260.833 188.5,264.5C 186.5,264.5 184.5,264.5 182.5,264.5C 182.5,255.833 182.5,247.167 182.5,238.5 Z"/></g>
<g><path style="opacity:1" fill="#080808" d="M 225.5,238.5 C 225.5,240.167 225.5,241.833 225.5,243.5C 222.615,243.194 219.948,243.527 217.5,244.5C 217.5,245.833 217.5,247.167 217.5,248.5C 219.833,248.5 222.167,248.5 224.5,248.5C 224.5,250.167 224.5,251.833 224.5,253.5C 221.941,253.198 219.607,253.532 217.5,254.5C 217.5,255.833 217.5,257.167 217.5,258.5C 219.948,259.473 222.615,259.806 225.5,259.5C 225.5,261.167 225.5,262.833 225.5,264.5C 220.5,264.5 215.5,264.5 210.5,264.5C 210.5,255.833 210.5,247.167 210.5,238.5C 215.5,238.5 220.5,238.5 225.5,238.5 Z"/></g>
<g><path style="opacity:1" fill="#0b0b0b" d="M 257.5,251.5 C 258.924,249.485 259.59,247.152 259.5,244.5C 260.15,242.565 260.483,240.565 260.5,238.5C 263.833,238.5 267.167,238.5 270.5,238.5C 270.5,247.167 270.5,255.833 270.5,264.5C 268.5,264.5 266.5,264.5 264.5,264.5C 264.666,259.156 264.499,253.823 264,248.5C 262.961,249.244 262.461,250.244 262.5,251.5C 261.747,255.678 260.413,259.678 258.5,263.5C 256.257,264.474 253.924,264.808 251.5,264.5C 251.027,260.267 250.027,256.267 248.5,252.5C 248.313,250.436 247.813,248.436 247,246.5C 246.501,252.491 246.334,258.491 246.5,264.5C 244.5,264.5 242.5,264.5 240.5,264.5C 240.5,255.833 240.5,247.167 240.5,238.5C 243.833,238.5 247.167,238.5 250.5,238.5C 251.754,244.597 253.42,250.597 255.5,256.5C 256.322,254.861 256.989,253.195 257.5,251.5 Z"/></g>
<g><path style="opacity:1" fill="#000100" d="M 276.5,239.5 C 278.5,239.5 280.5,239.5 282.5,239.5C 282.5,247.833 282.5,256.167 282.5,264.5C 280.5,264.5 278.5,264.5 276.5,264.5C 276.5,256.167 276.5,247.833 276.5,239.5 Z"/></g>
<g><path style="opacity:1" fill="#272727" d="M 276.5,239.5 C 278.607,238.532 280.941,238.198 283.5,238.5C 283.826,247.349 283.493,256.016 282.5,264.5C 282.5,256.167 282.5,247.833 282.5,239.5C 280.5,239.5 278.5,239.5 276.5,239.5 Z"/></g>
<g><path style="opacity:1" fill="#121212" d="M 288.5,263.5 C 288.077,261.219 288.744,259.552 290.5,258.5C 293.822,260.118 296.822,259.785 299.5,257.5C 295.769,255.209 292.269,252.542 289,249.5C 287.059,241.697 290.059,238.031 298,238.5C 301.052,238.364 303.886,239.031 306.5,240.5C 305.96,241.748 305.293,242.915 304.5,244C 301.525,244.044 298.525,243.877 295.5,243.5C 295.297,245.39 295.963,246.89 297.5,248C 300.759,249.211 303.592,251.044 306,253.5C 307.401,259.863 304.901,263.697 298.5,265C 295.5,265.667 292.5,265.667 289.5,265C 288.944,264.617 288.611,264.117 288.5,263.5 Z"/></g>
<g><path style="opacity:1" fill="#141414" d="M 312.5,258.5 C 314.948,259.473 317.615,259.806 320.5,259.5C 320.768,257.901 320.434,256.568 319.5,255.5C 312.22,254.067 309.053,249.733 310,242.5C 311.167,241.333 312.333,240.167 313.5,239C 317.89,238.228 322.223,238.394 326.5,239.5C 327.645,240.776 327.645,242.109 326.5,243.5C 313.625,243.458 313.291,245.958 325.5,251C 329.794,259.905 326.961,264.739 317,265.5C 310.387,266.428 308.22,263.761 310.5,257.5C 311.183,257.863 311.85,258.196 312.5,258.5 Z"/></g>
<g><path style="opacity:1" fill="#000100" d="M 332.5,239.5 C 334.5,239.5 336.5,239.5 338.5,239.5C 338.5,247.833 338.5,256.167 338.5,264.5C 336.5,264.5 334.5,264.5 332.5,264.5C 332.5,256.167 332.5,247.833 332.5,239.5 Z"/></g>
<g><path style="opacity:1" fill="#2a2a2a" d="M 332.5,239.5 C 334.607,238.532 336.941,238.198 339.5,238.5C 339.826,247.349 339.493,256.016 338.5,264.5C 338.5,256.167 338.5,247.833 338.5,239.5C 336.5,239.5 334.5,239.5 332.5,239.5 Z"/></g>
<g><path style="opacity:1" fill="#0e0e0e" d="M 350.5,238.5 C 365.713,236.211 371.879,242.544 369,257.5C 367.73,261.77 364.896,264.27 360.5,265C 354.11,266.942 349.277,265.109 346,259.5C 342.747,251.267 344.247,244.267 350.5,238.5 Z"/></g>
<g><path style="opacity:1" fill="#090909" d="M 375.5,238.5 C 378.518,238.335 381.518,238.502 384.5,239C 387.446,244.39 390.279,249.89 393,255.5C 393.499,249.843 393.666,244.176 393.5,238.5C 395.5,238.5 397.5,238.5 399.5,238.5C 399.5,247.167 399.5,255.833 399.5,264.5C 396.061,264.747 392.728,264.414 389.5,263.5C 387.674,258.516 385.341,253.849 382.5,249.5C 382.539,248.244 382.039,247.244 381,246.5C 380.501,252.491 380.334,258.491 380.5,264.5C 378.833,264.5 377.167,264.5 375.5,264.5C 375.5,255.833 375.5,247.167 375.5,238.5 Z"/></g>
<g><path style="opacity:1" fill="#343132" d="M 138.5,278.5 C 127.321,278.828 116.321,278.495 105.5,277.5C 107.636,276.597 109.636,275.431 111.5,274C 119.493,273.5 127.493,273.334 135.5,273.5C 135.644,265.49 135.977,257.49 136.5,249.5C 137.324,245.688 137.824,241.688 138,237.5C 138.5,251.163 138.667,264.829 138.5,278.5 Z"/></g>
<g><path style="opacity:1" fill="#686868" d="M 158.5,238.5 C 158.5,240.167 158.5,241.833 158.5,243.5C 160.735,243.205 162.735,243.539 164.5,244.5C 162.167,244.5 159.833,244.5 157.5,244.5C 157.205,242.265 157.539,240.265 158.5,238.5 Z"/></g>
<g><path style="opacity:1" fill="#676767" d="M 177.5,238.5 C 178.461,240.265 178.795,242.265 178.5,244.5C 176.167,244.5 173.833,244.5 171.5,244.5C 173.265,243.539 175.265,243.205 177.5,243.5C 177.5,241.833 177.5,240.167 177.5,238.5 Z"/></g>
<g><path style="opacity:1" fill="#7a7a7a" d="M 225.5,238.5 C 226.461,240.265 226.795,242.265 226.5,244.5C 223.5,244.5 220.5,244.5 217.5,244.5C 219.948,243.527 222.615,243.194 225.5,243.5C 225.5,241.833 225.5,240.167 225.5,238.5 Z"/></g>
<g><path style="opacity:1" fill="#e8e8e8" d="M 354.5,243.5 C 362.121,243.946 364.621,247.946 362,255.5C 358.667,260.833 355.333,260.833 352,255.5C 350.888,251.019 351.721,247.019 354.5,243.5 Z"/></g>
<g><path style="opacity:1" fill="#a9a9a9" d="M 188.5,238.5 C 189.477,241.287 189.81,244.287 189.5,247.5C 191.833,247.5 194.167,247.5 196.5,247.5C 196.19,244.287 196.523,241.287 197.5,238.5C 197.5,241.833 197.5,245.167 197.5,248.5C 194.5,248.5 191.5,248.5 188.5,248.5C 188.5,245.167 188.5,241.833 188.5,238.5 Z"/></g>
<g><path style="opacity:1" fill="#4d4d4d" d="M 259.5,244.5 C 259.59,247.152 258.924,249.485 257.5,251.5C 257.41,248.848 258.076,246.515 259.5,244.5 Z"/></g>
<g><path style="opacity:1" fill="#909090" d="M 264.5,264.5 C 263.833,260.167 263.167,255.833 262.5,251.5C 262.461,250.244 262.961,249.244 264,248.5C 264.499,253.823 264.666,259.156 264.5,264.5 Z"/></g>
<g><path style="opacity:1" fill="#a6a6a6" d="M 248.5,252.5 C 247.833,256.5 247.167,260.5 246.5,264.5C 246.334,258.491 246.501,252.491 247,246.5C 247.813,248.436 248.313,250.436 248.5,252.5 Z"/></g>
<g><path style="opacity:1" fill="#666666" d="M 224.5,248.5 C 225.461,250.265 225.795,252.265 225.5,254.5C 222.833,254.5 220.167,254.5 217.5,254.5C 219.607,253.532 221.941,253.198 224.5,253.5C 224.5,251.833 224.5,250.167 224.5,248.5 Z"/></g>
<g><path style="opacity:1" fill="#707070" d="M 375.5,238.5 C 375.5,247.167 375.5,255.833 375.5,264.5C 377.167,264.5 378.833,264.5 380.5,264.5C 380.334,258.491 380.501,252.491 381,246.5C 382.039,247.244 382.539,248.244 382.5,249.5C 381.512,254.64 381.179,259.974 381.5,265.5C 379.167,265.5 376.833,265.5 374.5,265.5C 374.173,256.318 374.507,247.318 375.5,238.5 Z"/></g>
<g><path style="opacity:1" fill="#919191" d="M 197.5,264.5 C 196.521,261.375 196.187,258.042 196.5,254.5C 194.167,254.5 191.833,254.5 189.5,254.5C 189.813,258.042 189.479,261.375 188.5,264.5C 188.5,260.833 188.5,257.167 188.5,253.5C 191.5,253.5 194.5,253.5 197.5,253.5C 197.5,257.167 197.5,260.833 197.5,264.5 Z"/></g>
<g><path style="opacity:1" fill="#868686" d="M 217.5,258.5 C 220.5,258.5 223.5,258.5 226.5,258.5C 226.795,260.735 226.461,262.735 225.5,264.5C 225.5,262.833 225.5,261.167 225.5,259.5C 222.615,259.806 219.948,259.473 217.5,258.5 Z"/></g>
<g><path style="opacity:1" fill="#7d7d7d" d="M 290.5,258.5 C 288.744,259.552 288.077,261.219 288.5,263.5C 287.539,261.735 287.205,259.735 287.5,257.5C 288.791,257.263 289.791,257.596 290.5,258.5 Z"/></g>
<g><path style="opacity:1" fill="#aaaaaa" d="M 319.5,255.5 C 320.434,256.568 320.768,257.901 320.5,259.5C 317.615,259.806 314.948,259.473 312.5,258.5C 314.833,258.5 317.167,258.5 319.5,258.5C 319.5,257.5 319.5,256.5 319.5,255.5 Z"/></g>
<g><path style="opacity:1" fill="#9c9c9c" d="M 389.5,263.5 C 392.728,264.414 396.061,264.747 399.5,264.5C 398.036,265.16 396.369,265.493 394.5,265.5C 392.36,265.444 390.694,264.777 389.5,263.5 Z"/></g>
<g><path style="opacity:1" fill="#b7b6b7" d="M 105.5,277.5 C 116.321,278.495 127.321,278.828 138.5,278.5C 138.833,278.5 139.167,278.5 139.5,278.5C 127.993,279.824 116.327,279.824 104.5,278.5C 104.624,277.893 104.957,277.56 105.5,277.5 Z"/></g>
</svg>
