<?xml version="1.0" encoding="UTF-8"?>
<!DOCTYPE svg PUBLIC "-//W3C//DTD SVG 1.1//EN" "http://www.w3.org/Graphics/SVG/1.1/DTD/svg11.dtd">
<svg xmlns="http://www.w3.org/2000/svg" version="1.1" width="469px" height="469px" style="shape-rendering:geometricPrecision; text-rendering:geometricPrecision; image-rendering:optimizeQuality; fill-rule:evenodd; clip-rule:evenodd" xmlns:xlink="http://www.w3.org/1999/xlink">
<g><path style="opacity:1" fill="#fefefe" d="M -0.5,-0.5 C 155.833,-0.5 312.167,-0.5 468.5,-0.5C 468.5,155.833 468.5,312.167 468.5,468.5C 312.167,468.5 155.833,468.5 -0.5,468.5C -0.5,312.167 -0.5,155.833 -0.5,-0.5 Z"/></g>
<g><path style="opacity:1" fill="#819aab" d="M 46.5,135.5 C 171.5,135.5 296.5,135.5 421.5,135.5C 421.5,194.167 421.5,252.833 421.5,311.5C 296.5,311.5 171.5,311.5 46.5,311.5C 46.5,252.833 46.5,194.167 46.5,135.5 Z"/></g>
<g><path style="opacity:1" fill="#636323" d="M 128.5,168.5 C 128.833,169.167 129.167,169.833 129.5,170.5C 123.833,169.502 121.499,171.836 122.5,177.5C 118.704,170.937 120.704,167.937 128.5,168.5 Z"/></g>
<g><path style="opacity:1" fill="#afaa23" d="M 129.5,170.5 C 130.301,172.042 130.634,173.708 130.5,175.5C 130.167,175.5 129.833,175.5 129.5,175.5C 129.5,174.5 129.5,173.5 129.5,172.5C 125.651,172.019 123.651,173.686 123.5,177.5C 125.167,177.5 126.833,177.5 128.5,177.5C 128.5,177.833 128.5,178.167 128.5,178.5C 126.833,178.5 125.167,178.5 123.5,178.5C 122.833,178.5 122.5,178.167 122.5,177.5C 121.499,171.836 123.833,169.502 129.5,170.5 Z"/></g>
<g><path style="opacity:1" fill="#e8e11b" d="M 129.5,175.5 C 129.167,176.167 128.833,176.833 128.5,177.5C 126.833,177.5 125.167,177.5 123.5,177.5C 123.651,173.686 125.651,172.019 129.5,172.5C 129.5,173.5 129.5,174.5 129.5,175.5 Z"/></g>
<g><path style="opacity:1" fill="#636032" d="M 129.5,175.5 C 129.833,175.5 130.167,175.5 130.5,175.5C 130.573,177.027 129.906,178.027 128.5,178.5C 128.5,178.167 128.5,177.833 128.5,177.5C 128.833,176.833 129.167,176.167 129.5,175.5 Z"/></g>
<g><path style="opacity:1" fill="#434846" d="M 130.5,175.5 C 131.799,177.153 131.466,178.653 129.5,180C 127.455,180.49 125.455,180.323 123.5,179.5C 123.5,179.167 123.5,178.833 123.5,178.5C 125.167,178.5 126.833,178.5 128.5,178.5C 129.906,178.027 130.573,177.027 130.5,175.5 Z"/></g>
<g><path style="opacity:1" fill="#657783" d="M 128.5,168.5 C 133.009,171.21 134.509,175.21 133,180.5C 129.287,183.46 126.121,183.127 123.5,179.5C 125.455,180.323 127.455,180.49 129.5,180C 131.466,178.653 131.799,177.153 130.5,175.5C 130.634,173.708 130.301,172.042 129.5,170.5C 129.167,169.833 128.833,169.167 128.5,168.5 Z"/></g>
<g><path style="opacity:1" fill="#343e45" d="M 236.5,188.5 C 236.5,204.167 236.5,219.833 236.5,235.5C 238.415,235.216 240.081,235.549 241.5,236.5C 239.5,236.5 237.5,236.5 235.5,236.5C 235.17,220.325 235.504,204.325 236.5,188.5 Z"/></g>
<g><path style="opacity:1" fill="#858a2c" d="M 126.5,193.5 C 125.766,194.708 125.433,196.041 125.5,197.5C 124.833,197.5 124.167,197.5 123.5,197.5C 123.5,196.5 123.5,195.5 123.5,194.5C 124.391,193.89 125.391,193.557 126.5,193.5 Z"/></g>
<g><path style="opacity:1" fill="#c4c558" d="M 126.5,193.5 C 127.5,193.833 128.167,194.5 128.5,195.5C 128.179,197.048 127.179,197.715 125.5,197.5C 125.433,196.041 125.766,194.708 126.5,193.5 Z"/></g>
<g><path style="opacity:1" fill="#595f4e" d="M 123.5,194.5 C 123.5,195.5 123.5,196.5 123.5,197.5C 123.5,197.833 123.5,198.167 123.5,198.5C 122.599,199.29 121.932,200.29 121.5,201.5C 120.527,203.139 119.194,204.473 117.5,205.5C 118.826,202.227 120.16,198.894 121.5,195.5C 121.957,194.702 122.624,194.369 123.5,194.5 Z"/></g>
<g><path style="opacity:1" fill="#acb271" d="M 128.5,195.5 C 130.565,198.925 132.231,202.592 133.5,206.5C 132.167,204.833 130.833,203.167 129.5,201.5C 129.5,199.5 128.5,198.5 126.5,198.5C 125.5,198.5 124.5,198.5 123.5,198.5C 123.5,198.167 123.5,197.833 123.5,197.5C 124.167,197.5 124.833,197.5 125.5,197.5C 127.179,197.715 128.179,197.048 128.5,195.5 Z"/></g>
<g><path style="opacity:1" fill="#727343" d="M 126.5,198.5 C 128.5,198.5 129.5,199.5 129.5,201.5C 128.779,204.817 128.612,208.151 129,211.5C 130.356,212.38 131.856,212.714 133.5,212.5C 133.5,212.833 133.5,213.167 133.5,213.5C 131.533,213.739 129.699,213.406 128,212.5C 127.169,207.849 126.669,203.183 126.5,198.5 Z"/></g>
<g><path style="opacity:1" fill="#e9e9e9" d="M 301.5,204.5 C 303.348,207.355 305.015,210.355 306.5,213.5C 306.5,215.833 306.5,218.167 306.5,220.5C 296.985,220.173 287.652,220.506 278.5,221.5C 278.284,228.875 280.95,234.875 286.5,239.5C 293.883,242.316 299.55,240.316 303.5,233.5C 306.59,232.086 307.757,233.086 307,236.5C 298.592,246.155 288.759,247.989 277.5,242C 273.755,238.572 271.421,234.406 270.5,229.5C 270.152,223.013 270.818,216.68 272.5,210.5C 277.268,201.121 284.935,197.621 295.5,200C 297.747,201.277 299.747,202.777 301.5,204.5 Z"/></g>
<g><path style="opacity:1" fill="#6d6a30" d="M 121.5,201.5 C 121.5,202.833 121.5,204.167 121.5,205.5C 119.938,205.733 118.605,206.4 117.5,207.5C 117.5,206.833 117.5,206.167 117.5,205.5C 119.194,204.473 120.527,203.139 121.5,201.5 Z"/></g>
<g><path style="opacity:1" fill="#cfd149" d="M 129.5,201.5 C 130.833,203.167 132.167,204.833 133.5,206.5C 134.674,207.514 135.34,208.847 135.5,210.5C 135.715,212.179 135.048,213.179 133.5,213.5C 133.5,213.167 133.5,212.833 133.5,212.5C 131.856,212.714 130.356,212.38 129,211.5C 128.612,208.151 128.779,204.817 129.5,201.5 Z"/></g>
<g><path style="opacity:1" fill="#c5c5c5" d="M 301.5,204.5 C 302.833,205.5 304.167,206.5 305.5,207.5C 306.038,209.117 306.371,210.784 306.5,212.5C 306.5,212.833 306.5,213.167 306.5,213.5C 305.015,210.355 303.348,207.355 301.5,204.5 Z"/></g>
<g><path style="opacity:1" fill="#282c2e" d="M 306.5,206.5 C 305.833,206.5 305.5,206.833 305.5,207.5C 304.167,206.5 302.833,205.5 301.5,204.5C 299.747,202.777 297.747,201.277 295.5,200C 284.935,197.621 277.268,201.121 272.5,210.5C 271.442,211.6 270.608,212.934 270,214.5C 269.501,218.486 269.334,222.486 269.5,226.5C 268.683,224.031 268.183,221.365 268,218.5C 267.506,220.134 267.34,221.801 267.5,223.5C 265.801,223.34 264.134,223.506 262.5,224C 263.737,224.232 264.737,224.732 265.5,225.5C 264.178,225.33 263.011,225.663 262,226.5C 260.546,229.071 259.38,231.738 258.5,234.5C 257.272,235.306 256.272,236.306 255.5,237.5C 252.638,236.319 249.638,236.319 246.5,237.5C 246.611,236.883 246.944,236.383 247.5,236C 249.833,235.667 252.167,235.333 254.5,235C 256.986,231.863 258.819,228.363 260,224.5C 261.789,222.771 263.956,222.104 266.5,222.5C 268.353,202.465 279.02,194.631 298.5,199C 302.313,200.385 304.979,202.885 306.5,206.5 Z"/></g>
<g><path style="opacity:1" fill="#c1be9a" d="M 122.5,206.5 C 123.649,206.791 124.316,207.624 124.5,209C 124.041,210.942 123.041,212.442 121.5,213.5C 119.833,213.5 118.167,213.5 116.5,213.5C 116.5,213.167 116.5,212.833 116.5,212.5C 117.167,212.5 117.833,212.5 118.5,212.5C 121.776,211.878 123.109,209.878 122.5,206.5 Z"/></g>
<g><path style="opacity:1" fill="#e7e623" d="M 133.5,212.5 C 129.86,211.853 128.86,209.853 130.5,206.5C 133.247,207.983 134.247,209.983 133.5,212.5 Z"/></g>
<g><path style="opacity:1" fill="#8a8a8a" d="M 295.5,206.5 C 296.906,206.973 297.573,207.973 297.5,209.5C 296.094,209.027 295.427,208.027 295.5,206.5 Z"/></g>
<g><path style="opacity:1" fill="#d4d048" d="M 121.5,205.5 C 121.833,205.5 122.167,205.5 122.5,205.5C 122.5,205.833 122.5,206.167 122.5,206.5C 123.109,209.878 121.776,211.878 118.5,212.5C 118.15,209.547 119.15,207.213 121.5,205.5 Z"/></g>
<g><path style="opacity:1" fill="#868616" d="M 121.5,205.5 C 119.15,207.213 118.15,209.547 118.5,212.5C 117.833,212.5 117.167,212.5 116.5,212.5C 116.629,210.784 116.962,209.117 117.5,207.5C 118.605,206.4 119.938,205.733 121.5,205.5 Z"/></g>
<g><path style="opacity:1" fill="#a7a4a2" d="M 123.5,219.5 C 124.15,221.435 124.483,223.435 124.5,225.5C 123.883,225.611 123.383,225.944 123,226.5C 121.925,222.23 121.425,217.897 121.5,213.5C 123.041,212.442 124.041,210.942 124.5,209C 124.316,207.624 123.649,206.791 122.5,206.5C 122.5,206.167 122.5,205.833 122.5,205.5C 122.383,203.516 123.05,201.85 124.5,200.5C 125.331,204.641 125.997,208.808 126.5,213C 125.692,215.075 124.358,216.742 122.5,218C 122.57,218.765 122.903,219.265 123.5,219.5 Z"/></g>
<g><path style="opacity:1" fill="#969d73" d="M 135.5,210.5 C 138.404,215.201 140.737,220.201 142.5,225.5C 141.833,225.167 141.167,224.833 140.5,224.5C 140.346,222.03 139.346,220.03 137.5,218.5C 137.737,217.209 137.404,216.209 136.5,215.5C 135.833,215.5 135.167,215.5 134.5,215.5C 134.167,214.833 133.833,214.167 133.5,213.5C 135.048,213.179 135.715,212.179 135.5,210.5 Z"/></g>
<g><path style="opacity:1" fill="#1f2122" d="M 295.5,206.5 C 295.427,208.027 296.094,209.027 297.5,209.5C 297.5,212.167 297.5,214.833 297.5,217.5C 291.167,217.5 284.833,217.5 278.5,217.5C 278.941,204.999 284.608,201.332 295.5,206.5 Z"/></g>
<g><path style="opacity:1" fill="#576875" d="M 294.5,209.5 C 295.461,211.265 295.795,213.265 295.5,215.5C 290.637,215.819 285.97,215.486 281.5,214.5C 285.833,214.5 290.167,214.5 294.5,214.5C 294.5,212.833 294.5,211.167 294.5,209.5 Z"/></g>
<g><path style="opacity:1" fill="#7c94a6" d="M 294.5,209.5 C 294.5,211.167 294.5,212.833 294.5,214.5C 290.167,214.5 285.833,214.5 281.5,214.5C 282.077,207.541 285.744,205.041 292.5,207C 293.381,207.708 294.047,208.542 294.5,209.5 Z"/></g>
<g><path style="opacity:1" fill="#63635e" d="M 117.5,207.5 C 116.962,209.117 116.629,210.784 116.5,212.5C 116.5,212.833 116.5,213.167 116.5,213.5C 115.276,217.384 113.609,221.05 111.5,224.5C 109.357,226.131 107.69,228.131 106.5,230.5C 108.919,222.987 111.919,215.653 115.5,208.5C 115.957,207.702 116.624,207.369 117.5,207.5 Z"/></g>
<g><path style="opacity:1" fill="#eeeeee" d="M 126.5,224.5 C 126.719,225.675 126.386,226.675 125.5,227.5C 124.702,227.043 124.369,226.376 124.5,225.5C 124.483,223.435 124.15,221.435 123.5,219.5C 124.287,217.896 125.62,217.229 127.5,217.5C 127.326,219.861 126.993,222.194 126.5,224.5 Z"/></g>
<g><path style="opacity:1" fill="#b5b5b5" d="M 272.5,210.5 C 270.818,216.68 270.152,223.013 270.5,229.5C 270.167,229.5 269.833,229.5 269.5,229.5C 269.5,228.5 269.5,227.5 269.5,226.5C 269.334,222.486 269.501,218.486 270,214.5C 270.608,212.934 271.442,211.6 272.5,210.5 Z"/></g>
<g><path style="opacity:1" fill="#a7a7a7" d="M 306.5,212.5 C 307.477,215.287 307.81,218.287 307.5,221.5C 297.833,221.5 288.167,221.5 278.5,221.5C 287.652,220.506 296.985,220.173 306.5,220.5C 306.5,218.167 306.5,215.833 306.5,213.5C 306.5,213.167 306.5,212.833 306.5,212.5 Z"/></g>
<g><path style="opacity:1" fill="#aab43f" d="M 137.5,218.5 C 139.346,220.03 140.346,222.03 140.5,224.5C 139.5,224.5 138.5,224.5 137.5,224.5C 137.5,222.5 137.5,220.5 137.5,218.5 Z"/></g>
<g><path style="opacity:1" fill="#1c1e1f" d="M 306.5,206.5 C 307.313,208.261 308.313,209.928 309.5,211.5C 309.693,215.566 309.36,219.566 308.5,223.5C 308.167,223.5 307.833,223.5 307.5,223.5C 298.5,223.5 289.5,223.5 280.5,223.5C 280.232,225.099 280.566,226.432 281.5,227.5C 282.049,229.901 282.882,232.235 284,234.5C 285.129,236.141 286.629,237.141 288.5,237.5C 290.969,238.317 293.635,238.817 296.5,239C 293.183,239.498 289.85,239.665 286.5,239.5C 280.95,234.875 278.284,228.875 278.5,221.5C 288.167,221.5 297.833,221.5 307.5,221.5C 307.81,218.287 307.477,215.287 306.5,212.5C 306.371,210.784 306.038,209.117 305.5,207.5C 305.5,206.833 305.833,206.5 306.5,206.5 Z"/></g>
<g><path style="opacity:1" fill="#566672" d="M 312.5,210.5 C 310.816,215.676 310.15,221.009 310.5,226.5C 309.833,225.5 309.167,224.5 308.5,223.5C 309.36,219.566 309.693,215.566 309.5,211.5C 310.609,211.443 311.609,211.11 312.5,210.5 Z"/></g>
<g><path style="opacity:1" fill="#505f6b" d="M 307.5,223.5 C 299.016,224.493 290.349,224.826 281.5,224.5C 281.5,225.5 281.5,226.5 281.5,227.5C 280.566,226.432 280.232,225.099 280.5,223.5C 289.5,223.5 298.5,223.5 307.5,223.5 Z"/></g>
<g><path style="opacity:1" fill="#787776" d="M 133.5,215.5 C 133.836,219.167 133.003,222.5 131,225.5C 130.5,234.16 130.334,242.827 130.5,251.5C 129.793,259.146 129.46,266.813 129.5,274.5C 129.737,275.791 129.404,276.791 128.5,277.5C 128.201,256.467 128.534,235.467 129.5,214.5C 130.959,214.433 132.292,214.766 133.5,215.5 Z"/></g>
<g><path style="opacity:1" fill="#175134" d="M 154.5,226.5 C 158.575,225.659 161.575,226.992 163.5,230.5C 163.737,231.791 163.404,232.791 162.5,233.5C 162.143,229.605 160.143,228.605 156.5,230.5C 155.37,231.622 154.703,232.956 154.5,234.5C 152.896,233.713 152.229,232.38 152.5,230.5C 153.167,229.167 153.833,227.833 154.5,226.5 Z"/></g>
<g><path style="opacity:1" fill="#5f443c" d="M 96.5,227.5 C 96.5,227.833 96.5,228.167 96.5,228.5C 92.2094,227.82 89.5427,229.486 88.5,233.5C 87.1811,231.395 87.5144,229.395 89.5,227.5C 91.9732,226.203 94.3066,226.203 96.5,227.5 Z"/></g>
<g><path style="opacity:1" fill="#948e8c" d="M 123.5,198.5 C 124.5,198.5 125.5,198.5 126.5,198.5C 126.669,203.183 127.169,207.849 128,212.5C 129.699,213.406 131.533,213.739 133.5,213.5C 133.833,214.167 134.167,214.833 134.5,215.5C 134.167,215.5 133.833,215.5 133.5,215.5C 132.292,214.766 130.959,214.433 129.5,214.5C 128.534,235.467 128.201,256.467 128.5,277.5C 128.244,281.269 128.577,284.936 129.5,288.5C 128.5,288.5 127.5,288.5 126.5,288.5C 127.744,283.702 127.744,279.035 126.5,274.5C 126.5,269.833 126.5,265.167 126.5,260.5C 125.5,260.5 124.5,260.5 123.5,260.5C 124.196,249.848 124.53,239.181 124.5,228.5C 125.5,228.5 126.5,228.5 127.5,228.5C 127.768,226.901 127.434,225.568 126.5,224.5C 126.993,222.194 127.326,219.861 127.5,217.5C 125.62,217.229 124.287,217.896 123.5,219.5C 122.903,219.265 122.57,218.765 122.5,218C 124.358,216.742 125.692,215.075 126.5,213C 125.997,208.808 125.331,204.641 124.5,200.5C 123.05,201.85 122.383,203.516 122.5,205.5C 122.167,205.5 121.833,205.5 121.5,205.5C 121.5,204.167 121.5,202.833 121.5,201.5C 121.932,200.29 122.599,199.29 123.5,198.5 Z"/></g>
<g><path style="opacity:1" fill="#855242" d="M 96.5,228.5 C 97.9063,228.973 98.573,229.973 98.5,231.5C 98.6716,232.492 98.3382,233.158 97.5,233.5C 97.5923,229.929 95.9257,228.762 92.5,230C 90.8446,231.444 90.178,233.278 90.5,235.5C 89.8333,234.833 89.1667,234.167 88.5,233.5C 89.5427,229.486 92.2094,227.82 96.5,228.5 Z"/></g>
<g><path style="opacity:1" fill="#10894c" d="M 162.5,233.5 C 160.609,236.172 157.942,237.172 154.5,236.5C 154.5,235.833 154.5,235.167 154.5,234.5C 154.703,232.956 155.37,231.622 156.5,230.5C 160.143,228.605 162.143,229.605 162.5,233.5 Z"/></g>
<g><path style="opacity:1" fill="#c97f62" d="M 97.5,233.5 C 96.3202,235.913 94.3202,236.913 91.5,236.5C 90.8333,236.5 90.5,236.167 90.5,235.5C 90.178,233.278 90.8446,231.444 92.5,230C 95.9257,228.762 97.5923,229.929 97.5,233.5 Z"/></g>
<g><path style="opacity:1" fill="#6d4e44" d="M 111.5,224.5 C 111.5,225.167 111.5,225.833 111.5,226.5C 110.596,227.209 110.263,228.209 110.5,229.5C 109.206,230.29 108.039,231.29 107,232.5C 105.194,237.446 102.861,242.112 100,246.5C 99.51,247.793 99.3433,249.127 99.5,250.5C 97.5849,253.635 96.9182,256.969 97.5,260.5C 97.1667,260.5 96.8333,260.5 96.5,260.5C 95.8333,260.5 95.1667,260.5 94.5,260.5C 93.8333,260.5 93.1667,260.5 92.5,260.5C 93.6719,255.158 95.6719,250.158 98.5,245.5C 101.278,240.718 103.611,235.718 105.5,230.5C 105.833,230.5 106.167,230.5 106.5,230.5C 107.69,228.131 109.357,226.131 111.5,224.5 Z"/></g>
<g><path style="opacity:1" fill="#daa78b" d="M 111.5,226.5 C 111.5,228.5 111.5,230.5 111.5,232.5C 111.244,236.269 111.577,239.936 112.5,243.5C 111.833,243.5 111.167,243.5 110.5,243.5C 110.5,239.5 110.5,235.5 110.5,231.5C 110.5,230.833 110.5,230.167 110.5,229.5C 110.263,228.209 110.596,227.209 111.5,226.5 Z"/></g>
<g><path style="opacity:1" fill="#2c5635" d="M 136.5,215.5 C 137.404,216.209 137.737,217.209 137.5,218.5C 137.5,220.5 137.5,222.5 137.5,224.5C 138.165,230.477 138.498,236.477 138.5,242.5C 137.907,245.5 137.074,248.5 136,251.5C 135.501,247.514 135.334,243.514 135.5,239.5C 136.748,238.666 137.415,237.333 137.5,235.5C 136.668,228.859 136.335,222.192 136.5,215.5 Z"/></g>
<g><path style="opacity:1" fill="#65a587" d="M 144.5,231.5 C 146.25,232.659 147.25,234.326 147.5,236.5C 145.592,235.514 144.592,233.848 144.5,231.5 Z"/></g>
<g><path style="opacity:1" fill="#4d584f" d="M 133.5,215.5 C 133.833,215.5 134.167,215.5 134.5,215.5C 135.167,215.5 135.833,215.5 136.5,215.5C 136.335,222.192 136.668,228.859 137.5,235.5C 137.415,237.333 136.748,238.666 135.5,239.5C 134.987,236.386 134.154,233.386 133,230.5C 131.872,232.345 131.372,234.345 131.5,236.5C 131.5,241.5 131.5,246.5 131.5,251.5C 131.167,251.5 130.833,251.5 130.5,251.5C 130.334,242.827 130.5,234.16 131,225.5C 133.003,222.5 133.836,219.167 133.5,215.5 Z"/></g>
<g><path style="opacity:1" fill="#4a464a" d="M 98.5,231.5 C 100.526,235.604 99.1922,237.938 94.5,238.5C 92.9704,238.36 91.9704,237.693 91.5,236.5C 94.3202,236.913 96.3202,235.913 97.5,233.5C 98.3382,233.158 98.6716,232.492 98.5,231.5 Z"/></g>
<g><path style="opacity:1" fill="#222426" d="M 344.5,244.5 C 343.833,243.833 343.167,243.167 342.5,242.5C 341.837,240.958 341.17,239.291 340.5,237.5C 339.702,237.957 339.369,238.624 339.5,239.5C 337.262,238.463 334.929,238.297 332.5,239C 330.34,240.332 328.34,241.832 326.5,243.5C 326.158,242.662 325.492,242.328 324.5,242.5C 323.791,243.404 322.791,243.737 321.5,243.5C 321.737,244.791 321.404,245.791 320.5,246.5C 318.577,243.397 316.41,240.397 314,237.5C 312.326,233.979 311.16,230.313 310.5,226.5C 310.15,221.009 310.816,215.676 312.5,210.5C 317.877,199.04 326.877,194.873 339.5,198C 351.031,202.729 355.031,211.062 351.5,223C 342.506,223.5 333.506,223.666 324.5,223.5C 324.302,228.751 326.135,233.085 330,236.5C 333.667,235.167 337.333,235.167 341,236.5C 343.012,234.157 345.346,232.157 348,230.5C 352.309,230.466 353.976,232.466 353,236.5C 350.953,240.048 348.12,242.715 344.5,244.5 Z"/></g>
<g><path style="opacity:1" fill="#adadad" d="M 349.5,211.5 C 350.479,214.625 350.813,217.958 350.5,221.5C 340.833,221.5 331.167,221.5 321.5,221.5C 330.652,220.506 339.985,220.173 349.5,220.5C 349.5,217.5 349.5,214.5 349.5,211.5 Z"/></g>
<g><path style="opacity:1" fill="#ececec" d="M 349.5,211.5 C 349.5,214.5 349.5,217.5 349.5,220.5C 339.985,220.173 330.652,220.506 321.5,221.5C 321.208,228.01 323.208,233.676 327.5,238.5C 326.476,239.852 325.476,241.185 324.5,242.5C 322.278,242.822 320.444,242.155 319,240.5C 311.606,230.436 310.606,219.77 316,208.5C 324.83,198.099 334.83,196.766 346,204.5C 347.705,206.577 348.872,208.91 349.5,211.5 Z"/></g>
<g><path style="opacity:1" fill="#939393" d="M 340.5,209.5 C 341.477,212.287 341.81,215.287 341.5,218.5C 334.833,218.5 328.167,218.5 321.5,218.5C 321.198,215.941 321.532,213.607 322.5,211.5C 322.5,213.5 322.5,215.5 322.5,217.5C 328.5,217.5 334.5,217.5 340.5,217.5C 340.5,214.833 340.5,212.167 340.5,209.5 Z"/></g>
<g><path style="opacity:1" fill="#252627" d="M 340.5,209.5 C 340.5,212.167 340.5,214.833 340.5,217.5C 334.5,217.5 328.5,217.5 322.5,217.5C 322.5,215.5 322.5,213.5 322.5,211.5C 325.057,203.891 330.057,201.725 337.5,205C 339.141,206.129 340.141,207.629 340.5,209.5 Z"/></g>
<g><path style="opacity:1" fill="#748b9b" d="M 329.5,205.5 C 336.613,205.034 339.613,208.367 338.5,215.5C 333.833,215.5 329.167,215.5 324.5,215.5C 324.34,213.801 324.506,212.134 325,210.5C 326.707,208.963 328.207,207.296 329.5,205.5 Z"/></g>
<g><path style="opacity:1" fill="#cec9c9" d="M 116.5,213.5 C 118.167,213.5 119.833,213.5 121.5,213.5C 121.425,217.897 121.925,222.23 123,226.5C 123.383,225.944 123.883,225.611 124.5,225.5C 124.369,226.376 124.702,227.043 125.5,227.5C 126.386,226.675 126.719,225.675 126.5,224.5C 127.434,225.568 127.768,226.901 127.5,228.5C 126.5,228.5 125.5,228.5 124.5,228.5C 123.577,227.697 122.577,227.53 121.5,228C 122.459,243.433 122.459,258.933 121.5,274.5C 121.715,276.179 121.048,277.179 119.5,277.5C 118.833,277.5 118.5,277.167 118.5,276.5C 118.492,273.455 118.159,270.455 117.5,267.5C 117.5,267.167 117.5,266.833 117.5,266.5C 118.833,264.167 118.833,261.833 117.5,259.5C 117.5,258.167 117.5,256.833 117.5,255.5C 118.822,252.232 119.489,248.565 119.5,244.5C 119.94,237.821 120.107,231.155 120,224.5C 118.165,221.142 115.998,220.809 113.5,223.5C 112.833,226.642 112.166,229.642 111.5,232.5C 111.5,230.5 111.5,228.5 111.5,226.5C 111.5,225.833 111.5,225.167 111.5,224.5C 113.609,221.05 115.276,217.384 116.5,213.5 Z"/></g>
<g><path style="opacity:1" fill="#0a9a51" d="M 137.5,224.5 C 138.5,224.5 139.5,224.5 140.5,224.5C 141.167,224.833 141.833,225.167 142.5,225.5C 142.704,227.685 143.37,229.685 144.5,231.5C 144.592,233.848 145.592,235.514 147.5,236.5C 148.506,242.175 150.839,247.175 154.5,251.5C 154.181,255.137 153.014,258.47 151,261.5C 150.187,259.564 149.687,257.564 149.5,255.5C 147.738,255.643 146.071,255.309 144.5,254.5C 141.762,254.887 139.428,255.887 137.5,257.5C 136.5,257.5 135.5,257.5 134.5,257.5C 134.569,254.916 135.735,252.916 138,251.5C 138.498,248.518 138.665,245.518 138.5,242.5C 138.498,236.477 138.165,230.477 137.5,224.5 Z"/></g>
<g><path style="opacity:1" fill="#6f818f" d="M 96.5,228.5 C 96.5,228.167 96.5,227.833 96.5,227.5C 99.2668,228.051 101.6,229.384 103.5,231.5C 104.183,231.137 104.85,230.804 105.5,230.5C 103.611,235.718 101.278,240.718 98.5,245.5C 98.5,244.167 98.5,242.833 98.5,241.5C 91.8716,242.867 88.5383,240.2 88.5,233.5C 89.1667,234.167 89.8333,234.833 90.5,235.5C 90.5,236.167 90.8333,236.5 91.5,236.5C 91.9704,237.693 92.9704,238.36 94.5,238.5C 99.1922,237.938 100.526,235.604 98.5,231.5C 98.573,229.973 97.9063,228.973 96.5,228.5 Z"/></g>
<g><path style="opacity:1" fill="#b8b5b4" d="M 124.5,228.5 C 124.53,239.181 124.196,249.848 123.5,260.5C 122.514,264.97 122.181,269.637 122.5,274.5C 122.167,274.5 121.833,274.5 121.5,274.5C 122.459,258.933 122.459,243.433 121.5,228C 122.577,227.53 123.577,227.697 124.5,228.5 Z"/></g>
<g><path style="opacity:1" fill="#62a384" d="M 147.5,236.5 C 150.616,241.07 152.95,246.07 154.5,251.5C 150.839,247.175 148.506,242.175 147.5,236.5 Z"/></g>
<g><path style="opacity:1" fill="#65787c" d="M 157.5,253.5 C 157.286,255.144 157.62,256.644 158.5,258C 157.906,258.464 157.239,258.631 156.5,258.5C 156.5,258.167 156.5,257.833 156.5,257.5C 156.741,255.102 156.074,253.102 154.5,251.5C 152.95,246.07 150.616,241.07 147.5,236.5C 147.25,234.326 146.25,232.659 144.5,231.5C 143.37,229.685 142.704,227.685 142.5,225.5C 140.737,220.201 138.404,215.201 135.5,210.5C 135.34,208.847 134.674,207.514 133.5,206.5C 132.231,202.592 130.565,198.925 128.5,195.5C 128.167,194.5 127.5,193.833 126.5,193.5C 125.391,193.557 124.391,193.89 123.5,194.5C 123.484,192.516 124.484,191.516 126.5,191.5C 128.628,192.054 130.128,193.387 131,195.5C 139.954,214.901 148.788,234.235 157.5,253.5 Z"/></g>
<g><path style="opacity:1" fill="#6b8290" d="M 154.5,226.5 C 163.291,225.127 167.124,229.127 166,238.5C 158.723,243.723 153.89,241.89 151.5,233C 151.528,231.93 151.861,231.097 152.5,230.5C 152.229,232.38 152.896,233.713 154.5,234.5C 154.5,235.167 154.5,235.833 154.5,236.5C 162.028,240.578 165.028,238.578 163.5,230.5C 161.575,226.992 158.575,225.659 154.5,226.5 Z"/></g>
<g><path style="opacity:1" fill="#334c49" d="M 163.5,230.5 C 165.028,238.578 162.028,240.578 154.5,236.5C 157.942,237.172 160.609,236.172 162.5,233.5C 163.404,232.791 163.737,231.791 163.5,230.5 Z"/></g>
<g><path style="opacity:1" fill="#2a2e30" d="M 269.5,229.5 C 269.833,229.5 270.167,229.5 270.5,229.5C 271.421,234.406 273.755,238.572 277.5,242C 288.759,247.989 298.592,246.155 307,236.5C 307.757,233.086 306.59,232.086 303.5,233.5C 299.55,240.316 293.883,242.316 286.5,239.5C 289.85,239.665 293.183,239.498 296.5,239C 293.635,238.817 290.969,238.317 288.5,237.5C 291.518,237.665 294.518,237.498 297.5,237C 299.907,234.298 302.407,231.798 305,229.5C 308.529,230.699 310.196,233.032 310,236.5C 300.983,248.88 289.816,251.38 276.5,244C 273.109,240.636 270.109,237.136 267.5,233.5C 268.167,232.167 268.833,230.833 269.5,229.5 Z"/></g>
<g><path style="opacity:1" fill="#cccccc" d="M 339.5,239.5 C 339.797,243.911 338.631,247.911 336,251.5C 334.736,253.607 332.903,254.607 330.5,254.5C 330.351,253.448 330.517,252.448 331,251.5C 335.035,248.959 337.202,245.292 337.5,240.5C 333.501,241.928 330.001,244.261 327,247.5C 321.215,254.208 318.215,261.875 318,270.5C 320.494,273.086 322.994,273.086 325.5,270.5C 326.492,270.328 327.158,270.662 327.5,271.5C 316.33,277.516 312.163,274.182 315,261.5C 318.095,254.963 321.929,248.963 326.5,243.5C 328.34,241.832 330.34,240.332 332.5,239C 334.929,238.297 337.262,238.463 339.5,239.5 Z"/></g>
<g><path style="opacity:1" fill="#d8d8d8" d="M 342.5,242.5 C 342.343,241.127 342.51,239.793 343,238.5C 344.878,236.957 346.378,235.124 347.5,233C 348.448,232.517 349.448,232.351 350.5,232.5C 349.673,237.325 347.006,240.659 342.5,242.5 Z"/></g>
<g><path style="opacity:1" fill="#b36d50" d="M 110.5,229.5 C 110.5,230.167 110.5,230.833 110.5,231.5C 107.393,238.149 103.727,244.482 99.5,250.5C 99.3433,249.127 99.51,247.793 100,246.5C 102.861,242.112 105.194,237.446 107,232.5C 108.039,231.29 109.206,230.29 110.5,229.5 Z"/></g>
<g><path style="opacity:1" fill="#345c42" d="M 131.5,236.5 C 132.29,237.609 132.79,238.942 133,240.5C 133.499,244.821 133.666,249.154 133.5,253.5C 132.5,253.167 131.833,252.5 131.5,251.5C 131.5,246.5 131.5,241.5 131.5,236.5 Z"/></g>
<g><path style="opacity:1" fill="#ea8e69" d="M 110.5,231.5 C 110.5,235.5 110.5,239.5 110.5,243.5C 109.275,244.152 108.608,245.319 108.5,247C 108.514,248.385 108.848,249.551 109.5,250.5C 109.833,251.5 110.5,252.167 111.5,252.5C 112.919,253.451 114.585,253.784 116.5,253.5C 117.338,253.842 117.672,254.508 117.5,255.5C 117.5,256.833 117.5,258.167 117.5,259.5C 115.833,259.5 114.167,259.5 112.5,259.5C 110.5,259.5 108.5,259.5 106.5,259.5C 108.588,267.352 105.922,270.019 98.5,267.5C 98.6204,265.801 98.9537,264.135 99.5,262.5C 99.2528,261.287 98.5862,260.62 97.5,260.5C 96.9182,256.969 97.5849,253.635 99.5,250.5C 103.727,244.482 107.393,238.149 110.5,231.5 Z"/></g>
<g><path style="opacity:1" fill="#9e8251" d="M 110.5,243.5 C 109.631,245.717 109.298,248.05 109.5,250.5C 108.848,249.551 108.514,248.385 108.5,247C 108.608,245.319 109.275,244.152 110.5,243.5 Z"/></g>
<g><path style="opacity:1" fill="#3e8f50" d="M 110.5,243.5 C 111.167,243.5 111.833,243.5 112.5,243.5C 112.154,246.602 112.821,249.435 114.5,252C 113.552,252.483 112.552,252.649 111.5,252.5C 110.5,252.167 109.833,251.5 109.5,250.5C 109.298,248.05 109.631,245.717 110.5,243.5 Z"/></g>
<g><path style="opacity:1" fill="#a3bda8" d="M 114.5,242.5 C 115.167,242.5 115.833,242.5 116.5,242.5C 116.5,246.167 116.5,249.833 116.5,253.5C 114.585,253.784 112.919,253.451 111.5,252.5C 112.552,252.649 113.552,252.483 114.5,252C 112.821,249.435 112.154,246.602 112.5,243.5C 113.925,245.031 114.591,244.698 114.5,242.5 Z"/></g>
<g><path style="opacity:1" fill="#e9e4df" d="M 117.5,255.5 C 117.672,254.508 117.338,253.842 116.5,253.5C 116.5,249.833 116.5,246.167 116.5,242.5C 117.092,239.873 117.425,237.206 117.5,234.5C 117.662,232.473 117.495,230.473 117,228.5C 116.283,229.044 115.783,229.711 115.5,230.5C 114.517,234.298 114.183,238.298 114.5,242.5C 114.591,244.698 113.925,245.031 112.5,243.5C 111.577,239.936 111.244,236.269 111.5,232.5C 112.166,229.642 112.833,226.642 113.5,223.5C 115.998,220.809 118.165,221.142 120,224.5C 120.107,231.155 119.94,237.821 119.5,244.5C 119.489,248.565 118.822,252.232 117.5,255.5 Z"/></g>
<g><path style="opacity:1" fill="#b69985" d="M 115.5,230.5 C 115.157,232.483 115.824,233.817 117.5,234.5C 117.425,237.206 117.092,239.873 116.5,242.5C 115.833,242.5 115.167,242.5 114.5,242.5C 114.183,238.298 114.517,234.298 115.5,230.5 Z"/></g>
<g><path style="opacity:1" fill="#b5a260" d="M 117.5,234.5 C 115.824,233.817 115.157,232.483 115.5,230.5C 115.783,229.711 116.283,229.044 117,228.5C 117.495,230.473 117.662,232.473 117.5,234.5 Z"/></g>
<g><path style="opacity:1" fill="#2f8050" d="M 135.5,239.5 C 135.334,243.514 135.501,247.514 136,251.5C 137.074,248.5 137.907,245.5 138.5,242.5C 138.665,245.518 138.498,248.518 138,251.5C 135.735,252.916 134.569,254.916 134.5,257.5C 135.5,257.5 136.5,257.5 137.5,257.5C 141.371,257.185 145.038,257.518 148.5,258.5C 144.481,258.646 140.481,258.979 136.5,259.5C 135.833,259.5 135.167,259.5 134.5,259.5C 133.909,258.849 133.243,258.182 132.5,257.5C 133.246,256.264 133.579,254.93 133.5,253.5C 133.666,249.154 133.499,244.821 133,240.5C 132.79,238.942 132.29,237.609 131.5,236.5C 131.372,234.345 131.872,232.345 133,230.5C 134.154,233.386 134.987,236.386 135.5,239.5 Z"/></g>
<g><path style="opacity:1" fill="#1a1b1c" d="M 342.5,242.5 C 343.167,243.167 343.833,243.833 344.5,244.5C 342.1,246.296 340.433,248.63 339.5,251.5C 337.552,255.753 334.219,257.42 329.5,256.5C 327.64,252.649 325.807,252.649 324,256.5C 320.798,260.431 319.964,264.764 321.5,269.5C 325.566,266.437 328.899,262.771 331.5,258.5C 335.212,258.123 338.212,256.456 340.5,253.5C 345.995,251.461 349.162,253.461 350,259.5C 351.046,257.91 352.213,256.41 353.5,255C 357.152,254.501 360.818,254.335 364.5,254.5C 364.433,251.234 366.099,249.734 369.5,250C 375.394,241.01 380.394,241.51 384.5,251.5C 388.804,252.969 390.971,255.969 391,260.5C 392.458,258.04 394.291,255.873 396.5,254C 399.525,253.639 402.525,253.139 405.5,252.5C 407.029,252.529 408.196,253.196 409,254.5C 412.774,258.902 412.274,262.735 407.5,266C 404.576,266.988 401.576,267.654 398.5,268C 396.742,271.373 394.409,274.207 391.5,276.5C 389.259,275.929 387.592,274.596 386.5,272.5C 382.315,275.046 378.148,275.046 374,272.5C 370.451,275.126 366.951,275.126 363.5,272.5C 362.961,270.495 362.295,268.495 361.5,266.5C 361.101,269.422 360.934,272.422 361,275.5C 359.301,276.406 357.467,276.739 355.5,276.5C 355.047,275.542 354.381,274.708 353.5,274C 350.964,273.661 348.464,273.161 346,272.5C 340.804,275.433 335.971,275.1 331.5,271.5C 329.31,273.524 326.977,275.357 324.5,277C 316.424,279.252 311.757,276.252 310.5,268C 311.834,259.835 315.168,252.669 320.5,246.5C 321.404,245.791 321.737,244.791 321.5,243.5C 322.791,243.737 323.791,243.404 324.5,242.5C 325.492,242.328 326.158,242.662 326.5,243.5C 321.929,248.963 318.095,254.963 315,261.5C 312.163,274.182 316.33,277.516 327.5,271.5C 329.829,269.159 331.829,266.492 333.5,263.5C 330.487,264.804 327.821,267.137 325.5,270.5C 322.994,273.086 320.494,273.086 318,270.5C 318.215,261.875 321.215,254.208 327,247.5C 330.001,244.261 333.501,241.928 337.5,240.5C 337.202,245.292 335.035,248.959 331,251.5C 330.517,252.448 330.351,253.448 330.5,254.5C 332.903,254.607 334.736,253.607 336,251.5C 338.631,247.911 339.797,243.911 339.5,239.5C 339.369,238.624 339.702,237.957 340.5,237.5C 341.17,239.291 341.837,240.958 342.5,242.5 Z"/></g>
<g><path style="opacity:1" fill="#c9c9c9" d="M 386.5,260.5 C 385.849,259.909 385.182,259.243 384.5,258.5C 383.893,258.624 383.56,258.957 383.5,259.5C 382.167,260.167 381.167,261.167 380.5,262.5C 379.566,263.568 379.232,264.901 379.5,266.5C 378.596,267.209 378.263,268.209 378.5,269.5C 380.415,269.784 382.081,269.451 383.5,268.5C 385.148,267.19 386.814,265.857 388.5,264.5C 388.456,267.442 386.789,269.609 383.5,271C 381.167,271.667 378.833,271.667 376.5,271C 375.929,269.795 375.262,268.628 374.5,267.5C 372.609,271.307 369.776,272.307 366,270.5C 365.472,265.774 366.305,261.274 368.5,257C 368.265,256.127 367.931,255.293 367.5,254.5C 371.168,252.324 374.334,249.658 377,246.5C 378.713,247.137 378.879,248.137 377.5,249.5C 378.325,250.386 379.325,250.719 380.5,250.5C 380.5,251.5 380.5,252.5 380.5,253.5C 373.768,253.393 369.935,256.727 369,263.5C 368.192,265.579 368.359,267.579 369.5,269.5C 373.882,265.746 377.882,261.579 381.5,257C 383.345,255.872 385.345,255.372 387.5,255.5C 387.634,257.292 387.301,258.958 386.5,260.5 Z"/></g>
<g><path style="opacity:1" fill="#738999" d="M 329.5,256.5 C 330.167,257.167 330.833,257.833 331.5,258.5C 328.899,262.771 325.566,266.437 321.5,269.5C 319.964,264.764 320.798,260.431 324,256.5C 325.807,252.649 327.64,252.649 329.5,256.5 Z"/></g>
<g><path style="opacity:1" fill="#1d1e1f" d="M 236.5,188.5 C 235.504,204.325 235.17,220.325 235.5,236.5C 237.5,236.5 239.5,236.5 241.5,236.5C 242.919,237.451 244.585,237.784 246.5,237.5C 249.638,236.319 252.638,236.319 255.5,237.5C 255.5,239.833 255.5,242.167 255.5,244.5C 258.713,244.81 261.713,244.477 264.5,243.5C 265.49,237.69 265.823,231.69 265.5,225.5C 264.737,224.732 263.737,224.232 262.5,224C 264.134,223.506 265.801,223.34 267.5,223.5C 267.34,221.801 267.506,220.134 268,218.5C 268.183,221.365 268.683,224.031 269.5,226.5C 269.5,227.5 269.5,228.5 269.5,229.5C 268.833,230.833 268.167,232.167 267.5,233.5C 267.665,237.182 267.499,240.848 267,244.5C 266.5,245 266,245.5 265.5,246C 261.5,246.333 257.5,246.667 253.5,247C 251.968,249.034 250.635,251.201 249.5,253.5C 252.836,254.24 256.17,254.906 259.5,255.5C 266.373,250.311 270.373,251.977 271.5,260.5C 275.036,251.442 281.203,249.108 290,253.5C 294.315,250.838 298.648,250.838 303,253.5C 304.311,258.544 302.644,262.211 298,264.5C 297.128,275.102 292.128,277.768 283,272.5C 277.788,276.822 272.954,276.489 268.5,271.5C 264.479,274.407 260.146,275.074 255.5,273.5C 252.888,277.088 249.888,277.421 246.5,274.5C 244.316,273.734 241.982,273.067 239.5,272.5C 237.057,274.055 234.39,274.722 231.5,274.5C 230.855,273.188 229.855,272.188 228.5,271.5C 224.592,275.465 220.758,275.465 217,271.5C 210.509,276.241 205.176,275.241 201,268.5C 199.428,271.822 197.261,274.656 194.5,277C 191.211,277.746 188.711,276.58 187,273.5C 184.998,276.887 182.165,278.387 178.5,278C 175.606,275.091 174.773,271.591 176,267.5C 179.409,256.587 183.576,246.087 188.5,236C 192.181,234.686 194.514,235.853 195.5,239.5C 194.238,242.022 193.571,244.689 193.5,247.5C 196.157,247.162 198.49,247.829 200.5,249.5C 203.46,244.415 206.793,239.582 210.5,235C 212.5,234.333 214.5,234.333 216.5,235C 217.337,236.011 217.67,237.178 217.5,238.5C 218.833,238.5 220.167,238.5 221.5,238.5C 221.5,221.833 221.5,205.167 221.5,188.5C 215.277,188.612 212.61,185.612 213.5,179.5C 223.506,179.334 233.506,179.5 243.5,180C 244.591,182.064 244.758,184.231 244,186.5C 241.393,187.123 238.893,187.79 236.5,188.5 Z"/></g>
<g><path style="opacity:1" fill="#b3b3b3" d="M 239.5,259.5 C 238.91,258.234 238.41,256.901 238,255.5C 237.617,256.056 237.117,256.389 236.5,256.5C 239.368,249.943 243.368,244.11 248.5,239C 249.793,238.51 251.127,238.343 252.5,238.5C 250.978,247.204 246.645,254.204 239.5,259.5 Z"/></g>
<g><path style="opacity:1" fill="#bfbfbf" d="M 229.5,259.5 C 226.506,260.993 224.506,263.327 223.5,266.5C 223.833,267.167 224.167,267.833 224.5,268.5C 225.833,266.833 227.167,265.167 228.5,263.5C 229.298,263.957 229.631,264.624 229.5,265.5C 228.088,269.916 225.088,271.916 220.5,271.5C 222.592,258.816 228.259,247.983 237.5,239C 238.448,238.517 239.448,238.351 240.5,238.5C 240.84,242.131 240.006,245.464 238,248.5C 234.951,252.043 232.118,255.709 229.5,259.5 Z"/></g>
<g><path style="opacity:1" fill="#2f2f2f" d="M 247.5,242.5 C 248.376,242.369 249.043,242.702 249.5,243.5C 247.227,248.394 244.227,252.727 240.5,256.5C 240.167,256.167 239.833,255.833 239.5,255.5C 241.927,250.971 244.594,246.638 247.5,242.5 Z"/></g>
<g><path style="opacity:1" fill="#2e2e2e" d="M 236.5,242.5 C 237.097,242.735 237.43,243.235 237.5,244C 235.464,248.704 232.631,252.871 229,256.5C 230.141,251.224 232.641,246.557 236.5,242.5 Z"/></g>
<g><path style="opacity:1" fill="#718696" d="M 212.5,245.5 C 217.103,246.383 221.77,246.717 226.5,246.5C 224.088,250.993 221.922,255.66 220,260.5C 218.993,252.138 215.159,250.472 208.5,255.5C 208.167,255.167 207.833,254.833 207.5,254.5C 209.445,251.607 211.111,248.607 212.5,245.5 Z"/></g>
<g><path style="opacity:1" fill="#9a9a9a" d="M 216.5,241.5 C 220.373,243.43 224.706,244.097 229.5,243.5C 225.03,244.486 220.363,244.819 215.5,244.5C 215.263,243.209 215.596,242.209 216.5,241.5 Z"/></g>
<g><path style="opacity:1" fill="#c7c6c7" d="M 265.5,225.5 C 265.823,231.69 265.49,237.69 264.5,243.5C 264.666,237.824 264.499,232.157 264,226.5C 262.861,229.823 261.027,232.49 258.5,234.5C 259.38,231.738 260.546,229.071 262,226.5C 263.011,225.663 264.178,225.33 265.5,225.5 Z"/></g>
<g><path style="opacity:1" fill="#f0f0f0" d="M 264.5,243.5 C 261.713,244.477 258.713,244.81 255.5,244.5C 255.5,242.167 255.5,239.833 255.5,237.5C 256.272,236.306 257.272,235.306 258.5,234.5C 261.027,232.49 262.861,229.823 264,226.5C 264.499,232.157 264.666,237.824 264.5,243.5 Z"/></g>
<g><path style="opacity:1" fill="#9a9a9a" d="M 216.5,184.5 C 218.698,184.12 220.365,184.787 221.5,186.5C 219.597,186.204 217.93,185.537 216.5,184.5 Z"/></g>
<g><path style="opacity:1" fill="#f5f5f5" d="M 241.5,184.5 C 238.626,184.623 236.126,185.623 234,187.5C 233.667,204.833 233.333,222.167 233,239.5C 231.624,240.705 230.458,242.038 229.5,243.5C 224.706,244.097 220.373,243.43 216.5,241.5C 218.343,240.717 220.343,240.05 222.5,239.5C 223.192,238.975 223.692,238.308 224,237.5C 224.833,220.823 224.666,204.157 223.5,187.5C 222.817,187.137 222.15,186.804 221.5,186.5C 220.365,184.787 218.698,184.12 216.5,184.5C 220.276,183.175 224.443,182.509 229,182.5C 233.557,182.509 237.724,183.175 241.5,184.5 Z"/></g>
<g><path style="opacity:1" fill="#bababa" d="M 241.5,184.5 C 237.724,183.175 233.557,182.509 229,182.5C 224.443,182.509 220.276,183.175 216.5,184.5C 215.596,183.791 215.263,182.791 215.5,181.5C 224.5,181.5 233.5,181.5 242.5,181.5C 242.737,182.791 242.404,183.791 241.5,184.5 Z"/></g>
<g><path style="opacity:1" fill="#47555f" d="M 339.5,251.5 C 339.328,252.492 339.662,253.158 340.5,253.5C 338.212,256.456 335.212,258.123 331.5,258.5C 330.833,257.833 330.167,257.167 329.5,256.5C 334.219,257.42 337.552,255.753 339.5,251.5 Z"/></g>
<g><path style="opacity:1" fill="#c6c6c6" d="M 400.5,263.5 C 400.461,262.417 400.127,261.417 399.5,260.5C 400.193,259.482 400.859,258.482 401.5,257.5C 406.994,254.841 407.66,255.841 403.5,260.5C 405.167,260.5 406.833,260.5 408.5,260.5C 406.489,263.859 403.822,264.859 400.5,263.5 Z"/></g>
<g><path style="opacity:1" fill="#7a7a7a" d="M 355.5,257.5 C 355.56,256.957 355.893,256.624 356.5,256.5C 357.265,257.612 358.265,258.279 359.5,258.5C 359.189,259.478 358.522,260.145 357.5,260.5C 356.824,259.398 356.158,258.398 355.5,257.5 Z"/></g>
<g><path style="opacity:1" fill="#47555f" d="M 375.5,256.5 C 376.376,256.369 377.043,256.702 377.5,257.5C 374.74,261.564 374.074,261.231 375.5,256.5 Z"/></g>
<g><path style="opacity:1" fill="#6f5149" d="M 130.5,251.5 C 130.833,251.5 131.167,251.5 131.5,251.5C 131.833,252.5 132.5,253.167 133.5,253.5C 133.579,254.93 133.246,256.264 132.5,257.5C 133.243,258.182 133.909,258.849 134.5,259.5C 133.167,259.5 131.833,259.5 130.5,259.5C 130.5,264.5 130.5,269.5 130.5,274.5C 130.167,274.5 129.833,274.5 129.5,274.5C 129.46,266.813 129.793,259.146 130.5,251.5 Z"/></g>
<g><path style="opacity:1" fill="#1a685a" d="M 156.5,257.5 C 156.5,257.833 156.5,258.167 156.5,258.5C 155.833,258.5 155.5,258.833 155.5,259.5C 154.833,261.5 154.167,263.5 153.5,265.5C 153.337,263.143 153.503,260.81 154,258.5C 154.671,257.748 155.504,257.414 156.5,257.5 Z"/></g>
<g><path style="opacity:1" fill="#2f2f2f" d="M 282.5,262.5 C 281.449,263.222 280.782,264.222 280.5,265.5C 279.007,264.688 278.34,263.355 278.5,261.5C 278.906,258.136 280.572,257.136 283.5,258.5C 282.482,259.852 281.149,260.852 279.5,261.5C 280.325,262.386 281.325,262.719 282.5,262.5 Z"/></g>
<g><path style="opacity:1" fill="#393939" d="M 295.5,262.5 C 294.833,263.167 294.167,263.833 293.5,264.5C 291.623,263.341 291.123,261.674 292,259.5C 293.555,257.485 295.389,257.152 297.5,258.5C 296.482,259.852 295.149,260.852 293.5,261.5C 293.957,262.298 294.624,262.631 295.5,262.5 Z"/></g>
<g><path style="opacity:1" fill="#d2d2d3" d="M 351.5,270.5 C 350.167,270.5 349.5,269.833 349.5,268.5C 349.5,267.833 349.5,267.167 349.5,266.5C 350.906,266.027 351.573,265.027 351.5,263.5C 352.34,261.147 353.674,259.147 355.5,257.5C 356.158,258.398 356.824,259.398 357.5,260.5C 358.522,260.145 359.189,259.478 359.5,258.5C 360.829,256.623 362.162,256.456 363.5,258C 362.015,260.156 360.515,262.323 359,264.5C 358.821,267.553 358.321,270.553 357.5,273.5C 356.009,272.652 355.342,271.319 355.5,269.5C 356.021,267.476 356.188,265.476 356,263.5C 353.481,265.211 351.981,267.545 351.5,270.5 Z"/></g>
<g><path style="opacity:1" fill="#37546c" d="M 148.5,258.5 C 148.5,259.833 148.5,261.167 148.5,262.5C 148.167,262.5 147.833,262.5 147.5,262.5C 147.5,261.5 147.5,260.5 147.5,259.5C 145.379,259.325 143.379,259.659 141.5,260.5C 140.833,260.5 140.167,260.5 139.5,260.5C 139.167,260.5 138.833,260.5 138.5,260.5C 137.833,260.5 137.167,260.5 136.5,260.5C 136.5,260.167 136.5,259.833 136.5,259.5C 140.481,258.979 144.481,258.646 148.5,258.5 Z"/></g>
<g><path style="opacity:1" fill="#272727" d="M 229.5,259.5 C 230.573,261.653 230.573,263.653 229.5,265.5C 229.631,264.624 229.298,263.957 228.5,263.5C 227.167,265.167 225.833,266.833 224.5,268.5C 224.167,267.833 223.833,267.167 223.5,266.5C 224.506,263.327 226.506,260.993 229.5,259.5 Z"/></g>
<g><path style="opacity:1" fill="#d4d3d4" d="M 239.5,259.5 C 236.558,261.779 234.891,264.779 234.5,268.5C 235.167,269.167 235.833,269.833 236.5,270.5C 235.432,271.434 234.099,271.768 232.5,271.5C 231.868,265.867 233.202,260.867 236.5,256.5C 237.117,256.389 237.617,256.056 238,255.5C 238.41,256.901 238.91,258.234 239.5,259.5 Z"/></g>
<g><path style="opacity:1" fill="#aaaaaa" d="M 251.5,259.5 C 250.306,262.018 249.14,262.018 248,259.5C 247.617,260.056 247.117,260.389 246.5,260.5C 247.834,255.958 249.501,255.625 251.5,259.5 Z"/></g>
<g><path style="opacity:1" fill="#c0c0c0" d="M 268.5,264.5 C 269.239,264.369 269.906,264.536 270.5,265C 269.748,265.671 269.414,266.504 269.5,267.5C 265.937,271.078 261.77,272.078 257,270.5C 255.763,263.229 258.596,258.229 265.5,255.5C 268.91,256.582 269.41,258.582 267,261.5C 265.114,264.242 262.614,265.909 259.5,266.5C 259.5,267.5 259.5,268.5 259.5,269.5C 263.547,269.645 266.547,267.978 268.5,264.5 Z"/></g>
<g><path style="opacity:1" fill="#d8d8d8" d="M 183.5,265.5 C 182.833,265.5 182.5,265.833 182.5,266.5C 181.876,266.917 181.543,267.584 181.5,268.5C 182.225,269.867 182.892,271.2 183.5,272.5C 182.774,275.013 181.441,275.679 179.5,274.5C 179.538,269.729 180.204,265.062 181.5,260.5C 183.509,253.305 186.009,246.305 189,239.5C 190.011,238.663 191.178,238.33 192.5,238.5C 188.92,247.239 185.92,256.239 183.5,265.5 Z"/></g>
<g><path style="opacity:1" fill="#313131" d="M 209.5,262.5 C 209.833,261.833 210.167,261.167 210.5,260.5C 213.957,259.485 214.29,260.319 211.5,263C 210.563,263.692 209.897,263.525 209.5,262.5 Z"/></g>
<g><path style="opacity:1" fill="#979797" d="M 399.5,256.5 C 400.167,256.833 400.833,257.167 401.5,257.5C 400.859,258.482 400.193,259.482 399.5,260.5C 400.127,261.417 400.461,262.417 400.5,263.5C 399.391,263.557 398.391,263.89 397.5,264.5C 397.287,261.549 397.954,258.882 399.5,256.5 Z"/></g>
<g><path style="opacity:1" fill="#c54a51" d="M 112.5,259.5 C 114.167,259.5 115.833,259.5 117.5,259.5C 118.833,261.833 118.833,264.167 117.5,266.5C 117.5,264.5 117.5,262.5 117.5,260.5C 116.167,260.5 114.833,260.5 113.5,260.5C 113.5,262.833 113.5,265.167 113.5,267.5C 112.532,265.393 112.198,263.059 112.5,260.5C 112.5,260.167 112.5,259.833 112.5,259.5 Z"/></g>
<g><path style="opacity:1" fill="#19935a" d="M 154.5,251.5 C 156.074,253.102 156.741,255.102 156.5,257.5C 155.504,257.414 154.671,257.748 154,258.5C 153.503,260.81 153.337,263.143 153.5,265.5C 150.324,267.273 148.657,266.273 148.5,262.5C 148.5,261.167 148.5,259.833 148.5,258.5C 145.038,257.518 141.371,257.185 137.5,257.5C 139.428,255.887 141.762,254.887 144.5,254.5C 146.071,255.309 147.738,255.643 149.5,255.5C 149.687,257.564 150.187,259.564 151,261.5C 153.014,258.47 154.181,255.137 154.5,251.5 Z"/></g>
<g><path style="opacity:1" fill="#8f8f8f" d="M 246.5,260.5 C 246.573,262.027 245.906,263.027 244.5,263.5C 244.427,261.973 245.094,260.973 246.5,260.5 Z"/></g>
<g><path style="opacity:1" fill="#3b3b3b" d="M 263.5,259.5 C 264.239,259.369 264.906,259.536 265.5,260C 264.695,261.972 263.361,263.472 261.5,264.5C 261.167,264.167 260.833,263.833 260.5,263.5C 261.524,262.148 262.524,260.815 263.5,259.5 Z"/></g>
<g><path style="opacity:1" fill="#424242" d="M 289.5,258.5 C 289.448,260.903 289.781,263.236 290.5,265.5C 289.883,265.389 289.383,265.056 289,264.5C 288.506,266.134 288.34,267.801 288.5,269.5C 288.028,267.469 287.028,265.802 285.5,264.5C 287.344,262.805 288.677,260.805 289.5,258.5 Z"/></g>
<g><path style="opacity:1" fill="#c5c5c5" d="M 295.5,262.5 C 294.624,262.631 293.957,262.298 293.5,261.5C 295.149,260.852 296.482,259.852 297.5,258.5C 295.389,257.152 293.555,257.485 292,259.5C 291.123,261.674 291.623,263.341 293.5,264.5C 295.679,268.965 294.346,271.631 289.5,272.5C 287.971,272.471 286.804,271.804 286,270.5C 285.505,268.527 285.338,266.527 285.5,264.5C 287.028,265.802 288.028,267.469 288.5,269.5C 289.5,269.5 290.5,269.5 291.5,269.5C 291.768,267.901 291.434,266.568 290.5,265.5C 289.781,263.236 289.448,260.903 289.5,258.5C 292.239,254.991 295.906,253.657 300.5,254.5C 301.239,258.746 299.573,261.413 295.5,262.5 Z"/></g>
<g><path style="opacity:1" fill="#393939" d="M 383.5,259.5 C 384.525,259.897 384.692,260.563 384,261.5C 383,262.5 382,263.5 381,264.5C 380.536,263.906 380.369,263.239 380.5,262.5C 381.167,261.167 382.167,260.167 383.5,259.5 Z"/></g>
<g><path style="opacity:1" fill="#d4d4d4" d="M 399.5,256.5 C 397.954,258.882 397.287,261.549 397.5,264.5C 395.05,266.629 393.383,269.296 392.5,272.5C 391.167,272.5 390.5,271.833 390.5,270.5C 391.426,266.642 392.926,262.975 395,259.5C 396.129,257.859 397.629,256.859 399.5,256.5 Z"/></g>
<g><path style="opacity:1" fill="#694274" d="M 139.5,260.5 C 140.167,260.5 140.833,260.5 141.5,260.5C 142.01,263.388 141.344,265.721 139.5,267.5C 139.5,265.167 139.5,262.833 139.5,260.5 Z"/></g>
<g><path style="opacity:1" fill="#909090" d="M 181.5,260.5 C 180.204,265.062 179.538,269.729 179.5,274.5C 178.031,269.592 178.698,264.926 181.5,260.5 Z"/></g>
<g><path style="opacity:1" fill="#c5c4c5" d="M 208.5,259.5 C 209.492,259.328 210.158,259.662 210.5,260.5C 210.167,261.167 209.833,261.833 209.5,262.5C 208.388,264.599 207.721,266.933 207.5,269.5C 209.099,269.768 210.432,269.434 211.5,268.5C 213.736,267.611 215.736,266.278 217.5,264.5C 217.456,267.442 215.789,269.609 212.5,271C 205.333,273.167 202.833,270.667 205,263.5C 205.949,261.907 207.115,260.574 208.5,259.5 Z"/></g>
<g><path style="opacity:1" fill="#dadada" d="M 251.5,271.5 C 251.5,272.833 250.833,273.5 249.5,273.5C 249.5,273.167 249.5,272.833 249.5,272.5C 249.517,269.08 249.683,265.746 250,262.5C 248.955,263.373 248.122,264.373 247.5,265.5C 246.221,267.123 244.887,268.79 243.5,270.5C 242.164,267.859 242.498,265.526 244.5,263.5C 245.906,263.027 246.573,262.027 246.5,260.5C 247.117,260.389 247.617,260.056 248,259.5C 249.14,262.018 250.306,262.018 251.5,259.5C 252.895,257.7 254.561,257.366 256.5,258.5C 254.808,260.359 253.308,262.359 252,264.5C 251.503,266.81 251.337,269.143 251.5,271.5 Z"/></g>
<g><path style="opacity:1" fill="#5a5a5a" d="M 268.5,264.5 C 270.265,263.539 272.265,263.205 274.5,263.5C 274.5,265.167 274.5,266.833 274.5,268.5C 272.674,263.093 271.674,263.426 271.5,269.5C 270.833,268.833 270.167,268.167 269.5,267.5C 269.414,266.504 269.748,265.671 270.5,265C 269.906,264.536 269.239,264.369 268.5,264.5 Z"/></g>
<g><path style="opacity:1" fill="#dc2c33" d="M 117.5,266.5 C 117.5,266.833 117.5,267.167 117.5,267.5C 116.039,268.686 114.705,268.686 113.5,267.5C 113.5,265.167 113.5,262.833 113.5,260.5C 114.833,260.5 116.167,260.5 117.5,260.5C 117.5,262.5 117.5,264.5 117.5,266.5 Z"/></g>
<g><path style="opacity:1" fill="#929292" d="M 211.5,268.5 C 210.432,269.434 209.099,269.768 207.5,269.5C 207.721,266.933 208.388,264.599 209.5,262.5C 209.897,263.525 210.563,263.692 211.5,263C 214.29,260.319 213.957,259.485 210.5,260.5C 210.158,259.662 209.492,259.328 208.5,259.5C 209.262,257.738 210.596,256.738 212.5,256.5C 213.568,255.566 214.901,255.232 216.5,255.5C 216.255,261.144 213.588,265.311 208.5,268C 209.448,268.483 210.448,268.649 211.5,268.5 Z"/></g>
<g><path style="opacity:1" fill="#efefef" d="M 212.5,256.5 C 213.5,256.5 214.5,256.5 215.5,256.5C 215.657,257.873 215.49,259.207 215,260.5C 214.228,259.151 213.061,258.318 211.5,258C 212.056,257.617 212.389,257.117 212.5,256.5 Z"/></g>
<g><path style="opacity:1" fill="#c5c5c5" d="M 346.5,264.5 C 347.492,264.328 348.158,264.662 348.5,265.5C 345.35,270.074 341.017,271.907 335.5,271C 334.506,265.01 336.506,260.01 341.5,256C 346.478,255.231 347.645,257.064 345,261.5C 342.624,264.045 340.124,266.378 337.5,268.5C 341.219,269.183 344.219,267.849 346.5,264.5 Z"/></g>
<g><path style="opacity:1" fill="#3b3b3b" d="M 341.5,259.5 C 342.239,259.369 342.906,259.536 343.5,260C 342.695,261.972 341.361,263.472 339.5,264.5C 339.167,264.167 338.833,263.833 338.5,263.5C 339.524,262.148 340.524,260.815 341.5,259.5 Z"/></g>
<g><path style="opacity:1" fill="#5e5e5e" d="M 346.5,264.5 C 348.15,263.952 349.817,263.619 351.5,263.5C 351.573,265.027 350.906,266.027 349.5,266.5C 349.5,265.833 349.167,265.5 348.5,265.5C 348.158,264.662 347.492,264.328 346.5,264.5 Z"/></g>
<g><path style="opacity:1" fill="#a0a0a0" d="M 383.5,259.5 C 383.56,258.957 383.893,258.624 384.5,258.5C 385.182,259.243 385.849,259.909 386.5,260.5C 385.522,263.478 383.522,265.478 380.5,266.5C 380.167,266.5 379.833,266.5 379.5,266.5C 379.232,264.901 379.566,263.568 380.5,262.5C 380.369,263.239 380.536,263.906 381,264.5C 382,263.5 383,262.5 384,261.5C 384.692,260.563 384.525,259.897 383.5,259.5 Z"/></g>
<g><path style="opacity:1" fill="#9c5292" d="M 112.5,260.5 C 112.198,263.059 112.532,265.393 113.5,267.5C 114.705,268.686 116.039,268.686 117.5,267.5C 118.159,270.455 118.492,273.455 118.5,276.5C 116.833,276.5 115.167,276.5 113.5,276.5C 113.185,280.371 113.518,284.038 114.5,287.5C 114.5,287.833 114.5,288.167 114.5,288.5C 103.321,288.828 92.3206,288.495 81.5,287.5C 83.6468,283.906 85.6468,280.24 87.5,276.5C 86.7063,279.802 86.0396,283.135 85.5,286.5C 94.5,286.5 103.5,286.5 112.5,286.5C 112.212,283.134 112.046,279.8 112,276.5C 113.444,274.845 115.278,274.178 117.5,274.5C 117.67,273.178 117.337,272.011 116.5,271C 114.527,270.505 112.527,270.338 110.5,270.5C 110.715,268.821 110.048,267.821 108.5,267.5C 108.326,265.139 107.993,262.806 107.5,260.5C 109.167,260.5 110.833,260.5 112.5,260.5 Z"/></g>
<g><path style="opacity:1" fill="#ababab" d="M 236.5,270.5 C 235.833,269.833 235.167,269.167 234.5,268.5C 236.69,267.198 238.69,265.531 240.5,263.5C 240.573,266.332 239.239,268.666 236.5,270.5 Z"/></g>
<g><path style="opacity:1" fill="#141414" d="M 290.5,265.5 C 291.434,266.568 291.768,267.901 291.5,269.5C 290.5,269.5 289.5,269.5 288.5,269.5C 288.34,267.801 288.506,266.134 289,264.5C 289.383,265.056 289.883,265.389 290.5,265.5 Z"/></g>
<g><path style="opacity:1" fill="#663065" d="M 94.5,260.5 C 95.1667,260.5 95.8333,260.5 96.5,260.5C 96.1667,261.167 95.8333,261.833 95.5,262.5C 93.2332,267.424 90.5665,272.091 87.5,276.5C 87.3398,274.801 87.5065,273.134 88,271.5C 90.3933,267.946 92.5599,264.28 94.5,260.5 Z"/></g>
<g><path style="opacity:1" fill="#3954a0" d="M 147.5,262.5 C 147.468,267.213 149.801,268.713 154.5,267C 155.435,264.619 155.768,262.119 155.5,259.5C 156.496,259.414 157.329,259.748 158,260.5C 160.179,265.521 162.346,270.521 164.5,275.5C 164.715,279.266 166.049,282.6 168.5,285.5C 159.676,286.167 151.009,286.833 142.5,287.5C 142.167,287.5 141.833,287.5 141.5,287.5C 141.5,283.5 141.5,279.5 141.5,275.5C 139.473,275.662 137.473,275.495 135.5,275C 134.944,274.617 134.611,274.117 134.5,273.5C 134.5,271.833 134.5,270.167 134.5,268.5C 136.415,268.784 138.081,268.451 139.5,267.5C 141.344,265.721 142.01,263.388 141.5,260.5C 143.379,259.659 145.379,259.325 147.5,259.5C 147.5,260.5 147.5,261.5 147.5,262.5 Z"/></g>
<g><path style="opacity:1" fill="#266071" d="M 155.5,259.5 C 155.768,262.119 155.435,264.619 154.5,267C 149.801,268.713 147.468,267.213 147.5,262.5C 147.833,262.5 148.167,262.5 148.5,262.5C 148.657,266.273 150.324,267.273 153.5,265.5C 154.167,263.5 154.833,261.5 155.5,259.5 Z"/></g>
<g><path style="opacity:1" fill="#707070" d="M 183.5,265.5 C 183.328,266.492 183.662,267.158 184.5,267.5C 183.012,270.186 182.345,269.853 182.5,266.5C 182.5,265.833 182.833,265.5 183.5,265.5 Z"/></g>
<g><path style="opacity:1" fill="#bd5555" d="M 123.5,260.5 C 124.5,260.5 125.5,260.5 126.5,260.5C 126.5,265.167 126.5,269.833 126.5,274.5C 126.815,278.371 126.482,282.038 125.5,285.5C 124.833,270.833 124.167,270.833 123.5,285.5C 123.167,285.5 122.833,285.5 122.5,285.5C 122.5,281.833 122.5,278.167 122.5,274.5C 122.181,269.637 122.514,264.97 123.5,260.5 Z"/></g>
<g><path style="opacity:1" fill="#4a394f" d="M 92.5,260.5 C 93.1667,260.5 93.8333,260.5 94.5,260.5C 92.5599,264.28 90.3933,267.946 88,271.5C 87.5065,273.134 87.3398,274.801 87.5,276.5C 85.6468,280.24 83.6468,283.906 81.5,287.5C 80.596,286.791 80.2627,285.791 80.5,284.5C 84.2072,276.276 88.2072,268.276 92.5,260.5 Z"/></g>
<g><path style="opacity:1" fill="#a2506f" d="M 112.5,259.5 C 112.5,259.833 112.5,260.167 112.5,260.5C 110.833,260.5 109.167,260.5 107.5,260.5C 107.993,262.806 108.326,265.139 108.5,267.5C 107.833,268.167 107.167,268.833 106.5,269.5C 104.143,269.663 101.81,269.497 99.5,269C 98.944,268.617 98.6107,268.117 98.5,267.5C 105.922,270.019 108.588,267.352 106.5,259.5C 108.5,259.5 110.5,259.5 112.5,259.5 Z"/></g>
<g><path style="opacity:1" fill="#9f3443" d="M 134.5,259.5 C 135.167,259.5 135.833,259.5 136.5,259.5C 136.5,259.833 136.5,260.167 136.5,260.5C 134.833,260.5 133.167,260.5 131.5,260.5C 131.5,262.5 131.5,264.5 131.5,266.5C 133.806,266.007 136.139,265.674 138.5,265.5C 138.5,263.833 138.5,262.167 138.5,260.5C 138.833,260.5 139.167,260.5 139.5,260.5C 139.5,262.833 139.5,265.167 139.5,267.5C 137.5,267.5 135.5,267.5 133.5,267.5C 133.205,269.735 133.539,271.735 134.5,273.5C 134.611,274.117 134.944,274.617 135.5,275C 137.473,275.495 139.473,275.662 141.5,275.5C 141.5,279.5 141.5,283.5 141.5,287.5C 141.167,287.5 140.833,287.5 140.5,287.5C 140.5,283.833 140.5,280.167 140.5,276.5C 138.833,276.5 137.167,276.5 135.5,276.5C 134.18,275.058 132.514,274.392 130.5,274.5C 130.5,269.5 130.5,264.5 130.5,259.5C 131.833,259.5 133.167,259.5 134.5,259.5 Z"/></g>
<g><path style="opacity:1" fill="#e6292d" d="M 136.5,260.5 C 137.167,260.5 137.833,260.5 138.5,260.5C 138.5,262.167 138.5,263.833 138.5,265.5C 136.139,265.674 133.806,266.007 131.5,266.5C 131.5,264.5 131.5,262.5 131.5,260.5C 133.167,260.5 134.833,260.5 136.5,260.5 Z"/></g>
<g><path style="opacity:1" fill="#c6c6c6" d="M 195.5,271.5 C 195.179,269.952 194.179,269.285 192.5,269.5C 192.823,265.774 192.489,262.107 191.5,258.5C 191.564,260.864 191.231,263.197 190.5,265.5C 190.263,261.711 189.596,261.711 188.5,265.5C 186.588,267.657 184.921,269.991 183.5,272.5C 182.892,271.2 182.225,269.867 181.5,268.5C 181.543,267.584 181.876,266.917 182.5,266.5C 182.345,269.853 183.012,270.186 184.5,267.5C 187.105,262.389 189.939,257.389 193,252.5C 194.241,250.579 195.741,250.246 197.5,251.5C 193.98,256.675 192.813,262.342 194,268.5C 198.558,257.712 204.391,247.712 211.5,238.5C 212.325,237.614 213.325,237.281 214.5,237.5C 214.649,238.552 214.483,239.552 214,240.5C 211.425,243.319 209.092,246.319 207,249.5C 203.917,257.336 200.084,264.67 195.5,271.5 Z"/></g>
<g><path style="opacity:1" fill="#636363" d="M 190.5,265.5 C 190.5,267.833 190.5,270.167 190.5,272.5C 189.833,270.167 189.167,267.833 188.5,265.5C 189.596,261.711 190.263,261.711 190.5,265.5 Z"/></g>
<g><path style="opacity:1" fill="#8b8b8b" d="M 249.5,272.5 C 248.833,270.167 248.167,267.833 247.5,265.5C 248.122,264.373 248.955,263.373 250,262.5C 249.683,265.746 249.517,269.08 249.5,272.5 Z"/></g>
<g><path style="opacity:1" fill="#a1a1a1" d="M 327.5,271.5 C 327.158,270.662 326.492,270.328 325.5,270.5C 327.821,267.137 330.487,264.804 333.5,263.5C 331.829,266.492 329.829,269.159 327.5,271.5 Z"/></g>
<g><path style="opacity:1" fill="#555555" d="M 379.5,266.5 C 379.833,266.5 380.167,266.5 380.5,266.5C 380.389,267.117 380.056,267.617 379.5,268C 380.793,268.49 382.127,268.657 383.5,268.5C 382.081,269.451 380.415,269.784 378.5,269.5C 378.263,268.209 378.596,267.209 379.5,266.5 Z"/></g>
<g><path style="opacity:1" fill="#974781" d="M 96.5,260.5 C 96.8333,260.5 97.1667,260.5 97.5,260.5C 98.5862,260.62 99.2528,261.287 99.5,262.5C 98.9537,264.135 98.6204,265.801 98.5,267.5C 98.6107,268.117 98.944,268.617 99.5,269C 101.81,269.497 104.143,269.663 106.5,269.5C 106.038,270.88 105.038,271.547 103.5,271.5C 101.803,271.101 100.137,270.601 98.5,270C 98.1537,267.06 97.1537,264.56 95.5,262.5C 95.8333,261.833 96.1667,261.167 96.5,260.5 Z"/></g>
<g><path style="opacity:1" fill="#6c457d" d="M 139.5,267.5 C 138.081,268.451 136.415,268.784 134.5,268.5C 134.5,270.167 134.5,271.833 134.5,273.5C 133.539,271.735 133.205,269.735 133.5,267.5C 135.5,267.5 137.5,267.5 139.5,267.5 Z"/></g>
<g><path style="opacity:1" fill="#e7e7e7" d="M 195.5,271.5 C 194.255,274.92 192.588,275.253 190.5,272.5C 190.5,270.167 190.5,267.833 190.5,265.5C 191.231,263.197 191.564,260.864 191.5,258.5C 192.489,262.107 192.823,265.774 192.5,269.5C 194.179,269.285 195.179,269.952 195.5,271.5 Z"/></g>
<g><path style="opacity:1" fill="#954398" d="M 95.5,262.5 C 97.1537,264.56 98.1537,267.06 98.5,270C 100.137,270.601 101.803,271.101 103.5,271.5C 105.038,271.547 106.038,270.88 106.5,269.5C 107.167,268.833 107.833,268.167 108.5,267.5C 110.048,267.821 110.715,268.821 110.5,270.5C 112.527,270.338 114.527,270.505 116.5,271C 117.337,272.011 117.67,273.178 117.5,274.5C 115.278,274.178 113.444,274.845 112,276.5C 112.046,279.8 112.212,283.134 112.5,286.5C 103.5,286.5 94.5,286.5 85.5,286.5C 86.0396,283.135 86.7063,279.802 87.5,276.5C 90.5665,272.091 93.2332,267.424 95.5,262.5 Z"/></g>
<g><path style="opacity:1" fill="#676767" d="M 349.5,268.5 C 349.5,269.833 350.167,270.5 351.5,270.5C 350.791,271.404 349.791,271.737 348.5,271.5C 348.263,270.209 348.596,269.209 349.5,268.5 Z"/></g>
<g><path style="opacity:1" fill="#bfbfbf" d="M 282.5,262.5 C 281.325,262.719 280.325,262.386 279.5,261.5C 281.149,260.852 282.482,259.852 283.5,258.5C 280.572,257.136 278.906,258.136 278.5,261.5C 278.34,263.355 279.007,264.688 280.5,265.5C 280.963,271.705 278.296,273.705 272.5,271.5C 272.137,270.817 271.804,270.15 271.5,269.5C 271.674,263.426 272.674,263.093 274.5,268.5C 275.209,269.404 276.209,269.737 277.5,269.5C 277.137,266.437 276.47,263.437 275.5,260.5C 277.207,255.16 280.873,253.16 286.5,254.5C 287.226,258.307 285.893,260.974 282.5,262.5 Z"/></g>
<g><path style="opacity:1" fill="#595959" d="M 390.5,270.5 C 390.5,271.833 391.167,272.5 392.5,272.5C 391.791,273.404 390.791,273.737 389.5,273.5C 389.263,272.209 389.596,271.209 390.5,270.5 Z"/></g>
<g><path style="opacity:1" fill="#5e707d" d="M 246.5,274.5 C 241.31,274.987 236.31,274.987 231.5,274.5C 234.39,274.722 237.057,274.055 239.5,272.5C 241.982,273.067 244.316,273.734 246.5,274.5 Z"/></g>
<g><path style="opacity:1" fill="#606060" d="M 251.5,271.5 C 252.404,272.209 252.737,273.209 252.5,274.5C 251.209,274.737 250.209,274.404 249.5,273.5C 250.833,273.5 251.5,272.833 251.5,271.5 Z"/></g>
<g><path style="opacity:1" fill="#5b6c79" d="M 363.5,272.5 C 362.766,273.878 362.099,275.378 361.5,277C 359.288,277.789 357.288,277.622 355.5,276.5C 357.467,276.739 359.301,276.406 361,275.5C 360.934,272.422 361.101,269.422 361.5,266.5C 362.295,268.495 362.961,270.495 363.5,272.5 Z"/></g>
<g><path style="opacity:1" fill="#6c7b8d" d="M 157.5,253.5 C 162.833,264.167 168.167,274.833 173.5,285.5C 173.795,287.735 173.461,289.735 172.5,291.5C 162.554,289.525 152.221,288.858 141.5,289.5C 141.5,288.833 141.833,288.5 142.5,288.5C 152.167,288.5 161.833,288.5 171.5,288.5C 171.598,286.447 170.931,284.78 169.5,283.5C 167.837,280.871 166.171,278.204 164.5,275.5C 162.346,270.521 160.179,265.521 158,260.5C 157.329,259.748 156.496,259.414 155.5,259.5C 155.5,258.833 155.833,258.5 156.5,258.5C 157.239,258.631 157.906,258.464 158.5,258C 157.62,256.644 157.286,255.144 157.5,253.5 Z"/></g>
<g><path style="opacity:1" fill="#cc4059" d="M 118.5,276.5 C 118.5,277.167 118.833,277.5 119.5,277.5C 119.5,280.833 119.5,284.167 119.5,287.5C 117.833,287.5 116.167,287.5 114.5,287.5C 113.518,284.038 113.185,280.371 113.5,276.5C 115.167,276.5 116.833,276.5 118.5,276.5 Z"/></g>
<g><path style="opacity:1" fill="#e6272c" d="M 130.5,274.5 C 132.514,274.392 134.18,275.058 135.5,276.5C 136.568,277.434 137.901,277.768 139.5,277.5C 139.5,280.5 139.5,283.5 139.5,286.5C 136.5,286.5 133.5,286.5 130.5,286.5C 129.461,282.658 129.461,278.658 130.5,274.5 Z"/></g>
<g><path style="opacity:1" fill="#a54d4e" d="M 129.5,274.5 C 129.833,274.5 130.167,274.5 130.5,274.5C 129.461,278.658 129.461,282.658 130.5,286.5C 133.625,287.479 136.958,287.813 140.5,287.5C 137.038,288.482 133.371,288.815 129.5,288.5C 128.577,284.936 128.244,281.269 128.5,277.5C 129.404,276.791 129.737,275.791 129.5,274.5 Z"/></g>
<g><path style="opacity:1" fill="#e72830" d="M 114.5,277.5 C 115.822,277.33 116.989,277.663 118,278.5C 118.497,281.146 118.664,283.813 118.5,286.5C 117.167,286.5 115.833,286.5 114.5,286.5C 114.5,283.5 114.5,280.5 114.5,277.5 Z"/></g>
<g><path style="opacity:1" fill="#b7c5cf" d="M 326.5,281.5 C 328.833,281.5 331.167,281.5 333.5,281.5C 333.66,283.199 333.494,284.866 333,286.5C 331.585,283.782 329.585,283.115 327,284.5C 326.333,287.167 326.333,289.833 327,292.5C 329.5,293.429 331.667,293.429 333.5,292.5C 327.642,297.219 323.975,295.719 322.5,288C 323.205,285.458 324.539,283.292 326.5,281.5 Z"/></g>
<g><path style="opacity:1" fill="#d09fa0" d="M 121.5,274.5 C 121.833,274.5 122.167,274.5 122.5,274.5C 122.5,278.167 122.5,281.833 122.5,285.5C 122.5,286.5 122.5,287.5 122.5,288.5C 119.833,288.5 117.167,288.5 114.5,288.5C 114.5,288.167 114.5,287.833 114.5,287.5C 116.167,287.5 117.833,287.5 119.5,287.5C 119.5,284.167 119.5,280.833 119.5,277.5C 121.048,277.179 121.715,276.179 121.5,274.5 Z"/></g>
<g><path style="opacity:1" fill="#d93033" d="M 125.5,285.5 C 124.833,285.5 124.167,285.5 123.5,285.5C 124.167,270.833 124.833,270.833 125.5,285.5 Z"/></g>
<g><path style="opacity:1" fill="#bb7775" d="M 126.5,274.5 C 127.744,279.035 127.744,283.702 126.5,288.5C 125.167,288.5 123.833,288.5 122.5,288.5C 122.5,287.5 122.5,286.5 122.5,285.5C 122.833,285.5 123.167,285.5 123.5,285.5C 124.167,285.5 124.833,285.5 125.5,285.5C 126.482,282.038 126.815,278.371 126.5,274.5 Z"/></g>
<g><path style="opacity:1" fill="#a0b2c0" d="M 305.5,294.5 C 306.239,294.631 306.906,294.464 307.5,294C 306.577,291.959 306.244,289.792 306.5,287.5C 307.5,287.5 308.5,287.5 309.5,287.5C 310.039,296.302 310.706,296.469 311.5,288C 311.167,285.833 310.833,283.667 310.5,281.5C 309.893,281.624 309.56,281.957 309.5,282.5C 308.957,282.44 308.624,282.107 308.5,281.5C 309.689,280.571 311.022,280.238 312.5,280.5C 312.334,284.846 312.501,289.179 313,293.5C 314.356,292.62 315.856,292.286 317.5,292.5C 317.603,297.644 316.437,298.31 314,294.5C 311.063,295.817 308.23,295.817 305.5,294.5 Z"/></g>
<g><path style="opacity:1" fill="#bbc8d1" d="M 250.5,285.5 C 257.641,285.62 259.308,288.787 255.5,295C 248.497,294.806 246.831,291.64 250.5,285.5 Z"/></g>
<g><path style="opacity:1" fill="#b7c4cf" d="M 269.5,287.5 C 270.249,290.201 271.249,292.868 272.5,295.5C 270.742,295.123 269.075,294.456 267.5,293.5C 261.051,296.842 258.217,294.842 259,287.5C 262.294,284.689 265.294,285.022 268,288.5C 268.383,287.944 268.883,287.611 269.5,287.5 Z"/></g>
<g><path style="opacity:1" fill="#c4cfd8" d="M 305.5,294.5 C 304.833,293.833 304.167,293.167 303.5,292.5C 303.5,291.167 303.5,289.833 303.5,288.5C 304.687,286.025 306.687,285.025 309.5,285.5C 309.5,284.5 309.5,283.5 309.5,282.5C 309.56,281.957 309.893,281.624 310.5,281.5C 310.833,283.667 311.167,285.833 311.5,288C 310.706,296.469 310.039,296.302 309.5,287.5C 308.5,287.5 307.5,287.5 306.5,287.5C 306.244,289.792 306.577,291.959 307.5,294C 306.906,294.464 306.239,294.631 305.5,294.5 Z"/></g>
<g><path style="opacity:1" fill="#d53743" d="M 135.5,276.5 C 137.167,276.5 138.833,276.5 140.5,276.5C 140.5,280.167 140.5,283.833 140.5,287.5C 136.958,287.813 133.625,287.479 130.5,286.5C 133.5,286.5 136.5,286.5 139.5,286.5C 139.5,283.5 139.5,280.5 139.5,277.5C 137.901,277.768 136.568,277.434 135.5,276.5 Z"/></g>
<g><path style="opacity:1" fill="#4c609a" d="M 164.5,275.5 C 166.171,278.204 167.837,280.871 169.5,283.5C 169.5,284.833 169.5,286.167 169.5,287.5C 160.5,287.5 151.5,287.5 142.5,287.5C 151.009,286.833 159.676,286.167 168.5,285.5C 166.049,282.6 164.715,279.266 164.5,275.5 Z"/></g>
<g><path style="opacity:1" fill="#838eb2" d="M 169.5,283.5 C 170.931,284.78 171.598,286.447 171.5,288.5C 161.833,288.5 152.167,288.5 142.5,288.5C 142.5,288.167 142.5,287.833 142.5,287.5C 151.5,287.5 160.5,287.5 169.5,287.5C 169.5,286.167 169.5,284.833 169.5,283.5 Z"/></g>
<g><path style="opacity:1" fill="#859daf" d="M 251.5,287.5 C 252.5,287.5 253.5,287.5 254.5,287.5C 254.5,289.5 254.5,291.5 254.5,293.5C 253.5,293.5 252.5,293.5 251.5,293.5C 251.5,291.5 251.5,289.5 251.5,287.5 Z"/></g>
<g><path style="opacity:1" fill="#6f626c" d="M 80.5,284.5 C 80.2627,285.791 80.596,286.791 81.5,287.5C 92.3206,288.495 103.321,288.828 114.5,288.5C 117.167,288.5 119.833,288.5 122.5,288.5C 123.833,288.5 125.167,288.5 126.5,288.5C 127.5,288.5 128.5,288.5 129.5,288.5C 133.371,288.815 137.038,288.482 140.5,287.5C 140.833,287.5 141.167,287.5 141.5,287.5C 141.833,287.5 142.167,287.5 142.5,287.5C 142.5,287.833 142.5,288.167 142.5,288.5C 141.833,288.5 141.5,288.833 141.5,289.5C 121.5,289.5 101.5,289.5 81.5,289.5C 81.1667,289.5 80.8333,289.5 80.5,289.5C 79.8333,289.5 79.1667,289.5 78.5,289.5C 78.4021,287.447 79.0687,285.78 80.5,284.5 Z"/></g>
<g><path style="opacity:1" fill="#d8dee4" d="M 274.5,285.5 C 274.5,284.5 274.5,283.5 274.5,282.5C 274.56,281.957 274.893,281.624 275.5,281.5C 276.833,285.833 276.833,290.167 275.5,294.5C 274.516,291.572 274.183,288.572 274.5,285.5 Z"/></g>
<g><path style="opacity:1" fill="#d6dde3" d="M 300.5,286.5 C 301.167,286.5 301.5,286.833 301.5,287.5C 301.808,289.924 301.474,292.257 300.5,294.5C 299.786,291.973 299.12,289.473 298.5,287C 299.094,286.536 299.761,286.369 300.5,286.5 Z"/></g>
<g><path style="opacity:1" fill="#869eaf" d="M 261.5,287.5 C 262.5,287.5 263.5,287.5 264.5,287.5C 264.5,289.5 264.5,291.5 264.5,293.5C 263.5,293.5 262.5,293.5 261.5,293.5C 261.5,291.5 261.5,289.5 261.5,287.5 Z"/></g>
<g><path style="opacity:1" fill="#d7dee4" d="M 341.5,291.5 C 341.416,288.673 340.75,286.006 339.5,283.5C 340.077,282.227 340.743,282.227 341.5,283.5C 343.029,286.754 344.362,290.087 345.5,293.5C 344.675,294.386 343.675,294.719 342.5,294.5C 342.737,293.209 342.404,292.209 341.5,291.5 Z"/></g>
<g><path style="opacity:1" fill="#c9d3db" d="M 244.5,281.5 C 245.978,281.238 247.311,281.571 248.5,282.5C 246.837,286.463 245.17,290.463 243.5,294.5C 242.343,292.322 241.01,290.322 239.5,288.5C 238.59,290.655 237.423,292.655 236,294.5C 234.201,291.073 233.035,287.406 232.5,283.5C 232.833,283.167 233.167,282.833 233.5,282.5C 234.5,284.5 235.5,286.5 236.5,288.5C 238.251,281.18 240.584,280.847 243.5,287.5C 244.466,285.604 244.799,283.604 244.5,281.5 Z"/></g>
<g><path style="opacity:1" fill="#afbeca" d="M 339.5,283.5 C 340.75,286.006 341.416,288.673 341.5,291.5C 338.477,291.105 337.477,292.105 338.5,294.5C 337.167,295.833 335.833,295.833 334.5,294.5C 335.608,290.478 337.275,286.812 339.5,283.5 Z"/></g>
<g><path style="opacity:1" fill="#768b9c" d="M 173.5,285.5 C 174.993,286.312 175.66,287.645 175.5,289.5C 175.43,290.772 175.097,291.938 174.5,293C 158.801,292.846 143.467,293.679 128.5,295.5C 126.5,295.5 124.5,295.5 122.5,295.5C 108.535,293.68 94.2017,292.847 79.5,293C 78.6634,291.989 78.33,290.822 78.5,289.5C 79.1667,289.5 79.8333,289.5 80.5,289.5C 80.5,290.5 80.5,291.5 80.5,292.5C 111.338,292.831 142.005,292.498 172.5,291.5C 173.461,289.735 173.795,287.735 173.5,285.5 Z"/></g>
<g><path style="opacity:1" fill="#657886" d="M 80.5,289.5 C 80.8333,289.5 81.1667,289.5 81.5,289.5C 111.482,291.492 141.815,292.159 172.5,291.5C 142.005,292.498 111.338,292.831 80.5,292.5C 80.5,291.5 80.5,290.5 80.5,289.5 Z"/></g>
<g><path style="opacity:1" fill="#46525b" d="M 81.5,289.5 C 101.5,289.5 121.5,289.5 141.5,289.5C 152.221,288.858 162.554,289.525 172.5,291.5C 141.815,292.159 111.482,291.492 81.5,289.5 Z"/></g>
<g><path style="opacity:1" fill="#a3b5c2" d="M 300.5,286.5 C 299.761,286.369 299.094,286.536 298.5,287C 299.12,289.473 299.786,291.973 300.5,294.5C 301.474,292.257 301.808,289.924 301.5,287.5C 302.167,287.833 302.833,288.167 303.5,288.5C 303.5,289.833 303.5,291.167 303.5,292.5C 302.596,293.209 302.263,294.209 302.5,295.5C 292.356,295.04 282.356,295.04 272.5,295.5C 271.249,292.868 270.249,290.201 269.5,287.5C 270.635,285.787 272.302,285.12 274.5,285.5C 274.183,288.572 274.516,291.572 275.5,294.5C 276.833,290.167 276.833,285.833 275.5,281.5C 274.893,281.624 274.56,281.957 274.5,282.5C 273.957,282.44 273.624,282.107 273.5,281.5C 276.428,280.516 279.428,280.183 282.5,280.5C 282.334,284.846 282.501,289.179 283,293.5C 283.465,292.069 284.299,290.903 285.5,290C 283.882,287.2 284.715,285.7 288,285.5C 289.107,285.585 290.107,285.919 291,286.5C 292.37,295.542 293.203,295.209 293.5,285.5C 296.059,285.198 298.393,285.532 300.5,286.5 Z"/></g>
<g><path style="opacity:1" fill="#d8dfe4" d="M 294.5,286.5 C 295.748,287.334 296.415,288.667 296.5,290.5C 296.167,291.833 295.833,293.167 295.5,294.5C 294.52,291.914 294.187,289.247 294.5,286.5 Z"/></g>
<g><path style="opacity:1" fill="#d8dfe4" d="M 279.5,281.5 C 280.8,283.223 281.467,285.39 281.5,288C 281.167,290.167 280.833,292.333 280.5,294.5C 279.508,290.217 279.174,285.884 279.5,281.5 Z"/></g>
<g><path style="opacity:1" fill="#23324f" d="M 187.5,296.5 C 187.5,296.833 187.5,297.167 187.5,297.5C 183.54,297.005 181.207,298.672 180.5,302.5C 179.833,302.167 179.167,301.833 178.5,301.5C 178.745,294.431 181.745,292.765 187.5,296.5 Z"/></g>
<g><path style="opacity:1" fill="#523057" d="M 72.5,298.5 C 72.7678,300.099 72.4345,301.432 71.5,302.5C 71.5,301.167 71.5,299.833 71.5,298.5C 66.5214,297.65 64.5214,299.483 65.5,304C 66.7932,304.49 68.1266,304.657 69.5,304.5C 64.3802,306.408 62.0469,304.408 62.5,298.5C 62.8743,296.05 64.3743,295.05 67,295.5C 69.6546,295.124 71.488,296.124 72.5,298.5 Z"/></g>
<g><path style="opacity:1" fill="#912529" d="M 129.5,297.5 C 130.167,297.5 130.5,297.833 130.5,298.5C 130.768,300.099 130.434,301.432 129.5,302.5C 129.5,301.167 129.5,299.833 129.5,298.5C 124.333,297.492 122.666,299.325 124.5,304C 125.793,304.49 127.127,304.657 128.5,304.5C 127.081,305.451 125.415,305.784 123.5,305.5C 123.167,305.5 122.833,305.5 122.5,305.5C 122.5,304.833 122.5,304.167 122.5,303.5C 121.895,297.76 124.228,295.76 129.5,297.5 Z"/></g>
<g><path style="opacity:1" fill="#612427" d="M 122.5,295.5 C 124.5,295.5 126.5,295.5 128.5,295.5C 129.167,295.5 129.5,295.833 129.5,296.5C 129.5,296.833 129.5,297.167 129.5,297.5C 124.228,295.76 121.895,297.76 122.5,303.5C 119.941,300.91 119.941,298.243 122.5,295.5 Z"/></g>
<g><path style="opacity:1" fill="#364d8e" d="M 187.5,297.5 C 188.167,297.5 188.5,297.833 188.5,298.5C 188.739,300.467 188.406,302.301 187.5,304C 185.19,304.497 182.857,304.663 180.5,304.5C 180.5,303.833 180.5,303.167 180.5,302.5C 181.207,298.672 183.54,297.005 187.5,297.5 Z"/></g>
<g><path style="opacity:1" fill="#d82b32" d="M 129.5,302.5 C 129.167,303.167 128.833,303.833 128.5,304.5C 127.127,304.657 125.793,304.49 124.5,304C 122.666,299.325 124.333,297.492 129.5,298.5C 129.5,299.833 129.5,301.167 129.5,302.5 Z"/></g>
<g><path style="opacity:1" fill="#4b3c42" d="M 130.5,298.5 C 133.851,303.078 132.685,305.745 127,306.5C 125.615,306.486 124.449,306.152 123.5,305.5C 125.415,305.784 127.081,305.451 128.5,304.5C 128.833,303.833 129.167,303.167 129.5,302.5C 130.434,301.432 130.768,300.099 130.5,298.5 Z"/></g>
<g><path style="opacity:1" fill="#3a4655" d="M 188.5,298.5 C 191.145,301.217 191.145,304.05 188.5,307C 185.073,308.166 182.407,307.332 180.5,304.5C 182.857,304.663 185.19,304.497 187.5,304C 188.406,302.301 188.739,300.467 188.5,298.5 Z"/></g>
<g><path style="opacity:1" fill="#4e5665" d="M 62.5,298.5 C 62.0469,304.408 64.3802,306.408 69.5,304.5C 70.5,304.167 71.1667,303.5 71.5,302.5C 72.4345,301.432 72.7678,300.099 72.5,298.5C 75.0336,301.142 75.0336,303.976 72.5,307C 64.4223,309.071 61.0889,306.238 62.5,298.5 Z"/></g>
<g><path style="opacity:1" fill="#864387" d="M 71.5,302.5 C 71.1667,303.5 70.5,304.167 69.5,304.5C 68.1266,304.657 66.7932,304.49 65.5,304C 64.5214,299.483 66.5214,297.65 71.5,298.5C 71.5,299.833 71.5,301.167 71.5,302.5 Z"/></g>
<g><path style="opacity:1" fill="#687d8d" d="M 187.5,297.5 C 187.5,297.167 187.5,296.833 187.5,296.5C 193.338,299.197 194.004,303.03 189.5,308C 182.925,310.276 179.258,308.109 178.5,301.5C 179.167,301.833 179.833,302.167 180.5,302.5C 180.5,303.167 180.5,303.833 180.5,304.5C 182.407,307.332 185.073,308.166 188.5,307C 191.145,304.05 191.145,301.217 188.5,298.5C 188.5,297.833 188.167,297.5 187.5,297.5 Z"/></g>
<g><path style="opacity:1" fill="#6d808f" d="M 129.5,297.5 C 129.5,297.167 129.5,296.833 129.5,296.5C 135.753,298.508 136.92,302.175 133,307.5C 128.432,311.915 124.932,311.249 122.5,305.5C 122.833,305.5 123.167,305.5 123.5,305.5C 124.449,306.152 125.615,306.486 127,306.5C 132.685,305.745 133.851,303.078 130.5,298.5C 130.5,297.833 130.167,297.5 129.5,297.5 Z"/></g>
</svg>
