<?xml version="1.0" encoding="UTF-8"?>
<!DOCTYPE svg PUBLIC "-//W3C//DTD SVG 1.1//EN" "http://www.w3.org/Graphics/SVG/1.1/DTD/svg11.dtd">
<svg xmlns="http://www.w3.org/2000/svg" version="1.1" width="469px" height="469px" style="shape-rendering:geometricPrecision; text-rendering:geometricPrecision; image-rendering:optimizeQuality; fill-rule:evenodd; clip-rule:evenodd" xmlns:xlink="http://www.w3.org/1999/xlink">
<g><path style="opacity:1" fill="#fefefe" d="M -0.5,-0.5 C 155.833,-0.5 312.167,-0.5 468.5,-0.5C 468.5,155.833 468.5,312.167 468.5,468.5C 312.167,468.5 155.833,468.5 -0.5,468.5C -0.5,312.167 -0.5,155.833 -0.5,-0.5 Z"/></g>
<g><path style="opacity:1" fill="#e58f90" d="M 224.5,147.5 C 219.637,147.181 214.97,147.514 210.5,148.5C 209.957,148.44 209.624,148.107 209.5,147.5C 214.652,146.186 219.652,146.186 224.5,147.5 Z"/></g>
<g><path style="opacity:1" fill="#f1bdbd" d="M 227.5,146.5 C 228.833,146.5 230.167,146.5 231.5,146.5C 231.5,149.167 231.5,151.833 231.5,154.5C 234.167,154.5 236.833,154.5 239.5,154.5C 239.5,151.833 239.5,149.167 239.5,146.5C 240.833,146.5 242.167,146.5 243.5,146.5C 243.5,153.167 243.5,159.833 243.5,166.5C 242.178,166.67 241.011,166.337 240,165.5C 239.503,162.854 239.336,160.187 239.5,157.5C 236.833,157.5 234.167,157.5 231.5,157.5C 231.5,160.167 231.5,162.833 231.5,165.5C 230.167,165.5 228.833,165.5 227.5,165.5C 227.5,159.167 227.5,152.833 227.5,146.5 Z"/></g>
<g><path style="opacity:1" fill="#e9a1a2" d="M 261.5,147.5 C 257.167,147.5 252.833,147.5 248.5,147.5C 248.5,153.167 248.5,158.833 248.5,164.5C 252.833,164.5 257.167,164.5 261.5,164.5C 257.03,165.486 252.363,165.819 247.5,165.5C 247.5,159.167 247.5,152.833 247.5,146.5C 252.363,146.181 257.03,146.514 261.5,147.5 Z"/></g>
<g><path style="opacity:1" fill="#d03a3c" d="M 261.5,147.5 C 258.038,148.482 254.371,148.815 250.5,148.5C 250.5,150.5 250.5,152.5 250.5,154.5C 253.305,155.319 256.305,155.819 259.5,156C 256.305,156.181 253.305,156.681 250.5,157.5C 250.5,159.5 250.5,161.5 250.5,163.5C 254.371,163.185 258.038,163.518 261.5,164.5C 257.167,164.5 252.833,164.5 248.5,164.5C 248.5,158.833 248.5,153.167 248.5,147.5C 252.833,147.5 257.167,147.5 261.5,147.5 Z"/></g>
<g><path style="opacity:1" fill="#d3484c" d="M 210.5,148.5 C 214.97,147.514 219.637,147.181 224.5,147.5C 224.5,147.833 224.5,148.167 224.5,148.5C 222.5,148.5 220.5,148.5 218.5,148.5C 217.833,169.833 217.167,169.833 216.5,148.5C 214.5,148.5 212.5,148.5 210.5,148.5 Z"/></g>
<g><path style="opacity:1" fill="#f3cece" d="M 210.5,148.5 C 212.5,148.5 214.5,148.5 216.5,148.5C 217.167,169.833 217.833,169.833 218.5,148.5C 220.5,148.5 222.5,148.5 224.5,148.5C 223.081,149.451 221.415,149.784 219.5,149.5C 219.5,154.833 219.5,160.167 219.5,165.5C 218.167,165.5 216.833,165.5 215.5,165.5C 215.5,160.167 215.5,154.833 215.5,149.5C 213.585,149.784 211.919,149.451 210.5,148.5 Z"/></g>
<g><path style="opacity:1" fill="#e27d7c" d="M 267.5,154.5 C 309.167,154.5 350.833,154.5 392.5,154.5C 392.5,155.5 392.5,156.5 392.5,157.5C 350.833,157.5 309.167,157.5 267.5,157.5C 267.5,156.5 267.5,155.5 267.5,154.5 Z"/></g>
<g><path style="opacity:1" fill="#d6504d" d="M 85.5,154.5 C 124.839,154.167 164.172,154.5 203.5,155.5C 183.833,155.833 164.167,156.167 144.5,156.5C 124.488,156.5 104.822,155.833 85.5,154.5 Z"/></g>
<g><path style="opacity:1" fill="#e9a0a2" d="M 250.5,154.5 C 253.833,154.5 257.167,154.5 260.5,154.5C 260.5,155.5 260.5,156.5 260.5,157.5C 257.167,157.5 253.833,157.5 250.5,157.5C 253.305,156.681 256.305,156.181 259.5,156C 256.305,155.819 253.305,155.319 250.5,154.5 Z"/></g>
<g><path style="opacity:1" fill="#cd2c30" d="M 228.5,147.5 C 230.369,149.635 231.036,152.302 230.5,155.5C 233.85,155.665 237.183,155.498 240.5,155C 241.274,152.595 241.774,150.095 242,147.5C 242.667,153.167 242.667,158.833 242,164.5C 241.774,161.905 241.274,159.405 240.5,157C 237.183,156.502 233.85,156.335 230.5,156.5C 230.813,159.247 230.48,161.914 229.5,164.5C 228.505,158.872 228.171,153.206 228.5,147.5 Z"/></g>
<g><path style="opacity:1" fill="#d44947" d="M 190.5,170.5 C 192.484,170.383 194.15,171.05 195.5,172.5C 193.594,175.815 190.927,177.149 187.5,176.5C 188.513,174.473 189.513,172.473 190.5,170.5 Z"/></g>
<g><path style="opacity:1" fill="#dc6b6c" d="M 355.5,184.5 C 358.287,183.523 361.287,183.19 364.5,183.5C 364.5,182.5 364.5,181.5 364.5,180.5C 356.833,180.5 349.167,180.5 341.5,180.5C 341.5,181.5 341.5,182.5 341.5,183.5C 344.5,183.5 347.5,183.5 350.5,183.5C 350.5,192.167 350.5,200.833 350.5,209.5C 349.507,201.35 349.174,193.017 349.5,184.5C 346.5,184.5 343.5,184.5 340.5,184.5C 340.5,182.833 340.5,181.167 340.5,179.5C 348.833,179.5 357.167,179.5 365.5,179.5C 365.5,181.167 365.5,182.833 365.5,184.5C 362.167,184.5 358.833,184.5 355.5,184.5 Z"/></g>
<g><path style="opacity:1" fill="#cd2e32" d="M 97.5,199.5 C 95.3926,198.532 93.0593,198.198 90.5,198.5C 90.5,202.167 90.5,205.833 90.5,209.5C 88.8333,209.5 87.1667,209.5 85.5,209.5C 85.5,199.5 85.5,189.5 85.5,179.5C 91.8979,179.243 98.2312,179.743 104.5,181C 106.286,181.785 107.786,182.951 109,184.5C 109.667,187.5 109.667,190.5 109,193.5C 107.145,195.355 105.312,197.188 103.5,199C 105.462,202.416 107.795,205.583 110.5,208.5C 108.579,209.641 106.579,209.808 104.5,209C 102.024,205.855 99.6902,202.688 97.5,199.5 Z"/></g>
<g><path style="opacity:1" fill="#d95c61" d="M 301.5,179.5 C 301.5,179.833 301.5,180.167 301.5,180.5C 300.167,180.5 298.833,180.5 297.5,180.5C 297.5,189.833 297.5,199.167 297.5,208.5C 298.833,208.5 300.167,208.5 301.5,208.5C 301.5,208.833 301.5,209.167 301.5,209.5C 299.833,209.5 298.167,209.5 296.5,209.5C 296.5,199.5 296.5,189.5 296.5,179.5C 298.167,179.5 299.833,179.5 301.5,179.5 Z"/></g>
<g><path style="opacity:1" fill="#cb2229" d="M 121.5,184.5 C 121.5,187.167 121.5,189.833 121.5,192.5C 126.5,192.5 131.5,192.5 136.5,192.5C 136.5,193.833 136.5,195.167 136.5,196.5C 131.5,196.5 126.5,196.5 121.5,196.5C 121.5,199.167 121.5,201.833 121.5,204.5C 126.64,205.488 131.974,205.821 137.5,205.5C 137.5,206.5 137.5,207.5 137.5,208.5C 130.833,208.5 124.167,208.5 117.5,208.5C 117.5,199.167 117.5,189.833 117.5,180.5C 124.167,180.5 130.833,180.5 137.5,180.5C 137.5,181.5 137.5,182.5 137.5,183.5C 131.974,183.179 126.64,183.512 121.5,184.5 Z"/></g>
<g><path style="opacity:1" fill="#cb272c" d="M 145.5,179.5 C 147.288,179.215 148.955,179.548 150.5,180.5C 155.175,186.53 159.842,192.53 164.5,198.5C 164.56,199.043 164.893,199.376 165.5,199.5C 166.496,193.202 166.83,186.868 166.5,180.5C 167.833,180.5 169.167,180.5 170.5,180.5C 170.5,190.167 170.5,199.833 170.5,209.5C 168.278,209.822 166.444,209.155 165,207.5C 160.734,201.291 156.234,195.291 151.5,189.5C 151.44,188.957 151.107,188.624 150.5,188.5C 149.503,195.134 149.17,201.8 149.5,208.5C 148.167,208.5 146.833,208.5 145.5,208.5C 145.5,198.833 145.5,189.167 145.5,179.5 Z"/></g>
<g><path style="opacity:1" fill="#cb2329" d="M 200.5,180.5 C 200.5,181.833 200.5,183.167 200.5,184.5C 195.167,184.5 189.833,184.5 184.5,184.5C 183.527,186.948 183.194,189.615 183.5,192.5C 188.5,192.5 193.5,192.5 198.5,192.5C 198.5,193.833 198.5,195.167 198.5,196.5C 193.5,196.5 188.5,196.5 183.5,196.5C 183.5,199.167 183.5,201.833 183.5,204.5C 188.975,205.489 194.642,205.822 200.5,205.5C 200.5,206.5 200.5,207.5 200.5,208.5C 193.5,208.5 186.5,208.5 179.5,208.5C 179.5,199.167 179.5,189.833 179.5,180.5C 186.5,180.5 193.5,180.5 200.5,180.5 Z"/></g>
<g><path style="opacity:1" fill="#cc262c" d="M 212.5,184.5 C 212.5,187.167 212.5,189.833 212.5,192.5C 217.5,192.5 222.5,192.5 227.5,192.5C 227.5,193.833 227.5,195.167 227.5,196.5C 222.5,196.5 217.5,196.5 212.5,196.5C 212.194,199.385 212.527,202.052 213.5,204.5C 218.833,204.5 224.167,204.5 229.5,204.5C 229.5,205.833 229.5,207.167 229.5,208.5C 222.5,208.5 215.5,208.5 208.5,208.5C 208.5,199.167 208.5,189.833 208.5,180.5C 215.167,180.5 221.833,180.5 228.5,180.5C 228.5,181.5 228.5,182.5 228.5,183.5C 222.974,183.179 217.64,183.512 212.5,184.5 Z"/></g>
<g><path style="opacity:1" fill="#cb262c" d="M 316.5,179.5 C 318.167,179.5 319.833,179.5 321.5,179.5C 321.5,189.5 321.5,199.5 321.5,209.5C 319.833,209.5 318.167,209.5 316.5,209.5C 316.5,205.167 316.5,200.833 316.5,196.5C 311.5,196.5 306.5,196.5 301.5,196.5C 301.5,200.5 301.5,204.5 301.5,208.5C 300.167,208.5 298.833,208.5 297.5,208.5C 297.5,199.167 297.5,189.833 297.5,180.5C 298.833,180.5 300.167,180.5 301.5,180.5C 301.5,184.5 301.5,188.5 301.5,192.5C 306.5,192.5 311.5,192.5 316.5,192.5C 316.5,188.167 316.5,183.833 316.5,179.5 Z"/></g>
<g><path style="opacity:1" fill="#cb262b" d="M 355.5,184.5 C 355.5,192.833 355.5,201.167 355.5,209.5C 353.833,209.5 352.167,209.5 350.5,209.5C 350.5,200.833 350.5,192.167 350.5,183.5C 347.5,183.5 344.5,183.5 341.5,183.5C 341.5,182.5 341.5,181.5 341.5,180.5C 349.167,180.5 356.833,180.5 364.5,180.5C 364.5,181.5 364.5,182.5 364.5,183.5C 361.287,183.19 358.287,183.523 355.5,184.5 Z"/></g>
<g><path style="opacity:1" fill="#cc262c" d="M 375.5,184.5 C 375.5,187.167 375.5,189.833 375.5,192.5C 380.5,192.5 385.5,192.5 390.5,192.5C 390.5,193.833 390.5,195.167 390.5,196.5C 385.5,196.5 380.5,196.5 375.5,196.5C 375.194,199.385 375.527,202.052 376.5,204.5C 381.833,204.5 387.167,204.5 392.5,204.5C 392.5,205.833 392.5,207.167 392.5,208.5C 385.5,208.5 378.5,208.5 371.5,208.5C 371.5,199.167 371.5,189.833 371.5,180.5C 378.167,180.5 384.833,180.5 391.5,180.5C 391.5,181.5 391.5,182.5 391.5,183.5C 385.974,183.179 380.64,183.512 375.5,184.5 Z"/></g>
<g><path style="opacity:1" fill="#e07a7d" d="M 170.5,209.5 C 170.5,199.833 170.5,190.167 170.5,180.5C 169.167,180.5 167.833,180.5 166.5,180.5C 166.83,186.868 166.496,193.202 165.5,199.5C 164.893,199.376 164.56,199.043 164.5,198.5C 165.49,192.355 165.823,186.022 165.5,179.5C 167.5,179.5 169.5,179.5 171.5,179.5C 171.827,189.681 171.494,199.681 170.5,209.5 Z"/></g>
<g><path style="opacity:1" fill="#d54d51" d="M 334.5,180.5 C 333.167,180.5 331.833,180.5 330.5,180.5C 330.5,189.833 330.5,199.167 330.5,208.5C 331.833,208.5 333.167,208.5 334.5,208.5C 333.081,209.451 331.415,209.784 329.5,209.5C 329.5,199.5 329.5,189.5 329.5,179.5C 331.415,179.216 333.081,179.549 334.5,180.5 Z"/></g>
<g><path style="opacity:1" fill="#cb2129" d="M 334.5,180.5 C 334.5,189.833 334.5,199.167 334.5,208.5C 333.167,208.5 331.833,208.5 330.5,208.5C 330.5,199.167 330.5,189.833 330.5,180.5C 331.833,180.5 333.167,180.5 334.5,180.5 Z"/></g>
<g><path style="opacity:1" fill="#f3cbcc" d="M 102.5,185.5 C 98.8333,185.5 95.1667,185.5 91.5,185.5C 91.5,188.167 91.5,190.833 91.5,193.5C 94.8333,193.5 98.1667,193.5 101.5,193.5C 98.0381,194.482 94.3714,194.815 90.5,194.5C 90.5,191.167 90.5,187.833 90.5,184.5C 94.7016,184.183 98.7016,184.517 102.5,185.5 Z"/></g>
<g><path style="opacity:1" fill="#fdf9f8" d="M 102.5,185.5 C 105.309,188.474 104.976,191.141 101.5,193.5C 98.1667,193.5 94.8333,193.5 91.5,193.5C 91.5,190.833 91.5,188.167 91.5,185.5C 95.1667,185.5 98.8333,185.5 102.5,185.5 Z"/></g>
<g><path style="opacity:1" fill="#e17d7f" d="M 145.5,179.5 C 145.5,189.167 145.5,198.833 145.5,208.5C 146.833,208.5 148.167,208.5 149.5,208.5C 149.17,201.8 149.503,195.134 150.5,188.5C 151.107,188.624 151.44,188.957 151.5,189.5C 150.509,195.979 150.176,202.646 150.5,209.5C 148.5,209.5 146.5,209.5 144.5,209.5C 144.173,199.319 144.506,189.319 145.5,179.5 Z"/></g>
<g><path style="opacity:1" fill="#e89c9d" d="M 184.5,184.5 C 184.5,186.833 184.5,189.167 184.5,191.5C 189.5,191.5 194.5,191.5 199.5,191.5C 199.5,193.5 199.5,195.5 199.5,197.5C 194.5,197.5 189.5,197.5 184.5,197.5C 184.5,199.833 184.5,202.167 184.5,204.5C 184.167,204.5 183.833,204.5 183.5,204.5C 183.5,201.833 183.5,199.167 183.5,196.5C 188.5,196.5 193.5,196.5 198.5,196.5C 198.5,195.167 198.5,193.833 198.5,192.5C 193.5,192.5 188.5,192.5 183.5,192.5C 183.194,189.615 183.527,186.948 184.5,184.5 Z"/></g>
<g><path style="opacity:1" fill="#e9a0a2" d="M 301.5,179.5 C 302.483,183.298 302.817,187.298 302.5,191.5C 306.833,191.5 311.167,191.5 315.5,191.5C 315.183,187.298 315.517,183.298 316.5,179.5C 316.5,183.833 316.5,188.167 316.5,192.5C 311.5,192.5 306.5,192.5 301.5,192.5C 301.5,188.5 301.5,184.5 301.5,180.5C 301.5,180.167 301.5,179.833 301.5,179.5 Z"/></g>
<g><path style="opacity:1" fill="#ce3032" d="M 281.5,193.5 C 282.924,191.485 283.59,189.152 283.5,186.5C 284.455,184.254 285.122,181.921 285.5,179.5C 287.167,179.5 288.833,179.5 290.5,179.5C 287.115,189.326 284.115,199.326 281.5,209.5C 279.712,209.785 278.045,209.452 276.5,208.5C 273.847,202.213 271.347,195.88 269,189.5C 266.019,195.601 263.519,201.935 261.5,208.5C 259.955,209.452 258.288,209.785 256.5,209.5C 253.933,199.563 250.6,189.896 246.5,180.5C 248.695,179.231 250.861,179.231 253,180.5C 254.619,187.06 256.785,193.393 259.5,199.5C 262.37,193.185 264.703,186.685 266.5,180C 268.441,179.257 270.274,179.424 272,180.5C 274.269,187.141 276.436,193.808 278.5,200.5C 279.352,198.076 280.352,195.742 281.5,193.5 Z"/></g>
<g><path style="opacity:1" fill="#e07574" d="M 283.5,186.5 C 283.59,189.152 282.924,191.485 281.5,193.5C 281.41,190.848 282.076,188.515 283.5,186.5 Z"/></g>
<g><path style="opacity:1" fill="#efb8b8" d="M 227.5,196.5 C 223.03,197.486 218.363,197.819 213.5,197.5C 213.5,199.833 213.5,202.167 213.5,204.5C 212.527,202.052 212.194,199.385 212.5,196.5C 217.5,196.5 222.5,196.5 227.5,196.5 Z"/></g>
<g><path style="opacity:1" fill="#efb6b7" d="M 390.5,196.5 C 386.03,197.486 381.363,197.819 376.5,197.5C 376.5,199.833 376.5,202.167 376.5,204.5C 375.527,202.052 375.194,199.385 375.5,196.5C 380.5,196.5 385.5,196.5 390.5,196.5 Z"/></g>
<g><path style="opacity:1" fill="#eba8a9" d="M 316.5,209.5 C 315.517,205.702 315.183,201.702 315.5,197.5C 311.167,197.5 306.833,197.5 302.5,197.5C 302.817,201.702 302.483,205.702 301.5,209.5C 301.5,209.167 301.5,208.833 301.5,208.5C 301.5,204.5 301.5,200.5 301.5,196.5C 306.5,196.5 311.5,196.5 316.5,196.5C 316.5,200.833 316.5,205.167 316.5,209.5 Z"/></g>
<g><path style="opacity:1" fill="#efb9b9" d="M 97.5,199.5 C 95.5,199.5 93.5,199.5 91.5,199.5C 91.8128,203.042 91.4794,206.375 90.5,209.5C 90.5,205.833 90.5,202.167 90.5,198.5C 93.0593,198.198 95.3926,198.532 97.5,199.5 Z"/></g>
<g><path style="opacity:1" fill="#d44e52" d="M 121.5,184.5 C 126.64,183.512 131.974,183.179 137.5,183.5C 137.5,182.5 137.5,181.5 137.5,180.5C 130.833,180.5 124.167,180.5 117.5,180.5C 117.5,189.833 117.5,199.167 117.5,208.5C 124.167,208.5 130.833,208.5 137.5,208.5C 137.5,207.5 137.5,206.5 137.5,205.5C 131.974,205.821 126.64,205.488 121.5,204.5C 127.167,204.5 132.833,204.5 138.5,204.5C 138.5,206.167 138.5,207.833 138.5,209.5C 131.167,209.5 123.833,209.5 116.5,209.5C 116.5,199.5 116.5,189.5 116.5,179.5C 123.833,179.5 131.167,179.5 138.5,179.5C 138.5,181.167 138.5,182.833 138.5,184.5C 132.833,184.5 127.167,184.5 121.5,184.5 Z"/></g>
<g><path style="opacity:1" fill="#d85c5f" d="M 200.5,180.5 C 193.5,180.5 186.5,180.5 179.5,180.5C 179.5,189.833 179.5,199.167 179.5,208.5C 186.5,208.5 193.5,208.5 200.5,208.5C 200.5,207.5 200.5,206.5 200.5,205.5C 194.642,205.822 188.975,205.489 183.5,204.5C 183.833,204.5 184.167,204.5 184.5,204.5C 190.167,204.5 195.833,204.5 201.5,204.5C 201.5,206.167 201.5,207.833 201.5,209.5C 193.833,209.5 186.167,209.5 178.5,209.5C 178.5,199.5 178.5,189.5 178.5,179.5C 186.019,179.175 193.352,179.508 200.5,180.5 Z"/></g>
<g><path style="opacity:1" fill="#d34a4f" d="M 212.5,184.5 C 217.64,183.512 222.974,183.179 228.5,183.5C 228.5,182.5 228.5,181.5 228.5,180.5C 221.833,180.5 215.167,180.5 208.5,180.5C 208.5,189.833 208.5,199.167 208.5,208.5C 215.5,208.5 222.5,208.5 229.5,208.5C 222.352,209.492 215.019,209.825 207.5,209.5C 207.5,199.5 207.5,189.5 207.5,179.5C 214.833,179.5 222.167,179.5 229.5,179.5C 229.5,181.167 229.5,182.833 229.5,184.5C 223.833,184.5 218.167,184.5 212.5,184.5 Z"/></g>
<g><path style="opacity:1" fill="#d54e52" d="M 375.5,184.5 C 380.64,183.512 385.974,183.179 391.5,183.5C 391.5,182.5 391.5,181.5 391.5,180.5C 384.833,180.5 378.167,180.5 371.5,180.5C 371.5,189.833 371.5,199.167 371.5,208.5C 378.5,208.5 385.5,208.5 392.5,208.5C 385.352,209.492 378.019,209.825 370.5,209.5C 370.5,199.5 370.5,189.5 370.5,179.5C 377.833,179.5 385.167,179.5 392.5,179.5C 392.5,181.167 392.5,182.833 392.5,184.5C 386.833,184.5 381.167,184.5 375.5,184.5 Z"/></g>
<g><path style="opacity:1" fill="#e4898b" d="M 234.5,227.5 C 234.167,227.5 233.833,227.5 233.5,227.5C 230.038,226.518 226.371,226.185 222.5,226.5C 222.5,231.833 222.5,237.167 222.5,242.5C 221.511,237.025 221.178,231.358 221.5,225.5C 226.294,224.903 230.627,225.57 234.5,227.5 Z"/></g>
<g><path style="opacity:1" fill="#ce3035" d="M 233.5,227.5 C 230.167,227.5 226.833,227.5 223.5,227.5C 223.5,229.5 223.5,231.5 223.5,233.5C 226.713,233.19 229.713,233.523 232.5,234.5C 229.5,234.5 226.5,234.5 223.5,234.5C 223.5,236.833 223.5,239.167 223.5,241.5C 227.042,241.187 230.375,241.521 233.5,242.5C 229.833,242.5 226.167,242.5 222.5,242.5C 222.5,237.167 222.5,231.833 222.5,226.5C 226.371,226.185 230.038,226.518 233.5,227.5 Z"/></g>
<g><path style="opacity:1" fill="#e69597" d="M 259.5,226.5 C 257.554,231.396 256.887,236.729 257.5,242.5C 256.511,237.025 256.178,231.358 256.5,225.5C 257.791,225.263 258.791,225.596 259.5,226.5 Z"/></g>
<g><path style="opacity:1" fill="#e28688" d="M 270.5,226.5 C 271.209,225.596 272.209,225.263 273.5,225.5C 273.822,231.358 273.489,237.025 272.5,242.5C 273.113,236.729 272.446,231.396 270.5,226.5 Z"/></g>
<g><path style="opacity:1" fill="#d75656" d="M 218.5,227.5 C 216.5,227.5 214.5,227.5 212.5,227.5C 212.5,232.5 212.5,237.5 212.5,242.5C 210.558,237.944 209.892,232.944 210.5,227.5C 208.712,227.785 207.045,227.452 205.5,226.5C 207.667,226.167 209.833,225.833 212,225.5C 214.61,225.533 216.777,226.2 218.5,227.5 Z"/></g>
<g><path style="opacity:1" fill="#f1c4c5" d="M 218.5,227.5 C 217.081,228.451 215.415,228.784 213.5,228.5C 213.819,233.363 213.486,238.03 212.5,242.5C 212.5,237.5 212.5,232.5 212.5,227.5C 214.5,227.5 216.5,227.5 218.5,227.5 Z"/></g>
<g><path style="opacity:1" fill="#d34546" d="M 259.5,226.5 C 261.113,229.286 262.946,231.953 265,234.5C 267.054,231.953 268.887,229.286 270.5,226.5C 272.446,231.396 273.113,236.729 272.5,242.5C 272.167,242.5 271.833,242.5 271.5,242.5C 271.666,238.154 271.499,233.821 271,229.5C 270.283,230.044 269.783,230.711 269.5,231.5C 268.252,233.649 266.752,235.649 265,237.5C 263.248,235.649 261.748,233.649 260.5,231.5C 260.44,230.957 260.107,230.624 259.5,230.5C 258.509,234.445 258.176,238.445 258.5,242.5C 258.167,242.5 257.833,242.5 257.5,242.5C 256.887,236.729 257.554,231.396 259.5,226.5 Z"/></g>
<g><path style="opacity:1" fill="#eaa6a7" d="M 260.5,231.5 C 259.833,235.167 259.167,238.833 258.5,242.5C 258.176,238.445 258.509,234.445 259.5,230.5C 260.107,230.624 260.44,230.957 260.5,231.5 Z"/></g>
<g><path style="opacity:1" fill="#edb0b1" d="M 271.5,242.5 C 270.833,238.833 270.167,235.167 269.5,231.5C 269.783,230.711 270.283,230.044 271,229.5C 271.499,233.821 271.666,238.154 271.5,242.5 Z"/></g>
<g><path style="opacity:1" fill="#efbebf" d="M 233.5,227.5 C 233.833,227.5 234.167,227.5 234.5,227.5C 231.375,228.479 228.042,228.813 224.5,228.5C 224.5,229.833 224.5,231.167 224.5,232.5C 227.5,232.5 230.5,232.5 233.5,232.5C 233.737,233.791 233.404,234.791 232.5,235.5C 232.5,235.167 232.5,234.833 232.5,234.5C 229.713,233.523 226.713,233.19 223.5,233.5C 223.5,231.5 223.5,229.5 223.5,227.5C 226.833,227.5 230.167,227.5 233.5,227.5 Z"/></g>
<g><path style="opacity:1" fill="#d85758" d="M 243.5,225.5 C 244.675,225.281 245.675,225.614 246.5,226.5C 249.027,231.415 251.36,236.415 253.5,241.5C 251.117,242.462 250.117,241.462 250.5,238.5C 246.833,238.5 243.167,238.5 239.5,238.5C 239.688,240.103 239.188,241.437 238,242.5C 237.833,242 237.667,241.5 237.5,241C 239.652,235.868 241.652,230.701 243.5,225.5 Z"/></g>
<g><path style="opacity:1" fill="#f9e3e3" d="M 244.5,228.5 C 246.19,230.504 247.524,232.837 248.5,235.5C 246.167,236.833 243.833,236.833 241.5,235.5C 242.788,233.261 243.788,230.928 244.5,228.5 Z"/></g>
<g><path style="opacity:1" fill="#da5e5e" d="M 85.5,233.5 C 123.506,233.167 161.506,233.5 199.5,234.5C 180.5,234.833 161.5,235.167 142.5,235.5C 123.155,235.5 104.155,234.833 85.5,233.5 Z"/></g>
<g><path style="opacity:1" fill="#da5e5e" d="M 278.5,233.5 C 316.506,233.167 354.506,233.5 392.5,234.5C 373.5,234.833 354.5,235.167 335.5,235.5C 316.155,235.5 297.155,234.833 278.5,233.5 Z"/></g>
<g><path style="opacity:1" fill="#e3898b" d="M 232.5,234.5 C 232.5,234.833 232.5,235.167 232.5,235.5C 229.833,235.5 227.167,235.5 224.5,235.5C 224.5,237.167 224.5,238.833 224.5,240.5C 227.898,240.18 231.232,240.513 234.5,241.5C 234.376,242.107 234.043,242.44 233.5,242.5C 230.375,241.521 227.042,241.187 223.5,241.5C 223.5,239.167 223.5,236.833 223.5,234.5C 226.5,234.5 229.5,234.5 232.5,234.5 Z"/></g>
<g><path style="opacity:1" fill="#d54a47" d="M 175.5,267.5 C 177.167,267.5 178.833,267.5 180.5,267.5C 180.129,275.3 180.796,282.967 182.5,290.5C 179.675,290.919 177.509,289.919 176,287.5C 175.5,280.842 175.334,274.175 175.5,267.5 Z"/></g>
<g><path style="opacity:1" fill="#cf3436" d="M 266.5,267.5 C 267.833,267.5 269.167,267.5 270.5,267.5C 270.5,268.833 270.5,270.167 270.5,271.5C 266.56,272.234 265.227,270.901 266.5,267.5 Z"/></g>
<g><path style="opacity:1" fill="#cc292e" d="M 327.5,267.5 C 328.833,267.5 330.167,267.5 331.5,267.5C 331.5,268.833 331.5,270.167 331.5,271.5C 330.167,271.5 328.833,271.5 327.5,271.5C 327.5,270.167 327.5,268.833 327.5,267.5 Z"/></g>
<g><path style="opacity:1" fill="#cf3335" d="M 346.5,267.5 C 347.833,267.5 349.167,267.5 350.5,267.5C 350.5,274.833 350.5,282.167 350.5,289.5C 348.856,289.714 347.356,289.38 346,288.5C 341.498,291.662 338.164,290.662 336,285.5C 333.716,276.637 336.883,272.971 345.5,274.5C 346.474,272.257 346.808,269.924 346.5,267.5 Z"/></g>
<g><path style="opacity:1" fill="#e28285" d="M 124.5,268.5 C 124.5,275.5 124.5,282.5 124.5,289.5C 127.833,289.5 131.167,289.5 134.5,289.5C 131.038,290.482 127.371,290.815 123.5,290.5C 123.175,282.981 123.508,275.648 124.5,268.5 Z"/></g>
<g><path style="opacity:1" fill="#ce3335" d="M 124.5,268.5 C 128.936,268.21 133.27,268.71 137.5,270C 142.623,274.131 143.79,279.297 141,285.5C 139.362,287.734 137.195,289.067 134.5,289.5C 131.167,289.5 127.833,289.5 124.5,289.5C 124.5,282.5 124.5,275.5 124.5,268.5 Z"/></g>
<g><path style="opacity:1" fill="#e07c7f" d="M 247.5,268.5 C 247.5,275.5 247.5,282.5 247.5,289.5C 248.5,289.5 249.5,289.5 250.5,289.5C 250.183,286.428 250.516,283.428 251.5,280.5C 252.107,280.624 252.44,280.957 252.5,281.5C 251.523,284.287 251.19,287.287 251.5,290.5C 249.833,290.5 248.167,290.5 246.5,290.5C 246.175,282.981 246.508,275.648 247.5,268.5 Z"/></g>
<g><path style="opacity:1" fill="#ce3033" d="M 247.5,268.5 C 248.833,268.5 250.167,268.5 251.5,268.5C 251.336,271.187 251.503,273.854 252,276.5C 254.285,274.093 256.451,271.593 258.5,269C 259.944,268.219 261.277,268.386 262.5,269.5C 260.408,272.681 258.075,275.681 255.5,278.5C 257.975,282.142 260.642,285.642 263.5,289C 261.833,289.667 260.167,289.667 258.5,289C 256.371,286.561 254.371,284.061 252.5,281.5C 252.44,280.957 252.107,280.624 251.5,280.5C 250.516,283.428 250.183,286.428 250.5,289.5C 249.5,289.5 248.5,289.5 247.5,289.5C 247.5,282.5 247.5,275.5 247.5,268.5 Z"/></g>
<g><path style="opacity:1" fill="#fefbfb" d="M 128.5,272.5 C 137.008,271.523 139.842,275.19 137,283.5C 134.804,286.125 131.97,287.125 128.5,286.5C 128.5,281.833 128.5,277.167 128.5,272.5 Z"/></g>
<g><path style="opacity:1" fill="#cf3637" d="M 148.5,273.5 C 151.807,273.063 154.807,273.73 157.5,275.5C 158.247,280.569 159.247,285.569 160.5,290.5C 158.173,290.753 156.173,290.086 154.5,288.5C 147.712,292.217 144.879,290.217 146,282.5C 148.886,281.24 151.719,279.907 154.5,278.5C 154.113,277.28 153.28,276.613 152,276.5C 145.817,279.486 144.651,278.486 148.5,273.5 Z"/></g>
<g><path style="opacity:1" fill="#ce2f32" d="M 163.5,273.5 C 165.451,273.227 166.951,273.893 168,275.5C 169.555,273.485 171.389,273.152 173.5,274.5C 172.324,276.677 170.49,278.011 168,278.5C 167.501,282.152 167.335,285.818 167.5,289.5C 166.167,289.5 164.833,289.5 163.5,289.5C 163.5,284.167 163.5,278.833 163.5,273.5 Z"/></g>
<g><path style="opacity:1" fill="#ce3134" d="M 199.5,282.5 C 195.833,282.5 192.167,282.5 188.5,282.5C 188.263,283.791 188.596,284.791 189.5,285.5C 192.344,286.551 195.344,286.551 198.5,285.5C 198.863,287.911 197.863,289.411 195.5,290C 186.837,291 183.337,287.167 185,278.5C 187.226,274.139 190.726,272.639 195.5,274C 198.821,275.812 200.155,278.645 199.5,282.5 Z"/></g>
<g><path style="opacity:1" fill="#e38b8e" d="M 208.5,274.5 C 208.217,275.289 207.717,275.956 207,276.5C 206.29,275.027 205.124,274.36 203.5,274.5C 203.5,279.5 203.5,284.5 203.5,289.5C 204.5,289.5 205.5,289.5 206.5,289.5C 206.187,285.958 206.521,282.625 207.5,279.5C 207.5,283.167 207.5,286.833 207.5,290.5C 205.833,290.5 204.167,290.5 202.5,290.5C 202.5,284.833 202.5,279.167 202.5,273.5C 204.621,273.325 206.621,273.659 208.5,274.5 Z"/></g>
<g><path style="opacity:1" fill="#ce3032" d="M 207.5,279.5 C 206.521,282.625 206.187,285.958 206.5,289.5C 205.5,289.5 204.5,289.5 203.5,289.5C 203.5,284.5 203.5,279.5 203.5,274.5C 205.124,274.36 206.29,275.027 207,276.5C 207.717,275.956 208.217,275.289 208.5,274.5C 211.379,273.008 214.046,273.341 216.5,275.5C 217.448,280.435 217.781,285.435 217.5,290.5C 216.167,290.5 214.833,290.5 213.5,290.5C 213.5,286.167 213.5,281.833 213.5,277.5C 210.99,277.054 208.99,277.72 207.5,279.5 Z"/></g>
<g><path style="opacity:1" fill="#ce3234" d="M 225.5,273.5 C 232.706,272.412 236.039,275.412 235.5,282.5C 232.167,282.5 228.833,282.5 225.5,282.5C 225.78,286.225 227.78,287.392 231.5,286C 232.819,284.372 234.152,284.539 235.5,286.5C 231.508,291.332 227.175,291.666 222.5,287.5C 221.415,284.227 221.248,280.894 222,277.5C 222.69,275.65 223.856,274.316 225.5,273.5 Z"/></g>
<g><path style="opacity:1" fill="#ca2127" d="M 266.5,274.5 C 267.5,274.5 268.5,274.5 269.5,274.5C 269.5,279.5 269.5,284.5 269.5,289.5C 268.5,289.5 267.5,289.5 266.5,289.5C 266.5,284.5 266.5,279.5 266.5,274.5 Z"/></g>
<g><path style="opacity:1" fill="#da6367" d="M 266.5,274.5 C 267.568,273.566 268.901,273.232 270.5,273.5C 270.5,279.167 270.5,284.833 270.5,290.5C 268.901,290.768 267.568,290.434 266.5,289.5C 267.5,289.5 268.5,289.5 269.5,289.5C 269.5,284.5 269.5,279.5 269.5,274.5C 268.5,274.5 267.5,274.5 266.5,274.5 Z"/></g>
<g><path style="opacity:1" fill="#e38b8e" d="M 280.5,274.5 C 280.217,275.289 279.717,275.956 279,276.5C 278.29,275.027 277.124,274.36 275.5,274.5C 275.5,279.5 275.5,284.5 275.5,289.5C 276.5,289.5 277.5,289.5 278.5,289.5C 278.187,285.958 278.521,282.625 279.5,279.5C 279.5,283.167 279.5,286.833 279.5,290.5C 277.833,290.5 276.167,290.5 274.5,290.5C 274.5,284.833 274.5,279.167 274.5,273.5C 276.621,273.325 278.621,273.659 280.5,274.5 Z"/></g>
<g><path style="opacity:1" fill="#ce3032" d="M 279.5,279.5 C 278.521,282.625 278.187,285.958 278.5,289.5C 277.5,289.5 276.5,289.5 275.5,289.5C 275.5,284.5 275.5,279.5 275.5,274.5C 277.124,274.36 278.29,275.027 279,276.5C 279.717,275.956 280.217,275.289 280.5,274.5C 283.379,273.008 286.046,273.341 288.5,275.5C 289.448,280.435 289.781,285.435 289.5,290.5C 288.167,290.5 286.833,290.5 285.5,290.5C 285.5,286.167 285.5,281.833 285.5,277.5C 282.99,277.054 280.99,277.72 279.5,279.5 Z"/></g>
<g><path style="opacity:1" fill="#cf3637" d="M 297.5,273.5 C 301.495,272.883 304.828,274.049 307.5,277C 306.892,277.87 306.059,278.37 305,278.5C 297.751,276.309 295.585,278.809 298.5,286C 301.14,286.839 303.473,286.339 305.5,284.5C 307.968,286.991 307.302,288.824 303.5,290C 294.85,290.325 291.683,286.159 294,277.5C 295.102,276.051 296.269,274.718 297.5,273.5 Z"/></g>
<g><path style="opacity:1" fill="#cf3536" d="M 313.5,273.5 C 316.602,273.154 319.435,273.821 322,275.5C 322.34,280.62 323.174,285.62 324.5,290.5C 322.173,290.753 320.173,290.086 318.5,288.5C 311.712,292.217 308.879,290.217 310,282.5C 312.333,281.123 314.833,280.123 317.5,279.5C 318.386,278.675 318.719,277.675 318.5,276.5C 315.951,276.387 313.618,277.054 311.5,278.5C 310.417,277.635 310.251,276.635 311,275.5C 311.995,274.934 312.828,274.267 313.5,273.5 Z"/></g>
<g><path style="opacity:1" fill="#cc272c" d="M 327.5,273.5 C 328.833,273.5 330.167,273.5 331.5,273.5C 331.5,278.833 331.5,284.167 331.5,289.5C 330.167,289.5 328.833,289.5 327.5,289.5C 327.5,284.167 327.5,278.833 327.5,273.5 Z"/></g>
<g><path style="opacity:1" fill="#fdf6f7" d="M 340.5,277.5 C 342.467,277.261 344.301,277.594 346,278.5C 346.769,281.099 346.602,283.599 345.5,286C 343.741,286.798 342.074,286.631 340.5,285.5C 339.176,282.802 339.176,280.136 340.5,277.5 Z"/></g>
<g><path style="opacity:1" fill="#f4cacb" d="M 190.5,276.5 C 193.95,275.756 195.616,277.09 195.5,280.5C 193.076,280.808 190.743,280.474 188.5,279.5C 189.193,278.482 189.859,277.482 190.5,276.5 Z"/></g>
<g><path style="opacity:1" fill="#f5d2d3" d="M 226.5,276.5 C 229.95,275.756 231.616,277.09 231.5,280.5C 229.5,280.5 227.5,280.5 225.5,280.5C 225.433,279.041 225.766,277.708 226.5,276.5 Z"/></g>
<g><path style="opacity:1" fill="#fae6e6" d="M 150.5,282.5 C 151.833,282.5 153.167,282.5 154.5,282.5C 154.99,284.948 154.157,286.615 152,287.5C 149.389,286.5 148.889,284.833 150.5,282.5 Z"/></g>
<g><path style="opacity:1" fill="#ecafb1" d="M 199.5,282.5 C 195.881,282.881 192.548,283.881 189.5,285.5C 188.596,284.791 188.263,283.791 188.5,282.5C 192.167,282.5 195.833,282.5 199.5,282.5 Z"/></g>
<g><path style="opacity:1" fill="#fae5e6" d="M 314.5,282.5 C 315.833,282.5 317.167,282.5 318.5,282.5C 318.99,284.948 318.157,286.615 316,287.5C 313.389,286.5 312.889,284.833 314.5,282.5 Z"/></g>
</svg>
