<?xml version="1.0" encoding="UTF-8"?>
<!DOCTYPE svg PUBLIC "-//W3C//DTD SVG 1.1//EN" "http://www.w3.org/Graphics/SVG/1.1/DTD/svg11.dtd">
<svg xmlns="http://www.w3.org/2000/svg" version="1.1" width="469px" height="469px" style="shape-rendering:geometricPrecision; text-rendering:geometricPrecision; image-rendering:optimizeQuality; fill-rule:evenodd; clip-rule:evenodd" xmlns:xlink="http://www.w3.org/1999/xlink">
<g><path style="opacity:1" fill="#fefefe" d="M -0.5,-0.5 C 155.833,-0.5 312.167,-0.5 468.5,-0.5C 468.5,155.833 468.5,312.167 468.5,468.5C 312.167,468.5 155.833,468.5 -0.5,468.5C -0.5,312.167 -0.5,155.833 -0.5,-0.5 Z"/></g>
<g><path style="opacity:1" fill="#f6f5f5" d="M 261.5,119.5 C 258.86,120.421 256.027,121.088 253,121.5C 251.427,121.155 250.26,120.489 249.5,119.5C 246.767,121.554 243.767,122.887 240.5,123.5C 241.167,129.167 241.833,134.833 242.5,140.5C 240.5,140.5 238.5,140.5 236.5,140.5C 233.273,140.324 230.273,139.657 227.5,138.5C 222.59,135.924 217.257,134.424 211.5,134C 212.993,132.844 212.826,132.01 211,131.5C 209.7,132.707 208.2,133.374 206.5,133.5C 206.5,132.5 206.5,131.5 206.5,130.5C 204.821,130.285 203.821,130.952 203.5,132.5C 201.435,132.483 199.435,132.15 197.5,131.5C 194.71,131.051 192.044,131.051 189.5,131.5C 181.807,148.92 175.64,166.92 171,185.5C 170.333,190.5 170.333,195.5 171,200.5C 171.232,201.737 171.732,202.737 172.5,203.5C 173.128,206.09 174.295,208.423 176,210.5C 179.812,213.969 183.645,217.302 187.5,220.5C 188.211,222.799 189.211,224.965 190.5,227C 189.104,230.498 187.771,233.998 186.5,237.5C 182.545,255.278 178.212,272.944 173.5,290.5C 172.542,292.302 171.875,294.302 171.5,296.5C 171.579,300.052 170.246,302.885 167.5,305C 161.105,306.05 154.939,305.55 149,303.5C 148.5,303.833 148,304.167 147.5,304.5C 152.857,307.23 158.524,309.063 164.5,310C 165.056,310.383 165.389,310.883 165.5,311.5C 163.196,312.163 160.863,312.83 158.5,313.5C 155.455,313.122 152.455,313.122 149.5,313.5C 149.167,313.5 148.833,313.5 148.5,313.5C 146.915,312.998 146.415,311.998 147,310.5C 150.18,310.602 153.346,310.602 156.5,310.5C 152.91,308.75 149.243,307.416 145.5,306.5C 146.12,302.698 145.286,299.365 143,296.5C 142.333,241.833 142.333,187.167 143,132.5C 145.238,130.691 146.405,128.358 146.5,125.5C 150.406,124.772 153.74,122.938 156.5,120C 160.167,119.667 163.833,119.333 167.5,119C 190.21,118.823 212.876,118.323 235.5,117.5C 242.167,118.167 248.833,118.833 255.5,119.5C 255.911,118.738 256.077,117.738 256,116.5C 257.78,117.639 259.614,118.639 261.5,119.5 Z"/></g>
<g><path style="opacity:1" fill="#eae8e8" d="M 300.5,118.5 C 298.396,118.201 296.396,118.534 294.5,119.5C 297.301,125.742 299.801,132.075 302,138.5C 302.249,141.832 303.082,144.999 304.5,148C 304.43,148.765 304.097,149.265 303.5,149.5C 302.778,149.918 302.278,150.584 302,151.5C 300.985,148.898 299.152,147.065 296.5,146C 292.5,145.333 288.5,145.333 284.5,146C 281.709,147.789 278.709,149.122 275.5,150C 273.845,151.444 273.178,153.278 273.5,155.5C 271.257,156.312 268.924,156.979 266.5,157.5C 261.859,156.769 257.193,156.436 252.5,156.5C 250.118,146.709 248.452,136.709 247.5,126.5C 248.791,126.737 249.791,126.404 250.5,125.5C 254.621,124.865 258.621,123.698 262.5,122C 256.579,121.766 250.912,122.6 245.5,124.5C 244.5,124.5 243.5,124.5 242.5,124.5C 242.76,130.172 243.093,135.839 243.5,141.5C 240.941,141.802 238.607,141.468 236.5,140.5C 238.5,140.5 240.5,140.5 242.5,140.5C 241.833,134.833 241.167,129.167 240.5,123.5C 243.767,122.887 246.767,121.554 249.5,119.5C 250.26,120.489 251.427,121.155 253,121.5C 256.027,121.088 258.86,120.421 261.5,119.5C 270.484,118.711 279.484,118.545 288.5,119C 289.833,118.667 291.167,118.333 292.5,118C 290.595,117.174 290.261,116.007 291.5,114.5C 294.275,116.568 297.275,117.902 300.5,118.5 Z"/></g>
<g><path style="opacity:1" fill="#a29c9e" d="M 250.5,125.5 C 249.081,124.549 247.415,124.216 245.5,124.5C 250.912,122.6 256.579,121.766 262.5,122C 258.621,123.698 254.621,124.865 250.5,125.5 Z"/></g>
<g><path style="opacity:1" fill="#83706b" d="M 245.5,124.5 C 247.415,124.216 249.081,124.549 250.5,125.5C 246.997,125.335 244.997,127.002 244.5,130.5C 245.58,138.895 246.913,147.228 248.5,155.5C 249.493,164.532 251.493,173.198 254.5,181.5C 255.209,187.925 258.209,192.925 263.5,196.5C 268.297,201.549 274.297,203.882 281.5,203.5C 279.393,204.468 277.059,204.802 274.5,204.5C 268.286,203.06 262.953,200.06 258.5,195.5C 255.569,191.975 253.402,187.975 252,183.5C 250.436,173.578 248.102,163.911 245,154.5C 242.154,170.228 238.988,185.895 235.5,201.5C 232.503,210.16 226.837,216.16 218.5,219.5C 218.5,219.167 218.5,218.833 218.5,218.5C 219.833,217.5 221.167,216.5 222.5,215.5C 224.167,214.167 225.833,212.833 227.5,211.5C 231.304,206.887 233.804,201.554 235,195.5C 238.887,178.699 241.72,161.699 243.5,144.5C 242.5,144.5 241.5,144.5 240.5,144.5C 240.389,143.883 240.056,143.383 239.5,143C 241.058,142.79 242.391,142.29 243.5,141.5C 243.093,135.839 242.76,130.172 242.5,124.5C 243.5,124.5 244.5,124.5 245.5,124.5 Z"/></g>
<g><path style="opacity:1" fill="#c5b2ad" d="M 300.5,118.5 C 300.5,118.833 300.5,119.167 300.5,119.5C 299.503,119.47 298.836,119.97 298.5,121C 304.995,136.825 310.328,152.992 314.5,169.5C 313.675,172.372 312.841,175.372 312,178.5C 311.617,179.056 311.117,179.389 310.5,179.5C 311.36,175.566 311.693,171.566 311.5,167.5C 311.044,161.136 309.377,155.136 306.5,149.5C 305.081,150.005 304.415,151.005 304.5,152.5C 303.596,151.791 303.263,150.791 303.5,149.5C 304.097,149.265 304.43,148.765 304.5,148C 303.082,144.999 302.249,141.832 302,138.5C 299.801,132.075 297.301,125.742 294.5,119.5C 296.396,118.534 298.396,118.201 300.5,118.5 Z"/></g>
<g><path style="opacity:1" fill="#cab8b1" d="M 250.5,125.5 C 249.791,126.404 248.791,126.737 247.5,126.5C 248.452,136.709 250.118,146.709 252.5,156.5C 251.778,156.082 251.278,155.416 251,154.5C 250.658,156.619 249.825,156.953 248.5,155.5C 246.913,147.228 245.58,138.895 244.5,130.5C 244.997,127.002 246.997,125.335 250.5,125.5 Z"/></g>
<g><path style="opacity:1" fill="#877772" d="M 300.5,119.5 C 308.288,137.031 313.955,155.197 317.5,174C 317.836,179.994 316.336,185.494 313,190.5C 309.514,195.305 305.347,199.305 300.5,202.5C 299.662,202.158 299.328,201.492 299.5,200.5C 302.476,197.698 305.642,195.031 309,192.5C 314.68,185.592 316.513,177.926 314.5,169.5C 310.328,152.992 304.995,136.825 298.5,121C 298.836,119.97 299.503,119.47 300.5,119.5 Z"/></g>
<g><path style="opacity:1" fill="#acaba9" d="M 227.5,138.5 C 230.273,139.657 233.273,140.324 236.5,140.5C 238.607,141.468 240.941,141.802 243.5,141.5C 242.391,142.29 241.058,142.79 239.5,143C 240.056,143.383 240.389,143.883 240.5,144.5C 232.418,142.653 224.418,140.486 216.5,138C 220.17,137.721 223.837,137.888 227.5,138.5 Z"/></g>
<g><path style="opacity:1" fill="#ece9e7" d="M 227.5,138.5 C 223.837,137.888 220.17,137.721 216.5,138C 224.418,140.486 232.418,142.653 240.5,144.5C 240.073,147.01 239.407,149.343 238.5,151.5C 237.778,151.082 237.278,150.416 237,149.5C 232.635,151.074 228.468,153.074 224.5,155.5C 223.798,159.317 223.131,163.15 222.5,167C 222.978,168.642 223.978,169.809 225.5,170.5C 227.104,171.287 227.771,172.62 227.5,174.5C 223.774,174.823 220.107,174.489 216.5,173.5C 213.853,171.395 210.853,170.061 207.5,169.5C 206.942,168.21 205.942,167.377 204.5,167C 199.316,166.184 194.316,166.35 189.5,167.5C 187.592,168.486 186.592,170.152 186.5,172.5C 185.031,175.1 184.031,174.767 183.5,171.5C 183.768,169.901 183.434,168.568 182.5,167.5C 185.707,156.332 189.374,145.332 193.5,134.5C 200.834,135.672 208.168,136.506 215.5,137C 211.4,135.559 207.4,134.059 203.5,132.5C 203.821,130.952 204.821,130.285 206.5,130.5C 206.5,131.5 206.5,132.5 206.5,133.5C 208.2,133.374 209.7,132.707 211,131.5C 212.826,132.01 212.993,132.844 211.5,134C 217.257,134.424 222.59,135.924 227.5,138.5 Z"/></g>
<g><path style="opacity:1" fill="#e8c7c9" d="M 257.5,141.5 C 258.756,141.904 259.923,142.571 261,143.5C 266.093,141.762 267.593,143.429 265.5,148.5C 263.078,151.56 260.078,153.893 256.5,155.5C 255.367,153.02 254.034,150.853 252.5,149C 252.093,145.241 253.76,143.741 257.5,144.5C 257.5,143.5 257.5,142.5 257.5,141.5 Z"/></g>
<g><path style="opacity:1" fill="#cf635f" d="M 286.5,149.5 C 290.311,148.355 294.311,148.188 298.5,149C 300.552,152.6 301.886,156.433 302.5,160.5C 302.822,166.358 302.489,172.025 301.5,177.5C 301.5,172.833 301.5,168.167 301.5,163.5C 302.101,152.642 297.101,147.976 286.5,149.5 Z"/></g>
<g><path style="opacity:1" fill="#c53637" d="M 286.5,149.5 C 297.101,147.976 302.101,152.642 301.5,163.5C 300.797,161.371 299.797,159.371 298.5,157.5C 298.408,155.152 297.408,153.486 295.5,152.5C 287.411,150.702 280.744,153.202 275.5,160C 269.912,161.289 264.245,161.789 258.5,161.5C 257.833,161.5 257.167,161.5 256.5,161.5C 256.833,160.5 257.5,159.833 258.5,159.5C 265.399,160.565 271.399,158.898 276.5,154.5C 279.46,152.244 282.793,150.578 286.5,149.5 Z"/></g>
<g><path style="opacity:1" fill="#f8e0e6" d="M 238.5,151.5 C 237.92,155.142 237.42,158.809 237,162.5C 237.603,157.784 235.769,154.784 231.5,153.5C 231.5,155.167 231.5,156.833 231.5,158.5C 229.5,158.167 227.5,157.833 225.5,157.5C 226.714,161.594 228.714,165.26 231.5,168.5C 229.865,169.681 228.198,169.681 226.5,168.5C 225.702,168.957 225.369,169.624 225.5,170.5C 223.978,169.809 222.978,168.642 222.5,167C 223.131,163.15 223.798,159.317 224.5,155.5C 228.468,153.074 232.635,151.074 237,149.5C 237.278,150.416 237.778,151.082 238.5,151.5 Z"/></g>
<g><path style="opacity:1" fill="#f9d4ce" d="M 303.5,149.5 C 303.263,150.791 303.596,151.791 304.5,152.5C 306.353,159.989 307.019,167.656 306.5,175.5C 306.167,175.5 305.833,175.5 305.5,175.5C 304.883,175.611 304.383,175.944 304,176.5C 303.827,170.984 303.327,165.651 302.5,160.5C 301.886,156.433 300.552,152.6 298.5,149C 294.311,148.188 290.311,148.355 286.5,149.5C 282.793,150.578 279.46,152.244 276.5,154.5C 275.391,154.557 274.391,154.89 273.5,155.5C 273.178,153.278 273.845,151.444 275.5,150C 278.709,149.122 281.709,147.789 284.5,146C 288.5,145.333 292.5,145.333 296.5,146C 299.152,147.065 300.985,148.898 302,151.5C 302.278,150.584 302.778,149.918 303.5,149.5 Z"/></g>
<g><path style="opacity:1" fill="#bbb0a8" d="M 197.5,131.5 C 199.435,132.15 201.435,132.483 203.5,132.5C 207.4,134.059 211.4,135.559 215.5,137C 208.168,136.506 200.834,135.672 193.5,134.5C 189.374,145.332 185.707,156.332 182.5,167.5C 181.391,167.557 180.391,167.89 179.5,168.5C 179.5,167.833 179.167,167.5 178.5,167.5C 182.298,156.106 186.298,144.773 190.5,133.5C 193.388,134.01 195.721,133.344 197.5,131.5 Z"/></g>
<g><path style="opacity:1" fill="#8a5646" d="M 311.5,167.5 C 310.425,166.438 309.425,166.438 308.5,167.5C 307.92,170.311 307.254,172.977 306.5,175.5C 307.019,167.656 306.353,159.989 304.5,152.5C 304.415,151.005 305.081,150.005 306.5,149.5C 309.377,155.136 311.044,161.136 311.5,167.5 Z"/></g>
<g><path style="opacity:1" fill="#e2918c" d="M 189.5,167.5 C 194.316,166.35 199.316,166.184 204.5,167C 205.942,167.377 206.942,168.21 207.5,169.5C 201.654,167.767 195.654,167.1 189.5,167.5 Z"/></g>
<g><path style="opacity:1" fill="#dbaaa0" d="M 252.5,156.5 C 257.193,156.436 261.859,156.769 266.5,157.5C 268.924,156.979 271.257,156.312 273.5,155.5C 274.391,154.89 275.391,154.557 276.5,154.5C 271.399,158.898 265.399,160.565 258.5,159.5C 258.389,158.883 258.056,158.383 257.5,158C 255.527,157.505 253.527,157.338 251.5,157.5C 252.656,165.614 254.323,173.614 256.5,181.5C 255.604,180.494 254.938,180.494 254.5,181.5C 251.493,173.198 249.493,164.532 248.5,155.5C 249.825,156.953 250.658,156.619 251,154.5C 251.278,155.416 251.778,156.082 252.5,156.5 Z"/></g>
<g><path style="opacity:1" fill="#e31813" d="M 295.5,152.5 C 297.408,153.486 298.408,155.152 298.5,157.5C 299.267,161.305 299.933,165.139 300.5,169C 299.959,173.574 298.626,177.74 296.5,181.5C 295.518,182.141 294.518,182.807 293.5,183.5C 292.614,182.675 292.281,181.675 292.5,180.5C 289.221,181.031 287.887,183.031 288.5,186.5C 282.499,187.643 276.499,187.643 270.5,186.5C 268.432,183.843 267.099,180.843 266.5,177.5C 264.578,176.289 262.745,174.956 261,173.5C 260.67,170.511 259.836,167.678 258.5,165C 258.645,164.228 258.978,163.561 259.5,163C 269.609,164.303 278.275,161.303 285.5,154C 288.726,152.801 292.059,152.301 295.5,152.5 Z"/></g>
<g><path style="opacity:1" fill="#e2c1ba" d="M 240.5,144.5 C 241.5,144.5 242.5,144.5 243.5,144.5C 241.72,161.699 238.887,178.699 235,195.5C 233.804,201.554 231.304,206.887 227.5,211.5C 227.53,210.503 227.03,209.836 226,209.5C 224.234,210.233 222.401,210.567 220.5,210.5C 230.787,203.394 235.787,193.394 235.5,180.5C 236.629,178.372 236.796,176.039 236,173.5C 233.323,175.041 230.49,176.041 227.5,176.5C 222.118,177.02 217.118,176.02 212.5,173.5C 210.251,172.92 208.585,171.587 207.5,169.5C 210.853,170.061 213.853,171.395 216.5,173.5C 220.107,174.489 223.774,174.823 227.5,174.5C 227.771,172.62 227.104,171.287 225.5,170.5C 225.369,169.624 225.702,168.957 226.5,168.5C 228.198,169.681 229.865,169.681 231.5,168.5C 228.714,165.26 226.714,161.594 225.5,157.5C 227.5,157.833 229.5,158.167 231.5,158.5C 231.5,156.833 231.5,155.167 231.5,153.5C 235.769,154.784 237.603,157.784 237,162.5C 237.42,158.809 237.92,155.142 238.5,151.5C 239.407,149.343 240.073,147.01 240.5,144.5 Z"/></g>
<g><path style="opacity:1" fill="#ad261b" d="M 298.5,157.5 C 299.797,159.371 300.797,161.371 301.5,163.5C 301.5,168.167 301.5,172.833 301.5,177.5C 301.25,179.674 300.25,181.341 298.5,182.5C 297.784,184.556 297.117,186.723 296.5,189C 288.282,191.473 279.949,192.306 271.5,191.5C 268.596,188.919 265.263,187.252 261.5,186.5C 259.667,180.168 257.834,173.834 256,167.5C 255.211,165.288 255.378,163.288 256.5,161.5C 257.167,161.5 257.833,161.5 258.5,161.5C 257.982,162.577 257.648,163.744 257.5,165C 258.711,168.052 259.545,171.219 260,174.5C 262.185,175.928 264.185,177.595 266,179.5C 265.805,184.996 268.305,188.163 273.5,189C 277.167,189.667 280.833,189.667 284.5,189C 288.031,187.411 291.698,186.245 295.5,185.5C 296.246,184.264 296.579,182.93 296.5,181.5C 298.626,177.74 299.959,173.574 300.5,169C 299.933,165.139 299.267,161.305 298.5,157.5 Z"/></g>
<g><path style="opacity:1" fill="#e38b81" d="M 212.5,173.5 C 217.118,176.02 222.118,177.02 227.5,176.5C 224.038,177.482 220.371,177.815 216.5,177.5C 214.861,176.527 213.527,175.194 212.5,173.5 Z"/></g>
<g><path style="opacity:1" fill="#a76f63" d="M 235.5,180.5 C 235.5,179.167 235.5,177.833 235.5,176.5C 234.167,176.5 232.833,176.5 231.5,176.5C 230.167,176.5 228.833,176.5 227.5,176.5C 230.49,176.041 233.323,175.041 236,173.5C 236.796,176.039 236.629,178.372 235.5,180.5 Z"/></g>
<g><path style="opacity:1" fill="#826f68" d="M 197.5,131.5 C 195.721,133.344 193.388,134.01 190.5,133.5C 186.298,144.773 182.298,156.106 178.5,167.5C 173.478,178.602 171.811,190.269 173.5,202.5C 173.5,203.167 173.167,203.5 172.5,203.5C 171.732,202.737 171.232,201.737 171,200.5C 170.333,195.5 170.333,190.5 171,185.5C 175.64,166.92 181.807,148.92 189.5,131.5C 192.044,131.051 194.71,131.051 197.5,131.5 Z"/></g>
<g><path style="opacity:1" fill="#eda99c" d="M 302.5,160.5 C 303.327,165.651 303.827,170.984 304,176.5C 304.383,175.944 304.883,175.611 305.5,175.5C 304.324,179.339 302.324,182.673 299.5,185.5C 298.614,184.675 298.281,183.675 298.5,182.5C 300.25,181.341 301.25,179.674 301.5,177.5C 302.489,172.025 302.822,166.358 302.5,160.5 Z"/></g>
<g><path style="opacity:1" fill="#e9b1a6" d="M 183.5,171.5 C 184.031,174.767 185.031,175.1 186.5,172.5C 186.771,174.38 186.104,175.713 184.5,176.5C 183.528,175.249 182.861,175.582 182.5,177.5C 181.073,182.558 181.24,187.558 183,192.5C 183.174,187.316 183.674,182.316 184.5,177.5C 183.521,185.976 184.854,193.976 188.5,201.5C 188.158,202.338 187.492,202.672 186.5,202.5C 180.791,194.802 178.958,186.135 181,176.5C 181.05,174.256 181.883,172.589 183.5,171.5 Z"/></g>
<g><path style="opacity:1" fill="#feddd2" d="M 184.5,176.5 C 184.5,176.833 184.5,177.167 184.5,177.5C 183.674,182.316 183.174,187.316 183,192.5C 181.24,187.558 181.073,182.558 182.5,177.5C 182.861,175.582 183.528,175.249 184.5,176.5 Z"/></g>
<g><path style="opacity:1" fill="#efe6e5" d="M 258.5,195.5 C 256.088,195.244 254.421,196.244 253.5,198.5C 249.905,190.801 248.238,182.801 248.5,174.5C 247.5,172.5 246.5,170.5 245.5,168.5C 245.533,171.899 245.367,175.565 245,179.5C 243.697,180.112 242.53,180.446 241.5,180.5C 242.42,182.786 242.42,185.119 241.5,187.5C 244.613,187.065 245.279,188.065 243.5,190.5C 243.167,191.167 242.833,191.833 242.5,192.5C 241.28,191.289 240.113,191.289 239,192.5C 238.289,194.899 238.456,197.232 239.5,199.5C 238.234,200.362 236.901,201.029 235.5,201.5C 238.988,185.895 242.154,170.228 245,154.5C 248.102,163.911 250.436,173.578 252,183.5C 253.402,187.975 255.569,191.975 258.5,195.5 Z"/></g>
<g><path style="opacity:1" fill="#c91e19" d="M 295.5,152.5 C 292.059,152.301 288.726,152.801 285.5,154C 278.275,161.303 269.609,164.303 259.5,163C 258.978,163.561 258.645,164.228 258.5,165C 259.836,167.678 260.67,170.511 261,173.5C 262.745,174.956 264.578,176.289 266.5,177.5C 267.099,180.843 268.432,183.843 270.5,186.5C 276.499,187.643 282.499,187.643 288.5,186.5C 287.887,183.031 289.221,181.031 292.5,180.5C 292.281,181.675 292.614,182.675 293.5,183.5C 294.518,182.807 295.518,182.141 296.5,181.5C 296.579,182.93 296.246,184.264 295.5,185.5C 291.698,186.245 288.031,187.411 284.5,189C 280.833,189.667 277.167,189.667 273.5,189C 268.305,188.163 265.805,184.996 266,179.5C 264.185,177.595 262.185,175.928 260,174.5C 259.545,171.219 258.711,168.052 257.5,165C 257.648,163.744 257.982,162.577 258.5,161.5C 264.245,161.789 269.912,161.289 275.5,160C 280.744,153.202 287.411,150.702 295.5,152.5 Z"/></g>
<g><path style="opacity:1" fill="#864238" d="M 182.5,167.5 C 183.434,168.568 183.768,169.901 183.5,171.5C 181.883,172.589 181.05,174.256 181,176.5C 178.958,186.135 180.791,194.802 186.5,202.5C 186.5,203.833 186.5,205.167 186.5,206.5C 182.874,204.541 179.874,201.874 177.5,198.5C 176.122,194.999 175.455,191.332 175.5,187.5C 176.358,181.067 177.691,174.734 179.5,168.5C 180.391,167.89 181.391,167.557 182.5,167.5 Z"/></g>
<g><path style="opacity:1" fill="#8a3b30" d="M 258.5,159.5 C 257.5,159.833 256.833,160.5 256.5,161.5C 255.378,163.288 255.211,165.288 256,167.5C 257.834,173.834 259.667,180.168 261.5,186.5C 265.263,187.252 268.596,188.919 271.5,191.5C 279.949,192.306 288.282,191.473 296.5,189C 297.117,186.723 297.784,184.556 298.5,182.5C 298.281,183.675 298.614,184.675 299.5,185.5C 302.324,182.673 304.324,179.339 305.5,175.5C 305.833,175.5 306.167,175.5 306.5,175.5C 307.254,172.977 307.92,170.311 308.5,167.5C 309.425,166.438 310.425,166.438 311.5,167.5C 311.693,171.566 311.36,175.566 310.5,179.5C 309.833,180.5 309.167,181.5 308.5,182.5C 295.886,194.525 281.219,197.691 264.5,192C 260.975,189.099 258.308,185.599 256.5,181.5C 254.323,173.614 252.656,165.614 251.5,157.5C 253.527,157.338 255.527,157.505 257.5,158C 258.056,158.383 258.389,158.883 258.5,159.5 Z"/></g>
<g><path style="opacity:1" fill="#f6f6f5" d="M 182.5,312.5 C 183.675,312.719 184.675,312.386 185.5,311.5C 182.067,309.584 180.067,306.75 179.5,303C 184.757,282.139 190.09,261.306 195.5,240.5C 196.863,236.368 197.863,232.035 198.5,227.5C 205.046,224.53 211.713,221.864 218.5,219.5C 226.837,216.16 232.503,210.16 235.5,201.5C 236.901,201.029 238.234,200.362 239.5,199.5C 238.456,197.232 238.289,194.899 239,192.5C 240.113,191.289 241.28,191.289 242.5,192.5C 242.833,191.833 243.167,191.167 243.5,190.5C 245.279,188.065 244.613,187.065 241.5,187.5C 242.42,185.119 242.42,182.786 241.5,180.5C 242.53,180.446 243.697,180.112 245,179.5C 245.367,175.565 245.533,171.899 245.5,168.5C 246.5,170.5 247.5,172.5 248.5,174.5C 248.238,182.801 249.905,190.801 253.5,198.5C 254.421,196.244 256.088,195.244 258.5,195.5C 262.953,200.06 268.286,203.06 274.5,204.5C 276.969,205.317 279.635,205.817 282.5,206C 284.388,208.19 286.555,210.023 289,211.5C 290.242,215.593 291.409,219.593 292.5,223.5C 298.074,244.347 303.407,265.347 308.5,286.5C 308.285,289.384 306.785,291.384 304,292.5C 300.834,293.167 298,294.5 295.5,296.5C 291.862,297.182 288.195,297.682 284.5,298C 284.043,298.414 283.709,298.914 283.5,299.5C 284.5,299.833 285.5,300.167 286.5,300.5C 296.593,297.553 306.926,295.387 317.5,294C 325.919,291.925 334.253,289.425 342.5,286.5C 341.833,286.167 341.167,285.833 340.5,285.5C 333.585,287.25 326.585,287.75 319.5,287C 318.667,286.167 317.833,285.333 317,284.5C 312.845,265.853 308.012,247.52 302.5,229.5C 301.232,222.929 299.565,216.429 297.5,210C 298.593,207.558 299.593,205.058 300.5,202.5C 305.347,199.305 309.514,195.305 313,190.5C 316.336,185.494 317.836,179.994 317.5,174C 313.955,155.197 308.288,137.031 300.5,119.5C 301.376,119.631 302.043,119.298 302.5,118.5C 301.41,117.391 301.41,116.391 302.5,115.5C 306.738,119.036 311.405,120.036 316.5,118.5C 321.994,119.854 327.661,120.687 333.5,121C 338.024,123.167 340.858,126.667 342,131.5C 342.667,181.5 342.667,231.5 342,281.5C 341.5,282 341,282.5 340.5,283C 345.258,285.054 345.591,287.887 341.5,291.5C 342.593,295.108 342.76,298.775 342,302.5C 338.819,304.686 335.985,307.186 333.5,310C 329.833,310.333 326.167,310.667 322.5,311C 278.125,311.172 233.792,311.672 189.5,312.5C 188.914,312.291 188.414,311.957 188,311.5C 186.38,313.632 184.546,313.965 182.5,312.5 Z"/></g>
<g><path style="opacity:1" fill="#c34236" d="M 189.5,167.5 C 188.522,172.808 187.522,178.141 186.5,183.5C 187.246,189.559 188.246,195.559 189.5,201.5C 189.167,201.5 188.833,201.5 188.5,201.5C 184.854,193.976 183.521,185.976 184.5,177.5C 184.5,177.167 184.5,176.833 184.5,176.5C 186.104,175.713 186.771,174.38 186.5,172.5C 186.592,170.152 187.592,168.486 189.5,167.5 Z"/></g>
<g><path style="opacity:1" fill="#e9d0c7" d="M 256.5,181.5 C 258.308,185.599 260.975,189.099 264.5,192C 281.219,197.691 295.886,194.525 308.5,182.5C 307.457,185.056 305.79,187.223 303.5,189C 304.056,189.383 304.389,189.883 304.5,190.5C 294.77,195.575 284.437,197.908 273.5,197.5C 270.909,195.543 268.409,195.543 266,197.5C 265.329,196.748 264.496,196.414 263.5,196.5C 258.209,192.925 255.209,187.925 254.5,181.5C 254.938,180.494 255.604,180.494 256.5,181.5 Z"/></g>
<g><path style="opacity:1" fill="#e2beb5" d="M 178.5,167.5 C 179.167,167.5 179.5,167.833 179.5,168.5C 177.691,174.734 176.358,181.067 175.5,187.5C 175.455,191.332 176.122,194.999 177.5,198.5C 176.5,198.5 175.5,198.5 174.5,198.5C 174.5,199.833 174.5,201.167 174.5,202.5C 174.167,202.5 173.833,202.5 173.5,202.5C 171.811,190.269 173.478,178.602 178.5,167.5 Z"/></g>
<g><path style="opacity:1" fill="#bab6b2" d="M 304.5,190.5 C 306.379,190.393 306.712,190.893 305.5,192C 302.364,194.541 299.031,196.541 295.5,198C 290.47,198.675 285.47,199.508 280.5,200.5C 277.002,200.292 273.669,199.459 270.5,198C 271.448,197.517 272.448,197.351 273.5,197.5C 284.437,197.908 294.77,195.575 304.5,190.5 Z"/></g>
<g><path style="opacity:1" fill="#dfdad8" d="M 314.5,169.5 C 316.513,177.926 314.68,185.592 309,192.5C 305.642,195.031 302.476,197.698 299.5,200.5C 293.855,201.953 287.855,202.953 281.5,203.5C 274.297,203.882 268.297,201.549 263.5,196.5C 264.496,196.414 265.329,196.748 266,197.5C 268.409,195.543 270.909,195.543 273.5,197.5C 272.448,197.351 271.448,197.517 270.5,198C 273.669,199.459 277.002,200.292 280.5,200.5C 285.47,199.508 290.47,198.675 295.5,198C 299.031,196.541 302.364,194.541 305.5,192C 306.712,190.893 306.379,190.393 304.5,190.5C 304.389,189.883 304.056,189.383 303.5,189C 305.79,187.223 307.457,185.056 308.5,182.5C 309.167,181.5 309.833,180.5 310.5,179.5C 311.117,179.389 311.617,179.056 312,178.5C 312.841,175.372 313.675,172.372 314.5,169.5 Z"/></g>
<g><path style="opacity:1" fill="#c72520" d="M 189.5,167.5 C 195.654,167.1 201.654,167.767 207.5,169.5C 208.585,171.587 210.251,172.92 212.5,173.5C 213.527,175.194 214.861,176.527 216.5,177.5C 221.233,178.19 226.066,178.856 231,179.5C 231.667,181.833 231.667,184.167 231,186.5C 229.584,188.411 228.75,190.578 228.5,193C 225.187,195.94 222.854,199.606 221.5,204C 210.329,207.941 199.663,207.108 189.5,201.5C 188.246,195.559 187.246,189.559 186.5,183.5C 187.522,178.141 188.522,172.808 189.5,167.5 Z"/></g>
<g><path style="opacity:1" fill="#e41b0e" d="M 191.5,168.5 C 194.572,168.183 197.572,168.516 200.5,169.5C 208.407,178.718 218.24,182.384 230,180.5C 230.667,182.167 230.667,183.833 230,185.5C 228.702,186.56 227.535,187.726 226.5,189C 224.877,193.588 222.877,197.921 220.5,202C 214.126,203.355 207.459,203.689 200.5,203C 197.774,201.312 194.941,199.812 192,198.5C 189.938,193.65 188.438,188.65 187.5,183.5C 188.837,178.491 190.17,173.491 191.5,168.5 Z"/></g>
<g><path style="opacity:1" fill="#c7c3c0" d="M 299.5,200.5 C 299.328,201.492 299.662,202.158 300.5,202.5C 299.593,205.058 298.593,207.558 297.5,210C 299.565,216.429 301.232,222.929 302.5,229.5C 301.833,229.5 301.5,229.833 301.5,230.5C 300.883,230.389 300.383,230.056 300,229.5C 298.393,222.182 296.893,214.849 295.5,207.5C 294.158,209.005 292.492,209.672 290.5,209.5C 292.291,213.656 293.624,217.989 294.5,222.5C 293.033,219.742 292.367,220.075 292.5,223.5C 291.409,219.593 290.242,215.593 289,211.5C 286.555,210.023 284.388,208.19 282.5,206C 279.635,205.817 276.969,205.317 274.5,204.5C 277.059,204.802 279.393,204.468 281.5,203.5C 287.855,202.953 293.855,201.953 299.5,200.5 Z"/></g>
<g><path style="opacity:1" fill="#a4291e" d="M 227.5,176.5 C 228.833,176.5 230.167,176.5 231.5,176.5C 232.924,178.725 233.591,181.225 233.5,184C 232.259,188.194 231.259,192.528 230.5,197C 228.135,200.038 225.468,202.871 222.5,205.5C 219.702,206.969 216.702,207.802 213.5,208C 206.482,208.565 199.482,208.399 192.5,207.5C 191.956,205.284 190.956,203.284 189.5,201.5C 199.663,207.108 210.329,207.941 221.5,204C 222.854,199.606 225.187,195.94 228.5,193C 228.75,190.578 229.584,188.411 231,186.5C 231.667,184.167 231.667,181.833 231,179.5C 226.066,178.856 221.233,178.19 216.5,177.5C 220.371,177.815 224.038,177.482 227.5,176.5 Z"/></g>
<g><path style="opacity:1" fill="#8d3c2d" d="M 231.5,176.5 C 232.833,176.5 234.167,176.5 235.5,176.5C 235.5,177.833 235.5,179.167 235.5,180.5C 235.787,193.394 230.787,203.394 220.5,210.5C 211.873,213.088 203.206,213.088 194.5,210.5C 191.079,210.482 188.412,209.149 186.5,206.5C 186.5,205.167 186.5,203.833 186.5,202.5C 187.492,202.672 188.158,202.338 188.5,201.5C 188.833,201.5 189.167,201.5 189.5,201.5C 190.956,203.284 191.956,205.284 192.5,207.5C 199.482,208.399 206.482,208.565 213.5,208C 216.702,207.802 219.702,206.969 222.5,205.5C 225.468,202.871 228.135,200.038 230.5,197C 231.259,192.528 232.259,188.194 233.5,184C 233.591,181.225 232.924,178.725 231.5,176.5 Z"/></g>
<g><path style="opacity:1" fill="#d7c4c2" d="M 194.5,210.5 C 203.206,213.088 211.873,213.088 220.5,210.5C 222.401,210.567 224.234,210.233 226,209.5C 227.03,209.836 227.53,210.503 227.5,211.5C 225.833,212.833 224.167,214.167 222.5,215.5C 221.85,215.196 221.183,214.863 220.5,214.5C 218.333,215.948 216,217.115 213.5,218C 200.753,220.356 189.753,217.19 180.5,208.5C 180.833,208.167 181.167,207.833 181.5,207.5C 185.629,209.879 189.963,211.879 194.5,213.5C 195.562,212.575 195.562,211.575 194.5,210.5 Z"/></g>
<g><path style="opacity:1" fill="#9c9793" d="M 173.5,202.5 C 173.833,202.5 174.167,202.5 174.5,202.5C 175.653,204.807 176.82,207.14 178,209.5C 181.692,212.365 185.192,215.365 188.5,218.5C 188.672,219.492 188.338,220.158 187.5,220.5C 183.645,217.302 179.812,213.969 176,210.5C 174.295,208.423 173.128,206.09 172.5,203.5C 173.167,203.5 173.5,203.167 173.5,202.5 Z"/></g>
<g><path style="opacity:1" fill="#e6ded9" d="M 177.5,198.5 C 179.874,201.874 182.874,204.541 186.5,206.5C 188.412,209.149 191.079,210.482 194.5,210.5C 195.562,211.575 195.562,212.575 194.5,213.5C 189.963,211.879 185.629,209.879 181.5,207.5C 181.167,207.833 180.833,208.167 180.5,208.5C 189.753,217.19 200.753,220.356 213.5,218C 216,217.115 218.333,215.948 220.5,214.5C 221.183,214.863 221.85,215.196 222.5,215.5C 221.167,216.5 219.833,217.5 218.5,218.5C 213.774,219.864 208.941,220.864 204,221.5C 198.526,220.613 193.359,219.613 188.5,218.5C 185.192,215.365 181.692,212.365 178,209.5C 176.82,207.14 175.653,204.807 174.5,202.5C 174.5,201.167 174.5,199.833 174.5,198.5C 175.5,198.5 176.5,198.5 177.5,198.5 Z"/></g>
<g><path style="opacity:1" fill="#c8c6c1" d="M 188.5,218.5 C 193.359,219.613 198.526,220.613 204,221.5C 208.941,220.864 213.774,219.864 218.5,218.5C 218.5,218.833 218.5,219.167 218.5,219.5C 211.713,221.864 205.046,224.53 198.5,227.5C 197.863,232.035 196.863,236.368 195.5,240.5C 195.649,239.448 195.483,238.448 195,237.5C 194.768,238.737 194.268,239.737 193.5,240.5C 193.755,235.956 194.755,231.623 196.5,227.5C 195.07,227.579 193.736,227.246 192.5,226.5C 191.454,231.368 190.12,236.035 188.5,240.5C 188.715,238.821 188.048,237.821 186.5,237.5C 187.771,233.998 189.104,230.498 190.5,227C 189.211,224.965 188.211,222.799 187.5,220.5C 188.338,220.158 188.672,219.492 188.5,218.5 Z"/></g>
<g><path style="opacity:1" fill="#eae4e0" d="M 301.5,230.5 C 306.046,249.241 310.713,267.908 315.5,286.5C 314.167,286.5 312.833,286.5 311.5,286.5C 311.5,287.5 311.5,288.5 311.5,289.5C 314.92,288.189 318.253,288.356 321.5,290C 317.203,291.67 312.87,292.17 308.5,291.5C 310.436,288.792 310.936,285.792 310,282.5C 303.919,262.845 298.752,242.845 294.5,222.5C 293.624,217.989 292.291,213.656 290.5,209.5C 292.492,209.672 294.158,209.005 295.5,207.5C 296.893,214.849 298.393,222.182 300,229.5C 300.383,230.056 300.883,230.389 301.5,230.5 Z"/></g>
<g><path style="opacity:1" fill="#ada6a4" d="M 186.5,237.5 C 188.048,237.821 188.715,238.821 188.5,240.5C 184.333,258.652 179.666,276.652 174.5,294.5C 173.571,293.311 173.238,291.978 173.5,290.5C 178.212,272.944 182.545,255.278 186.5,237.5 Z"/></g>
<g><path style="opacity:1" fill="#aca7a5" d="M 195.5,240.5 C 190.09,261.306 184.757,282.139 179.5,303C 180.067,306.75 182.067,309.584 185.5,311.5C 184.675,312.386 183.675,312.719 182.5,312.5C 182.5,311.833 182.167,311.5 181.5,311.5C 180.269,310.282 179.102,308.949 178,307.5C 177.575,303.131 177.908,298.797 179,294.5C 183.776,276.441 188.609,258.441 193.5,240.5C 194.268,239.737 194.768,238.737 195,237.5C 195.483,238.448 195.649,239.448 195.5,240.5 Z"/></g>
<g><path style="opacity:1" fill="#e8e1df" d="M 193.5,240.5 C 188.609,258.441 183.776,276.441 179,294.5C 177.908,298.797 177.575,303.131 178,307.5C 179.102,308.949 180.269,310.282 181.5,311.5C 179.708,311.366 178.042,311.699 176.5,312.5C 176.423,311.25 175.756,310.417 174.5,310C 171.629,309.882 168.962,309.216 166.5,308C 169.103,305.477 172.103,304.81 175.5,306C 174.01,305.255 173.01,304.088 172.5,302.5C 173.396,300.199 173.562,297.866 173,295.5C 172.617,296.056 172.117,296.389 171.5,296.5C 171.875,294.302 172.542,292.302 173.5,290.5C 173.238,291.978 173.571,293.311 174.5,294.5C 179.666,276.652 184.333,258.652 188.5,240.5C 190.12,236.035 191.454,231.368 192.5,226.5C 193.736,227.246 195.07,227.579 196.5,227.5C 194.755,231.623 193.755,235.956 193.5,240.5 Z"/></g>
<g><path style="opacity:1" fill="#ada7a3" d="M 294.5,222.5 C 298.752,242.845 303.919,262.845 310,282.5C 310.936,285.792 310.436,288.792 308.5,291.5C 312.87,292.17 317.203,291.67 321.5,290C 318.253,288.356 314.92,288.189 311.5,289.5C 311.5,288.5 311.5,287.5 311.5,286.5C 312.833,286.5 314.167,286.5 315.5,286.5C 310.713,267.908 306.046,249.241 301.5,230.5C 301.5,229.833 301.833,229.5 302.5,229.5C 308.012,247.52 312.845,265.853 317,284.5C 317.833,285.333 318.667,286.167 319.5,287C 326.585,287.75 333.585,287.25 340.5,285.5C 341.167,285.833 341.833,286.167 342.5,286.5C 334.253,289.425 325.919,291.925 317.5,294C 306.926,295.387 296.593,297.553 286.5,300.5C 285.5,300.167 284.5,299.833 283.5,299.5C 283.709,298.914 284.043,298.414 284.5,298C 288.195,297.682 291.862,297.182 295.5,296.5C 298,294.5 300.834,293.167 304,292.5C 306.785,291.384 308.285,289.384 308.5,286.5C 303.407,265.347 298.074,244.347 292.5,223.5C 292.367,220.075 293.033,219.742 294.5,222.5 Z"/></g>
<g><path style="opacity:1" fill="#aaa6a4" d="M 176.5,312.5 C 172.865,311.886 169.198,311.552 165.5,311.5C 165.389,310.883 165.056,310.383 164.5,310C 158.524,309.063 152.857,307.23 147.5,304.5C 148,304.167 148.5,303.833 149,303.5C 154.939,305.55 161.105,306.05 167.5,305C 170.246,302.885 171.579,300.052 171.5,296.5C 172.117,296.389 172.617,296.056 173,295.5C 173.562,297.866 173.396,300.199 172.5,302.5C 173.01,304.088 174.01,305.255 175.5,306C 172.103,304.81 169.103,305.477 166.5,308C 168.962,309.216 171.629,309.882 174.5,310C 175.756,310.417 176.423,311.25 176.5,312.5 Z"/></g>
<g><path style="opacity:1" fill="#f2c6c4" d="M 148.5,313.5 C 148.833,313.5 149.167,313.5 149.5,313.5C 150.492,313.328 151.158,313.662 151.5,314.5C 149.524,324.781 148.857,335.448 149.5,346.5C 148.505,335.679 148.172,324.679 148.5,313.5 Z"/></g>
<g><path style="opacity:1" fill="#e66e69" d="M 301.5,344.5 C 300.67,335.342 300.17,326.009 300,316.5C 299.5,326.494 299.334,336.494 299.5,346.5C 298.506,336.347 298.172,326.014 298.5,315.5C 299.5,315.5 300.5,315.5 301.5,315.5C 301.5,325.167 301.5,334.833 301.5,344.5 Z"/></g>
<g><path style="opacity:1" fill="#dc2017" d="M 301.5,344.5 C 307.206,344.171 312.872,344.505 318.5,345.5C 312.202,346.496 305.868,346.83 299.5,346.5C 299.334,336.494 299.5,326.494 300,316.5C 300.17,326.009 300.67,335.342 301.5,344.5 Z"/></g>
<g><path style="opacity:1" fill="#de3127" d="M 132.5,346.5 C 132.5,336.833 132.5,327.167 132.5,317.5C 128.833,317.5 125.167,317.5 121.5,317.5C 125.107,316.176 129.107,315.509 133.5,315.5C 137.5,315.833 141.5,316.167 145.5,316.5C 141.893,317.489 138.226,317.823 134.5,317.5C 135.14,327.558 134.473,337.225 132.5,346.5 Z"/></g>
<g><path style="opacity:1" fill="#edaaa7" d="M 121.5,317.5 C 125.167,317.5 128.833,317.5 132.5,317.5C 132.5,327.167 132.5,336.833 132.5,346.5C 131.506,337.348 131.173,328.015 131.5,318.5C 127.958,318.813 124.625,318.479 121.5,317.5 Z"/></g>
<g><path style="opacity:1" fill="#e34e41" d="M 204.5,323.5 C 205.596,327.322 207.263,327.488 209.5,324C 210.944,323.219 212.277,323.386 213.5,324.5C 210.308,325.366 207.641,327.032 205.5,329.5C 204.539,327.735 204.205,325.735 204.5,323.5 Z"/></g>
<g><path style="opacity:1" fill="#dd3423" d="M 204.5,323.5 C 204.205,325.735 204.539,327.735 205.5,329.5C 205.829,335.206 205.495,340.872 204.5,346.5C 203.18,338.677 203.18,331.01 204.5,323.5 Z"/></g>
<g><path style="opacity:1" fill="#de3328" d="M 151.5,314.5 C 151.334,318.846 151.501,323.179 152,327.5C 156.121,323.185 160.955,322.351 166.5,325C 167.701,325.903 168.535,327.069 169,328.5C 169.83,334.528 169.664,340.528 168.5,346.5C 167.92,340.087 167.087,333.753 166,327.5C 163.083,325.607 159.916,325.107 156.5,326C 154.333,326.833 152.833,328.333 152,330.5C 152.122,336.26 151.289,341.593 149.5,346.5C 148.857,335.448 149.524,324.781 151.5,314.5 Z"/></g>
<g><path style="opacity:1" fill="#df382c" d="M 244.5,323.5 C 247.85,323.335 251.183,323.502 254.5,324C 255.672,324.419 256.672,325.085 257.5,326C 253.53,325.674 249.53,325.674 245.5,326C 242.833,328.333 242.833,330.667 245.5,333C 249.737,333.943 253.737,335.443 257.5,337.5C 259.294,341.747 257.961,344.581 253.5,346C 248.725,347.159 244.392,346.326 240.5,343.5C 241.79,342.592 243.123,342.759 244.5,344C 247.5,344.667 250.5,344.667 253.5,344C 256.993,342.522 257.326,340.522 254.5,338C 251.27,336.692 247.936,335.692 244.5,335C 240.555,331.169 240.555,327.336 244.5,323.5 Z"/></g>
<g><path style="opacity:1" fill="#df372c" d="M 183.5,323.5 C 192.158,322.824 196.825,326.824 197.5,335.5C 190.833,335.5 184.167,335.5 177.5,335.5C 177.724,339.562 179.724,342.395 183.5,344C 187.65,344.498 191.65,344.164 195.5,343C 188.911,348.009 182.744,347.509 177,341.5C 173.426,333.24 175.593,327.24 183.5,323.5 Z"/></g>
<g><path style="opacity:1" fill="#e97873" d="M 194.5,331.5 C 195.404,332.209 195.737,333.209 195.5,334.5C 189.31,334.823 183.31,334.49 177.5,333.5C 183.598,334.117 189.265,333.45 194.5,331.5 Z"/></g>
<g><path style="opacity:1" fill="#fbf8f7" d="M 194.5,331.5 C 189.265,333.45 183.598,334.117 177.5,333.5C 179.512,325.662 184.179,323.495 191.5,327C 193.141,328.129 194.141,329.629 194.5,331.5 Z"/></g>
<g><path style="opacity:1" fill="#e03d31" d="M 222.5,323.5 C 231.776,322.462 236.776,326.462 237.5,335.5C 231.167,335.5 224.833,335.5 218.5,335.5C 220.524,344.635 225.857,346.969 234.5,342.5C 234.833,342.833 235.167,343.167 235.5,343.5C 229.029,347.962 223.195,347.295 218,341.5C 214.88,334.193 216.38,328.193 222.5,323.5 Z"/></g>
<g><path style="opacity:1" fill="#faf4f4" d="M 223.5,325.5 C 230.319,324.227 234.319,326.894 235.5,333.5C 229.833,333.5 224.167,333.5 218.5,333.5C 218.536,329.8 220.203,327.133 223.5,325.5 Z"/></g>
<g><path style="opacity:1" fill="#e03c30" d="M 326.5,323.5 C 336.155,322.12 341.155,326.12 341.5,335.5C 335.167,335.5 328.833,335.5 322.5,335.5C 322.622,339.147 324.288,341.981 327.5,344C 331.988,344.56 336.321,344.227 340.5,343C 333.878,348.068 327.712,347.568 322,341.5C 318.996,334.323 320.496,328.323 326.5,323.5 Z"/></g>
<g><path style="opacity:1" fill="#faf3f3" d="M 327.5,325.5 C 334.379,324.251 338.379,326.918 339.5,333.5C 333.833,333.5 328.167,333.5 322.5,333.5C 322.667,329.821 324.334,327.154 327.5,325.5 Z"/></g>
<g><path style="opacity:1" fill="#de3328" d="M 351.5,323.5 C 357.898,322.053 362.731,324.053 366,329.5C 366.495,331.473 366.662,333.473 366.5,335.5C 360.167,335.5 353.833,335.5 347.5,335.5C 347.738,339.138 349.404,341.971 352.5,344C 356.988,344.56 361.321,344.227 365.5,343C 358.911,348.009 352.744,347.509 347,341.5C 343.996,334.323 345.496,328.323 351.5,323.5 Z"/></g>
<g><path style="opacity:1" fill="#e97570" d="M 364.5,332.5 C 365.043,332.56 365.376,332.893 365.5,333.5C 359.346,334.817 353.346,334.817 347.5,333.5C 353.358,333.822 359.025,333.489 364.5,332.5 Z"/></g>
<g><path style="opacity:1" fill="#fbf7f6" d="M 364.5,332.5 C 359.025,333.489 353.358,333.822 347.5,333.5C 349.372,325.733 354.039,323.566 361.5,327C 363.607,328.264 364.607,330.097 364.5,332.5 Z"/></g>
<g><path style="opacity:1" fill="#e14133" d="M 267.5,323.5 C 272.334,322.59 276.334,323.923 279.5,327.5C 280.794,333.808 280.794,340.141 279.5,346.5C 278.833,345.5 278.167,344.5 277.5,343.5C 273.156,346.793 268.489,347.293 263.5,345C 260.575,341.304 260.908,337.971 264.5,335C 268.7,333.633 273.033,333.133 277.5,333.5C 277.662,331.473 277.495,329.473 277,327.5C 272.533,324.867 268.033,324.867 263.5,327.5C 263.167,327.167 262.833,326.833 262.5,326.5C 264.145,325.304 265.811,324.304 267.5,323.5 Z"/></g>
<g><path style="opacity:1" fill="#fbf2f1" d="M 266.5,335.5 C 270.167,335.5 273.833,335.5 277.5,335.5C 278.406,341.423 275.906,344.423 270,344.5C 264.743,344.911 262.743,342.578 264,337.5C 264.995,336.934 265.828,336.267 266.5,335.5 Z"/></g>
<g><path style="opacity:1" fill="#a99b97" d="M 314.5,356.5 C 318.884,356.174 323.217,356.508 327.5,357.5C 325.955,358.452 324.288,358.785 322.5,358.5C 321.833,377.167 321.167,377.167 320.5,358.5C 317.918,358.975 315.918,358.308 314.5,356.5 Z"/></g>
<g><path style="opacity:1" fill="#9e8f8a" d="M 166.5,356.5 C 167.496,356.414 168.329,356.748 169,357.5C 170.136,361.243 171.47,364.91 173,368.5C 174.09,364.223 175.757,360.223 178,356.5C 177.11,361.185 175.776,365.852 174,370.5C 172.844,371.993 172.01,371.826 171.5,370C 170.646,366.595 169.312,363.429 167.5,360.5C 165.974,363.744 164.64,367.077 163.5,370.5C 162.675,371.386 161.675,371.719 160.5,371.5C 158.915,366.928 158.081,362.262 158,357.5C 159.786,361.018 161.286,364.684 162.5,368.5C 164.041,364.544 165.374,360.544 166.5,356.5 Z"/></g>
<g><path style="opacity:1" fill="#a99c98" d="M 183.5,356.5 C 184.812,358.743 185.478,361.41 185.5,364.5C 185.167,367.167 184.833,369.833 184.5,372.5C 183.505,367.208 183.172,361.875 183.5,356.5 Z"/></g>
<g><path style="opacity:1" fill="#9e8f8a" d="M 270.5,356.5 C 273.482,356.104 276.149,356.771 278.5,358.5C 275.998,358.621 273.332,358.788 270.5,359C 269.273,360.587 269.606,361.921 271.5,363C 274.308,363.598 276.808,364.765 279,366.5C 279.561,369.298 278.394,371.131 275.5,372C 272.86,372.839 270.527,372.339 268.5,370.5C 271.002,370.379 273.668,370.212 276.5,370C 277.022,369.439 277.355,368.772 277.5,368C 274.931,366.134 272.098,364.634 269,363.5C 268.167,360.829 268.667,358.496 270.5,356.5 Z"/></g>
<g><path style="opacity:1" fill="#93827d" d="M 301.5,356.5 C 304.898,356.18 308.232,356.513 311.5,357.5C 308.572,358.484 305.572,358.817 302.5,358.5C 302.5,360.167 302.5,361.833 302.5,363.5C 313.167,363.833 313.167,364.167 302.5,364.5C 302.5,366.5 302.5,368.5 302.5,370.5C 305.518,370.335 308.518,370.502 311.5,371C 308.183,371.498 304.85,371.665 301.5,371.5C 301.5,366.5 301.5,361.5 301.5,356.5 Z"/></g>
<g><path style="opacity:1" fill="#9e8f8a" d="M 256.5,356.5 C 259.7,359.866 262.2,363.866 264,368.5C 264.671,371.748 264.171,372.081 262.5,369.5C 258.122,367.811 254.288,368.478 251,371.5C 250.333,370.5 250.333,369.5 251,368.5C 253.119,364.598 254.952,360.598 256.5,356.5 Z"/></g>
<g><path style="opacity:1" fill="#f6f5f5" d="M 256.5,360.5 C 258.513,361.475 259.846,363.142 260.5,365.5C 254.39,367.378 253.057,365.711 256.5,360.5 Z"/></g>
<g><path style="opacity:1" fill="#95847f" d="M 294.5,356.5 C 295.525,356.897 295.692,357.563 295,358.5C 293.315,360.017 291.815,361.684 290.5,363.5C 291.93,366.433 293.93,368.933 296.5,371C 295.833,371.667 295.167,371.667 294.5,371C 292.65,368.982 290.65,367.149 288.5,365.5C 286.171,366.771 285.005,368.771 285,371.5C 284.333,366.833 284.333,362.167 285,357.5C 285.333,360.167 285.667,362.833 286,365.5C 289.038,362.631 291.871,359.631 294.5,356.5 Z"/></g>
<g><path style="opacity:1" fill="#9b8c87" d="M 191.5,356.5 C 195.429,359.634 198.929,363.301 202,367.5C 202.175,363.789 202.675,360.122 203.5,356.5C 204.833,361.5 204.833,366.5 203.5,371.5C 199.871,368.247 196.704,364.58 194,360.5C 193.825,364.211 193.325,367.878 192.5,371.5C 191.506,366.544 191.173,361.544 191.5,356.5 Z"/></g>
<g><path style="opacity:1" fill="#a99b97" d="M 210.5,356.5 C 214.226,356.177 217.893,356.511 221.5,357.5C 218.572,358.484 215.572,358.817 212.5,358.5C 212.5,360.167 212.5,361.833 212.5,363.5C 223.167,364.167 223.167,364.833 212.5,365.5C 212.5,367.167 212.5,368.833 212.5,370.5C 215.572,370.183 218.572,370.516 221.5,371.5C 217.893,372.489 214.226,372.823 210.5,372.5C 210.5,367.167 210.5,361.833 210.5,356.5 Z"/></g>
<g><path style="opacity:1" fill="#9d8e89" d="M 234.5,356.5 C 237.518,356.335 240.518,356.502 243.5,357C 246.859,359.034 247.192,361.368 244.5,364C 246.648,366.075 246.982,368.408 245.5,371C 241.974,372.337 238.308,372.837 234.5,372.5C 234.5,367.167 234.5,361.833 234.5,356.5 Z"/></g>
<g><path style="opacity:1" fill="#f3f1f1" d="M 235.5,365.5 C 238.518,365.335 241.518,365.502 244.5,366C 245.833,367.333 245.833,368.667 244.5,370C 241.518,370.498 238.518,370.665 235.5,370.5C 235.5,368.833 235.5,367.167 235.5,365.5 Z"/></g>
<g><path style="opacity:1" fill="#f4f2f2" d="M 235.5,358.5 C 238.187,358.336 240.854,358.503 243.5,359C 244.833,360.333 244.833,361.667 243.5,363C 240.854,363.497 238.187,363.664 235.5,363.5C 235.5,361.833 235.5,360.167 235.5,358.5 Z"/></g>
</svg>
