<?xml version="1.0" encoding="UTF-8"?>
<!DOCTYPE svg PUBLIC "-//W3C//DTD SVG 1.1//EN" "http://www.w3.org/Graphics/SVG/1.1/DTD/svg11.dtd">
<svg xmlns="http://www.w3.org/2000/svg" version="1.1" width="438px" height="438px" style="shape-rendering:geometricPrecision; text-rendering:geometricPrecision; image-rendering:optimizeQuality; fill-rule:evenodd; clip-rule:evenodd" xmlns:xlink="http://www.w3.org/1999/xlink">
<g><path style="opacity:1" fill="#fefefd" d="M -0.5,-0.5 C 145.5,-0.5 291.5,-0.5 437.5,-0.5C 437.5,145.5 437.5,291.5 437.5,437.5C 291.5,437.5 145.5,437.5 -0.5,437.5C -0.5,291.5 -0.5,145.5 -0.5,-0.5 Z"/></g>
<g><path style="opacity:1" fill="#356413" d="M 306.5,116.5 C 318.441,126.551 332.108,130.551 347.5,128.5C 352.849,128.658 357.849,127.491 362.5,125C 359.039,123.274 355.373,122.108 351.5,121.5C 347.889,121.473 344.889,122.806 342.5,125.5C 343.912,118.559 348.246,113.726 355.5,111C 365.94,108.887 374.606,111.887 381.5,120C 382.448,120.483 383.448,120.649 384.5,120.5C 388.919,121.972 393.586,122.638 398.5,122.5C 401.962,123.482 405.629,123.815 409.5,123.5C 404.125,124.238 398.791,125.238 393.5,126.5C 384.344,127.832 376.844,132.165 371,139.5C 365.884,150.278 361.217,161.278 357,172.5C 354.914,175.094 352.414,177.094 349.5,178.5C 347.597,178.796 345.93,179.463 344.5,180.5C 339.195,181.194 333.862,181.528 328.5,181.5C 326.585,181.216 324.919,181.549 323.5,182.5C 321.723,185.505 320.723,188.838 320.5,192.5C 318.963,197.11 317.63,201.777 316.5,206.5C 314.723,209.505 313.723,212.838 313.5,216.5C 312.035,220.893 310.368,225.226 308.5,229.5C 294.866,209.495 295.366,189.829 310,170.5C 317.109,162.551 324.942,155.551 333.5,149.5C 336.339,147.58 339.339,145.913 342.5,144.5C 344.14,143.68 345.807,142.847 347.5,142C 345.119,141.262 343.119,141.762 341.5,143.5C 335.315,145.206 329.315,147.206 323.5,149.5C 321.139,149.674 318.806,150.007 316.5,150.5C 308.021,150.95 299.688,150.283 291.5,148.5C 287.874,146.541 284.874,143.874 282.5,140.5C 284.857,138.902 287.523,137.902 290.5,137.5C 291.675,137.719 292.675,137.386 293.5,136.5C 283.563,134.396 276.896,128.562 273.5,119C 273.833,118.5 274.167,118 274.5,117.5C 278.204,121.024 282.537,122.857 287.5,123C 273.496,108.289 271.996,92.4558 283,75.5C 284.84,88.8414 290.173,100.508 299,110.5C 301.086,113.094 303.586,115.094 306.5,116.5 Z"/></g>
<g><path style="opacity:1" fill="#a1ce60" d="M 323.5,91.5 C 321.97,94.6952 321.304,98.1952 321.5,102C 321.667,104.5 321.833,107 322,109.5C 322.278,110.416 322.778,111.082 323.5,111.5C 325.185,118.233 329.185,122.9 335.5,125.5C 337.054,126.895 336.721,127.561 334.5,127.5C 324.484,126.155 315.817,122.155 308.5,115.5C 305.269,107.843 304.602,99.8429 306.5,91.5C 307.167,93.5 307.833,95.5 308.5,97.5C 309.228,99.5115 310.062,101.512 311,103.5C 310.683,91.1326 316.183,82.466 327.5,77.5C 327.833,77.8333 328.167,78.1667 328.5,78.5C 325.981,82.5328 324.314,86.8661 323.5,91.5 Z"/></g>
<g><path style="opacity:1" fill="#d9ebbf" d="M 306.5,91.5 C 306.56,90.9569 306.893,90.6236 307.5,90.5C 308.474,92.7427 308.808,95.076 308.5,97.5C 307.833,95.5 307.167,93.5 306.5,91.5 Z"/></g>
<g><path style="opacity:1" fill="#ddedc6" d="M 323.5,91.5 C 322.217,98.1742 322.217,104.841 323.5,111.5C 322.778,111.082 322.278,110.416 322,109.5C 321.833,107 321.667,104.5 321.5,102C 321.304,98.1952 321.97,94.6952 323.5,91.5 Z"/></g>
<g><path style="opacity:1" fill="#628646" d="M 137.5,107.5 C 137.842,108.338 138.508,108.672 139.5,108.5C 126.765,110.414 115.098,115.08 104.5,122.5C 104.158,121.662 103.492,121.328 102.5,121.5C 112.867,113.824 124.534,109.158 137.5,107.5 Z"/></g>
<g><path style="opacity:1" fill="#4c752d" d="M 142.5,163.5 C 141.833,162.833 141.167,162.167 140.5,161.5C 152.397,158.306 162.23,151.972 170,142.5C 178.806,126.513 174.64,115.679 157.5,110C 151.565,108.761 145.565,108.261 139.5,108.5C 138.508,108.672 137.842,108.338 137.5,107.5C 148.379,105.323 158.712,106.823 168.5,112C 177.102,117.125 180.269,124.625 178,134.5C 170.93,149.957 159.096,159.624 142.5,163.5 Z"/></g>
<g><path style="opacity:1" fill="#b6c7a9" d="M 384.5,120.5 C 389.414,120.362 394.081,121.028 398.5,122.5C 393.586,122.638 388.919,121.972 384.5,120.5 Z"/></g>
<g><path style="opacity:1" fill="#4b742c" d="M 140.5,161.5 C 141.167,162.167 141.833,162.833 142.5,163.5C 141.883,163.611 141.383,163.944 141,164.5C 140.333,168.5 140.333,172.5 141,176.5C 153.009,180.93 155.676,188.597 149,199.5C 147.167,201.333 145.333,203.167 143.5,205C 142.365,205.749 141.365,205.583 140.5,204.5C 147.883,199.078 150.049,192.078 147,183.5C 145.568,181.561 143.735,180.228 141.5,179.5C 141.44,178.957 141.107,178.624 140.5,178.5C 139.506,183.456 139.173,188.456 139.5,193.5C 138.811,194.774 137.977,194.774 137,193.5C 136.501,188.177 136.334,182.844 136.5,177.5C 136.5,176.833 136.5,176.167 136.5,175.5C 136.5,172.5 136.5,169.5 136.5,166.5C 135.325,166.719 134.325,166.386 133.5,165.5C 133.957,164.702 134.624,164.369 135.5,164.5C 137.482,150.873 138.149,136.873 137.5,122.5C 138.189,121.226 139.023,121.226 140,122.5C 140.5,135.496 140.667,148.496 140.5,161.5 Z"/></g>
<g><path style="opacity:1" fill="#ccdbbe" d="M 308.5,115.5 C 315.817,122.155 324.484,126.155 334.5,127.5C 336.721,127.561 337.054,126.895 335.5,125.5C 337.048,125.821 337.715,126.821 337.5,128.5C 340.833,128.5 344.167,128.5 347.5,128.5C 332.108,130.551 318.441,126.551 306.5,116.5C 307.492,116.672 308.158,116.338 308.5,115.5 Z"/></g>
<g><path style="opacity:1" fill="#c1cfb5" d="M 409.5,123.5 C 410.873,123.343 412.207,123.51 413.5,124C 407.018,125.577 400.351,126.411 393.5,126.5C 398.791,125.238 404.125,124.238 409.5,123.5 Z"/></g>
<g><path style="opacity:1" fill="#497329" d="M 102.5,121.5 C 103.492,121.328 104.158,121.662 104.5,122.5C 98.2634,126.06 94.93,131.394 94.5,138.5C 93.5,138.5 92.5,138.5 91.5,138.5C 91.8816,130.743 95.5483,125.076 102.5,121.5 Z"/></g>
<g><path style="opacity:1" fill="#6e8f54" d="M 137.5,122.5 C 138.149,136.873 137.482,150.873 135.5,164.5C 136.151,150.402 136.817,136.402 137.5,122.5 Z"/></g>
<g><path style="opacity:1" fill="#b5c6a8" d="M 290.5,137.5 C 287.523,137.902 284.857,138.902 282.5,140.5C 281.596,139.791 281.263,138.791 281.5,137.5C 284.5,137.5 287.5,137.5 290.5,137.5 Z"/></g>
<g><path style="opacity:1" fill="#587e3c" d="M 205.5,139.5 C 207.369,141.635 208.036,144.302 207.5,147.5C 212.179,147.334 216.845,147.501 221.5,148C 217.028,149.437 212.361,149.937 207.5,149.5C 207.5,155.833 207.5,162.167 207.5,168.5C 211.81,168.511 215.143,166.677 217.5,163C 218.167,162.333 218.833,162.333 219.5,163C 217.5,165 215.5,167 213.5,169C 208.74,171.793 205.573,170.626 204,165.5C 203.501,160.177 203.334,154.844 203.5,149.5C 201.712,149.785 200.045,149.452 198.5,148.5C 200.396,147.534 202.396,147.201 204.5,147.5C 204.279,144.721 204.612,142.054 205.5,139.5 Z"/></g>
<g><path style="opacity:1" fill="#76955d" d="M 342.5,144.5 C 342.5,143.833 342.167,143.5 341.5,143.5C 343.119,141.762 345.119,141.262 347.5,142C 345.807,142.847 344.14,143.68 342.5,144.5 Z"/></g>
<g><path style="opacity:1" fill="#d2dcca" d="M 341.5,143.5 C 342.167,143.5 342.5,143.833 342.5,144.5C 339.339,145.913 336.339,147.58 333.5,149.5C 333.53,148.503 333.03,147.836 332,147.5C 329.276,148.687 326.443,149.353 323.5,149.5C 329.315,147.206 335.315,145.206 341.5,143.5 Z"/></g>
<g><path style="opacity:1" fill="#6e8f55" d="M 291.5,148.5 C 299.688,150.283 308.021,150.95 316.5,150.5C 310.013,151.654 303.346,151.821 296.5,151C 294.509,150.626 292.842,149.793 291.5,148.5 Z"/></g>
<g><path style="opacity:1" fill="#8ea87a" d="M 179.5,157.5 C 177.097,157.448 174.764,157.781 172.5,158.5C 173.312,157.007 174.645,156.34 176.5,156.5C 177.726,156.52 178.726,156.853 179.5,157.5 Z"/></g>
<g><path style="opacity:1" fill="#9ab188" d="M 278.5,157.5 C 276.586,160.684 275.92,164.351 276.5,168.5C 275.517,164.702 275.183,160.702 275.5,156.5C 276.791,156.263 277.791,156.596 278.5,157.5 Z"/></g>
<g><path style="opacity:1" fill="#507832" d="M 179.5,157.5 C 180.167,157.5 180.5,157.833 180.5,158.5C 180.5,160.5 180.5,162.5 180.5,164.5C 181.791,164.737 182.791,164.404 183.5,163.5C 184.151,162.909 184.818,162.243 185.5,161.5C 186.594,162.868 186.26,164.035 184.5,165C 181.623,165.956 178.956,167.289 176.5,169C 172.258,170.034 169.925,168.367 169.5,164C 169.9,161.785 170.9,159.952 172.5,158.5C 174.764,157.781 177.097,157.448 179.5,157.5 Z"/></g>
<g><path style="opacity:1" fill="#b1c3a4" d="M 176.5,159.5 C 178.344,160.204 178.844,161.537 178,163.5C 176.812,162.437 176.312,161.103 176.5,159.5 Z"/></g>
<g><path style="opacity:1" fill="#507833" d="M 195.5,169.5 C 195.5,170.167 195.5,170.833 195.5,171.5C 194.178,171.67 193.011,171.337 192,170.5C 191.57,167.808 191.737,165.141 192.5,162.5C 188.092,162.938 186.425,160.938 187.5,156.5C 190.523,156.105 191.523,157.105 190.5,159.5C 192.045,160.452 193.712,160.785 195.5,160.5C 195.5,163.5 195.5,166.5 195.5,169.5 Z"/></g>
<g><path style="opacity:1" fill="#436f23" d="M 289.5,166.5 C 289.833,167.167 290.167,167.833 290.5,168.5C 288.847,169.799 287.347,169.466 286,167.5C 285.667,164.167 285.333,160.833 285,157.5C 282.223,160.718 280.223,164.385 279,168.5C 278.023,169.774 277.189,169.774 276.5,168.5C 275.92,164.351 276.586,160.684 278.5,157.5C 278.281,158.675 278.614,159.675 279.5,160.5C 280.107,160.376 280.44,160.043 280.5,159.5C 282.073,156.107 284.74,154.774 288.5,155.5C 288.185,159.371 288.518,163.038 289.5,166.5 Z"/></g>
<g><path style="opacity:1" fill="#95ae83" d="M 278.5,157.5 C 279.167,158.167 279.833,158.833 280.5,159.5C 280.44,160.043 280.107,160.376 279.5,160.5C 278.614,159.675 278.281,158.675 278.5,157.5 Z"/></g>
<g><path style="opacity:1" fill="#487229" d="M 250.5,167.5 C 250.517,165.435 250.85,163.435 251.5,161.5C 251.916,159.248 253.249,157.748 255.5,157C 258.909,157.234 262.242,157.068 265.5,156.5C 265.216,159.777 265.549,162.943 266.5,166C 269.648,166.06 271.981,164.56 273.5,161.5C 273.833,161.833 274.167,162.167 274.5,162.5C 270.93,168.846 266.43,169.846 261,165.5C 257.971,169.809 254.471,170.475 250.5,167.5 Z"/></g>
<g><path style="opacity:1" fill="#e4eadf" d="M 256.5,158.5 C 258.288,158.215 259.955,158.548 261.5,159.5C 260.533,161.63 259.366,163.63 258,165.5C 256.89,167.037 255.39,167.703 253.5,167.5C 253.129,163.997 254.129,160.997 256.5,158.5 Z"/></g>
<g><path style="opacity:1" fill="#dce4d5" d="M 172.5,162.5 C 177.7,164.507 177.7,166.173 172.5,167.5C 172.5,165.833 172.5,164.167 172.5,162.5 Z"/></g>
<g><path style="opacity:1" fill="#bfceb4" d="M 180.5,158.5 C 180.972,160.531 181.972,162.198 183.5,163.5C 182.791,164.404 181.791,164.737 180.5,164.5C 180.5,162.5 180.5,160.5 180.5,158.5 Z"/></g>
<g><path style="opacity:1" fill="#4a742b" d="M 244.5,166.5 C 245.167,166.5 245.5,166.833 245.5,167.5C 242.994,170.086 240.494,170.086 238,167.5C 237.975,164.083 237.808,160.75 237.5,157.5C 234.834,159.489 233.167,162.156 232.5,165.5C 231.675,166.386 230.675,166.719 229.5,166.5C 229.662,164.473 229.495,162.473 229,160.5C 227.414,162.67 226.08,165.004 225,167.5C 224.329,168.252 223.496,168.586 222.5,168.5C 221.945,164.988 222.612,161.988 224.5,159.5C 224.369,160.239 224.536,160.906 225,161.5C 226.046,159.91 227.213,158.41 228.5,157C 229.899,156.405 231.232,156.572 232.5,157.5C 234.75,155.202 237.416,154.369 240.5,155C 241.139,159.121 241.805,163.287 242.5,167.5C 243.183,167.137 243.85,166.804 244.5,166.5 Z"/></g>
<g><path style="opacity:1" fill="#7d9b66" d="M 251.5,161.5 C 250.85,163.435 250.517,165.435 250.5,167.5C 249.732,166.737 249.232,165.737 249,164.5C 247.961,165.71 246.794,166.71 245.5,167.5C 245.5,166.833 245.167,166.5 244.5,166.5C 246.531,164.478 248.865,162.811 251.5,161.5 Z"/></g>
<g><path style="opacity:1" fill="#7b9a64" d="M 224.5,159.5 C 222.612,161.988 221.945,164.988 222.5,168.5C 221.521,165.375 221.187,162.042 221.5,158.5C 222.791,158.263 223.791,158.596 224.5,159.5 Z"/></g>
<g><path style="opacity:1" fill="#7a9862" d="M 290.5,168.5 C 290.167,167.833 289.833,167.167 289.5,166.5C 290.496,166.586 291.329,166.252 292,165.5C 292.748,163.668 293.748,162.001 295,160.5C 294.835,163.821 293.335,166.488 290.5,168.5 Z"/></g>
<g><path style="opacity:1" fill="#729359" d="M 195.5,171.5 C 195.5,170.833 195.5,170.167 195.5,169.5C 196.496,169.586 197.329,169.252 198,168.5C 199.08,166.004 200.414,163.67 202,161.5C 202.094,166.313 199.928,169.646 195.5,171.5 Z"/></g>
<g><path style="opacity:1" fill="#a9bd99" d="M 349.5,178.5 C 348.365,180.213 346.698,180.88 344.5,180.5C 345.93,179.463 347.597,178.796 349.5,178.5 Z"/></g>
<g><path style="opacity:1" fill="#cdd8c4" d="M 344.5,180.5 C 344.082,181.222 343.416,181.722 342.5,182C 337.648,182.815 332.981,182.648 328.5,181.5C 333.862,181.528 339.195,181.194 344.5,180.5 Z"/></g>
<g><path style="opacity:1" fill="#86a271" d="M 141.5,179.5 C 140.833,184.167 140.167,188.833 139.5,193.5C 139.173,188.456 139.506,183.456 140.5,178.5C 141.107,178.624 141.44,178.957 141.5,179.5 Z"/></g>
<g><path style="opacity:1" fill="#beccb2" d="M 323.5,182.5 C 323.277,186.162 322.277,189.495 320.5,192.5C 320.723,188.838 321.723,185.505 323.5,182.5 Z"/></g>
<g><path style="opacity:1" fill="#457026" d="M 216.5,219.5 C 215.549,218.081 215.216,216.415 215.5,214.5C 215.823,210.774 215.489,207.107 214.5,203.5C 213.504,209.798 213.17,216.132 213.5,222.5C 212.206,226.733 212.206,231.066 213.5,235.5C 213.5,237.5 213.5,239.5 213.5,241.5C 212.378,243.288 212.211,245.288 213,247.5C 213.717,246.956 214.217,246.289 214.5,245.5C 216.001,240.421 218.835,239.421 223,242.5C 223.497,245.146 223.664,247.813 223.5,250.5C 226.325,250.919 228.491,249.919 230,247.5C 230.507,248.996 230.007,250.163 228.5,251C 226.635,252.301 224.635,252.635 222.5,252C 221.223,249.079 219.89,246.245 218.5,243.5C 216.19,247.254 214.357,251.254 213,255.5C 211.989,256.337 210.822,256.67 209.5,256.5C 209.5,242.5 209.5,228.5 209.5,214.5C 209.08,209.337 210.08,204.504 212.5,200C 213.833,199.333 215.167,199.333 216.5,200C 217.561,206.439 217.561,212.939 216.5,219.5 Z"/></g>
<g><path style="opacity:1" fill="#3e6b1e" d="M 135.5,218.5 C 134.596,217.791 134.263,216.791 134.5,215.5C 134.666,211.154 134.499,206.821 134,202.5C 132.558,207.309 132.058,212.309 132.5,217.5C 131.517,221.298 131.183,225.298 131.5,229.5C 131.517,231.565 131.85,233.565 132.5,235.5C 132.5,236.167 132.5,236.833 132.5,237.5C 131.532,239.607 131.198,241.941 131.5,244.5C 130.596,245.209 130.263,246.209 130.5,247.5C 132.179,247.285 133.179,247.952 133.5,249.5C 133.427,253.181 131.76,255.514 128.5,256.5C 128.5,244.167 128.5,231.833 128.5,219.5C 128.139,213.407 128.639,207.407 130,201.5C 132.084,198.967 134.084,198.967 136,201.5C 136.554,207.188 136.387,212.855 135.5,218.5 Z"/></g>
<g><path style="opacity:1" fill="#ecf0e8" d="M 200.5,208.5 C 200.468,214.189 200.134,219.855 199.5,225.5C 199.5,226.5 199.5,227.5 199.5,228.5C 198.35,231.725 197.184,235.058 196,238.5C 195.503,236.19 195.337,233.857 195.5,231.5C 195.729,224.485 196.229,217.485 197,210.5C 197.309,209.234 197.809,208.067 198.5,207C 199.816,206.472 200.483,206.972 200.5,208.5 Z"/></g>
<g><path style="opacity:1" fill="#416d21" d="M 202.5,221.5 C 201.525,224.311 200.858,227.311 200.5,230.5C 199.662,230.158 199.328,229.492 199.5,228.5C 199.5,227.5 199.5,226.5 199.5,225.5C 201.55,219.91 201.883,214.244 200.5,208.5C 200.483,206.972 199.816,206.472 198.5,207C 197.809,208.067 197.309,209.234 197,210.5C 196.229,217.485 195.729,224.485 195.5,231.5C 194.84,232.964 194.507,234.631 194.5,236.5C 194.556,238.64 195.223,240.306 196.5,241.5C 195.735,244.096 195.401,246.763 195.5,249.5C 195.657,250.873 195.49,252.207 195,253.5C 194.617,252.944 194.117,252.611 193.5,252.5C 192.587,240.864 192.254,229.197 192.5,217.5C 193.099,213.345 194.265,209.345 196,205.5C 199.408,203.777 201.741,204.777 203,208.5C 203.629,212.871 203.463,217.204 202.5,221.5 Z"/></g>
<g><path style="opacity:1" fill="#d2dcca" d="M 134.5,215.5 C 133.539,217.265 133.205,219.265 133.5,221.5C 132.566,220.432 132.232,219.099 132.5,217.5C 132.058,212.309 132.558,207.309 134,202.5C 134.499,206.821 134.666,211.154 134.5,215.5 Z"/></g>
<g><path style="opacity:1" fill="#c0ceb5" d="M 316.5,206.5 C 316.277,210.162 315.277,213.495 313.5,216.5C 313.723,212.838 314.723,209.505 316.5,206.5 Z"/></g>
<g><path style="opacity:1" fill="#9eb48c" d="M 200.5,208.5 C 201.883,214.244 201.55,219.91 199.5,225.5C 200.134,219.855 200.468,214.189 200.5,208.5 Z"/></g>
<g><path style="opacity:1" fill="#cbd7c1" d="M 215.5,214.5 C 214.675,218.647 214.175,222.981 214,227.5C 213.506,225.866 213.34,224.199 213.5,222.5C 213.17,216.132 213.504,209.798 214.5,203.5C 215.489,207.107 215.823,210.774 215.5,214.5 Z"/></g>
<g><path style="opacity:1" fill="#4d762e" d="M 136.5,175.5 C 136.5,176.167 136.5,176.833 136.5,177.5C 113.406,176.08 92.4059,181.913 73.5,195C 61.9284,204.689 61.5951,214.689 72.5,225C 85.5992,233.298 98.7659,241.465 112,249.5C 113.44,248.852 114.94,248.519 116.5,248.5C 117.239,248.369 117.906,248.536 118.5,249C 117.263,249.232 116.263,249.732 115.5,250.5C 114.624,250.369 113.957,250.702 113.5,251.5C 116.224,254.28 117.89,257.614 118.5,261.5C 118.152,263.697 117.152,265.53 115.5,267C 109.41,270.529 103.076,271.196 96.5,269C 92.5,265 92.5,261 96.5,257C 99.1662,254.665 102.166,252.831 105.5,251.5C 106.521,250.998 106.688,250.332 106,249.5C 94.0822,242.125 82.2488,234.625 70.5,227C 66.5783,223.749 63.4117,219.916 61,215.5C 60.3333,212.167 60.3333,208.833 61,205.5C 68.4298,194.192 78.5965,186.359 91.5,182C 106.06,176.796 121.06,174.629 136.5,175.5 Z"/></g>
<g><path style="opacity:1" fill="#6c8e52" d="M 134.5,215.5 C 134.263,216.791 134.596,217.791 135.5,218.5C 134.804,224.349 133.804,230.016 132.5,235.5C 131.85,233.565 131.517,231.565 131.5,229.5C 132.768,227.095 133.435,224.428 133.5,221.5C 133.205,219.265 133.539,217.265 134.5,215.5 Z"/></g>
<g><path style="opacity:1" fill="#a9bd9a" d="M 132.5,217.5 C 132.232,219.099 132.566,220.432 133.5,221.5C 133.435,224.428 132.768,227.095 131.5,229.5C 131.183,225.298 131.517,221.298 132.5,217.5 Z"/></g>
<g><path style="opacity:1" fill="#c0ceb4" d="M 202.5,221.5 C 202.664,224.187 202.497,226.854 202,229.5C 201.722,230.416 201.222,231.082 200.5,231.5C 200.5,231.167 200.5,230.833 200.5,230.5C 200.858,227.311 201.525,224.311 202.5,221.5 Z"/></g>
<g><path style="opacity:1" fill="#779760" d="M 215.5,214.5 C 215.216,216.415 215.549,218.081 216.5,219.5C 216.076,225.067 215.076,230.401 213.5,235.5C 212.206,231.066 212.206,226.733 213.5,222.5C 213.34,224.199 213.506,225.866 214,227.5C 214.175,222.981 214.675,218.647 215.5,214.5 Z"/></g>
<g><path style="opacity:1" fill="#a7bb97" d="M 192.5,217.5 C 192.254,229.197 192.587,240.864 193.5,252.5C 192.732,251.737 192.232,250.737 192,249.5C 191.175,238.659 191.341,227.992 192.5,217.5 Z"/></g>
<g><path style="opacity:1" fill="#648848" d="M 199.5,228.5 C 199.328,229.492 199.662,230.158 200.5,230.5C 200.5,230.833 200.5,231.167 200.5,231.5C 199.737,235.137 198.403,238.47 196.5,241.5C 195.223,240.306 194.556,238.64 194.5,236.5C 194.507,234.631 194.84,232.964 195.5,231.5C 195.337,233.857 195.503,236.19 196,238.5C 197.184,235.058 198.35,231.725 199.5,228.5 Z"/></g>
<g><path style="opacity:1" fill="#4c752d" d="M 179.5,204.5 C 181.722,204.178 183.556,204.845 185,206.5C 186.259,219.354 184.259,231.687 179,243.5C 177.747,248.353 178.914,252.353 182.5,255.5C 186.12,253.958 188.62,251.291 190,247.5C 189.599,252.575 186.932,255.908 182,257.5C 180.289,257.561 178.956,256.894 178,255.5C 176.438,253.043 175.438,250.376 175,247.5C 174.333,237.5 174.333,227.5 175,217.5C 176.053,212.926 177.553,208.593 179.5,204.5 Z"/></g>
<g><path style="opacity:1" fill="#799861" d="M 179.5,214.5 C 178.524,221.997 178.524,229.33 179.5,236.5C 179.688,238.103 179.188,239.437 178,240.5C 177.09,231.605 177.59,222.938 179.5,214.5 Z"/></g>
<g><path style="opacity:1" fill="#f1f4ef" d="M 179.5,236.5 C 178.524,229.33 178.524,221.997 179.5,214.5C 178.964,211.335 179.797,208.669 182,206.5C 183.114,208.97 183.614,211.636 183.5,214.5C 183.242,222.05 181.909,229.383 179.5,236.5 Z"/></g>
<g><path style="opacity:1" fill="#4d762f" d="M 277.5,252.5 C 278.167,253.167 278.833,253.833 279.5,254.5C 277.511,255.887 275.678,255.553 274,253.5C 273.862,240.529 272.029,240.196 268.5,252.5C 267.5,252.5 266.5,252.5 265.5,252.5C 265.799,250.396 265.466,248.396 264.5,246.5C 263.338,248.824 262.171,251.158 261,253.5C 259.989,254.337 258.822,254.67 257.5,254.5C 257.5,251.167 257.5,247.833 257.5,244.5C 259.124,244.36 260.29,245.027 261,246.5C 262.295,244.878 263.795,243.545 265.5,242.5C 267.983,244.098 269.983,243.598 271.5,241C 273.167,240.333 274.833,240.333 276.5,241C 277.46,244.73 277.793,248.563 277.5,252.5 Z"/></g>
<g><path style="opacity:1" fill="#b6c7a9" d="M 132.5,237.5 C 132.198,240.059 132.532,242.393 133.5,244.5C 132.452,246.933 131.786,246.933 131.5,244.5C 131.198,241.941 131.532,239.607 132.5,237.5 Z"/></g>
<g><path style="opacity:1" fill="#517933" d="M 157.5,241.5 C 160.157,241.162 162.49,241.829 164.5,243.5C 162.122,246.076 159.122,247.076 155.5,246.5C 154.79,249.93 155.957,252.263 159,253.5C 163.489,252.172 167.656,250.172 171.5,247.5C 171.833,247.833 172.167,248.167 172.5,248.5C 167.633,253.734 161.633,255.901 154.5,255C 149.833,249.138 150.833,244.638 157.5,241.5 Z"/></g>
<g><path style="opacity:1" fill="#97b085" d="M 213.5,241.5 C 213.232,243.099 213.566,244.432 214.5,245.5C 214.217,246.289 213.717,246.956 213,247.5C 212.211,245.288 212.378,243.288 213.5,241.5 Z"/></g>
<g><path style="opacity:1" fill="#517933" d="M 338.5,247.5 C 334.665,251.837 329.831,254.504 324,255.5C 318.541,254.91 316.207,251.91 317,246.5C 319.541,241.931 323.375,240.431 328.5,242C 329.791,244.09 329.124,245.424 326.5,246C 324.527,246.495 322.527,246.662 320.5,246.5C 319.68,250.198 321.013,252.531 324.5,253.5C 329.446,252.024 334.112,250.024 338.5,247.5 Z"/></g>
<g><path style="opacity:1" fill="#ced9c6" d="M 209.5,214.5 C 209.5,228.5 209.5,242.5 209.5,256.5C 208.833,254.167 208.167,251.833 207.5,249.5C 207.5,248.833 207.167,248.5 206.5,248.5C 208.122,237.24 209.122,225.907 209.5,214.5 Z"/></g>
<g><path style="opacity:1" fill="#477128" d="M 244.5,242.5 C 246.098,244.857 247.098,247.523 247.5,250.5C 247.833,251.167 248.167,251.833 248.5,252.5C 247.791,253.404 246.791,253.737 245.5,253.5C 243.202,251.14 241.202,251.64 239.5,255C 235.518,256.421 232.852,255.254 231.5,251.5C 232.855,244.14 237.188,241.14 244.5,242.5 Z"/></g>
<g><path style="opacity:1" fill="#ecf0e9" d="M 238.5,252.5 C 236.744,251.448 236.077,249.781 236.5,247.5C 238.124,244.572 240.457,243.905 243.5,245.5C 242.057,248.077 240.39,250.41 238.5,252.5 Z"/></g>
<g><path style="opacity:1" fill="#4c752d" d="M 301.5,240.5 C 303.722,240.178 305.556,240.845 307,242.5C 307.498,245.817 307.665,249.15 307.5,252.5C 316.857,246.676 317.523,247.51 309.5,255C 307.299,255.825 305.466,255.325 304,253.5C 304.17,240.685 302.003,240.185 297.5,252C 297.167,252.167 296.833,252.333 296.5,252.5C 295.833,250.5 295.167,248.5 294.5,246.5C 293.176,248.828 291.843,251.161 290.5,253.5C 289.675,254.386 288.675,254.719 287.5,254.5C 287.5,251.167 287.5,247.833 287.5,244.5C 289.124,244.36 290.29,245.027 291,246.5C 292.395,242.694 294.895,241.694 298.5,243.5C 299.855,242.812 300.855,241.812 301.5,240.5 Z"/></g>
<g><path style="opacity:1" fill="#6b8d51" d="M 126.5,246.5 C 126.5,247.167 126.5,247.833 126.5,248.5C 122.833,249.167 119.167,249.833 115.5,250.5C 116.263,249.732 117.263,249.232 118.5,249C 117.906,248.536 117.239,248.369 116.5,248.5C 119.507,246.825 122.84,246.159 126.5,246.5 Z"/></g>
<g><path style="opacity:1" fill="#567d39" d="M 133.5,249.5 C 133.179,247.952 132.179,247.285 130.5,247.5C 130.263,246.209 130.596,245.209 131.5,244.5C 131.786,246.933 132.452,246.933 133.5,244.5C 135.588,240.269 138.421,239.602 142,242.5C 142.497,244.81 142.663,247.143 142.5,249.5C 144.821,249.771 146.821,249.104 148.5,247.5C 149.188,249.718 148.188,251.218 145.5,252C 143.833,252.667 142.167,252.667 140.5,252C 139.133,249.328 138.133,246.495 137.5,243.5C 136.143,245.565 134.81,247.565 133.5,249.5 Z"/></g>
<g><path style="opacity:1" fill="#8ea87a" d="M 244.5,242.5 C 245.209,241.596 246.209,241.263 247.5,241.5C 247.5,244.5 247.5,247.5 247.5,250.5C 247.098,247.523 246.098,244.857 244.5,242.5 Z"/></g>
<g><path style="opacity:1" fill="#74945b" d="M 279.5,254.5 C 278.833,253.833 278.167,253.167 277.5,252.5C 280.285,252.067 282.619,250.734 284.5,248.5C 285.521,249.002 285.688,249.668 285,250.5C 283.226,251.965 281.392,253.298 279.5,254.5 Z"/></g>
<g><path style="opacity:1" fill="#afc2a1" d="M 236.5,247.5 C 236.077,249.781 236.744,251.448 238.5,252.5C 237.791,253.404 236.791,253.737 235.5,253.5C 235.205,251.265 235.539,249.265 236.5,247.5 Z"/></g>
<g><path style="opacity:1" fill="#74945c" d="M 350.5,254.5 C 350.167,254.5 349.833,254.5 349.5,254.5C 350.391,252.391 351.558,250.391 353,248.5C 353.008,250.821 352.175,252.821 350.5,254.5 Z"/></g>
<g><path style="opacity:1" fill="#bccbb0" d="M 128.5,219.5 C 128.5,231.833 128.5,244.167 128.5,256.5C 127.833,253.833 127.167,251.167 126.5,248.5C 126.5,247.833 126.5,247.167 126.5,246.5C 127.167,237.5 127.833,228.5 128.5,219.5 Z"/></g>
<g><path style="opacity:1" fill="#5e8342" d="M 206.5,248.5 C 207.167,248.5 207.5,248.833 207.5,249.5C 206.09,255.422 202.423,257.922 196.5,257C 194.859,255.871 193.859,254.371 193.5,252.5C 194.117,252.611 194.617,252.944 195,253.5C 195.49,252.207 195.657,250.873 195.5,249.5C 195.879,252.275 197.379,254.275 200,255.5C 203.038,253.962 205.205,251.629 206.5,248.5 Z"/></g>
<g><path style="opacity:1" fill="#66894b" d="M 245.5,253.5 C 246.791,253.737 247.791,253.404 248.5,252.5C 251.075,251.272 253.408,249.605 255.5,247.5C 255.079,251.414 252.579,253.747 248,254.5C 246.93,254.472 246.097,254.139 245.5,253.5 Z"/></g>
<g><path style="opacity:1" fill="#f6f8f5" d="M 106.5,253.5 C 112.568,254.076 115.068,257.409 114,263.5C 110.173,266.998 105.673,268.498 100.5,268C 97.7928,266.136 96.9595,263.636 98,260.5C 100.441,257.546 103.275,255.213 106.5,253.5 Z"/></g>
<g><path style="opacity:1" fill="#49732a" d="M 349.5,254.5 C 349.833,254.5 350.167,254.5 350.5,254.5C 348.964,257.092 346.631,258.092 343.5,257.5C 343.5,254.5 343.5,251.5 343.5,248.5C 341.708,248.634 340.042,248.301 338.5,247.5C 337.756,244.05 339.09,242.384 342.5,242.5C 342.5,243.833 342.5,245.167 342.5,246.5C 343.833,246.5 345.167,246.5 346.5,246.5C 346.183,249.572 346.516,252.572 347.5,255.5C 348.183,255.137 348.85,254.804 349.5,254.5 Z"/></g>
<g><path style="opacity:1" fill="#507832" d="M 84.5,291.5 C 87.5448,291.508 90.5448,291.841 93.5,292.5C 93.719,293.675 93.3857,294.675 92.5,295.5C 86.6789,292.159 83.8455,293.826 84,300.5C 84.5,301 85,301.5 85.5,302C 88.3315,302.212 90.9982,302.379 93.5,302.5C 92.4503,304.873 90.617,305.873 88,305.5C 82.2322,304.644 79.8989,301.311 81,295.5C 82.3756,294.295 83.5423,292.962 84.5,291.5 Z"/></g>
<g><path style="opacity:1" fill="#6f9056" d="M 115.5,292.5 C 113.833,292.5 112.167,292.5 110.5,292.5C 110.334,296.514 110.501,300.514 111,304.5C 111.202,302.744 111.702,301.078 112.5,299.5C 113.107,299.624 113.44,299.957 113.5,300.5C 112.549,301.919 112.216,303.585 112.5,305.5C 111.5,305.5 110.5,305.5 109.5,305.5C 109.5,300.833 109.5,296.167 109.5,291.5C 111.735,291.205 113.735,291.539 115.5,292.5 Z"/></g>
<g><path style="opacity:1" fill="#426e22" d="M 115.5,292.5 C 116.88,292.962 117.547,293.962 117.5,295.5C 117.061,297.104 116.394,298.604 115.5,300C 117.632,306.948 116.965,307.115 113.5,300.5C 113.44,299.957 113.107,299.624 112.5,299.5C 111.702,301.078 111.202,302.744 111,304.5C 110.501,300.514 110.334,296.514 110.5,292.5C 112.167,292.5 113.833,292.5 115.5,292.5 Z"/></g>
<g><path style="opacity:1" fill="#577d3b" d="M 120.5,291.5 C 121.5,291.5 122.5,291.5 123.5,291.5C 123.5,296.167 123.5,300.833 123.5,305.5C 122.5,305.5 121.5,305.5 120.5,305.5C 120.5,300.833 120.5,296.167 120.5,291.5 Z"/></g>
<g><path style="opacity:1" fill="#7a9962" d="M 134.5,292.5 C 135.209,291.596 136.209,291.263 137.5,291.5C 137.5,296.167 137.5,300.833 137.5,305.5C 136.209,305.737 135.209,305.404 134.5,304.5C 135.794,302.952 136.461,300.952 136.5,298.5C 136.461,296.048 135.794,294.048 134.5,292.5 Z"/></g>
<g><path style="opacity:1" fill="#648849" d="M 164.5,294.5 C 165.263,293.732 166.263,293.232 167.5,293C 165.866,292.506 164.199,292.34 162.5,292.5C 162.334,296.514 162.501,300.514 163,304.5C 163.198,302.618 163.698,300.952 164.5,299.5C 164.5,301.5 164.5,303.5 164.5,305.5C 163.5,305.5 162.5,305.5 161.5,305.5C 161.5,300.833 161.5,296.167 161.5,291.5C 163.833,291.5 166.167,291.5 168.5,291.5C 168.5,292.5 168.5,293.5 168.5,294.5C 167.167,294.5 165.833,294.5 164.5,294.5 Z"/></g>
<g><path style="opacity:1" fill="#426e22" d="M 192.5,292.5 C 195.167,294.5 195.167,296.5 192.5,298.5C 195.167,296.5 195.167,294.5 192.5,292.5 Z"/></g>
<g><path style="opacity:1" fill="#6c8e52" d="M 208.5,292.5 C 206.833,292.5 205.167,292.5 203.5,292.5C 202.911,296.971 203.577,300.971 205.5,304.5C 204.791,305.404 203.791,305.737 202.5,305.5C 202.5,300.833 202.5,296.167 202.5,291.5C 204.735,291.205 206.735,291.539 208.5,292.5 Z"/></g>
<g><path style="opacity:1" fill="#457025" d="M 208.5,292.5 C 210.377,293.659 210.877,295.326 210,297.5C 208.89,299.037 207.39,299.703 205.5,299.5C 205.5,301.167 205.5,302.833 205.5,304.5C 203.577,300.971 202.911,296.971 203.5,292.5C 205.167,292.5 206.833,292.5 208.5,292.5 Z"/></g>
<g><path style="opacity:1" fill="#7b9a65" d="M 215.5,294.5 C 216.609,293.71 217.942,293.21 219.5,293C 217.527,292.505 215.527,292.338 213.5,292.5C 213.5,296.5 213.5,300.5 213.5,304.5C 215.527,304.662 217.527,304.495 219.5,304C 217.942,303.79 216.609,303.29 215.5,302.5C 217.167,302.5 218.833,302.5 220.5,302.5C 220.5,303.5 220.5,304.5 220.5,305.5C 217.833,305.5 215.167,305.5 212.5,305.5C 212.5,300.833 212.5,296.167 212.5,291.5C 215.167,291.5 217.833,291.5 220.5,291.5C 220.5,292.5 220.5,293.5 220.5,294.5C 218.833,294.5 217.167,294.5 215.5,294.5 Z"/></g>
<g><path style="opacity:1" fill="#467027" d="M 215.5,294.5 C 216.552,296.256 218.219,296.923 220.5,296.5C 220.5,297.5 220.5,298.5 220.5,299.5C 218.833,299.5 217.167,299.5 215.5,299.5C 215.5,300.5 215.5,301.5 215.5,302.5C 216.609,303.29 217.942,303.79 219.5,304C 217.527,304.495 215.527,304.662 213.5,304.5C 213.5,300.5 213.5,296.5 213.5,292.5C 215.527,292.338 217.527,292.505 219.5,293C 217.942,293.21 216.609,293.71 215.5,294.5 Z"/></g>
<g><path style="opacity:1" fill="#4e7730" d="M 238.5,291.5 C 243.993,290.178 246.493,292.178 246,297.5C 244.89,299.037 243.39,299.703 241.5,299.5C 241.5,301.5 241.5,303.5 241.5,305.5C 240.5,305.5 239.5,305.5 238.5,305.5C 238.5,300.833 238.5,296.167 238.5,291.5 Z"/></g>
<g><path style="opacity:1" fill="#3c6a1b" d="M 249.5,291.5 C 251.414,294.684 252.08,298.351 251.5,302.5C 252.263,303.268 253.263,303.768 254.5,304C 252.866,304.494 251.199,304.66 249.5,304.5C 249.5,300.167 249.5,295.833 249.5,291.5 Z"/></g>
<g><path style="opacity:1" fill="#4a742c" d="M 264.5,298.5 C 262.833,298.5 261.167,298.5 259.5,298.5C 259.232,300.099 259.566,301.432 260.5,302.5C 261.833,302.5 263.167,302.5 264.5,302.5C 264.5,303.5 264.5,304.5 264.5,305.5C 262.167,305.5 259.833,305.5 257.5,305.5C 257.5,300.833 257.5,296.167 257.5,291.5C 259.833,291.5 262.167,291.5 264.5,291.5C 264.5,292.5 264.5,293.5 264.5,294.5C 263.022,294.238 261.689,294.571 260.5,295.5C 262.332,296.057 263.665,297.057 264.5,298.5 Z"/></g>
<g><path style="opacity:1" fill="#779760" d="M 298.5,304.5 C 299.794,302.952 300.461,300.952 300.5,298.5C 300.333,296.5 300.167,294.5 300,292.5C 299.814,295.036 299.314,297.369 298.5,299.5C 298.5,296.833 298.5,294.167 298.5,291.5C 299.5,291.5 300.5,291.5 301.5,291.5C 301.5,296.167 301.5,300.833 301.5,305.5C 300.209,305.737 299.209,305.404 298.5,304.5 Z"/></g>
<g><path style="opacity:1" fill="#356412" d="M 323.5,292.5 C 322.833,293.167 322.167,293.833 321.5,294.5C 320.679,297.641 320.179,300.975 320,304.5C 319.821,300.975 319.321,297.641 318.5,294.5C 318.082,293.778 317.416,293.278 316.5,293C 318.81,292.503 321.143,292.337 323.5,292.5 Z"/></g>
<g><path style="opacity:1" fill="#3d6a1c" d="M 325.5,292.5 C 326.777,293.694 327.444,295.36 327.5,297.5C 327.493,299.369 327.16,301.036 326.5,302.5C 325.521,299.375 325.187,296.042 325.5,292.5 Z"/></g>
<g><path style="opacity:1" fill="#406c1f" d="M 332.5,304.5 C 331.127,304.657 329.793,304.49 328.5,304C 329.737,303.768 330.737,303.268 331.5,302.5C 332.166,298.979 332.833,295.313 333.5,291.5C 334.66,295.459 334.827,299.459 334,303.5C 333.617,304.056 333.117,304.389 332.5,304.5 Z"/></g>
<g><path style="opacity:1" fill="#4d762e" d="M 345.5,303.5 C 344.652,304.625 343.652,304.625 342.5,303.5C 342.631,302.624 342.298,301.957 341.5,301.5C 340.571,302.689 340.238,304.022 340.5,305.5C 339.5,305.5 338.5,305.5 337.5,305.5C 337.5,300.833 337.5,296.167 337.5,291.5C 344.959,290.77 346.959,293.604 343.5,300C 343.978,301.303 344.645,302.469 345.5,303.5 Z"/></g>
<g><path style="opacity:1" fill="#75955d" d="M 351.5,294.5 C 352.609,293.71 353.942,293.21 355.5,293C 353.527,292.505 351.527,292.338 349.5,292.5C 349.5,296.5 349.5,300.5 349.5,304.5C 352.082,304.975 354.082,304.308 355.5,302.5C 356.404,303.209 356.737,304.209 356.5,305.5C 353.833,305.5 351.167,305.5 348.5,305.5C 348.5,300.833 348.5,296.167 348.5,291.5C 351.167,291.5 353.833,291.5 356.5,291.5C 356.5,292.5 356.5,293.5 356.5,294.5C 354.833,294.5 353.167,294.5 351.5,294.5 Z"/></g>
<g><path style="opacity:1" fill="#4c752e" d="M 351.5,294.5 C 352.552,296.256 354.219,296.923 356.5,296.5C 356.5,297.5 356.5,298.5 356.5,299.5C 354.833,299.5 353.167,299.5 351.5,299.5C 351.5,300.5 351.5,301.5 351.5,302.5C 352.833,302.5 354.167,302.5 355.5,302.5C 354.082,304.308 352.082,304.975 349.5,304.5C 349.5,300.5 349.5,296.5 349.5,292.5C 351.527,292.338 353.527,292.505 355.5,293C 353.942,293.21 352.609,293.71 351.5,294.5 Z"/></g>
<g><path style="opacity:1" fill="#4c752d" d="M 173.5,291.5 C 180.718,290.566 184.218,293.566 184,300.5C 180.979,305.667 176.979,306.667 172,303.5C 169.66,299.052 170.16,295.052 173.5,291.5 Z"/></g>
<g><path style="opacity:1" fill="#86a271" d="M 323.5,292.5 C 321.143,292.337 318.81,292.503 316.5,293C 317.416,293.278 318.082,293.778 318.5,294.5C 317.5,294.5 316.5,294.5 315.5,294.5C 315.5,293.5 315.5,292.5 315.5,291.5C 318.385,291.194 321.052,291.527 323.5,292.5 Z"/></g>
<g><path style="opacity:1" fill="#90aa7d" d="M 151.5,292.5 C 152.776,293.386 152.776,294.386 151.5,295.5C 150.893,295.376 150.56,295.043 150.5,294.5C 151.338,294.158 151.672,293.492 151.5,292.5 Z"/></g>
<g><path style="opacity:1" fill="#ecf0e9" d="M 174.5,293.5 C 180.803,293.924 182.469,296.757 179.5,302C 172.416,302.475 170.749,299.642 174.5,293.5 Z"/></g>
<g><path style="opacity:1" fill="#d3decc" d="M 112.5,294.5 C 113.675,294.281 114.675,294.614 115.5,295.5C 113.948,296.798 112.948,296.465 112.5,294.5 Z"/></g>
<g><path style="opacity:1" fill="#ced9c5" d="M 189.5,294.5 C 190.675,294.281 191.675,294.614 192.5,295.5C 190.948,296.798 189.948,296.465 189.5,294.5 Z"/></g>
<g><path style="opacity:1" fill="#d9e1d2" d="M 205.5,294.5 C 206.675,294.281 207.675,294.614 208.5,295.5C 206.948,296.798 205.948,296.465 205.5,294.5 Z"/></g>
<g><path style="opacity:1" fill="#edf1ea" d="M 241.5,294.5 C 243.337,294.639 243.67,295.306 242.5,296.5C 241.702,296.043 241.369,295.376 241.5,294.5 Z"/></g>
<g><path style="opacity:1" fill="#75965d" d="M 318.5,294.5 C 319.321,297.641 319.821,300.975 320,304.5C 320.179,300.975 320.679,297.641 321.5,294.5C 321.5,298.167 321.5,301.833 321.5,305.5C 320.5,305.5 319.5,305.5 318.5,305.5C 318.5,301.833 318.5,298.167 318.5,294.5 Z"/></g>
<g><path style="opacity:1" fill="#edf1ea" d="M 340.5,294.5 C 342.337,294.639 342.67,295.306 341.5,296.5C 340.702,296.043 340.369,295.376 340.5,294.5 Z"/></g>
<g><path style="opacity:1" fill="#396717" d="M 164.5,294.5 C 164.5,295.167 164.5,295.833 164.5,296.5C 165.263,297.268 166.263,297.768 167.5,298C 166.263,298.232 165.263,298.732 164.5,299.5C 163.698,300.952 163.198,302.618 163,304.5C 162.501,300.514 162.334,296.514 162.5,292.5C 164.199,292.34 165.866,292.506 167.5,293C 166.263,293.232 165.263,293.732 164.5,294.5 Z"/></g>
<g><path style="opacity:1" fill="#416d21" d="M 298.5,299.5 C 299.314,297.369 299.814,295.036 300,292.5C 300.167,294.5 300.333,296.5 300.5,298.5C 300.461,300.952 299.794,302.952 298.5,304.5C 297.167,302.5 295.833,300.5 294.5,298.5C 294.44,297.957 294.107,297.624 293.5,297.5C 292.52,300.086 292.187,302.753 292.5,305.5C 290.564,301.285 289.897,296.619 290.5,291.5C 291.675,291.281 292.675,291.614 293.5,292.5C 294.943,295.077 296.61,297.41 298.5,299.5 Z"/></g>
<g><path style="opacity:1" fill="#98b086" d="M 130.5,298.5 C 129.833,300.833 129.167,303.167 128.5,305.5C 128.187,302.753 128.52,300.086 129.5,297.5C 130.107,297.624 130.44,297.957 130.5,298.5 Z"/></g>
<g><path style="opacity:1" fill="#7a9962" d="M 164.5,296.5 C 165.833,296.5 167.167,296.5 168.5,296.5C 168.5,297.5 168.5,298.5 168.5,299.5C 167.167,299.5 165.833,299.5 164.5,299.5C 165.263,298.732 166.263,298.232 167.5,298C 166.263,297.768 165.263,297.268 164.5,296.5 Z"/></g>
<g><path style="opacity:1" fill="#8da87a" d="M 264.5,298.5 C 263.432,299.434 262.099,299.768 260.5,299.5C 260.5,300.5 260.5,301.5 260.5,302.5C 259.566,301.432 259.232,300.099 259.5,298.5C 261.167,298.5 262.833,298.5 264.5,298.5 Z"/></g>
<g><path style="opacity:1" fill="#a2b792" d="M 294.5,298.5 C 293.833,300.833 293.167,303.167 292.5,305.5C 292.187,302.753 292.52,300.086 293.5,297.5C 294.107,297.624 294.44,297.957 294.5,298.5 Z"/></g>
<g><path style="opacity:1" fill="#4c752e" d="M 307.5,291.5 C 308.822,291.33 309.989,291.663 311,292.5C 313.311,296.758 314.478,301.091 314.5,305.5C 311.167,301.5 307.833,301.5 304.5,305.5C 304.167,304.833 303.833,304.167 303.5,303.5C 305.317,299.675 306.65,295.675 307.5,291.5 Z"/></g>
<g><path style="opacity:1" fill="#e2e9dd" d="M 308.5,296.5 C 310.465,296.948 310.798,297.948 309.5,299.5C 308.614,298.675 308.281,297.675 308.5,296.5 Z"/></g>
<g><path style="opacity:1" fill="#487329" d="M 134.5,292.5 C 135.794,294.048 136.461,296.048 136.5,298.5C 136.461,300.952 135.794,302.952 134.5,304.5C 132.774,302.772 131.441,300.772 130.5,298.5C 130.44,297.957 130.107,297.624 129.5,297.5C 128.52,300.086 128.187,302.753 128.5,305.5C 126.564,301.285 125.897,296.619 126.5,291.5C 127.675,291.281 128.675,291.614 129.5,292.5C 131,294.833 132.5,297.167 134,299.5C 134.497,297.19 134.663,294.857 134.5,292.5 Z"/></g>
<g><path style="opacity:1" fill="#4f7831" d="M 100.5,291.5 C 101.496,291.414 102.329,291.748 103,292.5C 105.558,296.641 106.725,300.975 106.5,305.5C 104.575,302.828 101.908,301.828 98.5,302.5C 98.5,303.5 98.5,304.5 98.5,305.5C 97.5,305.5 96.5,305.5 95.5,305.5C 96.3711,300.554 98.0377,295.887 100.5,291.5 Z"/></g>
<g><path style="opacity:1" fill="#d8e1d1" d="M 100.5,295.5 C 101.586,295.62 102.253,296.287 102.5,297.5C 102.167,298.167 101.833,298.833 101.5,299.5C 100.571,298.311 100.238,296.978 100.5,295.5 Z"/></g>
<g><path style="opacity:1" fill="#4d762e" d="M 151.5,292.5 C 151.672,293.492 151.338,294.158 150.5,294.5C 144.577,292.258 142.077,294.258 143,300.5C 145.218,302.619 147.718,302.952 150.5,301.5C 149.5,300.833 148.5,300.167 147.5,299.5C 149.396,298.534 151.396,298.201 153.5,298.5C 152.973,304.849 149.639,307.016 143.5,305C 138.274,300.585 138.274,296.251 143.5,292C 146.221,291.398 148.887,291.565 151.5,292.5 Z"/></g>
<g><path style="opacity:1" fill="#5e8342" d="M 192.5,292.5 C 190.833,292.5 189.167,292.5 187.5,292.5C 186.77,298.753 187.104,301.419 188.5,300.5C 190.199,300.473 191.533,299.806 192.5,298.5C 193.014,300.366 193.68,302.2 194.5,304C 194.15,305.257 193.483,305.591 192.5,305C 190.332,300.301 189.332,300.468 189.5,305.5C 188.5,305.5 187.5,305.5 186.5,305.5C 186.5,300.833 186.5,296.167 186.5,291.5C 188.735,291.205 190.735,291.539 192.5,292.5 Z"/></g>
<g><path style="opacity:1" fill="#4f7730" d="M 225.5,291.5 C 232.718,290.566 236.218,293.566 236,300.5C 233.078,305.822 229.078,306.822 224,303.5C 221.66,299.052 222.16,295.052 225.5,291.5 Z"/></g>
<g><path style="opacity:1" fill="#edf1ea" d="M 227.5,293.5 C 233.643,294.026 234.976,296.86 231.5,302C 224,302.196 222.667,299.363 227.5,293.5 Z"/></g>
<g><path style="opacity:1" fill="#4d762f" d="M 273.5,292.5 C 279.431,291.742 280.764,293.742 277.5,298.5C 278.824,299.935 280.49,300.935 282.5,301.5C 281.167,302.5 281.167,303.5 282.5,304.5C 282,304.833 281.5,305.167 281,305.5C 278.003,305.423 275.003,305.09 272,304.5C 272.992,300.705 273.492,296.705 273.5,292.5 Z"/></g>
<g><path style="opacity:1" fill="#a2b791" d="M 274.5,300.5 C 278.31,301.754 278.31,302.754 274.5,303.5C 274.5,302.5 274.5,301.5 274.5,300.5 Z"/></g>
<g><path style="opacity:1" fill="#7e9c68" d="M 249.5,291.5 C 249.5,295.833 249.5,300.167 249.5,304.5C 251.199,304.66 252.866,304.494 254.5,304C 253.263,303.768 252.263,303.268 251.5,302.5C 252.833,302.5 254.167,302.5 255.5,302.5C 255.5,303.5 255.5,304.5 255.5,305.5C 253.167,305.5 250.833,305.5 248.5,305.5C 248.181,300.637 248.514,295.97 249.5,291.5 Z"/></g>
<g><path style="opacity:1" fill="#6b8d51" d="M 325.5,292.5 C 326.209,291.596 327.209,291.263 328.5,291.5C 328.5,295.167 328.5,298.833 328.5,302.5C 329.5,302.5 330.5,302.5 331.5,302.5C 330.737,303.268 329.737,303.768 328.5,304C 329.793,304.49 331.127,304.657 332.5,304.5C 331.054,305.613 329.387,305.78 327.5,305C 326.748,304.329 326.414,303.496 326.5,302.5C 327.16,301.036 327.493,299.369 327.5,297.5C 327.444,295.36 326.777,293.694 325.5,292.5 Z"/></g>
<g><path style="opacity:1" fill="#90a97c" d="M 342.5,303.5 C 343.652,304.625 344.652,304.625 345.5,303.5C 346.751,304.472 346.418,305.139 344.5,305.5C 343.287,305.253 342.62,304.586 342.5,303.5 Z"/></g>
<g><path style="opacity:1" fill="#457025" d="M 417.5,318.5 C 416.833,318.5 416.5,318.167 416.5,317.5C 417.531,314.289 419.531,312.456 422.5,312C 423.517,313.049 423.684,314.216 423,315.5C 421.22,316.639 419.386,317.639 417.5,318.5 Z"/></g>
<g><path style="opacity:1" fill="#b3c5a5" d="M 107.5,325.5 C 100.329,326.358 92.9954,327.024 85.5,327.5C 85.9175,326.778 86.5842,326.278 87.5,326C 94.1583,325.5 100.825,325.334 107.5,325.5 Z"/></g>
<g><path style="opacity:1" fill="#396717" d="M 107.5,325.5 C 125.186,325.854 142.853,326.687 160.5,328C 186.474,330.582 212.474,332.748 238.5,334.5C 248.934,336.449 259.601,337.449 270.5,337.5C 288.818,338.369 307.151,338.703 325.5,338.5C 334.733,338.925 343.733,338.259 352.5,336.5C 361.669,334.959 371.002,333.625 380.5,332.5C 382.993,332.131 383.66,332.797 382.5,334.5C 372.291,337.636 361.958,340.302 351.5,342.5C 347.21,342.198 343.21,342.864 339.5,344.5C 292.076,348.988 244.742,348.321 197.5,342.5C 187.742,340.362 177.742,339.029 167.5,338.5C 158.167,337.5 148.834,336.5 139.5,335.5C 134.731,334.111 129.731,333.444 124.5,333.5C 105.191,331.501 85.8581,331.168 66.5,332.5C 64.8008,332.66 63.1341,332.494 61.5,332C 62.4158,331.722 63.0825,331.222 63.5,330.5C 69.7913,330.505 75.7913,329.505 81.5,327.5C 82.8333,327.5 84.1667,327.5 85.5,327.5C 92.9954,327.024 100.329,326.358 107.5,325.5 Z"/></g>
<g><path style="opacity:1" fill="#6c8e52" d="M 81.5,327.5 C 75.7913,329.505 69.7913,330.505 63.5,330.5C 69.2087,328.495 75.2087,327.495 81.5,327.5 Z"/></g>
<g><path style="opacity:1" fill="#587e3a" d="M 63.5,330.5 C 63.0825,331.222 62.4158,331.722 61.5,332C 63.1341,332.494 64.8008,332.66 66.5,332.5C 55.0553,334.193 43.722,336.86 32.5,340.5C 32.5,340.167 32.5,339.833 32.5,339.5C 42.4674,335.37 52.8007,332.37 63.5,330.5 Z"/></g>
<g><path style="opacity:1" fill="#5a803d" d="M 416.5,317.5 C 416.5,318.167 416.833,318.5 417.5,318.5C 406.417,324.978 394.75,330.312 382.5,334.5C 383.66,332.797 382.993,332.131 380.5,332.5C 386.483,329.655 392.816,327.488 399.5,326C 405.22,323.14 410.886,320.307 416.5,317.5 Z"/></g>
<g><path style="opacity:1" fill="#8fa97b" d="M 124.5,333.5 C 129.731,333.444 134.731,334.111 139.5,335.5C 134.25,335.698 129.25,335.031 124.5,333.5 Z"/></g>
<g><path style="opacity:1" fill="#84a06d" d="M 238.5,334.5 C 249.377,334.791 260.044,335.791 270.5,337.5C 259.601,337.449 248.934,336.449 238.5,334.5 Z"/></g>
<g><path style="opacity:1" fill="#65894a" d="M 352.5,336.5 C 343.733,338.259 334.733,338.925 325.5,338.5C 334.321,337.449 343.321,336.783 352.5,336.5 Z"/></g>
<g><path style="opacity:1" fill="#6e8f54" d="M 167.5,338.5 C 177.742,339.029 187.742,340.362 197.5,342.5C 187.258,341.988 177.258,340.655 167.5,338.5 Z"/></g>
<g><path style="opacity:1" fill="#b9c9ac" d="M 32.5,339.5 C 32.5,339.833 32.5,340.167 32.5,340.5C 29.855,342.31 26.855,343.31 23.5,343.5C 26.0878,341.375 29.0878,340.042 32.5,339.5 Z"/></g>
<g><path style="opacity:1" fill="#d1dcc9" d="M 351.5,342.5 C 347.79,344.136 343.79,344.802 339.5,344.5C 343.21,342.864 347.21,342.198 351.5,342.5 Z"/></g>
<g><path style="opacity:1" fill="#a6bb96" d="M 23.5,343.5 C 21.8212,345.175 19.8212,346.008 17.5,346C 19.1579,344.337 21.1579,343.504 23.5,343.5 Z"/></g>
</svg>
