<?xml version="1.0" encoding="UTF-8"?>
<!DOCTYPE svg PUBLIC "-//W3C//DTD SVG 1.1//EN" "http://www.w3.org/Graphics/SVG/1.1/DTD/svg11.dtd">
<svg xmlns="http://www.w3.org/2000/svg" version="1.1" width="438px" height="438px" style="shape-rendering:geometricPrecision; text-rendering:geometricPrecision; image-rendering:optimizeQuality; fill-rule:evenodd; clip-rule:evenodd" xmlns:xlink="http://www.w3.org/1999/xlink">
<g><path style="opacity:1" fill="#fefefe" d="M -0.5,-0.5 C 145.5,-0.5 291.5,-0.5 437.5,-0.5C 437.5,145.5 437.5,291.5 437.5,437.5C 291.5,437.5 145.5,437.5 -0.5,437.5C -0.5,291.5 -0.5,145.5 -0.5,-0.5 Z"/></g>
<g><path style="opacity:1" fill="#ac9090" d="M 239.5,143.5 C 243.489,143.116 247.155,143.783 250.5,145.5C 246.613,145.354 242.946,144.687 239.5,143.5 Z"/></g>
<g><path style="opacity:1" fill="#622826" d="M 239.5,143.5 C 242.946,144.687 246.613,145.354 250.5,145.5C 254.193,146.06 257.86,146.727 261.5,147.5C 263.515,148.924 265.848,149.59 268.5,149.5C 270.05,150.441 271.716,151.107 273.5,151.5C 275.031,152.925 274.698,153.591 272.5,153.5C 269.659,153.44 266.993,152.774 264.5,151.5C 262.485,150.076 260.152,149.41 257.5,149.5C 242.961,146.924 228.294,145.924 213.5,146.5C 208.155,146.687 202.822,147.02 197.5,147.5C 196.127,147.657 194.793,147.49 193.5,147C 196.457,146.721 199.123,145.887 201.5,144.5C 213.977,142.322 226.643,141.989 239.5,143.5 Z"/></g>
<g><path style="opacity:1" fill="#692f30" d="M 201.5,144.5 C 199.123,145.887 196.457,146.721 193.5,147C 194.793,147.49 196.127,147.657 197.5,147.5C 197.5,147.833 197.5,148.167 197.5,148.5C 187.589,149.803 177.923,152.137 168.5,155.5C 167.494,155.062 167.494,154.396 168.5,153.5C 179.021,149.11 190.021,146.11 201.5,144.5 Z"/></g>
<g><path style="opacity:1" fill="#d0c2c2" d="M 213.5,146.5 C 208.384,147.806 203.051,148.473 197.5,148.5C 197.5,148.167 197.5,147.833 197.5,147.5C 202.822,147.02 208.155,146.687 213.5,146.5 Z"/></g>
<g><path style="opacity:1" fill="#bda6a8" d="M 261.5,147.5 C 264.152,147.41 266.485,148.076 268.5,149.5C 265.848,149.59 263.515,148.924 261.5,147.5 Z"/></g>
<g><path style="opacity:1" fill="#835a5b" d="M 257.5,149.5 C 260.152,149.41 262.485,150.076 264.5,151.5C 261.848,151.59 259.515,150.924 257.5,149.5 Z"/></g>
<g><path style="opacity:1" fill="#6d383a" d="M 273.5,151.5 C 284.729,155.781 295.396,161.114 305.5,167.5C 305.5,168.167 305.167,168.5 304.5,168.5C 294.199,162.484 283.532,157.484 272.5,153.5C 274.698,153.591 275.031,152.925 273.5,151.5 Z"/></g>
<g><path style="opacity:1" fill="#744749" d="M 168.5,153.5 C 167.494,154.396 167.494,155.062 168.5,155.5C 159.945,159.778 151.278,164.111 142.5,168.5C 141.833,168.5 141.5,168.167 141.5,167.5C 149.772,161.53 158.772,156.863 168.5,153.5 Z"/></g>
<g><path style="opacity:1" fill="#5d2124" d="M 249.5,176.5 C 249.552,172.802 249.886,169.135 250.5,165.5C 235.5,165.5 220.5,165.5 205.5,165.5C 205.5,167.833 205.5,170.167 205.5,172.5C 204.527,170.052 204.194,167.385 204.5,164.5C 220.167,164.5 235.833,164.5 251.5,164.5C 251.656,168.764 250.989,172.764 249.5,176.5 Z"/></g>
<g><path style="opacity:1" fill="#93777b" d="M 141.5,167.5 C 141.5,168.167 141.833,168.5 142.5,168.5C 139.554,171.313 136.221,173.646 132.5,175.5C 132.167,175.5 131.833,175.5 131.5,175.5C 134.52,172.484 137.854,169.817 141.5,167.5 Z"/></g>
<g><path style="opacity:1" fill="#724243" d="M 205.5,172.5 C 208.85,172.335 212.183,172.502 215.5,173C 216.056,173.383 216.389,173.883 216.5,174.5C 213.693,173.343 211.026,173.343 208.5,174.5C 207.167,174.5 206.5,175.167 206.5,176.5C 205.566,175.432 205.232,174.099 205.5,172.5 Z"/></g>
<g><path style="opacity:1" fill="#947a7e" d="M 305.5,167.5 C 310.909,170.734 315.909,174.568 320.5,179C 319.833,179.667 319.167,179.667 318.5,179C 313.944,175.236 309.277,171.736 304.5,168.5C 305.167,168.5 305.5,168.167 305.5,167.5 Z"/></g>
<g><path style="opacity:1" fill="#5a1918" d="M 208.5,174.5 C 210.805,175.989 213.138,177.489 215.5,179C 213.182,180.993 210.516,182.159 207.5,182.5C 207.167,180.5 206.833,178.5 206.5,176.5C 206.5,175.167 207.167,174.5 208.5,174.5 Z"/></g>
<g><path style="opacity:1" fill="#c6bcbe" d="M 131.5,175.5 C 131.833,175.5 132.167,175.5 132.5,175.5C 129.878,177.782 127.212,180.115 124.5,182.5C 123.479,181.998 123.312,181.332 124,180.5C 126.4,178.585 128.9,176.919 131.5,175.5 Z"/></g>
<g><path style="opacity:1" fill="#e4dcdc" d="M 226.5,180.5 C 231.965,183.066 237.298,185.899 242.5,189C 239.5,189.667 236.5,189.667 233.5,189C 229.931,187.058 226.598,184.892 223.5,182.5C 225.179,182.715 226.179,182.048 226.5,180.5 Z"/></g>
<g><path style="opacity:1" fill="#998869" d="M 55.5,200.5 C 53.5,199.167 51.5,199.167 49.5,200.5C 48.6236,200.631 47.9569,200.298 47.5,199.5C 51.122,198.341 54.7887,198.175 58.5,199C 57.7562,200.039 56.7562,200.539 55.5,200.5 Z"/></g>
<g><path style="opacity:1" fill="#9b8a6e" d="M 94.5,200.5 C 93.1667,199.167 91.8333,199.167 90.5,200.5C 89.0222,200.762 87.6888,200.429 86.5,199.5C 90.1667,198.167 93.8333,198.167 97.5,199.5C 96.675,200.386 95.675,200.719 94.5,200.5 Z"/></g>
<g><path style="opacity:1" fill="#907e5b" d="M 123.5,199.5 C 123.5,199.833 123.5,200.167 123.5,200.5C 118.6,200.033 113.933,200.699 109.5,202.5C 109.5,201.833 109.167,201.5 108.5,201.5C 109.058,200.21 110.058,199.377 111.5,199C 113.8,198.342 116.133,197.842 118.5,197.5C 120.557,197.436 122.223,198.102 123.5,199.5 Z"/></g>
<g><path style="opacity:1" fill="#958767" d="M 345.5,200.5 C 343.833,199.167 342.167,199.167 340.5,200.5C 339.711,200.217 339.044,199.717 338.5,199C 341.5,198.333 344.5,198.333 347.5,199C 346.956,199.717 346.289,200.217 345.5,200.5 Z"/></g>
<g><path style="opacity:1" fill="#8b7852" d="M 205.5,200.5 C 204.833,200.5 204.5,200.833 204.5,201.5C 199.881,200.686 195.214,200.353 190.5,200.5C 189.167,199.167 187.833,199.167 186.5,200.5C 185.244,200.539 184.244,200.039 183.5,199C 186.333,198.833 189.167,198.667 192,198.5C 196.758,198.366 201.258,199.032 205.5,200.5 Z"/></g>
<g><path style="opacity:1" fill="#928262" d="M 257.5,200.5 C 255.833,199.167 254.167,199.167 252.5,200.5C 251.244,200.539 250.244,200.039 249.5,199C 253.167,198.333 256.833,198.333 260.5,199C 259.756,200.039 258.756,200.539 257.5,200.5 Z"/></g>
<g><path style="opacity:1" fill="#928268" d="M 321.5,199.5 C 319.901,199.232 318.568,199.566 317.5,200.5C 313.556,199.726 313.723,199.059 318,198.5C 319.385,198.514 320.551,198.848 321.5,199.5 Z"/></g>
<g><path style="opacity:1" fill="#faf9f8" d="M 123.5,200.5 C 131.03,205.583 133.53,212.583 131,221.5C 128.08,231.877 121.58,235.21 111.5,231.5C 104.325,222.251 103.659,212.585 109.5,202.5C 113.933,200.699 118.6,200.033 123.5,200.5 Z"/></g>
<g><path style="opacity:1" fill="#907d5a" d="M 165.5,199.5 C 164.833,199.5 164.5,199.833 164.5,200.5C 159.86,199.975 155.527,200.642 151.5,202.5C 151.158,201.662 150.492,201.328 149.5,201.5C 150.058,200.21 151.058,199.377 152.5,199C 157.02,198.186 161.354,198.353 165.5,199.5 Z"/></g>
<g><path style="opacity:1" fill="#fafaf8" d="M 164.5,200.5 C 168.471,202.786 170.804,206.119 171.5,210.5C 171.608,215.87 171.275,221.203 170.5,226.5C 164.448,234.869 157.615,235.535 150,228.5C 146.669,222.582 145.669,216.249 147,209.5C 148.026,206.761 149.526,204.428 151.5,202.5C 155.527,200.642 159.86,199.975 164.5,200.5 Z"/></g>
<g><path style="opacity:1" fill="#fbfaf8" d="M 190.5,200.5 C 195.214,200.353 199.881,200.686 204.5,201.5C 207.139,203.309 209.306,205.642 211,208.5C 211.781,213.917 211.615,219.25 210.5,224.5C 209.442,227.397 207.442,229.564 204.5,231C 199.934,232.309 195.267,232.809 190.5,232.5C 190.5,221.833 190.5,211.167 190.5,200.5 Z"/></g>
<g><path style="opacity:1" fill="#f9f8f6" d="M 362.5,200.5 C 369.358,199.437 375.358,201.104 380.5,205.5C 381.73,207.297 382.396,209.297 382.5,211.5C 384.5,227.5 377.5,234.5 361.5,232.5C 361.172,221.654 361.506,210.987 362.5,200.5 Z"/></g>
<g><path style="opacity:1" fill="#7b5c29" d="M 82.5,227.5 C 83.8062,228.467 84.4729,229.801 84.5,231.5C 84.5,231.833 84.5,232.167 84.5,232.5C 83.8501,232.804 83.1835,233.137 82.5,233.5C 81.3037,231.855 80.3037,230.189 79.5,228.5C 79.5905,225.848 78.9238,223.515 77.5,221.5C 75.9157,216.584 74.5824,211.584 73.5,206.5C 72.032,205.221 71.3653,203.554 71.5,201.5C 71.5,200.5 71.5,199.5 71.5,198.5C 72.5,198.5 73.5,198.5 74.5,198.5C 77.3238,208.129 79.9904,217.796 82.5,227.5 Z"/></g>
<g><path style="opacity:1" fill="#715214" d="M 293.5,204.5 C 292.833,203.833 292.167,203.167 291.5,202.5C 291.5,201.833 291.5,201.167 291.5,200.5C 293.806,198.986 295.139,199.652 295.5,202.5C 295.253,203.713 294.586,204.38 293.5,204.5 Z"/></g>
<g><path style="opacity:1" fill="#81683c" d="M 381.5,203.5 C 380.662,203.842 380.328,204.508 380.5,205.5C 375.358,201.104 369.358,199.437 362.5,200.5C 360.833,199.167 359.167,199.167 357.5,200.5C 356.244,200.539 355.244,200.039 354.5,199C 360.5,198.333 366.5,198.333 372.5,199C 376.11,199.472 379.11,200.972 381.5,203.5 Z"/></g>
<g><path style="opacity:1" fill="#785a24" d="M 205.5,200.5 C 214.468,204.177 217.635,210.844 215,220.5C 214.256,222.9 213.423,225.233 212.5,227.5C 210.952,227.179 210.285,226.179 210.5,224.5C 211.615,219.25 211.781,213.917 211,208.5C 209.306,205.642 207.139,203.309 204.5,201.5C 204.5,200.833 204.833,200.5 205.5,200.5 Z"/></g>
<g><path style="opacity:1" fill="#907752" d="M 299.5,210.5 C 298.069,209.097 296.902,207.431 296,205.5C 295.517,206.448 295.351,207.448 295.5,208.5C 294.655,207.329 293.989,205.995 293.5,204.5C 294.586,204.38 295.253,203.713 295.5,202.5C 295.139,199.652 293.806,198.986 291.5,200.5C 292.455,198.29 293.955,197.957 296,199.5C 297.274,203.154 298.44,206.82 299.5,210.5 Z"/></g>
<g><path style="opacity:1" fill="#c7bca7" d="M 51.5,203.5 C 52.9238,205.515 53.5905,207.848 53.5,210.5C 52.0762,208.485 51.4095,206.152 51.5,203.5 Z"/></g>
<g><path style="opacity:1" fill="#f3f0ed" d="M 293.5,204.5 C 293.989,205.995 294.655,207.329 295.5,208.5C 296.696,211.421 297.696,214.421 298.5,217.5C 298.5,218.5 298.5,219.5 298.5,220.5C 294.5,220.5 290.5,220.5 286.5,220.5C 287.82,214.544 290.153,209.211 293.5,204.5 Z"/></g>
<g><path style="opacity:1" fill="#76551e" d="M 186.5,200.5 C 187.833,199.167 189.167,199.167 190.5,200.5C 190.5,211.167 190.5,221.833 190.5,232.5C 189.791,233.404 188.791,233.737 187.5,233.5C 187.828,222.321 187.495,211.321 186.5,200.5 Z"/></g>
<g><path style="opacity:1" fill="#76561d" d="M 299.5,210.5 C 300.11,211.391 300.443,212.391 300.5,213.5C 300.851,215.869 301.018,218.203 301,220.5C 300.617,219.944 300.117,219.611 299.5,219.5C 299.672,218.508 299.338,217.842 298.5,217.5C 297.696,214.421 296.696,211.421 295.5,208.5C 295.351,207.448 295.517,206.448 296,205.5C 296.902,207.431 298.069,209.097 299.5,210.5 Z"/></g>
<g><path style="opacity:1" fill="#724f14" d="M 381.5,203.5 C 384.012,205.478 385.512,208.145 386,211.5C 386.694,215.554 386.527,219.554 385.5,223.5C 383.869,219.768 382.869,215.768 382.5,211.5C 382.396,209.297 381.73,207.297 380.5,205.5C 380.328,204.508 380.662,203.842 381.5,203.5 Z"/></g>
<g><path style="opacity:1" fill="#845a5c" d="M 226.5,213.5 C 226.862,217.081 225.862,220.081 223.5,222.5C 224.331,219.341 225.331,216.341 226.5,213.5 Z"/></g>
<g><path style="opacity:1" fill="#75551b" d="M 252.5,200.5 C 254.167,199.167 255.833,199.167 257.5,200.5C 256.506,210.987 256.172,221.654 256.5,232.5C 255.167,233.833 253.833,233.833 252.5,232.5C 253.833,221.833 253.833,211.167 252.5,200.5 Z"/></g>
<g><path style="opacity:1" fill="#89724a" d="M 94.5,200.5 C 90.999,210.858 87.6656,221.192 84.5,231.5C 84.4729,229.801 83.8062,228.467 82.5,227.5C 85.3392,222.317 87.5059,216.651 89,210.5C 90.0429,207.243 90.5429,203.91 90.5,200.5C 91.8333,199.167 93.1667,199.167 94.5,200.5 Z"/></g>
<g><path style="opacity:1" fill="#907b55" d="M 71.5,201.5 C 71.3653,203.554 72.032,205.221 73.5,206.5C 72.4138,206.62 71.7472,207.287 71.5,208.5C 69.4932,214.278 67.4932,219.945 65.5,225.5C 65.6716,224.508 65.3382,223.842 64.5,223.5C 66.4669,215.937 68.8003,208.604 71.5,201.5 Z"/></g>
<g><path style="opacity:1" fill="#988968" d="M 344.5,202.5 C 344.5,213.167 344.5,223.833 344.5,234.5C 343.209,234.737 342.209,234.404 341.5,233.5C 343.158,223.374 344.158,213.04 344.5,202.5 Z"/></g>
<g><path style="opacity:1" fill="#c6b9a7" d="M 55.5,217.5 C 57.2766,220.505 58.2766,223.838 58.5,227.5C 56.7234,224.495 55.7234,221.162 55.5,217.5 Z"/></g>
<g><path style="opacity:1" fill="#745319" d="M 357.5,200.5 C 359.167,199.167 360.833,199.167 362.5,200.5C 361.506,210.987 361.172,221.654 361.5,232.5C 360.167,233.833 358.833,233.833 357.5,232.5C 358.833,221.833 358.833,211.167 357.5,200.5 Z"/></g>
<g><path style="opacity:1" fill="#856b40" d="M 291.5,202.5 C 292.167,203.167 292.833,203.833 293.5,204.5C 290.153,209.211 287.82,214.544 286.5,220.5C 288.473,221.163 290.639,221.496 293,221.5C 295.61,221.467 297.777,220.8 299.5,219.5C 300.117,219.611 300.617,219.944 301,220.5C 301.018,218.203 300.851,215.869 300.5,213.5C 303.462,219.197 305.962,225.197 308,231.5C 309.255,232.211 310.421,233.044 311.5,234C 307.5,234.667 303.5,234.667 299.5,234C 300.244,232.961 301.244,232.461 302.5,232.5C 303.645,230.047 303.312,227.713 301.5,225.5C 301.586,224.504 301.252,223.671 300.5,223C 295.5,222.333 290.5,222.333 285.5,223C 282.185,227.609 282.851,231.276 287.5,234C 283.789,234.825 280.122,234.659 276.5,233.5C 278.527,232.307 280.027,230.64 281,228.5C 284.279,220.274 287.279,211.941 290,203.5C 290.383,202.944 290.883,202.611 291.5,202.5 Z"/></g>
<g><path style="opacity:1" fill="#bbaf9a" d="M 298.5,217.5 C 299.338,217.842 299.672,218.508 299.5,219.5C 297.777,220.8 295.61,221.467 293,221.5C 290.639,221.496 288.473,221.163 286.5,220.5C 290.5,220.5 294.5,220.5 298.5,220.5C 298.5,219.5 298.5,218.5 298.5,217.5 Z"/></g>
<g><path style="opacity:1" fill="#7b5d2a" d="M 317.5,200.5 C 318.568,199.566 319.901,199.232 321.5,199.5C 328.19,208.2 334.523,217.2 340.5,226.5C 340.56,227.043 340.893,227.376 341.5,227.5C 342.821,218.675 342.821,210.009 341.5,201.5C 341.5,200.833 341.167,200.5 340.5,200.5C 342.167,199.167 343.833,199.167 345.5,200.5C 344.662,200.842 344.328,201.508 344.5,202.5C 344.158,213.04 343.158,223.374 341.5,233.5C 335.413,224.325 329.079,215.325 322.5,206.5C 322.44,205.957 322.107,205.624 321.5,205.5C 320.179,214.325 320.179,222.991 321.5,231.5C 321.5,231.833 321.5,232.167 321.5,232.5C 320.167,233.833 318.833,233.833 317.5,232.5C 318.833,221.833 318.833,211.167 317.5,200.5 Z"/></g>
<g><path style="opacity:1" fill="#b5a88f" d="M 341.5,201.5 C 342.821,210.009 342.821,218.675 341.5,227.5C 340.893,227.376 340.56,227.043 340.5,226.5C 341.493,218.35 341.826,210.017 341.5,201.5 Z"/></g>
<g><path style="opacity:1" fill="#7e6131" d="M 123.5,200.5 C 123.5,200.167 123.5,199.833 123.5,199.5C 131.637,201.647 135.637,206.981 135.5,215.5C 134.454,231.367 126.121,237.533 110.5,234C 101.736,226.798 99.2359,217.631 103,206.5C 104.704,204.627 106.537,202.96 108.5,201.5C 109.167,201.5 109.5,201.833 109.5,202.5C 103.659,212.585 104.325,222.251 111.5,231.5C 121.58,235.21 128.08,231.877 131,221.5C 133.53,212.583 131.03,205.583 123.5,200.5 Z"/></g>
<g><path style="opacity:1" fill="#581313" d="M 249.5,176.5 C 247.031,188.143 240.531,196.809 230,202.5C 228.066,214.537 231.566,224.537 240.5,232.5C 236.555,233.825 232.222,234.492 227.5,234.5C 222.987,234.499 218.653,234.166 214.5,233.5C 218.574,230.755 221.574,227.088 223.5,222.5C 225.862,220.081 226.862,217.081 226.5,213.5C 228.42,206.158 226.087,200.991 219.5,198C 216.317,194.985 213.317,191.818 210.5,188.5C 213.109,185.856 216.109,183.689 219.5,182C 220.928,181.421 222.262,181.588 223.5,182.5C 226.598,184.892 229.931,187.058 233.5,189C 236.5,189.667 239.5,189.667 242.5,189C 237.298,185.899 231.965,183.066 226.5,180.5C 226.389,179.883 226.056,179.383 225.5,179C 227.389,177.236 229.389,175.736 231.5,174.5C 232.376,174.631 233.043,174.298 233.5,173.5C 231.027,172.203 228.693,172.203 226.5,173.5C 224.33,174.749 221.996,175.749 219.5,176.5C 217.962,176.547 216.962,175.88 216.5,174.5C 216.389,173.883 216.056,173.383 215.5,173C 212.183,172.502 208.85,172.335 205.5,172.5C 205.5,170.167 205.5,167.833 205.5,165.5C 220.5,165.5 235.5,165.5 250.5,165.5C 249.886,169.135 249.552,172.802 249.5,176.5 Z"/></g>
<g><path style="opacity:1" fill="#baa3a3" d="M 226.5,173.5 C 228.693,172.203 231.027,172.203 233.5,173.5C 233.043,174.298 232.376,174.631 231.5,174.5C 230.081,173.549 228.415,173.216 226.5,173.5 Z"/></g>
<g><path style="opacity:1" fill="#7b5c28" d="M 49.5,200.5 C 51.5,199.167 53.5,199.167 55.5,200.5C 57.2122,209.641 59.5455,218.641 62.5,227.5C 63.3624,226.234 64.0291,224.901 64.5,223.5C 65.3382,223.842 65.6716,224.508 65.5,225.5C 64.4222,228.402 63.7556,231.402 63.5,234.5C 62.5,234.5 61.5,234.5 60.5,234.5C 60.233,232.035 59.5664,229.701 58.5,227.5C 58.2766,223.838 57.2766,220.505 55.5,217.5C 54.9853,215.106 54.3186,212.772 53.5,210.5C 53.5905,207.848 52.9238,205.515 51.5,203.5C 51.573,201.973 50.9063,200.973 49.5,200.5 Z"/></g>
<g><path style="opacity:1" fill="#c5baa5" d="M 77.5,221.5 C 78.9238,223.515 79.5905,225.848 79.5,228.5C 78.0762,226.485 77.4095,224.152 77.5,221.5 Z"/></g>
<g><path style="opacity:1" fill="#7d612f" d="M 164.5,200.5 C 164.5,199.833 164.833,199.5 165.5,199.5C 173.098,202.004 176.765,207.337 176.5,215.5C 175.633,230.863 167.633,237.03 152.5,234C 143.465,228.243 140.298,220.076 143,209.5C 144.467,206.213 146.634,203.546 149.5,201.5C 150.492,201.328 151.158,201.662 151.5,202.5C 149.526,204.428 148.026,206.761 147,209.5C 145.669,216.249 146.669,222.582 150,228.5C 157.615,235.535 164.448,234.869 170.5,226.5C 172.006,223.644 172.672,220.477 172.5,217C 172.496,214.639 172.163,212.473 171.5,210.5C 170.804,206.119 168.471,202.786 164.5,200.5 Z"/></g>
<g><path style="opacity:1" fill="#d4ccbe" d="M 171.5,210.5 C 172.163,212.473 172.496,214.639 172.5,217C 172.672,220.477 172.006,223.644 170.5,226.5C 171.275,221.203 171.608,215.87 171.5,210.5 Z"/></g>
<g><path style="opacity:1" fill="#b7a78d" d="M 322.5,206.5 C 321.507,214.65 321.174,222.983 321.5,231.5C 320.179,222.991 320.179,214.325 321.5,205.5C 322.107,205.624 322.44,205.957 322.5,206.5 Z"/></g>
<g><path style="opacity:1" fill="#c6bba6" d="M 301.5,225.5 C 303.312,227.713 303.645,230.047 302.5,232.5C 302.007,230.194 301.674,227.861 301.5,225.5 Z"/></g>
<g><path style="opacity:1" fill="#978461" d="M 186.5,200.5 C 187.495,211.321 187.828,222.321 187.5,233.5C 188.791,233.737 189.791,233.404 190.5,232.5C 195.267,232.809 199.934,232.309 204.5,231C 207.442,229.564 209.442,227.397 210.5,224.5C 210.285,226.179 210.952,227.179 212.5,227.5C 210.276,230.624 207.276,232.791 203.5,234C 196.5,234.667 189.5,234.667 182.5,234C 183.563,232.812 184.897,232.312 186.5,232.5C 186.5,221.833 186.5,211.167 186.5,200.5 Z"/></g>
<g><path style="opacity:1" fill="#b1a48e" d="M 79.5,228.5 C 80.3037,230.189 81.3037,231.855 82.5,233.5C 83.1835,233.137 83.8501,232.804 84.5,232.5C 84.38,233.586 83.7133,234.253 82.5,234.5C 80.0254,233.323 79.0254,231.323 79.5,228.5 Z"/></g>
<g><path style="opacity:1" fill="#857045" d="M 252.5,232.5 C 253.833,233.833 255.167,233.833 256.5,232.5C 260.514,232.666 264.514,232.499 268.5,232C 270.112,229.678 271.445,227.178 272.5,224.5C 272.976,227.74 272.976,231.073 272.5,234.5C 264.804,234.831 257.138,234.497 249.5,233.5C 250.325,232.614 251.325,232.281 252.5,232.5 Z"/></g>
<g><path style="opacity:1" fill="#8d7957" d="M 317.5,232.5 C 318.833,233.833 320.167,233.833 321.5,232.5C 326.515,233.999 326.015,234.666 320,234.5C 318.167,234.333 316.333,234.167 314.5,234C 315.244,232.961 316.244,232.461 317.5,232.5 Z"/></g>
<g><path style="opacity:1" fill="#897249" d="M 382.5,211.5 C 382.869,215.768 383.869,219.768 385.5,223.5C 383.676,228.822 380.009,232.322 374.5,234C 367.833,234.667 361.167,234.667 354.5,234C 355.244,232.961 356.244,232.461 357.5,232.5C 358.833,233.833 360.167,233.833 361.5,232.5C 377.5,234.5 384.5,227.5 382.5,211.5 Z"/></g>
<g><path style="opacity:1" fill="#7d4e4f" d="M 240.5,232.5 C 241.478,232.811 242.145,233.478 242.5,234.5C 232.833,235.833 223.167,235.833 213.5,234.5C 213.624,233.893 213.957,233.56 214.5,233.5C 218.653,234.166 222.987,234.499 227.5,234.5C 232.222,234.492 236.555,233.825 240.5,232.5 Z"/></g>
<g><path style="opacity:1" fill="#d7ccce" d="M 153.5,242.5 C 159.167,241.167 164.833,241.167 170.5,242.5C 169.127,242.343 167.793,242.51 166.5,243C 167.056,243.383 167.389,243.883 167.5,244.5C 166.167,244.5 164.833,244.5 163.5,244.5C 160.663,242.598 157.329,241.931 153.5,242.5 Z"/></g>
<g><path style="opacity:1" fill="#a38f91" d="M 56.5,244.5 C 56.5,243.833 56.1667,243.5 55.5,243.5C 55.6107,242.883 55.944,242.383 56.5,242C 60.1177,241.034 63.451,241.534 66.5,243.5C 67.6139,244.723 67.7805,246.056 67,247.5C 64.3548,243.585 60.8548,242.585 56.5,244.5 Z"/></g>
<g><path style="opacity:1" fill="#aa9195" d="M 324.5,243.5 C 324.5,243.167 324.5,242.833 324.5,242.5C 327.385,242.194 330.052,242.527 332.5,243.5C 331.508,243.328 330.842,243.662 330.5,244.5C 328.565,243.85 326.565,243.517 324.5,243.5 Z"/></g>
<g><path style="opacity:1" fill="#dad0d1" d="M 91.5,253.5 C 91.8226,249.774 91.4892,246.107 90.5,242.5C 89.5159,245.428 89.1826,248.428 89.5,251.5C 85.8333,251.5 82.1667,251.5 78.5,251.5C 78.1936,248.615 78.5269,245.948 79.5,243.5C 79.5,245.833 79.5,248.167 79.5,250.5C 82.5,250.5 85.5,250.5 88.5,250.5C 88.8897,247.534 88.223,244.868 86.5,242.5C 89.1667,241.167 91.8333,241.167 94.5,242.5C 92.9836,246.11 91.9836,249.776 91.5,253.5 Z"/></g>
<g><path style="opacity:1" fill="#f5f2f3" d="M 110.5,244.5 C 113.075,247.045 113.075,249.712 110.5,252.5C 109.833,252.5 109.167,252.5 108.5,252.5C 107.5,252.5 106.5,252.5 105.5,252.5C 105.5,249.5 105.5,246.5 105.5,243.5C 107.216,243.629 108.883,243.962 110.5,244.5 Z"/></g>
<g><path style="opacity:1" fill="#9b7d7e" d="M 153.5,242.5 C 157.329,241.931 160.663,242.598 163.5,244.5C 163.5,250.167 163.5,255.833 163.5,261.5C 162.672,255.681 162.172,249.681 162,243.5C 161.828,249.681 161.328,255.681 160.5,261.5C 160.5,255.5 160.5,249.5 160.5,243.5C 157.159,242.843 155.159,244.176 154.5,247.5C 153.548,245.955 153.215,244.288 153.5,242.5 Z"/></g>
<g><path style="opacity:1" fill="#7e6162" d="M 170.5,242.5 C 171.071,247.851 170.071,248.518 167.5,244.5C 167.389,243.883 167.056,243.383 166.5,243C 167.793,242.51 169.127,242.343 170.5,242.5 Z"/></g>
<g><path style="opacity:1" fill="#816569" d="M 345.5,246.5 C 345.5,245.833 345.167,245.5 344.5,245.5C 345.058,244.21 346.058,243.377 347.5,243C 350.894,242.248 354.227,242.415 357.5,243.5C 358.614,244.723 358.781,246.056 358,247.5C 355.947,243.708 352.781,242.542 348.5,244C 347.627,245.045 346.627,245.878 345.5,246.5 Z"/></g>
<g><path style="opacity:1" fill="#835b5c" d="M 124.5,242.5 C 125.5,242.5 126.5,242.5 127.5,242.5C 127.5,249.167 127.5,255.833 127.5,262.5C 126.5,262.5 125.5,262.5 124.5,262.5C 124.5,255.833 124.5,249.167 124.5,242.5 Z"/></g>
<g><path style="opacity:1" fill="#896a6e" d="M 138.5,247.5 C 137.833,247.167 137.167,246.833 136.5,246.5C 136.511,244.983 137.177,243.816 138.5,243C 141.167,242.333 143.833,242.333 146.5,243C 147.554,244.388 147.72,245.888 147,247.5C 145.452,243.652 142.786,242.652 139,244.5C 138.517,245.448 138.351,246.448 138.5,247.5 Z"/></g>
<g><path style="opacity:1" fill="#e1dada" d="M 177.5,261.5 C 178.5,262.833 179.5,262.833 180.5,261.5C 180.5,255.167 180.5,248.833 180.5,242.5C 179.209,242.263 178.209,242.596 177.5,243.5C 176.624,243.631 175.957,243.298 175.5,242.5C 177.833,241.167 180.167,241.167 182.5,242.5C 181.167,249.167 181.167,255.833 182.5,262.5C 180.167,263.833 177.833,263.833 175.5,262.5C 175.957,261.702 176.624,261.369 177.5,261.5 Z"/></g>
<g><path style="opacity:1" fill="#ddd6d6" d="M 370.5,243.5 C 369.791,242.596 368.791,242.263 367.5,242.5C 367.5,248.833 367.5,255.167 367.5,261.5C 368.5,262.833 369.5,262.833 370.5,261.5C 371.376,261.369 372.043,261.702 372.5,262.5C 370.167,263.833 367.833,263.833 365.5,262.5C 366.128,259.22 366.461,255.887 366.5,252.5C 366.411,248.972 365.744,245.638 364.5,242.5C 367.167,241.167 369.833,241.167 372.5,242.5C 372.043,243.298 371.376,243.631 370.5,243.5 Z"/></g>
<g><path style="opacity:1" fill="#d1c4c4" d="M 284.5,261.5 C 285.209,262.404 286.209,262.737 287.5,262.5C 287.83,255.8 287.497,249.134 286.5,242.5C 285.833,245.642 285.166,248.642 284.5,251.5C 284.927,248.212 284.26,245.212 282.5,242.5C 284.833,241.167 287.167,241.167 289.5,242.5C 288.167,249.167 288.167,255.833 289.5,262.5C 287.167,263.833 284.833,263.833 282.5,262.5C 282.957,261.702 283.624,261.369 284.5,261.5 Z"/></g>
<g><path style="opacity:1" fill="#6f3f43" d="M 110.5,244.5 C 110.842,243.662 111.508,243.328 112.5,243.5C 113.117,243.611 113.617,243.944 114,244.5C 115.421,248.506 114.254,251.172 110.5,252.5C 113.075,249.712 113.075,247.045 110.5,244.5 Z"/></g>
<g><path style="opacity:1" fill="#683b3d" d="M 383.5,261.5 C 382.5,262.833 381.5,262.833 380.5,261.5C 380.5,258.833 380.5,256.167 380.5,253.5C 377.038,252.518 373.371,252.185 369.5,252.5C 369.19,255.713 369.523,258.713 370.5,261.5C 369.5,262.833 368.5,262.833 367.5,261.5C 368.328,255.681 368.828,249.681 369,243.5C 369.183,246.365 369.683,249.031 370.5,251.5C 373.833,251.5 377.167,251.5 380.5,251.5C 380.777,248.552 380.444,245.719 379.5,243C 380.833,242.333 382.167,242.333 383.5,243C 382.174,249.266 382.174,255.432 383.5,261.5 Z"/></g>
<g><path style="opacity:1" fill="#896568" d="M 249.5,254.5 C 248.698,253.048 248.198,251.382 248,249.5C 247.505,251.473 247.338,253.473 247.5,255.5C 246.089,245.09 250.755,240.924 261.5,243C 263.283,244.067 263.783,245.567 263,247.5C 260.019,243.304 256.186,242.471 251.5,245C 249.773,247.904 249.107,251.07 249.5,254.5 Z"/></g>
<g><path style="opacity:1" fill="#704e51" d="M 312.5,257.5 C 311.833,253.167 311.167,248.833 310.5,244.5C 310.369,243.624 310.702,242.957 311.5,242.5C 312.494,247.456 312.827,252.456 312.5,257.5 Z"/></g>
<g><path style="opacity:1" fill="#5a2428" d="M 180.5,261.5 C 179.5,262.833 178.5,262.833 177.5,261.5C 178.328,255.681 178.828,249.681 179,243.5C 179.172,249.681 179.672,255.681 180.5,261.5 Z"/></g>
<g><path style="opacity:1" fill="#683638" d="M 275.5,251.5 C 278.5,251.5 281.5,251.5 284.5,251.5C 285.166,248.642 285.833,245.642 286.5,242.5C 287.497,249.134 287.83,255.8 287.5,262.5C 286.209,262.737 285.209,262.404 284.5,261.5C 285.477,258.713 285.81,255.713 285.5,252.5C 281.833,252.5 278.167,252.5 274.5,252.5C 274.82,255.898 274.487,259.232 273.5,262.5C 272.167,255.833 272.167,249.167 273.5,242.5C 274.167,245.642 274.834,248.642 275.5,251.5 Z"/></g>
<g><path style="opacity:1" fill="#724749" d="M 224.5,255.5 C 225.122,256.627 225.955,257.627 227,258.5C 227.815,253.648 227.648,248.981 226.5,244.5C 226.843,242.775 227.843,242.275 229.5,243C 228.851,249.445 228.184,255.945 227.5,262.5C 223.732,257.287 219.732,252.287 215.5,247.5C 214.833,247.167 214.167,246.833 213.5,246.5C 213.238,245.022 213.571,243.689 214.5,242.5C 218.073,246.644 221.406,250.978 224.5,255.5 Z"/></g>
<g><path style="opacity:1" fill="#cbbdbd" d="M 226.5,244.5 C 227.648,248.981 227.815,253.648 227,258.5C 225.955,257.627 225.122,256.627 224.5,255.5C 226.414,252.316 227.08,248.649 226.5,244.5 Z"/></g>
<g><path style="opacity:1" fill="#e0d7d7" d="M 110.5,242.5 C 108.5,242.5 106.5,242.5 104.5,242.5C 102.544,248.412 101.877,254.745 102.5,261.5C 102.167,261.5 101.833,261.5 101.5,261.5C 102.068,254.947 101.401,248.613 99.5,242.5C 103.315,241.192 106.981,241.192 110.5,242.5 Z"/></g>
<g><path style="opacity:1" fill="#754b4e" d="M 136.5,246.5 C 137.167,246.833 137.833,247.167 138.5,247.5C 141.631,250.424 145.131,253.09 149,255.5C 149.864,258.813 148.698,261.146 145.5,262.5C 144.833,262.5 144.5,262.167 144.5,261.5C 146.441,259.989 146.941,257.989 146,255.5C 143.978,254.214 141.811,253.214 139.5,252.5C 137.585,250.929 136.585,248.929 136.5,246.5 Z"/></g>
<g><path style="opacity:1" fill="#602a2c" d="M 163.5,261.5 C 162.5,262.833 161.5,262.833 160.5,261.5C 161.328,255.681 161.828,249.681 162,243.5C 162.172,249.681 162.672,255.681 163.5,261.5 Z"/></g>
<g><path style="opacity:1" fill="#e4dcdd" d="M 197.5,246.5 C 198.455,248.746 199.122,251.079 199.5,253.5C 198.082,255.308 196.082,255.975 193.5,255.5C 193.541,251.764 194.874,248.764 197.5,246.5 Z"/></g>
<g><path style="opacity:1" fill="#754a4c" d="M 324.5,242.5 C 324.5,242.833 324.5,243.167 324.5,243.5C 324.5,246.5 324.5,249.5 324.5,252.5C 328.756,253.546 331.422,252.046 332.5,248C 332.192,246.541 331.525,245.374 330.5,244.5C 330.842,243.662 331.508,243.328 332.5,243.5C 333.993,244.312 334.66,245.645 334.5,247.5C 333.963,250.035 332.963,252.369 331.5,254.5C 332.935,257.112 334.602,259.612 336.5,262C 335.5,262.667 334.5,262.667 333.5,262C 331.841,259.156 329.841,256.656 327.5,254.5C 326.791,253.596 325.791,253.263 324.5,253.5C 324.5,256.5 324.5,259.5 324.5,262.5C 323.209,262.737 322.209,262.404 321.5,261.5C 322.83,255.53 322.83,249.53 321.5,243.5C 322.325,242.614 323.325,242.281 324.5,242.5 Z"/></g>
<g><path style="opacity:1" fill="#f2eeee" d="M 324.5,243.5 C 326.565,243.517 328.565,243.85 330.5,244.5C 331.525,245.374 332.192,246.541 332.5,248C 331.422,252.046 328.756,253.546 324.5,252.5C 324.5,249.5 324.5,246.5 324.5,243.5 Z"/></g>
<g><path style="opacity:1" fill="#906d6e" d="M 370.5,243.5 C 370.5,246.167 370.5,248.833 370.5,251.5C 369.683,249.031 369.183,246.365 369,243.5C 368.828,249.681 368.328,255.681 367.5,261.5C 367.5,255.167 367.5,248.833 367.5,242.5C 368.791,242.263 369.791,242.596 370.5,243.5 Z"/></g>
<g><path style="opacity:1" fill="#683638" d="M 79.5,243.5 C 78.5269,245.948 78.1936,248.615 78.5,251.5C 82.1667,251.5 85.8333,251.5 89.5,251.5C 89.1826,248.428 89.5159,245.428 90.5,242.5C 91.4892,246.107 91.8226,249.774 91.5,253.5C 91.5,256.167 91.5,258.833 91.5,261.5C 90.5,262.833 89.5,262.833 88.5,261.5C 89.8333,258.833 89.8333,256.167 88.5,253.5C 85.3752,252.521 82.0419,252.187 78.5,252.5C 78.8204,255.898 78.487,259.232 77.5,262.5C 76.8933,262.376 76.56,262.043 76.5,261.5C 76.8097,255.242 76.4764,249.076 75.5,243C 77.0657,242.235 78.3991,242.402 79.5,243.5 Z"/></g>
<g><path style="opacity:1" fill="#653434" d="M 104.5,242.5 C 104.83,249.2 104.497,255.866 103.5,262.5C 102.893,262.376 102.56,262.043 102.5,261.5C 101.877,254.745 102.544,248.412 104.5,242.5 Z"/></g>
<g><path style="opacity:1" fill="#a38384" d="M 180.5,261.5 C 179.672,255.681 179.172,249.681 179,243.5C 178.828,249.681 178.328,255.681 177.5,261.5C 177.5,255.5 177.5,249.5 177.5,243.5C 178.209,242.596 179.209,242.263 180.5,242.5C 180.5,248.833 180.5,255.167 180.5,261.5 Z"/></g>
<g><path style="opacity:1" fill="#968081" d="M 213.5,246.5 C 214.167,246.833 214.833,247.167 215.5,247.5C 215.827,252.544 215.494,257.544 214.5,262.5C 213.505,257.208 213.172,251.875 213.5,246.5 Z"/></g>
<g><path style="opacity:1" fill="#7a4d50" d="M 303.5,261.5 C 303.158,262.338 302.492,262.672 301.5,262.5C 300.542,262.047 299.708,261.381 299,260.5C 298.789,254.782 298.289,249.115 297.5,243.5C 298.325,242.614 299.325,242.281 300.5,242.5C 300.334,248.176 300.501,253.843 301,259.5C 301.708,260.381 302.542,261.047 303.5,261.5 Z"/></g>
<g><path style="opacity:1" fill="#856266" d="M 199.5,246.5 C 198.604,245.494 197.938,245.494 197.5,246.5C 194.874,248.764 193.541,251.764 193.5,255.5C 196.082,255.975 198.082,255.308 199.5,253.5C 200.404,254.209 200.737,255.209 200.5,256.5C 197.813,256.336 195.146,256.503 192.5,257C 191.594,258.699 191.261,260.533 191.5,262.5C 190.448,262.649 189.448,262.483 188.5,262C 190.123,257.912 191.623,253.745 193,249.5C 194.015,246.79 195.515,244.457 197.5,242.5C 198.705,243.577 199.372,244.91 199.5,246.5 Z"/></g>
<g><path style="opacity:1" fill="#6d3e40" d="M 55.5,243.5 C 56.1667,243.5 56.5,243.833 56.5,244.5C 54.0728,246.508 53.0728,249.174 53.5,252.5C 53.0775,255.782 54.0775,258.448 56.5,260.5C 56.5,261.167 56.1667,261.5 55.5,261.5C 52.1484,259.286 50.8151,256.119 51.5,252C 50.7546,248.084 52.088,245.251 55.5,243.5 Z"/></g>
<g><path style="opacity:1" fill="#bfb3b3" d="M 88.5,253.5 C 85.5,253.5 82.5,253.5 79.5,253.5C 79.2601,256.579 79.5934,259.579 80.5,262.5C 78.1667,263.833 75.8333,263.833 73.5,262.5C 74.325,261.614 75.325,261.281 76.5,261.5C 76.56,262.043 76.8933,262.376 77.5,262.5C 78.487,259.232 78.8204,255.898 78.5,252.5C 82.0419,252.187 85.3752,252.521 88.5,253.5 Z"/></g>
<g><path style="opacity:1" fill="#6d3e41" d="M 344.5,245.5 C 345.167,245.5 345.5,245.833 345.5,246.5C 343.635,252.135 344.635,257.135 348.5,261.5C 348.5,262.167 348.167,262.5 347.5,262.5C 345.066,261.229 343.566,259.229 343,256.5C 342.333,253.5 342.333,250.5 343,247.5C 343.278,246.584 343.778,245.918 344.5,245.5 Z"/></g>
<g><path style="opacity:1" fill="#a79192" d="M 380.5,253.5 C 377.167,253.5 373.833,253.5 370.5,253.5C 370.5,256.167 370.5,258.833 370.5,261.5C 369.523,258.713 369.19,255.713 369.5,252.5C 373.371,252.185 377.038,252.518 380.5,253.5 Z"/></g>
<g><path style="opacity:1" fill="#6d4145" d="M 108.5,252.5 C 109.167,252.5 109.833,252.5 110.5,252.5C 111.854,256.032 113.854,259.198 116.5,262C 115.5,262.667 114.5,262.667 113.5,262C 111.699,259.557 110.032,257.057 108.5,254.5C 108.5,253.833 108.5,253.167 108.5,252.5 Z"/></g>
<g><path style="opacity:1" fill="#6c3c3e" d="M 249.5,254.5 C 249.961,257.303 251.295,259.637 253.5,261.5C 253.5,262.167 253.167,262.5 252.5,262.5C 249.677,261.008 248.01,258.674 247.5,255.5C 247.338,253.473 247.505,251.473 248,249.5C 248.198,251.382 248.698,253.048 249.5,254.5 Z"/></g>
<g><path style="opacity:1" fill="#85686b" d="M 55.5,261.5 C 56.1667,261.5 56.5,261.167 56.5,260.5C 60.4211,262.152 63.9211,261.485 67,258.5C 67.6667,259.167 67.6667,259.833 67,260.5C 63.2116,263.785 59.3783,264.118 55.5,261.5 Z"/></g>
<g><path style="opacity:1" fill="#8e6f71" d="M 139.5,261.5 C 139.5,262.167 139.167,262.5 138.5,262.5C 135.577,261.837 134.91,260.17 136.5,257.5C 137.15,259.184 138.15,260.517 139.5,261.5 Z"/></g>
<g><path style="opacity:1" fill="#bdaeaf" d="M 139.5,261.5 C 141.167,261.5 142.833,261.5 144.5,261.5C 144.5,262.167 144.833,262.5 145.5,262.5C 143.167,263.833 140.833,263.833 138.5,262.5C 139.167,262.5 139.5,262.167 139.5,261.5 Z"/></g>
<g><path style="opacity:1" fill="#6e4142" d="M 199.5,246.5 C 201.492,251.471 203.492,256.471 205.5,261.5C 204.791,262.404 203.791,262.737 202.5,262.5C 202.737,261.209 202.404,260.209 201.5,259.5C 201.737,258.209 201.404,257.209 200.5,256.5C 200.737,255.209 200.404,254.209 199.5,253.5C 199.122,251.079 198.455,248.746 197.5,246.5C 197.938,245.494 198.604,245.494 199.5,246.5 Z"/></g>
<g><path style="opacity:1" fill="#846a6b" d="M 252.5,262.5 C 253.167,262.5 253.5,262.167 253.5,261.5C 257.192,262.029 260.358,261.029 263,258.5C 263.667,259.167 263.667,259.833 263,260.5C 259.725,263.293 256.225,263.96 252.5,262.5 Z"/></g>
<g><path style="opacity:1" fill="#a59092" d="M 310.5,244.5 C 311.167,248.833 311.833,253.167 312.5,257.5C 310.656,263.191 306.989,264.858 301.5,262.5C 302.492,262.672 303.158,262.338 303.5,261.5C 306.044,261.896 308.211,261.229 310,259.5C 310.499,254.511 310.666,249.511 310.5,244.5 Z"/></g>
<g><path style="opacity:1" fill="#85696d" d="M 347.5,262.5 C 348.167,262.5 348.5,262.167 348.5,261.5C 350.857,261.663 353.19,261.497 355.5,261C 356.466,259.322 357.799,258.655 359.5,259C 356.231,263.236 352.231,264.403 347.5,262.5 Z"/></g>
<g><path style="opacity:1" fill="#c2b8b9" d="M 88.5,261.5 C 89.5,262.833 90.5,262.833 91.5,261.5C 92.3764,261.369 93.0431,261.702 93.5,262.5C 91.1667,263.833 88.8333,263.833 86.5,262.5C 86.9569,261.702 87.6236,261.369 88.5,261.5 Z"/></g>
<g><path style="opacity:1" fill="#c1b3b4" d="M 104.5,242.5 C 106.5,242.5 108.5,242.5 110.5,242.5C 111.492,242.328 112.158,242.662 112.5,243.5C 111.508,243.328 110.842,243.662 110.5,244.5C 108.883,243.962 107.216,243.629 105.5,243.5C 105.5,246.5 105.5,249.5 105.5,252.5C 106.5,252.5 107.5,252.5 108.5,252.5C 108.5,253.167 108.5,253.833 108.5,254.5C 107.5,254.5 106.5,254.5 105.5,254.5C 105.274,257.249 105.607,259.916 106.5,262.5C 104.5,263.833 102.5,263.833 100.5,262.5C 100.624,261.893 100.957,261.56 101.5,261.5C 101.833,261.5 102.167,261.5 102.5,261.5C 102.56,262.043 102.893,262.376 103.5,262.5C 104.497,255.866 104.83,249.2 104.5,242.5 Z"/></g>
<g><path style="opacity:1" fill="#c1b7b8" d="M 160.5,261.5 C 161.5,262.833 162.5,262.833 163.5,261.5C 164.376,261.369 165.043,261.702 165.5,262.5C 163.167,263.833 160.833,263.833 158.5,262.5C 158.957,261.702 159.624,261.369 160.5,261.5 Z"/></g>
<g><path style="opacity:1" fill="#c4b8b9" d="M 201.5,259.5 C 202.404,260.209 202.737,261.209 202.5,262.5C 203.791,262.737 204.791,262.404 205.5,261.5C 206.043,261.56 206.376,261.893 206.5,262.5C 204.5,263.833 202.5,263.833 200.5,262.5C 201.127,261.583 201.461,260.583 201.5,259.5 Z"/></g>
<g><path style="opacity:1" fill="#c4b4b4" d="M 275.5,251.5 C 274.834,248.642 274.167,245.642 273.5,242.5C 272.167,249.167 272.167,255.833 273.5,262.5C 274.487,259.232 274.82,255.898 274.5,252.5C 278.167,252.5 281.833,252.5 285.5,252.5C 285.81,255.713 285.477,258.713 284.5,261.5C 284.5,258.833 284.5,256.167 284.5,253.5C 281.5,253.5 278.5,253.5 275.5,253.5C 275.26,256.579 275.593,259.579 276.5,262.5C 274.5,263.833 272.5,263.833 270.5,262.5C 271.128,259.22 271.461,255.887 271.5,252.5C 271.411,248.972 270.744,245.638 269.5,242.5C 272.167,241.167 274.833,241.167 277.5,242.5C 275.74,245.212 275.073,248.212 275.5,251.5 Z"/></g>
<g><path style="opacity:1" fill="#c8bdbd" d="M 327.5,254.5 C 325.144,256.683 324.811,259.35 326.5,262.5C 324.5,263.833 322.5,263.833 320.5,262.5C 320.624,261.893 320.957,261.56 321.5,261.5C 322.209,262.404 323.209,262.737 324.5,262.5C 324.5,259.5 324.5,256.5 324.5,253.5C 325.791,253.263 326.791,253.596 327.5,254.5 Z"/></g>
<g><path style="opacity:1" fill="#bdb0b1" d="M 380.5,261.5 C 381.5,262.833 382.5,262.833 383.5,261.5C 384.043,261.56 384.376,261.893 384.5,262.5C 382.5,263.833 380.5,263.833 378.5,262.5C 378.957,261.702 379.624,261.369 380.5,261.5 Z"/></g>
<g><path style="opacity:1" fill="#765319" d="M 48.5,269.5 C 162.167,269.5 275.833,269.5 389.5,269.5C 389.5,276.167 389.5,282.833 389.5,289.5C 275.833,289.5 162.167,289.5 48.5,289.5C 48.5,282.833 48.5,276.167 48.5,269.5 Z"/></g>
<g><path style="opacity:1" fill="#714d0e" d="M 227.5,283.5 C 230.167,284.833 230.833,284.167 229.5,281.5C 229.337,279.143 229.503,276.81 230,274.5C 232.076,273.243 233.91,273.576 235.5,275.5C 235.726,278.249 235.393,280.916 234.5,283.5C 234.957,284.298 235.624,284.631 236.5,284.5C 237.458,284.047 238.292,283.381 239,282.5C 239.741,279.438 239.575,276.438 238.5,273.5C 239.833,272.833 241.167,272.167 242.5,271.5C 263.492,270.334 284.492,270.167 305.5,271C 304.263,271.232 303.263,271.732 302.5,272.5C 302.5,274.167 302.5,275.833 302.5,277.5C 300.833,277.5 299.167,277.5 297.5,277.5C 297.421,276.07 297.754,274.736 298.5,273.5C 297.675,272.614 296.675,272.281 295.5,272.5C 295.5,276.5 295.5,280.5 295.5,284.5C 296.209,285.404 297.209,285.737 298.5,285.5C 298.5,283.5 298.5,281.5 298.5,279.5C 299.833,279.5 301.167,279.5 302.5,279.5C 302.5,281.5 302.5,283.5 302.5,285.5C 303.5,285.5 304.5,285.5 305.5,285.5C 305.5,281.833 305.5,278.167 305.5,274.5C 307.176,273.817 307.843,272.483 307.5,270.5C 334.5,270.5 361.5,270.5 388.5,270.5C 388.5,276.5 388.5,282.5 388.5,288.5C 326.832,288.667 265.166,288.5 203.5,288C 208.833,287.667 214.167,287.333 219.5,287C 215.167,286.667 210.833,286.333 206.5,286C 207.357,285.311 208.023,284.478 208.5,283.5C 207.771,281.024 207.104,278.524 206.5,276C 208.725,271.968 211.558,271.468 215,274.5C 215.75,273.874 216.584,273.374 217.5,273C 215.285,271.956 212.952,271.29 210.5,271C 218.167,270.333 225.833,270.333 233.5,271C 230.89,271.147 228.556,271.981 226.5,273.5C 225.914,273.291 225.414,272.957 225,272.5C 225.369,275.79 225.369,279.123 225,282.5C 224.348,284.723 222.848,285.89 220.5,286C 222.5,286.667 224.5,286.667 226.5,286C 225.117,284.539 225.451,283.706 227.5,283.5 Z"/></g>
<g><path style="opacity:1" fill="#9b8054" d="M 236.5,274.5 C 235.833,274.5 235.5,274.833 235.5,275.5C 233.91,273.576 232.076,273.243 230,274.5C 229.503,276.81 229.337,279.143 229.5,281.5C 228.698,280.048 228.198,278.382 228,276.5C 227.617,277.056 227.117,277.389 226.5,277.5C 227.843,272.922 230.843,271.422 235.5,273C 236.056,273.383 236.389,273.883 236.5,274.5 Z"/></g>
<g><path style="opacity:1" fill="#a5906b" d="M 347.5,273.5 C 349.56,272.189 351.726,272.189 354,273.5C 354.749,274.635 354.583,275.635 353.5,276.5C 351.844,273.982 350.511,273.982 349.5,276.5C 348.833,275.5 348.167,274.5 347.5,273.5 Z"/></g>
<g><path style="opacity:1" fill="#b19f82" d="M 362.5,272.5 C 365.833,272.5 369.167,272.5 372.5,272.5C 372.714,276.257 371.714,276.924 369.5,274.5C 368.511,278.107 368.177,281.774 368.5,285.5C 367.5,285.5 366.5,285.5 365.5,285.5C 365.823,281.774 365.489,278.107 364.5,274.5C 362.786,275.609 362.119,274.942 362.5,272.5 Z"/></g>
<g><path style="opacity:1" fill="#714b0b" d="M 85.5,272.5 C 84.353,276.646 84.1864,280.98 85,285.5C 86.049,287.107 87.549,287.773 89.5,287.5C 89.3433,286.127 89.51,284.793 90,283.5C 93.4497,285.124 97.1164,286.457 101,287.5C 103.912,287.642 105.412,286.309 105.5,283.5C 106.586,283.38 107.253,282.713 107.5,281.5C 107.267,277.666 106.267,274.166 104.5,271C 107.429,270.223 110.263,270.39 113,271.5C 113.179,275.025 113.679,278.359 114.5,281.5C 114.5,281.833 114.5,282.167 114.5,282.5C 115.413,284.086 115.413,285.586 114.5,287C 116.5,287.333 118.5,287.667 120.5,288C 104.17,288.5 87.8367,288.667 71.5,288.5C 71.5,287.5 71.5,286.5 71.5,285.5C 73.1439,285.714 74.6439,285.38 76,284.5C 76.8265,280.459 76.6599,276.459 75.5,272.5C 72.0334,271.212 68.7001,271.212 65.5,272.5C 64.8337,276.021 64.1671,279.687 63.5,283.5C 60.9639,283.156 58.7972,282.156 57,280.5C 56.8096,277.462 57.4762,274.795 59,272.5C 57.3845,271.199 55.8845,271.199 54.5,272.5C 53.3263,273.514 52.6596,274.847 52.5,276.5C 51.5184,279.962 51.185,283.629 51.5,287.5C 54.1873,287.664 56.854,287.497 59.5,287C 58.0072,285.844 58.1739,285.01 60,284.5C 61.7534,286.296 63.92,287.462 66.5,288C 60.8431,288.499 55.1764,288.666 49.5,288.5C 49.5,282.5 49.5,276.5 49.5,270.5C 61.8799,269.854 73.8799,270.521 85.5,272.5 Z"/></g>
<g><path style="opacity:1" fill="#a28b66" d="M 278.5,281.5 C 277.732,280.737 277.232,279.737 277,278.5C 276.517,279.448 276.351,280.448 276.5,281.5C 274.751,274.745 277.418,271.911 284.5,273C 285.973,273.71 286.64,274.876 286.5,276.5C 283.975,275.36 281.308,274.693 278.5,274.5C 278.5,276.833 278.5,279.167 278.5,281.5 Z"/></g>
<g><path style="opacity:1" fill="#c1b5a0" d="M 297.5,277.5 C 298.01,280.388 297.344,282.721 295.5,284.5C 295.5,280.5 295.5,276.5 295.5,272.5C 296.675,272.281 297.675,272.614 298.5,273.5C 297.754,274.736 297.421,276.07 297.5,277.5 Z"/></g>
<g><path style="opacity:1" fill="#c5baa6" d="M 85.5,272.5 C 86.675,272.281 87.675,272.614 88.5,273.5C 87.8992,277.159 87.2325,280.826 86.5,284.5C 85.5091,280.555 85.1758,276.555 85.5,272.5 Z"/></g>
<g><path style="opacity:1" fill="#826434" d="M 384.5,276.5 C 383.883,276.389 383.383,276.056 383,275.5C 382.73,278.224 382.23,280.891 381.5,283.5C 381.97,284.463 382.637,284.463 383.5,283.5C 383.179,285.048 382.179,285.715 380.5,285.5C 380.5,281.167 380.5,276.833 380.5,272.5C 381.833,272.5 383.167,272.5 384.5,272.5C 384.5,273.833 384.5,275.167 384.5,276.5 Z"/></g>
<g><path style="opacity:1" fill="#c5b9a6" d="M 315.5,272.5 C 322.621,270.783 324.954,273.283 322.5,280C 322.95,281.285 323.617,282.452 324.5,283.5C 324.167,283.833 323.833,284.167 323.5,284.5C 322.167,283.167 320.833,281.833 319.5,280.5C 318.833,281.833 318.167,283.167 317.5,284.5C 316.701,280.499 316.035,276.499 315.5,272.5 Z"/></g>
<g><path style="opacity:1" fill="#755b25" d="M 318.5,274.5 C 319.5,274.5 320.5,274.5 321.5,274.5C 321.5,275.833 321.5,277.167 321.5,278.5C 320.5,278.5 319.5,278.5 318.5,278.5C 318.5,277.167 318.5,275.833 318.5,274.5 Z"/></g>
<g><path style="opacity:1" fill="#c9bdab" d="M 124.5,273.5 C 124.719,274.675 124.386,275.675 123.5,276.5C 121.807,274.721 119.807,274.221 117.5,275C 115.046,280.546 116.712,283.213 122.5,283C 124.605,281.339 124.939,281.839 123.5,284.5C 119.947,286.195 116.947,285.528 114.5,282.5C 114.5,282.167 114.5,281.833 114.5,281.5C 113.44,273.222 116.773,270.555 124.5,273.5 Z"/></g>
<g><path style="opacity:1" fill="#c0b39c" d="M 199.5,272.5 C 201.5,272.5 203.5,272.5 205.5,272.5C 205.649,273.552 205.483,274.552 205,275.5C 203.506,274.253 202.006,274.253 200.5,275.5C 202.029,277.188 203.863,278.521 206,279.5C 206.664,284.496 204.498,286.33 199.5,285C 198.483,283.951 198.316,282.784 199,281.5C 200.444,283.155 202.278,283.822 204.5,283.5C 204.719,282.325 204.386,281.325 203.5,280.5C 198.935,279.304 197.602,276.637 199.5,272.5 Z"/></g>
<g><path style="opacity:1" fill="#b09f81" d="M 247.5,272.5 C 250.167,272.5 252.833,272.5 255.5,272.5C 255.167,275.167 254.833,277.833 254.5,280.5C 253.167,280.5 251.833,280.5 250.5,280.5C 250.5,282.167 250.5,283.833 250.5,285.5C 249.5,285.5 248.5,285.5 247.5,285.5C 247.5,281.167 247.5,276.833 247.5,272.5 Z"/></g>
<g><path style="opacity:1" fill="#734f18" d="M 250.5,274.5 C 253.957,274.667 254.29,275.667 251.5,277.5C 250.614,276.675 250.281,275.675 250.5,274.5 Z"/></g>
<g><path style="opacity:1" fill="#836836" d="M 333.5,272.5 C 334.833,272.5 336.167,272.5 337.5,272.5C 337.5,276.833 337.5,281.167 337.5,285.5C 336.167,285.5 334.833,285.5 333.5,285.5C 333.5,281.167 333.5,276.833 333.5,272.5 Z"/></g>
<g><path style="opacity:1" fill="#c9beab" d="M 105.5,283.5 C 103.449,285.594 101.116,285.927 98.5,284.5C 97.4173,283.635 97.2506,282.635 98,281.5C 99.4443,283.155 101.278,283.822 103.5,283.5C 103.719,282.325 103.386,281.325 102.5,280.5C 98.4532,279.498 97.1199,277.165 98.5,273.5C 100.396,272.534 102.396,272.201 104.5,272.5C 104.649,273.552 104.483,274.552 104,275.5C 102.506,274.253 101.006,274.253 99.5,275.5C 101.029,277.188 102.863,278.521 105,279.5C 105.49,280.793 105.657,282.127 105.5,283.5 Z"/></g>
<g><path style="opacity:1" fill="#c3b7a4" d="M 183.5,274.5 C 183.5,275.5 183.5,276.5 183.5,277.5C 184.833,277.5 186.167,277.5 187.5,277.5C 187.649,278.552 187.483,279.552 187,280.5C 185.989,279.663 184.822,279.33 183.5,279.5C 183.5,280.833 183.5,282.167 183.5,283.5C 183.44,284.043 183.107,284.376 182.5,284.5C 181.167,280.833 181.167,277.167 182.5,273.5C 183.107,273.624 183.44,273.957 183.5,274.5 Z"/></g>
<g><path style="opacity:1" fill="#d3cbbb" d="M 229.5,281.5 C 230.833,284.167 230.167,284.833 227.5,283.5C 226.85,281.565 226.517,279.565 226.5,277.5C 227.117,277.389 227.617,277.056 228,276.5C 228.198,278.382 228.698,280.048 229.5,281.5 Z"/></g>
<g><path style="opacity:1" fill="#dfd9cf" d="M 302.5,279.5 C 302.5,278.833 302.5,278.167 302.5,277.5C 303.29,276.391 303.79,275.058 304,273.5C 304.667,277.167 304.667,280.833 304,284.5C 303.802,282.618 303.302,280.952 302.5,279.5 Z"/></g>
<g><path style="opacity:1" fill="#c8bca9" d="M 347.5,273.5 C 348.167,274.5 348.833,275.5 349.5,276.5C 350.848,277.601 352.348,278.601 354,279.5C 354.508,284.983 352.175,286.65 347,284.5C 346.333,283.5 346.333,282.5 347,281.5C 348.444,283.155 350.278,283.822 352.5,283.5C 352.649,282.448 352.483,281.448 352,280.5C 347.67,279.714 346.17,277.38 347.5,273.5 Z"/></g>
<g><path style="opacity:1" fill="#ccbfab" d="M 384.5,276.5 C 384.552,278.903 384.219,281.236 383.5,283.5C 382.637,284.463 381.97,284.463 381.5,283.5C 382.23,280.891 382.73,278.224 383,275.5C 383.383,276.056 383.883,276.389 384.5,276.5 Z"/></g>
<g><path style="opacity:1" fill="#a69476" d="M 65.5,272.5 C 68.0593,272.198 70.3926,272.532 72.5,273.5C 71.8333,273.5 71.5,273.833 71.5,274.5C 70.5,274.5 69.5,274.5 68.5,274.5C 68.5,277.167 68.5,279.833 68.5,282.5C 69.8333,282.5 71.1667,282.5 72.5,282.5C 71.0813,283.451 69.4147,283.784 67.5,283.5C 67.665,280.15 67.4983,276.817 67,273.5C 66.5014,277.152 66.3347,280.818 66.5,284.5C 67.8333,284.5 69.1667,284.5 70.5,284.5C 69.0813,285.451 67.4147,285.784 65.5,285.5C 65.5,281.167 65.5,276.833 65.5,272.5 Z"/></g>
<g><path style="opacity:1" fill="#a18b67" d="M 302.5,272.5 C 304.179,272.285 305.179,272.952 305.5,274.5C 305.5,278.167 305.5,281.833 305.5,285.5C 304.5,285.5 303.5,285.5 302.5,285.5C 302.5,283.5 302.5,281.5 302.5,279.5C 303.302,280.952 303.802,282.618 304,284.5C 304.667,280.833 304.667,277.167 304,273.5C 303.79,275.058 303.29,276.391 302.5,277.5C 302.5,275.833 302.5,274.167 302.5,272.5 Z"/></g>
<g><path style="opacity:1" fill="#bdaf9c" d="M 334.5,273.5 C 335.787,274.871 336.453,276.705 336.5,279C 336.167,280.833 335.833,282.667 335.5,284.5C 334.511,280.893 334.177,277.226 334.5,273.5 Z"/></g>
<g><path style="opacity:1" fill="#967f56" d="M 297.5,277.5 C 299.167,277.5 300.833,277.5 302.5,277.5C 302.5,278.167 302.5,278.833 302.5,279.5C 301.167,279.5 299.833,279.5 298.5,279.5C 298.5,281.5 298.5,283.5 298.5,285.5C 297.209,285.737 296.209,285.404 295.5,284.5C 297.344,282.721 298.01,280.388 297.5,277.5 Z"/></g>
<g><path style="opacity:1" fill="#b8aa8f" d="M 54.5,272.5 C 54.304,276.318 54.6373,280.318 55.5,284.5C 54.6446,285.293 53.8113,284.96 53,283.5C 52.5034,281.19 52.3367,278.857 52.5,276.5C 52.6596,274.847 53.3263,273.514 54.5,272.5 Z"/></g>
<g><path style="opacity:1" fill="#c5b8a4" d="M 236.5,274.5 C 237.747,277.799 237.747,281.133 236.5,284.5C 235.624,284.631 234.957,284.298 234.5,283.5C 235.393,280.916 235.726,278.249 235.5,275.5C 235.5,274.833 235.833,274.5 236.5,274.5 Z"/></g>
<g><path style="opacity:1" fill="#cfc5b5" d="M 72.5,282.5 C 73.1524,281.551 73.4857,280.385 73.5,279C 73.6932,276.992 73.0265,275.492 71.5,274.5C 71.5,273.833 71.8333,273.5 72.5,273.5C 73.4959,273.414 74.3292,273.748 75,274.5C 75.6667,277.167 75.6667,279.833 75,282.5C 73.8904,284.037 72.3904,284.703 70.5,284.5C 69.1667,284.5 67.8333,284.5 66.5,284.5C 66.3347,280.818 66.5014,277.152 67,273.5C 67.4983,276.817 67.665,280.15 67.5,283.5C 69.4147,283.784 71.0813,283.451 72.5,282.5 Z"/></g>
<g><path style="opacity:1" fill="#724f16" d="M 71.5,274.5 C 73.0265,275.492 73.6932,276.992 73.5,279C 73.4857,280.385 73.1524,281.551 72.5,282.5C 71.1667,282.5 69.8333,282.5 68.5,282.5C 68.5,279.833 68.5,277.167 68.5,274.5C 69.5,274.5 70.5,274.5 71.5,274.5 Z"/></g>
<g><path style="opacity:1" fill="#714c0c" d="M 180.5,272.5 C 179.073,277.365 178.74,282.365 179.5,287.5C 160.198,288.63 140.864,288.796 121.5,288C 122.305,286.887 122.972,285.721 123.5,284.5C 124.939,281.839 124.605,281.339 122.5,283C 116.712,283.213 115.046,280.546 117.5,275C 119.807,274.221 121.807,274.721 123.5,276.5C 124.386,275.675 124.719,274.675 124.5,273.5C 123.047,272.175 123.381,271.342 125.5,271C 145.833,270.333 166.167,270.333 186.5,271C 184.292,271.191 182.292,271.691 180.5,272.5 Z"/></g>
<g><path style="opacity:1" fill="#7f6635" d="M 146.5,274.5 C 147.166,277.689 147.833,281.023 148.5,284.5C 149.429,283.311 149.762,281.978 149.5,280.5C 153.314,280.349 154.981,278.349 154.5,274.5C 156.52,278.694 155.187,281.027 150.5,281.5C 150.5,282.833 150.5,284.167 150.5,285.5C 149.167,285.5 147.833,285.5 146.5,285.5C 146.5,281.833 146.5,278.167 146.5,274.5 Z"/></g>
<g><path style="opacity:1" fill="#d2c9b9" d="M 136.5,274.5 C 136.5,277.833 136.5,281.167 136.5,284.5C 135.213,283.129 134.547,281.295 134.5,279C 134.833,277.167 135.167,275.333 135.5,273.5C 136.107,273.624 136.44,273.957 136.5,274.5 Z"/></g>
<g><path style="opacity:1" fill="#816537" d="M 171.5,284.5 C 171.649,283.448 171.483,282.448 171,281.5C 169.89,283.037 168.39,283.703 166.5,283.5C 166.82,280.102 166.487,276.768 165.5,273.5C 164.509,277.445 164.176,281.445 164.5,285.5C 163.515,281.366 163.182,277.032 163.5,272.5C 164.833,272.5 166.167,272.5 167.5,272.5C 167.183,275.572 167.516,278.572 168.5,281.5C 169.142,278.203 170.309,277.869 172,280.5C 172.765,282.066 172.598,283.399 171.5,284.5 Z"/></g>
<g><path style="opacity:1" fill="#d1c8b9" d="M 154.5,274.5 C 154.981,278.349 153.314,280.349 149.5,280.5C 149.762,281.978 149.429,283.311 148.5,284.5C 147.833,281.023 147.166,277.689 146.5,274.5C 147.152,273.275 148.319,272.608 150,272.5C 152.008,272.307 153.508,272.974 154.5,274.5 Z"/></g>
<g><path style="opacity:1" fill="#91744e" d="M 136.5,274.5 C 136.44,273.957 136.107,273.624 135.5,273.5C 135.167,275.333 134.833,277.167 134.5,279C 134.547,281.295 135.213,283.129 136.5,284.5C 135.791,285.404 134.791,285.737 133.5,285.5C 133.5,281.167 133.5,276.833 133.5,272.5C 134.978,272.238 136.311,272.571 137.5,273.5C 137.376,274.107 137.043,274.44 136.5,274.5 Z"/></g>
<g><path style="opacity:1" fill="#735522" d="M 149.5,274.5 C 150.5,274.5 151.5,274.5 152.5,274.5C 152.5,275.833 152.5,277.167 152.5,278.5C 151.5,278.5 150.5,278.5 149.5,278.5C 149.5,277.167 149.5,275.833 149.5,274.5 Z"/></g>
<g><path style="opacity:1" fill="#cbc0ae" d="M 278.5,281.5 C 278.611,282.117 278.944,282.617 279.5,283C 281.657,283.078 283.657,283.245 285.5,283.5C 283.004,285.953 280.338,286.12 277.5,284C 276.748,283.329 276.414,282.496 276.5,281.5C 276.351,280.448 276.517,279.448 277,278.5C 277.232,279.737 277.732,280.737 278.5,281.5 Z"/></g>
<g><path style="opacity:1" fill="#c0b29b" d="M 171.5,284.5 C 169.393,285.468 167.059,285.802 164.5,285.5C 164.176,281.445 164.509,277.445 165.5,273.5C 166.487,276.768 166.82,280.102 166.5,283.5C 168.39,283.703 169.89,283.037 171,281.5C 171.483,282.448 171.649,283.448 171.5,284.5 Z"/></g>
<g><path style="opacity:1" fill="#ac997b" d="M 180.5,272.5 C 183.5,272.5 186.5,272.5 189.5,272.5C 189.719,273.675 189.386,274.675 188.5,275.5C 186.929,274.691 185.262,274.357 183.5,274.5C 183.44,273.957 183.107,273.624 182.5,273.5C 181.167,277.167 181.167,280.833 182.5,284.5C 183.107,284.376 183.44,284.043 183.5,283.5C 185.722,283.822 187.556,283.155 189,281.5C 189.49,282.793 189.657,284.127 189.5,285.5C 186.5,285.5 183.5,285.5 180.5,285.5C 180.5,281.167 180.5,276.833 180.5,272.5 Z"/></g>
<g><path style="opacity:1" fill="#b8ab93" d="M 48.5,269.5 C 48.5,276.167 48.5,282.833 48.5,289.5C 162.167,289.5 275.833,289.5 389.5,289.5C 275.668,290.5 161.668,290.833 47.5,290.5C 47.1755,283.313 47.5088,276.313 48.5,269.5 Z"/></g>
</svg>
