<svg version="1.1" id="Layer_1" xmlns="http://www.w3.org/2000/svg" xmlns:xlink="http://www.w3.org/1999/xlink" x="0px" y="0px"
	 width="100%" viewBox="0 0 469 469" enable-background="new 0 0 469 469" xml:space="preserve">
<path fill="none" opacity="1.000000" stroke="#000000" stroke-linecap="round" stroke-linejoin="round" stroke-width="11.000000"
	d="
M154.000000,143.500000 
	C155.381378,139.105881 158.173355,134.920746 156.241745,129.840073 
	C150.228104,131.092163 146.273209,134.927917 142.505432,139.005020 
	C125.893944,156.980209 114.553352,177.935974 110.718895,202.034836 
	C106.153473,230.727707 110.782944,258.104462 125.892456,283.563812 
	C138.503586,304.813416 156.022675,320.421387 177.515976,331.970276 
	C180.399811,333.519806 183.424286,334.885590 186.515671,335.954681 
	C193.058975,338.217590 195.968124,342.564789 197.751511,349.434723 
	C201.925385,365.513306 214.534714,376.791901 231.024673,378.797028 
	C251.684982,381.309174 268.097321,371.312897 275.466858,351.487671 
	C276.051666,349.914490 276.016663,348.118927 276.528809,346.509155 
	C277.928894,342.108368 279.919128,338.803284 284.924377,336.810120 
	C299.553070,330.984833 313.153778,323.207214 324.498871,311.998871 
	C337.191833,299.458923 348.492401,286.028015 355.116119,269.045288 
	C359.117950,258.784790 362.174316,248.461166 363.660187,237.521759 
	C364.481232,231.477097 364.520813,225.502441 364.454926,219.500488 
	C364.176361,194.110672 355.831268,171.401382 340.961273,151.028259 
	C334.799652,142.586273 327.677032,134.989624 319.000000,129.000000 
"/>
<path fill="none" opacity="1.000000" stroke="#000000" stroke-linecap="round" stroke-linejoin="round" stroke-width="4.000000"
	d="
M279.000000,336.500000 
	C275.774078,333.344604 275.794189,328.783356 274.090820,324.959534 
	C267.545715,310.266907 256.358337,302.227844 240.499237,300.507050 
	C220.862488,298.376373 201.478500,311.527985 197.524200,331.504791 
	C197.088089,333.708008 196.112625,335.500824 194.500000,337.000000 
"/>
<path fill="none" opacity="1.000000" stroke="#000000" stroke-linecap="round" stroke-linejoin="round" stroke-width="8.000000"
	d="
M183.500000,181.000000 
	C188.814972,185.545654 192.690613,190.893768 194.046677,197.991089 
	C196.181427,209.163986 187.856659,220.945267 176.495193,221.372284 
	C166.183899,221.759842 158.546478,214.350830 159.460480,204.496338 
	C160.010178,198.569763 168.121307,191.325043 173.546082,194.930664 
	C178.047424,197.922531 178.819046,201.744095 177.500000,206.500000 
"/>
<path fill="none" opacity="1.000000" stroke="#000000" stroke-linecap="round" stroke-linejoin="round" stroke-width="8.000000"
	d="
M163.500000,186.000000 
	C170.655075,186.489212 176.952911,183.650787 182.939102,180.388275 
	C186.753937,178.309158 188.689743,168.747711 187.000000,164.000000 
	C184.972610,158.303467 180.862473,155.508591 174.500000,155.500000 
	C165.660782,155.488068 160.958328,158.719986 157.463196,166.984436 
	C156.713226,168.757812 156.980331,170.339767 157.506134,171.998047 
	C157.964233,173.442749 158.913986,174.284653 160.496719,173.982773 
	C161.836304,173.727264 161.412262,172.280701 162.000000,171.500000 
"/>
<path fill="none" opacity="1.000000" stroke="#000000" stroke-linecap="round" stroke-linejoin="round" stroke-width="11.000000"
	d="
M299.500000,274.000000 
	C302.166656,274.000000 304.833344,274.000000 307.500000,274.000000 
	C318.021759,274.000000 324.584625,264.442688 321.036713,254.486923 
	C319.702423,250.742737 316.981079,248.516327 313.475372,247.593613 
	C309.077698,246.436127 304.527832,246.851730 299.989655,247.416840 
	C297.232330,247.760193 296.285034,249.629654 296.613068,251.479950 
	C297.877899,258.614471 295.353485,266.062012 298.494934,273.002289 
	C299.060760,274.252380 298.172241,275.335785 298.021484,276.502777 
	C297.435272,281.039490 296.477264,285.612366 298.750000,290.000000 
"/>
<path fill="none" opacity="1.000000" stroke="#000000" stroke-linecap="round" stroke-linejoin="round" stroke-width="10.000000"
	d="
M284.000000,290.000000 
	C275.635345,285.711670 272.760162,277.795593 270.510529,269.497162 
	C268.736328,262.952728 266.321869,256.633820 263.437378,250.529602 
	C261.340546,246.092270 257.761536,246.245132 254.988297,250.492355 
	C251.275238,256.178925 249.720642,262.744324 247.595322,269.032227 
	C245.195343,276.132690 242.877975,282.952942 234.500000,285.000000 
"/>
<path fill="none" opacity="1.000000" stroke="#000000" stroke-linecap="round" stroke-linejoin="round" stroke-width="4.000000"
	d="
M215.000000,129.000000 
	C207.458374,131.117126 200.278305,133.982025 194.528458,139.529495 
	C192.854156,141.144867 192.178116,143.405548 193.553604,145.464188 
	C195.377350,148.193665 198.161697,149.849182 201.488388,149.411697 
	C203.974030,149.084793 206.337402,147.933472 207.000854,145.000198 
	C207.490250,142.836456 206.050217,141.885269 204.500000,141.000000 
"/>
<path fill="none" opacity="1.000000" stroke="#000000" stroke-linecap="round" stroke-linejoin="round" stroke-width="8.000000"
	d="
M307.000000,191.000000 
	C314.936676,190.917740 320.263489,186.328461 320.040985,179.998566 
	C319.922852,176.636307 318.212494,173.863022 315.447571,173.228485 
	C312.695496,172.596893 309.347992,172.056030 306.479675,173.969528 
	C305.652283,174.521500 305.490356,175.157715 305.497864,176.000015 
	C305.506836,176.999939 305.500000,178.000000 305.500000,179.000000 
	C305.500000,186.833328 305.500000,194.666672 305.500000,202.500000 
"/>
<path fill="none" opacity="1.000000" stroke="#000000" stroke-linecap="round" stroke-linejoin="round" stroke-width="10.000000"
	d="
M188.500000,243.000000 
	C180.921875,244.088547 178.016617,249.723969 175.435501,255.973358 
	C173.164261,261.472504 171.807159,267.672302 166.000000,271.000000 
"/>
<path fill="none" opacity="1.000000" stroke="#000000" stroke-linecap="round" stroke-linejoin="round" stroke-width="12.000000"
	d="
M144.500000,243.000000 
	C150.203766,244.629578 153.614517,247.903976 155.790466,253.894501 
	C157.904984,259.715912 159.134827,266.521759 164.951019,270.570343 
	C165.644455,271.053040 165.907242,272.487671 165.959290,273.502075 
	C166.215515,278.497498 166.202194,283.509308 166.555710,288.496063 
	C166.730560,290.962250 163.948425,291.438293 163.750000,293.500000 
"/>
<path fill="none" opacity="1.000000" stroke="#000000" stroke-linecap="round" stroke-linejoin="round" stroke-width="10.000000"
	d="
M312.000000,274.500000 
	C313.166687,279.333344 313.959106,284.298889 315.606781,288.962280 
	C317.206696,293.490295 319.902405,297.604431 325.014771,298.943542 
	C327.681946,299.642151 328.505249,302.197296 330.500000,303.500000 
"/>
<path fill="none" opacity="1.000000" stroke="#000000" stroke-linecap="round" stroke-linejoin="round" stroke-width="7.000000"
	d="
M261.500000,174.500000 
	C261.666656,183.000000 261.827026,191.500137 262.005463,199.999878 
	C262.039978,201.644958 262.344482,203.394821 260.000000,203.750000 
"/>
<path fill="none" opacity="1.000000" stroke="#000000" stroke-linecap="round" stroke-linejoin="round" stroke-width="5.000000"
	d="
M220.500000,123.000000 
	C216.801071,123.919739 216.584595,127.078590 216.000183,130.000031 
	C213.999756,139.999954 212.000015,150.000000 210.000015,160.000000 
"/>
<path fill="none" opacity="1.000000" stroke="#000000" stroke-linecap="round" stroke-linejoin="round" stroke-width="7.000000"
	d="
M218.000000,173.000000 
	C214.833328,173.000000 211.665604,173.049484 208.500412,172.981216 
	C206.634155,172.940979 205.058670,173.417084 205.037704,175.500381 
	C204.948822,184.333603 205.000000,193.168243 205.000000,202.023682 
	C210.191940,202.246994 215.196106,203.717834 220.000000,201.250000 
"/>
<path fill="none" opacity="1.000000" stroke="#000000" stroke-linecap="round" stroke-linejoin="round" stroke-width="7.000000"
	d="
M235.500000,174.500000 
	C236.592575,182.647766 235.770889,190.834427 235.963898,199.000854 
	C236.018021,201.290390 235.804092,203.513290 238.500000,204.500000 
"/>
<path fill="none" opacity="1.000000" stroke="#000000" stroke-linecap="round" stroke-linejoin="round" stroke-width="5.000000"
	d="
M253.500000,226.500000 
	C257.355377,226.964188 259.070587,224.519638 260.533203,221.516174 
	C261.532623,219.463852 260.869751,217.725052 259.440460,216.573929 
	C257.819672,215.268555 255.589920,214.494736 253.523697,215.083221 
	C251.374069,215.695480 252.023834,217.860977 252.011581,219.500092 
	C251.977966,223.999832 252.000000,228.500000 252.000000,233.000000 
"/>
<path fill="none" opacity="1.000000" stroke="#000000" stroke-linecap="round" stroke-linejoin="round" stroke-width="12.000000"
	d="
M228.000000,247.750000 
	C226.231918,246.371490 224.308441,245.848007 221.997635,245.941116 
	C217.172134,246.135559 212.332428,245.941223 207.500229,246.015015 
	C201.577332,246.105453 200.532776,247.231705 200.492432,252.999954 
	C200.429474,262.001556 200.855118,270.994446 200.271622,280.017578 
	C200.120728,282.350983 198.447113,283.198151 198.250000,285.000000 
"/>
<path fill="none" opacity="1.000000" stroke="#000000" stroke-linecap="round" stroke-linejoin="round" stroke-width="7.000000"
	d="
M294.000000,173.000000 
	C290.833344,173.000000 287.666656,172.999847 284.500000,173.000031 
	C281.500366,173.000198 279.928375,174.502579 280.020782,177.499359 
	C280.108795,180.353195 279.408875,183.309906 280.994720,186.003098 
	C281.572174,186.983749 281.455353,187.947861 281.022369,189.009125 
	C279.249359,193.355270 279.659637,197.695648 281.226440,201.938202 
	C285.299194,203.002960 289.418091,202.298172 293.500000,202.500000 
"/>
<path fill="none" opacity="1.000000" stroke="#000000" stroke-linecap="round" stroke-linejoin="round" stroke-width="9.000000"
	d="
M201.000000,282.000000 
	C206.360382,284.636993 212.006866,282.533142 217.507065,282.891602 
	C220.467346,283.084473 223.500000,282.166656 226.500000,281.749969 
"/>
<path fill="none" opacity="1.000000" stroke="#000000" stroke-linecap="round" stroke-linejoin="round" stroke-width="3.000000"
	d="
M245.500000,139.000000 
	C244.123550,137.721390 242.498718,137.570679 241.020645,138.531754 
	C237.298492,140.951996 236.073074,148.112259 238.432739,152.378403 
	C243.292953,151.624298 248.290161,151.300095 252.000000,147.500000 
"/>
<path fill="none" opacity="1.000000" stroke="#000000" stroke-linecap="round" stroke-linejoin="round" stroke-width="4.000000"
	d="
M224.000000,131.000000 
	C222.924927,137.183990 219.675430,142.950455 220.480621,149.502380 
	C220.615204,150.597565 220.209732,151.818985 221.681885,152.571747 
	C225.491348,151.873535 225.875488,148.155182 227.500000,145.500000 
"/>
<path fill="none" opacity="1.000000" stroke="#000000" stroke-linecap="round" stroke-linejoin="round" stroke-width="9.000000"
	d="
M248.000000,272.500000 
	C255.432159,274.359894 262.859955,276.317444 270.500000,273.500000 
"/>
<path fill="none" opacity="1.000000" stroke="#000000" stroke-linecap="round" stroke-linejoin="round" stroke-width="8.000000"
	d="
M262.500000,92.500000 
	C262.653748,97.825874 260.486542,102.768021 259.915222,107.990730 
	C259.670593,110.227135 257.433472,110.845871 255.509735,110.452400 
	C243.523483,108.000839 231.532211,109.037949 219.491821,109.883575 
	C215.743423,110.146828 212.305298,111.608688 208.505219,111.705238 
	C206.516800,111.755775 204.809235,111.431679 202.596497,110.903725 
	C198.011246,116.022491 190.915466,116.845100 184.899536,119.795113 
	C178.777863,122.796951 172.444122,125.334702 167.033997,129.543701 
	C163.847290,132.022919 160.360184,130.678986 157.000000,131.000000 
"/>
<path fill="none" opacity="1.000000" stroke="#000000" stroke-linecap="round" stroke-linejoin="round" stroke-width="4.000000"
	d="
M231.500000,214.500000 
	C230.034286,214.376190 229.351868,214.559631 228.868591,216.466705 
	C227.616577,221.407211 227.571152,226.823380 224.000000,231.000000 
"/>
<path fill="none" opacity="1.000000" stroke="#000000" stroke-linecap="round" stroke-linejoin="round" stroke-width="6.000000"
	d="
M251.500000,90.500000 
	C249.416428,95.166664 252.775177,99.822403 251.526749,104.507133 
	C251.183960,105.793526 251.166656,107.166664 250.999985,108.500000 
"/>
<path fill="none" opacity="1.000000" stroke="#000000" stroke-linecap="round" stroke-linejoin="round" stroke-width="4.000000"
	d="
M236.750000,87.500000 
	C239.791061,92.628304 238.691971,98.129593 237.865356,103.479195 
	C237.628876,105.009605 237.772064,106.511711 237.500000,108.000000 
"/>
<path fill="none" opacity="1.000000" stroke="#000000" stroke-linecap="round" stroke-linejoin="round" stroke-width="3.000000"
	d="
M163.000000,109.500000 
	C163.596786,115.881714 165.551392,121.704330 170.000000,126.500000 
"/>
<path fill="none" opacity="1.000000" stroke="#000000" stroke-linecap="round" stroke-linejoin="round" stroke-width="3.000000"
	d="
M225.000000,91.000000 
	C227.253983,96.651924 227.157410,102.572487 227.000000,108.500000 
"/>
<path fill="none" opacity="1.000000" stroke="#000000" stroke-linecap="round" stroke-linejoin="round" stroke-width="8.000000"
	d="
M260.000000,109.500000 
	C263.911896,112.873840 268.207123,112.989456 272.848724,110.825272 
	C272.845154,105.998360 276.483032,102.435310 278.164032,98.063072 
	C279.064087,95.722160 282.611115,95.790085 284.429901,96.648521 
	C289.899933,99.230286 295.887024,100.485764 301.085785,103.868164 
	C304.587158,106.146217 308.854858,107.148102 312.574890,109.374886 
	C317.285400,112.194565 320.268555,115.981049 322.000000,121.000000 
"/>
<path fill="none" opacity="1.000000" stroke="#000000" stroke-linecap="round" stroke-linejoin="round" stroke-width="8.000000"
	d="
M134.500000,124.500000 
	C138.659637,123.144722 142.565628,121.053825 146.984055,120.393356 
	C147.710831,120.284721 148.876114,120.186401 149.550323,119.029320 
	C154.036575,111.329903 162.666916,109.434807 169.480621,104.970428 
	C174.756790,101.513466 181.413315,101.606918 186.603516,97.635277 
	C190.265625,94.832977 195.745850,98.155502 199.350220,96.220947 
	C203.306885,94.097313 206.740524,91.697174 211.494461,91.408760 
	C219.847610,90.901978 228.166672,89.833336 236.500000,89.000000 
"/>
<path fill="none" opacity="1.000000" stroke="#000000" stroke-linecap="round" stroke-linejoin="round" stroke-width="5.000000"
	d="
M212.500000,215.500000 
	C209.833328,214.537598 207.166672,214.835129 204.375000,215.505447 
	C204.375000,221.327377 204.375000,227.161911 204.375000,233.017258 
	C206.954086,233.924194 209.749619,233.339737 212.500000,233.500000 
"/>
<path fill="none" opacity="1.000000" stroke="#000000" stroke-linecap="round" stroke-linejoin="round" stroke-width="8.000000"
	d="
M339.500000,125.000000 
	C335.666656,123.666672 331.879486,122.175110 327.988251,121.040314 
	C323.195038,119.642456 320.322144,121.263229 318.500000,126.000000 
	C316.825012,130.354141 314.838593,131.512466 310.504517,130.481064 
	C308.157806,129.922623 306.056183,128.815292 303.970825,127.548012 
	C299.061890,124.564842 294.000000,121.833336 289.000000,119.000000 
"/>
<path fill="none" opacity="1.000000" stroke="#000000" stroke-linecap="round" stroke-linejoin="round" stroke-width="3.000000"
	d="
M308.000000,107.500000 
	C305.873047,113.420647 301.328247,118.203491 300.000000,124.500000 
"/>
<path fill="none" opacity="1.000000" stroke="#000000" stroke-linecap="round" stroke-linejoin="round" stroke-width="3.000000"
	d="
M172.000000,106.000000 
	C176.769623,110.068459 178.022491,115.838577 179.500000,121.500000 
"/>
<path fill="none" opacity="1.000000" stroke="#000000" stroke-linecap="round" stroke-linejoin="round" stroke-width="4.000000"
	d="
M217.500000,214.500000 
	C219.420227,217.376068 219.656540,220.828171 220.364548,224.029953 
	C221.032654,227.051285 222.265244,229.581879 224.000000,232.000000 
"/>
<path fill="none" opacity="1.000000" stroke="#000000" stroke-linecap="round" stroke-linejoin="round" stroke-width="8.000000"
	d="
M173.500000,163.000000 
	C170.969391,163.962585 169.629852,166.213593 169.616531,168.500687 
	C169.584473,173.998917 168.674545,179.590439 170.500000,185.000000 
"/>
<path fill="none" opacity="1.000000" stroke="#000000" stroke-linecap="round" stroke-linejoin="round" stroke-width="6.000000"
	d="
M301.500000,105.000000 
	C298.646393,109.625900 298.341858,115.186462 296.000000,120.000000 
"/>
<path fill="none" opacity="1.000000" stroke="#000000" stroke-linecap="round" stroke-linejoin="round" stroke-width="3.000000"
	d="
M221.500000,330.500000 
	C221.194733,333.009918 219.234299,331.814056 217.995453,331.961975 
	C213.006058,332.557678 209.691620,336.538971 210.554321,341.490540 
	C211.055923,344.369568 210.680634,347.615417 213.948700,349.585114 
	C215.774506,350.685486 217.078583,351.823395 219.543213,351.160736 
	C220.972168,350.776550 222.833344,352.000000 224.500000,352.500000 
"/>
<path fill="none" opacity="1.000000" stroke="#000000" stroke-linecap="round" stroke-linejoin="round" stroke-width="5.000000"
	d="
M247.000000,139.250000 
	C246.000000,143.000000 244.502472,146.702438 244.138214,150.513214 
	C243.764740,154.420273 242.715271,157.857956 239.920853,160.413452 
	C238.383942,161.818954 239.434052,163.191849 239.000000,164.500000 
"/>
<path fill="none" opacity="1.000000" stroke="#000000" stroke-linecap="round" stroke-linejoin="round" stroke-width="5.000000"
	d="
M261.500000,139.500000 
	C258.656097,140.205780 256.482483,141.882248 254.467346,143.968460 
	C252.232849,146.281784 251.837021,148.530304 254.008621,150.992401 
	C256.303528,153.594269 258.637146,152.744385 261.012634,151.017395 
	C262.171509,150.174911 262.602386,148.310013 264.500000,148.500000 
"/>
<path fill="none" opacity="1.000000" stroke="#000000" stroke-linecap="round" stroke-linejoin="round" stroke-width="4.000000"
	d="
M276.000000,141.500000 
	C273.282990,143.510208 272.700165,146.856491 270.972626,149.481995 
	C270.068573,150.855942 269.085449,152.876434 267.040314,151.914291 
	C265.198334,151.047729 264.659393,148.924728 265.054688,147.011292 
	C265.683167,143.968979 266.666687,141.000000 267.500000,138.000000 
"/>
<path fill="none" opacity="1.000000" stroke="#000000" stroke-linecap="round" stroke-linejoin="round" stroke-width="7.000000"
	d="
M313.499969,191.000000 
	C314.166656,193.333344 314.610199,195.762558 315.560486,197.973999 
	C316.582886,200.353149 317.369324,203.310425 321.000000,203.000000 
"/>
<path fill="none" opacity="1.000000" stroke="#000000" stroke-linecap="round" stroke-linejoin="round" stroke-width="4.000000"
	d="
M271.000000,233.000000 
	C272.701324,226.064453 267.258331,221.117477 265.935333,215.014008 
	C265.712494,213.985901 264.333008,214.668228 263.500000,214.500000 
"/>
<path fill="none" opacity="1.000000" stroke="#000000" stroke-linecap="round" stroke-linejoin="round" stroke-width="5.000000"
	d="
M232.000000,90.500000 
	C232.200211,94.498604 231.515274,98.534088 232.500000,102.500000 
"/>
<path fill="none" opacity="1.000000" stroke="#000000" stroke-linecap="round" stroke-linejoin="round" stroke-width="3.000000"
	d="
M316.000000,131.000000 
	C315.453766,135.236710 317.893372,138.694489 319.000000,142.500000 
"/>
<path fill="none" opacity="1.000000" stroke="#000000" stroke-linecap="round" stroke-linejoin="round" stroke-width="3.000000"
	d="
M166.999985,222.000000 
	C166.666656,223.000000 166.238770,223.979446 166.016251,225.003540 
	C165.019470,229.591125 165.582901,230.138031 170.500000,229.500000 
"/>
<path fill="none" opacity="1.000000" stroke="#000000" stroke-linecap="round" stroke-linejoin="round" stroke-width="2.000000"
	d="
M249.000000,371.500000 
	C248.798615,370.133667 249.303818,368.800018 248.102371,367.411438 
	C247.048477,366.193298 246.039780,366.714020 245.000000,366.500000 
	C245.506805,369.058380 241.797150,369.859924 242.500000,372.500000 
"/>
<path fill="none" opacity="1.000000" stroke="#000000" stroke-linecap="round" stroke-linejoin="round" stroke-width="8.000000"
	d="
M273.000000,111.500000 
	C276.254150,115.837555 281.725098,116.057739 286.056366,118.395599 
	C287.165680,118.994377 289.290070,119.162384 290.000000,117.000000 
"/>
<path fill="none" opacity="1.000000" stroke="#000000" stroke-linecap="round" stroke-linejoin="round" stroke-width="8.000000"
	d="
M239.000000,89.500000 
	C250.520844,89.239479 261.786346,91.156746 272.998291,93.508118 
	C275.249634,93.980270 276.974884,95.348999 278.500000,97.000000 
"/>
<path fill="none" opacity="1.000000" stroke="#000000" stroke-linecap="round" stroke-linejoin="round" stroke-width="4.000000"
	d="
M276.500000,214.500000 
	C274.037964,217.487534 274.012268,221.815079 271.000000,224.500000 
"/>
<path fill="none" opacity="1.000000" stroke="#000000" stroke-linecap="round" stroke-linejoin="round" stroke-width="4.000000"
	d="
M246.500000,217.500000 
	C245.007950,213.642792 241.636047,215.124695 238.999481,215.112427 
	C237.374725,215.104843 236.123276,216.851868 236.572952,218.479843 
	C237.887527,223.239044 235.487030,228.047241 237.000000,232.750000 
"/>
<path fill="none" opacity="1.000000" stroke="#000000" stroke-linecap="round" stroke-linejoin="round" stroke-width="4.000000"
	d="
M250.500000,338.500000 
	C257.601929,337.627594 256.654449,338.288300 255.508728,348.174683 
	C256.827942,348.034302 258.163971,347.892151 259.500000,347.750000 
"/>
<path fill="none" opacity="1.000000" stroke="#000000" stroke-linecap="round" stroke-linejoin="round" stroke-width="7.000000"
	d="
M271.500000,174.500000 
	C270.207001,173.378967 268.727356,172.591156 267.006378,173.025330 
	C262.653778,174.123428 258.333344,172.931656 254.000000,173.000000 
"/>
<path fill="none" opacity="1.000000" stroke="#000000" stroke-linecap="round" stroke-linejoin="round" stroke-width="5.000000"
	d="
M292.500000,100.500000 
	C293.019226,105.662689 288.627441,108.099304 285.758698,110.737625 
	C283.917847,112.430634 283.645569,114.318565 282.500000,116.000000 
"/>
<path fill="none" opacity="1.000000" stroke="#000000" stroke-linecap="round" stroke-linejoin="round" stroke-width="3.000000"
	d="
M253.000000,328.500000 
	C251.934097,327.286865 250.428650,326.368927 249.038422,327.075562 
	C245.907135,328.667206 242.669174,327.690430 239.500000,328.000000 
"/>
<path fill="none" opacity="1.000000" stroke="#000000" stroke-linecap="round" stroke-linejoin="round" stroke-width="7.000000"
	d="
M245.000000,173.750000 
	C239.000000,172.382935 233.000000,173.143646 227.000000,173.750000 
"/>
<path fill="none" opacity="1.000000" stroke="#000000" stroke-linecap="round" stroke-linejoin="round" stroke-width="2.000000"
	d="
M180.500000,208.500000 
	C179.333282,208.000137 178.553680,206.596954 176.558563,207.114517 
	C176.196564,211.319336 172.735168,214.188873 171.000000,218.000000 
"/>
<path fill="none" opacity="1.000000" stroke="#000000" stroke-linecap="round" stroke-linejoin="round" stroke-width="4.000000"
	d="
M270.000000,128.500000 
	C269.166656,131.666672 268.333313,134.833328 267.500000,138.000000 
"/>
<path fill="none" opacity="1.000000" stroke="#000000" stroke-linecap="round" stroke-linejoin="round" stroke-width="3.000000"
	d="
M181.000000,102.000000 
	C181.748383,104.816292 182.496765,107.632584 183.313629,110.706573 
	C185.571823,111.237572 188.289169,111.781105 189.000000,115.000000 
"/>
<path fill="none" opacity="1.000000" stroke="#000000" stroke-linecap="round" stroke-linejoin="round" stroke-width="6.000000"
	d="
M250.500000,336.500000 
	C250.698059,335.034180 250.036362,333.936798 248.793945,332.814056 
	C244.199646,335.892639 238.418442,333.409973 233.452728,335.905945 
	C231.444519,336.915375 229.058243,337.044708 229.000000,340.000000 
"/>
<path fill="none" opacity="1.000000" stroke="#000000" stroke-linecap="round" stroke-linejoin="round" stroke-width="4.000000"
	d="
M234.500000,234.000000 
	C238.100494,232.377686 241.851669,234.070007 245.500000,233.500000 
"/>
<path fill="none" opacity="1.000000" stroke="#000000" stroke-linecap="round" stroke-linejoin="round" stroke-width="5.000000"
	d="
M255.500000,327.500000 
	C255.309174,328.547516 253.823944,328.997620 254.448669,330.521057 
	C255.431702,332.918274 255.140228,335.484222 254.750000,338.000000 
"/>
<path fill="none" opacity="1.000000" stroke="#000000" stroke-linecap="round" stroke-linejoin="round" stroke-width="2.000000"
	d="
M249.500000,318.500000 
	C249.500000,321.166656 249.500000,323.833344 249.500000,326.500000 
"/>
<path fill="none" opacity="1.000000" stroke="#000000" stroke-linecap="round" stroke-linejoin="round" stroke-width="4.000000"
	d="
M276.500000,133.500000 
	C274.527588,139.519760 278.772400,143.935074 280.496552,149.000916 
	C278.812073,151.078033 277.540558,154.238815 274.000000,151.500000 
"/>
<path fill="none" opacity="1.000000" stroke="#000000" stroke-linecap="round" stroke-linejoin="round" stroke-width="3.000000"
	d="
M214.000000,102.000000 
	C216.209351,104.041328 216.832199,106.611488 216.500000,109.500000 
"/>
<path fill="none" opacity="1.000000" stroke="#000000" stroke-linecap="round" stroke-linejoin="round" stroke-width="4.000000"
	d="
M256.500000,227.000000 
	C258.630035,228.810242 257.345367,233.247162 261.500000,233.500000 
"/>
<path fill="none" opacity="1.000000" stroke="#000000" stroke-linecap="round" stroke-linejoin="round" stroke-width="3.000000"
	d="
M157.000000,114.000000 
	C157.920929,115.989708 160.384918,116.997482 160.500000,119.500000 
"/>
<path fill="none" opacity="1.000000" stroke="#000000" stroke-linecap="round" stroke-linejoin="round" stroke-width="3.000000"
	d="
M297.000000,288.000000 
	C295.015320,289.394318 292.955353,290.625458 290.500000,291.000000 
"/>
<path fill="none" opacity="1.000000" stroke="#000000" stroke-linecap="round" stroke-linejoin="round" stroke-width="3.000000"
	d="
M226.000000,344.500000 
	C225.560654,347.400970 222.631836,348.578461 221.500000,351.000000 
"/>
<path fill="none" opacity="1.000000" stroke="#000000" stroke-linecap="round" stroke-linejoin="round" stroke-width="3.000000"
	d="
M231.500000,277.500000 
	C229.532654,277.942078 229.065979,280.099213 227.500000,281.000000 
"/>
<path fill="none" opacity="1.000000" stroke="#000000" stroke-linecap="round" stroke-linejoin="round" stroke-width="3.000000"
	d="
M306.500000,120.499992 
	C305.666656,122.333328 304.833313,124.166656 304.000000,125.999992 
"/>
<path fill="none" opacity="1.000000" stroke="#000000" stroke-linecap="round" stroke-linejoin="round" stroke-width="3.000000"
	d="
M246.000000,307.500000 
	C245.806610,309.587799 244.481735,311.864166 247.191849,313.544739 
	C249.425522,313.115234 251.343033,312.095459 252.000000,309.500000 
"/>
<path fill="none" opacity="1.000000" stroke="#000000" stroke-linecap="round" stroke-linejoin="round" stroke-width="3.000000"
	d="
M221.500000,366.000000 
	C219.177826,363.777710 217.144119,361.222778 214.007828,359.980225 
	C211.983902,359.178345 213.256653,357.725250 213.500000,356.500000 
"/>
<path fill="none" opacity="1.000000" stroke="#000000" stroke-linecap="round" stroke-linejoin="round" stroke-width="3.000000"
	d="
M222.500000,366.500000 
	C223.369873,368.093597 225.129501,367.963623 226.520203,368.441162 
	C227.554718,368.796387 227.709351,369.145325 227.250000,370.000000 
"/>
<path fill="none" opacity="1.000000" stroke="#000000" stroke-linecap="round" stroke-linejoin="round" stroke-width="2.000000"
	d="
M218.500000,137.500000 
	C219.666672,137.666672 220.833328,137.833344 222.000000,138.000000 
"/>
</svg>