<?xml version="1.0" encoding="UTF-8"?>
<!DOCTYPE svg PUBLIC "-//W3C//DTD SVG 1.1//EN" "http://www.w3.org/Graphics/SVG/1.1/DTD/svg11.dtd">
<svg xmlns="http://www.w3.org/2000/svg" version="1.1" width="938px" height="938px" style="shape-rendering:geometricPrecision; text-rendering:geometricPrecision; image-rendering:optimizeQuality; fill-rule:evenodd; clip-rule:evenodd" xmlns:xlink="http://www.w3.org/1999/xlink">
<g><path style="opacity:1" fill="#fefefe" d="M -0.5,-0.5 C 312.167,-0.5 624.833,-0.5 937.5,-0.5C 937.5,312.167 937.5,624.833 937.5,937.5C 624.833,937.5 312.167,937.5 -0.5,937.5C -0.5,624.833 -0.5,312.167 -0.5,-0.5 Z"/></g>
<g><path style="opacity:1" fill="#050505" d="M 402.5,294.5 C 406.833,294.5 411.167,294.5 415.5,294.5C 415.333,307.837 415.5,321.171 416,334.5C 422.167,327.667 428.333,320.833 434.5,314C 439.5,313.333 444.5,313.333 449.5,314C 443.167,321 436.833,328 430.5,335C 436.781,344.282 443.448,353.282 450.5,362C 445.5,362.667 440.5,362.667 435.5,362C 431.001,355.466 426.168,349.299 421,343.5C 419.374,344.289 417.874,345.289 416.5,346.5C 415.505,351.792 415.172,357.125 415.5,362.5C 411.167,362.5 406.833,362.5 402.5,362.5C 402.5,339.833 402.5,317.167 402.5,294.5 Z"/></g>
<g><path style="opacity:1" fill="#565656" d="M 686.5,362.5 C 686.5,340.167 686.5,317.833 686.5,295.5C 682.5,295.5 678.5,295.5 674.5,295.5C 674.5,301.833 674.5,308.167 674.5,314.5C 673.509,308.021 673.176,301.354 673.5,294.5C 678.167,294.5 682.833,294.5 687.5,294.5C 687.831,317.339 687.497,340.006 686.5,362.5 Z"/></g>
<g><path style="opacity:1" fill="#050505" d="M 686.5,362.5 C 683.102,362.82 679.768,362.487 676.5,361.5C 675.948,359.667 675.115,358 674,356.5C 664.593,365.765 655.26,365.765 646,356.5C 639.368,343.008 640.034,330.008 648,317.5C 653.548,313.652 659.715,312.485 666.5,314C 669.562,315.061 672.062,316.894 674,319.5C 674.494,317.866 674.66,316.199 674.5,314.5C 674.5,308.167 674.5,301.833 674.5,295.5C 678.5,295.5 682.5,295.5 686.5,295.5C 686.5,317.833 686.5,340.167 686.5,362.5 Z"/></g>
<g><path style="opacity:1" fill="#080808" d="M 268.5,298.5 C 274.842,298.334 281.175,298.5 287.5,299C 290.618,300.147 293.618,301.48 296.5,303C 294.871,306.427 293.371,309.927 292,313.5C 283.86,308.47 275.693,308.304 267.5,313C 263.206,318.221 261.54,324.221 262.5,331C 260.818,343.295 265.985,350.461 278,352.5C 283.456,352.243 288.623,350.909 293.5,348.5C 294.491,352.445 294.824,356.445 294.5,360.5C 260.291,369.133 245.124,355.8 249,320.5C 252.227,310.115 258.727,302.782 268.5,298.5 Z"/></g>
<g><path style="opacity:1" fill="#060606" d="M 319.5,313.5 C 339.091,310.783 349.758,319.116 351.5,338.5C 349.331,358.593 338.331,366.427 318.5,362C 312.333,359.833 308.167,355.667 306,349.5C 300.323,333.253 304.823,321.253 319.5,313.5 Z"/></g>
<g><path style="opacity:1" fill="#050505" d="M 362.5,362.5 C 362.5,346.5 362.5,330.5 362.5,314.5C 365.939,314.253 369.272,314.586 372.5,315.5C 372.565,317.696 373.232,319.696 374.5,321.5C 379.016,314.747 385.349,312.081 393.5,313.5C 393.167,317.5 392.833,321.5 392.5,325.5C 385.262,324.07 379.762,326.404 376,332.5C 375.5,342.494 375.334,352.494 375.5,362.5C 371.167,362.5 366.833,362.5 362.5,362.5 Z"/></g>
<g><path style="opacity:1" fill="#5c5c5c" d="M 464.5,314.5 C 460.298,314.183 456.298,314.517 452.5,315.5C 451.957,315.44 451.624,315.107 451.5,314.5C 455.984,313.189 460.317,313.189 464.5,314.5 Z"/></g>
<g><path style="opacity:1" fill="#606060" d="M 513.5,314.5 C 517.683,313.189 522.016,313.189 526.5,314.5C 526.376,315.107 526.043,315.44 525.5,315.5C 521.702,314.517 517.702,314.183 513.5,314.5 Z"/></g>
<g><path style="opacity:1" fill="#060606" d="M 546.5,313.5 C 566.091,310.783 576.758,319.116 578.5,338.5C 576.331,358.593 565.331,366.427 545.5,362C 539.333,359.833 535.167,355.667 533,349.5C 527.323,333.253 531.823,321.253 546.5,313.5 Z"/></g>
<g><path style="opacity:1" fill="#070707" d="M 601.5,313.5 C 624.778,310.945 635.278,321.278 633,344.5C 628.6,359.125 618.766,365.292 603.5,363C 594.904,360.071 589.404,354.237 587,345.5C 583.511,330.825 588.344,320.158 601.5,313.5 Z"/></g>
<g><path style="opacity:1" fill="#757575" d="M 372.5,315.5 C 369.272,314.586 365.939,314.253 362.5,314.5C 362.5,330.5 362.5,346.5 362.5,362.5C 361.504,346.342 361.17,330.009 361.5,313.5C 365.649,312.92 369.316,313.586 372.5,315.5 Z"/></g>
<g><path style="opacity:1" fill="#070707" d="M 503.5,346.5 C 503.34,348.199 503.506,349.866 504,351.5C 505.128,349.655 505.628,347.655 505.5,345.5C 507.098,334.773 509.764,324.44 513.5,314.5C 517.702,314.183 521.702,314.517 525.5,315.5C 520.702,331.025 516.368,346.692 512.5,362.5C 507.5,362.5 502.5,362.5 497.5,362.5C 495.187,349.725 492.354,337.058 489,324.5C 485.838,336.774 482.671,349.108 479.5,361.5C 474.615,362.802 469.782,362.802 465,361.5C 461.145,346.099 456.978,330.766 452.5,315.5C 456.298,314.517 460.298,314.183 464.5,314.5C 466.956,321.641 469.123,328.974 471,336.5C 471.995,341.453 472.662,346.453 473,351.5C 475.208,338.672 478.041,326.005 481.5,313.5C 486.5,313.5 491.5,313.5 496.5,313.5C 498.995,324.479 501.329,335.479 503.5,346.5 Z"/></g>
<g><path style="opacity:1" fill="#f8f8f8" d="M 323.5,323.5 C 330.079,322.038 334.579,324.371 337,330.5C 338.141,337.084 337.474,343.417 335,349.5C 331.662,352.318 327.829,353.151 323.5,352C 321.333,351.167 319.833,349.667 319,347.5C 317.561,342.238 317.228,336.904 318,331.5C 319.104,328.279 320.937,325.612 323.5,323.5 Z"/></g>
<g><path style="opacity:1" fill="#f8f8f8" d="M 550.5,323.5 C 557.079,322.038 561.579,324.371 564,330.5C 565.141,337.084 564.474,343.417 562,349.5C 558.662,352.318 554.829,353.151 550.5,352C 548.333,351.167 546.833,349.667 546,347.5C 544.561,342.238 544.228,336.904 545,331.5C 546.104,328.279 547.937,325.612 550.5,323.5 Z"/></g>
<g><path style="opacity:1" fill="#f8f8f8" d="M 606.5,323.5 C 612.204,322.436 616.371,324.436 619,329.5C 619.818,335.902 619.484,342.235 618,348.5C 613.076,353.347 607.909,353.68 602.5,349.5C 598.734,342.245 598.568,334.912 602,327.5C 603.397,325.93 604.897,324.596 606.5,323.5 Z"/></g>
<g><path style="opacity:1" fill="#f9f9f9" d="M 661.5,323.5 C 667.425,322.875 671.591,325.208 674,330.5C 674.667,335.5 674.667,340.5 674,345.5C 671.792,352.11 667.292,354.276 660.5,352C 658.19,350.363 656.69,348.196 656,345.5C 655.333,340.167 655.333,334.833 656,329.5C 657.36,326.977 659.193,324.977 661.5,323.5 Z"/></g>
<g><path style="opacity:1" fill="#7d7d7d" d="M 505.5,345.5 C 505.628,347.655 505.128,349.655 504,351.5C 503.506,349.866 503.34,348.199 503.5,346.5C 504.167,346.167 504.833,345.833 505.5,345.5 Z"/></g>
<g><path style="opacity:1" fill="#aeaeae" d="M 250.5,396.5 C 242.833,396.5 235.167,396.5 227.5,396.5C 227.5,417.5 227.5,438.5 227.5,459.5C 226.503,438.34 226.169,417.007 226.5,395.5C 234.684,395.174 242.684,395.508 250.5,396.5 Z"/></g>
<g><path style="opacity:1" fill="#030303" d="M 250.5,396.5 C 265.668,396.831 272.502,404.498 271,419.5C 268.894,425.272 265.061,429.438 259.5,432C 265.376,440.92 271.376,449.753 277.5,458.5C 272.5,459.833 267.5,459.833 262.5,458.5C 257.806,450.816 253.14,443.149 248.5,435.5C 246.052,434.527 243.385,434.194 240.5,434.5C 240.5,442.833 240.5,451.167 240.5,459.5C 236.167,459.5 231.833,459.5 227.5,459.5C 227.5,438.5 227.5,417.5 227.5,396.5C 235.167,396.5 242.833,396.5 250.5,396.5 Z"/></g>
<g><path style="opacity:1" fill="#040404" d="M 396.5,410.5 C 400.634,411.485 404.968,411.818 409.5,411.5C 409.5,414.5 409.5,417.5 409.5,420.5C 405.167,420.5 400.833,420.5 396.5,420.5C 396.174,429.349 396.507,438.016 397.5,446.5C 397.414,447.496 397.748,448.329 398.5,449C 402.537,449.607 406.537,449.44 410.5,448.5C 410.5,451.833 410.5,455.167 410.5,458.5C 403.883,460.814 397.216,460.981 390.5,459C 387.266,457.056 385.1,454.222 384,450.5C 383.5,440.506 383.334,430.506 383.5,420.5C 381.5,420.5 379.5,420.5 377.5,420.5C 377.201,418.396 377.534,416.396 378.5,414.5C 384.001,411.51 387.001,406.843 387.5,400.5C 390.5,400.5 393.5,400.5 396.5,400.5C 396.5,403.833 396.5,407.167 396.5,410.5 Z"/></g>
<g><path style="opacity:1" fill="#030303" d="M 700.5,410.5 C 704.634,411.485 708.968,411.818 713.5,411.5C 713.5,414.5 713.5,417.5 713.5,420.5C 709.167,420.5 704.833,420.5 700.5,420.5C 700.174,429.349 700.507,438.016 701.5,446.5C 701.414,447.496 701.748,448.329 702.5,449C 706.537,449.607 710.537,449.44 714.5,448.5C 714.5,451.833 714.5,455.167 714.5,458.5C 710.864,459.326 707.197,459.992 703.5,460.5C 695.82,460.976 690.653,457.642 688,450.5C 687.5,440.506 687.334,430.506 687.5,420.5C 685.5,420.5 683.5,420.5 681.5,420.5C 681.201,418.396 681.534,416.396 682.5,414.5C 688.001,411.51 691.001,406.843 691.5,400.5C 694.5,400.5 697.5,400.5 700.5,400.5C 700.5,403.833 700.5,407.167 700.5,410.5 Z"/></g>
<g><path style="opacity:1" fill="#aaaaaa" d="M 248.5,407.5 C 246.167,407.5 243.833,407.5 241.5,407.5C 241.5,412.833 241.5,418.167 241.5,423.5C 244.167,423.5 246.833,423.5 249.5,423.5C 246.713,424.477 243.713,424.81 240.5,424.5C 240.5,418.5 240.5,412.5 240.5,406.5C 243.385,406.194 246.052,406.527 248.5,407.5 Z"/></g>
<g><path style="opacity:1" fill="#fcfcfc" d="M 248.5,407.5 C 257.096,408.27 259.596,412.603 256,420.5C 254.266,422.451 252.099,423.451 249.5,423.5C 246.833,423.5 244.167,423.5 241.5,423.5C 241.5,418.167 241.5,412.833 241.5,407.5C 243.833,407.5 246.167,407.5 248.5,407.5 Z"/></g>
<g><path style="opacity:1" fill="#070707" d="M 322.5,447.5 C 323.479,450.625 323.813,453.958 323.5,457.5C 319.686,458.368 316.019,459.368 312.5,460.5C 308.5,460.5 304.5,460.5 300.5,460.5C 291.755,458.515 285.921,453.182 283,444.5C 279.12,416.703 290.62,406.203 317.5,413C 325.715,419.468 328.715,427.968 326.5,438.5C 316.167,438.5 305.833,438.5 295.5,438.5C 296.704,448.777 302.371,452.61 312.5,450C 315.929,449.467 319.262,448.633 322.5,447.5 Z"/></g>
<g><path style="opacity:1" fill="#070707" d="M 335.5,457.5 C 335.187,453.958 335.521,450.625 336.5,447.5C 342.56,450.158 348.893,450.992 355.5,450C 359.037,448.174 359.371,445.84 356.5,443C 349.423,440.049 342.923,436.215 337,431.5C 332.019,421.958 334.519,415.125 344.5,411C 350.833,410.333 357.167,410.333 363.5,411C 365.762,411.642 367.929,412.475 370,413.5C 370.105,417.29 368.605,420.29 365.5,422.5C 361.897,421.194 358.23,420.194 354.5,419.5C 349.333,419.121 347.666,421.287 349.5,426C 356.526,428.595 363.026,432.095 369,436.5C 374.806,450.044 370.306,457.877 355.5,460C 348.453,461.118 341.787,460.285 335.5,457.5 Z"/></g>
<g><path style="opacity:1" fill="#080808" d="M 434.5,409.5 C 443.413,408.529 451.246,410.862 458,416.5C 458.667,417.833 459.333,419.167 460,420.5C 460.5,433.496 460.667,446.496 460.5,459.5C 457.428,459.817 454.428,459.484 451.5,458.5C 451.047,456.435 450.047,454.768 448.5,453.5C 441.216,460.874 432.883,462.374 423.5,458C 417.885,453.032 416.052,446.865 418,439.5C 420.84,433.996 425.34,430.829 431.5,430C 436.823,429.501 442.156,429.334 447.5,429.5C 447.688,420.569 443.354,417.402 434.5,420C 431.509,421.523 428.509,422.023 425.5,421.5C 423.529,418.973 422.863,416.307 423.5,413.5C 427.22,411.998 430.886,410.665 434.5,409.5 Z"/></g>
<g><path style="opacity:1" fill="#030303" d="M 533.5,459.5 C 533.5,443.5 533.5,427.5 533.5,411.5C 536.833,411.5 540.167,411.5 543.5,411.5C 543.755,414.016 544.589,416.35 546,418.5C 548.537,415.628 551.37,413.128 554.5,411C 557.817,410.502 561.15,410.335 564.5,410.5C 564.5,414.5 564.5,418.5 564.5,422.5C 556.955,420.864 551.122,423.197 547,429.5C 546.5,439.494 546.334,449.494 546.5,459.5C 542.167,459.5 537.833,459.5 533.5,459.5 Z"/></g>
<g><path style="opacity:1" fill="#080808" d="M 587.5,409.5 C 596.413,408.529 604.246,410.862 611,416.5C 611.667,417.833 612.333,419.167 613,420.5C 613.5,433.496 613.667,446.496 613.5,459.5C 610.428,459.817 607.428,459.484 604.5,458.5C 604.047,456.435 603.047,454.768 601.5,453.5C 594.216,460.874 585.883,462.374 576.5,458C 570.885,453.032 569.052,446.865 571,439.5C 573.84,433.996 578.34,430.829 584.5,430C 589.823,429.501 595.156,429.334 600.5,429.5C 600.688,420.569 596.354,417.402 587.5,420C 584.509,421.523 581.509,422.023 578.5,421.5C 576.529,418.973 575.863,416.307 576.5,413.5C 580.22,411.998 583.886,410.665 587.5,409.5 Z"/></g>
<g><path style="opacity:1" fill="#040404" d="M 627.5,410.5 C 630.85,410.335 634.183,410.502 637.5,411C 638.11,412.947 638.943,414.781 640,416.5C 643.74,411.881 648.573,409.881 654.5,410.5C 663.372,409.512 669.206,413.178 672,421.5C 672.5,434.162 672.667,446.829 672.5,459.5C 668.167,459.5 663.833,459.5 659.5,459.5C 659.667,448.495 659.5,437.495 659,426.5C 656.528,421.219 652.361,419.386 646.5,421C 643.533,423.1 641.7,425.934 641,429.5C 640.5,439.494 640.334,449.494 640.5,459.5C 636.167,459.5 631.833,459.5 627.5,459.5C 627.5,443.167 627.5,426.833 627.5,410.5 Z"/></g>
<g><path style="opacity:1" fill="#424242" d="M 396.5,410.5 C 401.167,410.5 405.833,410.5 410.5,410.5C 410.5,413.833 410.5,417.167 410.5,420.5C 410.167,420.5 409.833,420.5 409.5,420.5C 409.5,417.5 409.5,414.5 409.5,411.5C 404.968,411.818 400.634,411.485 396.5,410.5 Z"/></g>
<g><path style="opacity:1" fill="#a1a1a1" d="M 487.5,411.5 C 483.167,411.5 478.833,411.5 474.5,411.5C 474.5,422.833 474.5,434.167 474.5,445.5C 473.505,434.012 473.172,422.345 473.5,410.5C 478.363,410.181 483.03,410.514 487.5,411.5 Z"/></g>
<g><path style="opacity:1" fill="#030303" d="M 487.5,411.5 C 487.043,423.268 487.543,434.935 489,446.5C 492.719,449.902 496.886,450.402 501.5,448C 504.373,445.087 505.706,441.587 505.5,437.5C 506.493,429.016 506.826,420.349 506.5,411.5C 510.5,411.5 514.5,411.5 518.5,411.5C 518.5,427.5 518.5,443.5 518.5,459.5C 515.167,459.5 511.833,459.5 508.5,459.5C 508.753,457.173 508.086,455.173 506.5,453.5C 497.594,461.96 488.094,462.627 478,455.5C 476.132,452.395 474.965,449.062 474.5,445.5C 474.5,434.167 474.5,422.833 474.5,411.5C 478.833,411.5 483.167,411.5 487.5,411.5 Z"/></g>
<g><path style="opacity:1" fill="#616161" d="M 518.5,459.5 C 518.5,443.5 518.5,427.5 518.5,411.5C 514.5,411.5 510.5,411.5 506.5,411.5C 506.826,420.349 506.493,429.016 505.5,437.5C 505.5,428.5 505.5,419.5 505.5,410.5C 510.167,410.5 514.833,410.5 519.5,410.5C 519.83,427.009 519.496,443.342 518.5,459.5 Z"/></g>
<g><path style="opacity:1" fill="#aaaaaa" d="M 543.5,411.5 C 540.167,411.5 536.833,411.5 533.5,411.5C 533.5,427.5 533.5,443.5 533.5,459.5C 532.504,443.342 532.17,427.009 532.5,410.5C 536.371,410.185 540.038,410.518 543.5,411.5 Z"/></g>
<g><path style="opacity:1" fill="#424242" d="M 700.5,410.5 C 705.167,410.5 709.833,410.5 714.5,410.5C 714.5,413.833 714.5,417.167 714.5,420.5C 714.167,420.5 713.833,420.5 713.5,420.5C 713.5,417.5 713.5,414.5 713.5,411.5C 708.968,411.818 704.634,411.485 700.5,410.5 Z"/></g>
<g><path style="opacity:1" fill="#f9f9f9" d="M 301.5,419.5 C 309.379,418.391 313.712,421.724 314.5,429.5C 308.5,429.5 302.5,429.5 296.5,429.5C 296.075,425.017 297.741,421.683 301.5,419.5 Z"/></g>
<g><path style="opacity:1" fill="#c8c8c8" d="M 409.5,420.5 C 409.833,420.5 410.167,420.5 410.5,420.5C 406.366,421.485 402.032,421.818 397.5,421.5C 397.5,429.833 397.5,438.167 397.5,446.5C 396.507,438.016 396.174,429.349 396.5,420.5C 400.833,420.5 405.167,420.5 409.5,420.5 Z"/></g>
<g><path style="opacity:1" fill="#c8c8c8" d="M 713.5,420.5 C 713.833,420.5 714.167,420.5 714.5,420.5C 710.366,421.485 706.032,421.818 701.5,421.5C 701.5,429.833 701.5,438.167 701.5,446.5C 700.507,438.016 700.174,429.349 700.5,420.5C 704.833,420.5 709.167,420.5 713.5,420.5 Z"/></g>
<g><path style="opacity:1" fill="#acacac" d="M 248.5,435.5 C 246.167,435.5 243.833,435.5 241.5,435.5C 241.826,443.684 241.492,451.684 240.5,459.5C 240.5,451.167 240.5,442.833 240.5,434.5C 243.385,434.194 246.052,434.527 248.5,435.5 Z"/></g>
<g><path style="opacity:1" fill="#fafafa" d="M 435.5,437.5 C 439.5,437.5 443.5,437.5 447.5,437.5C 447.595,448.929 442.428,452.595 432,448.5C 430.662,443.96 431.829,440.293 435.5,437.5 Z"/></g>
<g><path style="opacity:1" fill="#fafafa" d="M 588.5,437.5 C 592.5,437.5 596.5,437.5 600.5,437.5C 600.595,448.929 595.428,452.595 585,448.5C 583.662,443.96 584.829,440.293 588.5,437.5 Z"/></g>
<g><path style="opacity:1" fill="#adc484" d="M 672.5,486.5 C 669.647,487.953 666.647,489.119 663.5,490C 656.5,490.667 649.5,490.667 642.5,490C 647.5,489.667 652.5,489.333 657.5,489C 661.529,488.584 665.196,487.417 668.5,485.5C 674.691,483.738 680.358,480.904 685.5,477C 692.296,472.371 698.296,466.871 703.5,460.5C 707.197,459.992 710.864,459.326 714.5,458.5C 714.5,455.167 714.5,451.833 714.5,448.5C 715.117,448.611 715.617,448.944 716,449.5C 738.818,434.527 759.484,437.193 778,457.5C 783.144,464.743 785.144,472.743 784,481.5C 779.876,491.081 775.209,500.414 770,509.5C 769.186,517.46 765.519,523.793 759,528.5C 761.267,521.933 763.601,515.266 766,508.5C 769.603,488.22 762.769,472.72 745.5,462C 737.646,459.055 729.646,458.722 721.5,461C 705.14,469.513 688.807,478.013 672.5,486.5 Z"/></g>
<g><path style="opacity:1" fill="#acc483" d="M 256.5,501.5 C 260.003,496.498 263.003,491.165 265.5,485.5C 271.868,469.805 283.535,461.472 300.5,460.5C 304.5,460.5 308.5,460.5 312.5,460.5C 317.35,461.622 322.017,463.455 326.5,466C 321.856,465.709 317.189,465.709 312.5,466C 305.76,469.574 300.093,474.407 295.5,480.5C 294.662,480.842 294.328,481.508 294.5,482.5C 290.873,487.873 288.706,493.873 288,500.5C 287.205,513.805 284.872,526.805 281,539.5C 278.993,544.188 276.493,548.521 273.5,552.5C 262.952,563.177 250.285,566.677 235.5,563C 219.332,554.506 212.165,541.006 214,522.5C 212.4,509.61 206.067,499.944 195,493.5C 194.5,493.667 194,493.833 193.5,494C 196.431,510.55 195.931,527.05 192,543.5C 187.905,554.224 180.738,562.058 170.5,567C 159.664,568.83 152.164,564.663 148,554.5C 147.299,551.072 147.632,547.738 149,544.5C 156.333,533.167 163.667,521.833 171,510.5C 175.059,503.051 178.559,495.384 181.5,487.5C 178.693,476.701 171.693,471.701 160.5,472.5C 148.02,472.989 138.187,478.323 131,488.5C 127.53,493.774 124.864,499.44 123,505.5C 123.144,521.677 119.144,536.677 111,550.5C 102.271,562.076 90.7709,566.576 76.5,564C 71.6977,562.099 67.3643,559.432 63.5,556C 77.5693,564.602 90.4026,562.769 102,550.5C 108.528,537.469 110.195,523.802 107,509.5C 105.254,499.437 103.254,489.437 101,479.5C 99.2882,471.971 100.955,465.304 106,459.5C 125.013,439.65 146.179,437.15 169.5,452C 178.893,459.605 185.727,469.105 190,480.5C 199.842,477.564 207.508,480.564 213,489.5C 216.609,499.579 223.109,507.079 232.5,512C 243.335,514.568 251.335,511.068 256.5,501.5 Z"/></g>
<g><path style="opacity:1" fill="#727272" d="M 322.5,447.5 C 322.56,446.957 322.893,446.624 323.5,446.5C 324.808,450.315 324.808,453.981 323.5,457.5C 323.813,453.958 323.479,450.625 322.5,447.5 Z"/></g>
<g><path style="opacity:1" fill="#616161" d="M 336.5,447.5 C 335.521,450.625 335.187,453.958 335.5,457.5C 334.192,453.981 334.192,450.315 335.5,446.5C 336.107,446.624 336.44,446.957 336.5,447.5 Z"/></g>
<g><path style="opacity:1" fill="#afc687" d="M 254.5,489.5 C 248.53,496.282 241.863,497.115 234.5,492C 229.143,485.645 223.477,479.645 217.5,474C 212.362,472.084 207.029,471.084 201.5,471C 211.721,466.943 221.387,467.943 230.5,474C 233.916,478.087 237.916,481.42 242.5,484C 247.925,485.225 252.925,484.391 257.5,481.5C 257.833,481.833 258.167,482.167 258.5,482.5C 256.89,484.725 255.557,487.059 254.5,489.5 Z"/></g>
<g><path style="opacity:1" fill="#adc483" d="M 670.5,519.5 C 668.05,519.298 665.717,519.631 663.5,520.5C 662.167,520.5 660.833,520.5 659.5,520.5C 659.167,520.5 658.833,520.5 658.5,520.5C 655.482,520.296 652.482,519.963 649.5,519.5C 646.339,518.087 643.339,516.42 640.5,514.5C 636.473,511.14 632.806,507.473 629.5,503.5C 629.672,502.508 629.338,501.842 628.5,501.5C 628.167,500.833 627.833,500.167 627.5,499.5C 624.332,494.166 621.999,488.499 620.5,482.5C 620.5,482.167 620.5,481.833 620.5,481.5C 620.842,480.662 621.508,480.328 622.5,480.5C 623.306,484.946 625.306,488.779 628.5,492C 644.738,500.005 660.405,499.172 675.5,489.5C 684.913,484.795 694.579,480.628 704.5,477C 723.65,471.825 738.816,477.325 750,493.5C 756.575,514.198 750.408,530.031 731.5,541C 724.553,547.39 720.053,555.223 718,564.5C 717.183,567.964 717.517,571.298 719,574.5C 730.43,562.533 743.93,553.7 759.5,548C 770.558,545.273 781.225,546.273 791.5,551C 800.192,558.221 801.692,566.721 796,576.5C 792.238,580.13 787.738,582.297 782.5,583C 768.5,583.333 754.5,583.667 740.5,584C 734.141,584.84 727.808,585.84 721.5,587C 714.023,595.333 713.523,604.166 720,613.5C 729.803,625.995 742.636,630.828 758.5,628C 762.276,627.408 765.943,626.408 769.5,625C 779.916,618.958 790.916,614.292 802.5,611C 816.091,608.866 827.924,612.366 838,621.5C 843.477,628.264 845.477,635.931 844,644.5C 842.249,627.751 832.916,618.751 816,617.5C 806.951,618.941 798.784,622.441 791.5,628C 779.556,638.943 767.889,650.276 756.5,662C 732.802,669.742 714.969,662.576 703,640.5C 695.412,621.111 697.579,602.944 709.5,586C 702.502,579.45 700.669,571.617 704,562.5C 706.942,556.282 709.609,549.949 712,543.5C 713.772,526.107 705.939,517.44 688.5,517.5C 682.413,517.524 676.413,518.191 670.5,519.5 Z"/></g>
<g><path style="opacity:1" fill="#e5e5e5" d="M 622.5,480.5 C 621.508,480.328 620.842,480.662 620.5,481.5C 613.852,480.861 607.186,480.527 600.5,480.5C 582.023,478.936 563.356,478.269 544.5,478.5C 543.833,478.5 543.167,478.5 542.5,478.5C 478.33,477.264 413.997,477.264 349.5,478.5C 363.635,476.958 377.969,476.125 392.5,476C 442.167,475.333 491.833,475.333 541.5,476C 568.695,476.825 595.695,478.325 622.5,480.5 Z"/></g>
<g><path style="opacity:1" fill="#d8d8d8" d="M 542.5,478.5 C 536.833,478.5 531.167,478.5 525.5,478.5C 524.39,486.716 522.39,494.716 519.5,502.5C 522.428,503.484 525.428,503.817 528.5,503.5C 516.011,504.495 503.344,504.829 490.5,504.5C 488.223,503.916 486.223,502.749 484.5,501C 483.231,495.442 481.231,490.108 478.5,485C 475.12,484.758 471.954,485.592 469,487.5C 460.917,482.509 452.417,480.842 443.5,482.5C 442.239,486.061 441.406,489.728 441,493.5C 440.535,494.931 439.701,496.097 438.5,497C 429.956,499.242 421.289,499.909 412.5,499C 411.667,498.167 410.833,497.333 410,496.5C 409.431,492.792 408.264,489.292 406.5,486C 408.062,481.332 411.395,479.165 416.5,479.5C 402.798,478.094 389.132,478.26 375.5,480C 370.749,484.125 365.582,487.625 360,490.5C 357.616,489.281 355.283,489.281 353,490.5C 350.061,488.615 346.895,487.115 343.5,486C 340.27,481.708 335.936,479.874 330.5,480.5C 321.495,481.167 312.495,481.834 303.5,482.5C 302.833,482.833 302.167,483.167 301.5,483.5C 298.941,483.802 296.607,483.468 294.5,482.5C 294.328,481.508 294.662,480.842 295.5,480.5C 295.917,481.124 296.584,481.457 297.5,481.5C 300.645,481.181 303.478,480.181 306,478.5C 306.519,479.516 307.353,480.182 308.5,480.5C 322.116,478.974 335.782,478.308 349.5,478.5C 413.997,477.264 478.33,477.264 542.5,478.5 Z"/></g>
<g><path style="opacity:1" fill="#cccccc" d="M 490.5,504.5 C 486.833,504.5 483.167,504.5 479.5,504.5C 480.091,503.849 480.757,503.182 481.5,502.5C 480.281,495.091 476.114,492.758 469,495.5C 463.69,494.172 458.357,493.172 453,492.5C 450.58,493.488 448.247,493.155 446,491.5C 443.943,492.978 442.61,494.978 442,497.5C 440.581,498.46 439.081,499.293 437.5,500C 431.082,500.229 424.748,501.062 418.5,502.5C 412.798,502.408 408.965,499.741 407,494.5C 406.333,491.833 405.667,489.167 405,486.5C 403,485.167 401.333,483.5 400,481.5C 397.865,484.98 395.698,488.48 393.5,492C 391.127,494.451 388.461,495.451 385.5,495C 383.293,497.705 380.626,499.871 377.5,501.5C 378.602,502.176 379.602,502.842 380.5,503.5C 362.305,503.247 344.305,502.247 326.5,500.5C 329.722,500.892 332.722,500.392 335.5,499C 329.71,491.215 322.21,485.715 313,482.5C 309.943,483.451 306.777,483.784 303.5,483.5C 303.5,483.167 303.5,482.833 303.5,482.5C 312.495,481.834 321.495,481.167 330.5,480.5C 335.936,479.874 340.27,481.708 343.5,486C 346.895,487.115 350.061,488.615 353,490.5C 355.283,489.281 357.616,489.281 360,490.5C 365.582,487.625 370.749,484.125 375.5,480C 389.132,478.26 402.798,478.094 416.5,479.5C 411.395,479.165 408.062,481.332 406.5,486C 408.264,489.292 409.431,492.792 410,496.5C 410.833,497.333 411.667,498.167 412.5,499C 421.289,499.909 429.956,499.242 438.5,497C 439.701,496.097 440.535,494.931 441,493.5C 441.406,489.728 442.239,486.061 443.5,482.5C 452.417,480.842 460.917,482.509 469,487.5C 471.954,485.592 475.12,484.758 478.5,485C 481.231,490.108 483.231,495.442 484.5,501C 486.223,502.749 488.223,503.916 490.5,504.5 Z"/></g>
<g><path style="opacity:1" fill="#c6c6c6" d="M 542.5,478.5 C 543.167,478.5 543.833,478.5 544.5,478.5C 548.231,479.196 552.065,479.862 556,480.5C 556.333,480.167 556.667,479.833 557,479.5C 558.353,481.434 559.853,483.267 561.5,485C 563.65,486.868 565.817,488.035 568,488.5C 568.333,490.5 568.667,492.5 569,494.5C 570.745,496.089 571.912,498.089 572.5,500.5C 573.446,500.987 574.446,501.32 575.5,501.5C 577.626,500.214 579.959,499.381 582.5,499C 582.043,498.586 581.709,498.086 581.5,497.5C 587.083,492.806 591.416,487.639 594.5,482C 594.167,481.667 593.833,481.333 593.5,481C 595.81,480.503 598.143,480.337 600.5,480.5C 607.186,480.527 613.852,480.861 620.5,481.5C 620.5,481.833 620.5,482.167 620.5,482.5C 614.895,481.908 609.561,482.741 604.5,485C 599.793,489.522 596.126,494.689 593.5,500.5C 596.167,500.5 598.833,500.5 601.5,500.5C 577.359,502.372 553.025,503.372 528.5,503.5C 525.428,503.817 522.428,503.484 519.5,502.5C 522.39,494.716 524.39,486.716 525.5,478.5C 531.167,478.5 536.833,478.5 542.5,478.5 Z"/></g>
<g><path style="opacity:1" fill="#d2d2d2" d="M 544.5,478.5 C 563.356,478.269 582.023,478.936 600.5,480.5C 598.143,480.337 595.81,480.503 593.5,481C 593.833,481.333 594.167,481.667 594.5,482C 591.416,487.639 587.083,492.806 581.5,497.5C 581.709,498.086 582.043,498.586 582.5,499C 579.959,499.381 577.626,500.214 575.5,501.5C 574.446,501.32 573.446,500.987 572.5,500.5C 571.912,498.089 570.745,496.089 569,494.5C 568.667,492.5 568.333,490.5 568,488.5C 565.817,488.035 563.65,486.868 561.5,485C 559.853,483.267 558.353,481.434 557,479.5C 556.667,479.833 556.333,480.167 556,480.5C 552.065,479.862 548.231,479.196 544.5,478.5 Z"/></g>
<g><path style="opacity:1" fill="#c4c4c4" d="M 479.5,504.5 C 446.493,504.654 413.493,504.32 380.5,503.5C 379.602,502.842 378.602,502.176 377.5,501.5C 380.626,499.871 383.293,497.705 385.5,495C 388.461,495.451 391.127,494.451 393.5,492C 395.698,488.48 397.865,484.98 400,481.5C 401.333,483.5 403,485.167 405,486.5C 405.667,489.167 406.333,491.833 407,494.5C 408.965,499.741 412.798,502.408 418.5,502.5C 424.748,501.062 431.082,500.229 437.5,500C 439.081,499.293 440.581,498.46 442,497.5C 442.61,494.978 443.943,492.978 446,491.5C 448.247,493.155 450.58,493.488 453,492.5C 458.357,493.172 463.69,494.172 469,495.5C 476.114,492.758 480.281,495.091 481.5,502.5C 480.757,503.182 480.091,503.849 479.5,504.5 Z"/></g>
<g><path style="opacity:1" fill="#b9b9b8" d="M 326.5,500.5 C 316.158,499.943 305.825,499.276 295.5,498.5C 297.39,493.051 300.057,488.051 303.5,483.5C 306.777,483.784 309.943,483.451 313,482.5C 322.21,485.715 329.71,491.215 335.5,499C 332.722,500.392 329.722,500.892 326.5,500.5 Z"/></g>
<g><path style="opacity:1" fill="#b8b8b8" d="M 620.5,482.5 C 621.999,488.499 624.332,494.166 627.5,499.5C 618.829,499.738 610.162,500.072 601.5,500.5C 598.833,500.5 596.167,500.5 593.5,500.5C 596.126,494.689 599.793,489.522 604.5,485C 609.561,482.741 614.895,481.908 620.5,482.5 Z"/></g>
<g><path style="opacity:1" fill="#e9e9e9" d="M 484.5,478.5 C 496.838,478.333 509.171,478.5 521.5,479C 521.732,483.687 521.232,488.52 520,493.5C 519.214,496.583 517.381,498.749 514.5,500C 507.087,500.362 499.754,499.695 492.5,498C 489.943,497.315 488.109,495.815 487,493.5C 486.148,489.073 484.982,484.739 483.5,480.5C 483.863,479.817 484.196,479.15 484.5,478.5 Z"/></g>
<g><path style="opacity:1" fill="#bebfbd" d="M 622.5,480.5 C 637.938,481.229 653.272,482.896 668.5,485.5C 665.196,487.417 661.529,488.584 657.5,489C 652.5,489.333 647.5,489.667 642.5,490C 649.5,490.667 656.5,490.667 663.5,490C 666.647,489.119 669.647,487.953 672.5,486.5C 673.694,487.272 674.694,488.272 675.5,489.5C 660.405,499.172 644.738,500.005 628.5,492C 625.306,488.779 623.306,484.946 622.5,480.5 Z"/></g>
<g><path style="opacity:1" fill="#b3b4b2" d="M 265.5,485.5 C 263.003,491.165 260.003,496.498 256.5,501.5C 255,497.674 254.334,493.674 254.5,489.5C 257.996,487.778 261.663,486.445 265.5,485.5 Z"/></g>
<g><path style="opacity:1" fill="#bdbebc" d="M 294.5,482.5 C 296.607,483.468 298.941,483.802 301.5,483.5C 296.725,489.72 293.559,496.72 292,504.5C 289.78,521.808 287.78,539.141 286,556.5C 285.162,560.86 283.662,564.86 281.5,568.5C 278.801,563.101 276.134,557.768 273.5,552.5C 276.493,548.521 278.993,544.188 281,539.5C 284.872,526.805 287.205,513.805 288,500.5C 288.706,493.873 290.873,487.873 294.5,482.5 Z"/></g>
<g><path style="opacity:1" fill="#cbcbcb" d="M 295.5,501.5 C 303.721,502.649 312.054,503.649 320.5,504.5C 317.521,509.392 317.855,513.225 321.5,516C 320.426,516.739 319.759,517.739 319.5,519C 320.905,522.098 322.238,525.265 323.5,528.5C 322.478,529.354 321.645,530.354 321,531.5C 319.754,530.228 318.587,529.895 317.5,530.5C 318.518,531.852 319.851,532.852 321.5,533.5C 322.711,534.72 322.711,535.887 321.5,537C 323.577,537.192 325.577,537.692 327.5,538.5C 329.356,541.409 331.023,544.409 332.5,547.5C 335.903,548.267 338.57,549.434 340.5,551C 338.833,551.333 337.167,551.667 335.5,552C 339.276,555.449 342.776,559.283 346,563.5C 346.333,563.167 346.667,562.833 347,562.5C 347.483,563.448 347.649,564.448 347.5,565.5C 354.009,566.094 358.343,569.094 360.5,574.5C 359.975,575.192 359.308,575.692 358.5,576C 361.635,577.471 364.135,579.637 366,582.5C 366.414,582.043 366.914,581.709 367.5,581.5C 368.731,582.651 368.731,583.817 367.5,585C 369.167,585.333 370.833,585.667 372.5,586C 372.167,586.333 371.833,586.667 371.5,587C 372.984,588.574 374.651,589.907 376.5,591C 376.167,591.333 375.833,591.667 375.5,592C 378.699,592.401 381.699,593.234 384.5,594.5C 384.966,596.201 384.966,597.701 384.5,599C 388.675,600.584 392.341,602.918 395.5,606C 399.605,605.11 403.438,605.944 407,608.5C 407.414,608.043 407.914,607.709 408.5,607.5C 410.647,610.881 413.481,611.881 417,610.5C 417.354,612.807 418.354,613.141 420,611.5C 420.95,612.022 421.784,612.689 422.5,613.5C 423.967,613.277 425.467,612.944 427,612.5C 433.605,616.685 440.605,620.019 448,622.5C 448.333,621.5 448.667,620.5 449,619.5C 449.442,621.679 450.442,622.345 452,621.5C 455.808,622.868 459.475,624.534 463,626.5C 464.73,625.351 466.396,625.351 468,626.5C 469.044,625.377 469.71,624.044 470,622.5C 470.667,623.833 471.333,623.833 472,622.5C 473.204,623.471 473.704,624.471 473.5,625.5C 474.842,624.098 475.676,624.431 476,626.5C 477,623.833 478,623.833 479,626.5C 479.333,625.833 479.667,625.167 480,624.5C 483.24,626.036 486.24,625.703 489,623.5C 490.849,624.561 492.849,625.227 495,625.5C 496.911,624.593 498.744,624.593 500.5,625.5C 502.955,624.685 505.289,623.685 507.5,622.5C 510.454,622.305 513.121,622.638 515.5,623.5C 519.23,621.424 523.23,620.257 527.5,620C 527.167,619.667 526.833,619.333 526.5,619C 528.101,618.727 529.601,618.227 531,617.5C 534.212,618.269 537.712,618.435 541.5,618C 544.699,615.636 548.032,613.47 551.5,611.5C 552.086,611.709 552.586,612.043 553,612.5C 557.162,610.085 561.162,608.085 565,606.5C 566.333,606.5 567.667,606.5 569,606.5C 571.258,603.701 573.925,602.368 577,602.5C 584.091,600.066 590.091,596.066 595,590.5C 595.333,590.833 595.667,591.167 596,591.5C 602.989,586.833 609.989,582.166 617,577.5C 617.333,577.833 617.667,578.167 618,578.5C 619.41,574.767 621.577,571.6 624.5,569C 623.66,567.334 624.16,567.167 626,568.5C 626.508,566.096 627.675,565.429 629.5,566.5C 631.027,564.807 632.36,562.973 633.5,561C 632.833,560.667 632.167,560.333 631.5,560C 632.766,559.691 633.933,559.191 635,558.5C 635.756,554.797 637.256,551.463 639.5,548.5C 642.05,548.439 643.55,547.106 644,544.5C 644.353,541.461 645.52,538.795 647.5,536.5C 645.797,533.761 646.297,531.094 649,528.5C 649.556,530.595 650.056,530.762 650.5,529C 650.095,528.055 649.428,527.388 648.5,527C 651.966,524.806 652.3,522.306 649.5,519.5C 652.482,519.963 655.482,520.296 658.5,520.5C 658.256,526.081 656.422,531.414 653,536.5C 651.353,548.454 646.52,558.787 638.5,567.5C 636.772,569.226 634.772,570.559 632.5,571.5C 627.862,577.307 623.028,582.974 618,588.5C 616.836,588.835 615.503,588.835 614,588.5C 609.533,595.136 603.366,599.136 595.5,600.5C 578.989,611.813 560.989,620.147 541.5,625.5C 540.914,625.291 540.414,624.957 540,624.5C 536.048,625.988 532.048,627.321 528,628.5C 527.667,628.167 527.333,627.833 527,627.5C 522.783,629.093 518.616,630.76 514.5,632.5C 507.685,631.247 500.518,631.913 493,634.5C 482.114,633.947 471.114,633.947 460,634.5C 455.705,633.041 451.372,631.708 447,630.5C 446.275,631.059 445.442,631.392 444.5,631.5C 437.59,629.822 430.59,628.656 423.5,628C 420.792,626.931 418.125,625.764 415.5,624.5C 414.833,624.833 414.167,625.167 413.5,625.5C 410.686,623.895 407.686,622.895 404.5,622.5C 404.5,621.5 404.5,620.5 404.5,619.5C 400.504,615.627 396.004,612.961 391,611.5C 390.667,611.833 390.333,612.167 390,612.5C 387.153,610.506 383.986,609.172 380.5,608.5C 379.158,609.902 378.324,609.569 378,607.5C 377.667,607.833 377.333,608.167 377,608.5C 372.47,604.645 367.637,601.145 362.5,598C 360.323,594.687 357.323,592.353 353.5,591C 350.632,587.634 347.299,584.8 343.5,582.5C 342.416,581.335 341.583,580.002 341,578.5C 340.586,578.957 340.086,579.291 339.5,579.5C 338.833,578.167 338.167,576.833 337.5,575.5C 334.148,578.088 331.148,577.588 328.5,574C 328.833,573.667 329.167,573.333 329.5,573C 326.456,572.641 326.122,571.974 328.5,571C 327.672,570.085 326.672,569.419 325.5,569C 325.833,568.667 326.167,568.333 326.5,568C 325.234,567.691 324.067,567.191 323,566.5C 322.667,566.833 322.333,567.167 322,567.5C 321.049,563.757 319.215,560.59 316.5,558C 317.517,556.951 317.684,555.784 317,554.5C 316.667,554.833 316.333,555.167 316,555.5C 314.591,552.418 312.758,549.585 310.5,547C 310.833,546.667 311.167,546.333 311.5,546C 309.127,542.307 306.794,538.641 304.5,535C 305.5,534.667 306.5,534.333 307.5,534C 305.041,533.276 304.041,531.943 304.5,530C 303.167,529.667 301.833,529.333 300.5,529C 301.167,528.667 301.833,528.333 302.5,528C 296.102,524.207 295.102,519.207 299.5,513C 299.102,509.738 297.435,506.904 294.5,504.5C 294.263,503.209 294.596,502.209 295.5,501.5 Z"/></g>
<g><path style="opacity:1" fill="#dedede" d="M 628.5,501.5 C 629.338,501.842 629.672,502.508 629.5,503.5C 629.583,506.39 628.083,507.057 625,505.5C 622.611,505.482 620.444,506.149 618.5,507.5C 620.603,509.127 620.936,511.127 619.5,513.5C 620.649,516.436 621.149,519.436 621,522.5C 617.118,527.072 613.951,532.072 611.5,537.5C 607.734,540.706 603.401,542.873 598.5,544C 600.443,543.695 602.443,543.695 604.5,544C 603.5,544.333 602.5,544.667 601.5,545C 603.405,545.826 603.739,546.993 602.5,548.5C 597.926,550.577 594.092,553.577 591,557.5C 590.333,556.167 589.667,554.833 589,553.5C 588.29,554.973 587.124,555.64 585.5,555.5C 585.414,557.677 584.747,559.677 583.5,561.5C 586.057,566.357 584.39,569.024 578.5,569.5C 575.471,571.695 572.971,574.362 571,577.5C 570.333,574.833 569.667,574.833 569,577.5C 568,573.5 567,573.5 566,577.5C 565.504,573.295 563.837,572.629 561,575.5C 559.087,573.813 556.92,573.313 554.5,574C 555.634,575.016 555.301,575.683 553.5,576C 554.833,576.667 554.833,577.333 553.5,578C 549.281,578.173 545.281,579.173 541.5,581C 542.833,581.333 544.167,581.667 545.5,582C 543.631,584.314 541.631,584.647 539.5,583C 540.451,582.282 540.617,581.449 540,580.5C 536.408,580.926 534.908,582.926 535.5,586.5C 533.712,586.215 532.045,586.548 530.5,587.5C 530.709,588.086 531.043,588.586 531.5,589C 528.404,591.359 525.404,591.526 522.5,589.5C 521.667,590.5 520.833,591.5 520,592.5C 519.667,591.833 519.333,591.167 519,590.5C 518.3,592.032 517.134,593.032 515.5,593.5C 513.424,593.242 511.091,592.742 508.5,592C 508.833,591.667 509.167,591.333 509.5,591C 508.234,590.691 507.067,590.191 506,589.5C 504.874,590.944 503.374,591.61 501.5,591.5C 497.037,591.285 493.037,589.951 489.5,587.5C 486.922,587.615 485.422,588.949 485,591.5C 483.507,589.44 481.674,589.107 479.5,590.5C 480.82,593.057 479.987,594.724 477,595.5C 473.537,595.413 470.037,595.413 466.5,595.5C 464.677,594.509 463.177,593.176 462,591.5C 460.927,592.28 459.76,592.113 458.5,591C 457.789,589.745 456.956,588.579 456,587.5C 455.691,585.487 456.358,585.154 458,586.5C 460.668,583.833 460.168,581.333 456.5,579C 452.279,579.238 448.279,580.405 444.5,582.5C 442.803,582.101 441.137,581.601 439.5,581C 440.696,580.346 440.696,579.846 439.5,579.5C 437.983,580.911 436.649,580.744 435.5,579C 440.222,578.198 440.055,576.698 435,574.5C 433.927,575.28 432.76,575.113 431.5,574C 429.919,572.172 428.585,570.172 427.5,568C 426.167,567.667 424.833,567.333 423.5,567C 424.167,566.667 424.833,566.333 425.5,566C 424.167,565.333 424.167,564.667 425.5,564C 422.833,563.333 422.833,562.667 425.5,562C 423.355,559.782 420.688,558.449 417.5,558C 413.443,555.69 410.276,552.523 408,548.5C 407.667,548.833 407.333,549.167 407,549.5C 405.933,548.809 404.766,548.309 403.5,548C 406.102,547.065 408.102,545.398 409.5,543C 408.5,542.667 407.5,542.333 406.5,542C 408.709,540.309 410.542,540.476 412,542.5C 411.367,537.787 413.367,534.454 418,532.5C 418.862,534.087 419.529,535.754 420,537.5C 420.333,537.167 420.667,536.833 421,536.5C 421.308,537.308 421.808,537.975 422.5,538.5C 424.289,537.123 426.289,536.123 428.5,535.5C 429.517,538.028 430.684,538.028 432,535.5C 433.912,536.692 435.912,537.692 438,538.5C 443.521,537.682 449.021,536.682 454.5,535.5C 460.048,537.157 465.548,537.824 471,537.5C 473.825,535.812 476.991,534.979 480.5,535C 481.931,534.535 483.097,533.701 484,532.5C 484.388,533.428 485.055,534.095 486,534.5C 488.854,533.886 491.687,533.219 494.5,532.5C 495.716,533.002 496.883,533.335 498,533.5C 498.7,531.968 499.866,530.968 501.5,530.5C 506.339,532.168 510.172,530.835 513,526.5C 514.889,527.089 516.889,527.423 519,527.5C 520.333,526.833 521.333,525.833 522,524.5C 523.587,525.727 524.921,525.394 526,523.5C 526.333,524.167 526.667,524.833 527,525.5C 530.225,523.119 533.892,521.786 538,521.5C 540.831,522.267 543.164,521.267 545,518.5C 545.333,519.167 545.667,519.833 546,520.5C 548.659,518.94 549.826,516.607 549.5,513.5C 550.5,513.5 551.5,513.5 552.5,513.5C 552.67,514.822 552.337,515.989 551.5,517C 552,517.167 552.5,517.333 553,517.5C 561.013,515.607 568.846,513.107 576.5,510C 578.615,509.576 579.448,508.409 579,506.5C 576.386,507.454 573.553,507.454 570.5,506.5C 570.389,505.883 570.056,505.383 569.5,505C 580.833,504.667 592.167,504.333 603.5,504C 612.037,503.714 620.37,502.88 628.5,501.5 Z"/></g>
<g><path style="opacity:1" fill="#adc484" d="M 303.5,482.5 C 303.5,482.833 303.5,483.167 303.5,483.5C 300.057,488.051 297.39,493.051 295.5,498.5C 295.5,499.5 295.5,500.5 295.5,501.5C 294.596,502.209 294.263,503.209 294.5,504.5C 292.813,519.591 293.48,534.591 296.5,549.5C 299.163,559.138 299.163,568.804 296.5,578.5C 295.183,581.428 293.85,584.428 292.5,587.5C 281.391,603.545 266.057,610.045 246.5,607C 241.468,605.402 236.968,602.902 233,599.5C 227.825,591.152 223.158,582.485 219,573.5C 212.102,568.13 209.102,561.13 210,552.5C 216.61,566.112 226.777,575.945 240.5,582C 251.219,584.685 261.552,583.685 271.5,579C 275.712,576.289 279.046,572.789 281.5,568.5C 283.662,564.86 285.162,560.86 286,556.5C 287.78,539.141 289.78,521.808 292,504.5C 293.559,496.72 296.725,489.72 301.5,483.5C 302.167,483.167 302.833,482.833 303.5,482.5 Z"/></g>
<g><path style="opacity:1" fill="#c4c4c4" d="M 294.5,504.5 C 297.435,506.904 299.102,509.738 299.5,513C 295.102,519.207 296.102,524.207 302.5,528C 301.833,528.333 301.167,528.667 300.5,529C 301.833,529.333 303.167,529.667 304.5,530C 304.041,531.943 305.041,533.276 307.5,534C 306.5,534.333 305.5,534.667 304.5,535C 306.794,538.641 309.127,542.307 311.5,546C 311.167,546.333 310.833,546.667 310.5,547C 312.758,549.585 314.591,552.418 316,555.5C 316.333,555.167 316.667,554.833 317,554.5C 317.684,555.784 317.517,556.951 316.5,558C 319.215,560.59 321.049,563.757 322,567.5C 322.333,567.167 322.667,566.833 323,566.5C 324.067,567.191 325.234,567.691 326.5,568C 326.167,568.333 325.833,568.667 325.5,569C 326.672,569.419 327.672,570.085 328.5,571C 326.122,571.974 326.456,572.641 329.5,573C 329.167,573.333 328.833,573.667 328.5,574C 331.148,577.588 334.148,578.088 337.5,575.5C 338.167,576.833 338.833,578.167 339.5,579.5C 340.086,579.291 340.586,578.957 341,578.5C 341.583,580.002 342.416,581.335 343.5,582.5C 347.299,584.8 350.632,587.634 353.5,591C 357.323,592.353 360.323,594.687 362.5,598C 367.637,601.145 372.47,604.645 377,608.5C 377.333,608.167 377.667,607.833 378,607.5C 378.324,609.569 379.158,609.902 380.5,608.5C 383.986,609.172 387.153,610.506 390,612.5C 390.333,612.167 390.667,611.833 391,611.5C 396.004,612.961 400.504,615.627 404.5,619.5C 404.5,620.5 404.5,621.5 404.5,622.5C 407.686,622.895 410.686,623.895 413.5,625.5C 414.167,625.167 414.833,624.833 415.5,624.5C 418.125,625.764 420.792,626.931 423.5,628C 430.59,628.656 437.59,629.822 444.5,631.5C 445.442,631.392 446.275,631.059 447,630.5C 451.372,631.708 455.705,633.041 460,634.5C 471.114,633.947 482.114,633.947 493,634.5C 500.518,631.913 507.685,631.247 514.5,632.5C 518.616,630.76 522.783,629.093 527,627.5C 527.333,627.833 527.667,628.167 528,628.5C 532.048,627.321 536.048,625.988 540,624.5C 540.414,624.957 540.914,625.291 541.5,625.5C 560.989,620.147 578.989,611.813 595.5,600.5C 603.366,599.136 609.533,595.136 614,588.5C 615.503,588.835 616.836,588.835 618,588.5C 623.028,582.974 627.862,577.307 632.5,571.5C 634.772,570.559 636.772,569.226 638.5,567.5C 646.52,558.787 651.353,548.454 653,536.5C 656.422,531.414 658.256,526.081 658.5,520.5C 658.833,520.5 659.167,520.5 659.5,520.5C 659.834,526.988 659.001,533.322 657,539.5C 653.611,549.362 649.278,558.695 644,567.5C 639.077,573.475 634.244,579.475 629.5,585.5C 620.385,592.47 611.218,599.47 602,606.5C 598.058,607.315 594.391,609.315 591,612.5C 585.135,613.333 579.635,615.833 574.5,620C 569.278,620.287 564.944,622.287 561.5,626C 558.23,627.66 554.897,627.994 551.5,627C 547.777,629.243 543.777,630.91 539.5,632C 524.744,635.476 509.577,637.976 494,639.5C 480.806,639.045 468.472,639.045 457,639.5C 445.305,638.982 434.305,636.649 424,632.5C 423.275,633.059 422.442,633.392 421.5,633.5C 406.409,629.249 391.742,624.249 377.5,618.5C 374.903,614.731 371.569,611.898 367.5,610C 363.81,609.464 360.644,607.964 358,605.5C 356.475,605.112 354.808,605.112 353,605.5C 350.308,602.308 347.808,598.975 345.5,595.5C 338.593,593.878 333.26,590.045 329.5,584C 318.444,577.701 309.444,569.368 302.5,559C 302.694,557.097 302.694,555.263 302.5,553.5C 301.25,550.951 299.25,549.618 296.5,549.5C 293.48,534.591 292.813,519.591 294.5,504.5 Z"/></g>
<g><path style="opacity:1" fill="#d1d1d1" d="M 320.5,504.5 C 341.517,505.112 362.517,506.112 383.5,507.5C 385.51,510.15 387.843,512.65 390.5,515C 389.179,516.545 389.512,517.711 391.5,518.5C 392.386,517.675 392.719,516.675 392.5,515.5C 395.598,515.413 395.932,515.913 393.5,517C 395.891,518.309 395.891,519.309 393.5,520C 394.833,520.667 394.833,521.333 393.5,522C 395.595,522.556 395.762,523.056 394,523.5C 385.165,519.966 375.998,517.466 366.5,516C 360.775,511.969 354.775,510.469 348.5,511.5C 346.506,509.083 344.673,509.083 343,511.5C 342.667,510.833 342.333,510.167 342,509.5C 340.333,510.167 338.667,510.833 337,511.5C 336.667,510.833 336.333,510.167 336,509.5C 333.525,513.244 334.525,515.577 339,516.5C 339.49,517.793 339.657,519.127 339.5,520.5C 341.833,520.5 344.167,520.5 346.5,520.5C 346.833,528.131 348.833,534.798 352.5,540.5C 352.291,541.086 351.957,541.586 351.5,542C 353.213,543.378 354.547,545.045 355.5,547C 358.544,547.359 358.878,548.026 356.5,549C 356.833,549.333 357.167,549.667 357.5,550C 359.126,549.805 360.793,549.805 362.5,550C 359.833,550.667 359.833,551.333 362.5,552C 359.956,554.447 359.956,556.947 362.5,559.5C 361.847,562.658 362.681,562.992 365,560.5C 368.717,562.371 372.551,564.037 376.5,565.5C 378.086,567.67 379.42,570.004 380.5,572.5C 384.832,572.914 385.332,574.248 382,576.5C 381.586,576.043 381.086,575.709 380.5,575.5C 380.06,576.698 379.727,577.865 379.5,579C 381,580.5 382.5,582 384,583.5C 386.022,582.009 387.688,582.342 389,584.5C 389.684,582.641 390.684,580.974 392,579.5C 392.5,580 393,580.5 393.5,581C 392.594,582.699 392.261,584.533 392.5,586.5C 396.531,588.441 401.031,590.775 406,593.5C 406.333,593.167 406.667,592.833 407,592.5C 407.308,593.308 407.808,593.975 408.5,594.5C 409.451,593.674 410.451,593.508 411.5,594C 411.167,594.333 410.833,594.667 410.5,595C 412.171,597.156 414.171,598.99 416.5,600.5C 416.291,601.086 415.957,601.586 415.5,602C 417.901,602.795 420.068,603.962 422,605.5C 426.407,605.352 430.907,605.352 435.5,605.5C 436.881,607.937 438.714,609.27 441,609.5C 443.805,609.224 446.805,608.557 450,607.5C 450.667,608.167 451.333,608.833 452,609.5C 454.301,608.696 456.468,609.196 458.5,611C 463.267,611.345 467.934,612.179 472.5,613.5C 473.478,613.023 474.311,612.357 475,611.5C 475.333,612.167 475.667,612.833 476,613.5C 478.217,613.063 480.551,613.063 483,613.5C 483.689,612.643 484.522,611.977 485.5,611.5C 489.767,613.016 493.767,614.349 497.5,615.5C 500.094,613.76 502.594,612.093 505,610.5C 507.374,613.288 508.707,612.954 509,609.5C 509.536,611.869 510.703,613.869 512.5,615.5C 516.254,613.278 520.088,611.278 524,609.5C 527.746,608.427 531.746,608.427 536,609.5C 539.221,607.89 542.554,606.557 546,605.5C 547.548,606.684 549.048,606.517 550.5,605C 550.167,604.667 549.833,604.333 549.5,604C 550.899,603.405 552.232,603.572 553.5,604.5C 554.814,603.687 555.981,602.687 557,601.5C 558.43,601.306 559.93,601.306 561.5,601.5C 562.696,601.154 562.696,600.654 561.5,600C 562.9,598.562 564.567,597.729 566.5,597.5C 566.343,596.127 566.51,594.793 567,593.5C 568.333,596.167 569.667,596.167 571,593.5C 571.333,593.833 571.667,594.167 572,594.5C 575.579,592.466 579.412,590.799 583.5,589.5C 586.836,587.07 590.336,584.737 594,582.5C 599.717,582.78 603.051,580.114 604,574.5C 606.571,573.599 608.904,572.266 611,570.5C 614.206,566.63 616.539,562.296 618,557.5C 620.163,555.515 622.33,554.348 624.5,554C 625.536,551.226 626.369,548.393 627,545.5C 629.85,543.135 631.684,540.135 632.5,536.5C 638.261,533.401 642.261,528.734 644.5,522.5C 642.516,520.621 641.182,517.954 640.5,514.5C 643.339,516.42 646.339,518.087 649.5,519.5C 652.3,522.306 651.966,524.806 648.5,527C 649.428,527.388 650.095,528.055 650.5,529C 650.056,530.762 649.556,530.595 649,528.5C 646.297,531.094 645.797,533.761 647.5,536.5C 645.52,538.795 644.353,541.461 644,544.5C 643.55,547.106 642.05,548.439 639.5,548.5C 637.256,551.463 635.756,554.797 635,558.5C 633.933,559.191 632.766,559.691 631.5,560C 632.167,560.333 632.833,560.667 633.5,561C 632.36,562.973 631.027,564.807 629.5,566.5C 627.675,565.429 626.508,566.096 626,568.5C 624.16,567.167 623.66,567.334 624.5,569C 621.577,571.6 619.41,574.767 618,578.5C 617.667,578.167 617.333,577.833 617,577.5C 609.989,582.166 602.989,586.833 596,591.5C 595.667,591.167 595.333,590.833 595,590.5C 590.091,596.066 584.091,600.066 577,602.5C 573.925,602.368 571.258,603.701 569,606.5C 567.667,606.5 566.333,606.5 565,606.5C 561.162,608.085 557.162,610.085 553,612.5C 552.586,612.043 552.086,611.709 551.5,611.5C 548.032,613.47 544.699,615.636 541.5,618C 537.712,618.435 534.212,618.269 531,617.5C 529.601,618.227 528.101,618.727 526.5,619C 526.833,619.333 527.167,619.667 527.5,620C 523.23,620.257 519.23,621.424 515.5,623.5C 513.121,622.638 510.454,622.305 507.5,622.5C 505.289,623.685 502.955,624.685 500.5,625.5C 498.744,624.593 496.911,624.593 495,625.5C 492.849,625.227 490.849,624.561 489,623.5C 486.24,625.703 483.24,626.036 480,624.5C 479.667,625.167 479.333,625.833 479,626.5C 478,623.833 477,623.833 476,626.5C 475.676,624.431 474.842,624.098 473.5,625.5C 473.704,624.471 473.204,623.471 472,622.5C 471.333,623.833 470.667,623.833 470,622.5C 469.71,624.044 469.044,625.377 468,626.5C 466.396,625.351 464.73,625.351 463,626.5C 459.475,624.534 455.808,622.868 452,621.5C 450.442,622.345 449.442,621.679 449,619.5C 448.667,620.5 448.333,621.5 448,622.5C 440.605,620.019 433.605,616.685 427,612.5C 425.467,612.944 423.967,613.277 422.5,613.5C 421.784,612.689 420.95,612.022 420,611.5C 418.354,613.141 417.354,612.807 417,610.5C 413.481,611.881 410.647,610.881 408.5,607.5C 407.914,607.709 407.414,608.043 407,608.5C 403.438,605.944 399.605,605.11 395.5,606C 392.341,602.918 388.675,600.584 384.5,599C 384.966,597.701 384.966,596.201 384.5,594.5C 381.699,593.234 378.699,592.401 375.5,592C 375.833,591.667 376.167,591.333 376.5,591C 374.651,589.907 372.984,588.574 371.5,587C 371.833,586.667 372.167,586.333 372.5,586C 370.833,585.667 369.167,585.333 367.5,585C 368.731,583.817 368.731,582.651 367.5,581.5C 366.914,581.709 366.414,582.043 366,582.5C 364.135,579.637 361.635,577.471 358.5,576C 359.308,575.692 359.975,575.192 360.5,574.5C 358.343,569.094 354.009,566.094 347.5,565.5C 347.649,564.448 347.483,563.448 347,562.5C 346.667,562.833 346.333,563.167 346,563.5C 342.776,559.283 339.276,555.449 335.5,552C 337.167,551.667 338.833,551.333 340.5,551C 338.57,549.434 335.903,548.267 332.5,547.5C 331.023,544.409 329.356,541.409 327.5,538.5C 325.577,537.692 323.577,537.192 321.5,537C 322.711,535.887 322.711,534.72 321.5,533.5C 319.851,532.852 318.518,531.852 317.5,530.5C 318.587,529.895 319.754,530.228 321,531.5C 321.645,530.354 322.478,529.354 323.5,528.5C 322.238,525.265 320.905,522.098 319.5,519C 319.759,517.739 320.426,516.739 321.5,516C 317.855,513.225 317.521,509.392 320.5,504.5 Z"/></g>
<g><path style="opacity:1" fill="#ededed" d="M 295.5,498.5 C 305.825,499.276 316.158,499.943 326.5,500.5C 344.305,502.247 362.305,503.247 380.5,503.5C 413.493,504.32 446.493,504.654 479.5,504.5C 483.167,504.5 486.833,504.5 490.5,504.5C 503.344,504.829 516.011,504.495 528.5,503.5C 553.025,503.372 577.359,502.372 601.5,500.5C 610.162,500.072 618.829,499.738 627.5,499.5C 627.833,500.167 628.167,500.833 628.5,501.5C 620.37,502.88 612.037,503.714 603.5,504C 592.167,504.333 580.833,504.667 569.5,505C 570.056,505.383 570.389,505.883 570.5,506.5C 508.24,508.533 445.907,508.867 383.5,507.5C 362.517,506.112 341.517,505.112 320.5,504.5C 312.054,503.649 303.721,502.649 295.5,501.5C 295.5,500.5 295.5,499.5 295.5,498.5 Z"/></g>
<g><path style="opacity:1" fill="#d7d7d7" d="M 629.5,503.5 C 632.806,507.473 636.473,511.14 640.5,514.5C 641.182,517.954 642.516,520.621 644.5,522.5C 642.261,528.734 638.261,533.401 632.5,536.5C 631.684,540.135 629.85,543.135 627,545.5C 626.369,548.393 625.536,551.226 624.5,554C 622.33,554.348 620.163,555.515 618,557.5C 616.539,562.296 614.206,566.63 611,570.5C 608.904,572.266 606.571,573.599 604,574.5C 603.051,580.114 599.717,582.78 594,582.5C 590.336,584.737 586.836,587.07 583.5,589.5C 579.412,590.799 575.579,592.466 572,594.5C 571.667,594.167 571.333,593.833 571,593.5C 569.667,596.167 568.333,596.167 567,593.5C 566.51,594.793 566.343,596.127 566.5,597.5C 564.567,597.729 562.9,598.562 561.5,600C 562.696,600.654 562.696,601.154 561.5,601.5C 559.93,601.306 558.43,601.306 557,601.5C 555.981,602.687 554.814,603.687 553.5,604.5C 552.232,603.572 550.899,603.405 549.5,604C 549.833,604.333 550.167,604.667 550.5,605C 549.048,606.517 547.548,606.684 546,605.5C 542.554,606.557 539.221,607.89 536,609.5C 531.746,608.427 527.746,608.427 524,609.5C 520.088,611.278 516.254,613.278 512.5,615.5C 510.703,613.869 509.536,611.869 509,609.5C 508.707,612.954 507.374,613.288 505,610.5C 502.594,612.093 500.094,613.76 497.5,615.5C 493.767,614.349 489.767,613.016 485.5,611.5C 484.522,611.977 483.689,612.643 483,613.5C 480.551,613.063 478.217,613.063 476,613.5C 475.667,612.833 475.333,612.167 475,611.5C 474.311,612.357 473.478,613.023 472.5,613.5C 467.934,612.179 463.267,611.345 458.5,611C 456.468,609.196 454.301,608.696 452,609.5C 451.333,608.833 450.667,608.167 450,607.5C 446.805,608.557 443.805,609.224 441,609.5C 438.714,609.27 436.881,607.937 435.5,605.5C 430.907,605.352 426.407,605.352 422,605.5C 420.068,603.962 417.901,602.795 415.5,602C 415.957,601.586 416.291,601.086 416.5,600.5C 414.171,598.99 412.171,597.156 410.5,595C 410.833,594.667 411.167,594.333 411.5,594C 410.451,593.508 409.451,593.674 408.5,594.5C 407.808,593.975 407.308,593.308 407,592.5C 406.667,592.833 406.333,593.167 406,593.5C 401.031,590.775 396.531,588.441 392.5,586.5C 392.261,584.533 392.594,582.699 393.5,581C 393,580.5 392.5,580 392,579.5C 390.684,580.974 389.684,582.641 389,584.5C 387.688,582.342 386.022,582.009 384,583.5C 382.5,582 381,580.5 379.5,579C 379.727,577.865 380.06,576.698 380.5,575.5C 381.086,575.709 381.586,576.043 382,576.5C 385.332,574.248 384.832,572.914 380.5,572.5C 379.42,570.004 378.086,567.67 376.5,565.5C 372.551,564.037 368.717,562.371 365,560.5C 362.681,562.992 361.847,562.658 362.5,559.5C 359.956,556.947 359.956,554.447 362.5,552C 359.833,551.333 359.833,550.667 362.5,550C 360.793,549.805 359.126,549.805 357.5,550C 357.167,549.667 356.833,549.333 356.5,549C 358.878,548.026 358.544,547.359 355.5,547C 354.547,545.045 353.213,543.378 351.5,542C 351.957,541.586 352.291,541.086 352.5,540.5C 348.833,534.798 346.833,528.131 346.5,520.5C 344.167,520.5 341.833,520.5 339.5,520.5C 339.657,519.127 339.49,517.793 339,516.5C 334.525,515.577 333.525,513.244 336,509.5C 336.333,510.167 336.667,510.833 337,511.5C 338.667,510.833 340.333,510.167 342,509.5C 342.333,510.167 342.667,510.833 343,511.5C 344.673,509.083 346.506,509.083 348.5,511.5C 354.775,510.469 360.775,511.969 366.5,516C 375.998,517.466 385.165,519.966 394,523.5C 395.762,523.056 395.595,522.556 393.5,522C 394.833,521.333 394.833,520.667 393.5,520C 395.891,519.309 395.891,518.309 393.5,517C 395.932,515.913 395.598,515.413 392.5,515.5C 392.719,516.675 392.386,517.675 391.5,518.5C 389.512,517.711 389.179,516.545 390.5,515C 387.843,512.65 385.51,510.15 383.5,507.5C 445.907,508.867 508.24,508.533 570.5,506.5C 573.553,507.454 576.386,507.454 579,506.5C 579.448,508.409 578.615,509.576 576.5,510C 568.846,513.107 561.013,515.607 553,517.5C 552.5,517.333 552,517.167 551.5,517C 552.337,515.989 552.67,514.822 552.5,513.5C 551.5,513.5 550.5,513.5 549.5,513.5C 549.826,516.607 548.659,518.94 546,520.5C 545.667,519.833 545.333,519.167 545,518.5C 543.164,521.267 540.831,522.267 538,521.5C 533.892,521.786 530.225,523.119 527,525.5C 526.667,524.833 526.333,524.167 526,523.5C 524.921,525.394 523.587,525.727 522,524.5C 521.333,525.833 520.333,526.833 519,527.5C 516.889,527.423 514.889,527.089 513,526.5C 510.172,530.835 506.339,532.168 501.5,530.5C 499.866,530.968 498.7,531.968 498,533.5C 496.883,533.335 495.716,533.002 494.5,532.5C 491.687,533.219 488.854,533.886 486,534.5C 485.055,534.095 484.388,533.428 484,532.5C 483.097,533.701 481.931,534.535 480.5,535C 476.991,534.979 473.825,535.812 471,537.5C 465.548,537.824 460.048,537.157 454.5,535.5C 449.021,536.682 443.521,537.682 438,538.5C 435.912,537.692 433.912,536.692 432,535.5C 430.684,538.028 429.517,538.028 428.5,535.5C 426.289,536.123 424.289,537.123 422.5,538.5C 421.808,537.975 421.308,537.308 421,536.5C 420.667,536.833 420.333,537.167 420,537.5C 419.529,535.754 418.862,534.087 418,532.5C 413.367,534.454 411.367,537.787 412,542.5C 410.542,540.476 408.709,540.309 406.5,542C 407.5,542.333 408.5,542.667 409.5,543C 408.102,545.398 406.102,547.065 403.5,548C 404.766,548.309 405.933,548.809 407,549.5C 407.333,549.167 407.667,548.833 408,548.5C 410.276,552.523 413.443,555.69 417.5,558C 420.688,558.449 423.355,559.782 425.5,562C 422.833,562.667 422.833,563.333 425.5,564C 424.167,564.667 424.167,565.333 425.5,566C 424.833,566.333 424.167,566.667 423.5,567C 424.833,567.333 426.167,567.667 427.5,568C 428.585,570.172 429.919,572.172 431.5,574C 432.76,575.113 433.927,575.28 435,574.5C 440.055,576.698 440.222,578.198 435.5,579C 436.649,580.744 437.983,580.911 439.5,579.5C 440.696,579.846 440.696,580.346 439.5,581C 441.137,581.601 442.803,582.101 444.5,582.5C 448.279,580.405 452.279,579.238 456.5,579C 460.168,581.333 460.668,583.833 458,586.5C 456.358,585.154 455.691,585.487 456,587.5C 456.956,588.579 457.789,589.745 458.5,591C 459.76,592.113 460.927,592.28 462,591.5C 463.177,593.176 464.677,594.509 466.5,595.5C 470.037,595.413 473.537,595.413 477,595.5C 479.987,594.724 480.82,593.057 479.5,590.5C 481.674,589.107 483.507,589.44 485,591.5C 485.422,588.949 486.922,587.615 489.5,587.5C 493.037,589.951 497.037,591.285 501.5,591.5C 503.374,591.61 504.874,590.944 506,589.5C 507.067,590.191 508.234,590.691 509.5,591C 509.167,591.333 508.833,591.667 508.5,592C 511.091,592.742 513.424,593.242 515.5,593.5C 517.134,593.032 518.3,592.032 519,590.5C 519.333,591.167 519.667,591.833 520,592.5C 520.833,591.5 521.667,590.5 522.5,589.5C 525.404,591.526 528.404,591.359 531.5,589C 531.043,588.586 530.709,588.086 530.5,587.5C 532.045,586.548 533.712,586.215 535.5,586.5C 534.908,582.926 536.408,580.926 540,580.5C 540.617,581.449 540.451,582.282 539.5,583C 541.631,584.647 543.631,584.314 545.5,582C 544.167,581.667 542.833,581.333 541.5,581C 545.281,579.173 549.281,578.173 553.5,578C 554.833,577.333 554.833,576.667 553.5,576C 555.301,575.683 555.634,575.016 554.5,574C 556.92,573.313 559.087,573.813 561,575.5C 563.837,572.629 565.504,573.295 566,577.5C 567,573.5 568,573.5 569,577.5C 569.667,574.833 570.333,574.833 571,577.5C 572.971,574.362 575.471,571.695 578.5,569.5C 584.39,569.024 586.057,566.357 583.5,561.5C 584.747,559.677 585.414,557.677 585.5,555.5C 587.124,555.64 588.29,554.973 589,553.5C 589.667,554.833 590.333,556.167 591,557.5C 594.092,553.577 597.926,550.577 602.5,548.5C 603.739,546.993 603.405,545.826 601.5,545C 602.5,544.667 603.5,544.333 604.5,544C 602.443,543.695 600.443,543.695 598.5,544C 603.401,542.873 607.734,540.706 611.5,537.5C 613.951,532.072 617.118,527.072 621,522.5C 621.149,519.436 620.649,516.436 619.5,513.5C 620.936,511.127 620.603,509.127 618.5,507.5C 620.444,506.149 622.611,505.482 625,505.5C 628.083,507.057 629.583,506.39 629.5,503.5 Z"/></g>
<g><path style="opacity:1" fill="#fcfdfa" d="M 181.5,506.5 C 182.533,511.032 182.366,515.698 181,520.5C 178.86,532.285 173.693,542.452 165.5,551C 160.954,553.8 158.621,552.633 158.5,547.5C 158.594,545.077 159.094,542.744 160,540.5C 166.6,528.749 173.767,517.415 181.5,506.5 Z"/></g>
<g><path style="opacity:1" fill="#bcbcbc" d="M 659.5,520.5 C 660.833,520.5 662.167,520.5 663.5,520.5C 663.421,521.93 663.754,523.264 664.5,524.5C 662.334,531.828 660.168,539.161 658,546.5C 657.075,547.047 656.242,547.713 655.5,548.5C 654.098,552.539 652.598,556.539 651,560.5C 646.905,565.329 644.571,570.662 644,576.5C 639.651,582.548 635.318,588.548 631,594.5C 630.667,594.167 630.333,593.833 630,593.5C 625.782,598.385 620.948,602.552 615.5,606C 604.403,613.215 592.737,619.382 580.5,624.5C 576.942,627.983 572.608,629.817 567.5,630C 562.325,633.385 556.659,635.718 550.5,637C 533.036,640.797 515.702,643.964 498.5,646.5C 496.241,646.468 494.075,646.134 492,645.5C 463.825,648.849 435.992,646.516 408.5,638.5C 407.914,638.709 407.414,639.043 407,639.5C 393.517,634.892 380.017,630.059 366.5,625C 357.307,620.832 348.307,616.165 339.5,611C 339.833,610.667 340.167,610.333 340.5,610C 338.888,609.28 337.388,609.446 336,610.5C 331.684,606.48 326.518,602.647 320.5,599C 316.659,594.073 311.992,590.073 306.5,587C 306.833,586.667 307.167,586.333 307.5,586C 304.14,583.318 300.473,580.818 296.5,578.5C 299.163,568.804 299.163,559.138 296.5,549.5C 299.25,549.618 301.25,550.951 302.5,553.5C 302.694,555.263 302.694,557.097 302.5,559C 309.444,569.368 318.444,577.701 329.5,584C 333.26,590.045 338.593,593.878 345.5,595.5C 347.808,598.975 350.308,602.308 353,605.5C 354.808,605.112 356.475,605.112 358,605.5C 360.644,607.964 363.81,609.464 367.5,610C 371.569,611.898 374.903,614.731 377.5,618.5C 391.742,624.249 406.409,629.249 421.5,633.5C 422.442,633.392 423.275,633.059 424,632.5C 434.305,636.649 445.305,638.982 457,639.5C 468.472,639.045 480.806,639.045 494,639.5C 509.577,637.976 524.744,635.476 539.5,632C 543.777,630.91 547.777,629.243 551.5,627C 554.897,627.994 558.23,627.66 561.5,626C 564.944,622.287 569.278,620.287 574.5,620C 579.635,615.833 585.135,613.333 591,612.5C 594.391,609.315 598.058,607.315 602,606.5C 611.218,599.47 620.385,592.47 629.5,585.5C 634.244,579.475 639.077,573.475 644,567.5C 649.278,558.695 653.611,549.362 657,539.5C 659.001,533.322 659.834,526.988 659.5,520.5 Z"/></g>
<g><path style="opacity:1" fill="#aec585" d="M 670.5,528.5 C 676.39,527.176 682.39,527.343 688.5,529C 693.794,532.435 695.627,537.268 694,543.5C 692.079,549.924 690.579,556.424 689.5,563C 689.501,569.678 691.834,575.345 696.5,580C 689.725,577.55 685.225,572.717 683,565.5C 682.668,556.486 682.668,547.486 683,538.5C 680.981,532.415 676.814,529.082 670.5,528.5 Z"/></g>
<g><path style="opacity:1" fill="#b0c687" d="M 94.5,525.5 C 98.3979,533.306 96.3979,539.139 88.5,543C 81.2251,544.541 73.8918,545.208 66.5,545C 62.8901,543.056 59.5568,540.723 56.5,538C 53.9109,536.803 51.2442,535.803 48.5,535C 59.1439,532.552 69.1439,534.218 78.5,540C 83.8866,540.396 88.7199,538.896 93,535.5C 94.3158,532.312 94.8158,528.978 94.5,525.5 Z"/></g>
<g><path style="opacity:1" fill="#fcfdfb" d="M 766.5,563.5 C 773.196,562.849 779.529,564.015 785.5,567C 786.519,570.383 785.185,572.717 781.5,574C 766.262,576.401 750.929,577.068 735.5,576C 745.339,570.338 755.672,566.171 766.5,563.5 Z"/></g>
<g><path style="opacity:1" fill="#b2b2b2" d="M 670.5,519.5 C 661.811,549.213 648.145,576.213 629.5,600.5C 629.103,599.475 628.437,599.308 627.5,600C 605.697,617.509 581.364,630.509 554.5,639C 488.869,657.647 424.536,653.98 361.5,628C 354.26,623.547 346.593,619.881 338.5,617C 326.681,610 315.014,602.833 303.5,595.5C 301.3,596.325 300.966,597.658 302.5,599.5C 298.79,595.792 295.457,591.792 292.5,587.5C 293.85,584.428 295.183,581.428 296.5,578.5C 300.473,580.818 304.14,583.318 307.5,586C 307.167,586.333 306.833,586.667 306.5,587C 311.992,590.073 316.659,594.073 320.5,599C 326.518,602.647 331.684,606.48 336,610.5C 337.388,609.446 338.888,609.28 340.5,610C 340.167,610.333 339.833,610.667 339.5,611C 348.307,616.165 357.307,620.832 366.5,625C 380.017,630.059 393.517,634.892 407,639.5C 407.414,639.043 407.914,638.709 408.5,638.5C 435.992,646.516 463.825,648.849 492,645.5C 494.075,646.134 496.241,646.468 498.5,646.5C 515.702,643.964 533.036,640.797 550.5,637C 556.659,635.718 562.325,633.385 567.5,630C 572.608,629.817 576.942,627.983 580.5,624.5C 592.737,619.382 604.403,613.215 615.5,606C 620.948,602.552 625.782,598.385 630,593.5C 630.333,593.833 630.667,594.167 631,594.5C 635.318,588.548 639.651,582.548 644,576.5C 644.571,570.662 646.905,565.329 651,560.5C 652.598,556.539 654.098,552.539 655.5,548.5C 656.242,547.713 657.075,547.047 658,546.5C 660.168,539.161 662.334,531.828 664.5,524.5C 663.754,523.264 663.421,521.93 663.5,520.5C 665.717,519.631 668.05,519.298 670.5,519.5 Z"/></g>
<g><path style="opacity:1" fill="#a9a9a9" d="M 629.5,600.5 C 626.208,605.46 622.208,609.793 617.5,613.5C 611.559,615.807 606.225,619.14 601.5,623.5C 536.489,657.254 468.822,665.088 398.5,647C 367.51,638.644 338.843,625.811 312.5,608.5C 311.702,608.957 311.369,609.624 311.5,610.5C 307.372,607.71 304.372,604.043 302.5,599.5C 300.966,597.658 301.3,596.325 303.5,595.5C 315.014,602.833 326.681,610 338.5,617C 346.593,619.881 354.26,623.547 361.5,628C 424.536,653.98 488.869,657.647 554.5,639C 581.364,630.509 605.697,617.509 627.5,600C 628.437,599.308 629.103,599.475 629.5,600.5 Z"/></g>
<g><path style="opacity:1" fill="#9b9b9b" d="M 617.5,613.5 C 611.422,620.914 604.422,627.247 596.5,632.5C 595.054,631.387 593.387,631.22 591.5,632C 541.605,656.844 488.939,665.511 433.5,658C 393.814,652.885 356.981,640.051 323,619.5C 322.617,620.056 322.117,620.389 321.5,620.5C 317.833,617.5 314.5,614.167 311.5,610.5C 311.369,609.624 311.702,608.957 312.5,608.5C 338.843,625.811 367.51,638.644 398.5,647C 468.822,665.088 536.489,657.254 601.5,623.5C 606.225,619.14 611.559,615.807 617.5,613.5 Z"/></g>
<g><path style="opacity:1" fill="#8f8f8f" d="M 596.5,632.5 C 589.833,636.833 583.167,641.167 576.5,645.5C 576.44,644.957 576.107,644.624 575.5,644.5C 571.082,646.717 566.416,648.05 561.5,648.5C 493.147,671.096 425.314,668.762 358,641.5C 357.228,641.645 356.561,641.978 356,642.5C 352.781,638.653 348.948,637.32 344.5,638.5C 336.236,633.233 328.569,627.233 321.5,620.5C 322.117,620.389 322.617,620.056 323,619.5C 356.981,640.051 393.814,652.885 433.5,658C 488.939,665.511 541.605,656.844 591.5,632C 593.387,631.22 595.054,631.387 596.5,632.5 Z"/></g>
<g><path style="opacity:1" fill="#afc687" d="M 808.5,630.5 C 812.463,630.089 816.13,630.922 819.5,633C 822.667,637.5 826.5,641.333 831,644.5C 831.667,645.833 832.333,647.167 833,648.5C 833.408,655.576 833.741,662.576 834,669.5C 830.22,665.718 827.22,661.384 825,656.5C 823.581,650.725 822.081,645.059 820.5,639.5C 817.659,637.914 814.993,636.08 812.5,634C 809.328,633.575 806.328,633.909 803.5,635C 805.24,633.483 806.906,631.983 808.5,630.5 Z"/></g>
<g><path style="opacity:1" fill="#848484" d="M 344.5,638.5 C 348.948,637.32 352.781,638.653 356,642.5C 356.561,641.978 357.228,641.645 358,641.5C 425.314,668.762 493.147,671.096 561.5,648.5C 559.129,650.351 556.463,651.851 553.5,653C 505.891,670.164 457.891,672.831 409.5,661C 392.527,656.591 375.86,651.257 359.5,645C 357.934,644.235 356.601,644.402 355.5,645.5C 351.664,643.416 347.997,641.083 344.5,638.5 Z"/></g>
<g><path style="opacity:1" fill="#747474" d="M 355.5,645.5 C 356.601,644.402 357.934,644.235 359.5,645C 375.86,651.257 392.527,656.591 409.5,661C 457.891,672.831 505.891,670.164 553.5,653C 556.463,651.851 559.129,650.351 561.5,648.5C 566.416,648.05 571.082,646.717 575.5,644.5C 576.107,644.624 576.44,644.957 576.5,645.5C 574.632,646.263 572.965,647.263 571.5,648.5C 570.167,649.167 568.833,649.833 567.5,650.5C 566.167,651.167 564.833,651.833 563.5,652.5C 562.609,653.11 561.609,653.443 560.5,653.5C 553.989,654.876 547.655,656.709 541.5,659C 538.728,660.057 536.395,661.557 534.5,663.5C 517.587,667.893 500.254,670.393 482.5,671C 466.639,671.782 450.973,671.282 435.5,669.5C 436.873,669.657 438.207,669.49 439.5,669C 417.184,666.588 395.684,661.421 375,653.5C 372.241,651.807 369.408,650.307 366.5,649C 364.934,648.235 363.601,648.402 362.5,649.5C 361.5,648.833 360.5,648.167 359.5,647.5C 358.833,647.167 358.167,646.833 357.5,646.5C 356.833,646.167 356.167,645.833 355.5,645.5 Z"/></g>
<g><path style="opacity:1" fill="#dadada" d="M 359.5,647.5 C 360.5,648.167 361.5,648.833 362.5,649.5C 360.129,652.034 357.963,654.7 356,657.5C 354.682,660.406 354.348,663.406 355,666.5C 359.354,672.354 364.52,677.354 370.5,681.5C 413.032,697.491 456.199,702.158 500,695.5C 500.333,695.833 500.667,696.167 501,696.5C 516.044,693.683 531.211,690.183 546.5,686C 555.714,681.981 563.547,676.148 570,668.5C 570.958,666.801 571.458,664.967 571.5,663C 571.158,658.449 569.825,654.282 567.5,650.5C 568.833,649.833 570.167,649.167 571.5,648.5C 571.789,651.412 573.289,653.412 576,654.5C 578.286,660.617 578.452,666.617 576.5,672.5C 573.884,673.744 572.217,675.744 571.5,678.5C 569.801,678.34 568.134,678.506 566.5,679C 560.966,682.599 555.299,685.932 549.5,689C 492.94,706.664 436.273,706.998 379.5,690C 371.869,686.184 364.536,681.851 357.5,677C 349.802,670.515 348.302,663.015 353,654.5C 355.86,652.688 358.027,650.354 359.5,647.5 Z"/></g>
<g><path style="opacity:1" fill="#696969" d="M 362.5,649.5 C 363.601,648.402 364.934,648.235 366.5,649C 369.408,650.307 372.241,651.807 375,653.5C 395.684,661.421 417.184,666.588 439.5,669C 438.207,669.49 436.873,669.657 435.5,669.5C 418.413,668.874 401.746,665.874 385.5,660.5C 384.359,662.421 384.192,664.421 385,666.5C 391.478,673.486 399.312,678.153 408.5,680.5C 419.387,684.447 430.72,686.947 442.5,688C 457.833,688.667 473.167,688.667 488.5,688C 505.086,686.772 520.753,682.606 535.5,675.5C 538.778,674.191 541.778,672.358 544.5,670C 547.368,667.291 548.035,664.124 546.5,660.5C 542.622,662.009 538.622,663.009 534.5,663.5C 536.395,661.557 538.728,660.057 541.5,659C 547.655,656.709 553.989,654.876 560.5,653.5C 560.5,653.833 560.5,654.167 560.5,654.5C 557.404,655.547 554.404,656.88 551.5,658.5C 550.881,663.906 548.547,668.406 544.5,672C 537.515,676.658 530.182,680.491 522.5,683.5C 489.051,691.529 455.384,692.529 421.5,686.5C 413.628,683.934 405.628,681.434 397.5,679C 393.217,676.385 389.217,673.385 385.5,670C 384.552,669.517 383.552,669.351 382.5,669.5C 381.242,665.964 380.409,662.297 380,658.5C 376.219,656.36 372.385,654.36 368.5,652.5C 367.167,651.833 365.833,651.167 364.5,650.5C 363.833,650.167 363.167,649.833 362.5,649.5 Z"/></g>
<g><path style="opacity:1" fill="#c9c9c9" d="M 362.5,649.5 C 363.167,649.833 363.833,650.167 364.5,650.5C 355.911,658.416 355.911,666.583 364.5,675C 370.981,676.943 376.981,679.776 382.5,683.5C 393.538,686.741 404.704,689.407 416,691.5C 418.568,691.994 420.902,692.994 423,694.5C 424,693.833 425,693.167 426,692.5C 431.574,693.664 437.241,694.664 443,695.5C 454.443,695.507 465.943,695.34 477.5,695C 480.426,694.782 483.26,694.282 486,693.5C 493.062,694.161 500.062,693.494 507,691.5C 508,691.833 509,692.167 510,692.5C 518.501,690.789 527.001,688.956 535.5,687C 542.093,682.894 549.093,679.56 556.5,677C 565.806,672.045 568.973,664.545 566,654.5C 565.005,653.934 564.172,653.267 563.5,652.5C 564.833,651.833 566.167,651.167 567.5,650.5C 569.825,654.282 571.158,658.449 571.5,663C 571.458,664.967 570.958,666.801 570,668.5C 563.547,676.148 555.714,681.981 546.5,686C 531.211,690.183 516.044,693.683 501,696.5C 500.667,696.167 500.333,695.833 500,695.5C 456.199,702.158 413.032,697.491 370.5,681.5C 364.52,677.354 359.354,672.354 355,666.5C 354.348,663.406 354.682,660.406 356,657.5C 357.963,654.7 360.129,652.034 362.5,649.5 Z"/></g>
<g><path style="opacity:1" fill="#b7b7b7" d="M 364.5,650.5 C 365.833,651.167 367.167,651.833 368.5,652.5C 368.64,654.124 367.973,655.29 366.5,656C 367.299,657.749 366.632,659.082 364.5,660C 366.881,664.755 369.548,669.421 372.5,674C 387.912,681.748 404.245,685.915 421.5,686.5C 429.486,689.146 437.819,690.646 446.5,691C 466.24,692.039 485.906,691.372 505.5,689C 511.412,687.612 517.079,685.779 522.5,683.5C 535.097,682.495 546.43,678.328 556.5,671C 560.599,666.105 561.933,660.605 560.5,654.5C 560.5,654.167 560.5,653.833 560.5,653.5C 561.609,653.443 562.609,653.11 563.5,652.5C 564.172,653.267 565.005,653.934 566,654.5C 568.973,664.545 565.806,672.045 556.5,677C 549.093,679.56 542.093,682.894 535.5,687C 527.001,688.956 518.501,690.789 510,692.5C 509,692.167 508,691.833 507,691.5C 500.062,693.494 493.062,694.161 486,693.5C 483.26,694.282 480.426,694.782 477.5,695C 465.943,695.34 454.443,695.507 443,695.5C 437.241,694.664 431.574,693.664 426,692.5C 425,693.167 424,693.833 423,694.5C 420.902,692.994 418.568,691.994 416,691.5C 404.704,689.407 393.538,686.741 382.5,683.5C 376.981,679.776 370.981,676.943 364.5,675C 355.911,666.583 355.911,658.416 364.5,650.5 Z"/></g>
<g><path style="opacity:1" fill="#b3b3b3" d="M 535.5,675.5 C 520.753,682.606 505.086,686.772 488.5,688C 473.167,688.667 457.833,688.667 442.5,688C 430.72,686.947 419.387,684.447 408.5,680.5C 407.135,678.409 406.468,676.076 406.5,673.5C 408.884,673.557 411.218,673.223 413.5,672.5C 453.546,681.331 493.212,679.998 532.5,668.5C 533.5,668.833 534.5,669.167 535.5,669.5C 535.08,671.326 535.08,673.326 535.5,675.5 Z"/></g>
<g><path style="opacity:1" fill="#898989" d="M 435.5,669.5 C 450.973,671.282 466.639,671.782 482.5,671C 500.254,670.393 517.587,667.893 534.5,663.5C 538.622,663.009 542.622,662.009 546.5,660.5C 548.035,664.124 547.368,667.291 544.5,670C 541.778,672.358 538.778,674.191 535.5,675.5C 535.08,673.326 535.08,671.326 535.5,669.5C 534.5,669.167 533.5,668.833 532.5,668.5C 493.212,679.998 453.546,681.331 413.5,672.5C 411.218,673.223 408.884,673.557 406.5,673.5C 406.468,676.076 407.135,678.409 408.5,680.5C 399.312,678.153 391.478,673.486 385,666.5C 384.192,664.421 384.359,662.421 385.5,660.5C 401.746,665.874 418.413,668.874 435.5,669.5 Z"/></g>
<g><path style="opacity:1" fill="#a0a0a0" d="M 560.5,654.5 C 561.933,660.605 560.599,666.105 556.5,671C 546.43,678.328 535.097,682.495 522.5,683.5C 530.182,680.491 537.515,676.658 544.5,672C 548.547,668.406 550.881,663.906 551.5,658.5C 554.404,656.88 557.404,655.547 560.5,654.5 Z"/></g>
<g><path style="opacity:1" fill="#9d9d9d" d="M 368.5,652.5 C 372.385,654.36 376.219,656.36 380,658.5C 380.409,662.297 381.242,665.964 382.5,669.5C 383.552,669.351 384.552,669.517 385.5,670C 389.217,673.385 393.217,676.385 397.5,679C 405.628,681.434 413.628,683.934 421.5,686.5C 404.245,685.915 387.912,681.748 372.5,674C 369.548,669.421 366.881,664.755 364.5,660C 366.632,659.082 367.299,657.749 366.5,656C 367.973,655.29 368.64,654.124 368.5,652.5 Z"/></g>
<g><path style="opacity:1" fill="#f0f0f0" d="M 357.5,646.5 C 358.167,646.833 358.833,647.167 359.5,647.5C 358.027,650.354 355.86,652.688 353,654.5C 348.302,663.015 349.802,670.515 357.5,677C 364.536,681.851 371.869,686.184 379.5,690C 436.273,706.998 492.94,706.664 549.5,689C 555.299,685.932 560.966,682.599 566.5,679C 568.134,678.506 569.801,678.34 571.5,678.5C 565.216,683.896 558.05,687.896 550,690.5C 513.522,702.447 476.022,706.614 437.5,703C 417.622,701.757 398.289,698.09 379.5,692C 371.333,687.283 363,682.949 354.5,679C 349.811,674.785 346.811,669.618 345.5,663.5C 347.255,656.911 351.089,651.911 357,648.5C 357.464,647.906 357.631,647.239 357.5,646.5 Z"/></g>
<g><path style="opacity:1" fill="#9c9c9c" d="M 522.5,683.5 C 517.079,685.779 511.412,687.612 505.5,689C 485.906,691.372 466.24,692.039 446.5,691C 437.819,690.646 429.486,689.146 421.5,686.5C 455.384,692.529 489.051,691.529 522.5,683.5 Z"/></g>
</svg>
