<?xml version="1.0" encoding="UTF-8"?>
<!DOCTYPE svg PUBLIC "-//W3C//DTD SVG 1.1//EN" "http://www.w3.org/Graphics/SVG/1.1/DTD/svg11.dtd">
<svg xmlns="http://www.w3.org/2000/svg" version="1.1" width="438px" height="438px" style="shape-rendering:geometricPrecision; text-rendering:geometricPrecision; image-rendering:optimizeQuality; fill-rule:evenodd; clip-rule:evenodd" xmlns:xlink="http://www.w3.org/1999/xlink">
<g><path style="opacity:1" fill="#fefefe" d="M -0.5,-0.5 C 145.5,-0.5 291.5,-0.5 437.5,-0.5C 437.5,145.5 437.5,291.5 437.5,437.5C 291.5,437.5 145.5,437.5 -0.5,437.5C -0.5,291.5 -0.5,145.5 -0.5,-0.5 Z"/></g>
<g><path style="opacity:1" fill="#8f9b56" d="M 140.5,149.5 C 140.5,148.167 140.5,146.833 140.5,145.5C 130.833,145.5 121.167,145.5 111.5,145.5C 111.5,146.833 111.5,148.167 111.5,149.5C 113.735,149.205 115.735,149.539 117.5,150.5C 115.167,150.5 112.833,150.5 110.5,150.5C 110.5,148.5 110.5,146.5 110.5,144.5C 120.833,144.5 131.167,144.5 141.5,144.5C 141.784,146.415 141.451,148.081 140.5,149.5 Z"/></g>
<g><path style="opacity:1" fill="#6c7a1f" d="M 53.5,144.5 C 62.8393,144.334 72.1726,144.5 81.5,145C 96.5959,161.921 109.929,180.088 121.5,199.5C 121.369,200.376 121.702,201.043 122.5,201.5C 123.825,188.673 123.825,176.006 122.5,163.5C 122.823,159.774 122.489,156.107 121.5,152.5C 120.378,151.37 119.044,150.703 117.5,150.5C 115.735,149.539 113.735,149.205 111.5,149.5C 111.5,148.167 111.5,146.833 111.5,145.5C 121.167,145.5 130.833,145.5 140.5,145.5C 140.5,146.833 140.5,148.167 140.5,149.5C 138.473,149.338 136.473,149.505 134.5,150C 133.944,150.383 133.611,150.883 133.5,151.5C 132.778,151.918 132.278,152.584 132,153.5C 131.5,178.164 131.333,202.831 131.5,227.5C 126.786,227.827 122.12,227.493 117.5,226.5C 104.535,204.21 89.8685,183.21 73.5,163.5C 73.6716,162.508 73.3382,161.842 72.5,161.5C 72.44,160.957 72.1067,160.624 71.5,160.5C 70.1734,176.662 70.1734,192.662 71.5,208.5C 71.1936,211.385 71.5269,214.052 72.5,216.5C 72.393,218.903 73.393,220.736 75.5,222C 78.146,222.497 80.8127,222.664 83.5,222.5C 83.5,224.167 83.5,225.833 83.5,227.5C 73.8333,227.5 64.1667,227.5 54.5,227.5C 54.5,225.833 54.5,224.167 54.5,222.5C 56.099,222.768 57.4324,222.434 58.5,221.5C 59.4959,221.586 60.3292,221.252 61,220.5C 61.6667,218.5 62.3333,216.5 63,214.5C 63.6667,193.833 63.6667,173.167 63,152.5C 62.1841,151.177 61.0174,150.511 59.5,150.5C 57.7354,149.539 55.7354,149.205 53.5,149.5C 53.5,147.833 53.5,146.167 53.5,144.5 Z"/></g>
<g><path style="opacity:1" fill="#b5bc8e" d="M 53.5,144.5 C 53.5,146.167 53.5,147.833 53.5,149.5C 55.7354,149.205 57.7354,149.539 59.5,150.5C 57.1667,150.5 54.8333,150.5 52.5,150.5C 52.2053,148.265 52.5386,146.265 53.5,144.5 Z"/></g>
<g><path style="opacity:1" fill="#a8b179" d="M 140.5,149.5 C 138.343,150.407 136.01,151.073 133.5,151.5C 133.611,150.883 133.944,150.383 134.5,150C 136.473,149.505 138.473,149.338 140.5,149.5 Z"/></g>
<g><path style="opacity:1" fill="#adb582" d="M 357.5,152.5 C 359.265,151.539 361.265,151.205 363.5,151.5C 363.5,155.5 363.5,159.5 363.5,163.5C 362.518,160.038 362.185,156.371 362.5,152.5C 360.833,152.5 359.167,152.5 357.5,152.5 Z"/></g>
<g><path style="opacity:1" fill="#6c7b20" d="M 357.5,152.5 C 359.167,152.5 360.833,152.5 362.5,152.5C 362.185,156.371 362.518,160.038 363.5,163.5C 366.287,164.477 369.287,164.81 372.5,164.5C 372.5,165.833 372.5,167.167 372.5,168.5C 369.167,168.5 365.833,168.5 362.5,168.5C 362.172,179.346 362.506,190.013 363.5,200.5C 363.751,202.17 364.418,203.67 365.5,205C 368.23,205.728 370.897,205.562 373.5,204.5C 375.111,205.32 375.778,206.654 375.5,208.5C 372.515,209.326 369.849,210.659 367.5,212.5C 359.41,215.597 353.576,213.264 350,205.5C 349.5,193.505 349.333,181.505 349.5,169.5C 347.5,169.5 345.5,169.5 343.5,169.5C 343.34,167.801 343.506,166.134 344,164.5C 351.228,163.433 355.728,159.433 357.5,152.5 Z"/></g>
<g><path style="opacity:1" fill="#d6dac1" d="M 225.5,161.5 C 220.13,161.392 214.797,161.725 209.5,162.5C 212.356,160.994 215.523,160.328 219,160.5C 221.361,160.504 223.527,160.837 225.5,161.5 Z"/></g>
<g><path style="opacity:1" fill="#6c7b20" d="M 246.5,161.5 C 245.833,164.167 245.167,166.833 244.5,169.5C 242.304,169.565 240.304,170.232 238.5,171.5C 238.624,172.107 238.957,172.44 239.5,172.5C 242.23,183.539 238.23,191.039 227.5,195C 222.231,196.106 216.897,196.773 211.5,197C 210.02,199.235 210.353,201.068 212.5,202.5C 212.918,203.222 213.584,203.722 214.5,204C 222.892,204.361 231.225,205.194 239.5,206.5C 241.713,206.848 243.713,207.681 245.5,209C 242.248,213.425 237.915,215.258 232.5,214.5C 228.354,213.353 224.02,213.186 219.5,214C 218.584,214.278 217.918,214.778 217.5,215.5C 215.565,216.15 213.565,216.483 211.5,216.5C 202.719,214.567 198.219,209.234 198,200.5C 200.205,197.96 202.705,195.793 205.5,194C 197.807,189.27 194.974,182.437 197,173.5C 199.474,167.856 203.641,164.189 209.5,162.5C 214.797,161.725 220.13,161.392 225.5,161.5C 227.78,162.767 230.28,163.767 233,164.5C 236.876,163.264 240.71,161.93 244.5,160.5C 245.416,160.543 246.083,160.876 246.5,161.5 Z"/></g>
<g><path style="opacity:1" fill="#959f5d" d="M 151.5,163.5 C 149.485,164.924 147.152,165.59 144.5,165.5C 146.515,164.076 148.848,163.41 151.5,163.5 Z"/></g>
<g><path style="opacity:1" fill="#dcdfc9" d="M 246.5,161.5 C 247.417,163.662 247.417,165.995 246.5,168.5C 245.733,169.172 245.066,170.005 244.5,171C 242.618,171.198 240.952,171.698 239.5,172.5C 238.957,172.44 238.624,172.107 238.5,171.5C 240.304,170.232 242.304,169.565 244.5,169.5C 245.167,166.833 245.833,164.167 246.5,161.5 Z"/></g>
<g><path style="opacity:1" fill="#6c7a1f" d="M 151.5,163.5 C 153.833,163.5 156.167,163.5 158.5,163.5C 158.333,175.838 158.5,188.171 159,200.5C 161.288,205.311 164.788,206.645 169.5,204.5C 171.844,203.653 173.344,201.986 174,199.5C 174.5,189.839 174.666,180.172 174.5,170.5C 172.833,170.5 171.167,170.5 169.5,170.5C 169.5,168.833 169.5,167.167 169.5,165.5C 175.4,164.043 181.4,163.377 187.5,163.5C 187.333,177.504 187.5,191.504 188,205.5C 188.717,206.044 189.217,206.711 189.5,207.5C 190.568,208.434 191.901,208.768 193.5,208.5C 193.5,209.5 193.5,210.5 193.5,211.5C 187.208,212.053 181.208,211.386 175.5,209.5C 175.631,208.624 175.298,207.957 174.5,207.5C 168.179,212.11 161.179,213.943 153.5,213C 151.04,211.542 148.873,209.709 147,207.5C 145.728,195.57 145.062,183.57 145,171.5C 143.301,170.594 141.467,170.261 139.5,170.5C 139.5,168.833 139.5,167.167 139.5,165.5C 141.167,165.5 142.833,165.5 144.5,165.5C 147.152,165.59 149.485,164.924 151.5,163.5 Z"/></g>
<g><path style="opacity:1" fill="#e8eadc" d="M 158.5,163.5 C 159.331,174.659 159.831,185.993 160,197.5C 161.688,198.325 161.855,199.325 160.5,200.5C 162.679,203.564 165.679,204.897 169.5,204.5C 164.788,206.645 161.288,205.311 159,200.5C 158.5,188.171 158.333,175.838 158.5,163.5 Z"/></g>
<g><path style="opacity:1" fill="#6c7a1f" d="M 263.5,202.5 C 265.515,203.924 267.848,204.59 270.5,204.5C 275.748,205.978 281.081,207.145 286.5,208C 290.732,210.275 294.732,212.775 298.5,215.5C 293.695,216.487 288.695,216.821 283.5,216.5C 280.739,215.08 277.739,214.413 274.5,214.5C 268.99,213.418 263.323,213.418 257.5,214.5C 246.068,208.104 245.734,201.271 256.5,194C 253.692,192.684 251.359,190.85 249.5,188.5C 247.936,184.326 247.269,179.993 247.5,175.5C 247.392,173.486 248.058,171.82 249.5,170.5C 252.477,165.673 256.811,162.84 262.5,162C 269.766,160.851 276.766,161.684 283.5,164.5C 288.03,162.561 292.696,161.228 297.5,160.5C 297.041,163.877 296.374,167.211 295.5,170.5C 293.5,170.5 291.5,170.5 289.5,170.5C 294.071,184.461 289.071,192.961 274.5,196C 270.5,196.333 266.5,196.667 262.5,197C 259.638,199.558 259.971,201.391 263.5,202.5 Z"/></g>
<g><path style="opacity:1" fill="#f8f9f4" d="M 216.5,166.5 C 223.494,167.001 226.827,170.834 226.5,178C 226.733,181.459 225.899,184.626 224,187.5C 218.633,192.159 214.633,191.159 212,184.5C 210.226,177.523 211.726,171.523 216.5,166.5 Z"/></g>
<g><path style="opacity:1" fill="#d2d6ba" d="M 271.5,167.5 C 268.892,167.4 266.558,168.067 264.5,169.5C 266.265,166.551 268.598,165.885 271.5,167.5 Z"/></g>
<g><path style="opacity:1" fill="#f9f9f5" d="M 271.5,167.5 C 273.504,168.673 275.004,170.34 276,172.5C 276.667,176.833 276.667,181.167 276,185.5C 272.5,191.112 268.334,191.779 263.5,187.5C 261.936,183.326 261.269,178.993 261.5,174.5C 262.11,172.566 263.11,170.899 264.5,169.5C 266.558,168.067 268.892,167.4 271.5,167.5 Z"/></g>
<g><path style="opacity:1" fill="#9ca668" d="M 363.5,163.5 C 366.833,163.5 370.167,163.5 373.5,163.5C 373.5,165.5 373.5,167.5 373.5,169.5C 370.167,169.5 366.833,169.5 363.5,169.5C 363.5,179.833 363.5,190.167 363.5,200.5C 362.506,190.013 362.172,179.346 362.5,168.5C 365.833,168.5 369.167,168.5 372.5,168.5C 372.5,167.167 372.5,165.833 372.5,164.5C 369.287,164.81 366.287,164.477 363.5,163.5 Z"/></g>
<g><path style="opacity:1" fill="#f9f9f5" d="M 246.5,168.5 C 246.821,170.048 247.821,170.715 249.5,170.5C 248.058,171.82 247.392,173.486 247.5,175.5C 246.357,178.976 246.19,182.642 247,186.5C 247.708,187.381 248.542,188.047 249.5,188.5C 251.359,190.85 253.692,192.684 256.5,194C 245.734,201.271 246.068,208.104 257.5,214.5C 262.987,215.133 268.654,215.133 274.5,214.5C 277.739,214.413 280.739,215.08 283.5,216.5C 285.978,217.164 288.645,217.497 291.5,217.5C 294.59,217.478 297.257,216.812 299.5,215.5C 301.048,215.821 301.715,216.821 301.5,218.5C 325.672,218.169 349.672,218.502 373.5,219.5C 298.833,219.5 224.167,219.5 149.5,219.5C 170.354,219.163 191.02,218.163 211.5,216.5C 213.565,216.483 215.565,216.15 217.5,215.5C 222.463,214.746 227.463,214.413 232.5,214.5C 237.915,215.258 242.248,213.425 245.5,209C 243.713,207.681 241.713,206.848 239.5,206.5C 237.189,204.932 234.522,204.098 231.5,204C 225.204,202.988 218.871,202.488 212.5,202.5C 210.353,201.068 210.02,199.235 211.5,197C 216.897,196.773 222.231,196.106 227.5,195C 238.23,191.039 242.23,183.539 239.5,172.5C 240.952,171.698 242.618,171.198 244.5,171C 245.066,170.005 245.733,169.172 246.5,168.5 Z"/></g>
<g><path style="opacity:1" fill="#e9ebdd" d="M 72.5,161.5 C 73.3382,161.842 73.6716,162.508 73.5,163.5C 72.5033,180.992 72.1699,198.659 72.5,216.5C 71.5269,214.052 71.1936,211.385 71.5,208.5C 71.1704,192.658 71.5037,176.991 72.5,161.5 Z"/></g>
<g><path style="opacity:1" fill="#6e7c22" d="M 340.5,185.5 C 339.711,185.783 339.044,186.283 338.5,187C 329.173,187.5 319.839,187.666 310.5,187.5C 310.216,189.415 310.549,191.081 311.5,192.5C 313.335,205.418 320.002,208.751 331.5,202.5C 333.177,200.46 334.844,198.46 336.5,196.5C 337.833,197.167 338.833,198.167 339.5,199.5C 332.248,214.102 321.248,217.602 306.5,210C 295.473,198.557 293.64,185.723 301,171.5C 310.574,161.424 321.407,159.924 333.5,167C 339.601,171.708 341.934,177.874 340.5,185.5 Z"/></g>
<g><path style="opacity:1" fill="#f9faf6" d="M 325.5,173.5 C 325.5,176.167 325.5,178.833 325.5,181.5C 320.833,181.5 316.167,181.5 311.5,181.5C 311.375,176.82 312.709,172.654 315.5,169C 320.457,167.317 323.79,168.817 325.5,173.5 Z"/></g>
<g><path style="opacity:1" fill="#919c57" d="M 72.5,161.5 C 71.5037,176.991 71.1704,192.658 71.5,208.5C 70.1734,192.662 70.1734,176.662 71.5,160.5C 72.1067,160.624 72.44,160.957 72.5,161.5 Z"/></g>
<g><path style="opacity:1" fill="#8b964e" d="M 261.5,174.5 C 261.269,178.993 261.936,183.326 263.5,187.5C 262.034,186.653 261.2,185.32 261,183.5C 260.195,180.304 260.362,177.304 261.5,174.5 Z"/></g>
<g><path style="opacity:1" fill="#d1d5b9" d="M 325.5,173.5 C 326.477,176.287 326.81,179.287 326.5,182.5C 321.305,182.821 316.305,182.487 311.5,181.5C 316.167,181.5 320.833,181.5 325.5,181.5C 325.5,178.833 325.5,176.167 325.5,173.5 Z"/></g>
<g><path style="opacity:1" fill="#daddc5" d="M 247.5,175.5 C 247.269,179.993 247.936,184.326 249.5,188.5C 248.542,188.047 247.708,187.381 247,186.5C 246.19,182.642 246.357,178.976 247.5,175.5 Z"/></g>
<g><path style="opacity:1" fill="#dee1cc" d="M 340.5,185.5 C 340.5,186.5 340.5,187.5 340.5,188.5C 330.833,188.5 321.167,188.5 311.5,188.5C 311.5,189.833 311.5,191.167 311.5,192.5C 310.549,191.081 310.216,189.415 310.5,187.5C 319.839,187.666 329.173,187.5 338.5,187C 339.044,186.283 339.711,185.783 340.5,185.5 Z"/></g>
<g><path style="opacity:1" fill="#b5bc8e" d="M 122.5,163.5 C 123.825,176.006 123.825,188.673 122.5,201.5C 121.702,201.043 121.369,200.376 121.5,199.5C 122.495,187.678 122.828,175.678 122.5,163.5 Z"/></g>
<g><path style="opacity:1" fill="#dee1cc" d="M 212.5,202.5 C 218.871,202.488 225.204,202.988 231.5,204C 234.522,204.098 237.189,204.932 239.5,206.5C 231.225,205.194 222.892,204.361 214.5,204C 213.584,203.722 212.918,203.222 212.5,202.5 Z"/></g>
<g><path style="opacity:1" fill="#d0d4b6" d="M 263.5,202.5 C 266.152,202.41 268.485,203.076 270.5,204.5C 267.848,204.59 265.515,203.924 263.5,202.5 Z"/></g>
<g><path style="opacity:1" fill="#e3e5d3" d="M 375.5,208.5 C 375.5,209.5 375.5,210.5 375.5,211.5C 372.833,211.833 370.167,212.167 367.5,212.5C 369.849,210.659 372.515,209.326 375.5,208.5 Z"/></g>
<g><path style="opacity:1" fill="#98a262" d="M 189.5,207.5 C 191.167,207.5 192.833,207.5 194.5,207.5C 194.5,209.167 194.5,210.833 194.5,212.5C 188.167,212.5 181.833,212.5 175.5,212.5C 175.5,211.5 175.5,210.5 175.5,209.5C 181.208,211.386 187.208,212.053 193.5,211.5C 193.5,210.5 193.5,209.5 193.5,208.5C 191.901,208.768 190.568,208.434 189.5,207.5 Z"/></g>
<g><path style="opacity:1" fill="#d4d8bc" d="M 232.5,214.5 C 227.463,214.413 222.463,214.746 217.5,215.5C 217.918,214.778 218.584,214.278 219.5,214C 224.02,213.186 228.354,213.353 232.5,214.5 Z"/></g>
<g><path style="opacity:1" fill="#d0d4b7" d="M 274.5,214.5 C 268.654,215.133 262.987,215.133 257.5,214.5C 263.323,213.418 268.99,213.418 274.5,214.5 Z"/></g>
<g><path style="opacity:1" fill="#9ba567" d="M 298.5,215.5 C 298.833,215.5 299.167,215.5 299.5,215.5C 297.257,216.812 294.59,217.478 291.5,217.5C 288.645,217.497 285.978,217.164 283.5,216.5C 288.695,216.821 293.695,216.487 298.5,215.5 Z"/></g>
<g><path style="opacity:1" fill="#bec59d" d="M 149.5,219.5 C 224.167,219.5 298.833,219.5 373.5,219.5C 374.167,219.5 374.5,219.833 374.5,220.5C 298.459,220.173 222.459,220.506 146.5,221.5C 146.973,220.094 147.973,219.427 149.5,219.5 Z"/></g>
<g><path style="opacity:1" fill="#788533" d="M 374.5,220.5 C 381.261,222.437 384.261,226.937 383.5,234C 383.742,241.362 380.409,246.195 373.5,248.5C 298.833,248.5 224.167,248.5 149.5,248.5C 147.223,247.551 145.223,246.218 143.5,244.5C 145.989,244.298 148.323,244.798 150.5,246C 223.195,246.824 295.862,246.657 368.5,245.5C 368.912,243.027 367.912,241.694 365.5,241.5C 368.657,240.173 369.824,237.84 369,234.5C 366.049,232.924 362.883,232.257 359.5,232.5C 359.5,231.5 359.5,230.5 359.5,229.5C 362.518,229.704 365.518,230.037 368.5,230.5C 368.639,232.337 369.306,232.67 370.5,231.5C 372.121,228.348 373.121,225.015 373.5,221.5C 299.499,221.333 225.499,221.5 151.5,222C 147.943,223.964 144.609,225.464 141.5,226.5C 142.422,224.184 144.089,222.517 146.5,221.5C 222.459,220.506 298.459,220.173 374.5,220.5 Z"/></g>
<g><path style="opacity:1" fill="#acb380" d="M 58.5,221.5 C 57.4324,222.434 56.099,222.768 54.5,222.5C 54.5,224.167 54.5,225.833 54.5,227.5C 64.1667,227.5 73.8333,227.5 83.5,227.5C 73.6753,228.658 63.6753,228.825 53.5,228C 51.1752,222.846 52.8419,220.679 58.5,221.5 Z"/></g>
<g><path style="opacity:1" fill="#69781a" d="M 368.5,230.5 C 369.791,229.458 369.791,228.292 368.5,227C 365.304,226.195 362.304,226.362 359.5,227.5C 358.504,227.414 357.671,227.748 357,228.5C 356.181,234.832 359.014,237.165 365.5,235.5C 365.5,236.5 365.5,237.5 365.5,238.5C 362.455,238.492 359.455,238.159 356.5,237.5C 356.36,239.124 357.027,240.29 358.5,241C 360.81,241.497 363.143,241.663 365.5,241.5C 367.912,241.694 368.912,243.027 368.5,245.5C 295.862,246.657 223.195,246.824 150.5,246C 148.323,244.798 145.989,244.298 143.5,244.5C 139.05,238.88 138.384,232.88 141.5,226.5C 144.609,225.464 147.943,223.964 151.5,222C 225.499,221.5 299.499,221.333 373.5,221.5C 373.121,225.015 372.121,228.348 370.5,231.5C 369.306,232.67 368.639,232.337 368.5,230.5 Z"/></g>
<g><path style="opacity:1" fill="#98a362" d="M 323.5,227.5 C 327.97,226.514 332.637,226.181 337.5,226.5C 337.5,227.833 337.5,229.167 337.5,230.5C 335.833,230.5 334.167,230.5 332.5,230.5C 332.5,234.167 332.5,237.833 332.5,241.5C 330.901,241.768 329.568,241.434 328.5,240.5C 329.5,240.5 330.5,240.5 331.5,240.5C 331.5,236.833 331.5,233.167 331.5,229.5C 333.288,229.785 334.955,229.452 336.5,228.5C 332.217,227.508 327.884,227.174 323.5,227.5 Z"/></g>
<g><path style="opacity:1" fill="#88934a" d="M 359.5,227.5 C 362.304,226.362 365.304,226.195 368.5,227C 369.791,228.292 369.791,229.458 368.5,230.5C 368.53,229.503 368.03,228.836 367,228.5C 364.566,227.678 362.066,227.344 359.5,227.5 Z"/></g>
<g><path style="opacity:1" fill="#b8bf92" d="M 159.5,229.5 C 158.533,228.194 157.199,227.527 155.5,227.5C 154.903,232.294 155.57,236.627 157.5,240.5C 156.791,241.404 155.791,241.737 154.5,241.5C 154.5,236.5 154.5,231.5 154.5,226.5C 156.167,226.5 157.833,226.5 159.5,226.5C 159.5,227.5 159.5,228.5 159.5,229.5 Z"/></g>
<g><path style="opacity:1" fill="#acb480" d="M 165.5,234.5 C 165.369,233.624 165.702,232.957 166.5,232.5C 167.167,235.167 167.833,237.833 168.5,240.5C 169.492,236.217 169.826,231.884 169.5,227.5C 167.801,227.527 166.467,228.194 165.5,229.5C 165.5,228.5 165.5,227.5 165.5,226.5C 167.167,226.5 168.833,226.5 170.5,226.5C 170.5,231.5 170.5,236.5 170.5,241.5C 169.167,241.5 167.833,241.5 166.5,241.5C 166.802,238.941 166.468,236.607 165.5,234.5 Z"/></g>
<g><path style="opacity:1" fill="#a6af77" d="M 304.5,227.5 C 300.5,227.5 296.5,227.5 292.5,227.5C 292.5,231.833 292.5,236.167 292.5,240.5C 296.5,240.5 300.5,240.5 304.5,240.5C 300.366,241.485 296.032,241.818 291.5,241.5C 291.5,236.5 291.5,231.5 291.5,226.5C 296.032,226.182 300.366,226.515 304.5,227.5 Z"/></g>
<g><path style="opacity:1" fill="#9ea76b" d="M 304.5,229.5 C 301.203,229.89 298.203,230.89 295.5,232.5C 294.596,231.791 294.263,230.791 294.5,229.5C 297.833,229.5 301.167,229.5 304.5,229.5 Z"/></g>
<g><path style="opacity:1" fill="#e5e8d7" d="M 203.5,238.5 C 203.179,240.048 202.179,240.715 200.5,240.5C 200.5,239.5 200.5,238.5 200.5,237.5C 197.941,237.198 195.607,237.532 193.5,238.5C 192.849,239.091 192.182,239.757 191.5,240.5C 190.893,240.376 190.56,240.043 190.5,239.5C 191.898,235.705 193.564,232.039 195.5,228.5C 196.689,227.571 198.022,227.238 199.5,227.5C 200.548,231.264 201.881,234.931 203.5,238.5 Z"/></g>
<g><path style="opacity:1" fill="#eaecdf" d="M 323.5,227.5 C 327.884,227.174 332.217,227.508 336.5,228.5C 334.955,229.452 333.288,229.785 331.5,229.5C 331.5,233.167 331.5,236.833 331.5,240.5C 330.5,240.5 329.5,240.5 328.5,240.5C 328.5,236.833 328.5,233.167 328.5,229.5C 326.219,229.923 324.552,229.256 323.5,227.5 Z"/></g>
<g><path style="opacity:1" fill="#e9ebdd" d="M 159.5,229.5 C 161.5,236.167 163.5,236.167 165.5,229.5C 166.467,228.194 167.801,227.527 169.5,227.5C 169.826,231.884 169.492,236.217 168.5,240.5C 167.833,237.833 167.167,235.167 166.5,232.5C 165.702,232.957 165.369,233.624 165.5,234.5C 164.836,236.487 163.669,238.154 162,239.5C 160.478,237.259 159.145,234.926 158,232.5C 157.503,235.146 157.336,237.813 157.5,240.5C 155.57,236.627 154.903,232.294 155.5,227.5C 157.199,227.527 158.533,228.194 159.5,229.5 Z"/></g>
<g><path style="opacity:1" fill="#88934b" d="M 196.5,231.5 C 198.104,232.287 198.771,233.62 198.5,235.5C 197.5,235.5 196.5,235.5 195.5,235.5C 195.433,234.041 195.766,232.708 196.5,231.5 Z"/></g>
<g><path style="opacity:1" fill="#e9ebdd" d="M 224.5,227.5 C 228.182,227.335 231.848,227.501 235.5,228C 238.318,230.901 237.984,233.401 234.5,235.5C 235.521,236.901 236.521,238.235 237.5,239.5C 234.628,240.557 232.628,239.39 231.5,236C 230.207,235.51 228.873,235.343 227.5,235.5C 227.5,237.167 227.5,238.833 227.5,240.5C 226.5,240.5 225.5,240.5 224.5,240.5C 224.5,236.167 224.5,231.833 224.5,227.5 Z"/></g>
<g><path style="opacity:1" fill="#6a791c" d="M 234.5,230.5 C 234.5,231.167 234.5,231.833 234.5,232.5C 226.5,231.833 226.5,231.167 234.5,230.5 Z"/></g>
<g><path style="opacity:1" fill="#97a160" d="M 234.5,230.5 C 226.5,231.167 226.5,231.833 234.5,232.5C 232.393,233.468 230.059,233.802 227.5,233.5C 227.5,232.167 227.5,230.833 227.5,229.5C 230.059,229.198 232.393,229.532 234.5,230.5 Z"/></g>
<g><path style="opacity:1" fill="#eeefe5" d="M 304.5,227.5 C 304.5,228.167 304.5,228.833 304.5,229.5C 301.167,229.5 297.833,229.5 294.5,229.5C 294.263,230.791 294.596,231.791 295.5,232.5C 298.082,232.025 300.082,232.692 301.5,234.5C 299.167,234.5 296.833,234.5 294.5,234.5C 294.5,235.833 294.5,237.167 294.5,238.5C 297.833,238.5 301.167,238.5 304.5,238.5C 304.5,239.167 304.5,239.833 304.5,240.5C 300.5,240.5 296.5,240.5 292.5,240.5C 292.5,236.167 292.5,231.833 292.5,227.5C 296.5,227.5 300.5,227.5 304.5,227.5 Z"/></g>
<g><path style="opacity:1" fill="#e0e3d0" d="M 359.5,227.5 C 362.066,227.344 364.566,227.678 367,228.5C 368.03,228.836 368.53,229.503 368.5,230.5C 365.518,230.037 362.518,229.704 359.5,229.5C 359.5,230.5 359.5,231.5 359.5,232.5C 362.883,232.257 366.049,232.924 369,234.5C 369.824,237.84 368.657,240.173 365.5,241.5C 363.143,241.663 360.81,241.497 358.5,241C 357.027,240.29 356.36,239.124 356.5,237.5C 359.455,238.159 362.455,238.492 365.5,238.5C 365.5,237.5 365.5,236.5 365.5,235.5C 359.014,237.165 356.181,234.832 357,228.5C 357.671,227.748 358.504,227.414 359.5,227.5 Z"/></g>
<g><path style="opacity:1" fill="#e6e9d9" d="M 258.5,227.5 C 259.5,227.5 260.5,227.5 261.5,227.5C 261.34,229.199 261.506,230.866 262,232.5C 264.162,228.632 267.328,227.132 271.5,228C 269.208,229.29 267.208,230.957 265.5,233C 267.706,235.037 269.706,237.203 271.5,239.5C 271.083,240.124 270.416,240.457 269.5,240.5C 267.71,239.214 266.043,237.714 264.5,236C 263.552,235.517 262.552,235.351 261.5,235.5C 261.5,237.167 261.5,238.833 261.5,240.5C 260.5,240.5 259.5,240.5 258.5,240.5C 258.5,236.167 258.5,231.833 258.5,227.5 Z"/></g>
<g><path style="opacity:1" fill="#8e9953" d="M 193.5,238.5 C 195.607,237.532 197.941,237.198 200.5,237.5C 200.5,238.5 200.5,239.5 200.5,240.5C 202.179,240.715 203.179,240.048 203.5,238.5C 204.404,239.209 204.737,240.209 204.5,241.5C 202.833,241.5 201.167,241.5 199.5,241.5C 199.5,240.5 199.5,239.5 199.5,238.5C 197.5,238.5 195.5,238.5 193.5,238.5 Z"/></g>
<g><path style="opacity:1" fill="#9ca668" d="M 301.5,234.5 C 299.631,235.165 297.631,235.831 295.5,236.5C 298.642,237.167 301.642,237.834 304.5,238.5C 301.167,238.5 297.833,238.5 294.5,238.5C 294.5,237.167 294.5,235.833 294.5,234.5C 296.833,234.5 299.167,234.5 301.5,234.5 Z"/></g>
<g><path style="opacity:1" fill="#7e8b3c" d="M 224.5,227.5 C 224.5,231.833 224.5,236.167 224.5,240.5C 225.5,240.5 226.5,240.5 227.5,240.5C 227.5,238.833 227.5,237.167 227.5,235.5C 228.873,235.343 230.207,235.51 231.5,236C 232.628,239.39 234.628,240.557 237.5,239.5C 238.043,239.56 238.376,239.893 238.5,240.5C 233.437,242.1 228.437,242.433 223.5,241.5C 223.181,236.637 223.514,231.97 224.5,227.5 Z"/></g>
<g><path style="opacity:1" fill="#818d40" d="M 258.5,227.5 C 258.5,231.833 258.5,236.167 258.5,240.5C 259.5,240.5 260.5,240.5 261.5,240.5C 261.5,238.833 261.5,237.167 261.5,235.5C 262.552,235.351 263.552,235.517 264.5,236C 266.043,237.714 267.71,239.214 269.5,240.5C 270.416,240.457 271.083,240.124 271.5,239.5C 272.043,239.56 272.376,239.893 272.5,240.5C 269.702,241.689 267.036,241.356 264.5,239.5C 262.354,240.894 260.021,241.56 257.5,241.5C 257.181,236.637 257.514,231.97 258.5,227.5 Z"/></g>
<g><path style="opacity:1" fill="#aab37e" d="M 193.5,238.5 C 193.5,239.5 193.5,240.5 193.5,241.5C 192.022,241.762 190.689,241.429 189.5,240.5C 189.624,239.893 189.957,239.56 190.5,239.5C 189.957,239.56 189.624,239.893 189.5,240.5C 190.689,241.429 192.022,241.762 193.5,241.5C 193.5,240.5 193.5,239.5 193.5,238.5 Z"/></g>
<g><path style="opacity:1" fill="#fcfcfa" d="M 149.5,248.5 C 224.167,248.5 298.833,248.5 373.5,248.5C 353.337,249.332 333.004,249.832 312.5,250C 314.646,250.479 315.646,251.812 315.5,254C 315.316,255.376 314.649,256.209 313.5,256.5C 313.5,255.167 313.5,253.833 313.5,252.5C 309.167,252.5 304.833,252.5 300.5,252.5C 299.032,271.636 288.699,282.303 269.5,284.5C 256.062,283.578 246.562,276.911 241,264.5C 239.53,260.622 238.697,256.622 238.5,252.5C 234.366,251.515 230.032,251.182 225.5,251.5C 225.263,252.791 225.596,253.791 226.5,254.5C 226.5,255.833 226.5,257.167 226.5,258.5C 226.736,261.914 227.402,265.247 228.5,268.5C 229.183,268.863 229.85,269.196 230.5,269.5C 233.135,273.143 235.801,276.81 238.5,280.5C 237.9,281.9 236.9,282.9 235.5,283.5C 212.421,286.408 199.421,276.074 196.5,252.5C 192.366,251.515 188.032,251.182 183.5,251.5C 186.641,250.679 189.975,250.179 193.5,250C 178.808,250.083 164.141,249.583 149.5,248.5 Z"/></g>
<g><path style="opacity:1" fill="#bbc299" d="M 183.5,251.5 C 188.032,251.182 192.366,251.515 196.5,252.5C 192.5,252.5 188.5,252.5 184.5,252.5C 184.5,253.5 184.5,254.5 184.5,255.5C 183.566,254.432 183.232,253.099 183.5,251.5 Z"/></g>
<g><path style="opacity:1" fill="#bbc199" d="M 238.5,252.5 C 234.029,251.911 230.029,252.577 226.5,254.5C 225.596,253.791 225.263,252.791 225.5,251.5C 230.032,251.182 234.366,251.515 238.5,252.5 Z"/></g>
<g><path style="opacity:1" fill="#e0e3cf" d="M 226.5,258.5 C 227.974,262.026 229.307,265.693 230.5,269.5C 229.85,269.196 229.183,268.863 228.5,268.5C 227.402,265.247 226.736,261.914 226.5,258.5 Z"/></g>
<g><path style="opacity:1" fill="#6b7a1f" d="M 238.5,252.5 C 238.697,256.622 239.53,260.622 241,264.5C 246.562,276.911 256.062,283.578 269.5,284.5C 288.699,282.303 299.032,271.636 300.5,252.5C 304.833,252.5 309.167,252.5 313.5,252.5C 313.5,253.833 313.5,255.167 313.5,256.5C 309.412,274.252 298.746,285.918 281.5,291.5C 275.87,292.292 270.203,292.625 264.5,292.5C 258.522,291.84 252.855,290.174 247.5,287.5C 244.72,284.936 241.72,282.603 238.5,280.5C 235.801,276.81 233.135,273.143 230.5,269.5C 229.307,265.693 227.974,262.026 226.5,258.5C 226.5,257.167 226.5,255.833 226.5,254.5C 230.029,252.577 234.029,251.911 238.5,252.5 Z"/></g>
<g><path style="opacity:1" fill="#6e7c23" d="M 196.5,252.5 C 199.421,276.074 212.421,286.408 235.5,283.5C 238.223,284.352 240.89,285.519 243.5,287C 244.684,288.145 244.684,289.312 243.5,290.5C 242.833,290.5 242.167,290.5 241.5,290.5C 235.319,292.252 228.986,292.919 222.5,292.5C 201.284,288.951 188.618,276.618 184.5,255.5C 184.5,254.5 184.5,253.5 184.5,252.5C 188.5,252.5 192.5,252.5 196.5,252.5 Z"/></g>
<g><path style="opacity:1" fill="#e8eadb" d="M 238.5,280.5 C 241.72,282.603 244.72,284.936 247.5,287.5C 246.764,289.229 245.43,290.229 243.5,290.5C 244.684,289.312 244.684,288.145 243.5,287C 240.89,285.519 238.223,284.352 235.5,283.5C 236.9,282.9 237.9,281.9 238.5,280.5 Z"/></g>
<g><path style="opacity:1" fill="#e3e6d4" d="M 241.5,290.5 C 240.653,291.966 239.32,292.8 237.5,293C 232.316,293.816 227.316,293.65 222.5,292.5C 228.986,292.919 235.319,292.252 241.5,290.5 Z"/></g>
<g><path style="opacity:1" fill="#e2e5d2" d="M 281.5,291.5 C 281.082,292.222 280.416,292.722 279.5,293C 274.316,293.816 269.316,293.65 264.5,292.5C 270.203,292.625 275.87,292.292 281.5,291.5 Z"/></g>
</svg>
