<?xml version="1.0" encoding="UTF-8"?>
<!DOCTYPE svg PUBLIC "-//W3C//DTD SVG 1.1//EN" "http://www.w3.org/Graphics/SVG/1.1/DTD/svg11.dtd">
<svg xmlns="http://www.w3.org/2000/svg" version="1.1" width="438px" height="438px" style="shape-rendering:geometricPrecision; text-rendering:geometricPrecision; image-rendering:optimizeQuality; fill-rule:evenodd; clip-rule:evenodd" xmlns:xlink="http://www.w3.org/1999/xlink">
<g><path style="opacity:1" fill="#fefefe" d="M -0.5,-0.5 C 145.5,-0.5 291.5,-0.5 437.5,-0.5C 437.5,145.5 437.5,291.5 437.5,437.5C 291.5,437.5 145.5,437.5 -0.5,437.5C -0.5,291.5 -0.5,145.5 -0.5,-0.5 Z"/></g>
<g><path style="opacity:1" fill="#1b1b1b" d="M 367.5,213.5 C 367.672,214.492 367.338,215.158 366.5,215.5C 360.416,213.244 356.583,208.911 355,202.5C 351.115,190.126 354.949,181.293 366.5,176C 371.823,175.501 377.156,175.334 382.5,175.5C 383.771,186.9 381.437,188.067 375.5,179C 372.15,178.07 369.317,178.903 367,181.5C 364.897,192.223 365.064,202.89 367.5,213.5 Z"/></g>
<g><path style="opacity:1" fill="#1d1d1d" d="M 39.5,177.5 C 44.5,177.5 49.5,177.5 54.5,177.5C 54.8174,180.572 54.4841,183.572 53.5,186.5C 51.7122,184.209 49.7122,182.043 47.5,180C 43.5245,178.621 40.6912,179.787 39,183.5C 38.3333,191.833 38.3333,200.167 39,208.5C 39.2842,215.452 42.7842,217.952 49.5,216C 53.6761,212.316 54.6761,207.816 52.5,202.5C 58.5666,204.064 60.0666,207.73 57,213.5C 41.6731,222.343 32.0064,218.009 28,200.5C 25.5367,189.514 29.37,181.847 39.5,177.5 Z"/></g>
<g><path style="opacity:1" fill="#191919" d="M 235.5,215.5 C 234.508,215.672 233.842,215.338 233.5,214.5C 235.708,213.106 237.208,211.106 238,208.5C 238.667,201.5 238.667,194.5 238,187.5C 237.275,185.051 236.275,182.717 235,180.5C 232.582,178.32 229.916,177.987 227,179.5C 226.174,191.341 226.341,203.007 227.5,214.5C 228.833,215.167 230.167,215.833 231.5,216.5C 225.87,217.521 220.204,217.687 214.5,217C 213.944,216.617 213.611,216.117 213.5,215.5C 215.113,215.056 216.28,214.056 217,212.5C 217.713,201.478 217.547,190.478 216.5,179.5C 214.654,179.778 213.32,179.111 212.5,177.5C 219.476,176.336 226.476,176.169 233.5,177C 241.667,178.5 246.5,183.333 248,191.5C 249.625,199.613 247.792,206.78 242.5,213C 240.257,214.136 237.924,214.97 235.5,215.5 Z"/></g>
<g><path style="opacity:1" fill="#eaeaea" d="M 233.5,214.5 C 231.5,214.5 229.5,214.5 227.5,214.5C 226.341,203.007 226.174,191.341 227,179.5C 229.916,177.987 232.582,178.32 235,180.5C 236.275,182.717 237.275,185.051 238,187.5C 238.667,194.5 238.667,201.5 238,208.5C 237.208,211.106 235.708,213.106 233.5,214.5 Z"/></g>
<g><path style="opacity:1" fill="#8e8e8e" d="M 300.5,184.5 C 304.019,183.192 307.685,183.192 311.5,184.5C 311.376,185.107 311.043,185.44 310.5,185.5C 307.375,184.521 304.042,184.187 300.5,184.5 Z"/></g>
<g><path style="opacity:1" fill="#1d1d1d" d="M 135.5,184.5 C 138.247,184.187 140.914,184.52 143.5,185.5C 142.52,186.981 141.353,188.315 140,189.5C 139.501,195.491 139.334,201.491 139.5,207.5C 138.448,207.649 137.448,207.483 136.5,207C 132.288,202.293 128.288,197.46 124.5,192.5C 124.44,191.957 124.107,191.624 123.5,191.5C 122.203,193.973 122.203,196.307 123.5,198.5C 123.519,201.856 124.853,204.523 127.5,206.5C 123.833,207.833 120.167,207.833 116.5,206.5C 119.94,203.718 121.273,200.051 120.5,195.5C 120.333,193.167 120.167,190.833 120,188.5C 118.513,187.845 117.347,186.845 116.5,185.5C 120.795,184.339 125.129,184.172 129.5,185C 131.667,187.833 133.833,190.667 136,193.5C 136.986,190.258 136.152,187.592 133.5,185.5C 133.957,184.702 134.624,184.369 135.5,184.5 Z"/></g>
<g><path style="opacity:1" fill="#1e1e1e" d="M 194.5,184.5 C 199.014,185.507 201.514,188.174 202,192.5C 195.972,197.595 196.472,202.262 203.5,206.5C 200.216,207.657 196.882,207.824 193.5,207C 191.959,204.084 190.293,201.251 188.5,198.5C 187.675,197.614 186.675,197.281 185.5,197.5C 185.279,200.279 185.612,202.946 186.5,205.5C 182.5,206.833 178.5,206.833 174.5,205.5C 176.104,204.713 176.771,203.38 176.5,201.5C 177.447,198.342 177.447,195.009 176.5,191.5C 176.385,188.983 175.385,186.983 173.5,185.5C 180.468,184.503 187.468,184.17 194.5,184.5 Z"/></g>
<g><path style="opacity:1" fill="#212121" d="M 252.5,183.5 C 259.175,183.334 265.842,183.5 272.5,184C 282.194,187.015 282.861,191.181 274.5,196.5C 276.129,200.622 278.795,203.788 282.5,206C 279.028,207.58 275.362,207.913 271.5,207C 269.774,203.033 267.44,199.533 264.5,196.5C 264.167,197.667 263.833,198.833 263.5,200C 263.685,202.402 264.185,204.569 265,206.5C 261.591,207.622 258.091,207.789 254.5,207C 254.043,206.586 253.709,206.086 253.5,205.5C 254.738,202.531 255.405,199.364 255.5,196C 255.333,193.167 255.167,190.333 255,187.5C 253.519,186.529 252.685,185.196 252.5,183.5 Z"/></g>
<g><path style="opacity:1" fill="#1c1c1c" d="M 300.5,184.5 C 304.042,184.187 307.375,184.521 310.5,185.5C 309.206,186.29 308.039,187.29 307,188.5C 310.766,202.722 305.599,208.555 291.5,206C 290.333,204.833 289.167,203.667 288,202.5C 287.667,197.5 287.333,192.5 287,187.5C 286.167,186.667 285.333,185.833 284.5,185C 288.833,184.333 293.167,184.333 297.5,185C 297,185.5 296.5,186 296,186.5C 295.333,191.833 295.333,197.167 296,202.5C 297.793,204.806 299.96,205.139 302.5,203.5C 304.301,196.765 303.634,190.432 300.5,184.5 Z"/></g>
<g><path style="opacity:1" fill="#1e1e1e" d="M 335.5,191.5 C 332.768,189.965 330.102,188.131 327.5,186C 325.112,185.135 323.612,185.968 323,188.5C 322.333,193.5 322.333,198.5 323,203.5C 327.739,206.837 330.239,205.504 330.5,199.5C 330.743,197.078 329.743,195.412 327.5,194.5C 330.768,193.513 334.102,193.18 337.5,193.5C 338.978,193.238 340.311,193.571 341.5,194.5C 340.675,195.386 339.675,195.719 338.5,195.5C 339.703,201.468 337.369,205.301 331.5,207C 318.839,209.327 312.672,204.161 313,191.5C 318.208,183.886 325.374,181.386 334.5,184C 335.435,186.381 335.768,188.881 335.5,191.5 Z"/></g>
<g><path style="opacity:1" fill="#1d1d1d" d="M 67.5,184.5 C 73.5826,184.124 78.7493,186.124 83,190.5C 85.7138,203.788 80.2138,209.288 66.5,207C 60.333,203.155 58.1663,197.655 60,190.5C 62.4784,188.361 64.9784,186.361 67.5,184.5 Z"/></g>
<g><path style="opacity:1" fill="#d7d7d7" d="M 194.5,184.5 C 187.468,184.17 180.468,184.503 173.5,185.5C 175.385,186.983 176.385,188.983 176.5,191.5C 177.447,195.009 177.447,198.342 176.5,201.5C 176.243,197.108 175.576,192.775 174.5,188.5C 173.252,187.96 172.085,187.293 171,186.5C 170.802,188.382 170.302,190.048 169.5,191.5C 169.5,189.167 169.5,186.833 169.5,184.5C 162.159,184.334 154.826,184.5 147.5,185C 146.434,186.159 146.767,186.992 148.5,187.5C 149.833,193.167 149.833,198.833 148.5,204.5C 148.666,200.154 148.499,195.821 148,191.5C 146.174,187.963 143.84,187.629 141,190.5C 140.827,196.348 140.327,202.015 139.5,207.5C 139.334,201.491 139.501,195.491 140,189.5C 141.353,188.315 142.52,186.981 143.5,185.5C 140.914,184.52 138.247,184.187 135.5,184.5C 139.699,183.986 143.866,182.986 148,181.5C 150.247,182.98 152.747,183.647 155.5,183.5C 162.198,183.623 168.531,183.29 174.5,182.5C 181.297,183.132 187.963,183.799 194.5,184.5 Z"/></g>
<g><path style="opacity:1" fill="#ededed" d="M 263.5,185.5 C 271.159,184.01 273.492,186.843 270.5,194C 268.19,194.497 265.857,194.663 263.5,194.5C 263.5,191.5 263.5,188.5 263.5,185.5 Z"/></g>
<g><path style="opacity:1" fill="#f0f0f0" d="M 69.5,186.5 C 73.1924,186.695 75.0258,188.695 75,192.5C 75.6667,195.833 75.6667,199.167 75,202.5C 73.7758,205.473 71.7758,206.14 69,204.5C 68.2124,198.418 68.379,192.418 69.5,186.5 Z"/></g>
<g><path style="opacity:1" fill="#494949" d="M 169.5,191.5 C 168.5,192.833 167.5,192.833 166.5,191.5C 168.308,190.082 168.975,188.082 168.5,185.5C 161.416,184.874 154.75,185.541 148.5,187.5C 146.767,186.992 146.434,186.159 147.5,185C 154.826,184.5 162.159,184.334 169.5,184.5C 169.5,186.833 169.5,189.167 169.5,191.5 Z"/></g>
<g><path style="opacity:1" fill="#dfdfdf" d="M 184.5,186.5 C 187.187,186.336 189.854,186.503 192.5,187C 194.822,193.68 192.488,196.347 185.5,195C 184.556,192.281 184.223,189.448 184.5,186.5 Z"/></g>
<g><path style="opacity:1" fill="#1d1d1d" d="M 412.5,191.5 C 413.115,195.991 412.115,199.991 409.5,203.5C 399.934,209.017 392.434,207.017 387,197.5C 386.947,188.981 391.28,184.315 400,183.5C 405.579,184.035 409.745,186.702 412.5,191.5 Z"/></g>
<g><path style="opacity:1" fill="#f1f1f1" d="M 398.5,185.5 C 400.911,185.137 402.411,186.137 403,188.5C 403.667,193.167 403.667,197.833 403,202.5C 401.33,204.698 399.33,205.032 397,203.5C 396.333,198.167 396.333,192.833 397,187.5C 397.717,186.956 398.217,186.289 398.5,185.5 Z"/></g>
<g><path style="opacity:1" fill="#1a1a1a" d="M 166.5,191.5 C 164.704,190.207 163.037,188.707 161.5,187C 160.207,186.51 158.873,186.343 157.5,186.5C 157.192,188.924 157.526,191.257 158.5,193.5C 159.736,192.754 161.07,192.421 162.5,192.5C 162.5,194.5 162.5,196.5 162.5,198.5C 160.833,198.5 159.167,198.5 157.5,198.5C 157.5,200.5 157.5,202.5 157.5,204.5C 159.527,204.662 161.527,204.495 163.5,204C 168.32,196.2 170.32,197.033 169.5,206.5C 161.981,206.825 154.648,206.492 147.5,205.5C 148.167,205.5 148.5,205.167 148.5,204.5C 149.833,198.833 149.833,193.167 148.5,187.5C 154.75,185.541 161.416,184.874 168.5,185.5C 168.975,188.082 168.308,190.082 166.5,191.5 Z"/></g>
<g><path style="opacity:1" fill="#202020" d="M 102.5,203.5 C 101.933,200.697 100.6,198.364 98.5,196.5C 97.1126,200.386 97.4459,204.053 99.5,207.5C 95.4454,207.824 91.4454,207.491 87.5,206.5C 87.8076,205.692 88.3076,205.025 89,204.5C 89.6667,198.833 89.6667,193.167 89,187.5C 88.0754,186.953 87.2421,186.287 86.5,185.5C 92.4724,184.336 98.4724,184.17 104.5,185C 113.43,186.835 114.763,191.002 108.5,197.5C 109.727,200.731 111.394,203.731 113.5,206.5C 110.554,207.655 107.554,207.821 104.5,207C 103.695,205.887 103.028,204.721 102.5,203.5 Z"/></g>
<g><path style="opacity:1" fill="#ececec" d="M 97.5,186.5 C 103.905,185.406 106.238,188.073 104.5,194.5C 102.167,194.5 99.8333,194.5 97.5,194.5C 97.5,191.833 97.5,189.167 97.5,186.5 Z"/></g>
<g><path style="opacity:1" fill="#6a6a6a" d="M 124.5,192.5 C 123.539,194.265 123.205,196.265 123.5,198.5C 122.203,196.307 122.203,193.973 123.5,191.5C 124.107,191.624 124.44,191.957 124.5,192.5 Z"/></g>
<g><path style="opacity:1" fill="#e6e6e6" d="M 335.5,191.5 C 336.167,192.167 336.833,192.833 337.5,193.5C 334.102,193.18 330.768,193.513 327.5,194.5C 329.743,195.412 330.743,197.078 330.5,199.5C 330.239,205.504 327.739,206.837 323,203.5C 322.333,198.5 322.333,193.5 323,188.5C 323.612,185.968 325.112,185.135 327.5,186C 330.102,188.131 332.768,189.965 335.5,191.5 Z"/></g>
<g><path style="opacity:1" fill="#c8c8c8" d="M 102.5,203.5 C 101.425,202.438 100.425,202.438 99.5,203.5C 100.705,204.995 100.705,206.328 99.5,207.5C 97.4459,204.053 97.1126,200.386 98.5,196.5C 100.6,198.364 101.933,200.697 102.5,203.5 Z"/></g>
<g><path style="opacity:1" fill="#d3d3d3" d="M 412.5,191.5 C 413.166,194.028 413.832,196.694 414.5,199.5C 415.249,197.988 416.416,196.988 418,196.5C 418.96,197.814 420.46,199.148 422.5,200.5C 417.91,198.257 415.576,199.59 415.5,204.5C 414.71,203.391 414.21,202.058 414,200.5C 412.871,202.141 411.371,203.141 409.5,203.5C 412.115,199.991 413.115,195.991 412.5,191.5 Z"/></g>
<g><path style="opacity:1" fill="#1d1d1d" d="M 422.5,200.5 C 422.431,206.27 420.097,207.603 415.5,204.5C 415.576,199.59 417.91,198.257 422.5,200.5 Z"/></g>
<g><path style="opacity:1" fill="#4a4a4a" d="M 147.5,205.5 C 154.648,206.492 161.981,206.825 169.5,206.5C 161.99,207.82 154.323,207.82 146.5,206.5C 146.624,205.893 146.957,205.56 147.5,205.5 Z"/></g>
<g><path style="opacity:1" fill="#4f4f4f" d="M 174.5,205.5 C 178.5,206.833 182.5,206.833 186.5,205.5C 187.043,205.56 187.376,205.893 187.5,206.5C 182.833,207.833 178.167,207.833 173.5,206.5C 173.624,205.893 173.957,205.56 174.5,205.5 Z"/></g>
<g><path style="opacity:1" fill="#1d1d1d" d="M 376.5,216.5 C 373.813,216.664 371.146,216.497 368.5,216C 370.708,215.809 372.708,215.309 374.5,214.5C 376.582,214.376 378.082,213.376 379,211.5C 379.499,207.848 379.665,204.182 379.5,200.5C 384.776,201.293 386.609,204.293 385,209.5C 383.215,213.119 380.382,215.452 376.5,216.5 Z"/></g>
<g><path style="opacity:1" fill="#515151" d="M 227.5,214.5 C 229.5,214.5 231.5,214.5 233.5,214.5C 233.842,215.338 234.508,215.672 235.5,215.5C 235.5,216.167 235.167,216.5 234.5,216.5C 233.5,216.5 232.5,216.5 231.5,216.5C 230.167,215.833 228.833,215.167 227.5,214.5 Z"/></g>
<g><path style="opacity:1" fill="#696969" d="M 367.5,213.5 C 369.717,214.369 372.05,214.702 374.5,214.5C 372.708,215.309 370.708,215.809 368.5,216C 371.146,216.497 373.813,216.664 376.5,216.5C 373.696,217.638 370.696,217.805 367.5,217C 366.944,216.617 366.611,216.117 366.5,215.5C 367.338,215.158 367.672,214.492 367.5,213.5 Z"/></g>
<g><path style="opacity:1" fill="#e2e2e2" d="M 213.5,215.5 C 213.611,216.117 213.944,216.617 214.5,217C 220.204,217.687 225.87,217.521 231.5,216.5C 232.5,216.5 233.5,216.5 234.5,216.5C 241.946,218.153 249.612,219.153 257.5,219.5C 242.5,219.5 227.5,219.5 212.5,219.5C 212.232,217.901 212.566,216.568 213.5,215.5 Z"/></g>
<g><path style="opacity:1" fill="#303030" d="M 361.5,221.5 C 356.5,222.167 351.5,222.833 346.5,223.5C 347.058,224.79 348.058,225.623 349.5,226C 353.152,226.499 356.818,226.665 360.5,226.5C 360.5,227.833 360.5,229.167 360.5,230.5C 359.5,230.5 358.5,230.5 357.5,230.5C 357.167,230.5 356.833,230.5 356.5,230.5C 357.091,229.849 357.757,229.182 358.5,228.5C 358,228.167 357.5,227.833 357,227.5C 355.989,228.056 355.156,228.722 354.5,229.5C 346.409,225.792 338.076,222.625 329.5,220C 327.527,219.505 325.527,219.338 323.5,219.5C 323.281,220.675 323.614,221.675 324.5,222.5C 328.175,222.997 331.675,223.997 335,225.5C 335.434,228.179 335.268,230.846 334.5,233.5C 334.39,235.374 335.056,236.874 336.5,238C 345.545,241.23 354.878,243.063 364.5,243.5C 368.5,244.167 372.5,244.833 376.5,245.5C 372.958,245.187 369.625,245.521 366.5,246.5C 365.527,248.948 365.194,251.615 365.5,254.5C 352.496,254.667 339.496,254.5 326.5,254C 327.624,253.751 328.624,253.251 329.5,252.5C 329.043,251.702 328.376,251.369 327.5,251.5C 329.949,244.034 331.616,236.367 332.5,228.5C 316.816,227.265 301.149,225.765 285.5,224C 264.843,222.921 244.176,222.087 223.5,221.5C 199.464,222.336 175.464,223.669 151.5,225.5C 150.222,225.218 149.222,224.551 148.5,223.5C 140.5,223.5 132.5,223.5 124.5,223.5C 123.833,224.167 123.167,224.833 122.5,225.5C 122.5,225.167 122.5,224.833 122.5,224.5C 121.884,223.202 121.884,222.202 122.5,221.5C 146.169,221.667 169.836,221.5 193.5,221C 200.013,220.828 206.347,220.328 212.5,219.5C 227.5,219.5 242.5,219.5 257.5,219.5C 277.641,221.405 297.974,221.905 318.5,221C 320.061,218.269 322.394,217.103 325.5,217.5C 329.961,218.153 334.294,219.32 338.5,221C 346.159,221.5 353.826,221.666 361.5,221.5 Z"/></g>
<g><path style="opacity:1" fill="#f0f0f0" d="M 327.5,251.5 C 304.235,248.736 280.902,246.736 257.5,245.5C 236.34,244.503 215.007,244.169 193.5,244.5C 193.23,239.972 192.563,235.639 191.5,231.5C 190.538,227.854 188.205,226.687 184.5,228C 183.748,228.671 183.414,229.504 183.5,230.5C 182.804,234.231 182.138,238.065 181.5,242C 182.126,242.75 182.626,243.584 183,244.5C 185.398,241.946 187.731,241.946 190,244.5C 191.461,243.117 192.294,243.451 192.5,245.5C 190.735,246.461 188.735,246.795 186.5,246.5C 184.265,246.205 182.265,246.539 180.5,247.5C 165.737,247.866 151.07,249.2 136.5,251.5C 129.864,252.448 123.197,253.115 116.5,253.5C 114.185,246.569 112.351,239.569 111,232.5C 119.257,230.043 127.757,228.709 136.5,228.5C 137.978,228.238 139.311,228.571 140.5,229.5C 139.613,230.973 138.613,232.306 137.5,233.5C 137.44,232.957 137.107,232.624 136.5,232.5C 136.167,233.333 135.833,234.167 135.5,235C 135.972,238.677 136.638,242.177 137.5,245.5C 137.56,246.043 137.893,246.376 138.5,246.5C 139.474,244.257 139.808,241.924 139.5,239.5C 140.5,239.5 141.5,239.5 142.5,239.5C 142.201,241.604 142.534,243.604 143.5,245.5C 144.474,243.257 144.808,240.924 144.5,238.5C 144.5,235.833 144.5,233.167 144.5,230.5C 143.448,230.649 142.448,230.483 141.5,230C 144.85,228.514 148.184,227.347 151.5,226.5C 151.5,226.167 151.5,225.833 151.5,225.5C 175.464,223.669 199.464,222.336 223.5,221.5C 244.176,222.087 264.843,222.921 285.5,224C 301.149,225.765 316.816,227.265 332.5,228.5C 331.616,236.367 329.949,244.034 327.5,251.5 Z"/></g>
<g><path style="opacity:1" fill="#c4c4c4" d="M 308.5,224.5 C 312.019,223.192 315.685,223.192 319.5,224.5C 315.904,225.079 312.238,225.079 308.5,224.5 Z"/></g>
<g><path style="opacity:1" fill="#f3f3f3" d="M 354.5,229.5 C 354.842,230.338 355.508,230.672 356.5,230.5C 356.833,230.5 357.167,230.5 357.5,230.5C 361.207,232.19 365.207,233.356 369.5,234C 374.232,235.036 378.566,234.203 382.5,231.5C 384.086,229.827 384.753,227.827 384.5,225.5C 391.456,226.392 393.289,230.059 390,236.5C 386.984,240.092 383.151,242.258 378.5,243C 373.845,243.499 369.179,243.666 364.5,243.5C 354.878,243.063 345.545,241.23 336.5,238C 335.056,236.874 334.39,235.374 334.5,233.5C 335.268,230.846 335.434,228.179 335,225.5C 331.675,223.997 328.175,222.997 324.5,222.5C 323.614,221.675 323.281,220.675 323.5,219.5C 325.527,219.338 327.527,219.505 329.5,220C 338.076,222.625 346.409,225.792 354.5,229.5 Z"/></g>
<g><path style="opacity:1" fill="#d5d5d5" d="M 346.5,223.5 C 352.167,223.5 357.833,223.5 363.5,223.5C 363.808,225.924 363.474,228.257 362.5,230.5C 361.828,229.051 361.161,227.718 360.5,226.5C 356.818,226.665 353.152,226.499 349.5,226C 348.058,225.623 347.058,224.79 346.5,223.5 Z"/></g>
<g><path style="opacity:1" fill="#c1c1c1" d="M 321.5,223.5 C 325.036,224.758 328.703,225.591 332.5,226C 329.167,226.667 325.833,226.667 322.5,226C 321.748,225.329 321.414,224.496 321.5,223.5 Z"/></g>
<g><path style="opacity:1" fill="#393939" d="M 361.5,221.5 C 363.144,221.286 364.644,221.62 366,222.5C 366.212,225.758 366.712,228.924 367.5,232C 371.625,232.854 375.625,232.52 379.5,231C 381.278,228.865 381.945,226.365 381.5,223.5C 395.859,224.439 398.192,230.272 388.5,241C 384.847,243.385 380.847,244.885 376.5,245.5C 372.5,244.833 368.5,244.167 364.5,243.5C 369.179,243.666 373.845,243.499 378.5,243C 383.151,242.258 386.984,240.092 390,236.5C 393.289,230.059 391.456,226.392 384.5,225.5C 384.753,227.827 384.086,229.827 382.5,231.5C 378.566,234.203 374.232,235.036 369.5,234C 365.207,233.356 361.207,232.19 357.5,230.5C 358.5,230.5 359.5,230.5 360.5,230.5C 360.5,229.167 360.5,227.833 360.5,226.5C 361.161,227.718 361.828,229.051 362.5,230.5C 363.474,228.257 363.808,225.924 363.5,223.5C 357.833,223.5 352.167,223.5 346.5,223.5C 351.5,222.833 356.5,222.167 361.5,221.5 Z"/></g>
<g><path style="opacity:1" fill="#c5c5c5" d="M 195.5,226.5 C 199.006,225.502 202.672,225.502 206.5,226.5C 206.5,231.167 206.5,235.833 206.5,240.5C 205.675,236.353 205.175,232.019 205,227.5C 204.8,229.32 203.966,230.653 202.5,231.5C 202.714,229.856 202.38,228.356 201.5,227C 199.527,226.505 197.527,226.338 195.5,226.5 Z"/></g>
<g><path style="opacity:1" fill="#8b8b8b" d="M 263.5,227.5 C 265.607,226.532 267.941,226.198 270.5,226.5C 270.5,227.5 270.5,228.5 270.5,229.5C 268.833,229.5 267.167,229.5 265.5,229.5C 266.609,228.71 267.942,228.21 269.5,228C 267.527,227.505 265.527,227.338 263.5,227.5 Z"/></g>
<g><path style="opacity:1" fill="#383838" d="M 122.5,221.5 C 121.884,222.202 121.884,223.202 122.5,224.5C 118.039,225.69 113.706,227.19 109.5,229C 113.551,229.518 117.551,229.184 121.5,228C 122.252,227.329 122.586,226.496 122.5,225.5C 123.167,224.833 123.833,224.167 124.5,223.5C 124.5,223.833 124.5,224.167 124.5,224.5C 124.414,225.496 124.748,226.329 125.5,227C 126.833,227.167 128.167,227.333 129.5,227.5C 133.176,226.829 136.843,226.162 140.5,225.5C 143.428,225.435 146.095,224.768 148.5,223.5C 149.222,224.551 150.222,225.218 151.5,225.5C 151.5,225.833 151.5,226.167 151.5,226.5C 146.25,226.302 141.25,226.969 136.5,228.5C 127.757,228.709 119.257,230.043 111,232.5C 112.351,239.569 114.185,246.569 116.5,253.5C 123.197,253.115 129.864,252.448 136.5,251.5C 134.597,252.451 132.597,253.451 130.5,254.5C 125.242,254.183 119.908,254.183 114.5,254.5C 114.5,254.833 114.5,255.167 114.5,255.5C 102.5,255.5 90.5,255.5 78.5,255.5C 78.7947,253.265 78.4614,251.265 77.5,249.5C 67.4263,251.526 58.9263,248.859 52,241.5C 47.9014,234.762 48.7347,228.929 54.5,224C 61.3135,221.751 63.6468,223.918 61.5,230.5C 61.8757,232.383 62.8757,233.883 64.5,235C 68.1667,235.667 71.8333,235.667 75.5,235C 77.3987,230.822 78.0653,226.322 77.5,221.5C 88.505,221.667 99.505,221.5 110.5,221C 112.974,219.733 115.641,218.899 118.5,218.5C 120.417,218.754 121.751,219.754 122.5,221.5 Z"/></g>
<g><path style="opacity:1" fill="#d8d8d8" d="M 122.5,224.5 C 122.5,224.833 122.5,225.167 122.5,225.5C 122.586,226.496 122.252,227.329 121.5,228C 117.551,229.184 113.551,229.518 109.5,229C 113.706,227.19 118.039,225.69 122.5,224.5 Z"/></g>
<g><path style="opacity:1" fill="#f4f4f4" d="M 112.5,221.5 C 114.924,221.192 117.257,221.526 119.5,222.5C 115.3,224.272 111.134,226.272 107,228.5C 106.894,231.414 107.394,234.248 108.5,237C 108.167,238.167 107.833,239.333 107.5,240.5C 91.1201,246.866 74.4534,248.033 57.5,244C 51.4656,239.318 50.1323,233.651 53.5,227C 55.3453,225.872 57.3453,225.372 59.5,225.5C 58.2814,233.949 61.9481,237.949 70.5,237.5C 85.4138,234.369 99.4138,229.035 112.5,221.5 Z"/></g>
<g><path style="opacity:1" fill="#dddddd" d="M 124.5,224.5 C 130.026,224.179 135.36,224.512 140.5,225.5C 136.843,226.162 133.176,226.829 129.5,227.5C 128.167,227.333 126.833,227.167 125.5,227C 124.748,226.329 124.414,225.496 124.5,224.5 Z"/></g>
<g><path style="opacity:1" fill="#ebebeb" d="M 99.5,225.5 C 94.0247,226.489 88.358,226.822 82.5,226.5C 83.0102,229.388 82.3435,231.721 80.5,233.5C 80.5,230.5 80.5,227.5 80.5,224.5C 87.0221,224.177 93.3554,224.51 99.5,225.5 Z"/></g>
<g><path style="opacity:1" fill="#b0b0b0" d="M 124.5,224.5 C 124.5,224.167 124.5,223.833 124.5,223.5C 132.5,223.5 140.5,223.5 148.5,223.5C 146.095,224.768 143.428,225.435 140.5,225.5C 135.36,224.512 130.026,224.179 124.5,224.5 Z"/></g>
<g><path style="opacity:1" fill="#c0c0c0" d="M 99.5,225.5 C 93.3554,224.51 87.0221,224.177 80.5,224.5C 80.5,227.5 80.5,230.5 80.5,233.5C 79.5206,230.375 79.1872,227.042 79.5,223.5C 87.1739,223.334 94.8406,223.5 102.5,224C 101.756,225.039 100.756,225.539 99.5,225.5 Z"/></g>
<g><path style="opacity:1" fill="#353535" d="M 191.5,231.5 C 191.664,234.187 191.497,236.854 191,239.5C 188.23,242.28 185.896,241.946 184,238.5C 183.503,235.854 183.336,233.187 183.5,230.5C 183.414,229.504 183.748,228.671 184.5,228C 188.205,226.687 190.538,227.854 191.5,231.5 Z"/></g>
<g><path style="opacity:1" fill="#686868" d="M 356.5,230.5 C 355.508,230.672 354.842,230.338 354.5,229.5C 355.156,228.722 355.989,228.056 357,227.5C 357.5,227.833 358,228.167 358.5,228.5C 357.757,229.182 357.091,229.849 356.5,230.5 Z"/></g>
<g><path style="opacity:1" fill="#e8e8e8" d="M 186.5,228.5 C 187.75,228.577 188.583,229.244 189,230.5C 189.498,233.482 189.665,236.482 189.5,239.5C 188.178,239.67 187.011,239.337 186,238.5C 185.253,235.076 185.42,231.743 186.5,228.5 Z"/></g>
<g><path style="opacity:1" fill="#2f2f2f" d="M 253.5,226.5 C 255.467,226.261 257.301,226.594 259,227.5C 259.749,228.635 259.583,229.635 258.5,230.5C 257.377,228.711 256.044,228.378 254.5,229.5C 256.813,231.632 258.48,234.132 259.5,237C 257.733,240.899 255.233,241.399 252,238.5C 251.807,234.74 252.641,234.574 254.5,238C 255.448,238.483 256.448,238.649 257.5,238.5C 257.082,235.561 255.582,233.228 253,231.5C 252.36,229.735 252.527,228.068 253.5,226.5 Z"/></g>
<g><path style="opacity:1" fill="#3c3c3c" d="M 225.5,225.5 C 232.109,226.258 234.276,229.925 232,236.5C 229.822,240.065 227.156,240.399 224,237.5C 222.994,233.198 223.494,229.198 225.5,225.5 Z"/></g>
<g><path style="opacity:1" fill="#e6e6e6" d="M 226.5,226.5 C 227.496,226.414 228.329,226.748 229,227.5C 229.499,231.152 229.665,234.818 229.5,238.5C 227.876,238.64 226.71,237.973 226,236.5C 225.341,233.112 225.508,229.779 226.5,226.5 Z"/></g>
<g><path style="opacity:1" fill="#d9d9d9" d="M 151.5,226.5 C 148.184,227.347 144.85,228.514 141.5,230C 142.448,230.483 143.448,230.649 144.5,230.5C 144.5,233.167 144.5,235.833 144.5,238.5C 143.835,236.302 143.168,233.969 142.5,231.5C 141.534,233.396 141.201,235.396 141.5,237.5C 140.167,237.5 138.833,237.5 137.5,237.5C 137.5,236.167 137.5,234.833 137.5,233.5C 138.613,232.306 139.613,230.973 140.5,229.5C 139.311,228.571 137.978,228.238 136.5,228.5C 141.25,226.969 146.25,226.302 151.5,226.5 Z"/></g>
<g><path style="opacity:1" fill="#272727" d="M 206.5,226.5 C 208.527,226.338 210.527,226.505 212.5,227C 211.207,227.49 209.873,227.657 208.5,227.5C 208.5,229.167 208.5,230.833 208.5,232.5C 212.5,232.833 212.5,233.167 208.5,233.5C 208.5,235.167 208.5,236.833 208.5,238.5C 210.288,238.215 211.955,238.548 213.5,239.5C 211.257,240.474 208.924,240.808 206.5,240.5C 206.5,235.833 206.5,231.167 206.5,226.5 Z"/></g>
<g><path style="opacity:1" fill="#3d3d3d" d="M 263.5,227.5 C 265.527,227.338 267.527,227.505 269.5,228C 267.942,228.21 266.609,228.71 265.5,229.5C 265.5,230.5 265.5,231.5 265.5,232.5C 269.5,233.167 269.5,233.833 265.5,234.5C 265.5,236.167 265.5,237.833 265.5,239.5C 266.978,239.238 268.311,239.571 269.5,240.5C 267.257,241.474 264.924,241.808 262.5,241.5C 262.181,236.637 262.514,231.97 263.5,227.5 Z"/></g>
<g><path style="opacity:1" fill="#303030" d="M 178.5,235.5 C 178.795,237.735 178.461,239.735 177.5,241.5C 176.517,237.702 176.183,233.702 176.5,229.5C 172.551,229.307 172.551,228.807 176.5,228C 177.944,227.219 179.277,227.386 180.5,228.5C 178.827,230.523 178.16,232.856 178.5,235.5 Z"/></g>
<g><path style="opacity:1" fill="#282828" d="M 195.5,226.5 C 197.527,226.338 199.527,226.505 201.5,227C 202.38,228.356 202.714,229.856 202.5,231.5C 202.149,234.143 201.816,236.809 201.5,239.5C 199.021,232.768 197.354,233.101 196.5,240.5C 195.507,235.88 195.173,231.214 195.5,226.5 Z"/></g>
<g><path style="opacity:1" fill="#d3d3d3" d="M 197.5,227.5 C 200.084,228.048 201.084,229.715 200.5,232.5C 199.5,232.5 198.5,232.5 197.5,232.5C 197.5,230.833 197.5,229.167 197.5,227.5 Z"/></g>
<g><path style="opacity:1" fill="#313131" d="M 165.5,228.5 C 168.056,228.132 170.056,228.966 171.5,231C 171.167,231.5 170.833,232 170.5,232.5C 169.476,231.147 168.143,230.48 166.5,230.5C 166.626,233.595 168.293,235.428 171.5,236C 173.833,241.333 172.167,243.333 166.5,242C 166.043,241.586 165.709,241.086 165.5,240.5C 167.003,239.948 168.669,239.948 170.5,240.5C 169.633,237.773 167.799,235.773 165,234.5C 164.322,232.402 164.489,230.402 165.5,228.5 Z"/></g>
<g><path style="opacity:1" fill="#272727" d="M 273.5,227.5 C 276.044,227.104 278.211,227.771 280,229.5C 279.164,233.485 278.664,237.485 278.5,241.5C 277.795,239.328 276.795,237.328 275.5,235.5C 274.833,237.5 274.167,239.5 273.5,241.5C 272.532,236.855 272.532,232.188 273.5,227.5 Z"/></g>
<g><path style="opacity:1" fill="#e9e9e9" d="M 275.5,229.5 C 276.5,229.5 277.5,229.5 278.5,229.5C 278.5,230.833 278.5,232.167 278.5,233.5C 277.5,233.5 276.5,233.5 275.5,233.5C 275.5,232.167 275.5,230.833 275.5,229.5 Z"/></g>
<g><path style="opacity:1" fill="#202020" d="M 293.5,229.5 C 294.777,230.694 295.444,232.36 295.5,234.5C 295.551,237.672 294.884,240.672 293.5,243.5C 293.112,238.913 293.112,234.246 293.5,229.5 Z"/></g>
<g><path style="opacity:1" fill="#8a8a8a" d="M 126.5,234.5 C 127.167,235.167 127.833,235.833 128.5,236.5C 127.325,236.719 126.325,236.386 125.5,235.5C 125.624,234.893 125.957,234.56 126.5,234.5 Z"/></g>
<g><path style="opacity:1" fill="#2f2f2f" d="M 147.5,230.5 C 149.604,230.201 151.604,230.534 153.5,231.5C 152.311,232.429 150.978,232.762 149.5,232.5C 149.5,233.833 149.5,235.167 149.5,236.5C 153.5,237.167 153.5,237.833 149.5,238.5C 149.5,239.833 149.5,241.167 149.5,242.5C 151.604,242.201 153.604,242.534 155.5,243.5C 152.914,244.48 150.247,244.813 147.5,244.5C 147.5,239.833 147.5,235.167 147.5,230.5 Z"/></g>
<g><path style="opacity:1" fill="#323232" d="M 235.5,225.5 C 237.604,225.201 239.604,225.534 241.5,226.5C 240.311,227.429 238.978,227.762 237.5,227.5C 237.5,228.833 237.5,230.167 237.5,231.5C 241.5,232.167 241.5,232.833 237.5,233.5C 237.5,235.5 237.5,237.5 237.5,239.5C 236.5,239.5 235.5,239.5 234.5,239.5C 234.669,234.819 235.002,230.152 235.5,225.5 Z"/></g>
<g><path style="opacity:1" fill="#242424" d="M 282.5,228.5 C 283.376,228.369 284.043,228.702 284.5,229.5C 285.613,237.384 286.613,237.384 287.5,229.5C 288.5,229.5 289.5,229.5 290.5,229.5C 286.36,247.055 283.693,246.722 282.5,228.5 Z"/></g>
<g><path style="opacity:1" fill="#292929" d="M 144.5,238.5 C 144.808,240.924 144.474,243.257 143.5,245.5C 142.534,243.604 142.201,241.604 142.5,239.5C 141.5,239.5 140.5,239.5 139.5,239.5C 138.833,241.5 138.167,243.5 137.5,245.5C 136.638,242.177 135.972,238.677 135.5,235C 135.833,234.167 136.167,233.333 136.5,232.5C 137.107,232.624 137.44,232.957 137.5,233.5C 137.5,234.833 137.5,236.167 137.5,237.5C 138.833,237.5 140.167,237.5 141.5,237.5C 141.201,235.396 141.534,233.396 142.5,231.5C 143.168,233.969 143.835,236.302 144.5,238.5 Z"/></g>
<g><path style="opacity:1" fill="#6c6c6c" d="M 178.5,235.5 C 179.797,237.693 179.797,240.027 178.5,242.5C 177.893,242.376 177.56,242.043 177.5,241.5C 178.461,239.735 178.795,237.735 178.5,235.5 Z"/></g>
<g><path style="opacity:1" fill="#c5c5c5" d="M 183.5,230.5 C 183.336,233.187 183.503,235.854 184,238.5C 185.896,241.946 188.23,242.28 191,239.5C 191.497,236.854 191.664,234.187 191.5,231.5C 192.563,235.639 193.23,239.972 193.5,244.5C 215.007,244.169 236.34,244.503 257.5,245.5C 235.833,245.5 214.167,245.5 192.5,245.5C 192.294,243.451 191.461,243.117 190,244.5C 187.731,241.946 185.398,241.946 183,244.5C 182.626,243.584 182.126,242.75 181.5,242C 182.138,238.065 182.804,234.231 183.5,230.5 Z"/></g>
<g><path style="opacity:1" fill="#797979" d="M 314.5,238.5 C 313.791,239.404 312.791,239.737 311.5,239.5C 311.5,240.833 311.5,242.167 311.5,243.5C 310.549,242.081 310.216,240.415 310.5,238.5C 311.833,238.5 313.167,238.5 314.5,238.5 Z"/></g>
<g><path style="opacity:1" fill="#939393" d="M 333.5,239.5 C 334.978,239.238 336.311,239.571 337.5,240.5C 336.833,240.833 336.167,241.167 335.5,241.5C 334.287,241.253 333.62,240.586 333.5,239.5 Z"/></g>
<g><path style="opacity:1" fill="#323232" d="M 128.5,236.5 C 127.833,235.833 127.167,235.167 126.5,234.5C 128.364,233.207 130.364,233.207 132.5,234.5C 131.892,238.85 131.558,243.184 131.5,247.5C 129.936,244.016 128.936,240.35 128.5,236.5 Z"/></g>
<g><path style="opacity:1" fill="#2c2c2c" d="M 314.5,238.5 C 313.167,238.5 311.833,238.5 310.5,238.5C 310.216,240.415 310.549,242.081 311.5,243.5C 312.978,243.238 314.311,243.571 315.5,244.5C 313.257,245.474 310.924,245.808 308.5,245.5C 308.54,240.807 308.873,236.141 309.5,231.5C 311.924,231.192 314.257,231.526 316.5,232.5C 314.955,233.452 313.288,233.785 311.5,233.5C 311.5,234.833 311.5,236.167 311.5,237.5C 312.791,237.263 313.791,237.596 314.5,238.5 Z"/></g>
<g><path style="opacity:1" fill="#313131" d="M 300.5,229.5 C 304.734,229.062 306.401,230.728 305.5,234.5C 304.585,232.02 303.085,231.353 301,232.5C 300.176,235.882 300.343,239.216 301.5,242.5C 302.719,241.737 303.719,240.737 304.5,239.5C 305.811,242.063 304.978,243.73 302,244.5C 299.153,243.489 297.653,241.489 297.5,238.5C 297.909,235.273 298.909,232.273 300.5,229.5 Z"/></g>
<g><path style="opacity:1" fill="#797979" d="M 139.5,239.5 C 139.808,241.924 139.474,244.257 138.5,246.5C 137.893,246.376 137.56,246.043 137.5,245.5C 138.167,243.5 138.833,241.5 139.5,239.5 Z"/></g>
<g><path style="opacity:1" fill="#7d7d7d" d="M 334.5,242.5 C 341.994,242.285 349.327,243.285 356.5,245.5C 349.189,246.665 341.856,246.831 334.5,246C 335.5,245.667 336.5,245.333 337.5,245C 335.881,244.764 334.881,243.931 334.5,242.5 Z"/></g>
<g><path style="opacity:1" fill="#9a9a9a" d="M 104.5,243.5 C 106.606,243.679 108.272,244.679 109.5,246.5C 103.863,247.663 98.1959,247.83 92.5,247C 96.8595,246.303 100.859,245.137 104.5,243.5 Z"/></g>
<g><path style="opacity:1" fill="#373737" d="M 180.5,247.5 C 182.265,246.539 184.265,246.205 186.5,246.5C 204.833,247.167 223.167,247.833 241.5,248.5C 222.167,248.5 202.833,248.5 183.5,248.5C 182.791,247.596 181.791,247.263 180.5,247.5 Z"/></g>
<g><path style="opacity:1" fill="#868686" d="M 80.5,249.5 C 81.209,248.596 82.209,248.263 83.5,248.5C 83.5,249.5 83.5,250.5 83.5,251.5C 82.7777,250.449 81.7777,249.782 80.5,249.5 Z"/></g>
<g><path style="opacity:1" fill="#252525" d="M 192.5,245.5 C 214.167,245.5 235.833,245.5 257.5,245.5C 280.902,246.736 304.235,248.736 327.5,251.5C 323.326,252.859 319.326,253.859 315.5,254.5C 314.486,253.326 313.153,252.66 311.5,252.5C 258.687,251.182 206.02,251.182 153.5,252.5C 149.753,252.392 146.086,252.892 142.5,254C 152.161,254.5 161.828,254.666 171.5,254.5C 171.5,254.833 171.5,255.167 171.5,255.5C 152.5,255.5 133.5,255.5 114.5,255.5C 114.5,255.167 114.5,254.833 114.5,254.5C 119.908,254.183 125.242,254.183 130.5,254.5C 132.597,253.451 134.597,252.451 136.5,251.5C 151.07,249.2 165.737,247.866 180.5,247.5C 181.791,247.263 182.791,247.596 183.5,248.5C 182.957,248.56 182.624,248.893 182.5,249.5C 210.827,250.667 239.161,250.833 267.5,250C 267.833,249.667 268.167,249.333 268.5,249C 259.506,248.5 250.506,248.334 241.5,248.5C 223.167,247.833 204.833,247.167 186.5,246.5C 188.735,246.795 190.735,246.461 192.5,245.5 Z"/></g>
<g><path style="opacity:1" fill="#a2a2a2" d="M 183.5,248.5 C 202.833,248.5 222.167,248.5 241.5,248.5C 250.506,248.334 259.506,248.5 268.5,249C 268.167,249.333 267.833,249.667 267.5,250C 239.161,250.833 210.827,250.667 182.5,249.5C 182.624,248.893 182.957,248.56 183.5,248.5 Z"/></g>
<g><path style="opacity:1" fill="#6a6a6a" d="M 360.5,250.5 C 351.014,251.494 341.348,251.827 331.5,251.5C 332.952,250.698 334.618,250.198 336.5,250C 335.833,249.667 335.167,249.333 334.5,249C 342.167,248.333 349.833,248.333 357.5,249C 353.5,249.333 349.5,249.667 345.5,250C 350.489,250.499 355.489,250.666 360.5,250.5 Z"/></g>
<g><path style="opacity:1" fill="#ececec" d="M 331.5,251.5 C 341.348,251.827 351.014,251.494 360.5,250.5C 361.163,248.958 361.83,247.291 362.5,245.5C 363.48,248.086 363.813,250.753 363.5,253.5C 352.48,253.832 341.48,253.499 330.5,252.5C 330.624,251.893 330.957,251.56 331.5,251.5 Z"/></g>
<g><path style="opacity:1" fill="#767676" d="M 366.5,246.5 C 366.5,249.833 366.5,253.167 366.5,256.5C 270.167,256.5 173.833,256.5 77.5,256.5C 77.5,254.167 77.5,251.833 77.5,249.5C 78.4614,251.265 78.7947,253.265 78.5,255.5C 90.5,255.5 102.5,255.5 114.5,255.5C 133.5,255.5 152.5,255.5 171.5,255.5C 236.335,255.832 301.002,255.499 365.5,254.5C 365.194,251.615 365.527,248.948 366.5,246.5 Z"/></g>
<g><path style="opacity:1" fill="#141414" d="M 327.5,251.5 C 328.376,251.369 329.043,251.702 329.5,252.5C 328.624,253.251 327.624,253.751 326.5,254C 339.496,254.5 352.496,254.667 365.5,254.5C 301.002,255.499 236.335,255.832 171.5,255.5C 171.5,255.167 171.5,254.833 171.5,254.5C 219.5,254.5 267.5,254.5 315.5,254.5C 319.326,253.859 323.326,252.859 327.5,251.5 Z"/></g>
<g><path style="opacity:1" fill="#aaaaaa" d="M 153.5,252.5 C 206.167,253.833 258.833,253.833 311.5,252.5C 313.153,252.66 314.486,253.326 315.5,254.5C 267.5,254.5 219.5,254.5 171.5,254.5C 161.828,254.666 152.161,254.5 142.5,254C 146.086,252.892 149.753,252.392 153.5,252.5 Z"/></g>
<g><path style="opacity:1" fill="#e7e7e7" d="M 80.5,249.5 C 81.7777,249.782 82.7777,250.449 83.5,251.5C 93.8333,251.5 104.167,251.5 114.5,251.5C 114.5,252.5 114.5,253.5 114.5,254.5C 102.833,254.5 91.1667,254.5 79.5,254.5C 79.2155,252.585 79.5489,250.919 80.5,249.5 Z"/></g>
<g><path style="opacity:1" fill="#e6e6e6" d="M 311.5,252.5 C 258.833,253.833 206.167,253.833 153.5,252.5C 206.02,251.182 258.687,251.182 311.5,252.5 Z"/></g>
</svg>
