<?xml version="1.0" encoding="UTF-8"?>
<!DOCTYPE svg PUBLIC "-//W3C//DTD SVG 1.1//EN" "http://www.w3.org/Graphics/SVG/1.1/DTD/svg11.dtd">
<svg xmlns="http://www.w3.org/2000/svg" version="1.1" width="438px" height="438px" style="shape-rendering:geometricPrecision; text-rendering:geometricPrecision; image-rendering:optimizeQuality; fill-rule:evenodd; clip-rule:evenodd" xmlns:xlink="http://www.w3.org/1999/xlink">
<g><path style="opacity:1" fill="#fefefe" d="M -0.5,-0.5 C 145.5,-0.5 291.5,-0.5 437.5,-0.5C 437.5,145.5 437.5,291.5 437.5,437.5C 291.5,437.5 145.5,437.5 -0.5,437.5C -0.5,291.5 -0.5,145.5 -0.5,-0.5 Z"/></g>
<g><path style="opacity:1" fill="#484848" d="M 144.5,125.5 C 144.5,124.5 144.5,123.5 144.5,122.5C 142.533,122.261 140.699,122.594 139,123.5C 138.943,126.851 138.109,129.851 136.5,132.5C 136.5,131.833 136.5,131.167 136.5,130.5C 137.15,128.565 137.483,126.565 137.5,124.5C 135.833,124.5 134.167,124.5 132.5,124.5C 131.127,124.657 129.793,124.49 128.5,124C 129.737,123.768 130.737,123.268 131.5,122.5C 136.363,121.694 141.196,120.694 146,119.5C 146.5,119.833 147,120.167 147.5,120.5C 146.725,122.396 145.725,124.063 144.5,125.5 Z"/></g>
<g><path style="opacity:1" fill="#b1b1b1" d="M 131.5,122.5 C 130.737,123.268 129.737,123.768 128.5,124C 129.793,124.49 131.127,124.657 132.5,124.5C 131.081,125.451 129.415,125.784 127.5,125.5C 127.5,124.5 127.5,123.5 127.5,122.5C 128.833,122.5 130.167,122.5 131.5,122.5 Z"/></g>
<g><path style="opacity:1" fill="#565656" d="M 226.5,128.5 C 225.833,128.5 225.5,128.167 225.5,127.5C 230.793,120.023 237.627,114.689 246,111.5C 248.389,111.482 250.556,112.149 252.5,113.5C 249.893,114.318 247.226,114.818 244.5,115C 238.057,118.947 232.057,123.447 226.5,128.5 Z"/></g>
<g><path style="opacity:1" fill="#4f4f4f" d="M 182.5,138.5 C 182.167,138.5 181.833,138.5 181.5,138.5C 181.5,135.167 181.5,131.833 181.5,128.5C 179.089,128.137 177.589,129.137 177,131.5C 176.831,144.673 176.331,157.673 175.5,170.5C 175.829,157.989 175.495,145.655 174.5,133.5C 173.833,133.5 173.5,133.167 173.5,132.5C 176.567,129.118 179.901,125.952 183.5,123C 184.167,122.333 184.833,122.333 185.5,123C 184.667,123.833 183.833,124.667 183,125.5C 182.501,129.821 182.334,134.154 182.5,138.5 Z"/></g>
<g><path style="opacity:1" fill="#7f7f7f" d="M 136.5,130.5 C 136.5,131.167 136.5,131.833 136.5,132.5C 136.204,134.403 135.537,136.07 134.5,137.5C 134.41,134.848 135.076,132.515 136.5,130.5 Z"/></g>
<g><path style="opacity:1" fill="#5b5b5b" d="M 134.5,137.5 C 134.435,140.428 133.768,143.095 132.5,145.5C 132.294,142.505 132.96,139.838 134.5,137.5 Z"/></g>
<g><path style="opacity:1" fill="#696969" d="M 173.5,132.5 C 173.5,133.167 173.833,133.5 174.5,133.5C 160.496,147.504 146.163,161.171 131.5,174.5C 131.167,174.5 130.833,174.5 130.5,174.5C 144.171,159.829 158.504,145.829 173.5,132.5 Z"/></g>
<g><path style="opacity:1" fill="#363636" d="M 291.5,150.5 C 290.957,150.56 290.624,150.893 290.5,151.5C 295.802,152.329 301.136,152.829 306.5,153C 300.319,153.172 294.319,153.672 288.5,154.5C 285.069,160.373 281.402,166.04 277.5,171.5C 277.179,169.952 276.179,169.285 274.5,169.5C 276.418,164.657 279.084,160.323 282.5,156.5C 283.404,155.791 283.737,154.791 283.5,153.5C 277.167,153.5 270.833,153.5 264.5,153.5C 264.263,152.209 264.596,151.209 265.5,150.5C 268.428,151.82 271.761,152.486 275.5,152.5C 278.833,152.167 282.167,151.833 285.5,151.5C 289.126,145.078 293.126,138.911 297.5,133C 299.134,132.506 300.801,132.34 302.5,132.5C 302.649,133.552 302.483,134.552 302,135.5C 297.998,140.179 294.498,145.179 291.5,150.5 Z"/></g>
<g><path style="opacity:1" fill="#b7b7b7" d="M 137.5,146.5 C 137.59,149.152 136.924,151.485 135.5,153.5C 135.41,150.848 136.076,148.515 137.5,146.5 Z"/></g>
<g><path style="opacity:1" fill="#2d2d2d" d="M 265.5,150.5 C 264.596,151.209 264.263,152.209 264.5,153.5C 263.833,153.5 263.5,153.833 263.5,154.5C 256.931,161.537 253.264,169.87 252.5,179.5C 252.5,181.5 251.5,182.5 249.5,182.5C 248.5,182.167 247.833,181.5 247.5,180.5C 247.72,176.956 247.72,173.622 247.5,170.5C 250.867,165.477 254.2,160.477 257.5,155.5C 258.043,155.44 258.376,155.107 258.5,154.5C 255.553,153.679 252.553,153.179 249.5,153C 253.025,152.821 256.359,152.321 259.5,151.5C 264.804,144.011 269.97,136.344 275,128.5C 277.514,125.163 279.847,124.83 282,127.5C 276.249,135.069 270.749,142.736 265.5,150.5 Z"/></g>
<g><path style="opacity:1" fill="#6b6b6b" d="M 225.5,127.5 C 225.5,128.167 225.833,128.5 226.5,128.5C 211.353,143.637 197.353,159.637 184.5,176.5C 184.5,175.833 184.167,175.5 183.5,175.5C 183.5,175.167 183.5,174.833 183.5,174.5C 196.327,157.891 210.327,142.225 225.5,127.5 Z"/></g>
<g><path style="opacity:1" fill="#6f6f6f" d="M 237.5,152.5 C 239.175,150.544 238.842,149.211 236.5,148.5C 237.531,147.751 238.698,147.085 240,146.5C 240.492,147.549 240.326,148.549 239.5,149.5C 244.624,152.092 243.958,153.092 237.5,152.5 Z"/></g>
<g><path style="opacity:1" fill="#969696" d="M 181.5,138.5 C 181.833,138.5 182.167,138.5 182.5,138.5C 182.172,150.678 182.505,162.678 183.5,174.5C 183.5,174.833 183.5,175.167 183.5,175.5C 181.52,163.545 180.854,151.212 181.5,138.5 Z"/></g>
<g><path style="opacity:1" fill="#535353" d="M 311.5,159.5 C 310.833,159.167 310.167,158.833 309.5,158.5C 312.15,153.371 316.483,151.037 322.5,151.5C 322.67,152.822 322.337,153.989 321.5,155C 319.231,154.626 316.898,154.626 314.5,155C 312.624,155.918 311.624,157.418 311.5,159.5 Z"/></g>
<g><path style="opacity:1" fill="#eeeeee" d="M 225.5,166.5 C 224.833,166.5 224.5,166.833 224.5,167.5C 220.747,172.587 216.081,176.587 210.5,179.5C 210.207,176.246 210.874,173.246 212.5,170.5C 215.861,163.003 221.195,157.17 228.5,153C 230.167,152.333 231.833,152.333 233.5,153C 230.696,157.445 228.029,161.945 225.5,166.5 Z"/></g>
<g><path style="opacity:1" fill="#9e9e9e" d="M 259.5,151.5 C 256.359,152.321 253.025,152.821 249.5,153C 252.553,153.179 255.553,153.679 258.5,154.5C 258.376,155.107 258.043,155.44 257.5,155.5C 254.713,154.523 251.713,154.19 248.5,154.5C 248.5,153.5 248.5,152.5 248.5,151.5C 252.167,151.5 255.833,151.5 259.5,151.5 Z"/></g>
<g><path style="opacity:1" fill="#8d8d8d" d="M 263.5,154.5 C 263.5,153.833 263.833,153.5 264.5,153.5C 270.833,153.5 277.167,153.5 283.5,153.5C 283.737,154.791 283.404,155.791 282.5,156.5C 276.588,154.544 270.255,153.877 263.5,154.5 Z"/></g>
<g><path style="opacity:1" fill="#ababab" d="M 291.5,150.5 C 296.64,151.488 301.974,151.821 307.5,151.5C 307.5,152.5 307.5,153.5 307.5,154.5C 301.167,154.5 294.833,154.5 288.5,154.5C 294.319,153.672 300.319,153.172 306.5,153C 301.136,152.829 295.802,152.329 290.5,151.5C 290.624,150.893 290.957,150.56 291.5,150.5 Z"/></g>
<g><path style="opacity:1" fill="#f7f7f7" d="M 263.5,154.5 C 270.255,153.877 276.588,154.544 282.5,156.5C 279.084,160.323 276.418,164.657 274.5,169.5C 273.5,169.833 272.833,170.5 272.5,171.5C 267.041,177.535 260.374,180.202 252.5,179.5C 253.264,169.87 256.931,161.537 263.5,154.5 Z"/></g>
<g><path style="opacity:1" fill="#404040" d="M 236.5,148.5 C 238.842,149.211 239.175,150.544 237.5,152.5C 234.867,158.093 231.867,163.427 228.5,168.5C 228.657,167.127 228.49,165.793 228,164.5C 227.583,165.756 226.75,166.423 225.5,166.5C 228.029,161.945 230.696,157.445 233.5,153C 231.833,152.333 230.167,152.333 228.5,153C 221.195,157.17 215.861,163.003 212.5,170.5C 212.66,168.801 212.494,167.134 212,165.5C 210.629,168.319 208.796,170.653 206.5,172.5C 212.698,159.625 222.698,151.625 236.5,148.5 Z"/></g>
<g><path style="opacity:1" fill="#2c2c2c" d="M 309.5,158.5 C 310.167,158.833 310.833,159.167 311.5,159.5C 312.441,161.05 313.107,162.716 313.5,164.5C 315.343,167.564 315.843,170.897 315,174.5C 314.292,173.619 313.458,172.953 312.5,172.5C 311.62,169.738 310.454,167.071 309,164.5C 308.211,162.288 308.378,160.288 309.5,158.5 Z"/></g>
<g><path style="opacity:1" fill="#3d3d3d" d="M 131.5,147.5 C 129.57,153.633 128.07,159.967 127,166.5C 123.763,171.049 121.596,176.049 120.5,181.5C 122.167,181.5 123.833,181.5 125.5,181.5C 123.513,182.343 121.346,183.01 119,183.5C 118.5,183.167 118,182.833 117.5,182.5C 118.888,178.64 120.721,174.974 123,171.5C 125.544,163.281 128.377,155.281 131.5,147.5 Z"/></g>
<g><path style="opacity:1" fill="#141414" d="M 181.5,138.5 C 180.854,151.212 181.52,163.545 183.5,175.5C 184.167,175.5 184.5,175.833 184.5,176.5C 183.281,180.38 180.615,182.38 176.5,182.5C 175.518,179.038 175.185,175.371 175.5,171.5C 175.5,171.167 175.5,170.833 175.5,170.5C 176.331,157.673 176.831,144.673 177,131.5C 177.589,129.137 179.089,128.137 181.5,128.5C 181.5,131.833 181.5,135.167 181.5,138.5 Z"/></g>
<g><path style="opacity:1" fill="#161616" d="M 144.5,125.5 C 141.708,132.327 139.375,139.327 137.5,146.5C 136.076,148.515 135.41,150.848 135.5,153.5C 132.759,159.475 130.759,165.809 129.5,172.5C 129.543,173.416 129.876,174.083 130.5,174.5C 130.833,174.5 131.167,174.5 131.5,174.5C 129.471,176.858 127.471,179.192 125.5,181.5C 123.833,181.5 122.167,181.5 120.5,181.5C 121.596,176.049 123.763,171.049 127,166.5C 128.07,159.967 129.57,153.633 131.5,147.5C 131.328,146.508 131.662,145.842 132.5,145.5C 133.768,143.095 134.435,140.428 134.5,137.5C 135.537,136.07 136.204,134.403 136.5,132.5C 138.109,129.851 138.943,126.851 139,123.5C 140.699,122.594 142.533,122.261 144.5,122.5C 144.5,123.5 144.5,124.5 144.5,125.5 Z"/></g>
<g><path style="opacity:1" fill="#212121" d="M 228.5,168.5 C 228.167,169.833 227.833,171.167 227.5,172.5C 226.21,173.058 225.377,174.058 225,175.5C 224.667,177.5 224.333,179.5 224,181.5C 223.503,178.854 223.336,176.187 223.5,173.5C 224.15,171.565 224.483,169.565 224.5,167.5C 224.5,166.833 224.833,166.5 225.5,166.5C 226.75,166.423 227.583,165.756 228,164.5C 228.49,165.793 228.657,167.127 228.5,168.5 Z"/></g>
<g><path style="opacity:1" fill="#686868" d="M 224.5,167.5 C 224.483,169.565 224.15,171.565 223.5,173.5C 223.167,173.5 222.833,173.5 222.5,173.5C 222.565,173.062 222.399,172.728 222,172.5C 218.59,176.112 214.756,179.112 210.5,181.5C 210.5,180.833 210.5,180.167 210.5,179.5C 216.081,176.587 220.747,172.587 224.5,167.5 Z"/></g>
<g><path style="opacity:1" fill="#424242" d="M 227.5,172.5 C 226.84,174.816 226.173,177.149 225.5,179.5C 225.747,180.713 226.414,181.38 227.5,181.5C 228.833,182.167 230.167,182.833 231.5,183.5C 222.321,185.984 219.321,182.65 222.5,173.5C 222.833,173.5 223.167,173.5 223.5,173.5C 223.336,176.187 223.503,178.854 224,181.5C 224.333,179.5 224.667,177.5 225,175.5C 225.377,174.058 226.21,173.058 227.5,172.5 Z"/></g>
<g><path style="opacity:1" fill="#232323" d="M 212.5,170.5 C 210.874,173.246 210.207,176.246 210.5,179.5C 210.5,180.167 210.5,180.833 210.5,181.5C 208.533,181.739 206.699,181.406 205,180.5C 204.567,177.581 205.067,174.914 206.5,172.5C 208.796,170.653 210.629,168.319 212,165.5C 212.494,167.134 212.66,168.801 212.5,170.5 Z"/></g>
<g><path style="opacity:1" fill="#5e5e5e" d="M 272.5,171.5 C 271.249,174.132 270.249,176.799 269.5,179.5C 269.53,178.503 269.03,177.836 268,177.5C 262.239,181.602 256.073,183.268 249.5,182.5C 251.5,182.5 252.5,181.5 252.5,179.5C 260.374,180.202 267.041,177.535 272.5,171.5 Z"/></g>
<g><path style="opacity:1" fill="#747474" d="M 175.5,171.5 C 175.185,175.371 175.518,179.038 176.5,182.5C 175.86,184.332 174.86,184.665 173.5,183.5C 174.109,179.365 174.776,175.365 175.5,171.5 Z"/></g>
<g><path style="opacity:1" fill="#474747" d="M 301.5,180.5 C 302.833,181.167 304.167,181.833 305.5,182.5C 302.059,182.699 298.726,182.199 295.5,181C 292.741,178.426 293.074,176.26 296.5,174.5C 297.709,176.941 299.376,178.941 301.5,180.5 Z"/></g>
<g><path style="opacity:1" fill="#737373" d="M 247.5,170.5 C 247.72,173.622 247.72,176.956 247.5,180.5C 246.686,178.369 246.186,176.036 246,173.5C 241.747,177.707 236.913,181.04 231.5,183.5C 230.167,182.833 228.833,182.167 227.5,181.5C 230.688,181.382 233.688,180.549 236.5,179C 240.061,175.927 243.728,173.094 247.5,170.5 Z"/></g>
<g><path style="opacity:1" fill="#666666" d="M 313.5,164.5 C 316.875,166.59 318.041,169.59 317,173.5C 315.067,178.933 311.234,181.933 305.5,182.5C 304.167,181.833 302.833,181.167 301.5,180.5C 304.649,180.789 307.649,180.289 310.5,179C 312.229,177.211 312.896,175.044 312.5,172.5C 313.458,172.953 314.292,173.619 315,174.5C 315.843,170.897 315.343,167.564 313.5,164.5 Z"/></g>
<g><path style="opacity:1" fill="#202020" d="M 274.5,169.5 C 276.179,169.285 277.179,169.952 277.5,171.5C 276.014,175.812 274.514,180.145 273,184.5C 272.505,186.473 272.338,188.473 272.5,190.5C 272.179,192.048 271.179,192.715 269.5,192.5C 267.011,188.214 267.011,183.881 269.5,179.5C 270.249,176.799 271.249,174.132 272.5,171.5C 272.833,170.5 273.5,169.833 274.5,169.5 Z"/></g>
<g><path style="opacity:1" fill="#646464" d="M 269.5,192.5 C 271.179,192.715 272.179,192.048 272.5,190.5C 281.287,192.133 289.287,190.133 296.5,184.5C 297.711,185.274 297.711,186.107 296.5,187C 288.499,192.003 279.833,194.337 270.5,194C 269.944,193.617 269.611,193.117 269.5,192.5 Z"/></g>
<g><path style="opacity:1" fill="#6d6d6d" d="M 151.5,207.5 C 148.946,208.388 146.279,208.721 143.5,208.5C 143.5,208.167 143.5,207.833 143.5,207.5C 145.403,206.643 147.403,205.977 149.5,205.5C 150.713,205.747 151.38,206.414 151.5,207.5 Z"/></g>
<g><path style="opacity:1" fill="#656565" d="M 212.5,208.5 C 211.833,208.5 211.5,208.167 211.5,207.5C 213.913,205.949 216.579,205.283 219.5,205.5C 219.5,206.5 219.5,207.5 219.5,208.5C 217.167,208.5 214.833,208.5 212.5,208.5 Z"/></g>
<g><path style="opacity:1" fill="#f2f2f2" d="M 155.5,206.5 C 155.599,209.237 155.265,211.904 154.5,214.5C 150.955,220.885 146.121,226.218 140,230.5C 139.601,230.272 139.435,229.938 139.5,229.5C 143.203,222.599 147.536,216.099 152.5,210C 151.833,209.333 151.167,209.333 150.5,210C 147.628,212.537 145.128,215.37 143,218.5C 137.555,227.727 132.389,237.06 127.5,246.5C 125.239,250.437 121.906,252.77 117.5,253.5C 117.5,252.167 117.5,250.833 117.5,249.5C 121.181,239.152 126.181,229.486 132.5,220.5C 136.138,216.526 139.805,212.526 143.5,208.5C 146.279,208.721 148.946,208.388 151.5,207.5C 151.435,207.938 151.601,208.272 152,208.5C 153.113,207.695 154.279,207.028 155.5,206.5 Z"/></g>
<g><path style="opacity:1" fill="#a7a7a7" d="M 143.5,207.5 C 143.5,207.833 143.5,208.167 143.5,208.5C 139.805,212.526 136.138,216.526 132.5,220.5C 132.167,220.5 131.833,220.5 131.5,220.5C 134.365,215.092 138.365,210.759 143.5,207.5 Z"/></g>
<g><path style="opacity:1" fill="#565656" d="M 155.5,206.5 C 156.5,206.5 157.5,206.5 158.5,206.5C 158.353,209.792 157.353,212.792 155.5,215.5C 154.833,215.5 154.5,215.167 154.5,214.5C 155.265,211.904 155.599,209.237 155.5,206.5 Z"/></g>
<g><path style="opacity:1" fill="#7d7d7d" d="M 87.5,223.5 C 86.8333,223.5 86.5,223.167 86.5,222.5C 88.2959,221.207 89.9625,219.707 91.5,218C 93.1667,217.333 94.8333,217.333 96.5,218C 93.3711,219.63 90.3711,221.464 87.5,223.5 Z"/></g>
<g><path style="opacity:1" fill="#8e8e8e" d="M 241.5,222.5 C 241.631,221.761 241.464,221.094 241,220.5C 240.329,221.252 239.496,221.586 238.5,221.5C 239.287,219.896 240.62,219.229 242.5,219.5C 242.737,220.791 242.404,221.791 241.5,222.5 Z"/></g>
<g><path style="opacity:1" fill="#a3a3a3" d="M 369.5,222.5 C 368.432,221.566 367.099,221.232 365.5,221.5C 365.737,222.791 365.404,223.791 364.5,224.5C 363.322,223.001 361.655,222.001 359.5,221.5C 363.167,220.167 366.833,220.167 370.5,221.5C 370.376,222.107 370.043,222.44 369.5,222.5 Z"/></g>
<g><path style="opacity:1" fill="#8d8d8d" d="M 45.5,223.5 C 44.791,222.596 43.791,222.263 42.5,222.5C 42.7678,224.099 42.4345,225.432 41.5,226.5C 41.5,225.5 41.5,224.5 41.5,223.5C 40.448,223.649 39.448,223.483 38.5,223C 41.0155,221.287 43.6821,221.12 46.5,222.5C 46.3764,223.107 46.0431,223.44 45.5,223.5 Z"/></g>
<g><path style="opacity:1" fill="#919191" d="M 211.5,207.5 C 211.5,208.167 211.833,208.5 212.5,208.5C 206.445,214.222 201.111,220.556 196.5,227.5C 196.5,226.833 196.167,226.5 195.5,226.5C 199.655,219.2 204.988,212.867 211.5,207.5 Z"/></g>
<g><path style="opacity:1" fill="#f6f6f6" d="M 237.5,225.5 C 236.908,228.127 236.575,230.794 236.5,233.5C 235.596,234.209 235.263,235.209 235.5,236.5C 231.486,236.666 227.486,236.499 223.5,236C 227.5,232.333 231.5,228.667 235.5,225C 236.437,224.308 237.103,224.475 237.5,225.5 Z"/></g>
<g><path style="opacity:1" fill="#6b6b6b" d="M 254.5,226.5 C 257.957,226.667 258.29,227.667 255.5,229.5C 254.614,228.675 254.281,227.675 254.5,226.5 Z"/></g>
<g><path style="opacity:1" fill="#939393" d="M 323.5,243.5 C 324.815,242.105 324.481,241.105 322.5,240.5C 324.267,238.062 325.601,235.395 326.5,232.5C 328.57,230.036 330.404,227.369 332,224.5C 333.11,222.963 334.61,222.297 336.5,222.5C 336.657,223.873 336.49,225.207 336,226.5C 330.358,229.632 326.858,234.298 325.5,240.5C 328.572,240.183 331.572,240.516 334.5,241.5C 330.838,242.313 327.172,242.979 323.5,243.5 Z"/></g>
<g><path style="opacity:1" fill="#a9a9a9" d="M 154.5,214.5 C 154.5,215.167 154.833,215.5 155.5,215.5C 150.812,223.521 144.479,229.855 136.5,234.5C 137.263,232.632 138.263,230.965 139.5,229.5C 139.435,229.938 139.601,230.272 140,230.5C 146.121,226.218 150.955,220.885 154.5,214.5 Z"/></g>
<g><path style="opacity:1" fill="#7f7f7f" d="M 131.5,220.5 C 131.833,220.5 132.167,220.5 132.5,220.5C 126.181,229.486 121.181,239.152 117.5,249.5C 116.833,250.833 116.167,252.167 115.5,253.5C 114.852,251.914 114.352,250.247 114,248.5C 112.103,250.905 109.936,251.572 107.5,250.5C 108.978,249.552 109.978,248.219 110.5,246.5C 110.517,248.028 111.184,248.528 112.5,248C 114.549,245.407 116.715,242.907 119,240.5C 119.749,239.365 119.583,238.365 118.5,237.5C 116.481,239.19 114.481,240.856 112.5,242.5C 112.5,241.833 112.167,241.5 111.5,241.5C 114.238,238.046 117.738,235.713 122,234.5C 124.639,229.382 127.805,224.715 131.5,220.5 Z"/></g>
<g><path style="opacity:1" fill="#232323" d="M 61.5,225.5 C 63.4684,233.433 64.135,241.766 63.5,250.5C 61.5316,242.567 60.865,234.234 61.5,225.5 Z"/></g>
<g><path style="opacity:1" fill="#525252" d="M 139.5,229.5 C 138.263,230.965 137.263,232.632 136.5,234.5C 132.584,238.675 130.584,243.675 130.5,249.5C 130.158,250.338 129.492,250.672 128.5,250.5C 128.167,250.5 127.833,250.5 127.5,250.5C 127.5,249.167 127.5,247.833 127.5,246.5C 132.389,237.06 137.555,227.727 143,218.5C 145.128,215.37 147.628,212.537 150.5,210C 151.167,209.333 151.833,209.333 152.5,210C 147.536,216.099 143.203,222.599 139.5,229.5 Z"/></g>
<g><path style="opacity:1" fill="#acacac" d="M 60.5,226.5 C 60.5,227.167 60.5,227.833 60.5,228.5C 53.095,235.245 45.7616,241.912 38.5,248.5C 38.2053,246.265 38.5386,244.265 39.5,242.5C 39.3505,243.552 39.5172,244.552 40,245.5C 46.4026,238.593 53.2359,232.26 60.5,226.5 Z"/></g>
<g><path style="opacity:1" fill="#565656" d="M 150.5,246.5 C 150.028,248.531 149.028,250.198 147.5,251.5C 147.421,248.729 147.921,246.063 149,243.5C 151.162,241.18 152.662,238.513 153.5,235.5C 154.575,234.438 155.575,234.438 156.5,235.5C 154.234,239.034 152.234,242.7 150.5,246.5 Z"/></g>
<g><path style="opacity:1" fill="#6c6c6c" d="M 314.5,236.5 C 316.199,236.34 317.866,236.506 319.5,237C 318.944,237.383 318.611,237.883 318.5,238.5C 317.5,238.5 316.5,238.5 315.5,238.5C 314.508,238.672 313.842,238.338 313.5,237.5C 314.167,237.5 314.5,237.167 314.5,236.5 Z"/></g>
<g><path style="opacity:1" fill="#a6a6a6" d="M 86.5,222.5 C 86.5,223.167 86.8333,223.5 87.5,223.5C 78.7858,231.977 70.7858,240.977 63.5,250.5C 64.135,241.766 63.4684,233.433 61.5,225.5C 62.2544,223.554 63.5878,222.721 65.5,223C 64.3526,230.754 64.1859,238.587 65,246.5C 71.6616,238.007 78.8283,230.007 86.5,222.5 Z"/></g>
<g><path style="opacity:1" fill="#454545" d="M 104.5,234.5 C 105.152,235.449 105.486,236.615 105.5,238C 105.392,239.681 104.725,240.848 103.5,241.5C 103.5,239.5 103.5,237.5 103.5,235.5C 103.5,234.833 103.833,234.5 104.5,234.5 Z"/></g>
<g><path style="opacity:1" fill="#555555" d="M 296.5,234.5 C 298.344,236.279 299.01,238.612 298.5,241.5C 298.5,242.167 298.167,242.5 297.5,242.5C 296.612,239.946 296.279,237.279 296.5,234.5 Z"/></g>
<g><path style="opacity:1" fill="#cbcbcb" d="M 326.5,232.5 C 325.601,235.395 324.267,238.062 322.5,240.5C 321.233,242.039 320.233,243.706 319.5,245.5C 319.229,243.179 319.896,241.179 321.5,239.5C 320.675,238.614 319.675,238.281 318.5,238.5C 318.611,237.883 318.944,237.383 319.5,237C 317.866,236.506 316.199,236.34 314.5,236.5C 318.673,235.983 322.673,234.649 326.5,232.5 Z"/></g>
<g><path style="opacity:1" fill="#838383" d="M 148.5,237.5 C 148.938,237.435 149.272,237.601 149.5,238C 147.598,239.73 145.931,241.563 144.5,243.5C 144.672,242.508 144.338,241.842 143.5,241.5C 144.579,239.457 146.246,238.124 148.5,237.5 Z"/></g>
<g><path style="opacity:1" fill="#aeaeae" d="M 166.5,236.5 C 167.151,237.091 167.818,237.757 168.5,238.5C 169.518,237.807 170.518,237.141 171.5,236.5C 171.598,238.553 170.931,240.22 169.5,241.5C 169.44,240.957 169.107,240.624 168.5,240.5C 167.482,241.193 166.482,241.859 165.5,242.5C 165.833,240.5 166.167,238.5 166.5,236.5 Z"/></g>
<g><path style="opacity:1" fill="#888888" d="M 262.5,237.5 C 264.999,237.668 267.999,237.668 271.5,237.5C 268.124,238.099 265.124,239.432 262.5,241.5C 263.354,239.965 263.354,238.632 262.5,237.5 Z"/></g>
<g><path style="opacity:1" fill="#4d4d4d" d="M 61.5,225.5 C 60.865,234.234 61.5316,242.567 63.5,250.5C 62.791,251.404 61.791,251.737 60.5,251.5C 60.5,243.833 60.5,236.167 60.5,228.5C 60.5,227.833 60.5,227.167 60.5,226.5C 60.5,225.833 60.8333,225.5 61.5,225.5 Z"/></g>
<g><path style="opacity:1" fill="#e3e3e3" d="M 86.5,235.5 C 86.5,237.5 86.5,239.5 86.5,241.5C 84.6459,244.51 82.3126,247.176 79.5,249.5C 78.6143,248.675 78.281,247.675 78.5,246.5C 79.0507,243.733 80.3841,241.4 82.5,239.5C 82.3764,238.893 82.0431,238.56 81.5,238.5C 82.7682,236.953 84.4348,235.953 86.5,235.5 Z"/></g>
<g><path style="opacity:1" fill="#4f4f4f" d="M 89.5,235.5 C 89.0603,237.844 88.0603,239.844 86.5,241.5C 86.5,239.5 86.5,237.5 86.5,235.5C 87.5,234.167 88.5,234.167 89.5,235.5 Z"/></g>
<g><path style="opacity:1" fill="#e4e4e4" d="M 103.5,235.5 C 103.5,237.5 103.5,239.5 103.5,241.5C 101.646,244.51 99.3126,247.176 96.5,249.5C 95.6143,248.675 95.281,247.675 95.5,246.5C 96.0507,243.733 97.3841,241.4 99.5,239.5C 99.3764,238.893 99.0431,238.56 98.5,238.5C 99.7682,236.953 101.435,235.953 103.5,235.5 Z"/></g>
<g><path style="opacity:1" fill="#585858" d="M 166.5,236.5 C 166.167,238.5 165.833,240.5 165.5,242.5C 163.478,244.531 161.811,246.865 160.5,249.5C 159.957,249.44 159.624,249.107 159.5,248.5C 160.456,246.925 161.123,245.258 161.5,243.5C 162.419,240.673 164.086,238.34 166.5,236.5 Z"/></g>
<g><path style="opacity:1" fill="#b1b1b1" d="M 306.5,236.5 C 307.568,235.566 308.901,235.232 310.5,235.5C 310.402,238.248 311.402,238.914 313.5,237.5C 313.842,238.338 314.508,238.672 315.5,238.5C 313.209,239.765 310.875,241.098 308.5,242.5C 308.833,240.5 309.167,238.5 309.5,236.5C 308.5,236.5 307.5,236.5 306.5,236.5 Z"/></g>
<g><path style="opacity:1" fill="#b4b4b4" d="M 371.5,236.5 C 372.222,236.918 372.722,237.584 373,238.5C 373.671,237.748 374.504,237.414 375.5,237.5C 375.737,238.791 375.404,239.791 374.5,240.5C 374.565,240.062 374.399,239.728 374,239.5C 372.629,241.041 371.129,242.375 369.5,243.5C 369.878,241.079 370.545,238.746 371.5,236.5 Z"/></g>
<g><path style="opacity:1" fill="#969696" d="M 385.5,248.5 C 384.833,247.167 384.167,245.833 383.5,244.5C 385.104,238.358 389.104,235.691 395.5,236.5C 395.5,237.833 395.5,239.167 395.5,240.5C 393.8,240.374 392.3,239.707 391,238.5C 387.03,240.516 385.197,243.85 385.5,248.5 Z"/></g>
<g><path style="opacity:1" fill="#a3a3a3" d="M 238.5,221.5 C 238.768,223.099 238.434,224.432 237.5,225.5C 237.103,224.475 236.437,224.308 235.5,225C 231.5,228.667 227.5,232.333 223.5,236C 227.486,236.499 231.486,236.666 235.5,236.5C 235.263,235.209 235.596,234.209 236.5,233.5C 236.747,235.858 236.081,237.858 234.5,239.5C 227.566,237.41 221.232,238.41 215.5,242.5C 215.167,242.5 214.833,242.5 214.5,242.5C 221.882,234.784 229.882,227.784 238.5,221.5 Z"/></g>
<g><path style="opacity:1" fill="#646464" d="M 373.5,247.5 C 372.209,248.542 372.209,249.708 373.5,251C 372.552,251.483 371.552,251.649 370.5,251.5C 370.984,247.53 372.317,243.864 374.5,240.5C 375.404,239.791 375.737,238.791 375.5,237.5C 376.427,235.524 377.76,235.191 379.5,236.5C 377.221,240.061 375.221,243.727 373.5,247.5 Z"/></g>
<g><path style="opacity:1" fill="#444444" d="M 98.5,238.5 C 99.0431,238.56 99.3764,238.893 99.5,239.5C 97.3841,241.4 96.0507,243.733 95.5,246.5C 94.9779,248.219 93.9779,249.552 92.5,250.5C 92.5,248.833 92.5,247.167 92.5,245.5C 93.3446,244.329 94.0113,242.995 94.5,241.5C 95.8333,240.5 97.1667,239.5 98.5,238.5 Z"/></g>
<g><path style="opacity:1" fill="#dedede" d="M 153.5,235.5 C 152.662,238.513 151.162,241.18 149,243.5C 147.921,246.063 147.421,248.729 147.5,251.5C 146.849,250.909 146.182,250.243 145.5,249.5C 144.482,250.193 143.482,250.859 142.5,251.5C 142.107,248.487 142.774,245.82 144.5,243.5C 145.931,241.563 147.598,239.73 149.5,238C 149.272,237.601 148.938,237.435 148.5,237.5C 149.635,235.787 151.302,235.12 153.5,235.5 Z"/></g>
<g><path style="opacity:1" fill="#e7e7e7" d="M 277.5,244.5 C 275.809,245.864 274.142,247.197 272.5,248.5C 271.761,248.631 271.094,248.464 270.5,248C 272.35,244.638 274.683,241.638 277.5,239C 278.483,238.409 279.15,238.743 279.5,240C 278.956,241.585 278.289,243.085 277.5,244.5 Z"/></g>
<g><path style="opacity:1" fill="#e9e9e9" d="M 110.5,246.5 C 111.167,245.167 111.833,243.833 112.5,242.5C 114.481,240.856 116.481,239.19 118.5,237.5C 119.583,238.365 119.749,239.365 119,240.5C 116.715,242.907 114.549,245.407 112.5,248C 111.184,248.528 110.517,248.028 110.5,246.5 Z"/></g>
<g><path style="opacity:1" fill="#515151" d="M 143.5,241.5 C 144.338,241.842 144.672,242.508 144.5,243.5C 142.774,245.82 142.107,248.487 142.5,251.5C 141.209,251.737 140.209,251.404 139.5,250.5C 139.5,249.167 139.5,247.833 139.5,246.5C 140.864,244.809 142.197,243.142 143.5,241.5 Z"/></g>
<g><path style="opacity:1" fill="#a0a0a0" d="M 305.5,240.5 C 305.598,242.553 304.931,244.22 303.5,245.5C 301.844,243.94 299.844,242.94 297.5,242.5C 298.167,242.5 298.5,242.167 298.5,241.5C 301.083,242.938 303.417,242.604 305.5,240.5 Z"/></g>
<g><path style="opacity:1" fill="#444444" d="M 306.5,236.5 C 307.5,236.5 308.5,236.5 309.5,236.5C 309.167,238.5 308.833,240.5 308.5,242.5C 306.509,245.137 304.509,247.804 302.5,250.5C 301.799,248.808 302.133,247.142 303.5,245.5C 304.931,244.22 305.598,242.553 305.5,240.5C 306.234,239.292 306.567,237.959 306.5,236.5 Z"/></g>
<g><path style="opacity:1" fill="#656565" d="M 168.5,249.5 C 168.5,250.833 167.833,251.5 166.5,251.5C 165.402,250.399 165.235,249.066 166,247.5C 167.394,245.612 168.56,243.612 169.5,241.5C 170.931,240.22 171.598,238.553 171.5,236.5C 172.824,235.15 173.824,235.317 174.5,237C 171.561,240.711 169.561,244.878 168.5,249.5 Z"/></g>
<g><path style="opacity:1" fill="#252525" d="M 241.5,222.5 C 239.857,228.359 238.857,234.359 238.5,240.5C 237.521,243.625 237.187,246.958 237.5,250.5C 236.5,250.5 235.5,250.5 234.5,250.5C 234.5,248.167 234.5,245.833 234.5,243.5C 235.833,242.167 235.833,240.833 234.5,239.5C 236.081,237.858 236.747,235.858 236.5,233.5C 236.575,230.794 236.908,228.127 237.5,225.5C 238.434,224.432 238.768,223.099 238.5,221.5C 239.496,221.586 240.329,221.252 241,220.5C 241.464,221.094 241.631,221.761 241.5,222.5 Z"/></g>
<g><path style="opacity:1" fill="#505050" d="M 262.5,237.5 C 263.354,238.632 263.354,239.965 262.5,241.5C 260.526,244.482 258.526,247.482 256.5,250.5C 255.702,250.043 255.369,249.376 255.5,248.5C 256.674,247.486 257.34,246.153 257.5,244.5C 258.934,241.953 260.6,239.619 262.5,237.5 Z"/></g>
<g><path style="opacity:1" fill="#484848" d="M 287.5,249.5 C 287.5,250.167 287.5,250.833 287.5,251.5C 286.209,251.737 285.209,251.404 284.5,250.5C 284.674,248.139 285.007,245.806 285.5,243.5C 287.033,241.645 288.7,239.812 290.5,238C 291.332,237.312 291.998,237.479 292.5,238.5C 289.47,241.559 287.803,245.226 287.5,249.5 Z"/></g>
<g><path style="opacity:1" fill="#464646" d="M 322.5,240.5 C 324.481,241.105 324.815,242.105 323.5,243.5C 321.777,245.78 321.111,248.447 321.5,251.5C 320.5,251.5 319.5,251.5 318.5,251.5C 318.325,249.379 318.659,247.379 319.5,245.5C 320.233,243.706 321.233,242.039 322.5,240.5 Z"/></g>
<g><path style="opacity:1" fill="#383838" d="M 369.5,222.5 C 363.984,231.686 358.317,240.853 352.5,250C 351.365,250.749 350.365,250.583 349.5,249.5C 354.925,241.411 359.925,233.078 364.5,224.5C 365.404,223.791 365.737,222.791 365.5,221.5C 367.099,221.232 368.432,221.566 369.5,222.5 Z"/></g>
<g><path style="opacity:1" fill="#282828" d="M 45.5,223.5 C 43.6428,229.945 41.6428,236.278 39.5,242.5C 38.5386,244.265 38.2053,246.265 38.5,248.5C 38.1667,249.5 37.5,250.167 36.5,250.5C 34.9519,250.179 34.2852,249.179 34.5,247.5C 36.6739,240.481 39.0072,233.481 41.5,226.5C 42.4345,225.432 42.7678,224.099 42.5,222.5C 43.791,222.263 44.791,222.596 45.5,223.5 Z"/></g>
<g><path style="opacity:1" fill="#454545" d="M 248.5,249.5 C 247.791,250.404 246.791,250.737 245.5,250.5C 244.402,249.399 244.235,248.066 245,246.5C 246.931,242.96 249.098,239.626 251.5,236.5C 251.833,236.833 252.167,237.167 252.5,237.5C 249.289,241.17 247.956,245.17 248.5,249.5 Z"/></g>
<g><path style="opacity:1" fill="#9e9e9e" d="M 89.5,235.5 C 89.5,237.5 89.5,239.5 89.5,241.5C 91.1667,241.5 92.8333,241.5 94.5,241.5C 94.0113,242.995 93.3446,244.329 92.5,245.5C 90.8113,244.696 89.1446,243.696 87.5,242.5C 85.4093,246.926 82.076,249.926 77.5,251.5C 76.5836,251.457 75.9169,251.124 75.5,250.5C 76.9779,249.552 77.9779,248.219 78.5,246.5C 78.281,247.675 78.6143,248.675 79.5,249.5C 82.3126,247.176 84.6459,244.51 86.5,241.5C 88.0603,239.844 89.0603,237.844 89.5,235.5 Z"/></g>
<g><path style="opacity:1" fill="#a0a0a0" d="M 296.5,234.5 C 296.279,237.279 296.612,239.946 297.5,242.5C 295.364,244.812 293.364,247.312 291.5,250C 290.255,250.791 288.922,251.291 287.5,251.5C 287.5,250.833 287.5,250.167 287.5,249.5C 290.764,248.073 293.264,245.739 295,242.5C 295.183,239.635 295.683,236.969 296.5,234.5 Z"/></g>
<g><path style="opacity:1" fill="#373737" d="M 383.5,244.5 C 384.167,245.833 384.833,247.167 385.5,248.5C 385.5,248.833 385.5,249.167 385.5,249.5C 385.158,250.338 384.492,250.672 383.5,250.5C 382.833,250.5 382.5,250.167 382.5,249.5C 382.5,248.167 382.5,246.833 382.5,245.5C 382.5,244.833 382.833,244.5 383.5,244.5 Z"/></g>
<g><path style="opacity:1" fill="#383838" d="M 81.5,238.5 C 82.0431,238.56 82.3764,238.893 82.5,239.5C 80.3841,241.4 79.0507,243.733 78.5,246.5C 77.9779,248.219 76.9779,249.552 75.5,250.5C 75.4197,245.379 77.4197,241.379 81.5,238.5 Z"/></g>
<g><path style="opacity:1" fill="#aaaaaa" d="M 139.5,246.5 C 139.5,247.833 139.5,249.167 139.5,250.5C 135.818,250.954 132.152,250.954 128.5,250.5C 129.492,250.672 130.158,250.338 130.5,249.5C 133.817,249.336 136.817,248.336 139.5,246.5 Z"/></g>
<g><path style="opacity:1" fill="#444444" d="M 179.5,246.5 C 178.566,247.568 178.232,248.901 178.5,250.5C 177.5,250.5 176.5,250.5 175.5,250.5C 175.5,250.167 175.5,249.833 175.5,249.5C 175.5,248.833 175.5,248.167 175.5,247.5C 176.823,244.001 179.157,241.835 182.5,241C 181.242,242.741 180.242,244.574 179.5,246.5 Z"/></g>
<g><path style="opacity:1" fill="#6e6e6e" d="M 214.5,242.5 C 214.833,242.5 215.167,242.5 215.5,242.5C 211.843,246.484 208.676,250.817 206,255.5C 205.333,253.833 205.333,252.167 206,250.5C 208.703,247.629 211.536,244.962 214.5,242.5 Z"/></g>
<g><path style="opacity:1" fill="#acacac" d="M 383.5,250.5 C 384.492,250.672 385.158,250.338 385.5,249.5C 390.869,248.556 395.369,245.889 399,241.5C 396.252,248.787 391.086,251.787 383.5,250.5 Z"/></g>
<g><path style="opacity:1" fill="#a3a3a3" d="M 185.5,243.5 C 185.598,245.553 184.931,247.22 183.5,248.5C 183.565,248.062 183.399,247.728 183,247.5C 181.833,248.667 180.667,249.833 179.5,251C 177.934,251.765 176.601,251.598 175.5,250.5C 176.5,250.5 177.5,250.5 178.5,250.5C 178.232,248.901 178.566,247.568 179.5,246.5C 179.369,247.239 179.536,247.906 180,248.5C 181.704,246.627 183.537,244.96 185.5,243.5 Z"/></g>
<g><path style="opacity:1" fill="#a8a8a8" d="M 257.5,244.5 C 257.34,246.153 256.674,247.486 255.5,248.5C 253.04,249.878 250.374,250.878 247.5,251.5C 246.584,251.457 245.917,251.124 245.5,250.5C 246.791,250.737 247.791,250.404 248.5,249.5C 251.711,248.307 254.711,246.641 257.5,244.5 Z"/></g>
<g><path style="opacity:1" fill="#a8a8a8" d="M 285.5,243.5 C 285.007,245.806 284.674,248.139 284.5,250.5C 283.842,249.602 283.176,248.602 282.5,247.5C 279.686,249.105 276.686,250.105 273.5,250.5C 273.672,249.508 273.338,248.842 272.5,248.5C 274.142,247.197 275.809,245.864 277.5,244.5C 277.833,244.5 278.167,244.5 278.5,244.5C 277.71,245.794 276.71,246.961 275.5,248C 279.132,247.354 282.465,245.854 285.5,243.5 Z"/></g>
<g><path style="opacity:1" fill="#646464" d="M 371.5,236.5 C 370.545,238.746 369.878,241.079 369.5,243.5C 367.61,245.59 365.943,247.923 364.5,250.5C 364.167,250 363.833,249.5 363.5,249C 365.62,245.261 367.62,241.428 369.5,237.5C 369.957,236.702 370.624,236.369 371.5,236.5 Z"/></g>
<g><path style="opacity:1" fill="#2f2f2f" d="M 400.5,247.5 C 403.957,247.667 404.29,248.667 401.5,250.5C 400.614,249.675 400.281,248.675 400.5,247.5 Z"/></g>
<g><path style="opacity:1" fill="#333333" d="M 111.5,241.5 C 112.167,241.5 112.5,241.833 112.5,242.5C 111.833,243.833 111.167,245.167 110.5,246.5C 109.978,248.219 108.978,249.552 107.5,250.5C 107.366,248.708 107.699,247.042 108.5,245.5C 109.401,244.71 110.068,243.71 110.5,242.5C 111.167,242.5 111.5,242.167 111.5,241.5 Z"/></g>
<g><path style="opacity:1" fill="#b5b5b5" d="M 175.5,247.5 C 175.5,248.167 175.5,248.833 175.5,249.5C 173.177,250.778 170.677,251.778 168,252.5C 167.235,252.43 166.735,252.097 166.5,251.5C 167.833,251.5 168.5,250.833 168.5,249.5C 171.079,249.606 173.412,248.939 175.5,247.5 Z"/></g>
<g><path style="opacity:1" fill="#656565" d="M 195.5,226.5 C 196.167,226.5 196.5,226.833 196.5,227.5C 193.331,233.171 190.165,238.838 187,244.5C 185.851,247.393 185.351,250.393 185.5,253.5C 185.167,253.5 184.833,253.5 184.5,253.5C 183.549,252.081 183.216,250.415 183.5,248.5C 184.931,247.22 185.598,245.553 185.5,243.5C 188.568,237.701 191.901,232.034 195.5,226.5 Z"/></g>
<g><path style="opacity:1" fill="#bcbcbc" d="M 238.5,240.5 C 238.5,243.167 238.5,245.833 238.5,248.5C 239.675,248.281 240.675,248.614 241.5,249.5C 239.142,251.287 236.475,252.287 233.5,252.5C 233.19,249.287 233.523,246.287 234.5,243.5C 234.5,245.833 234.5,248.167 234.5,250.5C 235.5,250.5 236.5,250.5 237.5,250.5C 237.187,246.958 237.521,243.625 238.5,240.5 Z"/></g>
<g><path style="opacity:1" fill="#9c9c9c" d="M 104.5,234.5 C 104.56,233.957 104.893,233.624 105.5,233.5C 106.318,236.107 106.818,238.774 107,241.5C 108.011,242.337 109.178,242.67 110.5,242.5C 110.068,243.71 109.401,244.71 108.5,245.5C 107.816,243.815 106.483,242.815 104.5,242.5C 102.409,246.926 99.076,249.926 94.5,251.5C 93.5836,251.457 92.9169,251.124 92.5,250.5C 93.9779,249.552 94.9779,248.219 95.5,246.5C 95.281,247.675 95.6143,248.675 96.5,249.5C 99.3126,247.176 101.646,244.51 103.5,241.5C 104.725,240.848 105.392,239.681 105.5,238C 105.486,236.615 105.152,235.449 104.5,234.5 Z"/></g>
<g><path style="opacity:1" fill="#9f9f9f" d="M 161.5,243.5 C 161.123,245.258 160.456,246.925 159.5,248.5C 159.624,249.107 159.957,249.44 160.5,249.5C 157.223,249.754 153.889,250.754 150.5,252.5C 149.274,252.48 148.274,252.147 147.5,251.5C 149.028,250.198 150.028,248.531 150.5,246.5C 150.5,247.833 150.5,249.167 150.5,250.5C 152.308,250.509 153.975,250.009 155.5,249C 157.37,246.96 159.37,245.127 161.5,243.5 Z"/></g>
<g><path style="opacity:1" fill="#a9a9a9" d="M 184.5,253.5 C 184.833,253.5 185.167,253.5 185.5,253.5C 187.655,253.628 189.655,253.128 191.5,252C 194.026,248.974 196.36,245.807 198.5,242.5C 197.604,248.764 193.937,253.097 187.5,255.5C 185.962,255.547 184.962,254.88 184.5,253.5 Z"/></g>
<g><path style="opacity:1" fill="#b2b2b2" d="M 382.5,245.5 C 382.5,246.833 382.5,248.167 382.5,249.5C 381.883,249.389 381.383,249.056 381,248.5C 377.728,251.27 374.228,252.27 370.5,251.5C 371.552,251.649 372.552,251.483 373.5,251C 372.209,249.708 372.209,248.542 373.5,247.5C 373.62,248.586 374.287,249.253 375.5,249.5C 377.827,248.177 380.16,246.843 382.5,245.5 Z"/></g>
<g><path style="opacity:1" fill="#8e8e8e" d="M 34.5,247.5 C 34.2852,249.179 34.9519,250.179 36.5,250.5C 35.171,252.377 33.8377,252.544 32.5,251C 32.8082,249.541 33.4749,248.374 34.5,247.5 Z"/></g>
<g><path style="opacity:1" fill="#acacac" d="M 127.5,246.5 C 127.5,247.833 127.5,249.167 127.5,250.5C 124.457,253.752 120.791,255.252 116.5,255C 115.944,254.617 115.611,254.117 115.5,253.5C 116.167,252.167 116.833,250.833 117.5,249.5C 117.5,250.833 117.5,252.167 117.5,253.5C 121.906,252.77 125.239,250.437 127.5,246.5 Z"/></g>
<g><path style="opacity:1" fill="#737373" d="M 339.5,244.5 C 341.225,244.843 341.725,245.843 341,247.5C 336.957,251.375 333.123,255.375 329.5,259.5C 328.479,258.998 328.312,258.332 329,257.5C 332.713,253.292 336.213,248.959 339.5,244.5 Z"/></g>
<g><path style="opacity:1" fill="#838383" d="M 282.5,239.5 C 281.54,241.461 280.207,243.127 278.5,244.5C 278.167,244.5 277.833,244.5 277.5,244.5C 278.289,243.085 278.956,241.585 279.5,240C 279.15,238.743 278.483,238.409 277.5,239C 274.683,241.638 272.35,244.638 270.5,248C 271.094,248.464 271.761,248.631 272.5,248.5C 273.338,248.842 273.672,249.508 273.5,250.5C 271.278,250.178 269.444,250.845 268,252.5C 264.806,258.229 261.639,263.896 258.5,269.5C 258.5,268.833 258.167,268.5 257.5,268.5C 264.111,255.958 271.278,243.625 279,231.5C 280.183,230.269 281.349,230.269 282.5,231.5C 278.2,234.082 278.533,235.416 283.5,235.5C 283.768,237.099 283.434,238.432 282.5,239.5 Z"/></g>
<g><path style="opacity:1" fill="#2b2b2b" d="M 282.5,239.5 C 281.883,239.611 281.383,239.944 281,240.5C 278.816,237.666 279.316,236.332 282.5,236.5C 282.5,237.5 282.5,238.5 282.5,239.5 Z"/></g>
<g><path style="opacity:1" fill="#f5f5f5" d="M 293.5,270.5 C 292.833,271.833 292.167,273.167 291.5,274.5C 289.236,275.219 286.903,275.552 284.5,275.5C 285.167,270.167 288.167,267.167 293.5,266.5C 293.5,267.833 293.5,269.167 293.5,270.5 Z"/></g>
<g><path style="opacity:1" fill="#f3f3f3" d="M 324.5,266.5 C 325.124,266.917 325.457,267.584 325.5,268.5C 324.813,270.177 324.146,271.844 323.5,273.5C 321.008,275.4 318.342,275.733 315.5,274.5C 317.308,270.351 320.308,267.685 324.5,266.5 Z"/></g>
<g><path style="opacity:1" fill="#b6b6b6" d="M 326.5,265.5 C 325.508,265.328 324.842,265.662 324.5,266.5C 320.308,267.685 317.308,270.351 315.5,274.5C 318.342,275.733 321.008,275.4 323.5,273.5C 323.346,275.97 322.346,277.97 320.5,279.5C 319.159,277.88 317.326,276.88 315,276.5C 314.149,271.042 316.315,267.209 321.5,265C 323.387,264.22 325.054,264.387 326.5,265.5 Z"/></g>
<g><path style="opacity:1" fill="#747474" d="M 295.5,266.5 C 296.328,271.256 294.995,275.59 291.5,279.5C 290.833,279.5 290.5,279.167 290.5,278.5C 290.5,278.167 290.5,277.833 290.5,277.5C 291.404,276.791 291.737,275.791 291.5,274.5C 292.167,273.167 292.833,271.833 293.5,270.5C 294.167,269.167 294.833,267.833 295.5,266.5 Z"/></g>
<g><path style="opacity:1" fill="#bebebe" d="M 179.5,267.5 C 179.158,266.662 178.492,266.328 177.5,266.5C 177.918,265.778 178.584,265.278 179.5,265C 182.5,264.333 185.5,264.333 188.5,265C 191.891,266.882 192.224,269.049 189.5,271.5C 188.756,270.009 188.09,268.509 187.5,267C 184.739,266.278 182.073,266.445 179.5,267.5 Z"/></g>
<g><path style="opacity:1" fill="#d0d0d0" d="M 277.5,266.5 C 277.002,269.326 275.669,271.66 273.5,273.5C 273.631,272.624 273.298,271.957 272.5,271.5C 270.831,272.89 269.164,273.223 267.5,272.5C 270.589,270.075 273.922,268.075 277.5,266.5 Z"/></g>
<g><path style="opacity:1" fill="#b1b1b1" d="M 295.5,266.5 C 294.833,267.833 294.167,269.167 293.5,270.5C 293.5,269.167 293.5,267.833 293.5,266.5C 288.167,267.167 285.167,270.167 284.5,275.5C 286.903,275.552 289.236,275.219 291.5,274.5C 291.737,275.791 291.404,276.791 290.5,277.5C 288.46,277.436 286.127,277.269 283.5,277C 283.044,270.416 286.211,266.249 293,264.5C 294.376,264.684 295.209,265.351 295.5,266.5 Z"/></g>
<g><path style="opacity:1" fill="#dadada" d="M 308.5,266.5 C 307.018,270.129 305.018,273.462 302.5,276.5C 302.5,275.5 302.5,274.5 302.5,273.5C 301.022,273.762 299.689,273.429 298.5,272.5C 301.589,270.075 304.922,268.075 308.5,266.5 Z"/></g>
<g><path style="opacity:1" fill="#808080" d="M 302.5,276.5 C 305.018,273.462 307.018,270.129 308.5,266.5C 309.575,265.438 310.575,265.438 311.5,266.5C 306.45,273.267 302.45,280.601 299.5,288.5C 298.359,286.579 298.192,284.579 299,282.5C 300.394,280.612 301.56,278.612 302.5,276.5 Z"/></g>
<g><path style="opacity:1" fill="#7d7d7d" d="M 324.5,266.5 C 324.842,265.662 325.508,265.328 326.5,265.5C 327.158,272.86 324.492,278.86 318.5,283.5C 318.5,283.167 318.5,282.833 318.5,282.5C 319.167,281.5 319.833,280.5 320.5,279.5C 322.346,277.97 323.346,275.97 323.5,273.5C 324.146,271.844 324.813,270.177 325.5,268.5C 325.457,267.584 325.124,266.917 324.5,266.5 Z"/></g>
<g><path style="opacity:1" fill="#494949" d="M 257.5,268.5 C 258.167,268.5 258.5,268.833 258.5,269.5C 256.68,273.14 254.847,276.807 253,280.5C 251.871,282.141 250.371,283.141 248.5,283.5C 247.833,283.5 247.5,283.167 247.5,282.5C 251.324,278.186 254.657,273.519 257.5,268.5 Z"/></g>
<g><path style="opacity:1" fill="#777777" d="M 177.5,266.5 C 178.492,266.328 179.158,266.662 179.5,267.5C 175.689,269.436 173.022,272.436 171.5,276.5C 170.018,279.688 169.018,283.021 168.5,286.5C 166.543,277.738 169.543,271.071 177.5,266.5 Z"/></g>
<g><path style="opacity:1" fill="#8a8a8a" d="M 224.5,288.5 C 224.5,286.833 224.5,285.167 224.5,283.5C 226.159,280.852 227.826,278.185 229.5,275.5C 229.833,275.833 230.167,276.167 230.5,276.5C 227.948,280.34 225.948,284.34 224.5,288.5 Z"/></g>
<g><path style="opacity:1" fill="#838383" d="M 193.5,277.5 C 194.376,277.369 195.043,277.702 195.5,278.5C 193.432,281.157 192.099,284.157 191.5,287.5C 191.167,286.667 190.833,285.833 190.5,285C 191.593,282.558 192.593,280.058 193.5,277.5 Z"/></g>
<g><path style="opacity:1" fill="#8c8c8c" d="M 204.5,277.5 C 204.5,278.167 204.5,278.833 204.5,279.5C 202.526,281.428 201.026,283.761 200,286.5C 199.282,287.451 198.449,287.617 197.5,287C 199.193,283.784 201.027,280.617 203,277.5C 203.69,276.262 204.19,276.262 204.5,277.5 Z"/></g>
<g><path style="opacity:1" fill="#898989" d="M 221.5,283.5 C 220.143,284.59 219.143,285.924 218.5,287.5C 217.833,287.5 217.5,287.167 217.5,286.5C 218.11,285.609 218.443,284.609 218.5,283.5C 220.202,280.605 222.536,278.772 225.5,278C 223.561,279.432 222.228,281.265 221.5,283.5 Z"/></g>
<g><path style="opacity:1" fill="#a2a2a2" d="M 247.5,282.5 C 247.5,283.167 247.833,283.5 248.5,283.5C 246.956,284.914 245.289,285.247 243.5,284.5C 244.766,283.638 246.099,282.971 247.5,282.5 Z"/></g>
<g><path style="opacity:1" fill="#b8b8b8" d="M 318.5,282.5 C 318.5,282.833 318.5,283.167 318.5,283.5C 315.488,287.502 311.488,289.002 306.5,288C 311.161,287.501 315.161,285.668 318.5,282.5 Z"/></g>
<g><path style="opacity:1" fill="#c8c8c8" d="M 221.5,283.5 C 221.369,284.239 221.536,284.906 222,285.5C 222.708,284.619 223.542,283.953 224.5,283.5C 224.5,285.167 224.5,286.833 224.5,288.5C 223.288,286.446 221.621,286.446 219.5,288.5C 218.893,288.376 218.56,288.043 218.5,287.5C 219.143,285.924 220.143,284.59 221.5,283.5 Z"/></g>
<g><path style="opacity:1" fill="#7e7e7e" d="M 273.5,273.5 C 275.669,271.66 277.002,269.326 277.5,266.5C 278.575,265.438 279.575,265.438 280.5,266.5C 275.844,273.48 272.011,280.814 269,288.5C 267.56,287.07 267.226,285.403 268,283.5C 269.592,279.979 271.425,276.646 273.5,273.5 Z"/></g>
<g><path style="opacity:1" fill="#c3c3c3" d="M 218.5,283.5 C 218.443,284.609 218.11,285.609 217.5,286.5C 209.666,290.677 206.666,288.343 208.5,279.5C 207.167,279.5 205.833,279.5 204.5,279.5C 204.5,278.833 204.5,278.167 204.5,277.5C 208.868,277.024 213.201,276.69 217.5,276.5C 217.911,279.276 217.078,279.943 215,278.5C 211.703,280.089 210.203,282.755 210.5,286.5C 213.535,286.461 216.202,285.461 218.5,283.5 Z"/></g>
<g><path style="opacity:1" fill="#bbbbbb" d="M 290.5,278.5 C 290.5,279.167 290.833,279.5 291.5,279.5C 287.455,285.933 281.788,288.599 274.5,287.5C 281.34,287.082 286.674,284.082 290.5,278.5 Z"/></g>
<g><path style="opacity:1" fill="#bfbfbf" d="M 171.5,276.5 C 170.534,280.065 170.534,283.565 171.5,287C 178.251,287.959 183.584,285.625 187.5,280C 188.332,279.312 188.998,279.479 189.5,280.5C 183.904,288.164 176.904,290.164 168.5,286.5C 169.018,283.021 170.018,279.688 171.5,276.5 Z"/></g>
</svg>
