<?xml version="1.0" encoding="UTF-8"?>
<!DOCTYPE svg PUBLIC "-//W3C//DTD SVG 1.1//EN" "http://www.w3.org/Graphics/SVG/1.1/DTD/svg11.dtd">
<svg xmlns="http://www.w3.org/2000/svg" version="1.1" width="438px" height="438px" style="shape-rendering:geometricPrecision; text-rendering:geometricPrecision; image-rendering:optimizeQuality; fill-rule:evenodd; clip-rule:evenodd" xmlns:xlink="http://www.w3.org/1999/xlink">
<g><path style="opacity:1" fill="#fefefe" d="M -0.5,-0.5 C 145.5,-0.5 291.5,-0.5 437.5,-0.5C 437.5,145.5 437.5,291.5 437.5,437.5C 291.5,437.5 145.5,437.5 -0.5,437.5C -0.5,291.5 -0.5,145.5 -0.5,-0.5 Z"/></g>
<g><path style="opacity:1" fill="#777777" d="M 293.5,123.5 C 298.179,123.334 302.845,123.501 307.5,124C 308.811,126.274 308.811,128.44 307.5,130.5C 307.739,128.533 307.406,126.699 306.5,125C 301.472,124.412 296.472,124.578 291.5,125.5C 292.167,124.833 292.833,124.167 293.5,123.5 Z"/></g>
<g><path style="opacity:1" fill="#c5c5c5" d="M 293.5,123.5 C 292.833,124.167 292.167,124.833 291.5,125.5C 289.033,125.755 287.033,126.755 285.5,128.5C 284.292,129.234 282.959,129.567 281.5,129.5C 279.973,129.427 278.973,130.094 278.5,131.5C 275.688,133.408 272.688,135.075 269.5,136.5C 271.981,134.308 274.481,131.975 277,129.5C 282.36,126.992 287.86,124.992 293.5,123.5 Z"/></g>
<g><path style="opacity:1" fill="#1e1e1e" d="M 290.5,129.5 C 287.008,130.41 284.008,132.076 281.5,134.5C 279.973,134.427 278.973,135.094 278.5,136.5C 276.973,136.427 275.973,137.094 275.5,138.5C 275.167,138.5 274.833,138.5 274.5,138.5C 274.53,137.503 274.03,136.836 273,136.5C 271.862,136.989 270.695,137.322 269.5,137.5C 269.5,137.167 269.5,136.833 269.5,136.5C 272.688,135.075 275.688,133.408 278.5,131.5C 280.027,131.573 281.027,130.906 281.5,129.5C 282.959,129.567 284.292,129.234 285.5,128.5C 286.695,128.322 287.862,127.989 289,127.5C 290.03,127.836 290.53,128.503 290.5,129.5 Z"/></g>
<g><path style="opacity:1" fill="#f5f5f5" d="M 299.5,136.5 C 295.452,139.881 291.785,143.548 288.5,147.5C 287.833,147.5 287.5,147.833 287.5,148.5C 283.637,149.694 280.637,152.027 278.5,155.5C 276.147,156.34 274.147,157.674 272.5,159.5C 270.246,160.124 268.579,161.457 267.5,163.5C 258.943,167.747 250.943,172.747 243.5,178.5C 241.973,178.427 240.973,179.094 240.5,180.5C 237.833,181.833 235.167,183.167 232.5,184.5C 230.973,184.427 229.973,185.094 229.5,186.5C 227.589,187.075 225.922,188.075 224.5,189.5C 223.761,189.631 223.094,189.464 222.5,189C 226.112,185.59 229.112,181.756 231.5,177.5C 245.598,163.728 260.264,150.728 275.5,138.5C 277.027,138.573 278.027,137.906 278.5,136.5C 280.027,136.573 281.027,135.906 281.5,134.5C 286.742,132.879 291.742,130.712 296.5,128C 298.81,127.503 301.143,127.337 303.5,127.5C 302.962,130.905 301.629,133.905 299.5,136.5 Z"/></g>
<g><path style="opacity:1" fill="#747474" d="M 281.5,129.5 C 281.027,130.906 280.027,131.573 278.5,131.5C 278.973,130.094 279.973,129.427 281.5,129.5 Z"/></g>
<g><path style="opacity:1" fill="#979797" d="M 299.5,136.5 C 301.629,133.905 302.962,130.905 303.5,127.5C 301.143,127.337 298.81,127.503 296.5,128C 291.742,130.712 286.742,132.879 281.5,134.5C 284.008,132.076 287.008,130.41 290.5,129.5C 294.733,126.91 299.4,125.91 304.5,126.5C 304.944,130.946 303.277,134.279 299.5,136.5 Z"/></g>
<g><path style="opacity:1" fill="#c7c7c7" d="M 203.5,131.5 C 207.182,131.335 210.848,131.501 214.5,132C 218.292,134.053 219.458,137.219 218,141.5C 215.6,145.402 212.434,148.402 208.5,150.5C 211.498,147.333 214.331,144 217,140.5C 217.941,138.011 217.441,136.011 215.5,134.5C 211.03,133.514 206.363,133.181 201.5,133.5C 202.167,132.833 202.833,132.167 203.5,131.5 Z"/></g>
<g><path style="opacity:1" fill="#636363" d="M 201.5,133.5 C 206.363,133.181 211.03,133.514 215.5,134.5C 209.974,134.179 204.64,134.512 199.5,135.5C 198.833,135.5 198.167,135.5 197.5,135.5C 198.287,133.896 199.62,133.229 201.5,133.5 Z"/></g>
<g><path style="opacity:1" fill="#e2e2e2" d="M 203.5,131.5 C 202.833,132.167 202.167,132.833 201.5,133.5C 199.62,133.229 198.287,133.896 197.5,135.5C 194.423,135.179 192.09,136.179 190.5,138.5C 189.209,138.263 188.209,138.596 187.5,139.5C 186.5,139.5 185.5,139.5 184.5,139.5C 186.023,137.718 188.023,136.385 190.5,135.5C 194.844,134.144 199.178,132.811 203.5,131.5 Z"/></g>
<g><path style="opacity:1" fill="#858585" d="M 281.5,134.5 C 281.027,135.906 280.027,136.573 278.5,136.5C 278.973,135.094 279.973,134.427 281.5,134.5 Z"/></g>
<g><path style="opacity:1" fill="#6e6e6e" d="M 197.5,135.5 C 195.351,136.736 193.018,137.736 190.5,138.5C 192.09,136.179 194.423,135.179 197.5,135.5 Z"/></g>
<g><path style="opacity:1" fill="#a0a0a0" d="M 306.5,132.5 C 306.378,135.292 305.044,137.292 302.5,138.5C 303.449,136.223 304.782,134.223 306.5,132.5 Z"/></g>
<g><path style="opacity:1" fill="#979797" d="M 203.5,136.5 C 207.167,136.5 210.833,136.5 214.5,136.5C 214.768,138.099 214.434,139.432 213.5,140.5C 213.5,139.5 213.5,138.5 213.5,137.5C 208.797,137.437 204.13,137.771 199.5,138.5C 200.514,137.326 201.847,136.66 203.5,136.5 Z"/></g>
<g><path style="opacity:1" fill="#848484" d="M 269.5,136.5 C 269.5,136.833 269.5,137.167 269.5,137.5C 266.634,139.432 263.634,141.099 260.5,142.5C 262.951,139.723 265.951,137.723 269.5,136.5 Z"/></g>
<g><path style="opacity:1" fill="#888888" d="M 278.5,136.5 C 278.027,137.906 277.027,138.573 275.5,138.5C 275.973,137.094 276.973,136.427 278.5,136.5 Z"/></g>
<g><path style="opacity:1" fill="#f5f5f5" d="M 213.5,140.5 C 211.937,141.945 210.604,143.611 209.5,145.5C 206.151,146.169 203.484,147.836 201.5,150.5C 199.596,150.738 198.262,151.738 197.5,153.5C 195.566,154.11 193.899,155.11 192.5,156.5C 189.669,157.079 187.336,158.412 185.5,160.5C 183.973,160.427 182.973,161.094 182.5,162.5C 179.088,163.075 176.088,164.408 173.5,166.5C 173.027,167.906 172.027,168.573 170.5,168.5C 167.198,168.912 164.531,170.245 162.5,172.5C 159.715,174.095 156.715,175.095 153.5,175.5C 151.94,175.519 150.44,175.852 149,176.5C 147.97,176.164 147.47,175.497 147.5,174.5C 152.833,169.5 158.167,164.5 163.5,159.5C 167.392,157.938 170.725,155.605 173.5,152.5C 175.027,152.573 176.027,151.906 176.5,150.5C 178.027,150.573 179.027,149.906 179.5,148.5C 180.167,148.5 180.833,148.5 181.5,148.5C 182.873,148.657 184.207,148.49 185.5,148C 189.826,145.689 193.826,143.189 197.5,140.5C 197.833,139.833 198.167,139.167 198.5,138.5C 198.833,138.5 199.167,138.5 199.5,138.5C 204.13,137.771 208.797,137.437 213.5,137.5C 213.5,138.5 213.5,139.5 213.5,140.5 Z"/></g>
<g><path style="opacity:1" fill="#232323" d="M 197.5,135.5 C 198.167,135.5 198.833,135.5 199.5,135.5C 201.099,135.232 202.432,135.566 203.5,136.5C 201.847,136.66 200.514,137.326 199.5,138.5C 199.167,138.5 198.833,138.5 198.5,138.5C 196.152,138.592 194.486,139.592 193.5,141.5C 192.167,141.833 190.833,142.167 189.5,142.5C 189.5,141.167 188.833,140.5 187.5,140.5C 187.5,140.167 187.5,139.833 187.5,139.5C 188.209,138.596 189.209,138.263 190.5,138.5C 193.018,137.736 195.351,136.736 197.5,135.5 Z"/></g>
<g><path style="opacity:1" fill="#7e7e7e" d="M 198.5,138.5 C 198.167,139.167 197.833,139.833 197.5,140.5C 196.167,140.833 194.833,141.167 193.5,141.5C 194.486,139.592 196.152,138.592 198.5,138.5 Z"/></g>
<g><path style="opacity:1" fill="#7f7f7f" d="M 274.5,138.5 C 274.833,138.5 275.167,138.5 275.5,138.5C 260.264,150.728 245.598,163.728 231.5,177.5C 236.904,170.59 242.904,164.09 249.5,158C 257.423,150.903 265.756,144.403 274.5,138.5 Z"/></g>
<g><path style="opacity:1" fill="#7b7b7b" d="M 184.5,139.5 C 185.5,139.5 186.5,139.5 187.5,139.5C 187.5,139.833 187.5,140.167 187.5,140.5C 186.209,140.263 185.209,140.596 184.5,141.5C 183.833,141.5 183.167,141.5 182.5,141.5C 182.833,140.5 183.5,139.833 184.5,139.5 Z"/></g>
<g><path style="opacity:1" fill="#101010" d="M 274.5,138.5 C 265.756,144.403 257.423,150.903 249.5,158C 242.904,164.09 236.904,170.59 231.5,177.5C 227.959,180.863 224.626,184.53 221.5,188.5C 220.506,189.999 220.506,191.666 221.5,193.5C 221.158,194.338 220.492,194.672 219.5,194.5C 217.973,194.427 216.973,195.094 216.5,196.5C 215.094,196.973 214.427,197.973 214.5,199.5C 211.283,202.061 209.283,205.395 208.5,209.5C 208.167,210.833 207.833,212.167 207.5,213.5C 206.167,213.5 205.5,214.167 205.5,215.5C 203.345,217.617 202.345,220.284 202.5,223.5C 201.034,224.347 200.2,225.68 200,227.5C 199.502,230.482 199.335,233.482 199.5,236.5C 199.5,237.5 199.5,238.5 199.5,239.5C 197.284,238.956 195.284,237.956 193.5,236.5C 192.833,236.5 192.5,236.167 192.5,235.5C 193.187,228.733 194.52,222.066 196.5,215.5C 197.242,213.02 198.242,210.687 199.5,208.5C 200.906,208.027 201.573,207.027 201.5,205.5C 203.262,204.738 204.262,203.404 204.5,201.5C 204.5,201.167 204.5,200.833 204.5,200.5C 205.857,199.41 206.857,198.076 207.5,196.5C 208.285,194.626 208.952,192.626 209.5,190.5C 209.5,190.167 209.5,189.833 209.5,189.5C 210.167,189.5 210.833,189.5 211.5,189.5C 218.77,180.893 226.437,172.559 234.5,164.5C 237.5,162.167 240.167,159.5 242.5,156.5C 244.167,155.167 245.833,153.833 247.5,152.5C 251.704,150.967 255.037,148.3 257.5,144.5C 259.027,144.573 260.027,143.906 260.5,142.5C 263.634,141.099 266.634,139.432 269.5,137.5C 270.695,137.322 271.862,136.989 273,136.5C 274.03,136.836 274.53,137.503 274.5,138.5 Z"/></g>
<g><path style="opacity:1" fill="#363636" d="M 307.5,130.5 C 307.672,131.492 307.338,132.158 306.5,132.5C 304.782,134.223 303.449,136.223 302.5,138.5C 297.474,143.195 292.474,147.861 287.5,152.5C 284.208,154.458 281.208,156.791 278.5,159.5C 275.467,161.016 272.8,163.016 270.5,165.5C 267.802,165.845 265.802,167.178 264.5,169.5C 262.973,169.427 261.973,170.094 261.5,171.5C 259.973,171.427 258.973,172.094 258.5,173.5C 253.657,175.418 249.323,178.084 245.5,181.5C 240.5,183.664 235.833,186.331 231.5,189.5C 231.167,189.5 230.833,189.5 230.5,189.5C 228.973,189.427 227.973,190.094 227.5,191.5C 226.833,191.5 226.5,191.833 226.5,192.5C 224.708,192.366 223.042,192.699 221.5,193.5C 220.506,191.666 220.506,189.999 221.5,188.5C 222.053,190.552 223.053,190.885 224.5,189.5C 225.922,188.075 227.589,187.075 229.5,186.5C 231.027,186.573 232.027,185.906 232.5,184.5C 235.167,183.167 237.833,181.833 240.5,180.5C 242.027,180.573 243.027,179.906 243.5,178.5C 252.016,174.315 260.016,169.315 267.5,163.5C 268.579,161.457 270.246,160.124 272.5,159.5C 275.198,159.155 277.198,157.822 278.5,155.5C 281.792,153.542 284.792,151.209 287.5,148.5C 287.5,147.833 287.833,147.5 288.5,147.5C 293.188,144.812 296.855,141.145 299.5,136.5C 303.277,134.279 304.944,130.946 304.5,126.5C 299.4,125.91 294.733,126.91 290.5,129.5C 290.53,128.503 290.03,127.836 289,127.5C 287.862,127.989 286.695,128.322 285.5,128.5C 287.033,126.755 289.033,125.755 291.5,125.5C 296.472,124.578 301.472,124.412 306.5,125C 307.406,126.699 307.739,128.533 307.5,130.5 Z"/></g>
<g><path style="opacity:1" fill="#a5a5a5" d="M 178.5,142.5 C 178.167,143.167 177.833,143.833 177.5,144.5C 177.167,144.5 176.833,144.5 176.5,144.5C 176.167,144.5 175.833,144.5 175.5,144.5C 175.973,143.094 176.973,142.427 178.5,142.5 Z"/></g>
<g><path style="opacity:1" fill="#494949" d="M 182.5,141.5 C 183.167,141.5 183.833,141.5 184.5,141.5C 182.491,143.065 180.157,144.065 177.5,144.5C 177.833,143.833 178.167,143.167 178.5,142.5C 179.833,142.167 181.167,141.833 182.5,141.5 Z"/></g>
<g><path style="opacity:1" fill="#6f6f6f" d="M 189.5,142.5 C 189.027,143.906 188.027,144.573 186.5,144.5C 186.973,143.094 187.973,142.427 189.5,142.5 Z"/></g>
<g><path style="opacity:1" fill="#707070" d="M 260.5,142.5 C 260.027,143.906 259.027,144.573 257.5,144.5C 257.973,143.094 258.973,142.427 260.5,142.5 Z"/></g>
<g><path style="opacity:1" fill="#626262" d="M 175.5,144.5 C 175.833,144.5 176.167,144.5 176.5,144.5C 176.027,145.906 175.027,146.573 173.5,146.5C 173.5,146.167 173.5,145.833 173.5,145.5C 174.167,145.167 174.833,144.833 175.5,144.5 Z"/></g>
<g><path style="opacity:1" fill="#666666" d="M 299.5,136.5 C 296.855,141.145 293.188,144.812 288.5,147.5C 291.785,143.548 295.452,139.881 299.5,136.5 Z"/></g>
<g><path style="opacity:1" fill="#5a5a5a" d="M 184.5,145.5 C 183.694,146.728 182.694,147.728 181.5,148.5C 180.833,148.5 180.167,148.5 179.5,148.5C 180.659,146.75 182.326,145.75 184.5,145.5 Z"/></g>
<g><path style="opacity:1" fill="#d9d9d9" d="M 197.5,140.5 C 193.826,143.189 189.826,145.689 185.5,148C 184.207,148.49 182.873,148.657 181.5,148.5C 182.694,147.728 183.694,146.728 184.5,145.5C 184.842,144.662 185.508,144.328 186.5,144.5C 188.027,144.573 189.027,143.906 189.5,142.5C 190.833,142.167 192.167,141.833 193.5,141.5C 194.833,141.167 196.167,140.833 197.5,140.5 Z"/></g>
<g><path style="opacity:1" fill="#bebebe" d="M 302.5,138.5 C 298.783,144.55 293.783,149.217 287.5,152.5C 292.474,147.861 297.474,143.195 302.5,138.5 Z"/></g>
<g><path style="opacity:1" fill="#cacaca" d="M 173.5,145.5 C 173.5,145.833 173.5,146.167 173.5,146.5C 172.167,147.167 170.833,147.833 169.5,148.5C 167.833,149.167 166.167,149.833 164.5,150.5C 166.797,147.812 169.797,146.146 173.5,145.5 Z"/></g>
<g><path style="opacity:1" fill="#5b5b5b" d="M 257.5,144.5 C 255.037,148.3 251.704,150.967 247.5,152.5C 249.806,150.861 251.806,148.861 253.5,146.5C 254.605,145.4 255.938,144.733 257.5,144.5 Z"/></g>
<g><path style="opacity:1" fill="#999999" d="M 209.5,145.5 C 207.178,147.664 204.511,149.331 201.5,150.5C 203.484,147.836 206.151,146.169 209.5,145.5 Z"/></g>
<g><path style="opacity:1" fill="#727272" d="M 179.5,148.5 C 179.027,149.906 178.027,150.573 176.5,150.5C 176.973,149.094 177.973,148.427 179.5,148.5 Z"/></g>
<g><path style="opacity:1" fill="#d9d9d9" d="M 253.5,146.5 C 251.806,148.861 249.806,150.861 247.5,152.5C 245.833,153.833 244.167,155.167 242.5,156.5C 242.5,155.167 242.5,153.833 242.5,152.5C 243.5,152.5 244.5,152.5 245.5,152.5C 245.5,151.5 245.5,150.5 245.5,149.5C 246.833,149.5 248.167,149.5 249.5,149.5C 249.5,148.5 249.5,147.5 249.5,146.5C 250.833,146.5 252.167,146.5 253.5,146.5 Z"/></g>
<g><path style="opacity:1" fill="#515151" d="M 169.5,148.5 C 167.797,151.632 165.13,153.299 161.5,153.5C 162.167,152.5 162.833,151.5 163.5,150.5C 163.833,150.5 164.167,150.5 164.5,150.5C 166.167,149.833 167.833,149.167 169.5,148.5 Z"/></g>
<g><path style="opacity:1" fill="#7a7a7a" d="M 176.5,150.5 C 176.027,151.906 175.027,152.573 173.5,152.5C 173.973,151.094 174.973,150.427 176.5,150.5 Z"/></g>
<g><path style="opacity:1" fill="#909090" d="M 201.5,150.5 C 200.738,152.262 199.404,153.262 197.5,153.5C 198.262,151.738 199.596,150.738 201.5,150.5 Z"/></g>
<g><path style="opacity:1" fill="#727272" d="M 287.5,148.5 C 284.792,151.209 281.792,153.542 278.5,155.5C 280.637,152.027 283.637,149.694 287.5,148.5 Z"/></g>
<g><path style="opacity:1" fill="#0f0f0f" d="M 187.5,140.5 C 188.833,140.5 189.5,141.167 189.5,142.5C 187.973,142.427 186.973,143.094 186.5,144.5C 185.508,144.328 184.842,144.662 184.5,145.5C 182.326,145.75 180.659,146.75 179.5,148.5C 177.973,148.427 176.973,149.094 176.5,150.5C 174.973,150.427 173.973,151.094 173.5,152.5C 169.608,154.062 166.275,156.395 163.5,159.5C 154.618,165.043 146.618,171.71 139.5,179.5C 136.676,179.989 135.343,181.656 135.5,184.5C 136.791,184.263 137.791,184.596 138.5,185.5C 132.293,186.193 127.459,189.193 124,194.5C 120.28,199.38 116.78,204.38 113.5,209.5C 112.883,209.611 112.383,209.944 112,210.5C 111.503,212.81 111.337,215.143 111.5,217.5C 107.918,220.295 103.918,221.961 99.5,222.5C 98.1667,220.833 98.1667,219.167 99.5,217.5C 100.492,215.544 101.492,213.544 102.5,211.5C 105.399,208.048 108.066,204.382 110.5,200.5C 112.587,199.415 113.92,197.749 114.5,195.5C 115.404,194.791 115.737,193.791 115.5,192.5C 113.473,192.662 111.473,192.495 109.5,192C 112.084,191.14 114.417,189.973 116.5,188.5C 117.167,188.5 117.833,188.5 118.5,188.5C 119.978,188.762 121.311,188.429 122.5,187.5C 128.215,181.119 134.215,175.119 140.5,169.5C 142.389,168.396 144.055,167.063 145.5,165.5C 149.866,162.984 153.866,159.984 157.5,156.5C 159.404,156.262 160.738,155.262 161.5,153.5C 165.13,153.299 167.797,151.632 169.5,148.5C 170.833,147.833 172.167,147.167 173.5,146.5C 175.027,146.573 176.027,145.906 176.5,144.5C 176.833,144.5 177.167,144.5 177.5,144.5C 180.157,144.065 182.491,143.065 184.5,141.5C 185.209,140.596 186.209,140.263 187.5,140.5 Z"/></g>
<g><path style="opacity:1" fill="#a7a7a7" d="M 287.5,152.5 C 285.363,155.973 282.363,158.306 278.5,159.5C 281.208,156.791 284.208,154.458 287.5,152.5 Z"/></g>
<g><path style="opacity:1" fill="#616161" d="M 161.5,153.5 C 160.738,155.262 159.404,156.262 157.5,156.5C 158.262,154.738 159.596,153.738 161.5,153.5 Z"/></g>
<g><path style="opacity:1" fill="#808080" d="M 197.5,153.5 C 196.599,155.727 194.933,156.727 192.5,156.5C 193.899,155.11 195.566,154.11 197.5,153.5 Z"/></g>
<g><path style="opacity:1" fill="#7b7b7b" d="M 173.5,152.5 C 170.725,155.605 167.392,157.938 163.5,159.5C 166.275,156.395 169.608,154.062 173.5,152.5 Z"/></g>
<g><path style="opacity:1" fill="#c8c8c8" d="M 208.5,150.5 C 205.459,155.849 200.792,158.849 194.5,159.5C 198.819,156.004 203.485,153.004 208.5,150.5 Z"/></g>
<g><path style="opacity:1" fill="#6a6a6a" d="M 157.5,156.5 C 153.866,159.984 149.866,162.984 145.5,165.5C 148.776,161.529 152.776,158.529 157.5,156.5 Z"/></g>
<g><path style="opacity:1" fill="#a5a5a5" d="M 192.5,156.5 C 190.664,158.588 188.331,159.921 185.5,160.5C 187.336,158.412 189.669,157.079 192.5,156.5 Z"/></g>
<g><path style="opacity:1" fill="#7a7a7a" d="M 278.5,155.5 C 277.198,157.822 275.198,159.155 272.5,159.5C 274.147,157.674 276.147,156.34 278.5,155.5 Z"/></g>
<g><path style="opacity:1" fill="#8b8b8b" d="M 242.5,156.5 C 240.167,159.5 237.5,162.167 234.5,164.5C 236.167,160.833 238.833,158.167 242.5,156.5 Z"/></g>
<g><path style="opacity:1" fill="#e4e4e4" d="M 163.5,150.5 C 162.833,151.5 162.167,152.5 161.5,153.5C 159.596,153.738 158.262,154.738 157.5,156.5C 152.776,158.529 148.776,161.529 145.5,165.5C 144.391,165.557 143.391,165.89 142.5,166.5C 142.5,165.5 142.5,164.5 142.5,163.5C 143.5,163.5 144.5,163.5 145.5,163.5C 145.5,162.5 145.5,161.5 145.5,160.5C 148.5,159.167 151.5,157.833 154.5,156.5C 154.119,154.058 154.786,153.391 156.5,154.5C 157.696,154.154 157.696,153.654 156.5,153C 158.868,152.144 161.202,151.31 163.5,150.5 Z"/></g>
<g><path style="opacity:1" fill="#383838" d="M 199.5,135.5 C 204.64,134.512 209.974,134.179 215.5,134.5C 217.441,136.011 217.941,138.011 217,140.5C 214.331,144 211.498,147.333 208.5,150.5C 203.485,153.004 198.819,156.004 194.5,159.5C 192.326,159.75 190.659,160.75 189.5,162.5C 187.5,163.5 185.5,164.5 183.5,165.5C 181.973,165.427 180.973,166.094 180.5,167.5C 174.979,169.424 169.979,172.091 165.5,175.5C 161.764,175.541 158.764,176.874 156.5,179.5C 155.833,179.5 155.167,179.5 154.5,179.5C 149.265,181.129 144.265,183.129 139.5,185.5C 139.167,185.5 138.833,185.5 138.5,185.5C 137.791,184.596 136.791,184.263 135.5,184.5C 135.343,181.656 136.676,179.989 139.5,179.5C 139.47,180.497 139.97,181.164 141,181.5C 145.563,180.134 149.729,178.134 153.5,175.5C 156.715,175.095 159.715,174.095 162.5,172.5C 165.539,171.722 168.206,170.388 170.5,168.5C 172.027,168.573 173.027,167.906 173.5,166.5C 176.943,165.941 179.943,164.607 182.5,162.5C 184.027,162.573 185.027,161.906 185.5,160.5C 188.331,159.921 190.664,158.588 192.5,156.5C 194.933,156.727 196.599,155.727 197.5,153.5C 199.404,153.262 200.738,152.262 201.5,150.5C 204.511,149.331 207.178,147.664 209.5,145.5C 210.604,143.611 211.937,141.945 213.5,140.5C 214.434,139.432 214.768,138.099 214.5,136.5C 210.833,136.5 207.167,136.5 203.5,136.5C 202.432,135.566 201.099,135.232 199.5,135.5 Z"/></g>
<g><path style="opacity:1" fill="#979797" d="M 185.5,160.5 C 185.027,161.906 184.027,162.573 182.5,162.5C 182.973,161.094 183.973,160.427 185.5,160.5 Z"/></g>
<g><path style="opacity:1" fill="#9d9d9d" d="M 194.5,159.5 C 193.514,161.408 191.848,162.408 189.5,162.5C 190.659,160.75 192.326,159.75 194.5,159.5 Z"/></g>
<g><path style="opacity:1" fill="#a2a2a2" d="M 278.5,159.5 C 276.557,162.471 273.891,164.471 270.5,165.5C 272.8,163.016 275.467,161.016 278.5,159.5 Z"/></g>
<g><path style="opacity:1" fill="#8e8e8e" d="M 267.5,163.5 C 260.016,169.315 252.016,174.315 243.5,178.5C 250.943,172.747 258.943,167.747 267.5,163.5 Z"/></g>
<g><path style="opacity:1" fill="#b6b6b6" d="M 182.5,162.5 C 179.943,164.607 176.943,165.941 173.5,166.5C 176.088,164.408 179.088,163.075 182.5,162.5 Z"/></g>
<g><path style="opacity:1" fill="#808080" d="M 145.5,165.5 C 144.055,167.063 142.389,168.396 140.5,169.5C 140.167,169.5 139.833,169.5 139.5,169.5C 140.167,168.167 141.167,167.167 142.5,166.5C 143.391,165.89 144.391,165.557 145.5,165.5 Z"/></g>
<g><path style="opacity:1" fill="#868686" d="M 183.5,165.5 C 183.027,166.906 182.027,167.573 180.5,167.5C 180.973,166.094 181.973,165.427 183.5,165.5 Z"/></g>
<g><path style="opacity:1" fill="#8c8c8c" d="M 270.5,165.5 C 268.853,167.326 266.853,168.66 264.5,169.5C 265.802,167.178 267.802,165.845 270.5,165.5 Z"/></g>
<g><path style="opacity:1" fill="#b3b3b3" d="M 170.5,168.5 C 168.206,170.388 165.539,171.722 162.5,172.5C 164.531,170.245 167.198,168.912 170.5,168.5 Z"/></g>
<g><path style="opacity:1" fill="#c1c1c1" d="M 180.5,167.5 C 180.631,168.376 180.298,169.043 179.5,169.5C 176.427,170.786 173.593,172.452 171,174.5C 169.234,175.233 167.401,175.567 165.5,175.5C 169.979,172.091 174.979,169.424 180.5,167.5 Z"/></g>
<g><path style="opacity:1" fill="#a4a4a4" d="M 261.5,171.5 C 261.027,172.906 260.027,173.573 258.5,173.5C 258.973,172.094 259.973,171.427 261.5,171.5 Z"/></g>
<g><path style="opacity:1" fill="#131313" d="M 304.5,171.5 C 304.5,172.833 304.5,174.167 304.5,175.5C 303.167,175.5 301.833,175.5 300.5,175.5C 300.5,174.5 300.5,173.5 300.5,172.5C 301.568,171.566 302.901,171.232 304.5,171.5 Z"/></g>
<g><path style="opacity:1" fill="#4f4f4f" d="M 304.5,171.5 C 305.742,173.389 305.742,175.389 304.5,177.5C 299.973,177.995 298.639,176.328 300.5,172.5C 300.5,173.5 300.5,174.5 300.5,175.5C 301.833,175.5 303.167,175.5 304.5,175.5C 304.5,174.167 304.5,172.833 304.5,171.5 Z"/></g>
<g><path style="opacity:1" fill="#7f7f7f" d="M 234.5,164.5 C 226.437,172.559 218.77,180.893 211.5,189.5C 217.41,179.588 225.077,171.255 234.5,164.5 Z"/></g>
<g><path style="opacity:1" fill="#c0c0c0" d="M 258.5,173.5 C 258.489,175.017 257.823,176.184 256.5,177C 254.133,177.374 252.3,178.541 251,180.5C 249.234,181.233 247.401,181.567 245.5,181.5C 249.323,178.084 253.657,175.418 258.5,173.5 Z"/></g>
<g><path style="opacity:1" fill="#b8b8b8" d="M 304.5,171.5 C 302.901,171.232 301.568,171.566 300.5,172.5C 298.639,176.328 299.973,177.995 304.5,177.5C 303.054,178.613 301.387,178.78 299.5,178C 297.987,175.084 298.32,172.418 300.5,170C 302.463,169.156 303.796,169.656 304.5,171.5 Z"/></g>
<g><path style="opacity:1" fill="#878787" d="M 163.5,159.5 C 158.167,164.5 152.833,169.5 147.5,174.5C 144.833,176.167 142.167,177.833 139.5,179.5C 146.618,171.71 154.618,165.043 163.5,159.5 Z"/></g>
<g><path style="opacity:1" fill="#b5b5b5" d="M 165.5,175.5 C 163.066,177.874 160.066,179.208 156.5,179.5C 158.764,176.874 161.764,175.541 165.5,175.5 Z"/></g>
<g><path style="opacity:1" fill="#dadada" d="M 147.5,174.5 C 147.47,175.497 147.97,176.164 149,176.5C 150.44,175.852 151.94,175.519 153.5,175.5C 149.729,178.134 145.563,180.134 141,181.5C 139.97,181.164 139.47,180.497 139.5,179.5C 142.167,177.833 144.833,176.167 147.5,174.5 Z"/></g>
<g><path style="opacity:1" fill="#808080" d="M 243.5,178.5 C 243.027,179.906 242.027,180.573 240.5,180.5C 240.973,179.094 241.973,178.427 243.5,178.5 Z"/></g>
<g><path style="opacity:1" fill="#7e7e7e" d="M 231.5,177.5 C 229.112,181.756 226.112,185.59 222.5,189C 223.094,189.464 223.761,189.631 224.5,189.5C 223.053,190.885 222.053,190.552 221.5,188.5C 224.626,184.53 227.959,180.863 231.5,177.5 Z"/></g>
<g><path style="opacity:1" fill="#5d5d5d" d="M 139.5,169.5 C 139.833,169.5 140.167,169.5 140.5,169.5C 134.215,175.119 128.215,181.119 122.5,187.5C 121.311,188.429 119.978,188.762 118.5,188.5C 119.9,187.9 120.9,186.9 121.5,185.5C 127.203,179.795 133.203,174.462 139.5,169.5 Z"/></g>
<g><path style="opacity:1" fill="#9d9d9d" d="M 154.5,179.5 C 150.307,183.15 145.307,185.15 139.5,185.5C 144.265,183.129 149.265,181.129 154.5,179.5 Z"/></g>
<g><path style="opacity:1" fill="#d1d1d1" d="M 121.5,185.5 C 120.9,186.9 119.9,187.9 118.5,188.5C 117.833,188.5 117.167,188.5 116.5,188.5C 115.167,188.833 113.833,189.167 112.5,189.5C 115.063,187.389 118.063,186.056 121.5,185.5 Z"/></g>
<g><path style="opacity:1" fill="#919191" d="M 232.5,184.5 C 232.027,185.906 231.027,186.573 229.5,186.5C 229.973,185.094 230.973,184.427 232.5,184.5 Z"/></g>
<g><path style="opacity:1" fill="#b7b7b7" d="M 245.5,181.5 C 241.927,185.634 237.26,188.3 231.5,189.5C 235.833,186.331 240.5,183.664 245.5,181.5 Z"/></g>
<g><path style="opacity:1" fill="#dbdbdb" d="M 109.5,189.5 C 109.389,190.117 109.056,190.617 108.5,191C 105.487,191.502 102.487,192.002 99.5,192.5C 97.8333,192.5 96.1667,192.5 94.5,192.5C 97.1441,190.843 100.144,189.51 103.5,188.5C 105.409,189.348 107.409,189.682 109.5,189.5 Z"/></g>
<g><path style="opacity:1" fill="#919191" d="M 230.5,189.5 C 230.027,190.906 229.027,191.573 227.5,191.5C 227.973,190.094 228.973,189.427 230.5,189.5 Z"/></g>
<g><path style="opacity:1" fill="#c8c8c8" d="M 280.5,190.5 C 278.079,190.878 275.746,191.545 273.5,192.5C 271.973,192.427 270.973,193.094 270.5,194.5C 269.609,195.11 268.609,195.443 267.5,195.5C 270.752,190.73 275.086,189.064 280.5,190.5 Z"/></g>
<g><path style="opacity:1" fill="#b8b8b8" d="M 209.5,189.5 C 209.5,189.833 209.5,190.167 209.5,190.5C 205.277,192.444 200.944,194.111 196.5,195.5C 200.004,191.841 204.337,189.841 209.5,189.5 Z"/></g>
<g><path style="opacity:1" fill="#959595" d="M 94.5,192.5 C 96.1667,192.5 97.8333,192.5 99.5,192.5C 99.5,192.833 99.5,193.167 99.5,193.5C 94.8075,193.54 90.1408,193.873 85.5,194.5C 88.1226,192.735 91.1226,192.068 94.5,192.5 Z"/></g>
<g><path style="opacity:1" fill="#484848" d="M 116.5,188.5 C 114.417,189.973 112.084,191.14 109.5,192C 111.473,192.495 113.473,192.662 115.5,192.5C 115.737,193.791 115.404,194.791 114.5,195.5C 113.848,194.275 112.681,193.608 111,193.5C 109.615,193.514 108.449,193.848 107.5,194.5C 106.833,194.5 106.167,194.5 105.5,194.5C 104.833,194.5 104.167,194.5 103.5,194.5C 102.432,193.566 101.099,193.232 99.5,193.5C 99.5,193.167 99.5,192.833 99.5,192.5C 102.487,192.002 105.487,191.502 108.5,191C 109.056,190.617 109.389,190.117 109.5,189.5C 110.5,189.5 111.5,189.5 112.5,189.5C 113.833,189.167 115.167,188.833 116.5,188.5 Z"/></g>
<g><path style="opacity:1" fill="#989898" d="M 107.5,194.5 C 108.449,193.848 109.615,193.514 111,193.5C 112.681,193.608 113.848,194.275 114.5,195.5C 114.167,195.5 113.833,195.5 113.5,195.5C 111.735,194.539 109.735,194.205 107.5,194.5 Z"/></g>
<g><path style="opacity:1" fill="#777777" d="M 138.5,185.5 C 138.833,185.5 139.167,185.5 139.5,185.5C 131.344,188.318 125.344,193.651 121.5,201.5C 119.45,203.237 117.617,205.237 116,207.5C 115.472,208.816 115.972,209.483 117.5,209.5C 115.998,212.022 114.665,212.022 113.5,209.5C 116.78,204.38 120.28,199.38 124,194.5C 127.459,189.193 132.293,186.193 138.5,185.5 Z"/></g>
<g><path style="opacity:1" fill="#7e7e7e" d="M 273.5,192.5 C 273.027,193.906 272.027,194.573 270.5,194.5C 270.973,193.094 271.973,192.427 273.5,192.5 Z"/></g>
<g><path style="opacity:1" fill="#d0d0d0" d="M 383.5,199.5 C 383.768,197.901 383.434,196.568 382.5,195.5C 372.5,195.5 362.5,195.5 352.5,195.5C 350.5,195.5 348.5,195.5 346.5,195.5C 346.369,194.761 346.536,194.094 347,193.5C 359.021,193.393 371.188,193.56 383.5,194C 386.017,196.09 386.017,197.923 383.5,199.5 Z"/></g>
<g><path style="opacity:1" fill="#484848" d="M 296.5,198.5 C 296.66,196.801 296.494,195.134 296,193.5C 294.296,195.373 292.463,197.04 290.5,198.5C 290.557,197.391 290.89,196.391 291.5,195.5C 293.053,193.615 295.053,192.615 297.5,192.5C 297.795,194.735 297.461,196.735 296.5,198.5 Z"/></g>
<g><path style="opacity:1" fill="#cccccc" d="M 308.5,205.5 C 305.347,206.588 302.347,207.922 299.5,209.5C 297.5,209.5 295.5,209.5 293.5,209.5C 293.629,207.784 293.962,206.117 294.5,204.5C 295.537,203.07 296.204,201.403 296.5,199.5C 296.5,199.167 296.5,198.833 296.5,198.5C 297.461,196.735 297.795,194.735 297.5,192.5C 295.053,192.615 293.053,193.615 291.5,195.5C 294.053,189.023 296.72,188.857 299.5,195C 298.699,199.047 297.366,202.88 295.5,206.5C 295.833,206.833 296.167,207.167 296.5,207.5C 300.389,206.189 304.389,205.522 308.5,205.5 Z"/></g>
<g><path style="opacity:1" fill="#5b5b5b" d="M 75.5,195.5 C 68.6046,195.85 61.9379,196.85 55.5,198.5C 53.4508,198.294 53.1175,197.461 54.5,196C 61.4921,195.5 68.4921,195.334 75.5,195.5 Z"/></g>
<g><path style="opacity:1" fill="#333333" d="M 99.5,193.5 C 101.099,193.232 102.432,193.566 103.5,194.5C 99.688,195.026 96.0213,195.693 92.5,196.5C 92.5,196.833 92.5,197.167 92.5,197.5C 89.1667,197.5 85.8333,197.5 82.5,197.5C 73.4978,197.786 64.4978,198.119 55.5,198.5C 61.9379,196.85 68.6046,195.85 75.5,195.5C 75.5,195.167 75.5,194.833 75.5,194.5C 78.8333,194.5 82.1667,194.5 85.5,194.5C 90.1408,193.873 94.8075,193.54 99.5,193.5 Z"/></g>
<g><path style="opacity:1" fill="#929292" d="M 103.5,194.5 C 104.167,194.5 104.833,194.5 105.5,194.5C 105.389,195.117 105.056,195.617 104.5,196C 100.514,196.499 96.5138,196.666 92.5,196.5C 96.0213,195.693 99.688,195.026 103.5,194.5 Z"/></g>
<g><path style="opacity:1" fill="#dfdfdf" d="M 105.5,194.5 C 106.167,194.5 106.833,194.5 107.5,194.5C 109.735,194.205 111.735,194.539 113.5,195.5C 112.5,196.833 111.5,198.167 110.5,199.5C 110.167,199.5 109.833,199.5 109.5,199.5C 104.265,197.55 98.5982,196.883 92.5,197.5C 92.5,197.167 92.5,196.833 92.5,196.5C 96.5138,196.666 100.514,196.499 104.5,196C 105.056,195.617 105.389,195.117 105.5,194.5 Z"/></g>
<g><path style="opacity:1" fill="#808080" d="M 207.5,196.5 C 206.857,198.076 205.857,199.41 204.5,200.5C 204.539,199.417 204.873,198.417 205.5,197.5C 204.675,196.614 203.675,196.281 202.5,196.5C 204.417,194.149 206.084,194.149 207.5,196.5 Z"/></g>
<g><path style="opacity:1" fill="#6c6c6c" d="M 219.5,194.5 C 219.167,195.167 218.833,195.833 218.5,196.5C 217.833,196.5 217.167,196.5 216.5,196.5C 216.973,195.094 217.973,194.427 219.5,194.5 Z"/></g>
<g><path style="opacity:1" fill="#cfcfcf" d="M 226.5,192.5 C 224.518,195.137 221.852,196.47 218.5,196.5C 218.833,195.833 219.167,195.167 219.5,194.5C 220.492,194.672 221.158,194.338 221.5,193.5C 223.042,192.699 224.708,192.366 226.5,192.5 Z"/></g>
<g><path style="opacity:1" fill="#0f0f0f" d="M 296.5,198.5 C 296.5,198.833 296.5,199.167 296.5,199.5C 294.787,200.635 294.12,202.302 294.5,204.5C 293.007,205.312 292.34,206.645 292.5,208.5C 292.709,209.994 293.376,211.161 294.5,212C 292.68,212.2 291.347,213.034 290.5,214.5C 288.166,216.176 287.166,218.509 287.5,221.5C 285.123,223.228 283.456,225.561 282.5,228.5C 280.75,229.659 279.75,231.326 279.5,233.5C 278.662,233.842 278.328,234.508 278.5,235.5C 277.094,235.973 276.427,236.973 276.5,238.5C 268.833,248.167 260.167,256.833 250.5,264.5C 248.973,264.427 247.973,265.094 247.5,266.5C 245.973,266.427 244.973,267.094 244.5,268.5C 242.973,268.427 241.973,269.094 241.5,270.5C 240.167,270.833 238.833,271.167 237.5,271.5C 235.973,271.427 234.973,272.094 234.5,273.5C 233.833,273.5 233.167,273.5 232.5,273.5C 230.801,273.66 229.134,273.494 227.5,273C 229.119,272.764 230.119,271.931 230.5,270.5C 233.331,269.921 235.664,268.588 237.5,266.5C 240.131,264.847 242.797,263.181 245.5,261.5C 250.126,258.542 254.126,254.876 257.5,250.5C 258.833,248.833 260.167,247.167 261.5,245.5C 264.645,242.54 267.312,239.207 269.5,235.5C 271.167,233.5 272.833,231.5 274.5,229.5C 276.723,226.856 278.389,223.856 279.5,220.5C 281.104,219.713 281.771,218.38 281.5,216.5C 280.448,216.649 279.448,216.483 278.5,216C 281.034,215.484 283.2,214.317 285,212.5C 286.61,209.15 288.11,205.816 289.5,202.5C 289.833,201.167 290.167,199.833 290.5,198.5C 292.463,197.04 294.296,195.373 296,193.5C 296.494,195.134 296.66,196.801 296.5,198.5 Z"/></g>
<g><path style="opacity:1" fill="#959595" d="M 277.5,194.5 C 275.967,196.245 273.967,197.245 271.5,197.5C 273.033,195.755 275.033,194.755 277.5,194.5 Z"/></g>
<g><path style="opacity:1" fill="#9e9e9e" d="M 346.5,195.5 C 348.5,195.5 350.5,195.5 352.5,195.5C 349.026,196.525 345.36,197.192 341.5,197.5C 342.78,196.069 344.447,195.402 346.5,195.5 Z"/></g>
<g><path style="opacity:1" fill="#353535" d="M 352.5,195.5 C 362.5,195.5 372.5,195.5 382.5,195.5C 382.5,196.5 382.5,197.5 382.5,198.5C 380.833,198.5 379.167,198.5 377.5,198.5C 374.183,197.835 370.683,197.501 367,197.5C 360.933,197.39 355.1,198.057 349.5,199.5C 346.609,200.403 343.609,200.736 340.5,200.5C 338.901,200.768 337.568,200.434 336.5,199.5C 338.403,199.204 340.07,198.537 341.5,197.5C 345.36,197.192 349.026,196.525 352.5,195.5 Z"/></g>
<g><path style="opacity:1" fill="#cecece" d="M 196.5,195.5 C 191.701,198.737 186.701,201.737 181.5,204.5C 181.821,202.952 182.821,202.285 184.5,202.5C 184.5,201.5 184.5,200.5 184.5,199.5C 188.484,198.178 192.484,196.844 196.5,195.5 Z"/></g>
<g><path style="opacity:1" fill="#6b6b6b" d="M 377.5,198.5 C 370.646,198.176 363.979,198.509 357.5,199.5C 355.833,199.5 354.167,199.5 352.5,199.5C 351.5,199.5 350.5,199.5 349.5,199.5C 355.1,198.057 360.933,197.39 367,197.5C 370.683,197.501 374.183,197.835 377.5,198.5 Z"/></g>
<g><path style="opacity:1" fill="#9f9f9f" d="M 75.5,194.5 C 75.5,194.833 75.5,195.167 75.5,195.5C 68.4921,195.334 61.4921,195.5 54.5,196C 53.1175,197.461 53.4508,198.294 55.5,198.5C 64.4978,198.119 73.4978,197.786 82.5,197.5C 80.7078,198.309 78.7078,198.809 76.5,199C 68.5069,199.5 60.5069,199.666 52.5,199.5C 52.2865,197.856 52.6198,196.356 53.5,195C 60.8258,194.5 68.1591,194.334 75.5,194.5 Z"/></g>
<g><path style="opacity:1" fill="#525252" d="M 113.5,195.5 C 113.833,195.5 114.167,195.5 114.5,195.5C 113.92,197.749 112.587,199.415 110.5,200.5C 110.5,200.167 110.5,199.833 110.5,199.5C 111.5,198.167 112.5,196.833 113.5,195.5 Z"/></g>
<g><path style="opacity:1" fill="#8c8c8c" d="M 132.5,199.5 C 135.287,198.523 138.287,198.19 141.5,198.5C 141.833,199.167 142.167,199.833 142.5,200.5C 139.904,199.735 137.237,199.401 134.5,199.5C 133.833,199.5 133.167,199.5 132.5,199.5 Z"/></g>
<g><path style="opacity:1" fill="#c1c1c1" d="M 202.5,196.5 C 203.675,196.281 204.675,196.614 205.5,197.5C 204.873,198.417 204.539,199.417 204.5,200.5C 204.5,200.833 204.5,201.167 204.5,201.5C 203.833,201.833 203.167,202.167 202.5,202.5C 202.762,201.022 202.429,199.689 201.5,198.5C 199.55,199.372 197.55,200.039 195.5,200.5C 197.336,198.412 199.669,197.079 202.5,196.5 Z"/></g>
<g><path style="opacity:1" fill="#6d6d6d" d="M 216.5,196.5 C 216.573,198.027 215.906,199.027 214.5,199.5C 214.427,197.973 215.094,196.973 216.5,196.5 Z"/></g>
<g><path style="opacity:1" fill="#8a8a8a" d="M 270.5,197.5 C 270.027,198.906 269.027,199.573 267.5,199.5C 267.973,198.094 268.973,197.427 270.5,197.5 Z"/></g>
<g><path style="opacity:1" fill="#727272" d="M 341.5,197.5 C 340.07,198.537 338.403,199.204 336.5,199.5C 335.833,199.5 335.167,199.5 334.5,199.5C 334.5,199.167 334.5,198.833 334.5,198.5C 336.806,198.007 339.139,197.674 341.5,197.5 Z"/></g>
<g><path style="opacity:1" fill="#b0b0b0" d="M 382.5,195.5 C 383.434,196.568 383.768,197.901 383.5,199.5C 374.833,199.5 366.167,199.5 357.5,199.5C 363.979,198.509 370.646,198.176 377.5,198.5C 379.167,198.5 380.833,198.5 382.5,198.5C 382.5,197.5 382.5,196.5 382.5,195.5 Z"/></g>
<g><path style="opacity:1" fill="#dcdcdc" d="M 291.5,195.5 C 290.89,196.391 290.557,197.391 290.5,198.5C 290.167,199.833 289.833,201.167 289.5,202.5C 287.357,204.131 285.69,206.131 284.5,208.5C 284.93,202.975 287.264,198.641 291.5,195.5 Z"/></g>
<g><path style="opacity:1" fill="#aaaaaa" d="M 334.5,198.5 C 334.5,198.833 334.5,199.167 334.5,199.5C 328.867,200.992 323.201,202.325 317.5,203.5C 322.8,200.964 328.467,199.297 334.5,198.5 Z"/></g>
<g><path style="opacity:1" fill="#bababa" d="M 260.5,198.5 C 257.506,201 254.173,203 250.5,204.5C 253.069,201.272 256.402,199.272 260.5,198.5 Z"/></g>
<g><path style="opacity:1" fill="#3d3d3d" d="M 334.5,199.5 C 335.167,199.5 335.833,199.5 336.5,199.5C 337.568,200.434 338.901,200.768 340.5,200.5C 334.019,202.037 327.686,204.037 321.5,206.5C 320.833,206.5 320.167,206.5 319.5,206.5C 316.145,206.69 313.145,207.69 310.5,209.5C 306.159,209.658 302.159,210.658 298.5,212.5C 295.779,212.963 293.112,213.629 290.5,214.5C 291.347,213.034 292.68,212.2 294.5,212C 293.376,211.161 292.709,209.994 292.5,208.5C 292.34,206.645 293.007,205.312 294.5,204.5C 293.962,206.117 293.629,207.784 293.5,209.5C 295.5,209.5 297.5,209.5 299.5,209.5C 305.917,208.472 311.917,206.472 317.5,203.5C 323.201,202.325 328.867,200.992 334.5,199.5 Z"/></g>
<g><path style="opacity:1" fill="#8d8d8d" d="M 267.5,199.5 C 265.967,201.245 263.967,202.245 261.5,202.5C 263.033,200.755 265.033,199.755 267.5,199.5 Z"/></g>
<g><path style="opacity:1" fill="#4c4c4c" d="M 296.5,199.5 C 296.204,201.403 295.537,203.07 294.5,204.5C 294.12,202.302 294.787,200.635 296.5,199.5 Z"/></g>
<g><path style="opacity:1" fill="#cbcbcb" d="M 132.5,199.5 C 131.833,200.167 131.167,200.833 130.5,201.5C 128.517,202.471 126.517,203.471 124.5,204.5C 121.907,205.754 119.573,207.42 117.5,209.5C 115.972,209.483 115.472,208.816 116,207.5C 117.617,205.237 119.45,203.237 121.5,201.5C 121.47,202.497 121.97,203.164 123,203.5C 124.951,203.112 126.451,202.112 127.5,200.5C 129.045,199.548 130.712,199.215 132.5,199.5 Z"/></g>
<g><path style="opacity:1" fill="#4b4b4b" d="M 204.5,201.5 C 204.262,203.404 203.262,204.738 201.5,205.5C 201.557,204.391 201.89,203.391 202.5,202.5C 203.167,202.167 203.833,201.833 204.5,201.5 Z"/></g>
<g><path style="opacity:1" fill="#c7c7c7" d="M 349.5,199.5 C 350.5,199.5 351.5,199.5 352.5,199.5C 344.907,201.485 337.241,203.652 329.5,206C 326.854,206.497 324.187,206.664 321.5,206.5C 327.686,204.037 334.019,202.037 340.5,200.5C 343.609,200.736 346.609,200.403 349.5,199.5 Z"/></g>
<g><path style="opacity:1" fill="#131313" d="M 134.5,199.5 C 137.237,199.401 139.904,199.735 142.5,200.5C 142.66,202.199 142.494,203.866 142,205.5C 140.333,206.733 138.833,208.067 137.5,209.5C 137.167,209.5 136.833,209.5 136.5,209.5C 133.833,209.5 131.167,209.5 128.5,209.5C 128.232,211.099 128.566,212.432 129.5,213.5C 129.427,215.027 130.094,216.027 131.5,216.5C 131.5,216.833 131.5,217.167 131.5,217.5C 131.5,218.167 131.167,218.5 130.5,218.5C 129.609,217.89 128.609,217.557 127.5,217.5C 127.167,217.5 126.833,217.5 126.5,217.5C 126.5,216.833 126.5,216.167 126.5,215.5C 125.781,213.236 125.448,210.903 125.5,208.5C 124.127,208.657 122.793,208.49 121.5,208C 122.71,206.961 123.71,205.794 124.5,204.5C 126.517,203.471 128.517,202.471 130.5,201.5C 131.239,201.369 131.906,201.536 132.5,202C 129.821,203.789 129.987,204.955 133,205.5C 135.756,205.576 136.923,204.243 136.5,201.5C 134.007,201.869 133.34,201.203 134.5,199.5 Z"/></g>
<g><path style="opacity:1" fill="#505050" d="M 132.5,199.5 C 133.167,199.5 133.833,199.5 134.5,199.5C 133.34,201.203 134.007,201.869 136.5,201.5C 136.923,204.243 135.756,205.576 133,205.5C 129.987,204.955 129.821,203.789 132.5,202C 131.906,201.536 131.239,201.369 130.5,201.5C 131.167,200.833 131.833,200.167 132.5,199.5 Z"/></g>
<g><path style="opacity:1" fill="#8b8b8b" d="M 181.5,204.5 C 181.027,205.906 180.027,206.573 178.5,206.5C 178.973,205.094 179.973,204.427 181.5,204.5 Z"/></g>
<g><path style="opacity:1" fill="#c8c8c8" d="M 195.5,200.5 C 191.818,205.48 186.818,208.48 180.5,209.5C 184.995,205.749 189.995,202.749 195.5,200.5 Z"/></g>
<g><path style="opacity:1" fill="#4d4d4d" d="M 214.5,199.5 C 214.107,201.284 213.441,202.95 212.5,204.5C 211.167,206.167 209.833,207.833 208.5,209.5C 209.283,205.395 211.283,202.061 214.5,199.5 Z"/></g>
<g><path style="opacity:1" fill="#bdbdbd" d="M 261.5,202.5 C 260.191,205.451 257.857,206.784 254.5,206.5C 256.336,204.412 258.669,203.079 261.5,202.5 Z"/></g>
<g><path style="opacity:1" fill="#7c7c7c" d="M 142.5,200.5 C 144.801,205.51 143.134,208.51 137.5,209.5C 138.833,208.067 140.333,206.733 142,205.5C 142.494,203.866 142.66,202.199 142.5,200.5 Z"/></g>
<g><path style="opacity:1" fill="#868686" d="M 109.5,199.5 C 109.833,199.5 110.167,199.5 110.5,199.5C 110.5,199.833 110.5,200.167 110.5,200.5C 108.066,204.382 105.399,208.048 102.5,211.5C 104.317,207.199 106.65,203.199 109.5,199.5 Z"/></g>
<g><path style="opacity:1" fill="#939393" d="M 178.5,206.5 C 176.853,208.326 174.853,209.66 172.5,210.5C 173.802,208.178 175.802,206.845 178.5,206.5 Z"/></g>
<g><path style="opacity:1" fill="#797979" d="M 201.5,205.5 C 201.573,207.027 200.906,208.027 199.5,208.5C 199.427,206.973 200.094,205.973 201.5,205.5 Z"/></g>
<g><path style="opacity:1" fill="#cbcbcb" d="M 212.5,204.5 C 212.657,205.873 212.49,207.207 212,208.5C 210.583,210.398 209.083,212.064 207.5,213.5C 207.833,212.167 208.167,210.833 208.5,209.5C 209.833,207.833 211.167,206.167 212.5,204.5 Z"/></g>
<g><path style="opacity:1" fill="#898989" d="M 250.5,204.5 C 248.853,206.326 246.853,207.66 244.5,208.5C 245.802,206.178 247.802,204.845 250.5,204.5 Z"/></g>
<g><path style="opacity:1" fill="#626262" d="M 317.5,203.5 C 311.917,206.472 305.917,208.472 299.5,209.5C 302.347,207.922 305.347,206.588 308.5,205.5C 311.426,204.539 314.426,203.873 317.5,203.5 Z"/></g>
<g><path style="opacity:1" fill="#adadad" d="M 319.5,206.5 C 316.916,208.472 313.916,209.472 310.5,209.5C 313.145,207.69 316.145,206.69 319.5,206.5 Z"/></g>
<g><path style="opacity:1" fill="#d5d5d5" d="M 202.5,202.5 C 201.89,203.391 201.557,204.391 201.5,205.5C 200.094,205.973 199.427,206.973 199.5,208.5C 198.242,210.687 197.242,213.02 196.5,215.5C 195.833,215.833 195.167,216.167 194.5,216.5C 195.008,214.135 195.675,211.801 196.5,209.5C 197.827,206.463 199.827,204.13 202.5,202.5 Z"/></g>
<g><path style="opacity:1" fill="#606060" d="M 136.5,209.5 C 134.393,210.468 132.059,210.802 129.5,210.5C 129.5,211.5 129.5,212.5 129.5,213.5C 128.566,212.432 128.232,211.099 128.5,209.5C 131.167,209.5 133.833,209.5 136.5,209.5 Z"/></g>
<g><path style="opacity:1" fill="#d7d7d7" d="M 141.5,198.5 C 143.179,198.892 144.846,199.392 146.5,200C 145.812,202.929 144.812,205.763 143.5,208.5C 138.951,210.241 134.618,211.908 130.5,213.5C 130.167,213.5 129.833,213.5 129.5,213.5C 129.5,212.5 129.5,211.5 129.5,210.5C 132.059,210.802 134.393,210.468 136.5,209.5C 136.833,209.5 137.167,209.5 137.5,209.5C 143.134,208.51 144.801,205.51 142.5,200.5C 142.167,199.833 141.833,199.167 141.5,198.5 Z"/></g>
<g><path style="opacity:1" fill="#bebebe" d="M 254.5,206.5 C 253.191,209.451 250.857,210.784 247.5,210.5C 249.336,208.412 251.669,207.079 254.5,206.5 Z"/></g>
<g><path style="opacity:1" fill="#3c3c3c" d="M 124.5,204.5 C 123.71,205.794 122.71,206.961 121.5,208C 122.793,208.49 124.127,208.657 125.5,208.5C 125.448,210.903 125.781,213.236 126.5,215.5C 124.72,214.01 124.054,212.01 124.5,209.5C 122.692,209.491 121.025,209.991 119.5,211C 117.271,213.4 114.937,215.567 112.5,217.5C 112.167,217.5 111.833,217.5 111.5,217.5C 111.337,215.143 111.503,212.81 112,210.5C 112.383,209.944 112.883,209.611 113.5,209.5C 114.665,212.022 115.998,212.022 117.5,209.5C 119.573,207.42 121.907,205.754 124.5,204.5 Z"/></g>
<g><path style="opacity:1" fill="#363636" d="M 209.5,190.5 C 208.952,192.626 208.285,194.626 207.5,196.5C 206.084,194.149 204.417,194.149 202.5,196.5C 199.669,197.079 197.336,198.412 195.5,200.5C 189.995,202.749 184.995,205.749 180.5,209.5C 175.657,211.418 171.323,214.084 167.5,217.5C 165.847,217.66 164.514,218.326 163.5,219.5C 161.007,219.869 160.34,219.203 161.5,217.5C 163.404,217.262 164.738,216.262 165.5,214.5C 167.027,214.573 168.027,213.906 168.5,212.5C 169.605,211.4 170.938,210.733 172.5,210.5C 174.853,209.66 176.853,208.326 178.5,206.5C 180.027,206.573 181.027,205.906 181.5,204.5C 186.701,201.737 191.701,198.737 196.5,195.5C 200.944,194.111 205.277,192.444 209.5,190.5 Z"/></g>
<g><path style="opacity:1" fill="#d4d4d4" d="M 284.5,208.5 C 284.703,210.39 284.037,211.89 282.5,213C 279.238,214.469 275.905,215.636 272.5,216.5C 276.003,213.015 280.003,210.348 284.5,208.5 Z"/></g>
<g><path style="opacity:1" fill="#a3a3a3" d="M 310.5,209.5 C 307.159,211.236 303.492,212.236 299.5,212.5C 299.167,212.5 298.833,212.5 298.5,212.5C 302.159,210.658 306.159,209.658 310.5,209.5 Z"/></g>
<g><path style="opacity:1" fill="#9a9a9a" d="M 242.5,209.5 C 240.178,211.664 237.511,213.331 234.5,214.5C 236.484,211.836 239.151,210.169 242.5,209.5 Z"/></g>
<g><path style="opacity:1" fill="#b9b9b9" d="M 247.5,210.5 C 246.656,212.759 244.989,213.759 242.5,213.5C 243.899,212.11 245.566,211.11 247.5,210.5 Z"/></g>
<g><path style="opacity:1" fill="#868686" d="M 102.5,211.5 C 101.492,213.544 100.492,215.544 99.5,217.5C 99.5,216.833 99.5,216.167 99.5,215.5C 99.7376,213.596 100.738,212.262 102.5,211.5 Z"/></g>
<g><path style="opacity:1" fill="#bbbbbb" d="M 126.5,215.5 C 126.5,216.167 126.5,216.833 126.5,217.5C 124.273,216.599 123.273,214.933 123.5,212.5C 122.127,212.343 120.793,212.51 119.5,213C 117.789,215.519 115.455,217.019 112.5,217.5C 114.937,215.567 117.271,213.4 119.5,211C 121.025,209.991 122.692,209.491 124.5,209.5C 124.054,212.01 124.72,214.01 126.5,215.5 Z"/></g>
<g><path style="opacity:1" fill="#8e8e8e" d="M 168.5,212.5 C 168.027,213.906 167.027,214.573 165.5,214.5C 165.973,213.094 166.973,212.427 168.5,212.5 Z"/></g>
<g><path style="opacity:1" fill="#c3c3c3" d="M 180.5,209.5 C 177.504,214.13 173.171,216.797 167.5,217.5C 171.323,214.084 175.657,211.418 180.5,209.5 Z"/></g>
<g><path style="opacity:1" fill="#989898" d="M 242.5,213.5 C 242.027,214.906 241.027,215.573 239.5,215.5C 239.973,214.094 240.973,213.427 242.5,213.5 Z"/></g>
<g><path style="opacity:1" fill="#626262" d="M 129.5,213.5 C 129.833,213.5 130.167,213.5 130.5,213.5C 131.11,214.391 131.443,215.391 131.5,216.5C 130.094,216.027 129.427,215.027 129.5,213.5 Z"/></g>
<g><path style="opacity:1" fill="#767676" d="M 165.5,214.5 C 164.738,216.262 163.404,217.262 161.5,217.5C 161.5,217.167 161.5,216.833 161.5,216.5C 162.605,215.4 163.938,214.733 165.5,214.5 Z"/></g>
<g><path style="opacity:1" fill="#898989" d="M 234.5,214.5 C 233.738,216.262 232.404,217.262 230.5,217.5C 231.262,215.738 232.596,214.738 234.5,214.5 Z"/></g>
<g><path style="opacity:1" fill="#848484" d="M 131.5,217.5 C 131.5,217.167 131.5,216.833 131.5,216.5C 133.404,216.738 134.738,217.738 135.5,219.5C 133.938,219.267 132.605,218.6 131.5,217.5 Z"/></g>
<g><path style="opacity:1" fill="#525252" d="M 127.5,217.5 C 128.609,217.557 129.609,217.89 130.5,218.5C 131.833,220.167 133.167,221.833 134.5,223.5C 131.573,222.243 129.239,220.243 127.5,217.5 Z"/></g>
<g><path style="opacity:1" fill="#d3d3d3" d="M 298.5,212.5 C 298.833,212.5 299.167,212.5 299.5,212.5C 297.11,214.02 294.443,215.02 291.5,215.5C 291.715,217.179 291.048,218.179 289.5,218.5C 289.833,217.167 290.167,215.833 290.5,214.5C 293.112,213.629 295.779,212.963 298.5,212.5 Z"/></g>
<g><path style="opacity:1" fill="#686868" d="M 111.5,217.5 C 111.833,217.5 112.167,217.5 112.5,217.5C 110.14,219.853 107.473,221.853 104.5,223.5C 102.585,223.784 100.919,223.451 99.5,222.5C 103.918,221.961 107.918,220.295 111.5,217.5 Z"/></g>
<g><path style="opacity:1" fill="#b1b1b1" d="M 167.5,217.5 C 166.965,219.446 165.632,220.446 163.5,220.5C 163.5,220.167 163.5,219.833 163.5,219.5C 164.514,218.326 165.847,217.66 167.5,217.5 Z"/></g>
<g><path style="opacity:1" fill="#c0c0c0" d="M 239.5,215.5 C 238.404,218.773 236.071,220.439 232.5,220.5C 234.296,218.1 236.63,216.433 239.5,215.5 Z"/></g>
<g><path style="opacity:1" fill="#828282" d="M 290.5,214.5 C 290.167,215.833 289.833,217.167 289.5,218.5C 289.068,219.71 288.401,220.71 287.5,221.5C 287.166,218.509 288.166,216.176 290.5,214.5 Z"/></g>
<g><path style="opacity:1" fill="#5a5a5a" d="M 161.5,217.5 C 160.34,219.203 161.007,219.869 163.5,219.5C 163.5,219.833 163.5,220.167 163.5,220.5C 161.02,221.242 158.687,222.242 156.5,223.5C 156.953,222.542 157.619,221.708 158.5,221C 157.906,220.536 157.239,220.369 156.5,220.5C 157.659,218.75 159.326,217.75 161.5,217.5 Z"/></g>
<g><path style="opacity:1" fill="#909090" d="M 229.5,218.5 C 227.882,220.316 225.882,221.649 223.5,222.5C 224.733,220.204 226.733,218.87 229.5,218.5 Z"/></g>
<g><path style="opacity:1" fill="#c7c7c7" d="M 262.5,219.5 C 261.833,220.167 261.167,220.833 260.5,221.5C 260.167,221.5 259.833,221.5 259.5,221.5C 258.833,221.5 258.167,221.5 257.5,221.5C 258.552,219.744 260.219,219.077 262.5,219.5 Z"/></g>
<g><path style="opacity:1" fill="#d2d2d2" d="M 161.5,216.5 C 161.5,216.833 161.5,217.167 161.5,217.5C 159.326,217.75 157.659,218.75 156.5,220.5C 155.833,220.5 155.167,220.5 154.5,220.5C 150.534,221.162 146.534,221.495 142.5,221.5C 140.214,221.405 138.214,220.738 136.5,219.5C 140.042,219.38 143.542,219.714 147,220.5C 151.639,218.631 156.472,217.297 161.5,216.5 Z"/></g>
<g><path style="opacity:1" fill="#585858" d="M 205.5,215.5 C 204.833,217.833 204.167,220.167 203.5,222.5C 203.5,222.833 203.5,223.167 203.5,223.5C 203.167,223.5 202.833,223.5 202.5,223.5C 202.345,220.284 203.345,217.617 205.5,215.5 Z"/></g>
<g><path style="opacity:1" fill="#bcbcbc" d="M 207.5,213.5 C 207.208,217.066 205.874,220.066 203.5,222.5C 204.167,220.167 204.833,217.833 205.5,215.5C 205.5,214.167 206.167,213.5 207.5,213.5 Z"/></g>
<g><path style="opacity:1" fill="#404040" d="M 289.5,202.5 C 288.11,205.816 286.61,209.15 285,212.5C 283.2,214.317 281.034,215.484 278.5,216C 279.448,216.483 280.448,216.649 281.5,216.5C 281.771,218.38 281.104,219.713 279.5,220.5C 279.38,219.414 278.713,218.747 277.5,218.5C 274.245,219.641 270.911,220.474 267.5,221C 266.058,221.377 265.058,222.21 264.5,223.5C 263.833,223.5 263.167,223.5 262.5,223.5C 263.66,221.797 262.993,221.131 260.5,221.5C 261.167,220.833 261.833,220.167 262.5,219.5C 265.936,218.808 269.27,217.808 272.5,216.5C 275.905,215.636 279.238,214.469 282.5,213C 284.037,211.89 284.703,210.39 284.5,208.5C 285.69,206.131 287.357,204.131 289.5,202.5 Z"/></g>
<g><path style="opacity:1" fill="#b8b8b8" d="M 99.5,215.5 C 99.5,216.167 99.5,216.833 99.5,217.5C 98.1667,219.167 98.1667,220.833 99.5,222.5C 100.919,223.451 102.585,223.784 104.5,223.5C 97.9955,225.826 95.8288,223.493 98,216.5C 98.3826,215.944 98.8826,215.611 99.5,215.5 Z"/></g>
<g><path style="opacity:1" fill="#232323" d="M 131.5,217.5 C 132.605,218.6 133.938,219.267 135.5,219.5C 135.833,219.5 136.167,219.5 136.5,219.5C 138.214,220.738 140.214,221.405 142.5,221.5C 143.793,222.158 145.293,222.492 147,222.5C 149.821,222.592 152.321,221.926 154.5,220.5C 155.167,220.5 155.833,220.5 156.5,220.5C 157.239,220.369 157.906,220.536 158.5,221C 157.619,221.708 156.953,222.542 156.5,223.5C 150.536,224.307 144.536,224.64 138.5,224.5C 137.167,224.167 135.833,223.833 134.5,223.5C 133.167,221.833 131.833,220.167 130.5,218.5C 131.167,218.5 131.5,218.167 131.5,217.5 Z"/></g>
<g><path style="opacity:1" fill="#777777" d="M 154.5,220.5 C 152.321,221.926 149.821,222.592 147,222.5C 145.293,222.492 143.793,222.158 142.5,221.5C 146.534,221.495 150.534,221.162 154.5,220.5 Z"/></g>
<g><path style="opacity:1" fill="#363636" d="M 280.5,190.5 C 280.5,191.5 280.5,192.5 280.5,193.5C 279.209,193.263 278.209,193.596 277.5,194.5C 275.033,194.755 273.033,195.755 271.5,197.5C 271.167,197.5 270.833,197.5 270.5,197.5C 268.973,197.427 267.973,198.094 267.5,199.5C 265.033,199.755 263.033,200.755 261.5,202.5C 258.669,203.079 256.336,204.412 254.5,206.5C 251.669,207.079 249.336,208.412 247.5,210.5C 245.566,211.11 243.899,212.11 242.5,213.5C 240.973,213.427 239.973,214.094 239.5,215.5C 236.63,216.433 234.296,218.1 232.5,220.5C 230.973,220.427 229.973,221.094 229.5,222.5C 225.637,223.694 222.637,226.027 220.5,229.5C 218.251,230.08 216.585,231.413 215.5,233.5C 213.251,234.08 211.585,235.413 210.5,237.5C 208.205,238.136 206.539,239.469 205.5,241.5C 205.167,241.5 204.833,241.5 204.5,241.5C 201.43,241.632 198.43,241.299 195.5,240.5C 194.4,239.395 193.733,238.062 193.5,236.5C 195.284,237.956 197.284,238.956 199.5,239.5C 199.5,238.5 199.5,237.5 199.5,236.5C 199.833,236.5 200.167,236.5 200.5,236.5C 200.791,237.649 201.624,238.316 203,238.5C 204.376,238.316 205.209,237.649 205.5,236.5C 206.167,236.167 206.833,235.833 207.5,235.5C 210.792,233.542 213.792,231.209 216.5,228.5C 216.5,227.833 216.833,227.5 217.5,227.5C 220.109,226.557 222.109,224.89 223.5,222.5C 225.882,221.649 227.882,220.316 229.5,218.5C 229.5,217.833 229.833,217.5 230.5,217.5C 232.404,217.262 233.738,216.262 234.5,214.5C 237.511,213.331 240.178,211.664 242.5,209.5C 243.167,209.167 243.833,208.833 244.5,208.5C 246.853,207.66 248.853,206.326 250.5,204.5C 254.173,203 257.506,201 260.5,198.5C 262.98,197.758 265.313,196.758 267.5,195.5C 268.609,195.443 269.609,195.11 270.5,194.5C 272.027,194.573 273.027,193.906 273.5,192.5C 275.746,191.545 278.079,190.878 280.5,190.5 Z"/></g>
<g><path style="opacity:1" fill="#6b6b6b" d="M 257.5,221.5 C 258.167,221.5 258.833,221.5 259.5,221.5C 257.898,223.074 255.898,223.741 253.5,223.5C 254.514,222.326 255.847,221.66 257.5,221.5 Z"/></g>
<g><path style="opacity:1" fill="#9a9a9a" d="M 279.5,220.5 C 279.167,220.5 278.833,220.5 278.5,220.5C 278.44,219.957 278.107,219.624 277.5,219.5C 273.2,220.991 268.867,222.324 264.5,223.5C 265.058,222.21 266.058,221.377 267.5,221C 270.911,220.474 274.245,219.641 277.5,218.5C 278.713,218.747 279.38,219.414 279.5,220.5 Z"/></g>
<g><path style="opacity:1" fill="#fafafa" d="M 278.5,220.5 C 276.975,222.216 275.975,224.216 275.5,226.5C 272.288,228.562 270.288,231.562 269.5,235.5C 265.874,238.095 263.208,241.428 261.5,245.5C 258.833,246.167 257.167,247.833 256.5,250.5C 252.808,253.862 249.141,257.195 245.5,260.5C 241.827,262 238.494,264 235.5,266.5C 233.205,267.136 231.539,268.469 230.5,270.5C 229.167,270.833 227.833,271.167 226.5,271.5C 222.917,272.007 219.583,273.007 216.5,274.5C 216.167,274.5 215.833,274.5 215.5,274.5C 209.582,275.011 203.915,274.344 198.5,272.5C 198.264,269.391 198.597,266.391 199.5,263.5C 200.906,263.027 201.573,262.027 201.5,260.5C 205.548,257.119 209.215,253.452 212.5,249.5C 215.768,249.366 218.102,247.866 219.5,245C 222.947,244.731 225.614,243.231 227.5,240.5C 236.561,235.728 245.561,231.061 254.5,226.5C 255.167,226.5 255.833,226.5 256.5,226.5C 258.967,226.245 260.967,225.245 262.5,223.5C 263.167,223.5 263.833,223.5 264.5,223.5C 268.867,222.324 273.2,220.991 277.5,219.5C 278.107,219.624 278.44,219.957 278.5,220.5 Z"/></g>
<g><path style="opacity:1" fill="#858585" d="M 223.5,222.5 C 222.109,224.89 220.109,226.557 217.5,227.5C 218.865,225.14 220.865,223.473 223.5,222.5 Z"/></g>
<g><path style="opacity:1" fill="#9c9c9c" d="M 156.5,223.5 C 156.082,224.222 155.416,224.722 154.5,225C 150.863,225.717 147.196,226.217 143.5,226.5C 141.36,226.444 139.694,225.777 138.5,224.5C 144.536,224.64 150.536,224.307 156.5,223.5 Z"/></g>
<g><path style="opacity:1" fill="#959595" d="M 287.5,221.5 C 287.044,224.763 285.377,227.096 282.5,228.5C 283.456,225.561 285.123,223.228 287.5,221.5 Z"/></g>
<g><path style="opacity:1" fill="#575757" d="M 202.5,223.5 C 200.936,227.674 200.269,232.007 200.5,236.5C 200.167,236.5 199.833,236.5 199.5,236.5C 199.335,233.482 199.502,230.482 200,227.5C 200.2,225.68 201.034,224.347 202.5,223.5 Z"/></g>
<g><path style="opacity:1" fill="#a4a4a4" d="M 229.5,222.5 C 226.792,225.209 223.792,227.542 220.5,229.5C 222.637,226.027 225.637,223.694 229.5,222.5 Z"/></g>
<g><path style="opacity:1" fill="#6c6c6c" d="M 253.5,223.5 C 251.967,225.245 249.967,226.245 247.5,226.5C 249.033,224.755 251.033,223.755 253.5,223.5 Z"/></g>
<g><path style="opacity:1" fill="#929292" d="M 262.5,223.5 C 260.967,225.245 258.967,226.245 256.5,226.5C 258.033,224.755 260.033,223.755 262.5,223.5 Z"/></g>
<g><path style="opacity:1" fill="#4c4c4c" d="M 278.5,220.5 C 278.833,220.5 279.167,220.5 279.5,220.5C 278.389,223.856 276.723,226.856 274.5,229.5C 274.557,228.391 274.89,227.391 275.5,226.5C 275.975,224.216 276.975,222.216 278.5,220.5 Z"/></g>
<g><path style="opacity:1" fill="#6c6c6c" d="M 196.5,215.5 C 194.52,222.066 193.187,228.733 192.5,235.5C 191.833,235.5 191.5,235.167 191.5,234.5C 191.659,228.358 192.659,222.358 194.5,216.5C 195.167,216.167 195.833,215.833 196.5,215.5 Z"/></g>
<g><path style="opacity:1" fill="#d6d6d6" d="M 194.5,216.5 C 192.659,222.358 191.659,228.358 191.5,234.5C 190.362,231.696 190.195,228.696 191,225.5C 191.535,222.031 192.702,219.031 194.5,216.5 Z"/></g>
<g><path style="opacity:1" fill="#959595" d="M 242.5,227.5 C 242.027,228.906 241.027,229.573 239.5,229.5C 239.973,228.094 240.973,227.427 242.5,227.5 Z"/></g>
<g><path style="opacity:1" fill="#838383" d="M 216.5,228.5 C 213.792,231.209 210.792,233.542 207.5,235.5C 209.637,232.027 212.637,229.694 216.5,228.5 Z"/></g>
<g><path style="opacity:1" fill="#919191" d="M 275.5,226.5 C 274.89,227.391 274.557,228.391 274.5,229.5C 272.833,231.5 271.167,233.5 269.5,235.5C 270.288,231.562 272.288,228.562 275.5,226.5 Z"/></g>
<g><path style="opacity:1" fill="#585858" d="M 282.5,228.5 C 282.167,229.833 281.833,231.167 281.5,232.5C 280.833,232.833 280.167,233.167 279.5,233.5C 279.75,231.326 280.75,229.659 282.5,228.5 Z"/></g>
<g><path style="opacity:1" fill="#707070" d="M 239.5,229.5 C 237.967,231.245 235.967,232.245 233.5,232.5C 235.033,230.755 237.033,229.755 239.5,229.5 Z"/></g>
<g><path style="opacity:1" fill="#bbbbbb" d="M 202.5,223.5 C 202.833,223.5 203.167,223.5 203.5,223.5C 202.092,227.686 201.425,232.019 201.5,236.5C 202.833,236.5 204.167,236.5 205.5,236.5C 205.209,237.649 204.376,238.316 203,238.5C 201.624,238.316 200.791,237.649 200.5,236.5C 200.269,232.007 200.936,227.674 202.5,223.5 Z"/></g>
<g><path style="opacity:1" fill="#adadad" d="M 215.5,233.5 C 214.415,235.587 212.749,236.92 210.5,237.5C 211.585,235.413 213.251,234.08 215.5,233.5 Z"/></g>
<g><path style="opacity:1" fill="#7b7b7b" d="M 278.5,235.5 C 278.443,236.609 278.11,237.609 277.5,238.5C 277.167,238.5 276.833,238.5 276.5,238.5C 276.427,236.973 277.094,235.973 278.5,235.5 Z"/></g>
<g><path style="opacity:1" fill="#333333" d="M 259.5,221.5 C 259.833,221.5 260.167,221.5 260.5,221.5C 262.993,221.131 263.66,221.797 262.5,223.5C 260.033,223.755 258.033,224.755 256.5,226.5C 255.833,226.5 255.167,226.5 254.5,226.5C 251.081,227.374 247.748,228.54 244.5,230C 237.149,233.339 230.149,237.173 223.5,241.5C 219.249,243.425 215.583,246.092 212.5,249.5C 207.833,252.167 204.167,255.833 201.5,260.5C 200.094,260.973 199.427,261.973 199.5,263.5C 198.597,266.391 198.264,269.391 198.5,272.5C 198.953,273.458 199.619,274.292 200.5,275C 205.155,275.499 209.821,275.666 214.5,275.5C 213.048,276.302 211.382,276.802 209.5,277C 211.81,277.497 214.143,277.663 216.5,277.5C 216.5,277.833 216.5,278.167 216.5,278.5C 210.464,278.64 204.464,278.307 198.5,277.5C 198.167,276.5 197.5,275.833 196.5,275.5C 194.594,268.966 195.594,262.966 199.5,257.5C 203.833,253.833 207.833,249.833 211.5,245.5C 214.921,244.461 217.588,242.461 219.5,239.5C 223.658,238.328 227.325,236.328 230.5,233.5C 231.391,232.89 232.391,232.557 233.5,232.5C 235.967,232.245 237.967,231.245 239.5,229.5C 241.027,229.573 242.027,228.906 242.5,227.5C 244.117,226.962 245.784,226.629 247.5,226.5C 249.967,226.245 251.967,225.245 253.5,223.5C 255.898,223.741 257.898,223.074 259.5,221.5 Z"/></g>
<g><path style="opacity:1" fill="#a0a0a0" d="M 254.5,226.5 C 245.561,231.061 236.561,235.728 227.5,240.5C 226.167,240.833 224.833,241.167 223.5,241.5C 230.149,237.173 237.149,233.339 244.5,230C 247.748,228.54 251.081,227.374 254.5,226.5 Z"/></g>
<g><path style="opacity:1" fill="#cacaca" d="M 281.5,232.5 C 280.702,234.966 279.369,236.966 277.5,238.5C 278.11,237.609 278.443,236.609 278.5,235.5C 278.328,234.508 278.662,233.842 279.5,233.5C 280.167,233.167 280.833,232.833 281.5,232.5 Z"/></g>
<g><path style="opacity:1" fill="#959595" d="M 210.5,237.5 C 209.421,239.543 207.754,240.876 205.5,241.5C 206.539,239.469 208.205,238.136 210.5,237.5 Z"/></g>
<g><path style="opacity:1" fill="#a1a1a1" d="M 230.5,233.5 C 227.325,236.328 223.658,238.328 219.5,239.5C 222.446,236.407 226.113,234.407 230.5,233.5 Z"/></g>
<g><path style="opacity:1" fill="#767676" d="M 269.5,235.5 C 267.312,239.207 264.645,242.54 261.5,245.5C 263.208,241.428 265.874,238.095 269.5,235.5 Z"/></g>
<g><path style="opacity:1" fill="#bdbdbd" d="M 195.5,240.5 C 198.43,241.299 201.43,241.632 204.5,241.5C 202.034,242.634 199.367,242.801 196.5,242C 195.944,241.617 195.611,241.117 195.5,240.5 Z"/></g>
<g><path style="opacity:1" fill="#929292" d="M 219.5,239.5 C 217.588,242.461 214.921,244.461 211.5,245.5C 213.732,243.037 216.398,241.037 219.5,239.5 Z"/></g>
<g><path style="opacity:1" fill="#d2d2d2" d="M 227.5,240.5 C 225.614,243.231 222.947,244.731 219.5,245C 218.102,247.866 215.768,249.366 212.5,249.5C 215.583,246.092 219.249,243.425 223.5,241.5C 224.833,241.167 226.167,240.833 227.5,240.5 Z"/></g>
<g><path style="opacity:1" fill="#8d8d8d" d="M 261.5,245.5 C 260.167,247.167 258.833,248.833 257.5,250.5C 257.167,250.5 256.833,250.5 256.5,250.5C 257.167,247.833 258.833,246.167 261.5,245.5 Z"/></g>
<g><path style="opacity:1" fill="#b5b5b5" d="M 212.5,249.5 C 209.215,253.452 205.548,257.119 201.5,260.5C 204.167,255.833 207.833,252.167 212.5,249.5 Z"/></g>
<g><path style="opacity:1" fill="#707070" d="M 211.5,245.5 C 207.833,249.833 203.833,253.833 199.5,257.5C 202.5,252.5 206.5,248.5 211.5,245.5 Z"/></g>
<g><path style="opacity:1" fill="#878787" d="M 276.5,238.5 C 270.167,249.5 261.5,258.167 250.5,264.5C 260.167,256.833 268.833,248.167 276.5,238.5 Z"/></g>
<g><path style="opacity:1" fill="#6e6e6e" d="M 256.5,250.5 C 256.833,250.5 257.167,250.5 257.5,250.5C 254.126,254.876 250.126,258.542 245.5,261.5C 245.5,261.167 245.5,260.833 245.5,260.5C 249.141,257.195 252.808,253.862 256.5,250.5 Z"/></g>
<g><path style="opacity:1" fill="#989898" d="M 245.5,260.5 C 245.5,260.833 245.5,261.167 245.5,261.5C 242.797,263.181 240.131,264.847 237.5,266.5C 236.833,266.5 236.167,266.5 235.5,266.5C 238.494,264 241.827,262 245.5,260.5 Z"/></g>
<g><path style="opacity:1" fill="#b0b0b0" d="M 199.5,257.5 C 195.594,262.966 194.594,268.966 196.5,275.5C 195.833,275.167 195.167,274.833 194.5,274.5C 194.334,270.154 194.501,265.821 195,261.5C 196.307,259.808 197.807,258.475 199.5,257.5 Z"/></g>
<g><path style="opacity:1" fill="#898989" d="M 201.5,260.5 C 201.573,262.027 200.906,263.027 199.5,263.5C 199.427,261.973 200.094,260.973 201.5,260.5 Z"/></g>
<g><path style="opacity:1" fill="#757575" d="M 250.5,264.5 C 250.027,265.906 249.027,266.573 247.5,266.5C 247.973,265.094 248.973,264.427 250.5,264.5 Z"/></g>
<g><path style="opacity:1" fill="#767676" d="M 247.5,266.5 C 247.027,267.906 246.027,268.573 244.5,268.5C 244.973,267.094 245.973,266.427 247.5,266.5 Z"/></g>
<g><path style="opacity:1" fill="#646464" d="M 235.5,266.5 C 236.167,266.5 236.833,266.5 237.5,266.5C 235.664,268.588 233.331,269.921 230.5,270.5C 231.539,268.469 233.205,267.136 235.5,266.5 Z"/></g>
<g><path style="opacity:1" fill="#888888" d="M 244.5,268.5 C 244.027,269.906 243.027,270.573 241.5,270.5C 241.973,269.094 242.973,268.427 244.5,268.5 Z"/></g>
<g><path style="opacity:1" fill="#5e5e5e" d="M 237.5,271.5 C 237.167,272.167 236.833,272.833 236.5,273.5C 235.833,273.5 235.167,273.5 234.5,273.5C 234.973,272.094 235.973,271.427 237.5,271.5 Z"/></g>
<g><path style="opacity:1" fill="#aeaeae" d="M 241.5,270.5 C 240.514,272.408 238.848,273.408 236.5,273.5C 236.833,272.833 237.167,272.167 237.5,271.5C 238.833,271.167 240.167,270.833 241.5,270.5 Z"/></g>
<g><path style="opacity:1" fill="#818181" d="M 226.5,271.5 C 226.389,272.117 226.056,272.617 225.5,273C 222.522,273.696 219.522,274.196 216.5,274.5C 219.583,273.007 222.917,272.007 226.5,271.5 Z"/></g>
<g><path style="opacity:1" fill="#a5a5a5" d="M 198.5,272.5 C 203.915,274.344 209.582,275.011 215.5,274.5C 215.5,275.167 215.167,275.5 214.5,275.5C 209.821,275.666 205.155,275.499 200.5,275C 199.619,274.292 198.953,273.458 198.5,272.5 Z"/></g>
<g><path style="opacity:1" fill="#222222" d="M 230.5,270.5 C 230.119,271.931 229.119,272.764 227.5,273C 229.134,273.494 230.801,273.66 232.5,273.5C 230.5,274.5 228.5,275.5 226.5,276.5C 226.167,276.5 225.833,276.5 225.5,276.5C 222.518,276.963 219.518,277.296 216.5,277.5C 214.143,277.663 211.81,277.497 209.5,277C 211.382,276.802 213.048,276.302 214.5,275.5C 215.167,275.5 215.5,275.167 215.5,274.5C 215.833,274.5 216.167,274.5 216.5,274.5C 219.522,274.196 222.522,273.696 225.5,273C 226.056,272.617 226.389,272.117 226.5,271.5C 227.833,271.167 229.167,270.833 230.5,270.5 Z"/></g>
<g><path style="opacity:1" fill="#9d9d9d" d="M 232.5,273.5 C 233.167,273.5 233.833,273.5 234.5,273.5C 232.383,275.655 229.716,276.655 226.5,276.5C 228.5,275.5 230.5,274.5 232.5,273.5 Z"/></g>
<g><path style="opacity:1" fill="#a6a6a6" d="M 225.5,276.5 C 224.365,278.213 222.698,278.88 220.5,278.5C 219.167,278.5 217.833,278.5 216.5,278.5C 216.5,278.167 216.5,277.833 216.5,277.5C 219.518,277.296 222.518,276.963 225.5,276.5 Z"/></g>
<g><path style="opacity:1" fill="#e4e4e4" d="M 194.5,274.5 C 195.167,274.833 195.833,275.167 196.5,275.5C 197.5,275.833 198.167,276.5 198.5,277.5C 198.918,278.222 199.584,278.722 200.5,279C 206.016,279.817 211.35,279.651 216.5,278.5C 217.833,278.5 219.167,278.5 220.5,278.5C 220.389,279.117 220.056,279.617 219.5,280C 212.833,280.667 206.167,280.667 199.5,280C 197.234,278.574 195.567,276.741 194.5,274.5 Z"/></g>
<g><path style="opacity:1" fill="#818181" d="M 198.5,277.5 C 204.464,278.307 210.464,278.64 216.5,278.5C 211.35,279.651 206.016,279.817 200.5,279C 199.584,278.722 198.918,278.222 198.5,277.5 Z"/></g>
<g><path style="opacity:1" fill="#b0b0b0" d="M 171.5,294.5 C 171.167,294.5 170.833,294.5 170.5,294.5C 167.428,294.183 164.428,294.516 161.5,295.5C 161.863,296.183 162.196,296.85 162.5,297.5C 160.824,296.817 160.157,295.483 160.5,293.5C 164.371,293.185 168.038,293.518 171.5,294.5 Z"/></g>
<g><path style="opacity:1" fill="#afafaf" d="M 259.5,294.5 C 262.718,292.816 265.385,293.483 267.5,296.5C 265.118,294.954 262.451,294.287 259.5,294.5 Z"/></g>
<g><path style="opacity:1" fill="#939393" d="M 193.5,294.5 C 194.833,294.5 196.167,294.5 197.5,294.5C 197.769,298.931 197.436,303.265 196.5,307.5C 196.167,307.5 195.833,307.5 195.5,307.5C 196.698,303.512 196.698,299.512 195.5,295.5C 194.833,298.642 194.166,301.642 193.5,304.5C 193.5,301.167 193.5,297.833 193.5,294.5 Z"/></g>
<g><path style="opacity:1" fill="#464646" d="M 218.5,294.5 C 219.795,295.488 221.128,296.488 222.5,297.5C 223.219,299.764 223.552,302.097 223.5,304.5C 222.833,304.5 222.5,304.833 222.5,305.5C 221.833,303.5 221.167,301.5 220.5,299.5C 219.833,299.167 219.167,298.833 218.5,298.5C 217.081,297.549 215.415,297.216 213.5,297.5C 213.19,300.713 213.523,303.713 214.5,306.5C 214.179,308.048 213.179,308.715 211.5,308.5C 210.514,304.03 210.181,299.363 210.5,294.5C 213.167,294.5 215.833,294.5 218.5,294.5 Z"/></g>
<g><path style="opacity:1" fill="#3f3f3f" d="M 259.5,294.5 C 262.451,294.287 265.118,294.954 267.5,296.5C 269.226,298.82 269.893,301.487 269.5,304.5C 268.094,304.973 267.427,305.973 267.5,307.5C 263.974,309.54 260.308,309.873 256.5,308.5C 255.4,307.395 254.733,306.062 254.5,304.5C 254.049,300.896 255.049,297.896 257.5,295.5C 257.842,294.662 258.508,294.328 259.5,294.5 Z"/></g>
<g><path style="opacity:1" fill="#b2b2b2" d="M 265.5,299.5 C 260.232,297.14 257.566,298.806 257.5,304.5C 255.85,298.654 258.183,296.487 264.5,298C 265.056,298.383 265.389,298.883 265.5,299.5 Z"/></g>
<g><path style="opacity:1" fill="#c0c0c0" d="M 146.5,294.5 C 148.844,294.506 150.178,295.673 150.5,298C 150.227,299.533 149.894,301.033 149.5,302.5C 149.167,302.5 148.833,302.5 148.5,302.5C 149.096,300.602 149.096,298.935 148.5,297.5C 147.833,296.5 147.167,295.5 146.5,294.5 Z"/></g>
<g><path style="opacity:1" fill="#4a4a4a" d="M 170.5,294.5 C 170.179,296.048 169.179,296.715 167.5,296.5C 167.5,300.5 167.5,304.5 167.5,308.5C 166.5,308.5 165.5,308.5 164.5,308.5C 165.08,304.351 164.414,300.684 162.5,297.5C 162.196,296.85 161.863,296.183 161.5,295.5C 164.428,294.516 167.428,294.183 170.5,294.5 Z"/></g>
<g><path style="opacity:1" fill="#b2b2b2" d="M 218.5,298.5 C 217.167,298.5 215.833,298.5 214.5,298.5C 214.5,300.833 214.5,303.167 214.5,305.5C 215.833,305.5 217.167,305.5 218.5,305.5C 217.432,306.434 216.099,306.768 214.5,306.5C 213.523,303.713 213.19,300.713 213.5,297.5C 215.415,297.216 217.081,297.549 218.5,298.5 Z"/></g>
<g><path style="opacity:1" fill="#c3c3c3" d="M 289.5,294.5 C 291.844,294.506 293.178,295.673 293.5,298C 293.583,301.55 293.083,305.05 292,308.5C 288.377,310.821 284.543,311.154 280.5,309.5C 280.025,306.918 280.692,304.918 282.5,303.5C 282.232,305.099 282.566,306.432 283.5,307.5C 290.253,310.248 292.586,308.248 290.5,301.5C 291.141,300.518 291.807,299.518 292.5,298.5C 292.376,297.893 292.043,297.56 291.5,297.5C 290.833,296.5 290.167,295.5 289.5,294.5 Z"/></g>
<g><path style="opacity:1" fill="#858585" d="M 148.5,297.5 C 149.096,298.935 149.096,300.602 148.5,302.5C 146.858,300.919 144.858,300.253 142.5,300.5C 142.5,299.5 142.5,298.5 142.5,297.5C 144.741,297.954 146.741,297.954 148.5,297.5 Z"/></g>
<g><path style="opacity:1" fill="#d6d6d6" d="M 171.5,294.5 C 172.434,295.568 172.768,296.901 172.5,298.5C 171.5,298.5 170.5,298.5 169.5,298.5C 169.813,302.042 169.479,305.375 168.5,308.5C 168.5,304.833 168.5,301.167 168.5,297.5C 169.5,297.5 170.5,297.5 171.5,297.5C 171.5,296.5 171.5,295.5 171.5,294.5 Z"/></g>
<g><path style="opacity:1" fill="#d5d5d5" d="M 237.5,294.5 C 238.568,293.566 239.901,293.232 241.5,293.5C 241.821,298.695 241.487,303.695 240.5,308.5C 240.819,303.637 240.486,298.97 239.5,294.5C 238.833,294.5 238.167,294.5 237.5,294.5 Z"/></g>
<g><path style="opacity:1" fill="#878787" d="M 291.5,297.5 C 292.043,297.56 292.376,297.893 292.5,298.5C 291.807,299.518 291.141,300.518 290.5,301.5C 287.412,301.803 285.746,300.47 285.5,297.5C 287.741,297.954 289.741,297.954 291.5,297.5 Z"/></g>
<g><path style="opacity:1" fill="#838383" d="M 170.5,294.5 C 170.833,294.5 171.167,294.5 171.5,294.5C 171.5,295.5 171.5,296.5 171.5,297.5C 170.5,297.5 169.5,297.5 168.5,297.5C 168.5,301.167 168.5,304.833 168.5,308.5C 168.167,308.5 167.833,308.5 167.5,308.5C 167.5,304.5 167.5,300.5 167.5,296.5C 169.179,296.715 170.179,296.048 170.5,294.5 Z"/></g>
<g><path style="opacity:1" fill="#c6c6c6" d="M 183.5,294.5 C 184.919,293.549 186.585,293.216 188.5,293.5C 188.5,297.167 188.5,300.833 188.5,304.5C 189.833,304.5 191.167,304.5 192.5,304.5C 192.187,300.958 192.521,297.625 193.5,294.5C 193.5,297.833 193.5,301.167 193.5,304.5C 191.912,306.616 189.912,306.949 187.5,305.5C 187.227,301.405 186.227,297.738 184.5,294.5C 184.167,294.5 183.833,294.5 183.5,294.5 Z"/></g>
<g><path style="opacity:1" fill="#7d7d7d" d="M 257.5,295.5 C 255.049,297.896 254.049,300.896 254.5,304.5C 252.069,302.058 252.069,299.391 254.5,296.5C 255.417,295.873 256.417,295.539 257.5,295.5 Z"/></g>
<g><path style="opacity:1" fill="#414141" d="M 146.5,294.5 C 147.167,295.5 147.833,296.5 148.5,297.5C 146.741,297.954 144.741,297.954 142.5,297.5C 142.5,298.5 142.5,299.5 142.5,300.5C 144.858,300.253 146.858,300.919 148.5,302.5C 148.833,302.5 149.167,302.5 149.5,302.5C 149.349,307.649 146.682,309.982 141.5,309.5C 141.167,308.833 140.833,308.167 140.5,307.5C 140.281,306.325 140.614,305.325 141.5,304.5C 142.842,306.005 144.508,306.672 146.5,306.5C 146.719,305.325 146.386,304.325 145.5,303.5C 141.15,303.114 139.483,300.781 140.5,296.5C 141.99,294.72 143.99,294.054 146.5,294.5 Z"/></g>
<g><path style="opacity:1" fill="#959595" d="M 222.5,297.5 C 223.117,297.611 223.617,297.944 224,298.5C 224.495,300.473 224.662,302.473 224.5,304.5C 224.167,304.5 223.833,304.5 223.5,304.5C 223.552,302.097 223.219,299.764 222.5,297.5 Z"/></g>
<g><path style="opacity:1" fill="#e9e9e9" d="M 265.5,299.5 C 266.843,301.683 266.51,303.683 264.5,305.5C 262.097,305.552 259.764,305.219 257.5,304.5C 257.566,298.806 260.232,297.14 265.5,299.5 Z"/></g>
<g><path style="opacity:1" fill="#3d3d3d" d="M 289.5,294.5 C 290.167,295.5 290.833,296.5 291.5,297.5C 289.741,297.954 287.741,297.954 285.5,297.5C 285.746,300.47 287.412,301.803 290.5,301.5C 292.586,308.248 290.253,310.248 283.5,307.5C 283.351,306.448 283.517,305.448 284,304.5C 285.444,306.155 287.278,306.822 289.5,306.5C 289.5,305.5 289.5,304.5 289.5,303.5C 283.802,303.325 282.136,300.658 284.5,295.5C 285.919,294.549 287.585,294.216 289.5,294.5 Z"/></g>
<g><path style="opacity:1" fill="#919191" d="M 284.5,295.5 C 282.136,300.658 283.802,303.325 289.5,303.5C 289.5,304.5 289.5,305.5 289.5,306.5C 287.278,306.822 285.444,306.155 284,304.5C 283.517,305.448 283.351,306.448 283.5,307.5C 282.566,306.432 282.232,305.099 282.5,303.5C 281.833,301.181 281.666,298.847 282,296.5C 282.671,295.748 283.504,295.414 284.5,295.5 Z"/></g>
<g><path style="opacity:1" fill="#919191" d="M 140.5,296.5 C 139.483,300.781 141.15,303.114 145.5,303.5C 146.386,304.325 146.719,305.325 146.5,306.5C 144.508,306.672 142.842,306.005 141.5,304.5C 140.614,305.325 140.281,306.325 140.5,307.5C 139.167,303.833 139.167,300.167 140.5,296.5 Z"/></g>
<g><path style="opacity:1" fill="#e8e8e8" d="M 218.5,298.5 C 219.167,298.833 219.833,299.167 220.5,299.5C 220.946,302.01 220.28,304.01 218.5,305.5C 217.167,305.5 215.833,305.5 214.5,305.5C 214.5,303.167 214.5,300.833 214.5,298.5C 215.833,298.5 217.167,298.5 218.5,298.5 Z"/></g>
<g><path style="opacity:1" fill="#d7d7d7" d="M 218.5,294.5 C 215.833,294.5 213.167,294.5 210.5,294.5C 210.181,299.363 210.514,304.03 211.5,308.5C 214.362,309.681 217.362,309.681 220.5,308.5C 219.393,310.931 217.393,311.931 214.5,311.5C 212.307,311.674 210.473,311.007 209,309.5C 208.501,304.177 208.334,298.844 208.5,293.5C 212.042,293.187 215.375,293.521 218.5,294.5 Z"/></g>
<g><path style="opacity:1" fill="#aaaaaa" d="M 257.5,304.5 C 259.764,305.219 262.097,305.552 264.5,305.5C 263.726,306.147 262.726,306.48 261.5,306.5C 259.645,306.66 258.312,305.993 257.5,304.5 Z"/></g>
<g><path style="opacity:1" fill="#9b9b9b" d="M 269.5,304.5 C 269.573,306.027 268.906,307.027 267.5,307.5C 267.427,305.973 268.094,304.973 269.5,304.5 Z"/></g>
<g><path style="opacity:1" fill="#4c4c4c" d="M 184.5,294.5 C 186.227,297.738 187.227,301.405 187.5,305.5C 189.912,306.949 191.912,306.616 193.5,304.5C 194.166,301.642 194.833,298.642 195.5,295.5C 196.698,299.512 196.698,303.512 195.5,307.5C 191.589,310.42 188.089,310.087 185,306.5C 184.501,302.514 184.334,298.514 184.5,294.5 Z"/></g>
<g><path style="opacity:1" fill="#555555" d="M 220.5,299.5 C 221.167,301.5 221.833,303.5 222.5,305.5C 221.833,306.5 221.167,307.5 220.5,308.5C 217.362,309.681 214.362,309.681 211.5,308.5C 213.179,308.715 214.179,308.048 214.5,306.5C 216.099,306.768 217.432,306.434 218.5,305.5C 220.28,304.01 220.946,302.01 220.5,299.5 Z"/></g>
<g><path style="opacity:1" fill="#c9c9c9" d="M 223.5,304.5 C 223.833,304.5 224.167,304.5 224.5,304.5C 224.475,307.179 223.142,308.512 220.5,308.5C 221.167,307.5 221.833,306.5 222.5,305.5C 222.5,304.833 222.833,304.5 223.5,304.5 Z"/></g>
<g><path style="opacity:1" fill="#d5d5d5" d="M 149.5,302.5 C 151.684,310.406 149.017,312.74 141.5,309.5C 146.682,309.982 149.349,307.649 149.5,302.5 Z"/></g>
<g><path style="opacity:1" fill="#bbbbbb" d="M 183.5,294.5 C 183.833,294.5 184.167,294.5 184.5,294.5C 184.334,298.514 184.501,302.514 185,306.5C 188.089,310.087 191.589,310.42 195.5,307.5C 195.833,307.5 196.167,307.5 196.5,307.5C 195.942,308.79 194.942,309.623 193.5,310C 189.719,311.098 186.553,310.265 184,307.5C 183.501,303.179 183.334,298.846 183.5,294.5 Z"/></g>
<g><path style="opacity:1" fill="#aaaaaa" d="M 237.5,294.5 C 238.167,313.167 238.833,313.167 239.5,294.5C 240.486,298.97 240.819,303.637 240.5,308.5C 239.817,310.176 238.483,310.843 236.5,310.5C 236.179,304.974 236.512,299.64 237.5,294.5 Z"/></g>
<g><path style="opacity:1" fill="#464646" d="M 237.5,294.5 C 238.167,294.5 238.833,294.5 239.5,294.5C 238.833,313.167 238.167,313.167 237.5,294.5 Z"/></g>
<g><path style="opacity:1" fill="#d2d2d2" d="M 267.5,296.5 C 269.017,296.511 270.184,297.177 271,298.5C 272.734,306.764 269.4,310.764 261,310.5C 259.014,310.431 257.514,309.765 256.5,308.5C 260.308,309.873 263.974,309.54 267.5,307.5C 268.906,307.027 269.573,306.027 269.5,304.5C 269.893,301.487 269.226,298.82 267.5,296.5 Z"/></g>
</svg>
