<?xml version="1.0" encoding="UTF-8"?>
<!DOCTYPE svg PUBLIC "-//W3C//DTD SVG 1.1//EN" "http://www.w3.org/Graphics/SVG/1.1/DTD/svg11.dtd">
<svg xmlns="http://www.w3.org/2000/svg" version="1.1" width="469px" height="469px" style="shape-rendering:geometricPrecision; text-rendering:geometricPrecision; image-rendering:optimizeQuality; fill-rule:evenodd; clip-rule:evenodd" xmlns:xlink="http://www.w3.org/1999/xlink">
<g><path style="opacity:1" fill="#fefefe" d="M -0.5,-0.5 C 155.833,-0.5 312.167,-0.5 468.5,-0.5C 468.5,155.833 468.5,312.167 468.5,468.5C 312.167,468.5 155.833,468.5 -0.5,468.5C -0.5,312.167 -0.5,155.833 -0.5,-0.5 Z"/></g>
<g><path style="opacity:1" fill="#80807e" d="M 311.5,202.5 C 309.396,202.201 307.396,202.534 305.5,203.5C 306.309,205.071 306.643,206.738 306.5,208.5C 304.837,206.562 304.171,204.228 304.5,201.5C 307.059,201.198 309.393,201.532 311.5,202.5 Z"/></g>
<g><path style="opacity:1" fill="#808080" d="M 336.5,202.5 C 338.948,201.527 341.615,201.194 344.5,201.5C 344.737,202.791 344.404,203.791 343.5,204.5C 341.721,202.656 339.388,201.99 336.5,202.5 Z"/></g>
<g><path style="opacity:1" fill="#7d7d7d" d="M 357.5,201.5 C 360.059,201.198 362.393,201.532 364.5,202.5C 362.265,202.205 360.265,202.539 358.5,203.5C 358.167,203.5 357.833,203.5 357.5,203.5C 357.5,202.833 357.5,202.167 357.5,201.5 Z"/></g>
<g><path style="opacity:1" fill="#6b6b6b" d="M 409.5,201.5 C 410.461,203.265 410.795,205.265 410.5,207.5C 410.167,207.5 409.833,207.5 409.5,207.5C 409.5,205.833 409.5,204.167 409.5,202.5C 400.983,202.174 392.65,202.507 384.5,203.5C 384.5,216.833 384.5,230.167 384.5,243.5C 383.504,230.01 383.171,216.344 383.5,202.5C 391.984,201.507 400.651,201.174 409.5,201.5 Z"/></g>
<g><path style="opacity:1" fill="#af7778" d="M 251.5,201.5 C 254.219,204.27 255.885,207.604 256.5,211.5C 254.566,209.24 252.899,206.74 251.5,204C 249.527,203.505 247.527,203.338 245.5,203.5C 245.5,204.5 245.5,205.5 245.5,206.5C 244.069,205.22 243.402,203.553 243.5,201.5C 246.167,201.5 248.833,201.5 251.5,201.5 Z"/></g>
<g><path style="opacity:1" fill="#d4d4d4" d="M 357.5,201.5 C 360.23,200.183 363.063,200.183 366,201.5C 366.827,216.006 366.661,230.339 365.5,244.5C 365.829,230.323 365.496,216.323 364.5,202.5C 362.393,201.532 360.059,201.198 357.5,201.5 Z"/></g>
<g><path style="opacity:1" fill="#b0b0b0" d="M 73.5,202.5 C 67.8333,202.5 62.1667,202.5 56.5,202.5C 56.5,216.5 56.5,230.5 56.5,244.5C 56.1667,244.5 55.8333,244.5 55.5,244.5C 55.3334,230.163 55.5001,215.829 56,201.5C 61.4162,200.361 66.9162,200.194 72.5,201C 73.056,201.383 73.3893,201.883 73.5,202.5 Z"/></g>
<g><path style="opacity:1" fill="#515151" d="M 73.5,202.5 C 75.099,202.232 76.4324,202.566 77.5,203.5C 70.8333,203.5 64.1667,203.5 57.5,203.5C 57.5,216.833 57.5,230.167 57.5,243.5C 64.1667,243.5 70.8333,243.5 77.5,243.5C 70.6866,244.491 63.6866,244.825 56.5,244.5C 56.5,230.5 56.5,216.5 56.5,202.5C 62.1667,202.5 67.8333,202.5 73.5,202.5 Z"/></g>
<g><path style="opacity:1" fill="#101010" d="M 77.5,203.5 C 79.0764,204.143 80.4097,205.143 81.5,206.5C 83.1783,209.552 83.845,212.885 83.5,216.5C 82.741,218.436 81.741,220.269 80.5,222C 80.8361,223.03 81.5028,223.53 82.5,223.5C 82.8333,224.167 83.1667,224.833 83.5,225.5C 84.7694,230.486 84.7694,235.486 83.5,240.5C 81.597,240.796 79.9303,241.463 78.5,242.5C 78.5,243.167 78.1667,243.5 77.5,243.5C 70.8333,243.5 64.1667,243.5 57.5,243.5C 57.5,230.167 57.5,216.833 57.5,203.5C 64.1667,203.5 70.8333,203.5 77.5,203.5 Z"/></g>
<g><path style="opacity:1" fill="#ababab" d="M 77.5,203.5 C 80.285,202.916 81.9517,203.916 82.5,206.5C 82.1667,206.5 81.8333,206.5 81.5,206.5C 80.4097,205.143 79.0764,204.143 77.5,203.5 Z"/></g>
<g><path style="opacity:1" fill="#dbdbdb" d="M 128.5,201.5 C 119.5,201.5 110.5,201.5 101.5,201.5C 101.333,215.837 101.5,230.171 102,244.5C 111.083,245.485 120.249,245.818 129.5,245.5C 120.014,246.494 110.348,246.827 100.5,246.5C 100.5,231.167 100.5,215.833 100.5,200.5C 110.015,200.173 119.348,200.506 128.5,201.5 Z"/></g>
<g><path style="opacity:1" fill="#939393" d="M 128.5,201.5 C 128.5,201.833 128.5,202.167 128.5,202.5C 119.833,202.5 111.167,202.5 102.5,202.5C 102.171,216.344 102.504,230.01 103.5,243.5C 111.984,244.493 120.651,244.826 129.5,244.5C 129.5,244.833 129.5,245.167 129.5,245.5C 120.249,245.818 111.083,245.485 102,244.5C 101.5,230.171 101.333,215.837 101.5,201.5C 110.5,201.5 119.5,201.5 128.5,201.5 Z"/></g>
<g><path style="opacity:1" fill="#515151" d="M 146.5,203.5 C 146.5,216.833 146.5,230.167 146.5,243.5C 154.167,243.5 161.833,243.5 169.5,243.5C 169.5,241.833 169.5,240.167 169.5,238.5C 170.461,240.265 170.795,242.265 170.5,244.5C 162.167,244.5 153.833,244.5 145.5,244.5C 145.171,230.656 145.504,216.99 146.5,203.5 Z"/></g>
<g><path style="opacity:1" fill="#060606" d="M 146.5,203.5 C 148.167,203.5 149.833,203.5 151.5,203.5C 151.172,215.012 151.505,226.346 152.5,237.5C 157.975,238.489 163.642,238.822 169.5,238.5C 169.5,240.167 169.5,241.833 169.5,243.5C 161.833,243.5 154.167,243.5 146.5,243.5C 146.5,230.167 146.5,216.833 146.5,203.5 Z"/></g>
<g><path style="opacity:1" fill="#878787" d="M 169.5,237.5 C 169.5,237.833 169.5,238.167 169.5,238.5C 163.642,238.822 157.975,238.489 152.5,237.5C 152.5,225.833 152.5,214.167 152.5,202.5C 150.265,202.205 148.265,202.539 146.5,203.5C 145.504,216.99 145.171,230.656 145.5,244.5C 144.504,230.343 144.171,216.01 144.5,201.5C 147.5,201.5 150.5,201.5 153.5,201.5C 153.5,213.5 153.5,225.5 153.5,237.5C 158.833,237.5 164.167,237.5 169.5,237.5 Z"/></g>
<g><path style="opacity:1" fill="#303030" d="M 146.5,203.5 C 148.265,202.539 150.265,202.205 152.5,202.5C 152.5,214.167 152.5,225.833 152.5,237.5C 151.505,226.346 151.172,215.012 151.5,203.5C 149.833,203.5 148.167,203.5 146.5,203.5 Z"/></g>
<g><path style="opacity:1" fill="#b4b4b4" d="M 191.5,201.5 C 189.167,201.5 186.833,201.5 184.5,201.5C 184.171,215.677 184.504,229.677 185.5,243.5C 193.316,244.492 201.316,244.826 209.5,244.5C 209.5,244.833 209.5,245.167 209.5,245.5C 200.915,245.817 192.415,245.483 184,244.5C 183.5,229.837 183.333,215.17 183.5,200.5C 186.385,200.194 189.052,200.527 191.5,201.5 Z"/></g>
<g><path style="opacity:1" fill="#7f94a2" d="M 301.5,202.5 C 303.353,207.6 305.353,212.6 307.5,217.5C 304.688,214.558 302.355,211.225 300.5,207.5C 298.829,209.51 298.162,211.843 298.5,214.5C 296.528,211.016 294.528,207.349 292.5,203.5C 295.428,202.516 298.428,202.183 301.5,202.5 Z"/></g>
<g><path style="opacity:1" fill="#2c2a28" d="M 311.5,202.5 C 312.906,202.973 313.573,203.973 313.5,205.5C 311.858,203.919 309.858,203.253 307.5,203.5C 307.517,205.565 307.85,207.565 308.5,209.5C 307.833,209.167 307.167,208.833 306.5,208.5C 306.643,206.738 306.309,205.071 305.5,203.5C 307.396,202.534 309.396,202.201 311.5,202.5 Z"/></g>
<g><path style="opacity:1" fill="#9c9c9c" d="M 383.5,202.5 C 383.171,216.344 383.504,230.01 384.5,243.5C 392.984,244.493 401.651,244.826 410.5,244.5C 401.265,245.816 391.932,245.816 382.5,244.5C 382.171,230.323 382.504,216.323 383.5,202.5 Z"/></g>
<g><path style="opacity:1" fill="#0b0b0b" d="M 384.5,203.5 C 392.5,203.5 400.5,203.5 408.5,203.5C 408.5,204.5 408.5,205.5 408.5,206.5C 402.31,206.177 396.31,206.51 390.5,207.5C 390.182,212.032 390.515,216.366 391.5,220.5C 395.97,221.486 400.637,221.819 405.5,221.5C 405.5,222.5 405.5,223.5 405.5,224.5C 400.305,224.179 395.305,224.513 390.5,225.5C 390.5,225.833 390.5,226.167 390.5,226.5C 390.5,230.167 390.5,233.833 390.5,237.5C 396.979,238.491 403.646,238.824 410.5,238.5C 410.5,240.167 410.5,241.833 410.5,243.5C 401.833,243.5 393.167,243.5 384.5,243.5C 384.5,230.167 384.5,216.833 384.5,203.5 Z"/></g>
<g><path style="opacity:1" fill="#5d5c5b" d="M 237.5,202.5 C 238.492,202.328 239.158,202.662 239.5,203.5C 238.9,204.9 237.9,205.9 236.5,206.5C 236.833,205.167 237.167,203.833 237.5,202.5 Z"/></g>
<g><path style="opacity:1" fill="#151415" d="M 336.5,202.5 C 339.388,201.99 341.721,202.656 343.5,204.5C 341.541,206.785 340.208,209.451 339.5,212.5C 339.5,212.833 339.5,213.167 339.5,213.5C 338.094,213.973 337.427,214.973 337.5,216.5C 337.167,217.167 336.833,217.833 336.5,218.5C 334.787,219.635 334.12,221.302 334.5,223.5C 333.89,224.391 333.557,225.391 333.5,226.5C 332.094,226.973 331.427,227.973 331.5,229.5C 329.787,230.635 329.12,232.302 329.5,234.5C 328.833,234.5 328.5,234.833 328.5,235.5C 327.094,235.973 326.427,236.973 326.5,238.5C 326.167,239.833 325.833,241.167 325.5,242.5C 324.761,242.631 324.094,242.464 323.5,242C 322.601,240.348 321.601,238.848 320.5,237.5C 320.245,235.033 319.245,233.033 317.5,231.5C 317.5,230.833 317.5,230.167 317.5,229.5C 317.573,227.973 316.906,226.973 315.5,226.5C 315.167,225.833 314.833,225.167 314.5,224.5C 314.88,222.302 314.213,220.635 312.5,219.5C 310.262,216.57 308.929,213.237 308.5,209.5C 307.85,207.565 307.517,205.565 307.5,203.5C 309.858,203.253 311.858,203.919 313.5,205.5C 313.157,207.483 313.824,208.817 315.5,209.5C 315.166,212.491 316.166,214.824 318.5,216.5C 319.11,218.434 320.11,220.101 321.5,221.5C 321.756,224.24 322.756,226.574 324.5,228.5C 325.298,228.043 325.631,227.376 325.5,226.5C 327.088,224.887 328.088,222.887 328.5,220.5C 328.557,219.391 328.89,218.391 329.5,217.5C 330.674,216.486 331.34,215.153 331.5,213.5C 331.5,213.167 331.5,212.833 331.5,212.5C 333.661,209.512 335.327,206.179 336.5,202.5 Z"/></g>
<g><path style="opacity:1" fill="#686868" d="M 191.5,201.5 C 192.495,213.322 192.828,225.322 192.5,237.5C 198.167,237.5 203.833,237.5 209.5,237.5C 209.5,237.833 209.5,238.167 209.5,238.5C 209.167,238.5 208.833,238.5 208.5,238.5C 202.833,238.5 197.167,238.5 191.5,238.5C 191.5,226.5 191.5,214.5 191.5,202.5C 189.5,202.5 187.5,202.5 185.5,202.5C 185.5,216.167 185.5,229.833 185.5,243.5C 184.504,229.677 184.171,215.677 184.5,201.5C 186.833,201.5 189.167,201.5 191.5,201.5 Z"/></g>
<g><path style="opacity:1" fill="#c7896f" d="M 264.5,202.5 C 265.117,202.611 265.617,202.944 266,203.5C 267.131,206.445 267.964,209.445 268.5,212.5C 266.52,211.152 265.353,209.152 265,206.5C 262.906,204.216 260.74,203.716 258.5,205C 259.856,206.567 260.523,208.4 260.5,210.5C 258.127,208.421 256.794,205.754 256.5,202.5C 259.167,202.5 261.833,202.5 264.5,202.5 Z"/></g>
<g><path style="opacity:1" fill="#222222" d="M 384.5,203.5 C 392.65,202.507 400.983,202.174 409.5,202.5C 409.5,204.167 409.5,205.833 409.5,207.5C 403.167,207.5 396.833,207.5 390.5,207.5C 396.31,206.51 402.31,206.177 408.5,206.5C 408.5,205.5 408.5,204.5 408.5,203.5C 400.5,203.5 392.5,203.5 384.5,203.5 Z"/></g>
<g><path style="opacity:1" fill="#6d6d6d" d="M 75.5,209.5 C 71.6992,208.285 68.0326,208.285 64.5,209.5C 64.1667,209.5 63.8333,209.5 63.5,209.5C 64.8714,208.213 66.7047,207.547 69,207.5C 70.8333,207.667 72.6667,207.833 74.5,208C 75.056,208.383 75.3893,208.883 75.5,209.5 Z"/></g>
<g><path style="opacity:1" fill="#a0a0a0" d="M 336.5,202.5 C 335.327,206.179 333.661,209.512 331.5,212.5C 332.134,208.565 333.801,205.231 336.5,202.5 Z"/></g>
<g><path style="opacity:1" fill="#1e1e1e" d="M 364.5,202.5 C 364.5,202.833 364.5,203.167 364.5,203.5C 362.833,203.5 361.167,203.5 359.5,203.5C 359.5,216.833 359.5,230.167 359.5,243.5C 358.504,230.344 358.171,217.01 358.5,203.5C 360.265,202.539 362.265,202.205 364.5,202.5 Z"/></g>
<g><path style="opacity:1" fill="#b6b6b6" d="M 128.5,202.5 C 128.5,202.167 128.5,201.833 128.5,201.5C 129.725,202.152 130.392,203.319 130.5,205C 130.441,206.436 130.108,207.769 129.5,209C 123.509,209.499 117.509,209.666 111.5,209.5C 111.5,212.5 111.5,215.5 111.5,218.5C 116.179,218.334 120.845,218.501 125.5,219C 126.056,219.383 126.389,219.883 126.5,220.5C 126.167,220.5 125.833,220.5 125.5,220.5C 120.167,220.5 114.833,220.5 109.5,220.5C 109.5,216.5 109.5,212.5 109.5,208.5C 116.022,208.823 122.355,208.49 128.5,207.5C 129.833,205.833 129.833,204.167 128.5,202.5 Z"/></g>
<g><path style="opacity:1" fill="#63605e" d="M 239.5,203.5 C 241.245,205.033 242.245,207.033 242.5,209.5C 240.755,207.967 239.755,205.967 239.5,203.5 Z"/></g>
<g><path style="opacity:1" fill="#515352" d="M 313.5,205.5 C 313.833,205.5 314.167,205.5 314.5,205.5C 314.833,206.833 315.167,208.167 315.5,209.5C 313.824,208.817 313.157,207.483 313.5,205.5 Z"/></g>
<g><path style="opacity:1" fill="#5a5a5a" d="M 364.5,202.5 C 365.496,216.323 365.829,230.323 365.5,244.5C 362.833,244.5 360.167,244.5 357.5,244.5C 357.5,230.833 357.5,217.167 357.5,203.5C 357.833,203.5 358.167,203.5 358.5,203.5C 358.171,217.01 358.504,230.344 359.5,243.5C 361.167,243.5 362.833,243.5 364.5,243.5C 364.5,230.167 364.5,216.833 364.5,203.5C 364.5,203.167 364.5,202.833 364.5,202.5 Z"/></g>
<g><path style="opacity:1" fill="#080808" d="M 364.5,203.5 C 364.5,216.833 364.5,230.167 364.5,243.5C 362.833,243.5 361.167,243.5 359.5,243.5C 359.5,230.167 359.5,216.833 359.5,203.5C 361.167,203.5 362.833,203.5 364.5,203.5 Z"/></g>
<g><path style="opacity:1" fill="#eeeeee" d="M 75.5,209.5 C 76.2653,212.096 76.5987,214.763 76.5,217.5C 75.5,217.833 74.8333,218.5 74.5,219.5C 71.4816,219.665 68.4816,219.498 65.5,219C 64.5495,215.943 64.2161,212.777 64.5,209.5C 68.0326,208.285 71.6992,208.285 75.5,209.5 Z"/></g>
<g><path style="opacity:1" fill="#505050" d="M 128.5,207.5 C 122.355,208.49 116.022,208.823 109.5,208.5C 109.5,212.5 109.5,216.5 109.5,220.5C 108.515,216.366 108.182,212.032 108.5,207.5C 115.167,207.5 121.833,207.5 128.5,207.5 Z"/></g>
<g><path style="opacity:1" fill="#848484" d="M 343.5,204.5 C 343.5,205.833 343.5,207.167 343.5,208.5C 342,209.625 340.667,210.959 339.5,212.5C 340.208,209.451 341.541,206.785 343.5,204.5 Z"/></g>
<g><path style="opacity:1" fill="#505050" d="M 81.5,206.5 C 81.8333,206.5 82.1667,206.5 82.5,206.5C 82.8333,207.5 83.5,208.167 84.5,208.5C 84.5,211.167 84.5,213.833 84.5,216.5C 84.1667,216.5 83.8333,216.5 83.5,216.5C 83.845,212.885 83.1783,209.552 81.5,206.5 Z"/></g>
<g><path style="opacity:1" fill="#d4d4d4" d="M 84.5,208.5 C 85.7479,209.334 86.4146,210.667 86.5,212.5C 86.4146,214.333 85.7479,215.666 84.5,216.5C 84.5,213.833 84.5,211.167 84.5,208.5 Z"/></g>
<g><path style="opacity:1" fill="#bebdbe" d="M 235.5,207.5 C 234.434,209.701 233.767,212.035 233.5,214.5C 233.167,215.5 232.5,216.167 231.5,216.5C 232.084,213.997 232.751,211.497 233.5,209C 233.836,207.97 234.503,207.47 235.5,207.5 Z"/></g>
<g><path style="opacity:1" fill="#646464" d="M 315.5,209.5 C 317.065,211.509 318.065,213.843 318.5,216.5C 316.166,214.824 315.166,212.491 315.5,209.5 Z"/></g>
<g><path style="opacity:1" fill="#757575" d="M 75.5,209.5 C 77.0265,210.492 77.6932,211.992 77.5,214C 77.4857,215.385 77.1524,216.551 76.5,217.5C 76.5987,214.763 76.2653,212.096 75.5,209.5 Z"/></g>
<g><path style="opacity:1" fill="#444343" d="M 235.5,207.5 C 235.833,207.5 236.167,207.5 236.5,207.5C 236.357,210.385 235.357,212.718 233.5,214.5C 233.767,212.035 234.434,209.701 235.5,207.5 Z"/></g>
<g><path style="opacity:1" fill="#e4dad8" d="M 264.5,201.5 C 260.048,201.823 255.715,201.823 251.5,201.5C 248.833,201.5 246.167,201.5 243.5,201.5C 243.402,203.553 244.069,205.22 245.5,206.5C 246.508,208.544 247.508,210.544 248.5,212.5C 249.258,215.352 249.258,218.019 248.5,220.5C 247.833,220.5 247.5,220.167 247.5,219.5C 245.432,216.779 244.099,213.779 243.5,210.5C 242.833,210.5 242.5,210.167 242.5,209.5C 242.245,207.033 241.245,205.033 239.5,203.5C 239.158,202.662 238.492,202.328 237.5,202.5C 241.614,201.174 246.114,200.507 251,200.5C 255.68,200.501 260.18,200.834 264.5,201.5 Z"/></g>
<g><path style="opacity:1" fill="#a0a0a0" d="M 331.5,213.5 C 331.34,215.153 330.674,216.486 329.5,217.5C 329.229,215.62 329.896,214.287 331.5,213.5 Z"/></g>
<g><path style="opacity:1" fill="#626262" d="M 339.5,213.5 C 339.573,215.027 338.906,216.027 337.5,216.5C 337.427,214.973 338.094,213.973 339.5,213.5 Z"/></g>
<g><path style="opacity:1" fill="#cdcdcd" d="M 343.5,208.5 C 342.078,212.803 339.744,216.469 336.5,219.5C 336.5,219.167 336.5,218.833 336.5,218.5C 336.833,217.833 337.167,217.167 337.5,216.5C 338.906,216.027 339.573,215.027 339.5,213.5C 339.5,213.167 339.5,212.833 339.5,212.5C 340.667,210.959 342,209.625 343.5,208.5 Z"/></g>
<g><path style="opacity:1" fill="#e0e0e0" d="M 409.5,201.5 C 400.651,201.174 391.984,201.507 383.5,202.5C 382.504,216.323 382.171,230.323 382.5,244.5C 381.339,230.339 381.173,216.006 382,201.5C 391.265,200.172 400.432,200.172 409.5,201.5 Z"/></g>
<g><path style="opacity:1" fill="#423d41" d="M 243.5,210.5 C 244.099,213.779 245.432,216.779 247.5,219.5C 243.992,217.575 242.659,214.575 243.5,210.5 Z"/></g>
<g><path style="opacity:1" fill="#b77676" d="M 257.5,213.5 C 259.592,216.088 260.925,219.088 261.5,222.5C 258.835,220.165 257.502,217.165 257.5,213.5 Z"/></g>
<g><path style="opacity:1" fill="#cdd4d8" d="M 314.5,205.5 C 314.167,205.5 313.833,205.5 313.5,205.5C 313.573,203.973 312.906,202.973 311.5,202.5C 309.393,201.532 307.059,201.198 304.5,201.5C 304.171,204.228 304.837,206.562 306.5,208.5C 307.167,208.833 307.833,209.167 308.5,209.5C 308.929,213.237 310.262,216.57 312.5,219.5C 312.796,221.403 313.463,223.07 314.5,224.5C 314.833,225.167 315.167,225.833 315.5,226.5C 315.427,228.027 316.094,229.027 317.5,229.5C 317.5,230.167 317.5,230.833 317.5,231.5C 317.755,233.967 318.755,235.967 320.5,237.5C 320.5,238.5 320.5,239.5 320.5,240.5C 319.549,241.919 319.216,243.585 319.5,245.5C 316.615,245.806 313.948,245.473 311.5,244.5C 313.833,244.5 316.167,244.5 318.5,244.5C 315.804,235.072 312.137,226.072 307.5,217.5C 305.353,212.6 303.353,207.6 301.5,202.5C 305.527,200.642 309.86,199.975 314.5,200.5C 314.5,202.167 314.5,203.833 314.5,205.5 Z"/></g>
<g><path style="opacity:1" fill="#98403f" d="M 256.5,211.5 C 256.328,212.492 256.662,213.158 257.5,213.5C 257.502,217.165 258.835,220.165 261.5,222.5C 261.328,223.492 261.662,224.158 262.5,224.5C 262.337,226.857 262.503,229.19 263,231.5C 264.944,234.264 266.444,237.264 267.5,240.5C 267.547,242 266.881,243 265.5,243.5C 264.735,242.388 263.735,241.721 262.5,241.5C 261.341,240.26 260.341,238.926 259.5,237.5C 258.89,236.609 258.557,235.609 258.5,234.5C 257.917,231.053 256.584,228.053 254.5,225.5C 252.644,221.016 250.644,216.683 248.5,212.5C 247.508,210.544 246.508,208.544 245.5,206.5C 245.5,205.5 245.5,204.5 245.5,203.5C 247.527,203.338 249.527,203.505 251.5,204C 252.899,206.74 254.566,209.24 256.5,211.5 Z"/></g>
<g><path style="opacity:1" fill="#eccfc3" d="M 251.5,201.5 C 255.715,201.823 260.048,201.823 264.5,201.5C 264.5,201.833 264.5,202.167 264.5,202.5C 261.833,202.5 259.167,202.5 256.5,202.5C 256.794,205.754 258.127,208.421 260.5,210.5C 260.704,212.685 261.37,214.685 262.5,216.5C 262.935,219.157 263.935,221.491 265.5,223.5C 267.797,229.416 270.463,235.082 273.5,240.5C 274.167,240.5 274.5,240.833 274.5,241.5C 274.5,242.5 274.5,243.5 274.5,244.5C 273.167,244.833 271.833,245.167 270.5,245.5C 267.941,245.802 265.607,245.468 263.5,244.5C 265.924,244.808 268.257,244.474 270.5,243.5C 268.206,236.934 265.539,230.601 262.5,224.5C 261.662,224.158 261.328,223.492 261.5,222.5C 260.925,219.088 259.592,216.088 257.5,213.5C 256.662,213.158 256.328,212.492 256.5,211.5C 255.885,207.604 254.219,204.27 251.5,201.5 Z"/></g>
<g><path style="opacity:1" fill="#d6a086" d="M 262.5,216.5 C 264.834,218.176 265.834,220.509 265.5,223.5C 263.935,221.491 262.935,219.157 262.5,216.5 Z"/></g>
<g><path style="opacity:1" fill="#c3704f" d="M 268.5,212.5 C 270.216,214.565 271.549,216.898 272.5,219.5C 272.166,222.491 273.166,224.824 275.5,226.5C 277.495,232.149 279.495,237.816 281.5,243.5C 278.789,243.815 276.456,243.148 274.5,241.5C 274.5,240.833 274.167,240.5 273.5,240.5C 271.975,234.238 269.308,228.571 265.5,223.5C 265.834,220.509 264.834,218.176 262.5,216.5C 261.37,214.685 260.704,212.685 260.5,210.5C 260.523,208.4 259.856,206.567 258.5,205C 260.74,203.716 262.906,204.216 265,206.5C 265.353,209.152 266.52,211.152 268.5,212.5 Z"/></g>
<g><path style="opacity:1" fill="#cacaca" d="M 409.5,207.5 C 409.833,207.5 410.167,207.5 410.5,207.5C 404.926,209.453 398.926,210.12 392.5,209.5C 392.5,212.5 392.5,215.5 392.5,218.5C 397.511,218.334 402.511,218.501 407.5,219C 408.814,221.605 408.814,224.105 407.5,226.5C 407.795,224.265 407.461,222.265 406.5,220.5C 401.695,219.513 396.695,219.179 391.5,219.5C 391.5,215.833 391.5,212.167 391.5,208.5C 397.69,208.823 403.69,208.49 409.5,207.5 Z"/></g>
<g><path style="opacity:1" fill="#8c8c8c" d="M 63.5,209.5 C 63.8333,209.5 64.1667,209.5 64.5,209.5C 64.2161,212.777 64.5495,215.943 65.5,219C 68.4816,219.498 71.4816,219.665 74.5,219.5C 71.0381,220.482 67.3714,220.815 63.5,220.5C 63.5,216.833 63.5,213.167 63.5,209.5 Z"/></g>
<g><path style="opacity:1" fill="#888888" d="M 83.5,216.5 C 83.8333,216.5 84.1667,216.5 84.5,216.5C 83.8333,218.833 83.1667,221.167 82.5,223.5C 81.5028,223.53 80.8361,223.03 80.5,222C 81.741,220.269 82.741,218.436 83.5,216.5 Z"/></g>
<g><path style="opacity:1" fill="#8c9072" d="M 303.5,234.5 C 304.578,237.402 305.244,240.402 305.5,243.5C 303.833,243.5 302.167,243.5 300.5,243.5C 299.143,242.41 298.143,241.076 297.5,239.5C 291.278,228.677 285.944,217.344 281.5,205.5C 281.5,204.5 281.5,203.5 281.5,202.5C 284.448,202.223 287.281,202.556 290,203.5C 293.84,214.209 298.34,224.543 303.5,234.5 Z"/></g>
<g><path style="opacity:1" fill="#d6d6d5" d="M 329.5,217.5 C 328.89,218.391 328.557,219.391 328.5,220.5C 326.621,221.895 325.621,223.895 325.5,226.5C 325.631,227.376 325.298,228.043 324.5,228.5C 322.756,226.574 321.756,224.24 321.5,221.5C 322.735,221.721 323.735,222.388 324.5,223.5C 325.254,220.615 326.92,218.615 329.5,217.5 Z"/></g>
<g><path style="opacity:1" fill="#828282" d="M 390.5,207.5 C 396.833,207.5 403.167,207.5 409.5,207.5C 403.69,208.49 397.69,208.823 391.5,208.5C 391.5,212.167 391.5,215.833 391.5,219.5C 396.695,219.179 401.695,219.513 406.5,220.5C 401.5,220.5 396.5,220.5 391.5,220.5C 390.515,216.366 390.182,212.032 390.5,207.5 Z"/></g>
<g><path style="opacity:1" fill="#212121" d="M 109.5,220.5 C 114.833,220.5 120.167,220.5 125.5,220.5C 125.5,222.167 125.5,223.833 125.5,225.5C 120.167,225.5 114.833,225.5 109.5,225.5C 114.305,224.513 119.305,224.179 124.5,224.5C 124.5,223.5 124.5,222.5 124.5,221.5C 119.305,221.821 114.305,221.487 109.5,220.5 Z"/></g>
<g><path style="opacity:1" fill="#d7bcbb" d="M 248.5,212.5 C 250.644,216.683 252.644,221.016 254.5,225.5C 252.804,223.871 251.804,224.204 251.5,226.5C 251.167,226.5 250.833,226.5 250.5,226.5C 250.5,226.167 250.5,225.833 250.5,225.5C 250.573,223.973 249.906,222.973 248.5,222.5C 248.5,221.833 248.5,221.167 248.5,220.5C 249.258,218.019 249.258,215.352 248.5,212.5 Z"/></g>
<g><path style="opacity:1" fill="#222222" d="M 391.5,220.5 C 396.5,220.5 401.5,220.5 406.5,220.5C 406.5,222.167 406.5,223.833 406.5,225.5C 401.167,225.5 395.833,225.5 390.5,225.5C 395.305,224.513 400.305,224.179 405.5,224.5C 405.5,223.5 405.5,222.5 405.5,221.5C 400.637,221.819 395.97,221.486 391.5,220.5 Z"/></g>
<g><path style="opacity:1" fill="#686868" d="M 231.5,218.5 C 231.34,220.153 230.674,221.486 229.5,222.5C 229.157,220.517 229.824,219.183 231.5,218.5 Z"/></g>
<g><path style="opacity:1" fill="#5b5959" d="M 312.5,219.5 C 314.213,220.635 314.88,222.302 314.5,224.5C 313.463,223.07 312.796,221.403 312.5,219.5 Z"/></g>
<g><path style="opacity:1" fill="#111111" d="M 239.5,203.5 C 239.755,205.967 240.755,207.967 242.5,209.5C 242.5,210.167 242.833,210.5 243.5,210.5C 242.659,214.575 243.992,217.575 247.5,219.5C 247.5,220.167 247.833,220.5 248.5,220.5C 248.5,221.167 248.5,221.833 248.5,222.5C 248.427,224.027 249.094,225.027 250.5,225.5C 250.5,225.833 250.5,226.167 250.5,226.5C 250.796,228.403 251.463,230.07 252.5,231.5C 252.427,233.027 253.094,234.027 254.5,234.5C 255.338,234.842 255.672,235.508 255.5,236.5C 255.936,238.746 256.603,240.913 257.5,243C 255.527,243.495 253.527,243.662 251.5,243.5C 251.771,241.62 251.104,240.287 249.5,239.5C 248.833,238.5 248.167,237.5 247.5,236.5C 241.654,235.183 235.654,235.183 229.5,236.5C 228.873,237.417 228.539,238.417 228.5,239.5C 228.5,239.833 228.5,240.167 228.5,240.5C 226.952,240.821 226.285,241.821 226.5,243.5C 224.265,243.795 222.265,243.461 220.5,242.5C 220.5,241.833 220.5,241.167 220.5,240.5C 221.906,240.027 222.573,239.027 222.5,237.5C 222.833,236.167 223.167,234.833 223.5,233.5C 224.906,233.027 225.573,232.027 225.5,230.5C 225.5,230.167 225.5,229.833 225.5,229.5C 227.25,228.341 228.25,226.674 228.5,224.5C 228.328,223.508 228.662,222.842 229.5,222.5C 230.674,221.486 231.34,220.153 231.5,218.5C 231.5,217.833 231.5,217.167 231.5,216.5C 232.5,216.167 233.167,215.5 233.5,214.5C 235.357,212.718 236.357,210.385 236.5,207.5C 236.5,207.167 236.5,206.833 236.5,206.5C 237.9,205.9 238.9,204.9 239.5,203.5 Z"/></g>
<g><path style="opacity:1" fill="#3b3e3e" d="M 241.5,220.5 C 240.21,219.942 239.377,218.942 239,217.5C 238.617,218.056 238.117,218.389 237.5,218.5C 237.684,215.827 238.851,215.16 241,216.5C 241.49,217.793 241.657,219.127 241.5,220.5 Z"/></g>
<g><path style="opacity:1" fill="#d69f8c" d="M 272.5,219.5 C 274.065,221.509 275.065,223.843 275.5,226.5C 273.166,224.824 272.166,222.491 272.5,219.5 Z"/></g>
<g><path style="opacity:1" fill="#767676" d="M 336.5,218.5 C 336.5,218.833 336.5,219.167 336.5,219.5C 336.567,220.959 336.234,222.292 335.5,223.5C 335.167,223.5 334.833,223.5 334.5,223.5C 334.12,221.302 334.787,219.635 336.5,218.5 Z"/></g>
<g><path style="opacity:1" fill="#404040" d="M 128.5,202.5 C 129.833,204.167 129.833,205.833 128.5,207.5C 128.5,206.167 128.5,204.833 128.5,203.5C 120.167,203.5 111.833,203.5 103.5,203.5C 103.5,216.833 103.5,230.167 103.5,243.5C 102.504,230.01 102.171,216.344 102.5,202.5C 111.167,202.5 119.833,202.5 128.5,202.5 Z"/></g>
<g><path style="opacity:1" fill="#767676" d="M 236.5,222.5 C 236.443,223.609 236.11,224.609 235.5,225.5C 235.167,225.5 234.833,225.5 234.5,225.5C 234.427,223.973 235.094,222.973 236.5,222.5 Z"/></g>
<g><path style="opacity:1" fill="#e9e9e9" d="M 241.5,220.5 C 241.595,222.786 242.262,224.786 243.5,226.5C 243.5,227.5 243.5,228.5 243.5,229.5C 240.833,229.5 238.167,229.5 235.5,229.5C 235.5,228.167 235.5,226.833 235.5,225.5C 236.11,224.609 236.443,223.609 236.5,222.5C 236.833,221.167 237.167,219.833 237.5,218.5C 238.117,218.389 238.617,218.056 239,217.5C 239.377,218.942 240.21,219.942 241.5,220.5 Z"/></g>
<g><path style="opacity:1" fill="#7f7777" d="M 248.5,222.5 C 249.906,222.973 250.573,223.973 250.5,225.5C 249.094,225.027 248.427,224.027 248.5,222.5 Z"/></g>
<g><path style="opacity:1" fill="#545454" d="M 125.5,220.5 C 125.833,220.5 126.167,220.5 126.5,220.5C 126.5,222.5 126.5,224.5 126.5,226.5C 120.833,226.5 115.167,226.5 109.5,226.5C 109.5,226.167 109.5,225.833 109.5,225.5C 114.833,225.5 120.167,225.5 125.5,225.5C 125.5,223.833 125.5,222.167 125.5,220.5 Z"/></g>
<g><path style="opacity:1" fill="#d5a48b" d="M 265.5,223.5 C 269.308,228.571 271.975,234.238 273.5,240.5C 270.463,235.082 267.797,229.416 265.5,223.5 Z"/></g>
<g><path style="opacity:1" fill="#848483" d="M 328.5,220.5 C 328.088,222.887 327.088,224.887 325.5,226.5C 325.621,223.895 326.621,221.895 328.5,220.5 Z"/></g>
<g><path style="opacity:1" fill="#555555" d="M 406.5,220.5 C 407.461,222.265 407.795,224.265 407.5,226.5C 401.833,226.5 396.167,226.5 390.5,226.5C 390.5,226.167 390.5,225.833 390.5,225.5C 395.833,225.5 401.167,225.5 406.5,225.5C 406.5,223.833 406.5,222.167 406.5,220.5 Z"/></g>
<g><path style="opacity:1" fill="#676767" d="M 74.5,226.5 C 74.5,226.167 74.5,225.833 74.5,225.5C 76.8333,225.833 78.1667,227.167 78.5,229.5C 77.5,228.833 76.5,228.167 75.5,227.5C 75.5,226.833 75.1667,226.5 74.5,226.5 Z"/></g>
<g><path style="opacity:1" fill="#eadfda" d="M 254.5,225.5 C 254.343,226.873 254.51,228.207 255,229.5C 255.902,231.431 257.069,233.097 258.5,234.5C 258.557,235.609 258.89,236.609 259.5,237.5C 259.715,239.179 259.048,240.179 257.5,240.5C 257.771,238.62 257.104,237.287 255.5,236.5C 255.672,235.508 255.338,234.842 254.5,234.5C 254.573,232.973 253.906,231.973 252.5,231.5C 252.634,229.708 252.301,228.042 251.5,226.5C 251.804,224.204 252.804,223.871 254.5,225.5 Z"/></g>
<g><path style="opacity:1" fill="#f1e0cc" d="M 264.5,202.5 C 264.5,202.167 264.5,201.833 264.5,201.5C 268.702,201.183 272.702,201.517 276.5,202.5C 274.167,202.5 271.833,202.5 269.5,202.5C 269.338,204.527 269.505,206.527 270,208.5C 274.814,217.424 279.481,226.424 284,235.5C 284.662,237.813 285.162,240.146 285.5,242.5C 284.596,243.209 284.263,244.209 284.5,245.5C 280.958,245.813 277.625,245.479 274.5,244.5C 277.167,244.5 279.833,244.5 282.5,244.5C 282.662,242.473 282.495,240.473 282,238.5C 279.969,234.335 277.803,230.335 275.5,226.5C 275.065,223.843 274.065,221.509 272.5,219.5C 271.549,216.898 270.216,214.565 268.5,212.5C 267.964,209.445 267.131,206.445 266,203.5C 265.617,202.944 265.117,202.611 264.5,202.5 Z"/></g>
<g><path style="opacity:1" fill="#788fa0" d="M 307.5,217.5 C 312.137,226.072 315.804,235.072 318.5,244.5C 316.167,244.5 313.833,244.5 311.5,244.5C 308.531,236.441 304.697,228.774 300,221.5C 299.023,219.26 298.523,216.927 298.5,214.5C 298.162,211.843 298.829,209.51 300.5,207.5C 302.355,211.225 304.688,214.558 307.5,217.5 Z"/></g>
<g><path style="opacity:1" fill="#8c8c8c" d="M 74.5,225.5 C 74.5,225.833 74.5,226.167 74.5,226.5C 71.1667,226.5 67.8333,226.5 64.5,226.5C 64.5,230.167 64.5,233.833 64.5,237.5C 67.5,237.5 70.5,237.5 73.5,237.5C 70.6627,239.402 67.3293,240.069 63.5,239.5C 63.5,234.5 63.5,229.5 63.5,224.5C 67.3714,224.185 71.0381,224.518 74.5,225.5 Z"/></g>
<g><path style="opacity:1" fill="#b3b3b3" d="M 109.5,226.5 C 115.167,226.5 120.833,226.5 126.5,226.5C 121.36,227.488 116.026,227.821 110.5,227.5C 110.5,230.833 110.5,234.167 110.5,237.5C 110.167,237.5 109.833,237.5 109.5,237.5C 109.5,233.833 109.5,230.167 109.5,226.5 Z"/></g>
<g><path style="opacity:1" fill="#707070" d="M 228.5,224.5 C 228.25,226.674 227.25,228.341 225.5,229.5C 225.5,229.167 225.5,228.833 225.5,228.5C 225.799,226.545 226.799,225.211 228.5,224.5 Z"/></g>
<g><path style="opacity:1" fill="#71716c" d="M 250.5,226.5 C 250.833,226.5 251.167,226.5 251.5,226.5C 252.301,228.042 252.634,229.708 252.5,231.5C 251.463,230.07 250.796,228.403 250.5,226.5 Z"/></g>
<g><path style="opacity:1" fill="#d6aca8" d="M 254.5,225.5 C 256.584,228.053 257.917,231.053 258.5,234.5C 257.069,233.097 255.902,231.431 255,229.5C 254.51,228.207 254.343,226.873 254.5,225.5 Z"/></g>
<g><path style="opacity:1" fill="#605d62" d="M 315.5,226.5 C 316.906,226.973 317.573,227.973 317.5,229.5C 316.094,229.027 315.427,228.027 315.5,226.5 Z"/></g>
<g><path style="opacity:1" fill="#848484" d="M 333.5,226.5 C 333.573,228.027 332.906,229.027 331.5,229.5C 331.427,227.973 332.094,226.973 333.5,226.5 Z"/></g>
<g><path style="opacity:1" fill="#acacac" d="M 234.5,225.5 C 234.833,225.5 235.167,225.5 235.5,225.5C 235.5,226.833 235.5,228.167 235.5,229.5C 238.167,229.5 240.833,229.5 243.5,229.5C 243.5,228.5 243.5,227.5 243.5,226.5C 244.434,227.568 244.768,228.901 244.5,230.5C 240.833,230.5 237.167,230.5 233.5,230.5C 233.5,229.5 233.5,228.5 233.5,227.5C 233.833,226.833 234.167,226.167 234.5,225.5 Z"/></g>
<g><path style="opacity:1" fill="#d9d9d9" d="M 334.5,223.5 C 334.833,223.5 335.167,223.5 335.5,223.5C 335.237,227.686 333.571,231.019 330.5,233.5C 330.833,232.167 331.167,230.833 331.5,229.5C 332.906,229.027 333.573,228.027 333.5,226.5C 333.557,225.391 333.89,224.391 334.5,223.5 Z"/></g>
<g><path style="opacity:1" fill="#606060" d="M 233.5,227.5 C 233.5,228.5 233.5,229.5 233.5,230.5C 237.167,230.5 240.833,230.5 244.5,230.5C 240.702,231.483 236.702,231.817 232.5,231.5C 232.232,229.901 232.566,228.568 233.5,227.5 Z"/></g>
<g><path style="opacity:1" fill="#d7bc9a" d="M 276.5,202.5 C 276.833,202.5 277.167,202.5 277.5,202.5C 282.048,215.623 287.548,228.29 294,240.5C 294.49,241.793 294.657,243.127 294.5,244.5C 292.167,244.5 289.833,244.5 287.5,244.5C 286.833,243.833 286.167,243.167 285.5,242.5C 285.162,240.146 284.662,237.813 284,235.5C 279.481,226.424 274.814,217.424 270,208.5C 269.505,206.527 269.338,204.527 269.5,202.5C 271.833,202.5 274.167,202.5 276.5,202.5 Z"/></g>
<g><path style="opacity:1" fill="#393939" d="M 83.5,225.5 C 85.2394,227.375 86.2394,229.708 86.5,232.5C 85.8444,234.453 85.5111,236.453 85.5,238.5C 84.8333,239.167 84.1667,239.833 83.5,240.5C 84.7694,235.486 84.7694,230.486 83.5,225.5 Z"/></g>
<g><path style="opacity:1" fill="#535352" d="M 331.5,229.5 C 331.167,230.833 330.833,232.167 330.5,233.5C 330.5,233.833 330.5,234.167 330.5,234.5C 330.167,234.5 329.833,234.5 329.5,234.5C 329.12,232.302 329.787,230.635 331.5,229.5 Z"/></g>
<g><path style="opacity:1" fill="#aeaeae" d="M 390.5,226.5 C 396.167,226.5 401.833,226.5 407.5,226.5C 402.36,227.488 397.026,227.821 391.5,227.5C 391.5,230.833 391.5,234.167 391.5,237.5C 391.167,237.5 390.833,237.5 390.5,237.5C 390.5,233.833 390.5,230.167 390.5,226.5 Z"/></g>
<g><path style="opacity:1" fill="#8d8d8d" d="M 225.5,230.5 C 225.573,232.027 224.906,233.027 223.5,233.5C 223.427,231.973 224.094,230.973 225.5,230.5 Z"/></g>
<g><path style="opacity:1" fill="#686966" d="M 252.5,231.5 C 253.906,231.973 254.573,232.973 254.5,234.5C 253.094,234.027 252.427,233.027 252.5,231.5 Z"/></g>
<g><path style="opacity:1" fill="#0b0b0b" d="M 208.5,238.5 C 208.5,240.167 208.5,241.833 208.5,243.5C 200.833,243.5 193.167,243.5 185.5,243.5C 185.5,229.833 185.5,216.167 185.5,202.5C 187.5,202.5 189.5,202.5 191.5,202.5C 191.5,214.5 191.5,226.5 191.5,238.5C 197.167,238.5 202.833,238.5 208.5,238.5 Z"/></g>
<g><path style="opacity:1" fill="#c1c1c1" d="M 82.5,223.5 C 85.0685,223.594 86.5685,224.928 87,227.5C 87.6667,230.5 87.6667,233.5 87,236.5C 86.7216,237.416 86.2216,238.082 85.5,238.5C 85.5111,236.453 85.8444,234.453 86.5,232.5C 86.2394,229.708 85.2394,227.375 83.5,225.5C 83.1667,224.833 82.8333,224.167 82.5,223.5 Z"/></g>
<g><path style="opacity:1" fill="#0b0b0b" d="M 128.5,207.5 C 121.833,207.5 115.167,207.5 108.5,207.5C 108.182,212.032 108.515,216.366 109.5,220.5C 114.305,221.487 119.305,221.821 124.5,221.5C 124.5,222.5 124.5,223.5 124.5,224.5C 119.305,224.179 114.305,224.513 109.5,225.5C 109.5,225.833 109.5,226.167 109.5,226.5C 109.5,230.167 109.5,233.833 109.5,237.5C 115.979,238.491 122.646,238.824 129.5,238.5C 129.5,240.167 129.5,241.833 129.5,243.5C 120.833,243.5 112.167,243.5 103.5,243.5C 103.5,230.167 103.5,216.833 103.5,203.5C 111.833,203.5 120.167,203.5 128.5,203.5C 128.5,204.833 128.5,206.167 128.5,207.5 Z"/></g>
<g><path style="opacity:1" fill="#616161" d="M 247.5,236.5 C 241.794,236.171 236.128,236.505 230.5,237.5C 230.145,238.522 229.478,239.189 228.5,239.5C 228.539,238.417 228.873,237.417 229.5,236.5C 235.654,235.183 241.654,235.183 247.5,236.5 Z"/></g>
<g><path style="opacity:1" fill="#ebe6d2" d="M 288.5,201.5 C 285.833,201.5 283.167,201.5 280.5,201.5C 280.232,203.099 280.566,204.432 281.5,205.5C 285.944,217.344 291.278,228.677 297.5,239.5C 297.5,240.833 297.5,242.167 297.5,243.5C 294.506,247.104 291.173,247.437 287.5,244.5C 289.833,244.5 292.167,244.5 294.5,244.5C 294.657,243.127 294.49,241.793 294,240.5C 287.548,228.29 282.048,215.623 277.5,202.5C 281.05,200.327 284.717,199.993 288.5,201.5 Z"/></g>
<g><path style="opacity:1" fill="#919698" d="M 317.5,231.5 C 319.245,233.033 320.245,235.033 320.5,237.5C 318.755,235.967 317.755,233.967 317.5,231.5 Z"/></g>
<g><path style="opacity:1" fill="#e2e2e2" d="M 74.5,226.5 C 75.1667,226.5 75.5,226.833 75.5,227.5C 76.5,228.167 77.5,228.833 78.5,229.5C 79.328,233.862 77.6613,236.529 73.5,237.5C 70.5,237.5 67.5,237.5 64.5,237.5C 64.5,233.833 64.5,230.167 64.5,226.5C 67.8333,226.5 71.1667,226.5 74.5,226.5 Z"/></g>
<g><path style="opacity:1" fill="#fcfcfc" d="M 75.5,227.5 C 76.2653,230.096 76.5987,232.763 76.5,235.5C 72.8648,236.114 69.1981,236.448 65.5,236.5C 65.5,233.5 65.5,230.5 65.5,227.5C 68.8333,227.5 72.1667,227.5 75.5,227.5 Z"/></g>
<g><path style="opacity:1" fill="#d19e86" d="M 275.5,226.5 C 277.803,230.335 279.969,234.335 282,238.5C 282.495,240.473 282.662,242.473 282.5,244.5C 279.833,244.5 277.167,244.5 274.5,244.5C 274.5,243.5 274.5,242.5 274.5,241.5C 276.456,243.148 278.789,243.815 281.5,243.5C 279.495,237.816 277.495,232.149 275.5,226.5 Z"/></g>
<g><path style="opacity:1" fill="#e3e1e1" d="M 247.5,236.5 C 248.167,237.5 248.833,238.5 249.5,239.5C 250.038,241.117 250.371,242.784 250.5,244.5C 253.167,244.5 255.833,244.5 258.5,244.5C 259.268,243.737 259.768,242.737 260,241.5C 260.759,243.063 261.926,244.063 263.5,244.5C 265.607,245.468 267.941,245.802 270.5,245.5C 264.058,245.782 257.391,245.949 250.5,246C 249.72,243.302 248.387,240.969 246.5,239C 241.5,238.333 236.5,238.333 231.5,239C 230.627,240.045 229.627,240.878 228.5,241.5C 228.5,241.167 228.5,240.833 228.5,240.5C 228.5,240.167 228.5,239.833 228.5,239.5C 229.478,239.189 230.145,238.522 230.5,237.5C 236.128,236.505 241.794,236.171 247.5,236.5 Z"/></g>
<g><path style="opacity:1" fill="#53514f" d="M 328.5,235.5 C 328.573,237.027 327.906,238.027 326.5,238.5C 326.427,236.973 327.094,235.973 328.5,235.5 Z"/></g>
<g><path style="opacity:1" fill="#757575" d="M 222.5,237.5 C 222.573,239.027 221.906,240.027 220.5,240.5C 220.427,238.973 221.094,237.973 222.5,237.5 Z"/></g>
<g><path style="opacity:1" fill="#d3dcd9" d="M 288.5,201.5 C 292.845,201.37 297.179,201.703 301.5,202.5C 298.428,202.183 295.428,202.516 292.5,203.5C 294.528,207.349 296.528,211.016 298.5,214.5C 298.523,216.927 299.023,219.26 300,221.5C 304.697,228.774 308.531,236.441 311.5,244.5C 310.85,244.196 310.183,243.863 309.5,243.5C 305.457,246.084 301.457,246.084 297.5,243.5C 297.5,242.167 297.5,240.833 297.5,239.5C 298.143,241.076 299.143,242.41 300.5,243.5C 302.693,244.797 305.027,244.797 307.5,243.5C 306.906,240.043 305.573,237.043 303.5,234.5C 298.34,224.543 293.84,214.209 290,203.5C 287.281,202.556 284.448,202.223 281.5,202.5C 281.5,203.5 281.5,204.5 281.5,205.5C 280.566,204.432 280.232,203.099 280.5,201.5C 283.167,201.5 285.833,201.5 288.5,201.5 Z"/></g>
<g><path style="opacity:1" fill="#d1d1ce" d="M 329.5,234.5 C 329.833,234.5 330.167,234.5 330.5,234.5C 330.005,236.482 329.505,238.482 329,240.5C 328.184,241.823 327.017,242.489 325.5,242.5C 325.833,241.167 326.167,239.833 326.5,238.5C 327.906,238.027 328.573,237.027 328.5,235.5C 328.5,234.833 328.833,234.5 329.5,234.5 Z"/></g>
<g><path style="opacity:1" fill="#a8adab" d="M 320.5,237.5 C 321.601,238.848 322.601,240.348 323.5,242C 324.094,242.464 324.761,242.631 325.5,242.5C 325.631,243.376 325.298,244.043 324.5,244.5C 322.478,243.811 321.144,242.478 320.5,240.5C 320.5,239.5 320.5,238.5 320.5,237.5 Z"/></g>
<g><path style="opacity:1" fill="#494949" d="M 83.5,240.5 C 83.5,240.833 83.5,241.167 83.5,241.5C 81.9582,242.301 80.2915,242.634 78.5,242.5C 79.9303,241.463 81.597,240.796 83.5,240.5 Z"/></g>
<g><path style="opacity:1" fill="#6c6c6c" d="M 228.5,240.5 C 228.5,240.833 228.5,241.167 228.5,241.5C 228.5,241.833 228.5,242.167 228.5,242.5C 227.833,242.833 227.167,243.167 226.5,243.5C 226.285,241.821 226.952,240.821 228.5,240.5 Z"/></g>
<g><path style="opacity:1" fill="#a05855" d="M 262.5,224.5 C 265.539,230.601 268.206,236.934 270.5,243.5C 268.257,244.474 265.924,244.808 263.5,244.5C 262.89,243.609 262.557,242.609 262.5,241.5C 263.735,241.721 264.735,242.388 265.5,243.5C 266.881,243 267.547,242 267.5,240.5C 266.444,237.264 264.944,234.264 263,231.5C 262.503,229.19 262.337,226.857 262.5,224.5 Z"/></g>
<g><path style="opacity:1" fill="#555555" d="M 109.5,237.5 C 109.833,237.5 110.167,237.5 110.5,237.5C 117.167,237.5 123.833,237.5 130.5,237.5C 130.802,240.059 130.468,242.393 129.5,244.5C 120.651,244.826 111.984,244.493 103.5,243.5C 112.167,243.5 120.833,243.5 129.5,243.5C 129.5,241.833 129.5,240.167 129.5,238.5C 122.646,238.824 115.979,238.491 109.5,237.5 Z"/></g>
<g><path style="opacity:1" fill="#4c4c4c" d="M 208.5,238.5 C 208.833,238.5 209.167,238.5 209.5,238.5C 209.5,240.5 209.5,242.5 209.5,244.5C 201.316,244.826 193.316,244.492 185.5,243.5C 193.167,243.5 200.833,243.5 208.5,243.5C 208.5,241.833 208.5,240.167 208.5,238.5 Z"/></g>
<g><path style="opacity:1" fill="#565455" d="M 255.5,236.5 C 257.104,237.287 257.771,238.62 257.5,240.5C 258.234,241.708 258.567,243.041 258.5,244.5C 255.833,244.5 253.167,244.5 250.5,244.5C 250.371,242.784 250.038,241.117 249.5,239.5C 251.104,240.287 251.771,241.62 251.5,243.5C 253.527,243.662 255.527,243.495 257.5,243C 256.603,240.913 255.936,238.746 255.5,236.5 Z"/></g>
<g><path style="opacity:1" fill="#d4b7bc" d="M 259.5,237.5 C 260.341,238.926 261.341,240.26 262.5,241.5C 262.557,242.609 262.89,243.609 263.5,244.5C 261.926,244.063 260.759,243.063 260,241.5C 259.768,242.737 259.268,243.737 258.5,244.5C 258.567,243.041 258.234,241.708 257.5,240.5C 259.048,240.179 259.715,239.179 259.5,237.5 Z"/></g>
<g><path style="opacity:1" fill="#abaea2" d="M 303.5,234.5 C 305.573,237.043 306.906,240.043 307.5,243.5C 305.027,244.797 302.693,244.797 300.5,243.5C 302.167,243.5 303.833,243.5 305.5,243.5C 305.244,240.402 304.578,237.402 303.5,234.5 Z"/></g>
<g><path style="opacity:1" fill="#565656" d="M 390.5,237.5 C 390.833,237.5 391.167,237.5 391.5,237.5C 398.167,237.5 404.833,237.5 411.5,237.5C 411.5,239.833 411.5,242.167 411.5,244.5C 411.167,244.5 410.833,244.5 410.5,244.5C 401.651,244.826 392.984,244.493 384.5,243.5C 393.167,243.5 401.833,243.5 410.5,243.5C 410.5,241.833 410.5,240.167 410.5,238.5C 403.646,238.824 396.979,238.491 390.5,237.5 Z"/></g>
<g><path style="opacity:1" fill="#dadada" d="M 209.5,237.5 C 210.748,238.334 211.415,239.667 211.5,241.5C 211.415,243.333 210.748,244.666 209.5,245.5C 209.5,245.167 209.5,244.833 209.5,244.5C 209.5,242.5 209.5,240.5 209.5,238.5C 209.5,238.167 209.5,237.833 209.5,237.5 Z"/></g>
<g><path style="opacity:1" fill="#d2d2d2" d="M 83.5,241.5 C 82.0929,243.614 80.0929,245.114 77.5,246C 73.8333,246.167 70.1667,246.333 66.5,246.5C 62.4348,246.489 58.7681,245.822 55.5,244.5C 55.8333,244.5 56.1667,244.5 56.5,244.5C 63.6866,244.825 70.6866,244.491 77.5,243.5C 78.1667,243.5 78.5,243.167 78.5,242.5C 80.2915,242.634 81.9582,242.301 83.5,241.5 Z"/></g>
<g><path style="opacity:1" fill="#cdcdcd" d="M 169.5,238.5 C 169.5,238.167 169.5,237.833 169.5,237.5C 171.388,239.988 172.055,242.988 171.5,246.5C 162.435,247.136 153.769,246.47 145.5,244.5C 153.833,244.5 162.167,244.5 170.5,244.5C 170.795,242.265 170.461,240.265 169.5,238.5 Z"/></g>
<g><path style="opacity:1" fill="#cfcfcf" d="M 225.5,228.5 C 225.5,228.833 225.5,229.167 225.5,229.5C 225.5,229.833 225.5,230.167 225.5,230.5C 224.094,230.973 223.427,231.973 223.5,233.5C 223.167,234.833 222.833,236.167 222.5,237.5C 221.094,237.973 220.427,238.973 220.5,240.5C 220.5,241.167 220.5,241.833 220.5,242.5C 219.957,242.56 219.624,242.893 219.5,243.5C 221.973,244.797 224.307,244.797 226.5,243.5C 227.167,243.167 227.833,242.833 228.5,242.5C 228.489,244.017 227.823,245.184 226.5,246C 223.854,246.497 221.187,246.664 218.5,246.5C 218.507,243.962 218.841,241.462 219.5,239C 221.509,236.138 222.843,232.972 223.5,229.5C 224.183,229.137 224.85,228.804 225.5,228.5 Z"/></g>
<g><path style="opacity:1" fill="#4e4e4e" d="M 220.5,242.5 C 222.265,243.461 224.265,243.795 226.5,243.5C 224.307,244.797 221.973,244.797 219.5,243.5C 219.624,242.893 219.957,242.56 220.5,242.5 Z"/></g>
<g><path style="opacity:1" fill="#c7c7c7" d="M 357.5,201.5 C 357.5,202.167 357.5,202.833 357.5,203.5C 357.5,217.167 357.5,230.833 357.5,244.5C 360.167,244.5 362.833,244.5 365.5,244.5C 363.012,246.388 360.012,247.055 356.5,246.5C 356.171,231.324 356.504,216.324 357.5,201.5 Z"/></g>
<g><path style="opacity:1" fill="#e3e3e3" d="M 382.5,244.5 C 391.932,245.816 401.265,245.816 410.5,244.5C 410.833,244.5 411.167,244.5 411.5,244.5C 407.049,245.827 402.216,246.494 397,246.5C 391.784,246.494 386.951,245.827 382.5,244.5 Z"/></g>
<g><path style="opacity:1" fill="#dadada" d="M 150.5,274.5 C 146.435,272.722 142.101,272.055 137.5,272.5C 138.514,271.235 140.014,270.569 142,270.5C 145.819,270.037 148.653,271.371 150.5,274.5 Z"/></g>
<g><path style="opacity:1" fill="#d3d3d3" d="M 247.5,274.5 C 243.627,272.57 239.294,271.903 234.5,272.5C 234.5,279.5 234.5,286.5 234.5,293.5C 233.508,286.018 233.175,278.352 233.5,270.5C 238.179,270.334 242.845,270.501 247.5,271C 248.791,272.292 248.791,273.458 247.5,274.5 Z"/></g>
<g><path style="opacity:1" fill="#cbcbcb" d="M 263.5,272.5 C 261.167,272.5 258.833,272.5 256.5,272.5C 257.312,271.007 258.645,270.34 260.5,270.5C 262.03,270.64 263.03,271.307 263.5,272.5 Z"/></g>
<g><path style="opacity:1" fill="#dbdbdb" d="M 287.5,272.5 C 282.786,272.173 278.12,272.507 273.5,273.5C 275.045,274.452 276.712,274.785 278.5,274.5C 278.5,280.833 278.5,287.167 278.5,293.5C 277.51,287.69 277.177,281.69 277.5,275.5C 275.801,275.66 274.134,275.494 272.5,275C 271.167,273.667 271.167,272.333 272.5,271C 275,270.833 277.5,270.667 280,270.5C 282.929,270.525 285.429,271.191 287.5,272.5 Z"/></g>
<g><path style="opacity:1" fill="#c7c7c7" d="M 334.5,272.5 C 339.305,271.513 344.305,271.179 349.5,271.5C 349.715,273.179 349.048,274.179 347.5,274.5C 343.971,272.577 339.971,271.911 335.5,272.5C 335.167,272.5 334.833,272.5 334.5,272.5 Z"/></g>
<g><path style="opacity:1" fill="#6e6e6e" d="M 137.5,272.5 C 142.101,272.055 146.435,272.722 150.5,274.5C 151.167,274.5 151.5,274.833 151.5,275.5C 152.1,279.535 151.1,283.035 148.5,286C 149.167,288 149.833,290 150.5,292C 150.164,293.03 149.497,293.53 148.5,293.5C 148.245,291.033 147.245,289.033 145.5,287.5C 144.082,285.692 142.082,285.025 139.5,285.5C 140.036,288.698 139.369,291.365 137.5,293.5C 137.5,286.5 137.5,279.5 137.5,272.5 Z"/></g>
<g><path style="opacity:1" fill="#6a6a6a" d="M 160.5,273.5 C 160.5,273.167 160.5,272.833 160.5,272.5C 164.555,272.176 168.555,272.509 172.5,273.5C 169.232,274.487 165.898,274.82 162.5,274.5C 162.158,273.662 161.492,273.328 160.5,273.5 Z"/></g>
<g><path style="opacity:1" fill="#b3b3b3" d="M 190.5,274.5 C 190.167,274.5 189.833,274.5 189.5,274.5C 188.5,274.5 187.5,274.5 186.5,274.5C 186.62,273.414 187.287,272.747 188.5,272.5C 189.713,272.747 190.38,273.414 190.5,274.5 Z"/></g>
<g><path style="opacity:1" fill="#747474" d="M 287.5,272.5 C 287.5,273.167 287.5,273.833 287.5,274.5C 285.5,274.5 283.5,274.5 281.5,274.5C 281.44,273.957 281.107,273.624 280.5,273.5C 279.503,280.134 279.17,286.8 279.5,293.5C 279.167,293.5 278.833,293.5 278.5,293.5C 278.5,287.167 278.5,280.833 278.5,274.5C 276.712,274.785 275.045,274.452 273.5,273.5C 278.12,272.507 282.786,272.173 287.5,272.5 Z"/></g>
<g><path style="opacity:1" fill="#6b6b6b" d="M 312.5,272.5 C 317.544,272.173 322.544,272.506 327.5,273.5C 325.604,274.466 323.604,274.799 321.5,274.5C 321.167,274.5 320.833,274.5 320.5,274.5C 319.833,273.167 319.167,273.167 318.5,274.5C 316.5,274.5 314.5,274.5 312.5,274.5C 312.5,273.833 312.5,273.167 312.5,272.5 Z"/></g>
<g><path style="opacity:1" fill="#cacaca" d="M 303.5,278.5 C 301.787,277.365 301.12,275.698 301.5,273.5C 300.5,273.5 299.5,273.5 298.5,273.5C 298.768,275.099 298.434,276.432 297.5,277.5C 297.34,275.801 297.506,274.134 298,272.5C 299.333,271.167 300.667,271.167 302,272.5C 302.505,274.518 303.005,276.518 303.5,278.5 Z"/></g>
<g><path style="opacity:1" fill="#6d6d6d" d="M 335.5,273.5 C 335.5,273.167 335.5,272.833 335.5,272.5C 339.971,271.911 343.971,272.577 347.5,274.5C 344.167,274.5 340.833,274.5 337.5,274.5C 337.158,273.662 336.492,273.328 335.5,273.5 Z"/></g>
<g><path style="opacity:1" fill="#646464" d="M 247.5,274.5 C 243.833,274.5 240.167,274.5 236.5,274.5C 236.5,276.833 236.5,279.167 236.5,281.5C 238.969,282.317 241.635,282.817 244.5,283C 241.635,283.183 238.969,283.683 236.5,284.5C 236.5,286.833 236.5,289.167 236.5,291.5C 236.5,292.833 235.833,293.5 234.5,293.5C 234.5,286.5 234.5,279.5 234.5,272.5C 239.294,271.903 243.627,272.57 247.5,274.5 Z"/></g>
<g><path style="opacity:1" fill="#bbbbbb" d="M 337.5,274.5 C 340.833,274.5 344.167,274.5 347.5,274.5C 344.713,275.477 341.713,275.81 338.5,275.5C 338.5,277.5 338.5,279.5 338.5,281.5C 340.833,281.5 343.167,281.5 345.5,281.5C 345.5,281.833 345.5,282.167 345.5,282.5C 337.5,284.505 334.834,281.839 337.5,274.5 Z"/></g>
<g><path style="opacity:1" fill="#dedede" d="M 151.5,275.5 C 152.725,276.152 153.392,277.319 153.5,279C 153.023,281.829 152.023,284.495 150.5,287C 151.687,289.724 152.353,292.557 152.5,295.5C 150.517,295.843 149.183,295.176 148.5,293.5C 149.497,293.53 150.164,293.03 150.5,292C 149.833,290 149.167,288 148.5,286C 151.1,283.035 152.1,279.535 151.5,275.5 Z"/></g>
<g><path style="opacity:1" fill="#e4e4e4" d="M 171.5,281.5 C 168.5,281.5 165.5,281.5 162.5,281.5C 162.5,279.167 162.5,276.833 162.5,274.5C 165.898,274.82 169.232,274.487 172.5,273.5C 168.555,272.509 164.555,272.176 160.5,272.5C 162.223,271.2 164.39,270.533 167,270.5C 172.568,269.052 175.068,271.052 174.5,276.5C 170.833,276.5 167.167,276.5 163.5,276.5C 163.5,277.833 163.5,279.167 163.5,280.5C 166.385,280.194 169.052,280.527 171.5,281.5 Z"/></g>
<g><path style="opacity:1" fill="#d0d0d0" d="M 264.5,272.5 C 266.176,273.183 266.843,274.517 266.5,276.5C 263.5,276.5 260.5,276.5 257.5,276.5C 259.833,275.167 262.167,273.833 264.5,272.5 Z"/></g>
<g><path style="opacity:1" fill="#b7b7b7" d="M 148.5,276.5 C 145.904,275.735 143.237,275.401 140.5,275.5C 140.5,278.167 140.5,280.833 140.5,283.5C 139.523,280.713 139.19,277.713 139.5,274.5C 142.187,274.336 144.854,274.503 147.5,275C 148.056,275.383 148.389,275.883 148.5,276.5 Z"/></g>
<g><path style="opacity:1" fill="#f2f2f2" d="M 148.5,276.5 C 149.152,282.396 146.485,284.73 140.5,283.5C 140.5,280.833 140.5,278.167 140.5,275.5C 143.237,275.401 145.904,275.735 148.5,276.5 Z"/></g>
<g><path style="opacity:1" fill="#c8c8c8" d="M 186.5,275.5 C 185.833,277.5 185.167,279.5 184.5,281.5C 184.167,281.5 183.833,281.5 183.5,281.5C 183.621,278.895 184.621,276.895 186.5,275.5 Z"/></g>
<g><path style="opacity:1" fill="#555555" d="M 186.5,274.5 C 187.5,274.5 188.5,274.5 189.5,274.5C 189.169,276.322 188.502,277.989 187.5,279.5C 186.326,280.514 185.66,281.847 185.5,283.5C 184.662,283.158 184.328,282.492 184.5,281.5C 185.167,279.5 185.833,277.5 186.5,275.5C 186.5,275.167 186.5,274.833 186.5,274.5 Z"/></g>
<g><path style="opacity:1" fill="#e5e5e5" d="M 281.5,274.5 C 283.5,274.5 285.5,274.5 287.5,274.5C 286.817,276.176 285.483,276.843 283.5,276.5C 283.666,282.509 283.499,288.509 283,294.5C 280.955,296.043 279.455,295.71 278.5,293.5C 278.833,293.5 279.167,293.5 279.5,293.5C 279.56,294.043 279.893,294.376 280.5,294.5C 281.497,287.866 281.83,281.2 281.5,274.5 Z"/></g>
<g><path style="opacity:1" fill="#3c3c3c" d="M 320.5,274.5 C 320.823,281.022 320.49,287.355 319.5,293.5C 318.51,287.355 318.177,281.022 318.5,274.5C 319.167,273.167 319.833,273.167 320.5,274.5 Z"/></g>
<g><path style="opacity:1" fill="#9a9a9a" d="M 256.5,273.5 C 254.832,275.479 254.166,277.812 254.5,280.5C 253.378,278.712 253.211,276.712 254,274.5C 254.671,273.748 255.504,273.414 256.5,273.5 Z"/></g>
<g><path style="opacity:1" fill="#363636" d="M 281.5,274.5 C 280.833,280.833 280.167,287.167 279.5,293.5C 279.17,286.8 279.503,280.134 280.5,273.5C 281.107,273.624 281.44,273.957 281.5,274.5 Z"/></g>
<g><path style="opacity:1" fill="#808080" d="M 281.5,274.5 C 281.83,281.2 281.497,287.866 280.5,294.5C 279.893,294.376 279.56,294.043 279.5,293.5C 280.167,287.167 280.833,280.833 281.5,274.5 Z"/></g>
<g><path style="opacity:1" fill="#6e6e6e" d="M 303.5,278.5 C 304.242,280.98 305.242,283.313 306.5,285.5C 302.825,287.575 298.992,287.908 295,286.5C 294.308,287.437 294.475,288.103 295.5,288.5C 294.32,290.014 293.32,291.681 292.5,293.5C 292.167,292.667 291.833,291.833 291.5,291C 292.626,288.577 293.626,286.077 294.5,283.5C 295.029,281.216 296.029,279.216 297.5,277.5C 298.434,276.432 298.768,275.099 298.5,273.5C 299.5,273.5 300.5,273.5 301.5,273.5C 301.12,275.698 301.787,277.365 303.5,278.5 Z"/></g>
<g><path style="opacity:1" fill="#dcdcdc" d="M 312.5,274.5 C 314.5,274.5 316.5,274.5 318.5,274.5C 318.177,281.022 318.51,287.355 319.5,293.5C 319.56,294.043 319.893,294.376 320.5,294.5C 321.497,287.866 321.83,281.2 321.5,274.5C 323.604,274.799 325.604,274.466 327.5,273.5C 322.544,272.506 317.544,272.173 312.5,272.5C 314.571,271.191 317.071,270.525 320,270.5C 322.5,270.667 325,270.833 327.5,271C 329.334,275.675 327.667,277.508 322.5,276.5C 322.5,282.833 322.5,289.167 322.5,295.5C 320.856,295.714 319.356,295.38 318,294.5C 317.5,288.175 317.334,281.842 317.5,275.5C 315.585,275.784 313.919,275.451 312.5,274.5 Z"/></g>
<g><path style="opacity:1" fill="#eaeaea" d="M 247.5,274.5 C 245.012,276.388 242.012,277.055 238.5,276.5C 238.5,277.833 238.5,279.167 238.5,280.5C 241.062,279.629 243.728,279.629 246.5,280.5C 246.739,282.467 246.406,284.301 245.5,286C 243.19,286.497 240.857,286.663 238.5,286.5C 238.5,287.833 238.5,289.167 238.5,290.5C 241.713,290.19 244.713,290.523 247.5,291.5C 243.833,291.5 240.167,291.5 236.5,291.5C 236.5,289.167 236.5,286.833 236.5,284.5C 239.5,284.5 242.5,284.5 245.5,284.5C 245.5,283.5 245.5,282.5 245.5,281.5C 242.5,281.5 239.5,281.5 236.5,281.5C 236.5,279.167 236.5,276.833 236.5,274.5C 240.167,274.5 243.833,274.5 247.5,274.5 Z"/></g>
<g><path style="opacity:1" fill="#c6c6c6" d="M 257.5,276.5 C 257.281,277.675 257.614,278.675 258.5,279.5C 260.586,280.489 262.253,281.822 263.5,283.5C 258.954,282.712 256.954,280.379 257.5,276.5 Z"/></g>
<g><path style="opacity:1" fill="#616161" d="M 256.5,272.5 C 258.833,272.5 261.167,272.5 263.5,272.5C 263.833,272.5 264.167,272.5 264.5,272.5C 262.167,273.833 259.833,275.167 257.5,276.5C 256.954,280.379 258.954,282.712 263.5,283.5C 263.833,283.5 264.167,283.5 264.5,283.5C 266.226,285.82 266.893,288.487 266.5,291.5C 266.167,292.167 265.833,292.833 265.5,293.5C 264.833,293.5 264.167,293.5 263.5,293.5C 261.302,293.591 260.969,292.925 262.5,291.5C 263.649,291.209 264.316,290.376 264.5,289C 263.55,285.669 261.217,284.002 257.5,284C 256.364,282.855 255.364,281.688 254.5,280.5C 254.166,277.812 254.832,275.479 256.5,273.5C 256.5,273.167 256.5,272.833 256.5,272.5 Z"/></g>
<g><path style="opacity:1" fill="#4f4f4f" d="M 335.5,273.5 C 336.492,273.328 337.158,273.662 337.5,274.5C 334.834,281.839 337.5,284.505 345.5,282.5C 342.772,283.205 339.939,283.872 337,284.5C 336.204,287.039 336.371,289.372 337.5,291.5C 338.66,293.203 337.993,293.869 335.5,293.5C 335.5,286.833 335.5,280.167 335.5,273.5 Z"/></g>
<g><path style="opacity:1" fill="#e3e3e3" d="M 187.5,279.5 C 190.068,281.027 191.401,283.361 191.5,286.5C 189.5,286.5 187.5,286.5 185.5,286.5C 185.5,285.5 185.5,284.5 185.5,283.5C 185.66,281.847 186.326,280.514 187.5,279.5 Z"/></g>
<g><path style="opacity:1" fill="#939393" d="M 236.5,281.5 C 239.5,281.5 242.5,281.5 245.5,281.5C 245.5,282.5 245.5,283.5 245.5,284.5C 242.5,284.5 239.5,284.5 236.5,284.5C 238.969,283.683 241.635,283.183 244.5,283C 241.635,282.817 238.969,282.317 236.5,281.5 Z"/></g>
<g><path style="opacity:1" fill="#e3e3e3" d="M 299.5,279.5 C 302.083,280.985 303.416,283.318 303.5,286.5C 301.167,286.5 298.833,286.5 296.5,286.5C 297.011,283.978 298.011,281.645 299.5,279.5 Z"/></g>
<g><path style="opacity:1" fill="#8d8d8d" d="M 345.5,282.5 C 346.043,282.56 346.376,282.893 346.5,283.5C 343.634,284.208 340.8,284.875 338,285.5C 337.505,287.473 337.338,289.473 337.5,291.5C 336.371,289.372 336.204,287.039 337,284.5C 339.939,283.872 342.772,283.205 345.5,282.5 Z"/></g>
<g><path style="opacity:1" fill="#d3d3d3" d="M 264.5,283.5 C 267.136,283.491 268.469,284.825 268.5,287.5C 268.66,289.355 267.993,290.688 266.5,291.5C 266.893,288.487 266.226,285.82 264.5,283.5 Z"/></g>
<g><path style="opacity:1" fill="#aeaeae" d="M 160.5,272.5 C 160.5,272.833 160.5,273.167 160.5,273.5C 160.5,280.167 160.5,286.833 160.5,293.5C 164.298,294.483 168.298,294.817 172.5,294.5C 168.366,295.485 164.032,295.818 159.5,295.5C 159.175,287.648 159.508,279.982 160.5,272.5 Z"/></g>
<g><path style="opacity:1" fill="#454545" d="M 160.5,273.5 C 161.492,273.328 162.158,273.662 162.5,274.5C 161.527,276.948 161.194,279.615 161.5,282.5C 173.5,282.833 173.5,283.167 161.5,283.5C 161.813,287.042 161.479,290.375 160.5,293.5C 160.5,286.833 160.5,280.167 160.5,273.5 Z"/></g>
<g><path style="opacity:1" fill="#8d8d8d" d="M 320.5,274.5 C 320.833,274.5 321.167,274.5 321.5,274.5C 321.83,281.2 321.497,287.866 320.5,294.5C 319.893,294.376 319.56,294.043 319.5,293.5C 320.49,287.355 320.823,281.022 320.5,274.5 Z"/></g>
<g><path style="opacity:1" fill="#d3d3d3" d="M 145.5,287.5 C 144.292,286.766 142.959,286.433 141.5,286.5C 141.5,289.5 141.5,292.5 141.5,295.5C 139.517,295.843 138.183,295.176 137.5,293.5C 139.369,291.365 140.036,288.698 139.5,285.5C 142.082,285.025 144.082,285.692 145.5,287.5 Z"/></g>
<g><path style="opacity:1" fill="#787878" d="M 189.5,274.5 C 189.833,274.5 190.167,274.5 190.5,274.5C 192.384,278.279 193.718,282.279 194.5,286.5C 190.246,288.132 186.246,287.799 182.5,285.5C 182.833,284.167 183.167,282.833 183.5,281.5C 183.833,281.5 184.167,281.5 184.5,281.5C 184.328,282.492 184.662,283.158 185.5,283.5C 185.5,284.5 185.5,285.5 185.5,286.5C 187.5,286.5 189.5,286.5 191.5,286.5C 191.401,283.361 190.068,281.027 187.5,279.5C 188.502,277.989 189.169,276.322 189.5,274.5 Z"/></g>
<g><path style="opacity:1" fill="#474747" d="M 182.5,285.5 C 186.246,287.799 190.246,288.132 194.5,286.5C 195.737,287.965 196.737,289.632 197.5,291.5C 197.631,292.376 197.298,293.043 196.5,293.5C 195.5,292.167 194.5,290.833 193.5,289.5C 191.667,289.167 189.833,288.833 188,288.5C 185.705,288.547 183.871,289.213 182.5,290.5C 181.662,290.158 181.328,289.492 181.5,288.5C 182.11,287.609 182.443,286.609 182.5,285.5 Z"/></g>
<g><path style="opacity:1" fill="#3e3e3e" d="M 306.5,285.5 C 306.5,285.833 306.5,286.167 306.5,286.5C 307.494,288.334 307.494,290.001 306.5,291.5C 306.586,290.504 306.252,289.671 305.5,289C 302.183,288.502 298.85,288.335 295.5,288.5C 294.475,288.103 294.308,287.437 295,286.5C 298.992,287.908 302.825,287.575 306.5,285.5 Z"/></g>
<g><path style="opacity:1" fill="#e0e0e0" d="M 345.5,282.5 C 345.5,282.167 345.5,281.833 345.5,281.5C 347.71,282.455 348.043,283.955 346.5,286C 343.854,286.497 341.187,286.664 338.5,286.5C 338.5,287.833 338.5,289.167 338.5,290.5C 342.167,290.5 345.833,290.5 349.5,290.5C 349.5,292.167 349.5,293.833 349.5,295.5C 344.305,295.821 339.305,295.487 334.5,294.5C 339.167,294.5 343.833,294.5 348.5,294.5C 348.5,293.5 348.5,292.5 348.5,291.5C 344.833,291.5 341.167,291.5 337.5,291.5C 337.338,289.473 337.505,287.473 338,285.5C 340.8,284.875 343.634,284.208 346.5,283.5C 346.376,282.893 346.043,282.56 345.5,282.5 Z"/></g>
<g><path style="opacity:1" fill="#808080" d="M 306.5,286.5 C 309.006,288.688 309.673,291.355 308.5,294.5C 307.817,294.137 307.15,293.804 306.5,293.5C 306.5,292.833 306.5,292.167 306.5,291.5C 307.494,290.001 307.494,288.334 306.5,286.5 Z"/></g>
<g><path style="opacity:1" fill="#c9c9c9" d="M 145.5,287.5 C 147.245,289.033 148.245,291.033 148.5,293.5C 146.755,291.967 145.755,289.967 145.5,287.5 Z"/></g>
<g><path style="opacity:1" fill="#757575" d="M 181.5,288.5 C 181.328,289.492 181.662,290.158 182.5,290.5C 182.315,292.196 181.481,293.529 180,294.5C 179.595,292.225 180.095,290.225 181.5,288.5 Z"/></g>
<g><path style="opacity:1" fill="#888888" d="M 162.5,274.5 C 162.5,276.833 162.5,279.167 162.5,281.5C 165.5,281.5 168.5,281.5 171.5,281.5C 171.5,282.5 171.5,283.5 171.5,284.5C 168.5,284.5 165.5,284.5 162.5,284.5C 162.5,286.833 162.5,289.167 162.5,291.5C 166.167,291.5 169.833,291.5 173.5,291.5C 173.737,292.791 173.404,293.791 172.5,294.5C 168.298,294.817 164.298,294.483 160.5,293.5C 161.479,290.375 161.813,287.042 161.5,283.5C 173.5,283.167 173.5,282.833 161.5,282.5C 161.194,279.615 161.527,276.948 162.5,274.5 Z"/></g>
<g><path style="opacity:1" fill="#848484" d="M 236.5,291.5 C 240.167,291.5 243.833,291.5 247.5,291.5C 247.5,292.5 247.5,293.5 247.5,294.5C 242.968,294.818 238.634,294.485 234.5,293.5C 235.833,293.5 236.5,292.833 236.5,291.5 Z"/></g>
<g><path style="opacity:1" fill="#818181" d="M 262.5,291.5 C 260.969,292.925 261.302,293.591 263.5,293.5C 260.638,294.681 257.638,294.681 254.5,293.5C 253.957,293.44 253.624,293.107 253.5,292.5C 256.428,291.516 259.428,291.183 262.5,291.5 Z"/></g>
<g><path style="opacity:1" fill="#cfcfcf" d="M 294.5,283.5 C 293.626,286.077 292.626,288.577 291.5,291C 291.833,291.833 292.167,292.667 292.5,293.5C 293.32,291.681 294.32,290.014 295.5,288.5C 298.85,288.335 302.183,288.502 305.5,289C 306.252,289.671 306.586,290.504 306.5,291.5C 306.5,292.167 306.5,292.833 306.5,293.5C 305.173,291.036 303.007,290.036 300,290.5C 296.406,289.717 294.573,291.05 294.5,294.5C 293.167,294.5 291.833,294.5 290.5,294.5C 290.187,291.753 290.52,289.086 291.5,286.5C 292.141,285.007 293.141,284.007 294.5,283.5 Z"/></g>
<g><path style="opacity:1" fill="#888888" d="M 334.5,272.5 C 334.833,272.5 335.167,272.5 335.5,272.5C 335.5,272.833 335.5,273.167 335.5,273.5C 335.5,280.167 335.5,286.833 335.5,293.5C 337.993,293.869 338.66,293.203 337.5,291.5C 341.167,291.5 344.833,291.5 348.5,291.5C 348.5,292.5 348.5,293.5 348.5,294.5C 343.833,294.5 339.167,294.5 334.5,294.5C 334.5,287.167 334.5,279.833 334.5,272.5 Z"/></g>
<g><path style="opacity:1" fill="#c2c2c2" d="M 197.5,291.5 C 198.434,292.568 198.768,293.901 198.5,295.5C 197.167,295.5 195.833,295.5 194.5,295.5C 194.617,293.516 193.95,291.85 192.5,290.5C 189.126,289.249 185.793,289.249 182.5,290.5C 183.871,289.213 185.705,288.547 188,288.5C 189.833,288.833 191.667,289.167 193.5,289.5C 194.5,290.833 195.5,292.167 196.5,293.5C 197.298,293.043 197.631,292.376 197.5,291.5 Z"/></g>
<g><path style="opacity:1" fill="#b7b7b7" d="M 208.5,291.5 C 211.5,291.5 214.5,291.5 217.5,291.5C 217.5,292.833 217.5,294.167 217.5,295.5C 213.167,295.5 208.833,295.5 204.5,295.5C 204.5,287.833 204.5,280.167 204.5,272.5C 205.833,272.5 207.167,272.5 208.5,272.5C 208.5,278.833 208.5,285.167 208.5,291.5 Z"/></g>
<g><path style="opacity:1" fill="#727272" d="M 208.5,291.5 C 211.028,292.166 213.694,292.832 216.5,293.5C 212.893,294.489 209.226,294.823 205.5,294.5C 205.17,287.468 205.503,280.468 206.5,273.5C 207.167,279.654 207.833,285.654 208.5,291.5 Z"/></g>
<g><path style="opacity:1" fill="#bdbdbd" d="M 254.5,293.5 C 257.638,294.681 260.638,294.681 263.5,293.5C 264.167,293.5 264.833,293.5 265.5,293.5C 265.389,294.117 265.056,294.617 264.5,295C 261.5,295.667 258.5,295.667 255.5,295C 254.944,294.617 254.611,294.117 254.5,293.5 Z"/></g>
</svg>
