<?xml version="1.0" encoding="UTF-8"?>
<!DOCTYPE svg PUBLIC "-//W3C//DTD SVG 1.1//EN" "http://www.w3.org/Graphics/SVG/1.1/DTD/svg11.dtd">
<svg xmlns="http://www.w3.org/2000/svg" version="1.1" width="438px" height="438px" style="shape-rendering:geometricPrecision; text-rendering:geometricPrecision; image-rendering:optimizeQuality; fill-rule:evenodd; clip-rule:evenodd" xmlns:xlink="http://www.w3.org/1999/xlink">
<g><path style="opacity:1" fill="#fcfcfb" d="M -0.5,-0.5 C 145.5,-0.5 291.5,-0.5 437.5,-0.5C 437.5,145.5 437.5,291.5 437.5,437.5C 291.5,437.5 145.5,437.5 -0.5,437.5C -0.5,291.5 -0.5,145.5 -0.5,-0.5 Z"/></g>
<g><path style="opacity:1" fill="#bf6766" d="M 37.5,38.5 C 158.5,38.5 279.5,38.5 400.5,38.5C 400.5,47.1667 400.5,55.8333 400.5,64.5C 279.5,64.5 158.5,64.5 37.5,64.5C 37.5,55.8333 37.5,47.1667 37.5,38.5 Z"/></g>
<g><path style="opacity:1" fill="#bd4a49" d="M 38.5,39.5 C 158.833,39.5 279.167,39.5 399.5,39.5C 399.5,47.5 399.5,55.5 399.5,63.5C 279.167,63.5 158.833,63.5 38.5,63.5C 38.5,55.5 38.5,47.5 38.5,39.5 Z"/></g>
<g><path style="opacity:1" fill="#c16b6d" d="M 44.5,73.5 C 42.3888,72.2584 40.3888,72.2584 38.5,73.5C 37.9569,73.44 37.6236,73.1067 37.5,72.5C 38.6667,72.1667 39.8333,71.8333 41,71.5C 42.6811,71.6083 43.8478,72.2749 44.5,73.5 Z"/></g>
<g><path style="opacity:1" fill="#9f1c17" d="M 148.5,95.5 C 148.294,90.3457 148.961,85.3457 150.5,80.5C 157.616,70.5509 166.949,68.0509 178.5,73C 187.944,78.1284 191.444,85.9617 189,96.5C 186.284,106.957 179.451,112.291 168.5,112.5C 156.979,112.422 150.312,106.755 148.5,95.5 Z"/></g>
<g><path style="opacity:1" fill="#a01f19" d="M 288.5,71.5 C 290.604,71.2011 292.604,71.5344 294.5,72.5C 300.673,85.1758 306.006,98.1758 310.5,111.5C 308.396,111.799 306.396,111.466 304.5,110.5C 303.568,107.47 302.235,104.637 300.5,102C 294.141,101.169 287.807,101.336 281.5,102.5C 280.195,105.053 279.195,107.72 278.5,110.5C 276.604,111.466 274.604,111.799 272.5,111.5C 277.239,97.9522 282.573,84.6188 288.5,71.5 Z"/></g>
<g><path style="opacity:1" fill="#9b0909" d="M 250.5,106.5 C 255.975,107.489 261.642,107.822 267.5,107.5C 267.5,108.5 267.5,109.5 267.5,110.5C 260.167,110.5 252.833,110.5 245.5,110.5C 245.5,97.8333 245.5,85.1667 245.5,72.5C 246.833,72.5 248.167,72.5 249.5,72.5C 249.172,84.0123 249.505,95.3456 250.5,106.5 Z"/></g>
<g><path style="opacity:1" fill="#9d1411" d="M 326.5,72.5 C 332.265,81.7089 338.265,90.7089 344.5,99.5C 344.5,100.167 344.5,100.833 344.5,101.5C 342.656,102.204 342.156,103.537 343,105.5C 343.333,105.167 343.667,104.833 344,104.5C 344.49,105.793 344.657,107.127 344.5,108.5C 346.5,108.833 348.5,109.167 350.5,109.5C 350.083,97.7949 350.083,86.1282 350.5,74.5C 349.675,73.6143 348.675,73.281 347.5,73.5C 347.827,83.3478 347.494,93.0144 346.5,102.5C 346.5,92.5 346.5,82.5 346.5,72.5C 348.167,72.5 349.833,72.5 351.5,72.5C 351.5,85.5 351.5,98.5 351.5,111.5C 349.076,111.808 346.743,111.474 344.5,110.5C 337.908,100.976 331.574,91.3092 325.5,81.5C 325.44,80.9569 325.107,80.6236 324.5,80.5C 323.501,90.4778 323.168,100.478 323.5,110.5C 322.167,110.5 320.833,110.5 319.5,110.5C 319.5,97.8333 319.5,85.1667 319.5,72.5C 321.833,72.5 324.167,72.5 326.5,72.5 Z"/></g>
<g><path style="opacity:1" fill="#c16968" d="M 346.5,72.5 C 346.5,72.1667 346.5,71.8333 346.5,71.5C 348.5,71.5 350.5,71.5 352.5,71.5C 352.829,85.0105 352.496,98.3438 351.5,111.5C 351.5,98.5 351.5,85.5 351.5,72.5C 349.833,72.5 348.167,72.5 346.5,72.5 Z"/></g>
<g><path style="opacity:1" fill="#9d0a09" d="M 344.5,101.5 C 345.167,101.833 345.833,102.167 346.5,102.5C 347.494,93.0144 347.827,83.3478 347.5,73.5C 348.675,73.281 349.675,73.6143 350.5,74.5C 350.083,86.1282 350.083,97.7949 350.5,109.5C 348.5,109.167 346.5,108.833 344.5,108.5C 344.657,107.127 344.49,105.793 344,104.5C 343.667,104.833 343.333,105.167 343,105.5C 342.156,103.537 342.656,102.204 344.5,101.5 Z"/></g>
<g><path style="opacity:1" fill="#9f1b17" d="M 114.5,70.5 C 126.98,69.4766 135.147,74.81 139,86.5C 139.877,104.992 131.043,113.492 112.5,112C 105.026,109.86 100.193,105.026 98,97.5C 95.3973,83.3485 100.897,74.3485 114.5,70.5 Z"/></g>
<g><path style="opacity:1" fill="#dec0c0" d="M 346.5,71.5 C 346.5,71.8333 346.5,72.1667 346.5,72.5C 346.5,82.5 346.5,92.5 346.5,102.5C 345.833,102.167 345.167,101.833 344.5,101.5C 344.5,100.833 344.5,100.167 344.5,99.5C 345.167,90.1667 345.833,80.8333 346.5,71.5 Z"/></g>
<g><path style="opacity:1" fill="#fbf7f7" d="M 114.5,75.5 C 129.517,76.0302 135.351,83.6969 132,98.5C 126.382,107.228 118.882,109.394 109.5,105C 102.39,97.13 101.723,88.7967 107.5,80C 109.592,77.964 111.926,76.464 114.5,75.5 Z"/></g>
<g><path style="opacity:1" fill="#faf6f5" d="M 163.5,75.5 C 180.739,75.9997 186.573,84.333 181,100.5C 173.228,109.332 165.228,109.666 157,101.5C 151.335,90.8254 153.502,82.1588 163.5,75.5 Z"/></g>
<g><path style="opacity:1" fill="#b95758" d="M 250.5,71.5 C 250.5,83.1667 250.5,94.8333 250.5,106.5C 249.505,95.3456 249.172,84.0123 249.5,72.5C 248.167,72.5 246.833,72.5 245.5,72.5C 245.5,85.1667 245.5,97.8333 245.5,110.5C 245.5,110.833 245.5,111.167 245.5,111.5C 244.504,98.3438 244.171,85.0105 244.5,71.5C 246.5,71.5 248.5,71.5 250.5,71.5 Z"/></g>
<g><path style="opacity:1" fill="#f7d6d5" d="M 250.5,71.5 C 251.495,82.6544 251.828,93.9877 251.5,105.5C 257.358,105.178 263.025,105.511 268.5,106.5C 262.5,106.5 256.5,106.5 250.5,106.5C 250.5,94.8333 250.5,83.1667 250.5,71.5 Z"/></g>
<g><path style="opacity:1" fill="#a63c3b" d="M 326.5,72.5 C 324.167,72.5 321.833,72.5 319.5,72.5C 319.5,85.1667 319.5,97.8333 319.5,110.5C 320.833,110.5 322.167,110.5 323.5,110.5C 323.5,110.833 323.5,111.167 323.5,111.5C 321.833,111.5 320.167,111.5 318.5,111.5C 318.5,98.1667 318.5,84.8333 318.5,71.5C 321.385,71.1936 324.052,71.5269 326.5,72.5 Z"/></g>
<g><path style="opacity:1" fill="#f6e9e8" d="M 290.5,79.5 C 294.543,84.2556 296.877,89.9223 297.5,96.5C 293.167,96.5 288.833,96.5 284.5,96.5C 286.116,90.649 288.116,84.9823 290.5,79.5 Z"/></g>
<g><path style="opacity:1" fill="#cc8484" d="M 218.5,72.5 C 212.5,72.5 206.5,72.5 200.5,72.5C 200.5,85.5 200.5,98.5 200.5,111.5C 199.504,98.3438 199.171,85.0105 199.5,71.5C 206.022,71.1765 212.355,71.5098 218.5,72.5 Z"/></g>
<g><path style="opacity:1" fill="#9f1b16" d="M 364.5,71.5 C 370.842,71.3338 377.175,71.5005 383.5,72C 397.511,76.3407 402.344,85.5074 398,99.5C 394.469,106.691 388.635,110.525 380.5,111C 375.177,111.499 369.844,111.666 364.5,111.5C 364.5,98.1667 364.5,84.8333 364.5,71.5 Z"/></g>
<g><path style="opacity:1" fill="#fbf9f8" d="M 381.5,77.5 C 391.418,79.9847 395.251,86.3181 393,96.5C 387.959,105.099 380.459,108.433 370.5,106.5C 370.5,96.8333 370.5,87.1667 370.5,77.5C 374.167,77.5 377.833,77.5 381.5,77.5 Z"/></g>
<g><path style="opacity:1" fill="#9d1512" d="M 218.5,72.5 C 232.485,75.6935 237.652,84.3602 234,98.5C 232.167,104.333 228.333,108.167 222.5,110C 215.221,111.247 207.888,111.747 200.5,111.5C 200.5,98.5 200.5,85.5 200.5,72.5C 206.5,72.5 212.5,72.5 218.5,72.5 Z"/></g>
<g><path style="opacity:1" fill="#e8b8b6" d="M 217.5,77.5 C 213.833,77.5 210.167,77.5 206.5,77.5C 206.5,86.8333 206.5,96.1667 206.5,105.5C 210.5,105.5 214.5,105.5 218.5,105.5C 214.366,106.485 210.032,106.818 205.5,106.5C 205.5,96.5 205.5,86.5 205.5,76.5C 209.702,76.1832 213.702,76.5166 217.5,77.5 Z"/></g>
<g><path style="opacity:1" fill="#fcfbfa" d="M 217.5,77.5 C 222.695,78.7006 226.362,81.7006 228.5,86.5C 228.882,91.3617 228.216,96.0284 226.5,100.5C 224.142,102.678 221.475,104.345 218.5,105.5C 214.5,105.5 210.5,105.5 206.5,105.5C 206.5,96.1667 206.5,86.8333 206.5,77.5C 210.167,77.5 213.833,77.5 217.5,77.5 Z"/></g>
<g><path style="opacity:1" fill="#db8b8a" d="M 381.5,77.5 C 377.833,77.5 374.167,77.5 370.5,77.5C 370.5,87.1667 370.5,96.8333 370.5,106.5C 369.506,96.6806 369.173,86.6806 369.5,76.5C 373.702,76.1832 377.702,76.5166 381.5,77.5 Z"/></g>
<g><path style="opacity:1" fill="#ad4e4d" d="M 150.5,80.5 C 148.961,85.3457 148.294,90.3457 148.5,95.5C 147.359,92.3601 147.192,89.0267 148,85.5C 148.374,83.5087 149.207,81.842 150.5,80.5 Z"/></g>
<g><path style="opacity:1" fill="#d58585" d="M 325.5,81.5 C 324.833,91.5 324.167,101.5 323.5,111.5C 323.5,111.167 323.5,110.833 323.5,110.5C 323.168,100.478 323.501,90.4778 324.5,80.5C 325.107,80.6236 325.44,80.9569 325.5,81.5 Z"/></g>
<g><path style="opacity:1" fill="#ad4942" d="M 228.5,86.5 C 229.645,90.3112 229.812,94.3112 229,98.5C 228.583,99.756 227.75,100.423 226.5,100.5C 227.75,100.423 228.583,99.756 229,98.5C 229.812,94.3112 229.645,90.3112 228.5,86.5 Z"/></g>
<g><path style="opacity:1" fill="#9f1c17" d="M 68.5,92.5 C 68.5905,89.8478 67.9238,87.5145 66.5,85.5C 66.7692,83.5714 66.2692,81.9047 65,80.5C 63.9614,81.2438 63.4614,82.2438 63.5,83.5C 61.2485,92.591 58.5819,101.591 55.5,110.5C 53.5,111.833 51.5,111.833 49.5,110.5C 45.6755,98.1995 42.0088,85.8662 38.5,73.5C 40.3888,72.2584 42.3888,72.2584 44.5,73.5C 46.9129,82.5562 49.5796,91.5562 52.5,100.5C 55.9555,91.0216 58.9555,81.3549 61.5,71.5C 63.8333,71.5 66.1667,71.5 68.5,71.5C 71.174,81.1928 74.0074,90.8595 77,100.5C 80.6092,91.0636 83.4425,81.397 85.5,71.5C 87.5,71.5 89.5,71.5 91.5,71.5C 88.1922,84.1982 84.6922,96.8649 81,109.5C 79.2458,111.25 77.0792,111.917 74.5,111.5C 72.6384,105.032 70.6384,98.6985 68.5,92.5 Z"/></g>
<g><path style="opacity:1" fill="#dba6a2" d="M 66.5,85.5 C 67.9238,87.5145 68.5905,89.8478 68.5,92.5C 67.0762,90.4855 66.4095,88.1522 66.5,85.5 Z"/></g>
<g><path style="opacity:1" fill="#cc8b89" d="M 66.5,85.5 C 65.7321,84.7375 65.2321,83.7375 65,82.5C 64.6174,83.056 64.1174,83.3893 63.5,83.5C 63.4614,82.2438 63.9614,81.2438 65,80.5C 66.2692,81.9047 66.7692,83.5714 66.5,85.5 Z"/></g>
<g><path style="opacity:1" fill="#a33031" d="M 250.5,106.5 C 256.5,106.5 262.5,106.5 268.5,106.5C 268.5,108.167 268.5,109.833 268.5,111.5C 260.833,111.5 253.167,111.5 245.5,111.5C 245.5,111.167 245.5,110.833 245.5,110.5C 252.833,110.5 260.167,110.5 267.5,110.5C 267.5,109.5 267.5,108.5 267.5,107.5C 261.642,107.822 255.975,107.489 250.5,106.5 Z"/></g>
<g><path style="opacity:1" fill="#e2ae24" d="M 102.5,160.5 C 96.9895,162.21 91.3228,162.877 85.5,162.5C 73.062,157.295 68.2286,147.962 71,134.5C 75.6118,123.104 84.1118,118.271 96.5,120C 100.493,120.993 103.827,122.993 106.5,126C 105.387,127.394 104.053,128.561 102.5,129.5C 96.0979,124.872 89.4312,124.372 82.5,128C 80.1064,129.952 78.6064,132.452 78,135.5C 76.023,143.337 77.8564,150.004 83.5,155.5C 85.7875,156.922 88.2875,157.589 91,157.5C 96.0897,157.137 100.59,155.637 104.5,153C 107.241,156.289 106.575,158.789 102.5,160.5 Z"/></g>
<g><path style="opacity:1" fill="#ecd37d" d="M 228.5,138.5 C 222.167,138.5 215.833,138.5 209.5,138.5C 209.5,134.167 209.5,129.833 209.5,125.5C 216.167,125.5 222.833,125.5 229.5,125.5C 229.5,124.167 229.5,122.833 229.5,121.5C 221.167,121.5 212.833,121.5 204.5,121.5C 204.5,134.833 204.5,148.167 204.5,161.5C 203.504,148.01 203.171,134.344 203.5,120.5C 212.5,120.5 221.5,120.5 230.5,120.5C 230.5,122.5 230.5,124.5 230.5,126.5C 223.833,126.5 217.167,126.5 210.5,126.5C 210.5,130.167 210.5,133.833 210.5,137.5C 216.69,137.177 222.69,137.51 228.5,138.5 Z"/></g>
<g><path style="opacity:1" fill="#ebd780" d="M 245.5,121.5 C 243.167,121.5 240.833,121.5 238.5,121.5C 238.5,134.833 238.5,148.167 238.5,161.5C 237.504,148.01 237.171,134.344 237.5,120.5C 240.385,120.194 243.052,120.527 245.5,121.5 Z"/></g>
<g><path style="opacity:1" fill="#efda8a" d="M 65.5,121.5 C 56.8333,121.5 48.1667,121.5 39.5,121.5C 39.5,134.833 39.5,148.167 39.5,161.5C 38.5043,148.01 38.171,134.344 38.5,120.5C 47.6822,120.173 56.6822,120.507 65.5,121.5 Z"/></g>
<g><path style="opacity:1" fill="#f0d783" d="M 162.5,121.5 C 159.5,121.5 156.5,121.5 153.5,121.5C 153.5,134.833 153.5,148.167 153.5,161.5C 152.504,148.01 152.171,134.344 152.5,120.5C 156.042,120.187 159.375,120.521 162.5,121.5 Z"/></g>
<g><path style="opacity:1" fill="#e9d27c" d="M 143.5,150.5 C 143.5,140.833 143.5,131.167 143.5,121.5C 141.833,121.5 140.167,121.5 138.5,121.5C 138.827,131.348 138.494,141.014 137.5,150.5C 137.5,140.5 137.5,130.5 137.5,120.5C 139.833,120.5 142.167,120.5 144.5,120.5C 144.827,130.681 144.494,140.681 143.5,150.5 Z"/></g>
<g><path style="opacity:1" fill="#e2ac1e" d="M 228.5,138.5 C 229.801,139.884 229.801,141.384 228.5,143C 222.509,143.499 216.509,143.666 210.5,143.5C 209.515,147.634 209.182,151.968 209.5,156.5C 216.5,156.5 223.5,156.5 230.5,156.5C 231.807,158.223 231.807,160.057 230.5,162C 221.657,162.824 212.99,162.657 204.5,161.5C 204.5,148.167 204.5,134.833 204.5,121.5C 212.833,121.5 221.167,121.5 229.5,121.5C 229.5,122.833 229.5,124.167 229.5,125.5C 222.833,125.5 216.167,125.5 209.5,125.5C 209.5,129.833 209.5,134.167 209.5,138.5C 215.833,138.5 222.167,138.5 228.5,138.5 Z"/></g>
<g><path style="opacity:1" fill="#ddbd48" d="M 281.5,120.5 C 283.5,120.5 285.5,120.5 287.5,120.5C 287.5,134.5 287.5,148.5 287.5,162.5C 285.5,162.5 283.5,162.5 281.5,162.5C 281.5,148.5 281.5,134.5 281.5,120.5 Z"/></g>
<g><path style="opacity:1" fill="#dfa80a" d="M 282.5,121.5 C 283.833,121.5 285.167,121.5 286.5,121.5C 286.5,134.833 286.5,148.167 286.5,161.5C 285.167,161.5 283.833,161.5 282.5,161.5C 282.5,148.167 282.5,134.833 282.5,121.5 Z"/></g>
<g><path style="opacity:1" fill="#e2ad1f" d="M 162.5,121.5 C 166.133,130.71 169.799,140.043 173.5,149.5C 174.478,149.023 175.311,148.357 176,147.5C 178.704,139.202 181.871,131.202 185.5,123.5C 185.527,126.23 184.86,128.73 183.5,131C 184.166,132.669 184.166,134.169 183.5,135.5C 183.855,136.522 184.522,137.189 185.5,137.5C 181.924,145.556 178.924,153.889 176.5,162.5C 174.856,162.714 173.356,162.38 172,161.5C 169.614,154.254 166.781,147.254 163.5,140.5C 162.547,136.597 161.047,132.93 159,129.5C 158.5,140.161 158.333,150.828 158.5,161.5C 156.833,162.833 155.167,162.833 153.5,161.5C 153.5,148.167 153.5,134.833 153.5,121.5C 156.5,121.5 159.5,121.5 162.5,121.5 Z"/></g>
<g><path style="opacity:1" fill="#f6e8b3" d="M 163.5,140.5 C 162.034,139.653 161.2,138.32 161,136.5C 160.667,137.167 160.333,137.833 160,138.5C 159.829,146.344 159.329,154.011 158.5,161.5C 158.333,150.828 158.5,140.161 159,129.5C 161.047,132.93 162.547,136.597 163.5,140.5 Z"/></g>
<g><path style="opacity:1" fill="#e0ac1b" d="M 245.5,121.5 C 252.534,131.211 259.201,141.211 265.5,151.5C 265.56,152.043 265.893,152.376 266.5,152.5C 267.499,142.188 267.832,131.855 267.5,121.5C 269.167,121.5 270.833,121.5 272.5,121.5C 272.5,134.833 272.5,148.167 272.5,161.5C 270.052,162.473 267.385,162.806 264.5,162.5C 258.934,151.702 252.6,141.369 245.5,131.5C 245.44,130.957 245.107,130.624 244.5,130.5C 243.501,140.812 243.168,151.145 243.5,161.5C 241.833,162.833 240.167,162.833 238.5,161.5C 238.5,148.167 238.5,134.833 238.5,121.5C 240.833,121.5 243.167,121.5 245.5,121.5 Z"/></g>
<g><path style="opacity:1" fill="#eede99" d="M 45.5,126.5 C 45.5,130.167 45.5,133.833 45.5,137.5C 51.69,137.177 57.69,137.51 63.5,138.5C 57.1667,138.5 50.8333,138.5 44.5,138.5C 44.1832,134.298 44.5166,130.298 45.5,126.5 Z"/></g>
<g><path style="opacity:1" fill="#e1a808" d="M 186.5,121.5 C 189.167,121.5 191.833,121.5 194.5,121.5C 194.5,134.833 194.5,148.167 194.5,161.5C 193.167,161.5 191.833,161.5 190.5,161.5C 190.832,150.48 190.499,139.48 189.5,128.5C 188.893,128.624 188.56,128.957 188.5,129.5C 188.167,130.833 187.833,132.167 187.5,133.5C 186.655,134.671 185.989,136.005 185.5,137.5C 184.522,137.189 183.855,136.522 183.5,135.5C 184.166,134.169 184.166,132.669 183.5,131C 184.86,128.73 185.527,126.23 185.5,123.5C 185.328,122.508 185.662,121.842 186.5,121.5 Z"/></g>
<g><path style="opacity:1" fill="#f2e299" d="M 272.5,161.5 C 272.5,148.167 272.5,134.833 272.5,121.5C 270.833,121.5 269.167,121.5 267.5,121.5C 267.832,131.855 267.499,142.188 266.5,152.5C 265.893,152.376 265.56,152.043 265.5,151.5C 266.494,141.347 266.828,131.014 266.5,120.5C 268.833,120.5 271.167,120.5 273.5,120.5C 273.829,134.344 273.496,148.01 272.5,161.5 Z"/></g>
<g><path style="opacity:1" fill="#ecd17a" d="M 63.5,138.5 C 64.4511,139.919 64.7845,141.585 64.5,143.5C 58.1667,143.5 51.8333,143.5 45.5,143.5C 45.5,147.833 45.5,152.167 45.5,156.5C 44.5139,152.03 44.1805,147.363 44.5,142.5C 50.8333,142.5 57.1667,142.5 63.5,142.5C 63.5,141.167 63.5,139.833 63.5,138.5 Z"/></g>
<g><path style="opacity:1" fill="#efdf93" d="M 245.5,131.5 C 244.833,141.5 244.167,151.5 243.5,161.5C 243.168,151.145 243.501,140.812 244.5,130.5C 245.107,130.624 245.44,130.957 245.5,131.5 Z"/></g>
<g><path style="opacity:1" fill="#e4be4d" d="M 186.5,121.5 C 189.287,120.523 192.287,120.19 195.5,120.5C 195.5,134.5 195.5,148.5 195.5,162.5C 193.265,162.795 191.265,162.461 189.5,161.5C 189.828,150.654 189.494,139.987 188.5,129.5C 188.56,128.957 188.893,128.624 189.5,128.5C 190.499,139.48 190.832,150.48 190.5,161.5C 191.833,161.5 193.167,161.5 194.5,161.5C 194.5,148.167 194.5,134.833 194.5,121.5C 191.833,121.5 189.167,121.5 186.5,121.5 Z"/></g>
<g><path style="opacity:1" fill="#f8f1ce" d="M 188.5,129.5 C 189.494,139.987 189.828,150.654 189.5,161.5C 188.833,152.167 188.167,142.833 187.5,133.5C 187.833,132.167 188.167,130.833 188.5,129.5 Z"/></g>
<g><path style="opacity:1" fill="#e1aa13" d="M 65.5,121.5 C 65.5,123.167 65.5,124.833 65.5,126.5C 58.8333,126.5 52.1667,126.5 45.5,126.5C 44.5166,130.298 44.1832,134.298 44.5,138.5C 50.8333,138.5 57.1667,138.5 63.5,138.5C 63.5,139.833 63.5,141.167 63.5,142.5C 57.1667,142.5 50.8333,142.5 44.5,142.5C 44.1805,147.363 44.5139,152.03 45.5,156.5C 51.979,157.491 58.6457,157.824 65.5,157.5C 65.5,158.833 65.5,160.167 65.5,161.5C 56.8333,161.5 48.1667,161.5 39.5,161.5C 39.5,148.167 39.5,134.833 39.5,121.5C 48.1667,121.5 56.8333,121.5 65.5,121.5 Z"/></g>
<g><path style="opacity:1" fill="#e1ae22" d="M 309.5,119.5 C 314.566,119.34 319.566,119.84 324.5,121C 326.976,122.309 328.976,124.142 330.5,126.5C 329.167,127.5 327.833,128.5 326.5,129.5C 318.627,123.841 311.127,124.174 304,130.5C 298.87,141.364 301.037,150.198 310.5,157C 316.869,158.52 322.369,157.02 327,152.5C 328.626,153.289 330.126,154.289 331.5,155.5C 327.298,160.631 321.798,162.964 315,162.5C 304.678,162.526 298.011,157.526 295,147.5C 293.806,140.479 294.806,133.813 298,127.5C 301.464,124.195 305.297,121.528 309.5,119.5 Z"/></g>
<g><path style="opacity:1" fill="#e2ae24" d="M 370.5,159.5 C 369.082,161.308 367.082,161.975 364.5,161.5C 363.203,159.007 362.203,156.34 361.5,153.5C 354.5,152.167 347.5,152.167 340.5,153.5C 339.366,156.07 338.532,158.736 338,161.5C 335.959,162.423 333.792,162.756 331.5,162.5C 336.094,148.125 341.76,134.291 348.5,121C 350.579,120.192 352.579,120.359 354.5,121.5C 360.382,133.932 365.716,146.599 370.5,159.5 Z"/></g>
<g><path style="opacity:1" fill="#fbf9eb" d="M 349.5,129.5 C 351.017,129.511 352.184,130.177 353,131.5C 355.107,136.364 356.607,141.364 357.5,146.5C 353.167,146.5 348.833,146.5 344.5,146.5C 345.962,140.78 347.629,135.114 349.5,129.5 Z"/></g>
<g><path style="opacity:1" fill="#f0d786" d="M 382.5,156.5 C 382.167,156.5 381.833,156.5 381.5,156.5C 381.5,144.833 381.5,133.167 381.5,121.5C 379.833,121.5 378.167,121.5 376.5,121.5C 376.5,134.833 376.5,148.167 376.5,161.5C 384.167,161.5 391.833,161.5 399.5,161.5C 391.684,162.492 383.684,162.826 375.5,162.5C 375.5,148.5 375.5,134.5 375.5,120.5C 377.833,120.5 380.167,120.5 382.5,120.5C 382.5,132.5 382.5,144.5 382.5,156.5 Z"/></g>
<g><path style="opacity:1" fill="#f9f1c9" d="M 210.5,143.5 C 210.5,147.5 210.5,151.5 210.5,155.5C 217.354,155.176 224.021,155.509 230.5,156.5C 223.5,156.5 216.5,156.5 209.5,156.5C 209.182,151.968 209.515,147.634 210.5,143.5 Z"/></g>
<g><path style="opacity:1" fill="#efcc66" d="M 381.5,156.5 C 381.833,156.5 382.167,156.5 382.5,156.5C 388.5,156.5 394.5,156.5 400.5,156.5C 400.784,158.415 400.451,160.081 399.5,161.5C 399.5,160.167 399.5,158.833 399.5,157.5C 393.31,157.823 387.31,157.49 381.5,156.5 Z"/></g>
<g><path style="opacity:1" fill="#e0a90e" d="M 381.5,156.5 C 387.31,157.49 393.31,157.823 399.5,157.5C 399.5,158.833 399.5,160.167 399.5,161.5C 391.833,161.5 384.167,161.5 376.5,161.5C 376.5,148.167 376.5,134.833 376.5,121.5C 378.167,121.5 379.833,121.5 381.5,121.5C 381.5,133.167 381.5,144.833 381.5,156.5 Z"/></g>
<g><path style="opacity:1" fill="#edce72" d="M 45.5,156.5 C 52.5,156.5 59.5,156.5 66.5,156.5C 66.5,158.5 66.5,160.5 66.5,162.5C 57.3178,162.827 48.3178,162.493 39.5,161.5C 48.1667,161.5 56.8333,161.5 65.5,161.5C 65.5,160.167 65.5,158.833 65.5,157.5C 58.6457,157.824 51.979,157.491 45.5,156.5 Z"/></g>
<g><path style="opacity:1" fill="#e1ae21" d="M 137.5,150.5 C 138.494,141.014 138.827,131.348 138.5,121.5C 140.167,121.5 141.833,121.5 143.5,121.5C 143.5,131.167 143.5,140.833 143.5,150.5C 141.909,159.311 136.576,163.311 127.5,162.5C 119.964,162.989 115.131,159.655 113,152.5C 112.5,141.839 112.333,131.172 112.5,120.5C 114.5,120.5 116.5,120.5 118.5,120.5C 118.334,130.506 118.5,140.506 119,150.5C 121.71,157.572 126.543,159.405 133.5,156C 135.464,154.549 136.797,152.716 137.5,150.5 Z"/></g>
<g><path style="opacity:1" fill="#ead181" d="M 370.5,159.5 C 371.404,160.209 371.737,161.209 371.5,162.5C 368.941,162.802 366.607,162.468 364.5,161.5C 367.082,161.975 369.082,161.308 370.5,159.5 Z"/></g>
<g><path style="opacity:1" fill="#f9eab6" d="M 102.5,160.5 C 101.942,161.79 100.942,162.623 99.5,163C 94.6478,163.815 89.9811,163.648 85.5,162.5C 91.3228,162.877 96.9895,162.21 102.5,160.5 Z"/></g>
<g><path style="opacity:1" fill="#493ec8" d="M 219.5,180.5 C 218.508,180.328 217.842,180.662 217.5,181.5C 212.094,180.735 210.094,183.069 211.5,188.5C 209.409,180.525 208.076,180.858 207.5,189.5C 205.8,185.927 206.467,182.761 209.5,180C 213.027,179.192 216.36,179.359 219.5,180.5 Z"/></g>
<g><path style="opacity:1" fill="#f3f3f8" d="M 217.5,181.5 C 218.117,181.611 218.617,181.944 219,182.5C 219.667,185.167 219.667,187.833 219,190.5C 215.758,193.259 213.258,192.593 211.5,188.5C 210.094,183.069 212.094,180.735 217.5,181.5 Z"/></g>
<g><path style="opacity:1" fill="#615cc6" d="M 235.5,191.5 C 233.167,190.167 230.833,190.167 228.5,191.5C 227.957,191.44 227.624,191.107 227.5,190.5C 231.122,189.341 234.789,189.175 238.5,190C 237.756,191.039 236.756,191.539 235.5,191.5 Z"/></g>
<g><path style="opacity:1" fill="#2f27c6" d="M 228.5,191.5 C 230.833,190.167 233.167,190.167 235.5,191.5C 234.167,193.167 232.833,194.833 231.5,196.5C 230.833,195.167 230.167,193.833 229.5,192.5C 229.5,191.833 229.167,191.5 228.5,191.5 Z"/></g>
<g><path style="opacity:1" fill="#fcfee1" d="M 399.5,194.5 C 347.997,194.168 296.664,194.501 245.5,195.5C 245.5,196.833 245.5,198.167 245.5,199.5C 244.371,197.372 244.204,195.039 245,192.5C 296.598,193.165 348.098,193.831 399.5,194.5 Z"/></g>
<g><path style="opacity:1" fill="#f6fa8b" d="M 245.5,195.5 C 296.664,194.501 347.997,194.168 399.5,194.5C 400.461,196.265 400.795,198.265 400.5,200.5C 348.664,200.832 296.997,200.499 245.5,199.5C 296.833,199.5 348.167,199.5 399.5,199.5C 399.5,198.167 399.5,196.833 399.5,195.5C 348.167,195.5 296.833,195.5 245.5,195.5 Z"/></g>
<g><path style="opacity:1" fill="#f1fc18" d="M 192.5,195.5 C 192.5,196.833 192.5,198.167 192.5,199.5C 141.167,199.5 89.8333,199.5 38.5,199.5C 38.5,198.167 38.5,196.833 38.5,195.5C 89.8333,195.5 141.167,195.5 192.5,195.5 Z"/></g>
<g><path style="opacity:1" fill="#f1fc18" d="M 245.5,195.5 C 296.833,195.5 348.167,195.5 399.5,195.5C 399.5,196.833 399.5,198.167 399.5,199.5C 348.167,199.5 296.833,199.5 245.5,199.5C 245.5,198.167 245.5,196.833 245.5,195.5 Z"/></g>
<g><path style="opacity:1" fill="#f7fb92" d="M 192.5,195.5 C 141.167,195.5 89.8333,195.5 38.5,195.5C 38.5,196.833 38.5,198.167 38.5,199.5C 89.8333,199.5 141.167,199.5 192.5,199.5C 141.003,200.499 89.336,200.832 37.5,200.5C 37.5,198.5 37.5,196.5 37.5,194.5C 89.336,194.168 141.003,194.501 192.5,195.5 Z"/></g>
<g><path style="opacity:1" fill="#2f26c7" d="M 217.5,181.5 C 217.842,180.662 218.508,180.328 219.5,180.5C 224.577,182.334 225.744,185.667 223,190.5C 221.365,191.726 219.865,193.059 218.5,194.5C 221.026,197.557 223.026,200.891 224.5,204.5C 224.842,205.338 225.508,205.672 226.5,205.5C 227.369,209.374 229.703,212.041 233.5,213.5C 230.713,214.477 227.713,214.81 224.5,214.5C 222.212,212.056 219.879,212.223 217.5,215C 205.193,217.36 200.359,212.527 203,200.5C 205.397,197.6 208.23,195.267 211.5,193.5C 209.812,192.479 208.479,191.145 207.5,189.5C 208.076,180.858 209.409,180.525 211.5,188.5C 213.258,192.593 215.758,193.259 219,190.5C 219.667,187.833 219.667,185.167 219,182.5C 218.617,181.944 218.117,181.611 217.5,181.5 Z"/></g>
<g><path style="opacity:1" fill="#efeef8" d="M 212.5,195.5 C 214.371,195.859 215.871,196.859 217,198.5C 219.533,202.203 220.866,206.203 221,210.5C 211.611,214.773 206.945,211.773 207,201.5C 208.36,198.977 210.193,196.977 212.5,195.5 Z"/></g>
<g><path style="opacity:1" fill="#4f47c1" d="M 229.5,192.5 C 230.167,193.833 230.833,195.167 231.5,196.5C 230.385,199.887 228.718,202.887 226.5,205.5C 225.508,205.672 224.842,205.338 224.5,204.5C 227.75,201.315 229.416,197.315 229.5,192.5 Z"/></g>
<g><path style="opacity:1" fill="#7a7bc6" d="M 233.5,213.5 C 234.675,213.281 235.675,213.614 236.5,214.5C 232.351,215.809 228.351,215.809 224.5,214.5C 227.713,214.81 230.713,214.477 233.5,213.5 Z"/></g>
<g><path style="opacity:1" fill="#5fc96e" d="M 186.5,241.5 C 190.298,240.517 194.298,240.183 198.5,240.5C 198.5,238.833 198.5,237.167 198.5,235.5C 187.833,235.5 177.167,235.5 166.5,235.5C 166.5,237.167 166.5,238.833 166.5,240.5C 170.702,240.183 174.702,240.517 178.5,241.5C 174.167,241.5 169.833,241.5 165.5,241.5C 165.5,239.167 165.5,236.833 165.5,234.5C 176.833,234.5 188.167,234.5 199.5,234.5C 199.5,236.833 199.5,239.167 199.5,241.5C 195.167,241.5 190.833,241.5 186.5,241.5 Z"/></g>
<g><path style="opacity:1" fill="#5fca6e" d="M 344.5,241.5 C 348.298,240.517 352.298,240.183 356.5,240.5C 356.5,238.833 356.5,237.167 356.5,235.5C 345.833,235.5 335.167,235.5 324.5,235.5C 324.5,237.167 324.5,238.833 324.5,240.5C 328.702,240.183 332.702,240.517 336.5,241.5C 332.167,241.5 327.833,241.5 323.5,241.5C 323.5,239.167 323.5,236.833 323.5,234.5C 334.833,234.5 346.167,234.5 357.5,234.5C 357.5,236.833 357.5,239.167 357.5,241.5C 353.167,241.5 348.833,241.5 344.5,241.5 Z"/></g>
<g><path style="opacity:1" fill="#1fb333" d="M 142.5,234.5 C 144.833,234.5 147.167,234.5 149.5,234.5C 149.5,246.5 149.5,258.5 149.5,270.5C 155.5,270.5 161.5,270.5 167.5,270.5C 167.5,272.5 167.5,274.5 167.5,276.5C 159.167,276.5 150.833,276.5 142.5,276.5C 142.5,262.5 142.5,248.5 142.5,234.5 Z"/></g>
<g><path style="opacity:1" fill="#1db333" d="M 208.5,234.5 C 210.833,234.5 213.167,234.5 215.5,234.5C 215.5,248.5 215.5,262.5 215.5,276.5C 213.167,276.5 210.833,276.5 208.5,276.5C 208.5,262.5 208.5,248.5 208.5,234.5 Z"/></g>
<g><path style="opacity:1" fill="#1eb233" d="M 255.5,240.5 C 248.833,240.5 242.167,240.5 235.5,240.5C 235.183,244.702 235.517,248.702 236.5,252.5C 242.5,252.5 248.5,252.5 254.5,252.5C 254.5,254.5 254.5,256.5 254.5,258.5C 248.167,258.5 241.833,258.5 235.5,258.5C 235.5,264.5 235.5,270.5 235.5,276.5C 233.167,276.5 230.833,276.5 228.5,276.5C 228.5,262.5 228.5,248.5 228.5,234.5C 237.5,234.5 246.5,234.5 255.5,234.5C 255.5,236.5 255.5,238.5 255.5,240.5 Z"/></g>
<g><path style="opacity:1" fill="#17b22f" d="M 314.5,235.5 C 314.5,249.167 314.5,262.833 314.5,276.5C 312.5,276.5 310.5,276.5 308.5,276.5C 308.5,262.833 308.5,249.167 308.5,235.5C 310.5,235.5 312.5,235.5 314.5,235.5 Z"/></g>
<g><path style="opacity:1" fill="#1ab231" d="M 344.5,241.5 C 344.5,253.167 344.5,264.833 344.5,276.5C 342.167,276.5 339.833,276.5 337.5,276.5C 337.828,264.655 337.495,252.988 336.5,241.5C 332.702,240.517 328.702,240.183 324.5,240.5C 324.5,238.833 324.5,237.167 324.5,235.5C 335.167,235.5 345.833,235.5 356.5,235.5C 356.5,237.167 356.5,238.833 356.5,240.5C 352.298,240.183 348.298,240.517 344.5,241.5 Z"/></g>
<g><path style="opacity:1" fill="#1bb231" d="M 186.5,241.5 C 186.5,253.167 186.5,264.833 186.5,276.5C 184.167,276.5 181.833,276.5 179.5,276.5C 179.828,264.655 179.495,252.988 178.5,241.5C 174.702,240.517 170.702,240.183 166.5,240.5C 166.5,238.833 166.5,237.167 166.5,235.5C 177.167,235.5 187.833,235.5 198.5,235.5C 198.5,237.167 198.5,238.833 198.5,240.5C 194.298,240.183 190.298,240.517 186.5,241.5 Z"/></g>
<g><path style="opacity:1" fill="#50be60" d="M 373.5,250.5 C 373.5,250.833 373.5,251.167 373.5,251.5C 372.512,246.36 372.179,241.026 372.5,235.5C 370.5,235.5 368.5,235.5 366.5,235.5C 366.5,249.167 366.5,262.833 366.5,276.5C 365.504,262.677 365.171,248.677 365.5,234.5C 368.167,234.5 370.833,234.5 373.5,234.5C 373.5,239.833 373.5,245.167 373.5,250.5 Z"/></g>
<g><path style="opacity:1" fill="#7bd887" d="M 399.5,234.5 C 400.496,248.657 400.829,262.99 400.5,277.5C 397.615,277.806 394.948,277.473 392.5,276.5C 394.833,276.5 397.167,276.5 399.5,276.5C 399.5,262.5 399.5,248.5 399.5,234.5 Z"/></g>
<g><path style="opacity:1" fill="#46bb5a" d="M 314.5,234.5 C 314.5,234.833 314.5,235.167 314.5,235.5C 312.5,235.5 310.5,235.5 308.5,235.5C 308.5,249.167 308.5,262.833 308.5,276.5C 308.167,276.5 307.833,276.5 307.5,276.5C 307.5,262.5 307.5,248.5 307.5,234.5C 309.833,234.5 312.167,234.5 314.5,234.5 Z"/></g>
<g><path style="opacity:1" fill="#8ee09b" d="M 255.5,240.5 C 249.355,241.49 243.022,241.823 236.5,241.5C 236.5,245.167 236.5,248.833 236.5,252.5C 235.517,248.702 235.183,244.702 235.5,240.5C 242.167,240.5 248.833,240.5 255.5,240.5 Z"/></g>
<g><path style="opacity:1" fill="#56c367" d="M 103.5,264.5 C 102.506,255.014 102.173,245.348 102.5,235.5C 100.5,235.5 98.5,235.5 96.5,235.5C 96.5,245.5 96.5,255.5 96.5,265.5C 95.5058,255.347 95.1724,245.014 95.5,234.5C 98.1667,234.5 100.833,234.5 103.5,234.5C 103.5,244.5 103.5,254.5 103.5,264.5 Z"/></g>
<g><path style="opacity:1" fill="#8ad998" d="M 208.5,234.5 C 208.5,248.5 208.5,262.5 208.5,276.5C 210.833,276.5 213.167,276.5 215.5,276.5C 213.052,277.473 210.385,277.806 207.5,277.5C 207.171,262.99 207.504,248.657 208.5,234.5 Z"/></g>
<g><path style="opacity:1" fill="#7bd78a" d="M 314.5,234.5 C 315.496,248.657 315.829,262.99 315.5,277.5C 312.615,277.806 309.948,277.473 307.5,276.5C 307.833,276.5 308.167,276.5 308.5,276.5C 310.5,276.5 312.5,276.5 314.5,276.5C 314.5,262.833 314.5,249.167 314.5,235.5C 314.5,235.167 314.5,234.833 314.5,234.5 Z"/></g>
<g><path style="opacity:1" fill="#79cf88" d="M 178.5,241.5 C 179.495,252.988 179.828,264.655 179.5,276.5C 181.833,276.5 184.167,276.5 186.5,276.5C 184.052,277.473 181.385,277.806 178.5,277.5C 178.5,265.5 178.5,253.5 178.5,241.5 Z"/></g>
<g><path style="opacity:1" fill="#85cf8f" d="M 82.5,234.5 C 83.4959,248.657 83.8293,262.99 83.5,277.5C 80.6146,277.806 77.9479,277.473 75.5,276.5C 77.8333,276.5 80.1667,276.5 82.5,276.5C 82.5,262.5 82.5,248.5 82.5,234.5 Z"/></g>
<g><path style="opacity:1" fill="#81d690" d="M 336.5,241.5 C 337.495,252.988 337.828,264.655 337.5,276.5C 339.833,276.5 342.167,276.5 344.5,276.5C 342.052,277.473 339.385,277.806 336.5,277.5C 336.5,265.5 336.5,253.5 336.5,241.5 Z"/></g>
<g><path style="opacity:1" fill="#c9f2d0" d="M 392.5,234.5 C 392.5,240.167 392.5,245.833 392.5,251.5C 386.167,251.5 379.833,251.5 373.5,251.5C 373.5,251.167 373.5,250.833 373.5,250.5C 379.5,250.5 385.5,250.5 391.5,250.5C 391.179,244.974 391.512,239.64 392.5,234.5 Z"/></g>
<g><path style="opacity:1" fill="#23b436" d="M 392.5,234.5 C 394.833,234.5 397.167,234.5 399.5,234.5C 399.5,248.5 399.5,262.5 399.5,276.5C 397.167,276.5 394.833,276.5 392.5,276.5C 392.5,270.167 392.5,263.833 392.5,257.5C 385.978,257.177 379.645,257.51 373.5,258.5C 373.5,264.5 373.5,270.5 373.5,276.5C 371.167,276.5 368.833,276.5 366.5,276.5C 366.5,262.833 366.5,249.167 366.5,235.5C 368.5,235.5 370.5,235.5 372.5,235.5C 372.179,241.026 372.512,246.36 373.5,251.5C 379.833,251.5 386.167,251.5 392.5,251.5C 392.5,245.833 392.5,240.167 392.5,234.5 Z"/></g>
<g><path style="opacity:1" fill="#27b439" d="M 49.5,235.5 C 53.3388,244.331 57.0055,253.331 60.5,262.5C 63.5498,253.399 66.8831,244.399 70.5,235.5C 74.4454,234.509 78.4454,234.176 82.5,234.5C 82.5,248.5 82.5,262.5 82.5,276.5C 80.1667,276.5 77.8333,276.5 75.5,276.5C 75.6665,265.828 75.4998,255.161 75,244.5C 73.9614,245.244 73.4614,246.244 73.5,247.5C 69.754,257.073 66.4207,266.74 63.5,276.5C 61.1667,276.5 58.8333,276.5 56.5,276.5C 53.6647,266.862 50.3314,257.528 46.5,248.5C 46.6882,246.897 46.1882,245.563 45,244.5C 44.5002,255.161 44.3335,265.828 44.5,276.5C 42.1667,276.5 39.8333,276.5 37.5,276.5C 37.5,262.5 37.5,248.5 37.5,234.5C 41.7016,234.183 45.7016,234.517 49.5,235.5 Z"/></g>
<g><path style="opacity:1" fill="#baf1c3" d="M 75.5,276.5 C 74.8333,266.833 74.1667,257.167 73.5,247.5C 73.4614,246.244 73.9614,245.244 75,244.5C 75.4998,255.161 75.6665,265.828 75.5,276.5 Z"/></g>
<g><path style="opacity:1" fill="#15b22d" d="M 49.5,235.5 C 51.1157,239.329 50.7824,242.996 48.5,246.5C 47.6399,244.069 45.9732,242.736 43.5,242.5C 43.5,253.5 43.5,264.5 43.5,275.5C 41.8333,275.5 40.1667,275.5 38.5,275.5C 38.5,262.167 38.5,248.833 38.5,235.5C 42.1667,235.5 45.8333,235.5 49.5,235.5 Z"/></g>
<g><path style="opacity:1" fill="#b8e7bc" d="M 46.5,248.5 C 45.8333,257.833 45.1667,267.167 44.5,276.5C 44.3335,265.828 44.5002,255.161 45,244.5C 46.1882,245.563 46.6882,246.897 46.5,248.5 Z"/></g>
<g><path style="opacity:1" fill="#27b438" d="M 265.5,276.5 C 263.076,276.808 260.743,276.474 258.5,275.5C 259.309,273.929 259.643,272.262 259.5,270.5C 264.143,258.553 269.309,246.886 275,235.5C 277.401,234.398 279.901,234.231 282.5,235C 288.207,248.874 293.873,262.708 299.5,276.5C 296.428,276.817 293.428,276.484 290.5,275.5C 289.305,273.249 288.305,270.915 287.5,268.5C 281.167,267.167 274.833,267.167 268.5,268.5C 267.484,271.282 266.484,273.949 265.5,276.5 Z"/></g>
<g><path style="opacity:1" fill="#e4f6e5" d="M 277.5,245.5 C 278.496,245.414 279.329,245.748 280,246.5C 281.802,251.095 283.302,255.762 284.5,260.5C 280.5,260.5 276.5,260.5 272.5,260.5C 273.872,255.417 275.539,250.417 277.5,245.5 Z"/></g>
<g><path style="opacity:1" fill="#b6e9bd" d="M 373.5,258.5 C 379.645,257.51 385.978,257.177 392.5,257.5C 392.5,263.833 392.5,270.167 392.5,276.5C 391.51,270.69 391.177,264.69 391.5,258.5C 385.5,258.5 379.5,258.5 373.5,258.5 Z"/></g>
<g><path style="opacity:1" fill="#94de9f" d="M 254.5,258.5 C 248.69,259.49 242.69,259.823 236.5,259.5C 236.822,265.358 236.489,271.025 235.5,276.5C 235.5,270.5 235.5,264.5 235.5,258.5C 241.833,258.5 248.167,258.5 254.5,258.5 Z"/></g>
<g><path style="opacity:1" fill="#97dba1" d="M 149.5,234.5 C 150.495,245.988 150.828,257.655 150.5,269.5C 156.358,269.178 162.025,269.511 167.5,270.5C 161.5,270.5 155.5,270.5 149.5,270.5C 149.5,258.5 149.5,246.5 149.5,234.5 Z"/></g>
<g><path style="opacity:1" fill="#2ab53a" d="M 96.5,265.5 C 96.5,255.5 96.5,245.5 96.5,235.5C 98.5,235.5 100.5,235.5 102.5,235.5C 102.173,245.348 102.506,255.014 103.5,264.5C 105.947,270.208 110.28,272.041 116.5,270C 118.726,268.773 120.226,266.939 121,264.5C 121.5,254.506 121.666,244.506 121.5,234.5C 124.167,234.5 126.833,234.5 129.5,234.5C 129.667,245.172 129.5,255.839 129,266.5C 124.081,277.076 115.915,280.576 104.5,277C 100.225,274.284 97.5588,270.451 96.5,265.5 Z"/></g>
<g><path style="opacity:1" fill="#95dba0" d="M 142.5,234.5 C 142.5,248.5 142.5,262.5 142.5,276.5C 150.833,276.5 159.167,276.5 167.5,276.5C 159.016,277.493 150.349,277.826 141.5,277.5C 141.171,262.99 141.504,248.657 142.5,234.5 Z"/></g>
<g><path style="opacity:1" fill="#99daa3" d="M 259.5,270.5 C 259.643,272.262 259.309,273.929 258.5,275.5C 260.743,276.474 263.076,276.808 265.5,276.5C 262.713,277.477 259.713,277.81 256.5,277.5C 256.707,274.759 257.707,272.426 259.5,270.5 Z"/></g>
<g><path style="opacity:1" fill="#64459c" d="M 258.5,287.5 C 258.5,287.833 258.5,288.167 258.5,288.5C 247.833,288.5 237.167,288.5 226.5,288.5C 226.5,290.167 226.5,291.833 226.5,293.5C 230.702,293.183 234.702,293.517 238.5,294.5C 234.167,294.5 229.833,294.5 225.5,294.5C 225.5,292.167 225.5,289.833 225.5,287.5C 236.5,287.5 247.5,287.5 258.5,287.5 Z"/></g>
<g><path style="opacity:1" fill="#bcb0d9" d="M 177.5,287.5 C 175.167,287.5 172.833,287.5 170.5,287.5C 170.5,301.5 170.5,315.5 170.5,329.5C 169.504,315.343 169.171,301.01 169.5,286.5C 172.385,286.194 175.052,286.527 177.5,287.5 Z"/></g>
<g><path style="opacity:1" fill="#6f549f" d="M 104.5,329.5 C 104.5,315.833 104.5,302.167 104.5,288.5C 102.5,288.5 100.5,288.5 98.5,288.5C 98.5,302.167 98.5,315.833 98.5,329.5C 97.5042,315.677 97.1709,301.677 97.5,287.5C 100.167,287.5 102.833,287.5 105.5,287.5C 105.829,301.677 105.496,315.677 104.5,329.5 Z"/></g>
<g><path style="opacity:1" fill="#3d1387" d="M 104.5,329.5 C 102.5,329.5 100.5,329.5 98.5,329.5C 98.5,315.833 98.5,302.167 98.5,288.5C 100.5,288.5 102.5,288.5 104.5,288.5C 104.5,302.167 104.5,315.833 104.5,329.5 Z"/></g>
<g><path style="opacity:1" fill="#401787" d="M 177.5,287.5 C 177.5,301.5 177.5,315.5 177.5,329.5C 175.167,329.5 172.833,329.5 170.5,329.5C 170.5,315.5 170.5,301.5 170.5,287.5C 172.833,287.5 175.167,287.5 177.5,287.5 Z"/></g>
<g><path style="opacity:1" fill="#9b84be" d="M 258.5,287.5 C 259.468,289.607 259.802,291.941 259.5,294.5C 255.167,294.5 250.833,294.5 246.5,294.5C 250.298,293.517 254.298,293.183 258.5,293.5C 258.5,291.833 258.5,290.167 258.5,288.5C 258.5,288.167 258.5,287.833 258.5,287.5 Z"/></g>
<g><path style="opacity:1" fill="#55388f" d="M 288.5,288.5 C 282.167,288.5 275.833,288.5 269.5,288.5C 269.5,302.167 269.5,315.833 269.5,329.5C 268.504,315.677 268.171,301.677 268.5,287.5C 275.354,287.176 282.021,287.509 288.5,288.5 Z"/></g>
<g><path style="opacity:1" fill="#9b83c2" d="M 359.5,287.5 C 360.468,289.607 360.802,291.941 360.5,294.5C 353.5,294.5 346.5,294.5 339.5,294.5C 345.979,293.509 352.646,293.176 359.5,293.5C 359.5,291.5 359.5,289.5 359.5,287.5 Z"/></g>
<g><path style="opacity:1" fill="#3e1688" d="M 332.5,287.5 C 341.5,287.5 350.5,287.5 359.5,287.5C 359.5,289.5 359.5,291.5 359.5,293.5C 352.646,293.176 345.979,293.509 339.5,294.5C 339.5,297.833 339.5,301.167 339.5,304.5C 345.645,305.49 351.978,305.823 358.5,305.5C 358.5,307.167 358.5,308.833 358.5,310.5C 352.167,310.5 345.833,310.5 339.5,310.5C 339.5,314.833 339.5,319.167 339.5,323.5C 346.5,323.5 353.5,323.5 360.5,323.5C 360.5,325.5 360.5,327.5 360.5,329.5C 351.167,329.5 341.833,329.5 332.5,329.5C 332.5,315.5 332.5,301.5 332.5,287.5 Z"/></g>
<g><path style="opacity:1" fill="#644992" d="M 83.5,329.5 C 83.5,315.833 83.5,302.167 83.5,288.5C 79.3998,288.237 75.3998,288.57 71.5,289.5C 75.3727,287.57 79.706,286.903 84.5,287.5C 84.8291,301.677 84.4958,315.677 83.5,329.5 Z"/></g>
<g><path style="opacity:1" fill="#684d9b" d="M 317.5,329.5 C 317.5,315.833 317.5,302.167 317.5,288.5C 315.5,288.5 313.5,288.5 311.5,288.5C 311.5,302.167 311.5,315.833 311.5,329.5C 310.504,315.677 310.171,301.677 310.5,287.5C 313.167,287.5 315.833,287.5 318.5,287.5C 318.829,301.677 318.496,315.677 317.5,329.5 Z"/></g>
<g><path style="opacity:1" fill="#3d1388" d="M 317.5,329.5 C 315.5,329.5 313.5,329.5 311.5,329.5C 311.5,315.833 311.5,302.167 311.5,288.5C 313.5,288.5 315.5,288.5 317.5,288.5C 317.5,302.167 317.5,315.833 317.5,329.5 Z"/></g>
<g><path style="opacity:1" fill="#674b9f" d="M 51.5,291.5 C 50.596,290.791 50.2627,289.791 50.5,288.5C 46.8333,288.5 43.1667,288.5 39.5,288.5C 39.5,302.167 39.5,315.833 39.5,329.5C 39.1667,329.5 38.8333,329.5 38.5,329.5C 38.5,315.5 38.5,301.5 38.5,287.5C 42.8333,287.5 47.1667,287.5 51.5,287.5C 51.5,288.833 51.5,290.167 51.5,291.5 Z"/></g>
<g><path style="opacity:1" fill="#461e8c" d="M 258.5,288.5 C 258.5,290.167 258.5,291.833 258.5,293.5C 254.298,293.183 250.298,293.517 246.5,294.5C 246.5,306.167 246.5,317.833 246.5,329.5C 243.833,329.5 241.167,329.5 238.5,329.5C 238.5,317.833 238.5,306.167 238.5,294.5C 234.702,293.517 230.702,293.183 226.5,293.5C 226.5,291.833 226.5,290.167 226.5,288.5C 237.167,288.5 247.833,288.5 258.5,288.5 Z"/></g>
<g><path style="opacity:1" fill="#684c9b" d="M 339.5,304.5 C 346.167,304.5 352.833,304.5 359.5,304.5C 359.795,306.735 359.461,308.735 358.5,310.5C 358.5,308.833 358.5,307.167 358.5,305.5C 351.978,305.823 345.645,305.49 339.5,304.5 Z"/></g>
<g><path style="opacity:1" fill="#7c64af" d="M 149.5,287.5 C 149.5,287.833 149.5,288.167 149.5,288.5C 149.5,298.167 149.5,307.833 149.5,317.5C 147.821,317.715 146.821,317.048 146.5,315.5C 147.117,315.611 147.617,315.944 148,316.5C 148.17,306.658 148.67,296.991 149.5,287.5 Z"/></g>
<g><path style="opacity:1" fill="#411889" d="M 288.5,288.5 C 297.531,289.709 300.697,294.709 298,303.5C 296.385,307.403 293.552,310.069 289.5,311.5C 293.085,317.002 296.419,322.669 299.5,328.5C 296.5,329.833 293.5,329.833 290.5,328.5C 287.979,322.78 284.979,317.447 281.5,312.5C 279.735,311.539 277.735,311.205 275.5,311.5C 275.5,317.5 275.5,323.5 275.5,329.5C 273.5,329.5 271.5,329.5 269.5,329.5C 269.5,315.833 269.5,302.167 269.5,288.5C 275.833,288.5 282.167,288.5 288.5,288.5 Z"/></g>
<g><path style="opacity:1" fill="#967fbb" d="M 285.5,294.5 C 282.5,294.5 279.5,294.5 276.5,294.5C 276.5,298.167 276.5,301.833 276.5,305.5C 275.517,301.702 275.183,297.702 275.5,293.5C 279.042,293.187 282.375,293.521 285.5,294.5 Z"/></g>
<g><path style="opacity:1" fill="#f7f5f8" d="M 285.5,294.5 C 290.151,295.174 291.651,297.841 290,302.5C 289.097,303.701 287.931,304.535 286.5,305C 283.183,305.498 279.85,305.665 276.5,305.5C 276.5,301.833 276.5,298.167 276.5,294.5C 279.5,294.5 282.5,294.5 285.5,294.5 Z"/></g>
<g><path style="opacity:1" fill="#441c8a" d="M 379.5,322.5 C 382.833,325.167 386.167,325.167 389.5,322.5C 390.117,322.389 390.617,322.056 391,321.5C 391.667,319.5 391.667,317.5 391,315.5C 386.51,312.524 381.677,310.19 376.5,308.5C 370.012,301.857 370.012,295.357 376.5,289C 384.604,285.161 392.27,285.828 399.5,291C 397.983,292.685 396.316,294.185 394.5,295.5C 389.609,291.572 384.776,291.572 380,295.5C 379.333,297.167 379.333,298.833 380,300.5C 386.596,303.634 392.929,307.301 399,311.5C 401.407,323.688 396.407,330.021 384,330.5C 378.438,330.998 373.938,329.165 370.5,325C 372.463,320.177 375.463,319.344 379.5,322.5 Z"/></g>
<g><path style="opacity:1" fill="#5e3e95" d="M 149.5,288.5 C 149.5,288.167 149.5,287.833 149.5,287.5C 151.833,287.5 154.167,287.5 156.5,287.5C 156.829,301.677 156.496,315.677 155.5,329.5C 155.5,315.833 155.5,302.167 155.5,288.5C 153.5,288.5 151.5,288.5 149.5,288.5 Z"/></g>
<g><path style="opacity:1" fill="#3f1688" d="M 146.5,315.5 C 146.821,317.048 147.821,317.715 149.5,317.5C 149.5,307.833 149.5,298.167 149.5,288.5C 151.5,288.5 153.5,288.5 155.5,288.5C 155.5,302.167 155.5,315.833 155.5,329.5C 152.223,329.784 149.057,329.451 146,328.5C 140.155,318.806 134.322,309.139 128.5,299.5C 128.44,298.957 128.107,298.624 127.5,298.5C 126.501,308.812 126.168,319.145 126.5,329.5C 124.167,329.5 121.833,329.5 119.5,329.5C 119.5,315.5 119.5,301.5 119.5,287.5C 122.85,287.335 126.183,287.502 129.5,288C 135.392,297.052 141.058,306.218 146.5,315.5 Z"/></g>
<g><path style="opacity:1" fill="#a993c9" d="M 128.5,299.5 C 127.833,309.5 127.167,319.5 126.5,329.5C 126.168,319.145 126.501,308.812 127.5,298.5C 128.107,298.624 128.44,298.957 128.5,299.5 Z"/></g>
<g><path style="opacity:1" fill="#a28fbf" d="M 47.5,299.5 C 46.5058,309.653 46.1724,319.986 46.5,330.5C 43.6146,330.806 40.9479,330.473 38.5,329.5C 38.8333,329.5 39.1667,329.5 39.5,329.5C 41.5,329.5 43.5,329.5 45.5,329.5C 45.3335,318.828 45.5002,308.161 46,297.5C 46.7172,298.044 47.2172,298.711 47.5,299.5 Z"/></g>
<g><path style="opacity:1" fill="#a18ec1" d="M 332.5,287.5 C 332.5,301.5 332.5,315.5 332.5,329.5C 341.833,329.5 351.167,329.5 360.5,329.5C 360.5,327.5 360.5,325.5 360.5,323.5C 353.5,323.5 346.5,323.5 339.5,323.5C 339.5,319.167 339.5,314.833 339.5,310.5C 345.833,310.5 352.167,310.5 358.5,310.5C 352.69,311.49 346.69,311.823 340.5,311.5C 340.5,315.167 340.5,318.833 340.5,322.5C 347.5,322.5 354.5,322.5 361.5,322.5C 361.5,325.167 361.5,327.833 361.5,330.5C 351.5,330.5 341.5,330.5 331.5,330.5C 331.171,315.99 331.504,301.657 332.5,287.5 Z"/></g>
<g><path style="opacity:1" fill="#927ab7" d="M 281.5,312.5 C 279.833,312.5 278.167,312.5 276.5,312.5C 276.822,318.358 276.489,324.025 275.5,329.5C 275.5,323.5 275.5,317.5 275.5,311.5C 277.735,311.205 279.735,311.539 281.5,312.5 Z"/></g>
<g><path style="opacity:1" fill="#d6cae5" d="M 379.5,322.5 C 382.833,322.5 386.167,322.5 389.5,322.5C 386.167,325.167 382.833,325.167 379.5,322.5 Z"/></g>
<g><path style="opacity:1" fill="#401788" d="M 51.5,291.5 C 55.0994,299.034 58.4328,306.701 61.5,314.5C 62.086,314.291 62.586,313.957 63,313.5C 65.1846,305.104 68.0179,297.104 71.5,289.5C 75.3998,288.57 79.3998,288.237 83.5,288.5C 83.5,302.167 83.5,315.833 83.5,329.5C 81.5,329.5 79.5,329.5 77.5,329.5C 77.832,318.813 77.4987,308.146 76.5,297.5C 75.8933,297.624 75.56,297.957 75.5,298.5C 74.6373,300.421 73.9707,302.421 73.5,304.5C 70.1605,311.871 67.3272,319.537 65,327.5C 62.6667,330.167 60.3333,330.167 58,327.5C 54.3948,318.182 50.8948,308.848 47.5,299.5C 47.2172,298.711 46.7172,298.044 46,297.5C 45.5002,308.161 45.3335,318.828 45.5,329.5C 43.5,329.5 41.5,329.5 39.5,329.5C 39.5,315.833 39.5,302.167 39.5,288.5C 43.1667,288.5 46.8333,288.5 50.5,288.5C 50.2627,289.791 50.596,290.791 51.5,291.5 Z"/></g>
<g><path style="opacity:1" fill="#7156a9" d="M 75.5,298.5 C 75.56,297.957 75.8933,297.624 76.5,297.5C 77.4987,308.146 77.832,318.813 77.5,329.5C 77.1667,329.5 76.8333,329.5 76.5,329.5C 76.8276,318.986 76.4942,308.653 75.5,298.5 Z"/></g>
<g><path style="opacity:1" fill="#e0d6f0" d="M 75.5,298.5 C 76.4942,308.653 76.8276,318.986 76.5,329.5C 76.1548,320.95 75.1548,312.617 73.5,304.5C 73.9707,302.421 74.6373,300.421 75.5,298.5 Z"/></g>
<g><path style="opacity:1" fill="#441d8a" d="M 209.5,293.5 C 207.034,292.366 204.367,292.199 201.5,293C 200.944,293.383 200.611,293.883 200.5,294.5C 199.883,294.611 199.383,294.944 199,295.5C 198.333,297.5 198.333,299.5 199,301.5C 203.531,304.237 208.364,306.404 213.5,308C 219.831,313.855 220.165,320.188 214.5,327C 207.845,330.848 200.845,331.514 193.5,329C 191.36,328.027 189.693,326.527 188.5,324.5C 190.5,323.167 192.167,321.5 193.5,319.5C 198.815,325.578 204.315,325.911 210,320.5C 210.896,317.975 210.396,315.808 208.5,314C 204.91,312.47 201.243,311.136 197.5,310C 190.93,306.345 188.763,300.845 191,293.5C 198.338,285.708 206.838,284.375 216.5,289.5C 217.725,291.843 217.059,293.677 214.5,295C 212.465,295.599 210.799,295.099 209.5,293.5 Z"/></g>
<g><path style="opacity:1" fill="#af9ace" d="M 209.5,293.5 C 206.43,293.368 203.43,293.701 200.5,294.5C 200.611,293.883 200.944,293.383 201.5,293C 204.367,292.199 207.034,292.366 209.5,293.5 Z"/></g>
<g><path style="opacity:1" fill="#918696" d="M 399.5,361.5 C 399.5,353.833 399.5,346.167 399.5,338.5C 279.167,338.5 158.833,338.5 38.5,338.5C 38.5,346.167 38.5,353.833 38.5,361.5C 37.5076,353.684 37.1743,345.684 37.5,337.5C 158.5,337.5 279.5,337.5 400.5,337.5C 400.826,345.684 400.492,353.684 399.5,361.5 Z"/></g>
<g><path style="opacity:1" fill="#341c3d" d="M 399.5,361.5 C 279.167,361.5 158.833,361.5 38.5,361.5C 38.5,353.833 38.5,346.167 38.5,338.5C 158.833,338.5 279.167,338.5 399.5,338.5C 399.5,346.167 399.5,353.833 399.5,361.5 Z"/></g>
<g><path style="opacity:1" fill="#5e516a" d="M 399.5,384.5 C 399.5,379.833 399.5,375.167 399.5,370.5C 279.167,370.5 158.833,370.5 38.5,370.5C 38.5,375.167 38.5,379.833 38.5,384.5C 37.5128,379.695 37.1795,374.695 37.5,369.5C 158.5,369.5 279.5,369.5 400.5,369.5C 400.821,374.695 400.487,379.695 399.5,384.5 Z"/></g>
<g><path style="opacity:1" fill="#271639" d="M 399.5,384.5 C 279.167,384.5 158.833,384.5 38.5,384.5C 38.5,379.833 38.5,375.167 38.5,370.5C 158.833,370.5 279.167,370.5 399.5,370.5C 399.5,375.167 399.5,379.833 399.5,384.5 Z"/></g>
<g><path style="opacity:1" fill="#aaaaaa" d="M 37.5,388.5 C 158.5,388.5 279.5,388.5 400.5,388.5C 400.5,392.833 400.5,397.167 400.5,401.5C 279.5,401.5 158.5,401.5 37.5,401.5C 37.5,397.167 37.5,392.833 37.5,388.5 Z"/></g>
<g><path style="opacity:1" fill="#070707" d="M 38.5,389.5 C 158.833,389.5 279.167,389.5 399.5,389.5C 399.5,393.167 399.5,396.833 399.5,400.5C 279.167,400.5 158.833,400.5 38.5,400.5C 38.5,396.833 38.5,393.167 38.5,389.5 Z"/></g>
</svg>
