<svg version="1.1" id="Layer_1" xmlns="http://www.w3.org/2000/svg" xmlns:xlink="http://www.w3.org/1999/xlink" x="0px" y="0px"
	 width="100%" viewBox="0 0 250 250" enable-background="new 0 0 250 250" xml:space="preserve">
<path fill="#FEFEFE" opacity="1.000000" stroke="none" 
	d="
M142.000000,251.000000 
	C94.666672,251.000000 47.833340,251.000000 1.000006,251.000000 
	C1.000004,167.666672 1.000004,84.333351 1.000002,1.000018 
	C84.333321,1.000012 167.666641,1.000012 250.999969,1.000006 
	C250.999969,84.333321 250.999969,167.666641 250.999985,250.999969 
	C214.833328,251.000000 178.666672,251.000000 142.000000,251.000000 
M12.279681,238.522308 
	C12.342024,238.723938 12.404366,238.925568 13.048733,239.846756 
	C13.877591,239.898254 14.706445,239.994751 15.535309,239.994843 
	C87.838860,240.002502 160.142410,240.004013 232.445969,239.991714 
	C233.553238,239.991531 234.660477,239.814041 235.723633,239.723068 
	C235.723633,165.027710 235.723633,90.655579 235.723633,16.169065 
	C234.782318,16.096800 234.138138,16.004086 233.493958,16.004028 
	C161.023804,15.997627 88.553650,15.993769 16.083523,16.035698 
	C14.876450,16.036398 13.669702,16.598392 12.278467,17.505386 
	C12.329072,17.710674 12.379676,17.915962 12.216266,19.020691 
	C12.206687,90.991661 12.196139,162.962631 12.197596,234.933609 
	C12.197616,235.924789 12.348876,236.915985 12.279681,238.522308 
z"/>
<path fill="#1C4D2D" opacity="1.000000" stroke="none" 
	d="
M12.462802,16.898462 
	C13.669702,16.598392 14.876450,16.036398 16.083523,16.035698 
	C88.553650,15.993769 161.023804,15.997627 233.493958,16.004028 
	C234.138138,16.004086 234.782318,16.096800 235.723633,16.169065 
	C235.723633,90.655579 235.723633,165.027710 235.723633,239.723068 
	C234.660477,239.814041 233.553238,239.991531 232.445969,239.991714 
	C160.142410,240.004013 87.838860,240.002502 15.535309,239.994843 
	C14.706445,239.994751 13.877591,239.898254 13.007616,239.379059 
	C12.787517,238.576645 12.608533,238.241898 12.429548,237.907166 
	C12.348876,236.915985 12.197616,235.924789 12.197596,234.933609 
	C12.196139,162.962631 12.206687,90.991661 12.577926,18.473690 
	C12.780658,17.583948 12.621730,17.241205 12.462802,16.898462 
M82.017998,75.676888 
	C78.715294,84.882294 78.423470,94.126923 81.064789,103.598564 
	C85.744408,120.379410 103.189636,134.713196 119.666328,135.057053 
	C122.559341,135.117432 125.655449,134.891022 125.021324,131.102753 
	C123.913399,124.483971 127.523170,120.561768 131.870682,116.694832 
	C134.605087,114.262665 137.146515,111.600342 139.652283,108.926735 
	C147.975830,100.045692 148.039658,87.016731 139.723038,78.226219 
	C135.487228,73.749046 130.950699,69.556839 126.701004,65.092186 
	C124.555901,62.838585 122.844612,62.414223 120.511307,64.882477 
	C116.162888,69.482361 111.467445,73.756264 107.157936,78.390419 
	C98.930016,87.238152 99.147758,100.313278 107.555870,109.100586 
	C111.011223,112.711769 114.418060,116.410126 118.202560,119.653969 
	C121.861595,122.790276 122.688301,126.302498 121.186394,131.140778 
	C119.040062,130.912659 116.886681,130.901154 114.837746,130.432770 
	C91.882011,125.185265 78.392975,102.881828 84.783264,80.052109 
	C89.221588,64.195961 100.027046,54.179684 116.127731,51.338924 
	C132.283813,48.488388 146.272980,53.533401 156.100372,67.195656 
	C172.422256,89.886665 162.617645,119.764313 135.977097,129.571243 
	C134.635880,130.064972 133.695969,131.648849 132.569199,132.725128 
	C134.063110,132.836395 135.734207,133.444336 137.024277,132.984161 
	C155.274292,126.474426 166.007782,113.433144 167.580322,94.249153 
	C169.012512,76.777084 161.637680,62.603577 146.577469,53.406818 
	C122.647453,38.793583 94.130348,48.547562 82.017998,75.676888 
M167.516815,179.237457 
	C169.051727,179.890106 170.586655,180.542770 172.787125,181.478424 
	C172.787125,175.654175 172.634476,171.176147 172.834045,166.713867 
	C173.002380,162.950272 171.294708,162.578735 168.181000,163.596130 
	C168.053345,166.042984 167.931702,168.374725 167.785477,171.177338 
	C160.718521,163.225876 160.718521,163.225876 157.677704,163.802582 
	C157.677704,169.387726 157.677704,174.979736 157.677704,180.647171 
	C159.207230,180.647171 160.461548,180.647171 162.216339,180.647171 
	C162.216339,178.062531 162.216339,175.717987 162.216339,171.947128 
	C164.399902,174.978104 165.722427,176.813873 167.516815,179.237457 
M140.429810,193.906433 
	C136.792709,189.395111 132.073120,191.738602 127.555046,191.342407 
	C127.555046,197.465576 127.555046,203.033829 127.555046,208.986984 
	C129.184692,208.904587 130.559525,208.835083 131.853088,208.769684 
	C132.059738,206.627548 132.224060,204.924057 132.433060,202.757462 
	C136.020477,204.707535 135.885559,211.530289 141.890411,208.463959 
	C140.028595,205.334763 138.287445,202.117294 141.031357,198.388199 
	C141.616135,197.593460 140.913071,195.851120 140.429810,193.906433 
M168.512589,196.756165 
	C168.512589,200.728439 168.512589,204.700714 168.512589,209.065125 
	C170.361893,208.915894 171.728745,208.805603 173.025543,208.700958 
	C173.166595,206.243973 173.278885,204.288345 173.389374,202.363831 
	C175.388687,202.363831 177.079788,202.363831 178.778656,202.363831 
	C178.883530,204.708878 178.970978,206.664200 179.066956,208.810089 
	C180.606445,208.810089 181.857758,208.810089 183.569199,208.810089 
	C183.569199,203.984146 183.441895,199.342972 183.608612,194.712387 
	C183.747467,190.855515 181.997787,190.612167 179.130280,191.760376 
	C178.929428,193.880539 178.746704,195.809280 178.540527,197.985580 
	C176.602005,197.844025 175.029495,197.729202 173.462265,197.614761 
	C173.227890,195.298843 173.033691,193.380020 172.853622,191.600662 
	C168.090515,190.116562 168.411011,193.081299 168.512589,196.756165 
M138.120041,179.994263 
	C143.020340,176.143341 144.190735,171.009598 141.163757,166.643417 
	C138.562500,162.891312 132.297684,161.756638 128.164566,164.289032 
	C124.175774,166.733002 122.831276,172.316330 125.203140,176.587006 
	C127.377960,180.502899 131.536316,181.766296 138.120041,179.994263 
M97.904121,208.987930 
	C99.993927,209.256577 101.403221,208.961960 101.273514,206.233551 
	C101.083900,202.245056 101.102730,198.236038 101.260910,194.244827 
	C101.397209,190.805847 99.583778,190.849762 96.979271,191.608063 
	C96.808243,193.530640 96.634163,195.487549 96.450272,197.554749 
	C94.594086,197.554749 92.882675,197.554749 91.199509,197.554749 
	C91.001549,195.276337 90.834084,193.348938 90.683533,191.616241 
	C87.183144,190.501892 86.035393,191.612717 86.167671,194.828049 
	C86.357613,199.444855 86.216125,204.075287 86.216125,209.106781 
	C88.152397,208.915161 89.520088,208.779800 90.853897,208.647797 
	C90.960663,206.223770 91.046219,204.281387 91.139511,202.163208 
	C93.087196,202.163208 94.691338,202.163208 96.395279,202.163208 
	C96.635101,204.437561 96.858101,206.552277 97.904121,208.987930 
M118.067963,173.927933 
	C118.553246,171.222656 120.338074,167.742218 119.275223,165.960388 
	C116.324898,161.014206 111.084091,163.660950 106.502472,163.306839 
	C106.502472,169.330322 106.502472,174.909683 106.502472,180.912292 
	C108.156677,180.764816 109.506538,180.644485 110.752899,180.533371 
	C110.957047,178.404343 111.110748,176.801407 111.248566,175.364075 
	C113.516495,174.982224 115.450432,174.656601 118.067963,173.927933 
M73.354858,195.160095 
	C75.776070,196.278763 78.197273,197.397430 80.618484,198.516098 
	C79.288322,192.245667 75.765190,190.226807 70.830544,191.237030 
	C66.284492,192.167725 63.671883,195.780975 63.941475,200.764664 
	C64.192001,205.396118 67.102806,208.557205 71.626541,209.110504 
	C76.522575,209.709351 79.689873,207.585632 81.336067,202.045654 
	C79.587608,202.232864 77.430595,201.826248 76.729996,202.653336 
	C74.201981,205.637772 71.476006,206.264816 69.501518,202.923248 
	C67.639450,199.771942 68.151474,196.398895 73.354858,195.160095 
M158.108765,196.573441 
	C159.805313,197.149689 161.501862,197.725937 164.004990,198.576157 
	C161.512711,192.254883 158.019302,190.226364 153.101486,191.214600 
	C148.781647,192.082687 146.005554,195.642502 146.066940,200.235077 
	C146.130829,205.012817 149.205551,208.524597 153.839706,209.112640 
	C158.680664,209.726959 161.826233,207.635925 163.705246,201.855515 
	C161.746109,202.276031 160.178741,202.623108 158.606613,202.947250 
	C156.596893,203.361618 154.583328,203.757477 152.571426,204.161316 
	C152.239609,201.870880 151.222626,199.356323 151.867416,197.385361 
	C152.185806,196.412109 155.570694,196.442062 158.108765,196.573441 
M113.773300,204.943649 
	C109.021988,202.550766 111.688896,198.208603 111.229095,194.755692 
	C110.739632,191.080048 111.014923,191.043396 106.603851,192.058548 
	C106.603851,193.630814 106.599777,195.272430 106.604996,196.914001 
	C106.610275,198.571655 106.529686,200.236404 106.653030,201.885605 
	C107.024406,206.851288 109.947311,209.779861 114.783035,208.983826 
	C117.194458,208.586868 120.701668,206.732895 121.254272,204.825562 
	C122.450813,200.695679 122.063553,196.106934 122.352951,191.217377 
	C120.302200,191.384277 118.983055,191.491623 117.486870,191.613388 
	C117.486870,194.921249 117.813789,197.783295 117.362022,200.516663 
	C117.098755,202.109543 115.588692,203.496353 113.773300,204.943649 
M203.002319,173.880341 
	C205.433929,173.845367 208.448746,174.417847 206.929489,170.192154 
	C205.101044,169.868240 203.351028,169.558228 201.601013,169.248199 
	C201.602966,168.749680 201.604919,168.251160 201.606873,167.752640 
	C203.665222,167.454620 205.723587,167.156616 207.769394,166.860413 
	C207.864716,162.713898 205.629211,162.081314 196.722336,163.826538 
	C196.722336,168.384628 196.704575,173.018356 196.736725,177.651718 
	C196.743484,178.625702 196.933640,179.598434 197.035553,180.537384 
	C207.782974,181.638596 208.188385,181.500504 207.636642,176.701828 
	C206.185425,176.701828 204.633987,176.948807 203.244370,176.582275 
	C202.675461,176.432220 202.456329,174.956055 203.002319,173.880341 
M83.914902,163.143021 
	C83.379196,163.662766 82.389786,164.172485 82.378029,164.703827 
	C82.261856,169.953568 82.307770,175.206894 82.307770,180.376663 
	C92.851463,181.866302 94.183876,181.418854 93.291237,177.083923 
	C91.121231,176.680664 89.011459,176.288589 86.686882,175.856598 
	C88.111435,172.390366 94.593140,176.149216 92.534142,170.166916 
	C90.614555,169.859589 88.808533,169.570450 87.002510,169.281311 
	C86.971848,168.821564 86.941185,168.361801 86.910530,167.902054 
	C89.115936,167.550217 91.321342,167.198364 95.206535,166.578537 
	C93.395782,164.985870 92.457291,163.507309 91.256989,163.249985 
	C89.197205,162.808411 86.973930,163.129517 83.914902,163.143021 
M73.803932,169.784836 
	C72.855026,169.473999 71.906128,169.163177 70.957230,168.852356 
	C72.110565,167.496841 73.012184,167.330154 73.921349,167.237640 
	C75.048172,167.122986 76.181244,167.069778 77.284714,166.991913 
	C77.466682,162.669250 75.570702,162.125336 66.316818,163.718399 
	C66.316818,169.249939 66.316818,174.822433 66.316818,180.532898 
	C67.896599,180.532898 69.251198,180.532898 70.937332,180.532898 
	C70.937332,178.240143 70.937332,176.299957 70.937332,174.419403 
	C77.131866,173.433441 77.286057,173.226791 73.803932,169.784836 
M180.358093,167.232407 
	C180.993546,170.506012 182.057739,173.767273 182.152267,177.056427 
	C182.262100,180.877472 183.517471,181.725449 187.000473,180.213409 
	C187.000473,178.088348 187.000443,176.100403 187.000458,174.112457 
	C187.000458,171.984039 187.000473,169.855621 187.000473,167.503387 
	C188.965683,167.299957 190.541290,167.136856 192.086594,166.976883 
	C192.116989,162.807297 187.038986,161.786774 175.523117,164.040070 
	C177.387024,165.552032 178.415359,166.386185 180.358093,167.232407 
M43.612267,180.904022 
	C45.605907,180.903091 47.629108,181.098190 49.578568,180.804260 
	C50.352680,180.687531 51.506012,179.478912 51.496208,178.781326 
	C51.486343,178.079514 50.342377,176.989838 49.522270,176.793640 
	C48.138969,176.462692 46.619034,176.702896 44.651356,176.702896 
	C44.651356,171.981247 44.651356,167.729980 44.651356,163.375031 
	C42.896652,163.375031 41.649254,163.375031 39.946526,163.375031 
	C39.946526,168.557434 39.816677,173.512772 40.069504,178.448517 
	C40.113590,179.309174 41.769993,180.087219 43.612267,180.904022 
M60.796124,164.095139 
	C59.402695,163.748260 58.009262,163.401382 56.089592,162.923523 
	C56.089592,168.338470 56.235180,172.934341 56.045616,177.516357 
	C55.880508,181.507141 57.907665,181.257919 60.920864,180.389847 
	C60.920864,175.163986 60.920864,170.076569 60.796124,164.095139 
M149.694595,180.909073 
	C150.514343,180.181030 152.012787,179.481003 152.044205,178.720398 
	C152.254974,173.615555 152.153854,168.497818 152.153854,162.637115 
	C150.128250,163.298279 147.723999,163.750275 147.735443,164.129272 
	C147.904465,169.723068 148.394394,175.307175 149.694595,180.909073 
z"/>
<path fill="#104322" opacity="1.000000" stroke="none" 
	d="
M12.370634,17.201923 
	C12.621730,17.241205 12.780658,17.583948 12.684933,18.023972 
	C12.379676,17.915962 12.329072,17.710674 12.370634,17.201923 
z"/>
<path fill="#104322" opacity="1.000000" stroke="none" 
	d="
M12.354615,238.214737 
	C12.608533,238.241898 12.787517,238.576645 12.716604,239.019287 
	C12.404366,238.925568 12.342024,238.723938 12.354615,238.214737 
z"/>
<path fill="#987E28" opacity="1.000000" stroke="none" 
	d="
M82.128067,75.300919 
	C94.130348,48.547562 122.647453,38.793583 146.577469,53.406818 
	C161.637680,62.603577 169.012512,76.777084 167.580322,94.249153 
	C166.007782,113.433144 155.274292,126.474426 137.024277,132.984161 
	C135.734207,133.444336 134.063110,132.836395 132.569199,132.725128 
	C133.695969,131.648849 134.635880,130.064972 135.977097,129.571243 
	C162.617645,119.764313 172.422256,89.886665 156.100372,67.195656 
	C146.272980,53.533401 132.283813,48.488388 116.127731,51.338924 
	C100.027046,54.179684 89.221588,64.195961 84.783264,80.052109 
	C78.392975,102.881828 91.882011,125.185265 114.837746,130.432770 
	C116.886681,130.901154 119.040062,130.912659 121.186394,131.140778 
	C122.688301,126.302498 121.861595,122.790276 118.202560,119.653969 
	C114.418060,116.410126 111.011223,112.711769 107.555870,109.100586 
	C99.147758,100.313278 98.930016,87.238152 107.157936,78.390419 
	C111.467445,73.756264 116.162888,69.482361 120.511307,64.882477 
	C122.844612,62.414223 124.555901,62.838585 126.701004,65.092186 
	C130.950699,69.556839 135.487228,73.749046 139.723038,78.226219 
	C148.039658,87.016731 147.975830,100.045692 139.652283,108.926735 
	C137.146515,111.600342 134.605087,114.262665 131.870682,116.694832 
	C127.523170,120.561768 123.913399,124.483971 125.021324,131.102753 
	C125.655449,134.891022 122.559341,135.117432 119.666328,135.057053 
	C103.189636,134.713196 85.744408,120.379410 81.064789,103.598564 
	C78.423470,94.126923 78.715294,84.882294 82.128067,75.300919 
M139.226456,100.127876 
	C125.358810,113.569382 125.358810,113.569382 126.496323,118.477425 
	C131.542511,111.833733 135.925095,106.063721 140.632462,99.980560 
	C140.574341,99.728241 140.516220,99.475922 140.458084,99.223602 
	C140.238907,99.411362 140.019745,99.599121 139.226456,100.127876 
M106.940338,99.430595 
	C106.709488,99.475204 106.478645,99.519821 106.247795,99.564430 
	C106.398010,99.806046 106.548233,100.047653 106.779022,100.997459 
	C109.642487,108.100418 116.067780,111.806007 121.510826,116.484070 
	C118.428291,109.442543 112.384956,104.983063 106.940338,99.430595 
M118.909286,95.603203 
	C119.754204,96.203850 120.599121,96.804497 121.516693,97.456802 
	C121.516693,93.116432 121.516693,89.212044 121.516693,85.391998 
	C119.459259,84.978088 117.776665,84.639587 116.094070,84.301086 
	C115.973366,83.842224 115.852661,83.383362 115.731956,82.924500 
	C117.699478,81.974380 119.666992,81.024269 121.495247,80.141403 
	C121.921158,78.326141 122.328819,76.588661 122.736481,74.851181 
	C123.254501,74.858528 123.772522,74.865883 124.290550,74.873230 
	C124.767113,76.781387 125.243668,78.689537 125.735550,80.659042 
	C127.458588,80.991440 129.147003,81.317162 130.835419,81.642883 
	C130.975281,82.102173 131.115143,82.561455 131.255005,83.020744 
	C129.318756,83.978134 127.382507,84.935516 125.646118,85.794083 
	C125.646118,89.522293 125.646118,93.169899 125.646118,96.817505 
	C126.129845,97.124847 126.613564,97.432190 127.097290,97.739532 
	C130.287659,94.167755 133.321106,90.437248 136.720398,87.076797 
	C139.227234,84.598618 139.004303,82.578766 136.734543,80.312187 
	C133.089066,76.671852 129.577667,72.880241 125.716461,69.486031 
	C124.849907,68.724281 122.195259,68.685814 121.352173,69.431641 
	C117.376991,72.948257 113.720879,76.829285 110.000885,80.629204 
	C107.866669,82.809288 107.933144,84.870567 110.278526,87.020004 
	C113.093796,89.600067 115.709061,92.398369 118.909286,95.603203 
M138.391479,90.874001 
	C125.158508,104.155678 125.158508,104.155678 126.052719,107.444717 
	C140.385529,94.281868 141.139069,93.357872 140.902328,88.797951 
	C140.106918,89.421509 139.496567,89.899986 138.391479,90.874001 
M117.631622,99.912201 
	C113.995155,96.306152 110.358681,92.700104 106.037430,88.414993 
	C106.497612,93.562065 114.185081,102.404602 121.444839,107.317970 
	C121.818344,107.062737 122.191856,106.807510 122.565361,106.552277 
	C121.089371,104.507408 119.613380,102.462540 117.631622,99.912201 
z"/>
<path fill="#E6EBE8" opacity="1.000000" stroke="none" 
	d="
M167.280884,178.943542 
	C165.722427,176.813873 164.399902,174.978104 162.216339,171.947128 
	C162.216339,175.717987 162.216339,178.062531 162.216339,180.647171 
	C160.461548,180.647171 159.207230,180.647171 157.677704,180.647171 
	C157.677704,174.979736 157.677704,169.387726 157.677704,163.802582 
	C160.718521,163.225876 160.718521,163.225876 167.785477,171.177338 
	C167.931702,168.374725 168.053345,166.042984 168.181000,163.596130 
	C171.294708,162.578735 173.002380,162.950272 172.834045,166.713867 
	C172.634476,171.176147 172.787125,175.654175 172.787125,181.478424 
	C170.586655,180.542770 169.051727,179.890106 167.280884,178.943542 
z"/>
<path fill="#EAEFEC" opacity="1.000000" stroke="none" 
	d="
M140.616562,194.225891 
	C140.913071,195.851120 141.616135,197.593460 141.031357,198.388199 
	C138.287445,202.117294 140.028595,205.334763 141.890411,208.463959 
	C135.885559,211.530289 136.020477,204.707535 132.433060,202.757462 
	C132.224060,204.924057 132.059738,206.627548 131.853088,208.769684 
	C130.559525,208.835083 129.184692,208.904587 127.555046,208.986984 
	C127.555046,203.033829 127.555046,197.465576 127.555046,191.342407 
	C132.073120,191.738602 136.792709,189.395111 140.616562,194.225891 
z"/>
<path fill="#EDF1EE" opacity="1.000000" stroke="none" 
	d="
M168.512604,196.300598 
	C168.411011,193.081299 168.090515,190.116562 172.853622,191.600662 
	C173.033691,193.380020 173.227890,195.298843 173.462265,197.614761 
	C175.029495,197.729202 176.602005,197.844025 178.540527,197.985580 
	C178.746704,195.809280 178.929428,193.880539 179.130280,191.760376 
	C181.997787,190.612167 183.747467,190.855515 183.608612,194.712387 
	C183.441895,199.342972 183.569199,203.984146 183.569199,208.810089 
	C181.857758,208.810089 180.606445,208.810089 179.066956,208.810089 
	C178.970978,206.664200 178.883530,204.708878 178.778656,202.363831 
	C177.079788,202.363831 175.388687,202.363831 173.389374,202.363831 
	C173.278885,204.288345 173.166595,206.243973 173.025543,208.700958 
	C171.728745,208.805603 170.361893,208.915894 168.512589,209.065125 
	C168.512589,204.700714 168.512589,200.728439 168.512604,196.300598 
z"/>
<path fill="#F1F4F2" opacity="1.000000" stroke="none" 
	d="
M137.747070,180.139542 
	C131.536316,181.766296 127.377960,180.502899 125.203140,176.587006 
	C122.831276,172.316330 124.175774,166.733002 128.164566,164.289032 
	C132.297684,161.756638 138.562500,162.891312 141.163757,166.643417 
	C144.190735,171.009598 143.020340,176.143341 137.747070,180.139542 
M138.034775,171.594955 
	C137.631409,168.487289 135.811554,166.339386 132.792953,167.257812 
	C131.154312,167.756409 129.151398,170.344421 129.146225,171.995728 
	C129.141083,173.629837 131.155090,176.202682 132.793579,176.707260 
	C135.812698,177.637039 137.652695,175.528870 138.034775,171.594955 
z"/>
<path fill="#EFF2F0" opacity="1.000000" stroke="none" 
	d="
M97.492607,208.827454 
	C96.858101,206.552277 96.635101,204.437561 96.395279,202.163208 
	C94.691338,202.163208 93.087196,202.163208 91.139511,202.163208 
	C91.046219,204.281387 90.960663,206.223770 90.853897,208.647797 
	C89.520088,208.779800 88.152397,208.915161 86.216125,209.106781 
	C86.216125,204.075287 86.357613,199.444855 86.167671,194.828049 
	C86.035393,191.612717 87.183144,190.501892 90.683533,191.616241 
	C90.834084,193.348938 91.001549,195.276337 91.199509,197.554749 
	C92.882675,197.554749 94.594086,197.554749 96.450272,197.554749 
	C96.634163,195.487549 96.808243,193.530640 96.979271,191.608063 
	C99.583778,190.849762 101.397209,190.805847 101.260910,194.244827 
	C101.102730,198.236038 101.083900,202.245056 101.273514,206.233551 
	C101.403221,208.961960 99.993927,209.256577 97.492607,208.827454 
z"/>
<path fill="#EBF0ED" opacity="1.000000" stroke="none" 
	d="
M117.726166,174.129456 
	C115.450432,174.656601 113.516495,174.982224 111.248566,175.364075 
	C111.110748,176.801407 110.957047,178.404343 110.752899,180.533371 
	C109.506538,180.644485 108.156677,180.764816 106.502472,180.912292 
	C106.502472,174.909683 106.502472,169.330322 106.502472,163.306839 
	C111.084091,163.660950 116.324898,161.014206 119.275223,165.960388 
	C120.338074,167.742218 118.553246,171.222656 117.726166,174.129456 
z"/>
<path fill="#EDF1EF" opacity="1.000000" stroke="none" 
	d="
M72.966286,195.158478 
	C68.151474,196.398895 67.639450,199.771942 69.501518,202.923248 
	C71.476006,206.264816 74.201981,205.637772 76.729996,202.653336 
	C77.430595,201.826248 79.587608,202.232864 81.336067,202.045654 
	C79.689873,207.585632 76.522575,209.709351 71.626541,209.110504 
	C67.102806,208.557205 64.192001,205.396118 63.941475,200.764664 
	C63.671883,195.780975 66.284492,192.167725 70.830544,191.237030 
	C75.765190,190.226807 79.288322,192.245667 80.618484,198.516098 
	C78.197273,197.397430 75.776070,196.278763 72.966286,195.158478 
z"/>
<path fill="#EEF1EF" opacity="1.000000" stroke="none" 
	d="
M157.838409,196.295761 
	C155.570694,196.442062 152.185806,196.412109 151.867416,197.385361 
	C151.222626,199.356323 152.239609,201.870880 152.571426,204.161316 
	C154.583328,203.757477 156.596893,203.361618 158.606613,202.947250 
	C160.178741,202.623108 161.746109,202.276031 163.705246,201.855515 
	C161.826233,207.635925 158.680664,209.726959 153.839706,209.112640 
	C149.205551,208.524597 146.130829,205.012817 146.066940,200.235077 
	C146.005554,195.642502 148.781647,192.082687 153.101486,191.214600 
	C158.019302,190.226364 161.512711,192.254883 164.004990,198.576157 
	C161.501862,197.725937 159.805313,197.149689 157.838409,196.295761 
z"/>
<path fill="#F2F4F3" opacity="1.000000" stroke="none" 
	d="
M114.206451,204.959778 
	C115.588692,203.496353 117.098755,202.109543 117.362022,200.516663 
	C117.813789,197.783295 117.486870,194.921249 117.486870,191.613388 
	C118.983055,191.491623 120.302200,191.384277 122.352951,191.217377 
	C122.063553,196.106934 122.450813,200.695679 121.254272,204.825562 
	C120.701668,206.732895 117.194458,208.586868 114.783035,208.983826 
	C109.947311,209.779861 107.024406,206.851288 106.653030,201.885605 
	C106.529686,200.236404 106.610275,198.571655 106.604996,196.914001 
	C106.599777,195.272430 106.603851,193.630814 106.603851,192.058548 
	C111.014923,191.043396 110.739632,191.080048 111.229095,194.755692 
	C111.688896,198.208603 109.021988,202.550766 114.206451,204.959778 
z"/>
<path fill="#F0F3F1" opacity="1.000000" stroke="none" 
	d="
M202.540192,173.981750 
	C202.456329,174.956055 202.675461,176.432220 203.244370,176.582275 
	C204.633987,176.948807 206.185425,176.701828 207.636642,176.701828 
	C208.188385,181.500504 207.782974,181.638596 197.035553,180.537384 
	C196.933640,179.598434 196.743484,178.625702 196.736725,177.651718 
	C196.704575,173.018356 196.722336,168.384628 196.722336,163.826538 
	C205.629211,162.081314 207.864716,162.713898 207.769394,166.860413 
	C205.723587,167.156616 203.665222,167.454620 201.606873,167.752640 
	C201.604919,168.251160 201.602966,168.749680 201.601013,169.248199 
	C203.351028,169.558228 205.101044,169.868240 206.929489,170.192154 
	C208.448746,174.417847 205.433929,173.845367 202.540192,173.981750 
z"/>
<path fill="#E8EDEA" opacity="1.000000" stroke="none" 
	d="
M84.367096,163.136719 
	C86.973930,163.129517 89.197205,162.808411 91.256989,163.249985 
	C92.457291,163.507309 93.395782,164.985870 95.206535,166.578537 
	C91.321342,167.198364 89.115936,167.550217 86.910530,167.902054 
	C86.941185,168.361801 86.971848,168.821564 87.002510,169.281311 
	C88.808533,169.570450 90.614555,169.859589 92.534142,170.166916 
	C94.593140,176.149216 88.111435,172.390366 86.686882,175.856598 
	C89.011459,176.288589 91.121231,176.680664 93.291237,177.083923 
	C94.183876,181.418854 92.851463,181.866302 82.307770,180.376663 
	C82.307770,175.206894 82.261856,169.953568 82.378029,164.703827 
	C82.389786,164.172485 83.379196,163.662766 84.367096,163.136719 
z"/>
<path fill="#E8EDEA" opacity="1.000000" stroke="none" 
	d="
M74.241379,169.793213 
	C77.286057,173.226791 77.131866,173.433441 70.937332,174.419403 
	C70.937332,176.299957 70.937332,178.240143 70.937332,180.532898 
	C69.251198,180.532898 67.896599,180.532898 66.316818,180.532898 
	C66.316818,174.822433 66.316818,169.249939 66.316818,163.718399 
	C75.570702,162.125336 77.466682,162.669250 77.284714,166.991913 
	C76.181244,167.069778 75.048172,167.122986 73.921349,167.237640 
	C73.012184,167.330154 72.110565,167.496841 70.957230,168.852356 
	C71.906128,169.163177 72.855026,169.473999 74.241379,169.793213 
z"/>
<path fill="#E8EDEA" opacity="1.000000" stroke="none" 
	d="
M179.900879,167.226379 
	C178.415359,166.386185 177.387024,165.552032 175.523117,164.040070 
	C187.038986,161.786774 192.116989,162.807297 192.086594,166.976883 
	C190.541290,167.136856 188.965683,167.299957 187.000473,167.503387 
	C187.000473,169.855621 187.000458,171.984039 187.000458,174.112457 
	C187.000443,176.100403 187.000473,178.088348 187.000473,180.213409 
	C183.517471,181.725449 182.262100,180.877472 182.152267,177.056427 
	C182.057739,173.767273 180.993546,170.506012 179.900879,167.226379 
z"/>
<path fill="#E6ECE8" opacity="1.000000" stroke="none" 
	d="
M43.146996,180.903717 
	C41.769993,180.087219 40.113590,179.309174 40.069504,178.448517 
	C39.816677,173.512772 39.946526,168.557434 39.946526,163.375031 
	C41.649254,163.375031 42.896652,163.375031 44.651356,163.375031 
	C44.651356,167.729980 44.651356,171.981247 44.651356,176.702896 
	C46.619034,176.702896 48.138969,176.462692 49.522270,176.793640 
	C50.342377,176.989838 51.486343,178.079514 51.496208,178.781326 
	C51.506012,179.478912 50.352680,180.687531 49.578568,180.804260 
	C47.629108,181.098190 45.605907,180.903091 43.146996,180.903717 
z"/>
<path fill="#E2E8E4" opacity="1.000000" stroke="none" 
	d="
M60.858494,164.542145 
	C60.920864,170.076569 60.920864,175.163986 60.920864,180.389847 
	C57.907665,181.257919 55.880508,181.507141 56.045616,177.516357 
	C56.235180,172.934341 56.089592,168.338470 56.089592,162.923523 
	C58.009262,163.401382 59.402695,163.748260 60.858494,164.542145 
z"/>
<path fill="#E2E8E4" opacity="1.000000" stroke="none" 
	d="
M149.251404,180.901321 
	C148.394394,175.307175 147.904465,169.723068 147.735443,164.129272 
	C147.723999,163.750275 150.128250,163.298279 152.153854,162.637115 
	C152.153854,168.497818 152.254974,173.615555 152.044205,178.720398 
	C152.012787,179.481003 150.514343,180.181030 149.251404,180.901321 
z"/>
<path fill="#204E2C" opacity="1.000000" stroke="none" 
	d="
M118.660110,95.352684 
	C115.709061,92.398369 113.093796,89.600067 110.278526,87.020004 
	C107.933144,84.870567 107.866669,82.809288 110.000885,80.629204 
	C113.720879,76.829285 117.376991,72.948257 121.352173,69.431641 
	C122.195259,68.685814 124.849907,68.724281 125.716461,69.486031 
	C129.577667,72.880241 133.089066,76.671852 136.734543,80.312187 
	C139.004303,82.578766 139.227234,84.598618 136.720398,87.076797 
	C133.321106,90.437248 130.287659,94.167755 127.097290,97.739532 
	C126.613564,97.432190 126.129845,97.124847 125.646118,96.817505 
	C125.646118,93.169899 125.646118,89.522293 125.646118,85.794083 
	C127.382507,84.935516 129.318756,83.978134 131.255005,83.020744 
	C131.115143,82.561455 130.975281,82.102173 130.835419,81.642883 
	C129.147003,81.317162 127.458588,80.991440 125.735550,80.659042 
	C125.243668,78.689537 124.767113,76.781387 124.290550,74.873230 
	C123.772522,74.865883 123.254501,74.858528 122.736481,74.851181 
	C122.328819,76.588661 121.921158,78.326141 121.495247,80.141403 
	C119.666992,81.024269 117.699478,81.974380 115.731956,82.924500 
	C115.852661,83.383362 115.973366,83.842224 116.094070,84.301086 
	C117.776665,84.639587 119.459259,84.978088 121.516693,85.391998 
	C121.516693,89.212044 121.516693,93.116432 121.516693,97.456802 
	C120.599121,96.804497 119.754204,96.203850 118.660110,95.352684 
z"/>
<path fill="#204E2C" opacity="1.000000" stroke="none" 
	d="
M138.638855,90.626236 
	C139.496567,89.899986 140.106918,89.421509 140.902328,88.797951 
	C141.139069,93.357872 140.385529,94.281868 126.052719,107.444717 
	C125.158508,104.155678 125.158508,104.155678 138.638855,90.626236 
z"/>
<path fill="#1C4C2C" opacity="1.000000" stroke="none" 
	d="
M117.884506,100.164932 
	C119.613380,102.462540 121.089371,104.507408 122.565361,106.552277 
	C122.191856,106.807510 121.818344,107.062737 121.444839,107.317970 
	C114.185081,102.404602 106.497612,93.562065 106.037430,88.414993 
	C110.358681,92.700104 113.995155,96.306152 117.884506,100.164932 
z"/>
<path fill="#214E2C" opacity="1.000000" stroke="none" 
	d="
M107.192352,99.791985 
	C112.384956,104.983063 118.428291,109.442543 121.510826,116.484070 
	C116.067780,111.806007 109.642487,108.100418 106.863480,100.520294 
	C106.947929,100.043121 107.192352,99.791985 107.192352,99.791985 
z"/>
<path fill="#224F2C" opacity="1.000000" stroke="none" 
	d="
M140.307678,100.293716 
	C135.925095,106.063721 131.542511,111.833733 126.496323,118.477425 
	C125.358810,113.569382 125.358810,113.569382 139.639099,100.085297 
	C140.051727,100.042709 140.307693,100.293716 140.307678,100.293716 
z"/>
<path fill="#224F2C" opacity="1.000000" stroke="none" 
	d="
M139.926147,99.914795 
	C140.019745,99.599121 140.238907,99.411362 140.458084,99.223602 
	C140.516220,99.475922 140.574341,99.728241 140.470078,100.137138 
	C140.307693,100.293716 140.051727,100.042709 139.926147,99.914795 
z"/>
<path fill="#214E2C" opacity="1.000000" stroke="none" 
	d="
M106.823196,100.166191 
	C106.548233,100.047653 106.398010,99.806046 106.247795,99.564438 
	C106.478645,99.519821 106.709488,99.475204 107.066345,99.611290 
	C107.192352,99.791985 106.947929,100.043121 106.823196,100.166191 
z"/>
<path fill="#285638" opacity="1.000000" stroke="none" 
	d="
M138.034943,171.995605 
	C137.652695,175.528870 135.812698,177.637039 132.793579,176.707260 
	C131.155090,176.202682 129.141083,173.629837 129.146225,171.995728 
	C129.151398,170.344421 131.154312,167.756409 132.792953,167.257812 
	C135.811554,166.339386 137.631409,168.487289 138.034943,171.995605 
z"/>
</svg>