<?xml version="1.0" encoding="UTF-8"?>
<!DOCTYPE svg PUBLIC "-//W3C//DTD SVG 1.1//EN" "http://www.w3.org/Graphics/SVG/1.1/DTD/svg11.dtd">
<svg xmlns="http://www.w3.org/2000/svg" version="1.1" width="469px" height="469px" style="shape-rendering:geometricPrecision; text-rendering:geometricPrecision; image-rendering:optimizeQuality; fill-rule:evenodd; clip-rule:evenodd" xmlns:xlink="http://www.w3.org/1999/xlink">
<g><path style="opacity:1" fill="#fefefe" d="M -0.5,-0.5 C 155.833,-0.5 312.167,-0.5 468.5,-0.5C 468.5,155.833 468.5,312.167 468.5,468.5C 312.167,468.5 155.833,468.5 -0.5,468.5C -0.5,312.167 -0.5,155.833 -0.5,-0.5 Z"/></g>
<g><path style="opacity:1" fill="#139999" d="M 174.5,195.5 C 171.759,198.955 171.092,202.622 172.5,206.5C 174.348,213.006 178.681,216.006 185.5,215.5C 185.5,213.833 185.5,212.167 185.5,210.5C 185.5,209.833 185.5,209.167 185.5,208.5C 186.833,218.5 186.833,228.5 185.5,238.5C 185.365,232.819 185.032,227.152 184.5,221.5C 180.452,221.605 176.452,221.272 172.5,220.5C 172.932,223.982 171.599,226.315 168.5,227.5C 167.287,227.253 166.62,226.586 166.5,225.5C 167.833,225.5 169.167,225.5 170.5,225.5C 170.5,223.5 170.5,221.5 170.5,219.5C 168.801,219.473 167.467,218.806 166.5,217.5C 162.818,216.725 160.318,218.059 159,221.5C 158.51,220.207 158.343,218.873 158.5,217.5C 155.438,217.844 152.438,218.511 149.5,219.5C 150.602,220.176 151.602,220.842 152.5,221.5C 152.5,227.167 152.5,232.833 152.5,238.5C 149.923,238.455 147.923,239.455 146.5,241.5C 146.672,240.508 146.338,239.842 145.5,239.5C 145.83,233.132 145.496,226.798 144.5,220.5C 143.504,226.463 143.171,232.463 143.5,238.5C 142.671,231.679 142.171,224.679 142,217.5C 139.423,218.271 136.923,219.271 134.5,220.5C 135.689,221.429 137.022,221.762 138.5,221.5C 138.666,225.846 138.499,230.179 138,234.5C 135.543,238.31 132.377,239.31 128.5,237.5C 129.164,234.854 129.498,232.021 129.5,229C 129.481,225.748 128.814,222.915 127.5,220.5C 127.5,219.5 127.5,218.5 127.5,217.5C 124.304,217.899 121.304,218.899 118.5,220.5C 119.689,221.429 121.022,221.762 122.5,221.5C 122.334,227.176 122.501,232.843 123,238.5C 124.039,239.71 125.206,240.71 126.5,241.5C 126.611,242.117 126.944,242.617 127.5,243C 130.888,243.659 134.221,243.492 137.5,242.5C 139.743,243.312 142.076,243.979 144.5,244.5C 145.833,244.333 147.167,244.167 148.5,244C 149.252,243.329 149.586,242.496 149.5,241.5C 153.833,241.5 158.167,241.5 162.5,241.5C 163.708,240.766 165.041,240.433 166.5,240.5C 166.5,241.833 166.5,243.167 166.5,244.5C 160.642,244.178 154.975,244.511 149.5,245.5C 138.547,245.927 127.713,245.26 117,243.5C 112.892,243.715 109.058,244.715 105.5,246.5C 103.793,246.272 102.126,245.938 100.5,245.5C 100.5,244.833 100.5,244.167 100.5,243.5C 102.604,243.799 104.604,243.466 106.5,242.5C 106.376,241.893 106.043,241.56 105.5,241.5C 105.672,240.508 105.338,239.842 104.5,239.5C 103.564,235.265 103.231,230.931 103.5,226.5C 106.059,226.802 108.393,226.468 110.5,225.5C 111.022,227.219 112.022,228.552 113.5,229.5C 114.15,229.804 114.817,230.137 115.5,230.5C 116.655,227.554 116.821,224.554 116,221.5C 115.23,220.402 114.397,220.402 113.5,221.5C 113.762,220.022 113.429,218.689 112.5,217.5C 111.828,218.949 111.161,220.282 110.5,221.5C 108.5,221.5 106.5,221.5 104.5,221.5C 104.5,218.167 104.5,214.833 104.5,211.5C 107.5,211.5 110.5,211.5 113.5,211.5C 113.5,212.833 114.167,213.5 115.5,213.5C 115.389,215.648 116.056,215.981 117.5,214.5C 119.101,211.114 118.435,208.447 115.5,206.5C 107.324,205.179 98.9909,205.179 90.5,206.5C 90.6236,207.107 90.9569,207.44 91.5,207.5C 93.3797,207.229 94.713,207.896 95.5,209.5C 95.8074,219.582 95.4741,229.582 94.5,239.5C 92.901,239.232 91.5676,239.566 90.5,240.5C 90.5,240.833 90.5,241.167 90.5,241.5C 88.5295,240.838 86.5295,240.172 84.5,239.5C 83.1465,236.933 83.4798,234.599 85.5,232.5C 85.6691,233.397 86.0024,234.397 86.5,235.5C 87.7362,236.246 89.0695,236.579 90.5,236.5C 90.7394,234.533 90.4061,232.699 89.5,231C 91.3817,230.802 93.0484,230.302 94.5,229.5C 94.6658,224.821 94.4992,220.155 94,215.5C 86.1683,217.201 78.335,219.034 70.5,221C 63.8417,221.5 57.175,221.666 50.5,221.5C 50.5,212.833 50.5,204.167 50.5,195.5C 91.8333,195.5 133.167,195.5 174.5,195.5 Z"/></g>
<g><path style="opacity:1" fill="#8d9d9c" d="M 115.5,206.5 C 107.316,206.174 99.3159,206.508 91.5,207.5C 90.9569,207.44 90.6236,207.107 90.5,206.5C 98.9909,205.179 107.324,205.179 115.5,206.5 Z"/></g>
<g><path style="opacity:1" fill="#33adab" d="M 174.5,195.5 C 175.833,195.5 177.167,195.5 178.5,195.5C 178.167,198.5 179.5,199.833 182.5,199.5C 182.5,198.167 182.5,196.833 182.5,195.5C 186.167,195.5 189.833,195.5 193.5,195.5C 195.178,198.552 195.845,201.885 195.5,205.5C 190.637,205.181 185.97,205.514 181.5,206.5C 182.833,207.167 184.167,207.833 185.5,208.5C 185.5,209.167 185.5,209.833 185.5,210.5C 181.89,209.376 178.224,208.376 174.5,207.5C 173.702,205.922 173.202,204.256 173,202.5C 172.51,203.793 172.343,205.127 172.5,206.5C 171.092,202.622 171.759,198.955 174.5,195.5 Z"/></g>
<g><path style="opacity:1" fill="#84cccc" d="M 178.5,195.5 C 179.833,195.5 181.167,195.5 182.5,195.5C 182.5,196.833 182.5,198.167 182.5,199.5C 179.5,199.833 178.167,198.5 178.5,195.5 Z"/></g>
<g><path style="opacity:1" fill="#f0f1f1" d="M 374.5,206.5 C 375.167,206.5 375.5,206.833 375.5,207.5C 375.5,207.833 375.5,208.167 375.5,208.5C 367.364,218.145 359.364,227.978 351.5,238C 352.793,238.49 354.127,238.657 355.5,238.5C 356.167,238.5 356.833,238.5 357.5,238.5C 362.544,238.827 367.544,238.494 372.5,237.5C 373.028,235.664 373.694,233.997 374.5,232.5C 374.5,235.167 374.5,237.833 374.5,240.5C 364.5,240.5 354.5,240.5 344.5,240.5C 346.749,236.246 349.415,232.246 352.5,228.5C 356.878,223.455 360.878,218.122 364.5,212.5C 365.5,212.167 366.167,211.5 366.5,210.5C 367.043,210.44 367.376,210.107 367.5,209.5C 361.68,208.184 356.013,208.184 350.5,209.5C 349.549,210.919 349.216,212.585 349.5,214.5C 348.508,214.672 347.842,214.338 347.5,213.5C 347.5,211.167 347.5,208.833 347.5,206.5C 356.5,206.5 365.5,206.5 374.5,206.5 Z"/></g>
<g><path style="opacity:1" fill="#f5f6f6" d="M 91.5,207.5 C 99.3159,206.508 107.316,206.174 115.5,206.5C 115.5,208.833 115.5,211.167 115.5,213.5C 114.167,213.5 113.5,212.833 113.5,211.5C 113.586,210.504 113.252,209.671 112.5,209C 110.5,208.833 108.5,208.667 106.5,208.5C 104.048,208.539 102.048,209.206 100.5,210.5C 100.5,214.167 100.5,217.833 100.5,221.5C 103.833,222.833 107.167,222.833 110.5,221.5C 111.161,220.282 111.828,218.949 112.5,217.5C 113.429,218.689 113.762,220.022 113.5,221.5C 113.5,224.167 113.5,226.833 113.5,229.5C 112.022,228.552 111.022,227.219 110.5,225.5C 107.375,224.521 104.042,224.187 100.5,224.5C 100.334,229.179 100.501,233.845 101,238.5C 102.011,239.337 103.178,239.67 104.5,239.5C 100.03,240.486 95.3633,240.819 90.5,240.5C 91.5676,239.566 92.901,239.232 94.5,239.5C 95.8275,234.881 96.4942,229.881 96.5,224.5C 96.4993,219.322 96.166,214.322 95.5,209.5C 94.713,207.896 93.3797,207.229 91.5,207.5 Z"/></g>
<g><path style="opacity:1" fill="#f5f5f5" d="M 181.5,206.5 C 190.234,205.865 198.567,206.532 206.5,208.5C 206.5,210.167 206.5,211.833 206.5,213.5C 205.022,212.552 204.022,211.219 203.5,209.5C 199.399,208.209 195.399,208.209 191.5,209.5C 190.515,213.634 190.182,217.968 190.5,222.5C 194.371,222.815 198.038,222.482 201.5,221.5C 202.268,220.737 202.768,219.737 203,218.5C 203.499,222.152 203.665,225.818 203.5,229.5C 202.833,228.167 202.167,226.833 201.5,225.5C 199.052,224.527 196.385,224.194 193.5,224.5C 191.564,228.715 190.897,233.381 191.5,238.5C 192.568,239.434 193.901,239.768 195.5,239.5C 191.03,240.486 186.363,240.819 181.5,240.5C 182.833,239.833 184.167,239.167 185.5,238.5C 186.833,228.5 186.833,218.5 185.5,208.5C 184.167,207.833 182.833,207.167 181.5,206.5 Z"/></g>
<g><path style="opacity:1" fill="#49c3bc" d="M 185.5,210.5 C 185.5,212.167 185.5,213.833 185.5,215.5C 178.681,216.006 174.348,213.006 172.5,206.5C 172.343,205.127 172.51,203.793 173,202.5C 173.202,204.256 173.702,205.922 174.5,207.5C 178.224,208.376 181.89,209.376 185.5,210.5 Z"/></g>
<g><path style="opacity:1" fill="#385757" d="M 203.5,209.5 C 200.437,210.201 197.27,210.868 194,211.5C 193.502,214.817 193.335,218.15 193.5,221.5C 191.577,217.971 190.911,213.971 191.5,209.5C 195.399,208.209 199.399,208.209 203.5,209.5 Z"/></g>
<g><path style="opacity:1" fill="#3a4a4a" d="M 100.5,221.5 C 100.5,217.833 100.5,214.167 100.5,210.5C 101.738,209.588 103.072,209.421 104.5,210C 103.28,214.013 101.946,217.847 100.5,221.5 Z"/></g>
<g><path style="opacity:1" fill="#325f5f" d="M 206.5,208.5 C 207.5,208.5 208.5,208.5 209.5,208.5C 209.628,210.655 209.128,212.655 208,214.5C 207.617,213.944 207.117,213.611 206.5,213.5C 206.5,211.833 206.5,210.167 206.5,208.5 Z"/></g>
<g><path style="opacity:1" fill="#4a7979" d="M 115.5,206.5 C 118.435,208.447 119.101,211.114 117.5,214.5C 116.056,215.981 115.389,215.648 115.5,213.5C 115.5,211.167 115.5,208.833 115.5,206.5 Z"/></g>
<g><path style="opacity:1" fill="#cfcfcf" d="M 95.5,209.5 C 96.166,214.322 96.4993,219.322 96.5,224.5C 96.4942,229.881 95.8275,234.881 94.5,239.5C 95.4741,229.582 95.8074,219.582 95.5,209.5 Z"/></g>
<g><path style="opacity:1" fill="#0b898a" d="M 306.5,195.5 C 343.5,195.5 380.5,195.5 417.5,195.5C 417.5,225.167 417.5,254.833 417.5,284.5C 403.833,284.5 390.167,284.5 376.5,284.5C 382.564,282.394 388.897,280.894 395.5,280C 391.869,277.757 387.869,276.923 383.5,277.5C 383.5,276.5 383.5,275.5 383.5,274.5C 383.833,274.5 384.167,274.5 384.5,274.5C 384.821,276.048 385.821,276.715 387.5,276.5C 387.5,275.167 387.5,273.833 387.5,272.5C 390.232,274.603 393.232,274.936 396.5,273.5C 395.214,273.524 393.88,273.19 392.5,272.5C 392.5,270.5 392.5,268.5 392.5,266.5C 393.5,266.5 394.5,266.5 395.5,266.5C 396.434,265.432 396.768,264.099 396.5,262.5C 394.833,262.5 393.167,262.5 391.5,262.5C 392.919,261.549 394.585,261.216 396.5,261.5C 396.5,259.833 396.5,258.167 396.5,256.5C 394.833,256.5 393.167,256.5 391.5,256.5C 391.664,250.833 391.997,250.5 392.5,255.5C 394.527,255.338 396.527,255.505 398.5,256C 397.151,257.635 397.318,259.135 399,260.5C 400.624,260.43 402.457,259.93 404.5,259C 402.866,258.506 401.199,258.34 399.5,258.5C 399.5,256.833 399.5,255.167 399.5,253.5C 397.833,253.5 396.167,253.5 394.5,253.5C 394.5,251.833 394.5,250.167 394.5,248.5C 392.833,248.5 391.167,248.5 389.5,248.5C 389.5,246.833 389.5,245.167 389.5,243.5C 387.833,243.5 386.167,243.5 384.5,243.5C 384.785,241.712 384.452,240.045 383.5,238.5C 382.779,240.686 382.113,242.853 381.5,245C 383.167,245.333 384.833,245.667 386.5,246C 373.18,245.822 359.846,245.655 346.5,245.5C 346.5,244.167 346.5,242.833 346.5,241.5C 346.833,241.5 347.167,241.5 347.5,241.5C 351.951,242.827 356.784,243.494 362,243.5C 366.833,243.333 371.667,243.167 376.5,243C 378.321,240.544 378.988,237.711 378.5,234.5C 377.5,234.5 376.5,234.5 375.5,234.5C 375.672,233.508 375.338,232.842 374.5,232.5C 373.694,233.997 373.028,235.664 372.5,237.5C 367.544,238.494 362.544,238.827 357.5,238.5C 360.907,232.691 364.574,227.025 368.5,221.5C 371.317,218.574 374.151,215.574 377,212.5C 377.167,211.667 377.333,210.833 377.5,210C 377.316,208.624 376.649,207.791 375.5,207.5C 375.5,206.833 375.167,206.5 374.5,206.5C 365.348,205.506 356.015,205.173 346.5,205.5C 346.194,208.385 346.527,211.052 347.5,213.5C 347.842,214.338 348.508,214.672 349.5,214.5C 349.821,216.048 350.821,216.715 352.5,216.5C 352.297,214.61 352.963,213.11 354.5,212C 358.027,211.192 361.36,211.359 364.5,212.5C 360.878,218.122 356.878,223.455 352.5,228.5C 351.781,226.236 351.448,223.903 351.5,221.5C 349.833,221.5 348.167,221.5 346.5,221.5C 346.5,220.167 346.5,218.833 346.5,217.5C 343.167,217.167 339.833,216.833 336.5,216.5C 336.5,214.167 336.5,211.833 336.5,209.5C 333.167,209.5 329.833,209.5 326.5,209.5C 326.334,215.509 326.501,221.509 327,227.5C 327.383,226.944 327.883,226.611 328.5,226.5C 328.167,227.833 327.833,229.167 327.5,230.5C 326.883,230.389 326.383,230.056 326,229.5C 325.502,232.817 325.335,236.15 325.5,239.5C 323.901,239.768 322.568,239.434 321.5,238.5C 322.828,233.544 323.495,228.211 323.5,222.5C 323.495,216.789 322.828,211.456 321.5,206.5C 320.947,204.448 319.947,204.115 318.5,205.5C 315.918,205.025 313.918,205.692 312.5,207.5C 309.241,203.539 310.241,201.039 315.5,200C 303.821,198.819 304.154,197.819 316.5,197C 312.975,196.821 309.641,196.321 306.5,195.5 Z"/></g>
<g><path style="opacity:1" fill="#2b6364" d="M 350.5,209.5 C 356.026,209.179 361.36,209.512 366.5,210.5C 366.167,211.5 365.5,212.167 364.5,212.5C 361.36,211.359 358.027,211.192 354.5,212C 352.963,213.11 352.297,214.61 352.5,216.5C 350.821,216.715 349.821,216.048 349.5,214.5C 349.216,212.585 349.549,210.919 350.5,209.5 Z"/></g>
<g><path style="opacity:1" fill="#617878" d="M 350.5,209.5 C 356.013,208.184 361.68,208.184 367.5,209.5C 367.376,210.107 367.043,210.44 366.5,210.5C 361.36,209.512 356.026,209.179 350.5,209.5 Z"/></g>
<g><path style="opacity:1" fill="#849697" d="M 374.5,206.5 C 365.5,206.5 356.5,206.5 347.5,206.5C 347.5,208.833 347.5,211.167 347.5,213.5C 346.527,211.052 346.194,208.385 346.5,205.5C 356.015,205.173 365.348,205.506 374.5,206.5 Z"/></g>
<g><path style="opacity:1" fill="#407978" d="M 113.5,211.5 C 110.5,211.5 107.5,211.5 104.5,211.5C 104.5,214.833 104.5,218.167 104.5,221.5C 106.5,221.5 108.5,221.5 110.5,221.5C 107.167,222.833 103.833,222.833 100.5,221.5C 101.946,217.847 103.28,214.013 104.5,210C 103.072,209.421 101.738,209.588 100.5,210.5C 102.048,209.206 104.048,208.539 106.5,208.5C 108.5,208.667 110.5,208.833 112.5,209C 113.252,209.671 113.586,210.504 113.5,211.5 Z"/></g>
<g><path style="opacity:1" fill="#2e4a4a" d="M 321.5,206.5 C 322.828,211.456 323.495,216.789 323.5,222.5C 323.495,228.211 322.828,233.544 321.5,238.5C 321.5,227.833 321.5,217.167 321.5,206.5 Z"/></g>
<g><path style="opacity:1" fill="#f1f3f3" d="M 127.5,220.5 C 126.389,225.416 126.222,230.416 127,235.5C 127.278,236.416 127.778,237.082 128.5,237.5C 132.377,239.31 135.543,238.31 138,234.5C 138.499,230.179 138.666,225.846 138.5,221.5C 137.022,221.762 135.689,221.429 134.5,220.5C 136.923,219.271 139.423,218.271 142,217.5C 142.171,224.679 142.671,231.679 143.5,238.5C 143.842,239.338 144.508,239.672 145.5,239.5C 146.338,239.842 146.672,240.508 146.5,241.5C 143.833,241.5 141.167,241.5 138.5,241.5C 138.657,240.127 138.49,238.793 138,237.5C 134.96,240.966 131.126,242.3 126.5,241.5C 125.206,240.71 124.039,239.71 123,238.5C 122.501,232.843 122.334,227.176 122.5,221.5C 121.022,221.762 119.689,221.429 118.5,220.5C 121.304,218.899 124.304,217.899 127.5,217.5C 127.5,218.5 127.5,219.5 127.5,220.5 Z"/></g>
<g><path style="opacity:1" fill="#e5e7e7" d="M 166.5,217.5 C 166.663,219.857 166.497,222.19 166,224.5C 163.984,222.392 161.817,222.058 159.5,223.5C 158.512,228.64 158.179,233.974 158.5,239.5C 159.5,239.5 160.5,239.5 161.5,239.5C 161.833,239.5 162.167,239.5 162.5,239.5C 162.5,240.167 162.5,240.833 162.5,241.5C 158.167,241.5 153.833,241.5 149.5,241.5C 150.183,239.824 151.517,239.157 153.5,239.5C 153.823,233.31 153.49,227.31 152.5,221.5C 151.602,220.842 150.602,220.176 149.5,219.5C 152.438,218.511 155.438,217.844 158.5,217.5C 158.343,218.873 158.51,220.207 159,221.5C 160.318,218.059 162.818,216.725 166.5,217.5 Z"/></g>
<g><path style="opacity:1" fill="#3a4545" d="M 375.5,208.5 C 376.573,209.251 376.74,210.251 376,211.5C 372.752,214.357 370.252,217.69 368.5,221.5C 363.462,226.549 359.129,232.216 355.5,238.5C 354.127,238.657 352.793,238.49 351.5,238C 359.364,227.978 367.364,218.145 375.5,208.5 Z"/></g>
<g><path style="opacity:1" fill="#286061" d="M 375.5,208.5 C 375.5,208.167 375.5,207.833 375.5,207.5C 376.649,207.791 377.316,208.624 377.5,210C 377.333,210.833 377.167,211.667 377,212.5C 374.151,215.574 371.317,218.574 368.5,221.5C 370.252,217.69 372.752,214.357 376,211.5C 376.74,210.251 376.573,209.251 375.5,208.5 Z"/></g>
<g><path style="opacity:1" fill="#159e9e" d="M 417.5,195.5 C 418.498,225.329 418.831,255.329 418.5,285.5C 389.5,285.5 360.5,285.5 331.5,285.5C 286.669,284.667 241.669,284.167 196.5,284C 198.167,283.667 199.833,283.333 201.5,283C 200.748,282.329 200.414,281.496 200.5,280.5C 201.492,280.328 202.158,280.662 202.5,281.5C 203.492,283.026 204.992,283.693 207,283.5C 212.96,282.904 214.793,279.904 212.5,274.5C 211.5,273.833 210.5,273.167 209.5,272.5C 211.433,270.727 212.766,268.561 213.5,266C 212.552,265.517 211.552,265.351 210.5,265.5C 210.918,264.778 211.584,264.278 212.5,264C 210.942,263.79 209.609,263.29 208.5,262.5C 210.833,262.5 213.167,262.5 215.5,262.5C 214.911,265.941 213.577,269.108 211.5,272C 212.579,272.956 213.745,273.789 215,274.5C 215.497,277.146 215.664,279.813 215.5,282.5C 220.711,282.777 226.045,282.444 231.5,281.5C 231.5,280.167 231.5,278.833 231.5,277.5C 229.076,277.808 226.743,277.474 224.5,276.5C 224.624,275.893 224.957,275.56 225.5,275.5C 226.251,276.573 227.251,276.74 228.5,276C 229.464,274.275 230.131,272.441 230.5,270.5C 231.5,271.833 232.5,273.167 233.5,274.5C 234.077,276.652 235.244,276.985 237,275.5C 237.918,272.411 239.085,269.411 240.5,266.5C 241.474,268.743 241.808,271.076 241.5,273.5C 240.933,274.42 241.599,274.754 243.5,274.5C 244.552,276.256 246.219,276.923 248.5,276.5C 248.353,271.725 247.353,267.392 245.5,263.5C 243.833,262.167 242.167,262.167 240.5,263.5C 240.167,263.5 239.833,263.5 239.5,263.5C 238.054,262.387 236.387,262.22 234.5,263C 235.801,264.616 235.801,266.116 234.5,267.5C 233.9,266.1 232.9,265.1 231.5,264.5C 230.833,263.833 230.167,263.167 229.5,262.5C 228.292,263.234 226.959,263.567 225.5,263.5C 223.5,262.167 221.5,262.167 219.5,263.5C 218.957,263.44 218.624,263.107 218.5,262.5C 223.769,261.016 229.102,259.849 234.5,259C 226.306,258.14 218.639,255.973 211.5,252.5C 204.282,252.334 197.615,250.668 191.5,247.5C 184.833,246.833 178.167,246.167 171.5,245.5C 170.421,243.124 169.088,242.957 167.5,245C 161.509,245.499 155.509,245.666 149.5,245.5C 154.975,244.511 160.642,244.178 166.5,244.5C 166.5,243.167 166.5,241.833 166.5,240.5C 165.041,240.433 163.708,240.766 162.5,241.5C 162.5,240.833 162.5,240.167 162.5,239.5C 162.334,235.154 162.501,230.821 163,226.5C 164.011,225.663 165.178,225.33 166.5,225.5C 166.62,226.586 167.287,227.253 168.5,227.5C 171.599,226.315 172.932,223.982 172.5,220.5C 176.452,221.272 180.452,221.605 184.5,221.5C 185.032,227.152 185.365,232.819 185.5,238.5C 184.167,239.167 182.833,239.833 181.5,240.5C 181.842,241.338 182.508,241.672 183.5,241.5C 183.5,242.5 183.5,243.5 183.5,244.5C 188.5,244.5 193.5,244.5 198.5,244.5C 196.801,239.703 196.301,234.703 197,229.5C 200.714,228.113 202.881,229.446 203.5,233.5C 208.754,234.231 210.921,231.898 210,226.5C 210.974,228.878 211.641,228.544 212,225.5C 212.499,229.821 212.666,234.154 212.5,238.5C 211.209,238.263 210.209,238.596 209.5,239.5C 209.821,241.048 210.821,241.715 212.5,241.5C 212.5,242.5 212.5,243.5 212.5,244.5C 216.846,244.666 221.179,244.499 225.5,244C 226.84,241.851 226.173,240.684 223.5,240.5C 223.5,239.833 223.167,239.5 222.5,239.5C 222.334,235.486 222.501,231.486 223,227.5C 226.227,227.047 229.227,226.047 232,224.5C 232.499,229.155 232.666,233.821 232.5,238.5C 231.5,239.167 230.5,239.833 229.5,240.5C 229.842,241.338 230.508,241.672 231.5,241.5C 231.5,242.5 231.5,243.5 231.5,244.5C 236.167,244.5 240.833,244.5 245.5,244.5C 245.351,243.448 245.517,242.448 246,241.5C 247.751,242.222 249.251,243.222 250.5,244.5C 250.611,245.117 250.944,245.617 251.5,246C 254.758,246.212 257.924,246.712 261,247.5C 263.55,246.02 265.383,246.687 266.5,249.5C 269.546,250.375 272.546,251.375 275.5,252.5C 275.833,253.167 276.167,253.833 276.5,254.5C 279.706,255.808 283.04,256.475 286.5,256.5C 286.5,258.167 286.5,259.833 286.5,261.5C 284.265,261.205 282.265,261.539 280.5,262.5C 278.915,263.002 278.415,264.002 279,265.5C 280.699,264.594 282.533,264.261 284.5,264.5C 284.5,265.5 284.5,266.5 284.5,267.5C 278.887,266.079 276.72,268.079 278,273.5C 279.011,274.337 280.178,274.67 281.5,274.5C 281.196,275.15 280.863,275.817 280.5,276.5C 283.768,277.487 287.102,277.82 290.5,277.5C 290.666,273.486 290.499,269.486 290,265.5C 289.682,263.939 288.849,262.772 287.5,262C 290.451,262.399 293.451,262.899 296.5,263.5C 296.296,267.416 296.296,271.082 296.5,274.5C 297.167,274.5 297.833,274.5 298.5,274.5C 298.5,274.833 298.5,275.167 298.5,275.5C 297.957,275.56 297.624,275.893 297.5,276.5C 303.472,277.33 309.472,277.83 315.5,278C 314.167,278.333 312.833,278.667 311.5,279C 310.549,279.718 310.383,280.551 311,281.5C 312.667,280.833 314.333,280.167 316,279.5C 318.251,281.364 320.918,282.364 324,282.5C 333.168,281.165 342.334,280.832 351.5,281.5C 348.253,282.65 344.92,283.483 341.5,284C 353.162,284.5 364.829,284.667 376.5,284.5C 390.167,284.5 403.833,284.5 417.5,284.5C 417.5,254.833 417.5,225.167 417.5,195.5 Z"/></g>
<g><path style="opacity:1" fill="#a2acac" d="M 191.5,209.5 C 190.911,213.971 191.577,217.971 193.5,221.5C 196.167,221.5 198.833,221.5 201.5,221.5C 198.038,222.482 194.371,222.815 190.5,222.5C 190.182,217.968 190.515,213.634 191.5,209.5 Z"/></g>
<g><path style="opacity:1" fill="#2a6c6c" d="M 204.5,220.5 C 205.5,220.5 206.5,220.5 207.5,220.5C 207.5,223.833 207.5,227.167 207.5,230.5C 206.209,230.737 205.209,230.404 204.5,229.5C 204.5,226.5 204.5,223.5 204.5,220.5 Z"/></g>
<g><path style="opacity:1" fill="#f1f2f2" d="M 318.5,205.5 C 320.159,216.295 321.159,227.295 321.5,238.5C 322.568,239.434 323.901,239.768 325.5,239.5C 325.5,240.167 325.5,240.833 325.5,241.5C 322.5,241.5 319.5,241.5 316.5,241.5C 316.5,240.167 316.5,238.833 316.5,237.5C 316.167,236.833 315.833,236.167 315.5,235.5C 315.5,234.833 315.5,234.167 315.5,233.5C 316.821,229.767 316.821,225.934 315.5,222C 310.318,218.133 306.318,218.966 303.5,224.5C 302.362,227.304 302.195,230.304 303,233.5C 303.708,234.381 304.542,235.047 305.5,235.5C 305.833,236.5 306.5,237.167 307.5,237.5C 309.531,237.972 311.198,238.972 312.5,240.5C 310.283,241.369 307.95,241.702 305.5,241.5C 302.551,240.386 300.385,238.386 299,235.5C 296.579,222.089 302.079,216.422 315.5,218.5C 316.657,215.216 316.824,211.882 316,208.5C 314.989,207.663 313.822,207.33 312.5,207.5C 313.918,205.692 315.918,205.025 318.5,205.5 Z"/></g>
<g><path style="opacity:1" fill="#2f6868" d="M 113.5,229.5 C 113.5,226.833 113.5,224.167 113.5,221.5C 114.397,220.402 115.23,220.402 116,221.5C 116.821,224.554 116.655,227.554 115.5,230.5C 114.817,230.137 114.15,229.804 113.5,229.5 Z"/></g>
<g><path style="opacity:1" fill="#325151" d="M 145.5,239.5 C 144.508,239.672 143.842,239.338 143.5,238.5C 143.171,232.463 143.504,226.463 144.5,220.5C 145.496,226.798 145.83,233.132 145.5,239.5 Z"/></g>
<g><path style="opacity:1" fill="#9bb3b2" d="M 204.5,220.5 C 204.5,223.5 204.5,226.5 204.5,229.5C 204.167,229.5 203.833,229.5 203.5,229.5C 203.665,225.818 203.499,222.152 203,218.5C 202.768,219.737 202.268,220.737 201.5,221.5C 201.5,220.167 201.5,218.833 201.5,217.5C 202.5,217.5 203.5,217.5 204.5,217.5C 204.5,218.5 204.5,219.5 204.5,220.5 Z"/></g>
<g><path style="opacity:1" fill="#465959" d="M 127.5,220.5 C 128.814,222.915 129.481,225.748 129.5,229C 129.498,232.021 129.164,234.854 128.5,237.5C 127.778,237.082 127.278,236.416 127,235.5C 126.222,230.416 126.389,225.416 127.5,220.5 Z"/></g>
<g><path style="opacity:1" fill="#a6a9a9" d="M 318.5,205.5 C 319.947,204.115 320.947,204.448 321.5,206.5C 321.5,217.167 321.5,227.833 321.5,238.5C 321.159,227.295 320.159,216.295 318.5,205.5 Z"/></g>
<g><path style="opacity:1" fill="#425b5b" d="M 110.5,225.5 C 108.393,226.468 106.059,226.802 103.5,226.5C 103.231,230.931 103.564,235.265 104.5,239.5C 103.178,239.67 102.011,239.337 101,238.5C 100.501,233.845 100.334,229.179 100.5,224.5C 104.042,224.187 107.375,224.521 110.5,225.5 Z"/></g>
<g><path style="opacity:1" fill="#374141" d="M 193.5,224.5 C 192.94,229.305 192.273,233.971 191.5,238.5C 190.897,233.381 191.564,228.715 193.5,224.5 Z"/></g>
<g><path style="opacity:1" fill="#386c6c" d="M 193.5,224.5 C 196.385,224.194 199.052,224.527 201.5,225.5C 199.393,226.468 197.059,226.802 194.5,226.5C 194.231,230.931 194.564,235.265 195.5,239.5C 193.901,239.768 192.568,239.434 191.5,238.5C 192.273,233.971 192.94,229.305 193.5,224.5 Z"/></g>
<g><path style="opacity:1" fill="#296262" d="M 368.5,221.5 C 364.574,227.025 360.907,232.691 357.5,238.5C 356.833,238.5 356.167,238.5 355.5,238.5C 359.129,232.216 363.462,226.549 368.5,221.5 Z"/></g>
<g><path style="opacity:1" fill="#375251" d="M 159.5,223.5 C 160.21,228.732 160.877,234.065 161.5,239.5C 160.5,239.5 159.5,239.5 158.5,239.5C 158.179,233.974 158.512,228.64 159.5,223.5 Z"/></g>
<g><path style="opacity:1" fill="#089797" d="M 287.5,240.5 C 287.5,241.167 287.833,241.5 288.5,241.5C 288.5,242.5 288.5,243.5 288.5,244.5C 291.833,244.5 295.167,244.5 298.5,244.5C 298.343,243.127 298.51,241.793 299,240.5C 302.106,241.3 304.606,242.967 306.5,245.5C 309.659,246.71 312.826,246.71 316,245.5C 316.5,245.667 317,245.833 317.5,246C 316.62,247.356 316.286,248.856 316.5,250.5C 320.908,250.062 322.575,252.062 321.5,256.5C 319.833,256.5 318.167,256.5 316.5,256.5C 316.5,258.5 316.5,260.5 316.5,262.5C 315.5,261.833 314.5,261.167 313.5,260.5C 308.155,256.707 302.155,255.54 295.5,257C 296,257.5 296.5,258 297,258.5C 297.781,263.917 297.615,269.25 296.5,274.5C 296.296,271.082 296.296,267.416 296.5,263.5C 293.451,262.899 290.451,262.399 287.5,262C 288.849,262.772 289.682,263.939 290,265.5C 290.499,269.486 290.666,273.486 290.5,277.5C 287.102,277.82 283.768,277.487 280.5,276.5C 280.863,275.817 281.196,275.15 281.5,274.5C 283.167,273.167 284.833,273.167 286.5,274.5C 286.811,275.478 287.478,276.145 288.5,276.5C 289.657,273.216 289.824,269.882 289,266.5C 288.617,265.944 288.117,265.611 287.5,265.5C 285.964,262.908 283.631,261.908 280.5,262.5C 282.265,261.539 284.265,261.205 286.5,261.5C 286.5,259.833 286.5,258.167 286.5,256.5C 283.04,256.475 279.706,255.808 276.5,254.5C 276.167,253.833 275.833,253.167 275.5,252.5C 272.546,251.375 269.546,250.375 266.5,249.5C 265.383,246.687 263.55,246.02 261,247.5C 257.924,246.712 254.758,246.212 251.5,246C 250.944,245.617 250.611,245.117 250.5,244.5C 251.167,244.5 251.833,244.5 252.5,244.5C 257.518,244.939 262.352,244.273 267,242.5C 271.919,244.358 277.086,245.024 282.5,244.5C 282.879,241.433 281.879,240.433 279.5,241.5C 279.5,240.833 279.5,240.167 279.5,239.5C 279.334,235.154 279.501,230.821 280,226.5C 281.789,224.771 283.956,224.104 286.5,224.5C 286.179,230.026 286.512,235.36 287.5,240.5 Z"/></g>
<g><path style="opacity:1" fill="#129191" d="M 193.5,195.5 C 231.167,195.5 268.833,195.5 306.5,195.5C 309.641,196.321 312.975,196.821 316.5,197C 304.154,197.819 303.821,198.819 315.5,200C 310.241,201.039 309.241,203.539 312.5,207.5C 313.822,207.33 314.989,207.663 316,208.5C 316.824,211.882 316.657,215.216 315.5,218.5C 302.079,216.422 296.579,222.089 299,235.5C 300.385,238.386 302.551,240.386 305.5,241.5C 305.611,242.117 305.944,242.617 306.5,243C 308,243.167 309.5,243.333 311,243.5C 314.843,242.271 318.677,242.271 322.5,243.5C 323.833,243.167 325.167,242.833 326.5,242.5C 326.376,241.893 326.043,241.56 325.5,241.5C 325.5,240.833 325.5,240.167 325.5,239.5C 325.335,236.15 325.502,232.817 326,229.5C 326.383,230.056 326.883,230.389 327.5,230.5C 328.833,230.5 330.167,230.5 331.5,230.5C 333.048,231.794 335.048,232.461 337.5,232.5C 339.5,232.333 341.5,232.167 343.5,232C 344.985,230.244 344.652,229.077 342.5,228.5C 338.285,226.564 333.619,225.897 328.5,226.5C 327.883,226.611 327.383,226.944 327,227.5C 326.501,221.509 326.334,215.509 326.5,209.5C 329.833,209.5 333.167,209.5 336.5,209.5C 336.5,211.833 336.5,214.167 336.5,216.5C 339.833,216.833 343.167,217.167 346.5,217.5C 346.5,218.833 346.5,220.167 346.5,221.5C 348.167,221.5 349.833,221.5 351.5,221.5C 351.448,223.903 351.781,226.236 352.5,228.5C 349.415,232.246 346.749,236.246 344.5,240.5C 344.842,241.338 345.508,241.672 346.5,241.5C 346.5,242.833 346.5,244.167 346.5,245.5C 359.846,245.655 373.18,245.822 386.5,246C 384.833,245.667 383.167,245.333 381.5,245C 382.113,242.853 382.779,240.686 383.5,238.5C 384.452,240.045 384.785,241.712 384.5,243.5C 386.167,243.5 387.833,243.5 389.5,243.5C 389.5,245.167 389.5,246.833 389.5,248.5C 391.167,248.5 392.833,248.5 394.5,248.5C 394.5,250.167 394.5,251.833 394.5,253.5C 396.167,253.5 397.833,253.5 399.5,253.5C 399.5,255.167 399.5,256.833 399.5,258.5C 401.199,258.34 402.866,258.506 404.5,259C 402.457,259.93 400.624,260.43 399,260.5C 397.318,259.135 397.151,257.635 398.5,256C 396.527,255.505 394.527,255.338 392.5,255.5C 391.997,250.5 391.664,250.833 391.5,256.5C 393.167,256.5 394.833,256.5 396.5,256.5C 396.5,258.167 396.5,259.833 396.5,261.5C 394.585,261.216 392.919,261.549 391.5,262.5C 390.167,263.5 388.833,264.5 387.5,265.5C 386.391,265.443 385.391,265.11 384.5,264.5C 383.711,264.217 383.044,263.717 382.5,263C 379.674,262.971 377.007,262.805 374.5,262.5C 372.585,262.216 370.919,262.549 369.5,263.5C 362.224,261.946 359.39,264.946 361,272.5C 361.816,273.823 362.983,274.489 364.5,274.5C 366.962,277.004 369.629,277.004 372.5,274.5C 373.5,274.5 374.5,274.5 375.5,274.5C 376.183,276.176 377.517,276.843 379.5,276.5C 379.036,272.498 379.702,268.831 381.5,265.5C 382.167,268.5 382.833,271.5 383.5,274.5C 383.5,275.5 383.5,276.5 383.5,277.5C 387.869,276.923 391.869,277.757 395.5,280C 388.897,280.894 382.564,282.394 376.5,284.5C 364.829,284.667 353.162,284.5 341.5,284C 344.92,283.483 348.253,282.65 351.5,281.5C 342.334,280.832 333.168,281.165 324,282.5C 320.918,282.364 318.251,281.364 316,279.5C 314.333,280.167 312.667,280.833 311,281.5C 310.383,280.551 310.549,279.718 311.5,279C 312.833,278.667 314.167,278.333 315.5,278C 309.472,277.83 303.472,277.33 297.5,276.5C 297.624,275.893 297.957,275.56 298.5,275.5C 304.158,277.361 309.325,276.361 314,272.5C 315.079,269.937 315.579,267.271 315.5,264.5C 316.765,265.514 317.431,267.014 317.5,269C 317.371,270.981 316.704,272.647 315.5,274C 316.448,274.483 317.448,274.649 318.5,274.5C 318.62,275.586 319.287,276.253 320.5,276.5C 321.713,276.253 322.38,275.586 322.5,274.5C 323.5,274.5 324.5,274.5 325.5,274.5C 327.223,275.8 329.39,276.467 332,276.5C 334.167,276.167 336.333,275.833 338.5,275.5C 338.376,274.893 338.043,274.56 337.5,274.5C 337.5,273.833 337.167,273.5 336.5,273.5C 336.198,270.941 336.532,268.607 337.5,266.5C 338.167,268.167 338.833,269.833 339.5,271.5C 341.036,274.092 343.369,275.092 346.5,274.5C 345.737,275.268 344.737,275.768 343.5,276C 348.822,276.684 354.156,277.184 359.5,277.5C 359.715,275.821 359.048,274.821 357.5,274.5C 357.5,274.167 357.5,273.833 357.5,273.5C 357.279,270.721 357.612,268.054 358.5,265.5C 359.404,264.791 359.737,263.791 359.5,262.5C 357.389,263.38 355.389,263.38 353.5,262.5C 351.801,262.527 350.467,263.194 349.5,264.5C 346.167,261.833 342.833,261.833 339.5,264.5C 338.833,264.5 338.167,264.5 337.5,264.5C 336.791,263.596 335.791,263.263 334.5,263.5C 334.232,261.901 334.566,260.568 335.5,259.5C 335.281,260.675 335.614,261.675 336.5,262.5C 337.524,261.147 338.857,260.48 340.5,260.5C 340.715,258.821 340.048,257.821 338.5,257.5C 337.791,256.596 336.791,256.263 335.5,256.5C 333.708,256.366 332.042,256.699 330.5,257.5C 328.243,256.197 326.41,256.864 325,259.5C 324.495,261.518 323.995,263.518 323.5,265.5C 323.663,267.857 323.497,270.19 323,272.5C 322.821,269.447 322.321,266.447 321.5,263.5C 320.817,263.863 320.15,264.196 319.5,264.5C 319.672,263.508 319.338,262.842 318.5,262.5C 317.833,262.5 317.167,262.5 316.5,262.5C 316.5,260.5 316.5,258.5 316.5,256.5C 318.167,256.5 319.833,256.5 321.5,256.5C 322.575,252.062 320.908,250.062 316.5,250.5C 316.286,248.856 316.62,247.356 317.5,246C 317,245.833 316.5,245.667 316,245.5C 312.826,246.71 309.659,246.71 306.5,245.5C 304.606,242.967 302.106,241.3 299,240.5C 298.51,241.793 298.343,243.127 298.5,244.5C 295.167,244.5 291.833,244.5 288.5,244.5C 288.5,243.5 288.5,242.5 288.5,241.5C 290.924,241.808 293.257,241.474 295.5,240.5C 295.376,239.893 295.043,239.56 294.5,239.5C 294.666,233.824 294.499,228.157 294,222.5C 293.292,221.619 292.458,220.953 291.5,220.5C 290.395,219.4 289.062,218.733 287.5,218.5C 285.034,217.366 282.367,217.199 279.5,218C 278.529,219.481 277.196,220.315 275.5,220.5C 275.5,219.5 275.5,218.5 275.5,217.5C 272.525,217.713 269.858,218.713 267.5,220.5C 268.325,221.386 269.325,221.719 270.5,221.5C 270.5,222.5 270.5,223.5 270.5,224.5C 269.79,226.893 269.123,229.393 268.5,232C 263.511,232.499 258.511,232.666 253.5,232.5C 253.325,234.621 253.659,236.621 254.5,238.5C 252.596,238.262 251.262,237.262 250.5,235.5C 251.434,234.432 251.768,233.099 251.5,231.5C 256.511,231.666 261.511,231.499 266.5,231C 267.61,228.263 267.777,225.429 267,222.5C 266.329,221.748 265.496,221.414 264.5,221.5C 257.771,216.1 251.271,216.433 245,222.5C 241.772,230.4 243.606,236.733 250.5,241.5C 250.782,242.778 251.449,243.778 252.5,244.5C 251.833,244.5 251.167,244.5 250.5,244.5C 249.251,243.222 247.751,242.222 246,241.5C 245.517,242.448 245.351,243.448 245.5,244.5C 240.833,244.5 236.167,244.5 231.5,244.5C 231.5,243.5 231.5,242.5 231.5,241.5C 232.5,241.5 233.5,241.5 234.5,241.5C 235.514,242.765 237.014,243.431 239,243.5C 240.5,243.167 242,242.833 243.5,242.5C 243.043,241.702 242.376,241.369 241.5,241.5C 241.672,240.508 241.338,239.842 240.5,239.5C 240.83,233.132 240.496,226.798 239.5,220.5C 238.824,219.398 238.158,218.398 237.5,217.5C 235.565,218.15 233.565,218.483 231.5,218.5C 230.167,218.5 228.833,218.5 227.5,218.5C 223.741,216.609 220.908,217.609 219,221.5C 218.51,220.207 218.343,218.873 218.5,217.5C 215.637,217.929 212.971,218.929 210.5,220.5C 211.325,221.386 212.325,221.719 213.5,221.5C 213.823,227.69 213.49,233.69 212.5,239.5C 211.5,239.5 210.5,239.5 209.5,239.5C 210.209,238.596 211.209,238.263 212.5,238.5C 212.666,234.154 212.499,229.821 212,225.5C 211.641,228.544 210.974,228.878 210,226.5C 210.921,231.898 208.754,234.231 203.5,233.5C 202.881,229.446 200.714,228.113 197,229.5C 196.301,234.703 196.801,239.703 198.5,244.5C 193.5,244.5 188.5,244.5 183.5,244.5C 183.5,243.5 183.5,242.5 183.5,241.5C 183.833,241.5 184.167,241.5 184.5,241.5C 186.223,242.8 188.39,243.467 191,243.5C 193.167,243.167 195.333,242.833 197.5,242.5C 197.376,241.893 197.043,241.56 196.5,241.5C 196.672,240.508 196.338,239.842 195.5,239.5C 194.564,235.265 194.231,230.931 194.5,226.5C 197.059,226.802 199.393,226.468 201.5,225.5C 202.167,226.833 202.833,228.167 203.5,229.5C 203.833,229.5 204.167,229.5 204.5,229.5C 205.209,230.404 206.209,230.737 207.5,230.5C 207.5,227.167 207.5,223.833 207.5,220.5C 206.5,220.5 205.5,220.5 204.5,220.5C 204.5,219.5 204.5,218.5 204.5,217.5C 203.5,217.5 202.5,217.5 201.5,217.5C 201.5,218.833 201.5,220.167 201.5,221.5C 198.833,221.5 196.167,221.5 193.5,221.5C 193.335,218.15 193.502,214.817 194,211.5C 197.27,210.868 200.437,210.201 203.5,209.5C 204.022,211.219 205.022,212.552 206.5,213.5C 207.117,213.611 207.617,213.944 208,214.5C 209.128,212.655 209.628,210.655 209.5,208.5C 208.5,208.5 207.5,208.5 206.5,208.5C 198.567,206.532 190.234,205.865 181.5,206.5C 185.97,205.514 190.637,205.181 195.5,205.5C 195.845,201.885 195.178,198.552 193.5,195.5 Z"/></g>
<g><path style="opacity:1" fill="#347676" d="M 315.5,233.5 C 315.5,230.167 315.5,226.833 315.5,223.5C 307.181,223.344 304.348,227.344 307,235.5C 307.717,236.044 308.217,236.711 308.5,237.5C 308.167,237.5 307.833,237.5 307.5,237.5C 306.5,237.167 305.833,236.5 305.5,235.5C 305.241,231.76 305.574,228.094 306.5,224.5C 305.575,223.438 304.575,223.438 303.5,224.5C 306.318,218.966 310.318,218.133 315.5,222C 316.821,225.934 316.821,229.767 315.5,233.5 Z"/></g>
<g><path style="opacity:1" fill="#305c5c" d="M 264.5,221.5 C 265.496,221.414 266.329,221.748 267,222.5C 267.777,225.429 267.61,228.263 266.5,231C 261.511,231.499 256.511,231.666 251.5,231.5C 251.768,233.099 251.434,234.432 250.5,235.5C 249.659,233.621 249.325,231.621 249.5,229.5C 254.511,229.666 259.511,229.499 264.5,229C 265.649,226.541 265.649,224.041 264.5,221.5 Z"/></g>
<g><path style="opacity:1" fill="#398281" d="M 229.5,221.5 C 230.833,221.5 232.167,221.5 233.5,221.5C 233.822,227.358 233.489,233.025 232.5,238.5C 232.666,233.821 232.499,229.155 232,224.5C 229.227,226.047 226.227,227.047 223,227.5C 222.501,231.486 222.334,235.486 222.5,239.5C 220.901,239.768 219.568,239.434 218.5,238.5C 220.442,233.944 221.108,228.944 220.5,223.5C 222.638,222.192 224.638,222.525 226.5,224.5C 227.209,225.404 228.209,225.737 229.5,225.5C 229.5,224.167 229.5,222.833 229.5,221.5 Z"/></g>
<g><path style="opacity:1" fill="#354646" d="M 220.5,223.5 C 221.108,228.944 220.442,233.944 218.5,238.5C 218.334,233.821 218.501,229.155 219,224.5C 219.383,223.944 219.883,223.611 220.5,223.5 Z"/></g>
<g><path style="opacity:1" fill="#397777" d="M 284.5,221.5 C 285.458,221.953 286.292,222.619 287,223.5C 287.499,229.157 287.666,234.824 287.5,240.5C 286.512,235.36 286.179,230.026 286.5,224.5C 283.956,224.104 281.789,224.771 280,226.5C 279.501,230.821 279.334,235.154 279.5,239.5C 279.167,239.5 278.833,239.5 278.5,239.5C 279.113,233.729 278.446,228.396 276.5,223.5C 276.5,222.833 276.833,222.5 277.5,222.5C 279.717,221.631 282.05,221.298 284.5,221.5 Z"/></g>
<g><path style="opacity:1" fill="#edefef" d="M 328.5,226.5 C 333.619,225.897 338.285,226.564 342.5,228.5C 339.169,230.298 335.502,230.964 331.5,230.5C 330.167,230.5 328.833,230.5 327.5,230.5C 327.833,229.167 328.167,227.833 328.5,226.5 Z"/></g>
<g><path style="opacity:1" fill="#3f5655" d="M 305.5,235.5 C 304.542,235.047 303.708,234.381 303,233.5C 302.195,230.304 302.362,227.304 303.5,224.5C 304.575,223.438 305.575,223.438 306.5,224.5C 305.574,228.094 305.241,231.76 305.5,235.5 Z"/></g>
<g><path style="opacity:1" fill="#425b5a" d="M 276.5,223.5 C 278.446,228.396 279.113,233.729 278.5,239.5C 277.833,239.5 277.167,239.5 276.5,239.5C 275.167,234.167 275.167,228.833 276.5,223.5 Z"/></g>
<g><path style="opacity:1" fill="#45605f" d="M 291.5,220.5 C 292.458,220.953 293.292,221.619 294,222.5C 294.499,228.157 294.666,233.824 294.5,239.5C 293.504,239.586 292.671,239.252 292,238.5C 291.501,232.509 291.334,226.509 291.5,220.5 Z"/></g>
<g><path style="opacity:1" fill="#119797" d="M 270.5,224.5 C 270.5,229.167 270.5,233.833 270.5,238.5C 268.5,238.5 266.5,238.5 264.5,238.5C 261.368,237.988 258.035,237.988 254.5,238.5C 253.659,236.621 253.325,234.621 253.5,232.5C 258.511,232.666 263.511,232.499 268.5,232C 269.123,229.393 269.79,226.893 270.5,224.5 Z"/></g>
<g><path style="opacity:1" fill="#0f9090" d="M 315.5,233.5 C 315.5,234.167 315.5,234.833 315.5,235.5C 313.521,237.168 311.188,237.834 308.5,237.5C 308.217,236.711 307.717,236.044 307,235.5C 304.348,227.344 307.181,223.344 315.5,223.5C 315.5,226.833 315.5,230.167 315.5,233.5 Z"/></g>
<g><path style="opacity:1" fill="#465b5a" d="M 237.5,217.5 C 238.158,218.398 238.824,219.398 239.5,220.5C 240.496,226.798 240.83,233.132 240.5,239.5C 239.833,239.5 239.167,239.5 238.5,239.5C 237.536,232.254 237.203,224.92 237.5,217.5 Z"/></g>
<g><path style="opacity:1" fill="#3b5f5e" d="M 227.5,218.5 C 228.833,218.5 230.167,218.5 231.5,218.5C 230.449,219.222 229.782,220.222 229.5,221.5C 229.5,222.833 229.5,224.167 229.5,225.5C 228.209,225.737 227.209,225.404 226.5,224.5C 227.461,222.735 227.795,220.735 227.5,218.5 Z"/></g>
<g><path style="opacity:1" fill="#eaeded" d="M 264.5,221.5 C 265.649,224.041 265.649,226.541 264.5,229C 259.511,229.499 254.511,229.666 249.5,229.5C 249.325,231.621 249.659,233.621 250.5,235.5C 251.262,237.262 252.596,238.262 254.5,238.5C 258.035,237.988 261.368,237.988 264.5,238.5C 260.307,241.197 255.64,242.197 250.5,241.5C 243.606,236.733 241.772,230.4 245,222.5C 251.271,216.433 257.771,216.1 264.5,221.5 Z"/></g>
<g><path style="opacity:1" fill="#648a8a" d="M 259.5,222.5 C 260.451,223.919 260.784,225.585 260.5,227.5C 256.5,227.5 252.5,227.5 248.5,227.5C 248.232,225.901 248.566,224.568 249.5,223.5C 249.285,225.179 249.952,226.179 251.5,226.5C 254.167,226.5 256.833,226.5 259.5,226.5C 259.5,225.167 259.5,223.833 259.5,222.5 Z"/></g>
<g><path style="opacity:1" fill="#148e8e" d="M 258.5,221.5 C 259.167,221.5 259.5,221.833 259.5,222.5C 259.5,223.833 259.5,225.167 259.5,226.5C 256.833,226.5 254.167,226.5 251.5,226.5C 252.43,222.907 254.763,221.241 258.5,221.5 Z"/></g>
<g><path style="opacity:1" fill="#336262" d="M 258.5,221.5 C 254.763,221.241 252.43,222.907 251.5,226.5C 249.952,226.179 249.285,225.179 249.5,223.5C 250.828,219.746 253.494,218.579 257.5,220C 258.056,220.383 258.389,220.883 258.5,221.5 Z"/></g>
<g><path style="opacity:1" fill="#f2f4f4" d="M 287.5,218.5 C 289.062,218.733 290.395,219.4 291.5,220.5C 291.334,226.509 291.501,232.509 292,238.5C 292.671,239.252 293.504,239.586 294.5,239.5C 295.043,239.56 295.376,239.893 295.5,240.5C 293.257,241.474 290.924,241.808 288.5,241.5C 287.833,241.5 287.5,241.167 287.5,240.5C 287.666,234.824 287.499,229.157 287,223.5C 286.292,222.619 285.458,221.953 284.5,221.5C 283.048,220.698 281.382,220.198 279.5,220C 281.937,218.625 284.603,218.125 287.5,218.5 Z"/></g>
<g><path style="opacity:1" fill="#c2c9c9" d="M 287.5,218.5 C 284.603,218.125 281.937,218.625 279.5,220C 281.382,220.198 283.048,220.698 284.5,221.5C 282.05,221.298 279.717,221.631 277.5,222.5C 276.833,221.833 276.167,221.167 275.5,220.5C 277.196,220.315 278.529,219.481 279.5,218C 282.367,217.199 285.034,217.366 287.5,218.5 Z"/></g>
<g><path style="opacity:1" fill="#f3f4f4" d="M 275.5,220.5 C 276.167,221.167 276.833,221.833 277.5,222.5C 276.833,222.5 276.5,222.833 276.5,223.5C 275.167,228.833 275.167,234.167 276.5,239.5C 273.713,240.477 270.713,240.81 267.5,240.5C 268.568,239.566 269.901,239.232 271.5,239.5C 271.823,233.31 271.49,227.31 270.5,221.5C 269.325,221.719 268.325,221.386 267.5,220.5C 269.858,218.713 272.525,217.713 275.5,217.5C 275.5,218.5 275.5,219.5 275.5,220.5 Z"/></g>
<g><path style="opacity:1" fill="#f4f5f5" d="M 237.5,217.5 C 237.203,224.92 237.536,232.254 238.5,239.5C 235.713,240.477 232.713,240.81 229.5,240.5C 230.5,239.833 231.5,239.167 232.5,238.5C 233.489,233.025 233.822,227.358 233.5,221.5C 232.167,221.5 230.833,221.5 229.5,221.5C 229.782,220.222 230.449,219.222 231.5,218.5C 233.565,218.483 235.565,218.15 237.5,217.5 Z"/></g>
<g><path style="opacity:1" fill="#e7e9e9" d="M 227.5,218.5 C 227.795,220.735 227.461,222.735 226.5,224.5C 224.638,222.525 222.638,222.192 220.5,223.5C 219.883,223.611 219.383,223.944 219,224.5C 218.501,229.155 218.334,233.821 218.5,238.5C 219.568,239.434 220.901,239.768 222.5,239.5C 219.167,240.833 215.833,240.833 212.5,239.5C 213.49,233.69 213.823,227.69 213.5,221.5C 212.325,221.719 211.325,221.386 210.5,220.5C 212.971,218.929 215.637,217.929 218.5,217.5C 218.343,218.873 218.51,220.207 219,221.5C 220.908,217.609 223.741,216.609 227.5,218.5 Z"/></g>
<g><path style="opacity:1" fill="#287372" d="M 238.5,208.5 C 239.5,208.5 240.5,208.5 241.5,208.5C 242.435,213.672 240.435,215.839 235.5,215C 234.748,214.329 234.414,213.496 234.5,212.5C 236.833,212.167 238.167,210.833 238.5,208.5 Z"/></g>
<g><path style="opacity:1" fill="#e3e8e8" d="M 238.5,208.5 C 238.167,210.833 236.833,212.167 234.5,212.5C 231.52,209.8 231.854,207.8 235.5,206.5C 237.038,206.453 238.038,207.12 238.5,208.5 Z"/></g>
<g><path style="opacity:1" fill="#355757" d="M 342.5,228.5 C 344.652,229.077 344.985,230.244 343.5,232C 341.5,232.167 339.5,232.333 337.5,232.5C 335.048,232.461 333.048,231.794 331.5,230.5C 335.502,230.964 339.169,230.298 342.5,228.5 Z"/></g>
<g><path style="opacity:1" fill="#307e7e" d="M 166.5,217.5 C 167.467,218.806 168.801,219.473 170.5,219.5C 170.5,221.5 170.5,223.5 170.5,225.5C 169.167,225.5 167.833,225.5 166.5,225.5C 165.178,225.33 164.011,225.663 163,226.5C 162.501,230.821 162.334,235.154 162.5,239.5C 162.167,239.5 161.833,239.5 161.5,239.5C 160.877,234.065 160.21,228.732 159.5,223.5C 161.817,222.058 163.984,222.392 166,224.5C 166.497,222.19 166.663,219.857 166.5,217.5 Z"/></g>
<g><path style="opacity:1" fill="#becaca" d="M 315.5,235.5 C 315.833,236.167 316.167,236.833 316.5,237.5C 315.167,238.5 313.833,239.5 312.5,240.5C 311.198,238.972 309.531,237.972 307.5,237.5C 307.833,237.5 308.167,237.5 308.5,237.5C 311.188,237.834 313.521,237.168 315.5,235.5 Z"/></g>
<g><path style="opacity:1" fill="#b8c8c7" d="M 104.5,239.5 C 105.338,239.842 105.672,240.508 105.5,241.5C 101.5,241.5 97.5,241.5 93.5,241.5C 92.5,241.5 91.5,241.5 90.5,241.5C 90.5,241.167 90.5,240.833 90.5,240.5C 95.3633,240.819 100.03,240.486 104.5,239.5 Z"/></g>
<g><path style="opacity:1" fill="#aec2c2" d="M 195.5,239.5 C 196.338,239.842 196.672,240.508 196.5,241.5C 192.5,241.5 188.5,241.5 184.5,241.5C 184.167,241.5 183.833,241.5 183.5,241.5C 182.508,241.672 181.842,241.338 181.5,240.5C 186.363,240.819 191.03,240.486 195.5,239.5 Z"/></g>
<g><path style="opacity:1" fill="#b5c6c6" d="M 209.5,239.5 C 210.5,239.5 211.5,239.5 212.5,239.5C 215.833,240.833 219.167,240.833 222.5,239.5C 223.167,239.5 223.5,239.833 223.5,240.5C 220.038,241.482 216.371,241.815 212.5,241.5C 210.821,241.715 209.821,241.048 209.5,239.5 Z"/></g>
<g><path style="opacity:1" fill="#b9c8c7" d="M 238.5,239.5 C 239.167,239.5 239.833,239.5 240.5,239.5C 241.338,239.842 241.672,240.508 241.5,241.5C 239.167,241.5 236.833,241.5 234.5,241.5C 233.5,241.5 232.5,241.5 231.5,241.5C 230.508,241.672 229.842,241.338 229.5,240.5C 232.713,240.81 235.713,240.477 238.5,239.5 Z"/></g>
<g><path style="opacity:1" fill="#367675" d="M 270.5,221.5 C 271.49,227.31 271.823,233.31 271.5,239.5C 269.901,239.232 268.568,239.566 267.5,240.5C 271.298,241.483 275.298,241.817 279.5,241.5C 281.879,240.433 282.879,241.433 282.5,244.5C 277.086,245.024 271.919,244.358 267,242.5C 262.352,244.273 257.518,244.939 252.5,244.5C 251.449,243.778 250.782,242.778 250.5,241.5C 255.64,242.197 260.307,241.197 264.5,238.5C 266.5,238.5 268.5,238.5 270.5,238.5C 270.5,233.833 270.5,229.167 270.5,224.5C 270.5,223.5 270.5,222.5 270.5,221.5 Z"/></g>
<g><path style="opacity:1" fill="#b9c6c6" d="M 276.5,239.5 C 277.167,239.5 277.833,239.5 278.5,239.5C 278.833,239.5 279.167,239.5 279.5,239.5C 279.5,240.167 279.5,240.833 279.5,241.5C 275.298,241.817 271.298,241.483 267.5,240.5C 270.713,240.81 273.713,240.477 276.5,239.5 Z"/></g>
<g><path style="opacity:1" fill="#b4c0c0" d="M 374.5,232.5 C 375.338,232.842 375.672,233.508 375.5,234.5C 375.5,236.833 375.5,239.167 375.5,241.5C 366.167,241.5 356.833,241.5 347.5,241.5C 347.167,241.5 346.833,241.5 346.5,241.5C 345.508,241.672 344.842,241.338 344.5,240.5C 354.5,240.5 364.5,240.5 374.5,240.5C 374.5,237.833 374.5,235.167 374.5,232.5 Z"/></g>
<g><path style="opacity:1" fill="#336665" d="M 316.5,237.5 C 316.5,238.833 316.5,240.167 316.5,241.5C 319.5,241.5 322.5,241.5 325.5,241.5C 326.043,241.56 326.376,241.893 326.5,242.5C 325.167,242.833 323.833,243.167 322.5,243.5C 318.677,242.271 314.843,242.271 311,243.5C 309.5,243.333 308,243.167 306.5,243C 305.944,242.617 305.611,242.117 305.5,241.5C 307.95,241.702 310.283,241.369 312.5,240.5C 313.833,239.5 315.167,238.5 316.5,237.5 Z"/></g>
<g><path style="opacity:1" fill="#2c5757" d="M 375.5,234.5 C 376.5,234.5 377.5,234.5 378.5,234.5C 378.988,237.711 378.321,240.544 376.5,243C 371.667,243.167 366.833,243.333 362,243.5C 356.784,243.494 351.951,242.827 347.5,241.5C 356.833,241.5 366.167,241.5 375.5,241.5C 375.5,239.167 375.5,236.833 375.5,234.5 Z"/></g>
<g><path style="opacity:1" fill="#42bfba" d="M 94.5,229.5 C 93.0484,230.302 91.3817,230.802 89.5,231C 90.4061,232.699 90.7394,234.533 90.5,236.5C 89.0695,236.579 87.7362,236.246 86.5,235.5C 86.0024,234.397 85.6691,233.397 85.5,232.5C 83.4798,234.599 83.1465,236.933 84.5,239.5C 86.5295,240.172 88.5295,240.838 90.5,241.5C 91.5,241.5 92.5,241.5 93.5,241.5C 95.2789,243.344 97.6122,244.01 100.5,243.5C 100.5,244.167 100.5,244.833 100.5,245.5C 96.1197,249.675 91.1197,250.508 85.5,248C 79.9593,241.663 80.2927,235.663 86.5,230C 89.146,229.503 91.8127,229.336 94.5,229.5 Z"/></g>
<g><path style="opacity:1" fill="#356e6c" d="M 93.5,241.5 C 97.5,241.5 101.5,241.5 105.5,241.5C 106.043,241.56 106.376,241.893 106.5,242.5C 104.604,243.466 102.604,243.799 100.5,243.5C 97.6122,244.01 95.2789,243.344 93.5,241.5 Z"/></g>
<g><path style="opacity:1" fill="#406566" d="M 138.5,241.5 C 137.833,241.5 137.5,241.833 137.5,242.5C 134.221,243.492 130.888,243.659 127.5,243C 126.944,242.617 126.611,242.117 126.5,241.5C 131.126,242.3 134.96,240.966 138,237.5C 138.49,238.793 138.657,240.127 138.5,241.5 Z"/></g>
<g><path style="opacity:1" fill="#2d6666" d="M 184.5,241.5 C 188.5,241.5 192.5,241.5 196.5,241.5C 197.043,241.56 197.376,241.893 197.5,242.5C 195.333,242.833 193.167,243.167 191,243.5C 188.39,243.467 186.223,242.8 184.5,241.5 Z"/></g>
<g><path style="opacity:1" fill="#2c6364" d="M 234.5,241.5 C 236.833,241.5 239.167,241.5 241.5,241.5C 242.376,241.369 243.043,241.702 243.5,242.5C 242,242.833 240.5,243.167 239,243.5C 237.014,243.431 235.514,242.765 234.5,241.5 Z"/></g>
<g><path style="opacity:1" fill="#12a3a3" d="M 94.5,229.5 C 91.8127,229.336 89.146,229.503 86.5,230C 80.2927,235.663 79.9593,241.663 85.5,248C 91.1197,250.508 96.1197,249.675 100.5,245.5C 102.126,245.938 103.793,246.272 105.5,246.5C 109.058,244.715 112.892,243.715 117,243.5C 127.713,245.26 138.547,245.927 149.5,245.5C 155.509,245.666 161.509,245.499 167.5,245C 169.088,242.957 170.421,243.124 171.5,245.5C 178.167,246.167 184.833,246.833 191.5,247.5C 197.615,250.668 204.282,252.334 211.5,252.5C 218.639,255.973 226.306,258.14 234.5,259C 229.102,259.849 223.769,261.016 218.5,262.5C 218.624,263.107 218.957,263.44 219.5,263.5C 219.833,263.5 220.167,263.5 220.5,263.5C 221.999,267.369 223.666,271.036 225.5,274.5C 225.5,274.833 225.5,275.167 225.5,275.5C 224.957,275.56 224.624,275.893 224.5,276.5C 226.743,277.474 229.076,277.808 231.5,277.5C 231.5,278.833 231.5,280.167 231.5,281.5C 226.045,282.444 220.711,282.777 215.5,282.5C 215.664,279.813 215.497,277.146 215,274.5C 213.745,273.789 212.579,272.956 211.5,272C 213.577,269.108 214.911,265.941 215.5,262.5C 213.167,262.5 210.833,262.5 208.5,262.5C 205.941,262.198 203.607,262.532 201.5,263.5C 198.423,263.653 195.589,262.986 193,261.5C 191.93,261.528 191.097,261.861 190.5,262.5C 189.5,263.833 188.5,263.833 187.5,262.5C 186.127,262.657 184.793,262.49 183.5,262C 184.86,259.192 184.193,258.359 181.5,259.5C 180.89,260.391 180.557,261.391 180.5,262.5C 179.737,263.268 178.737,263.768 177.5,264C 178.704,265.353 179.371,267.019 179.5,269C 179.492,270.707 179.158,272.207 178.5,273.5C 177.927,270.853 177.26,268.187 176.5,265.5C 175.817,265.137 175.15,264.804 174.5,264.5C 173.333,263.185 171.833,262.519 170,262.5C 166.249,262.788 162.415,262.955 158.5,263C 156.657,263.159 155.991,263.659 156.5,264.5C 156.5,265.833 155.833,266.5 154.5,266.5C 152.206,262.748 148.872,261.581 144.5,263C 143.934,263.995 143.267,264.828 142.5,265.5C 141.833,265.5 141.167,265.5 140.5,265.5C 137.557,262.511 134.224,261.845 130.5,263.5C 129.5,263.5 128.5,263.5 127.5,263.5C 125.881,262.928 124.215,262.595 122.5,262.5C 120.513,262.868 119.513,263.534 119.5,264.5C 119.715,266.179 119.048,267.179 117.5,267.5C 115.473,267.338 113.473,267.505 111.5,268C 113.107,269.049 113.773,270.549 113.5,272.5C 106.667,273.33 104,270.33 105.5,263.5C 106.625,261.871 107.959,260.371 109.5,259C 108.906,258.536 108.239,258.369 107.5,258.5C 111.027,256.755 113.693,257.755 115.5,261.5C 116.83,259.653 116.497,258.153 114.5,257C 104.178,254.343 99.3444,258.176 100,268.5C 102.345,273.935 106.511,275.935 112.5,274.5C 111.048,275.302 109.382,275.802 107.5,276C 110.833,276.667 114.167,276.667 117.5,276C 118.056,275.617 118.389,275.117 118.5,274.5C 121.059,274.802 123.393,274.468 125.5,273.5C 125.201,271.396 125.534,269.396 126.5,267.5C 127.176,268.602 127.842,269.602 128.5,270.5C 128.738,272.404 129.738,273.738 131.5,274.5C 132.312,275.993 133.645,276.66 135.5,276.5C 137.557,276.564 139.223,275.898 140.5,274.5C 141.167,273.833 141.833,273.167 142.5,272.5C 144.479,274.168 146.812,274.834 149.5,274.5C 148.737,275.268 147.737,275.768 146.5,276C 150.282,277.221 153.282,276.387 155.5,273.5C 156.209,274.404 157.209,274.737 158.5,274.5C 158.62,275.586 159.287,276.253 160.5,276.5C 161.713,276.253 162.38,275.586 162.5,274.5C 163.5,274.5 164.5,274.5 165.5,274.5C 165.791,275.649 166.624,276.316 168,276.5C 168.833,276.167 169.667,275.833 170.5,275.5C 168.968,271.905 169.302,268.572 171.5,265.5C 171.89,268.797 172.89,271.797 174.5,274.5C 175.5,277.167 176.5,277.167 177.5,274.5C 182.032,274.818 186.366,274.485 190.5,273.5C 190.805,270.586 190.805,267.919 190.5,265.5C 191.542,264.209 192.708,264.209 194,265.5C 193.93,268.992 194.763,271.992 196.5,274.5C 196.821,276.048 197.821,276.715 199.5,276.5C 199.433,277.959 199.766,279.292 200.5,280.5C 200.414,281.496 200.748,282.329 201.5,283C 199.833,283.333 198.167,283.667 196.5,284C 241.669,284.167 286.669,284.667 331.5,285.5C 237.833,285.5 144.167,285.5 50.5,285.5C 50.5,264.167 50.5,242.833 50.5,221.5C 57.175,221.666 63.8417,221.5 70.5,221C 78.335,219.034 86.1683,217.201 94,215.5C 94.4992,220.155 94.6658,224.821 94.5,229.5 Z"/></g>
<g><path style="opacity:1" fill="#318081" d="M 152.5,221.5 C 153.49,227.31 153.823,233.31 153.5,239.5C 151.517,239.157 150.183,239.824 149.5,241.5C 149.586,242.496 149.252,243.329 148.5,244C 147.167,244.167 145.833,244.333 144.5,244.5C 142.076,243.979 139.743,243.312 137.5,242.5C 137.5,241.833 137.833,241.5 138.5,241.5C 141.167,241.5 143.833,241.5 146.5,241.5C 147.923,239.455 149.923,238.455 152.5,238.5C 152.5,232.833 152.5,227.167 152.5,221.5 Z"/></g>
<g><path style="opacity:1" fill="#257a7a" d="M 223.5,240.5 C 226.173,240.684 226.84,241.851 225.5,244C 221.179,244.499 216.846,244.666 212.5,244.5C 212.5,243.5 212.5,242.5 212.5,241.5C 216.371,241.815 220.038,241.482 223.5,240.5 Z"/></g>
<g><path style="opacity:1" fill="#e2e8e7" d="M 71.5,259.5 C 71.5,264.167 69.1667,266.5 64.5,266.5C 65.5,265.833 66.5,265.167 67.5,264.5C 68.4614,262.735 68.7947,260.735 68.5,258.5C 67.5,258.5 66.5,258.5 65.5,258.5C 64.8333,258.5 64.1667,258.5 63.5,258.5C 62.1667,263.5 62.1667,268.5 63.5,273.5C 64.1667,273.5 64.8333,273.5 65.5,273.5C 61.0334,274.862 59.3668,274.862 60.5,273.5C 60.8275,268.456 60.4941,263.456 59.5,258.5C 58.6919,258.192 58.0253,257.692 57.5,257C 61.1667,256.333 64.8333,256.333 68.5,257C 69.9423,257.377 70.9423,258.21 71.5,259.5 Z"/></g>
<g><path style="opacity:1" fill="#f0f2f2" d="M 181.5,259.5 C 179.663,259.361 179.33,258.694 180.5,257.5C 181.298,257.957 181.631,258.624 181.5,259.5 Z"/></g>
<g><path style="opacity:1" fill="#e1e9e9" d="M 242.5,257.5 C 243.675,257.281 244.675,257.614 245.5,258.5C 243.948,259.798 242.948,259.465 242.5,257.5 Z"/></g>
<g><path style="opacity:1" fill="#256161" d="M 260.5,255.5 C 262.344,257.279 263.01,259.612 262.5,262.5C 261.833,262.5 261.5,262.833 261.5,263.5C 260.527,261.052 260.194,258.385 260.5,255.5 Z"/></g>
<g><path style="opacity:1" fill="#f7f8f8" d="M 317.5,257.5 C 319.337,257.639 319.67,258.306 318.5,259.5C 317.702,259.043 317.369,258.376 317.5,257.5 Z"/></g>
<g><path style="opacity:1" fill="#216362" d="M 338.5,257.5 C 340.048,257.821 340.715,258.821 340.5,260.5C 338.857,260.48 337.524,261.147 336.5,262.5C 335.614,261.675 335.281,260.675 335.5,259.5C 336.5,258.833 337.5,258.167 338.5,257.5 Z"/></g>
<g><path style="opacity:1" fill="#8d9d9c" d="M 259.5,255.5 C 259.833,255.5 260.167,255.5 260.5,255.5C 260.194,258.385 260.527,261.052 261.5,263.5C 261.5,263.833 261.5,264.167 261.5,264.5C 261.5,265.167 261.167,265.5 260.5,265.5C 259.586,262.272 259.253,258.939 259.5,255.5 Z"/></g>
<g><path style="opacity:1" fill="#2e6867" d="M 335.5,256.5 C 334.5,257.833 333.5,259.167 332.5,260.5C 330.857,260.48 329.524,261.147 328.5,262.5C 327.614,261.675 327.281,260.675 327.5,259.5C 328.5,258.833 329.5,258.167 330.5,257.5C 332.042,256.699 333.708,256.366 335.5,256.5 Z"/></g>
<g><path style="opacity:1" fill="#e9ecec" d="M 335.5,256.5 C 336.791,256.263 337.791,256.596 338.5,257.5C 337.5,258.167 336.5,258.833 335.5,259.5C 334.566,260.568 334.232,261.901 334.5,263.5C 335.791,263.263 336.791,263.596 337.5,264.5C 336.5,264.5 335.5,264.5 334.5,264.5C 334.19,267.713 334.523,270.713 335.5,273.5C 335.833,273.5 336.167,273.5 336.5,273.5C 337.167,273.5 337.5,273.833 337.5,274.5C 335.143,274.663 332.81,274.497 330.5,274C 331.684,272.82 332.351,271.32 332.5,269.5C 332.489,267.955 332.156,266.622 331.5,265.5C 332.038,263.883 332.371,262.216 332.5,260.5C 333.5,259.167 334.5,257.833 335.5,256.5 Z"/></g>
<g><path style="opacity:1" fill="#244848" d="M 63.5,258.5 C 64.1667,258.5 64.8333,258.5 65.5,258.5C 64.8505,260.435 64.5172,262.435 64.5,264.5C 63.5386,262.735 63.2053,260.735 63.5,258.5 Z"/></g>
<g><path style="opacity:1" fill="#dadfdf" d="M 89.5,260.5 C 89.5,261.5 89.5,262.5 89.5,263.5C 90.552,263.351 91.552,263.517 92.5,264C 91.2625,264.232 90.2625,264.732 89.5,265.5C 89.5,267.833 89.5,270.167 89.5,272.5C 92.2583,273.967 91.925,274.633 88.5,274.5C 86.8958,273.713 86.2291,272.38 86.5,270.5C 86.5,268.833 86.5,267.167 86.5,265.5C 86.1501,263.374 86.1501,261.041 86.5,258.5C 88.1788,258.285 89.1788,258.952 89.5,260.5 Z"/></g>
<g><path style="opacity:1" fill="#edeeee" d="M 252.5,263.5 C 253.791,263.263 254.791,263.596 255.5,264.5C 254.167,264.5 252.833,264.5 251.5,264.5C 251.194,267.385 251.527,270.052 252.5,272.5C 253.167,273.167 253.833,273.833 254.5,274.5C 254.167,274.5 253.833,274.5 253.5,274.5C 252.178,274.67 251.011,274.337 250,273.5C 249.744,270.443 249.244,267.443 248.5,264.5C 248.624,263.893 248.957,263.56 249.5,263.5C 250.29,262.391 250.79,261.058 251,259.5C 251.21,261.058 251.71,262.391 252.5,263.5 Z"/></g>
<g><path style="opacity:1" fill="#e3e8e8" d="M 330.5,257.5 C 329.5,258.167 328.5,258.833 327.5,259.5C 326.566,260.568 326.232,261.901 326.5,263.5C 327.873,263.343 329.207,263.51 330.5,264C 329.263,264.232 328.263,264.732 327.5,265.5C 326.527,267.948 326.194,270.615 326.5,273.5C 330.172,274.045 329.838,274.378 325.5,274.5C 324.5,274.5 323.5,274.5 322.5,274.5C 324.634,271.654 324.967,268.654 323.5,265.5C 323.995,263.518 324.495,261.518 325,259.5C 326.41,256.864 328.243,256.197 330.5,257.5 Z"/></g>
<g><path style="opacity:1" fill="#6f7f7e" d="M 63.5,258.5 C 63.2053,260.735 63.5386,262.735 64.5,264.5C 65.5,264.5 66.5,264.5 67.5,264.5C 66.5,265.167 65.5,265.833 64.5,266.5C 63.5318,268.607 63.1984,270.941 63.5,273.5C 62.1667,268.5 62.1667,263.5 63.5,258.5 Z"/></g>
<g><path style="opacity:1" fill="#2c8b8b" d="M 65.5,258.5 C 66.5,258.5 67.5,258.5 68.5,258.5C 68.7947,260.735 68.4614,262.735 67.5,264.5C 66.5,264.5 65.5,264.5 64.5,264.5C 64.5172,262.435 64.8505,260.435 65.5,258.5 Z"/></g>
<g><path style="opacity:1" fill="#388787" d="M 89.5,260.5 C 92.9397,260.337 94.9397,262.004 95.5,265.5C 93.2569,266.412 92.2569,268.078 92.5,270.5C 93.2043,272.535 93.871,274.535 94.5,276.5C 91.9899,276.946 89.9899,276.28 88.5,274.5C 91.925,274.633 92.2583,273.967 89.5,272.5C 90.7251,271.848 91.3917,270.681 91.5,269C 91.3917,267.319 90.7251,266.152 89.5,265.5C 90.2625,264.732 91.2625,264.232 92.5,264C 91.552,263.517 90.552,263.351 89.5,263.5C 89.5,262.5 89.5,261.5 89.5,260.5 Z"/></g>
<g><path style="opacity:1" fill="#317878" d="M 187.5,262.5 C 186.737,263.268 185.737,263.768 184.5,264C 186.344,266.804 187.011,269.97 186.5,273.5C 185.167,273.5 183.833,273.5 182.5,273.5C 183.08,269.351 182.414,265.684 180.5,262.5C 180.557,261.391 180.89,260.391 181.5,259.5C 184.193,258.359 184.86,259.192 183.5,262C 184.793,262.49 186.127,262.657 187.5,262.5 Z"/></g>
<g><path style="opacity:1" fill="#b0bfbf" d="M 252.5,258.5 C 252.5,260.167 252.5,261.833 252.5,263.5C 251.71,262.391 251.21,261.058 251,259.5C 250.79,261.058 250.29,262.391 249.5,263.5C 249.5,261.833 249.5,260.167 249.5,258.5C 250.5,258.5 251.5,258.5 252.5,258.5 Z"/></g>
<g><path style="opacity:1" fill="#336b6b" d="M 71.5,259.5 C 72.5,259.5 73.5,259.5 74.5,259.5C 74.2627,260.791 74.596,261.791 75.5,262.5C 73.615,264.053 72.615,266.053 72.5,268.5C 70.1667,268.5 67.8333,268.5 65.5,268.5C 65.5,270.167 65.5,271.833 65.5,273.5C 64.8333,273.5 64.1667,273.5 63.5,273.5C 63.1984,270.941 63.5318,268.607 64.5,266.5C 69.1667,266.5 71.5,264.167 71.5,259.5 Z"/></g>
<g><path style="opacity:1" fill="#a7b5b5" d="M 219.5,263.5 C 221.5,262.167 223.5,262.167 225.5,263.5C 224.596,264.209 224.263,265.209 224.5,266.5C 223.596,265.791 223.263,264.791 223.5,263.5C 222.5,263.5 221.5,263.5 220.5,263.5C 220.167,263.5 219.833,263.5 219.5,263.5 Z"/></g>
<g><path style="opacity:1" fill="#b9c3c3" d="M 239.5,263.5 C 237.271,266.19 235.604,269.19 234.5,272.5C 234.167,271.833 233.833,271.167 233.5,270.5C 234.404,269.791 234.737,268.791 234.5,267.5C 235.801,266.116 235.801,264.616 234.5,263C 236.387,262.22 238.054,262.387 239.5,263.5 Z"/></g>
<g><path style="opacity:1" fill="#5a8e8e" d="M 327.5,259.5 C 327.281,260.675 327.614,261.675 328.5,262.5C 329.524,261.147 330.857,260.48 332.5,260.5C 332.371,262.216 332.038,263.883 331.5,265.5C 330.167,265.5 328.833,265.5 327.5,265.5C 328.263,264.732 329.263,264.232 330.5,264C 329.207,263.51 327.873,263.343 326.5,263.5C 326.232,261.901 326.566,260.568 327.5,259.5 Z"/></g>
<g><path style="opacity:1" fill="#d5dcdc" d="M 349.5,264.5 C 349.5,265.833 349.5,267.167 349.5,268.5C 346.833,268.5 344.167,268.5 341.5,268.5C 341.297,270.39 341.963,271.89 343.5,273C 345.557,273.305 347.557,273.305 349.5,273C 348.756,274.039 347.756,274.539 346.5,274.5C 343.369,275.092 341.036,274.092 339.5,271.5C 339.5,269.167 339.5,266.833 339.5,264.5C 342.833,261.833 346.167,261.833 349.5,264.5 Z"/></g>
<g><path style="opacity:1" fill="#f0efef" d="M 259.5,255.5 C 259.253,258.939 259.586,262.272 260.5,265.5C 260.5,265.833 260.5,266.167 260.5,266.5C 259.686,268.631 259.186,270.964 259,273.5C 258.617,272.944 258.117,272.611 257.5,272.5C 257.821,266.974 257.488,261.64 256.5,256.5C 256.452,255.493 257.452,255.16 259.5,255.5 Z"/></g>
<g><path style="opacity:1" fill="#d9dede" d="M 262.5,262.5 C 265.313,262.025 267.313,263.025 268.5,265.5C 268.223,268.448 268.556,271.281 269.5,274C 268.906,274.464 268.239,274.631 267.5,274.5C 266.833,274.5 266.167,274.5 265.5,274.5C 265.665,271.482 265.498,268.482 265,265.5C 263.989,264.663 262.822,264.33 261.5,264.5C 261.5,264.167 261.5,263.833 261.5,263.5C 261.5,262.833 261.833,262.5 262.5,262.5 Z"/></g>
<g><path style="opacity:1" fill="#f2f3f3" d="M 318.5,262.5 C 319.338,262.842 319.672,263.508 319.5,264.5C 318.989,268.03 319.656,271.196 321.5,274C 320.552,274.483 319.552,274.649 318.5,274.5C 317.448,274.649 316.448,274.483 315.5,274C 316.704,272.647 317.371,270.981 317.5,269C 317.431,267.014 316.765,265.514 315.5,264.5C 316.5,263.833 317.5,263.167 318.5,262.5 Z"/></g>
<g><path style="opacity:1" fill="#dbe1e1" d="M 75.5,262.5 C 78.5133,262.107 81.1799,262.774 83.5,264.5C 83.5,265.833 83.5,267.167 83.5,268.5C 80.8333,268.5 78.1667,268.5 75.5,268.5C 75.7932,272.829 77.7932,274.163 81.5,272.5C 83.3786,272.393 83.7119,272.893 82.5,274C 76.8935,275.929 73.5601,274.095 72.5,268.5C 72.615,266.053 73.615,264.053 75.5,262.5 Z"/></g>
<g><path style="opacity:1" fill="#325858" d="M 107.5,258.5 C 108.239,258.369 108.906,258.536 109.5,259C 107.959,260.371 106.625,261.871 105.5,263.5C 104.833,265.5 104.167,267.5 103.5,269.5C 101.382,264.448 102.715,260.781 107.5,258.5 Z"/></g>
<g><path style="opacity:1" fill="#e5e9e9" d="M 174.5,264.5 C 173.989,268.03 174.656,271.196 176.5,274C 175.906,274.464 175.239,274.631 174.5,274.5C 172.89,271.797 171.89,268.797 171.5,265.5C 170.458,264.209 169.292,264.209 168,265.5C 167.223,268.429 167.39,271.263 168.5,274C 167.552,274.483 166.552,274.649 165.5,274.5C 164.5,274.5 163.5,274.5 162.5,274.5C 164.406,271.844 164.906,268.844 164,265.5C 162.708,264.209 161.542,264.209 160.5,265.5C 159.844,266.622 159.511,267.955 159.5,269.5C 159.585,271.333 160.252,272.666 161.5,273.5C 160.791,274.404 159.791,274.737 158.5,274.5C 157.209,274.737 156.209,274.404 155.5,273.5C 156.765,272.486 157.431,270.986 157.5,269C 157.492,267.293 157.158,265.793 156.5,264.5C 155.991,263.659 156.657,263.159 158.5,263C 162.415,262.955 166.249,262.788 170,262.5C 171.833,262.519 173.333,263.185 174.5,264.5 Z"/></g>
<g><path style="opacity:1" fill="#356f6f" d="M 343.5,263.5 C 345.912,263.694 346.912,265.027 346.5,267.5C 341.831,268.01 340.831,266.677 343.5,263.5 Z"/></g>
<g><path style="opacity:1" fill="#d4dada" d="M 127.5,263.5 C 126.817,265.176 125.483,265.843 123.5,265.5C 122.964,268.698 123.631,271.365 125.5,273.5C 123.393,274.468 121.059,274.802 118.5,274.5C 120.657,271.312 120.99,267.979 119.5,264.5C 119.513,263.534 120.513,262.868 122.5,262.5C 124.215,262.595 125.881,262.928 127.5,263.5 Z"/></g>
<g><path style="opacity:1" fill="#dfe4e4" d="M 140.5,265.5 C 140.702,267.95 140.369,270.283 139.5,272.5C 137.18,274.226 134.513,274.893 131.5,274.5C 129.738,273.738 128.738,272.404 128.5,270.5C 128.166,267.812 128.832,265.479 130.5,263.5C 134.224,261.845 137.557,262.511 140.5,265.5 Z"/></g>
<g><path style="opacity:1" fill="#d8e0e0" d="M 208.5,262.5 C 209.609,263.29 210.942,263.79 212.5,264C 211.584,264.278 210.918,264.778 210.5,265.5C 210.703,267.39 210.037,268.89 208.5,270C 201.844,271.935 202.178,272.768 209.5,272.5C 210.5,273.167 211.5,273.833 212.5,274.5C 211.739,280.231 208.406,282.565 202.5,281.5C 202.158,280.662 201.492,280.328 200.5,280.5C 199.766,279.292 199.433,277.959 199.5,276.5C 201.011,275.042 202.011,273.209 202.5,271C 200.285,268.758 199.952,266.258 201.5,263.5C 203.607,262.532 205.941,262.198 208.5,262.5 Z"/></g>
<g><path style="opacity:1" fill="#437373" d="M 229.5,262.5 C 228.25,265.067 227.083,267.733 226,270.5C 225.209,269.255 224.709,267.922 224.5,266.5C 224.263,265.209 224.596,264.209 225.5,263.5C 226.959,263.567 228.292,263.234 229.5,262.5 Z"/></g>
<g><path style="opacity:1" fill="#95a9a9" d="M 240.5,263.5 C 242.167,262.167 243.833,262.167 245.5,263.5C 245.5,266.833 245.5,270.167 245.5,273.5C 244.521,270.375 244.187,267.042 244.5,263.5C 243.167,263.5 241.833,263.5 240.5,263.5 Z"/></g>
<g><path style="opacity:1" fill="#2a6565" d="M 245.5,263.5 C 247.353,267.392 248.353,271.725 248.5,276.5C 246.219,276.923 244.552,276.256 243.5,274.5C 245.401,274.754 246.067,274.42 245.5,273.5C 245.5,270.167 245.5,266.833 245.5,263.5 Z"/></g>
<g><path style="opacity:1" fill="#cfd6d6" d="M 280.5,262.5 C 283.631,261.908 285.964,262.908 287.5,265.5C 287.223,268.448 287.556,271.281 288.5,274C 287.906,274.464 287.239,274.631 286.5,274.5C 284.833,273.167 283.167,273.167 281.5,274.5C 280.178,274.67 279.011,274.337 278,273.5C 276.72,268.079 278.887,266.079 284.5,267.5C 284.5,266.5 284.5,265.5 284.5,264.5C 282.533,264.261 280.699,264.594 279,265.5C 278.415,264.002 278.915,263.002 280.5,262.5 Z"/></g>
<g><path style="opacity:1" fill="#e3e8e8" d="M 369.5,263.5 C 370.301,265.042 370.634,266.708 370.5,268.5C 367.753,268.187 365.086,268.52 362.5,269.5C 363.04,270.748 363.707,271.915 364.5,273C 366.557,273.305 368.557,273.305 370.5,273C 368.75,274.319 366.75,274.819 364.5,274.5C 362.983,274.489 361.816,273.823 361,272.5C 359.39,264.946 362.224,261.946 369.5,263.5 Z"/></g>
<g><path style="opacity:1" fill="#366c6c" d="M 364.5,263.5 C 367.5,263.167 368.833,264.5 368.5,267.5C 366.833,267.5 365.167,267.5 363.5,267.5C 363.433,266.041 363.766,264.708 364.5,263.5 Z"/></g>
<g><path style="opacity:1" fill="#e3e8e8" d="M 408.5,268.5 C 405.753,268.187 403.086,268.52 400.5,269.5C 400.942,270.739 401.609,271.739 402.5,272.5C 404.362,273.392 406.362,273.559 408.5,273C 400.655,276.491 397.489,273.991 399,265.5C 400.864,262.793 403.364,261.959 406.5,263C 408.155,264.444 408.822,266.278 408.5,268.5 Z"/></g>
<g><path style="opacity:1" fill="#3b7272" d="M 402.5,263.5 C 405.5,263.167 406.833,264.5 406.5,267.5C 404.833,267.5 403.167,267.5 401.5,267.5C 401.433,266.041 401.766,264.708 402.5,263.5 Z"/></g>
<g><path style="opacity:1" fill="#3a7c7d" d="M 77.5,263.5 C 79.9118,263.694 80.9118,265.027 80.5,267.5C 75.8308,268.01 74.8308,266.677 77.5,263.5 Z"/></g>
<g><path style="opacity:1" fill="#e0e5e5" d="M 154.5,266.5 C 154.824,270.537 153.158,273.203 149.5,274.5C 146.812,274.834 144.479,274.168 142.5,272.5C 142.5,270.167 142.5,267.833 142.5,265.5C 143.267,264.828 143.934,263.995 144.5,263C 148.872,261.581 152.206,262.748 154.5,266.5 Z"/></g>
<g><path style="opacity:1" fill="#316f70" d="M 203.5,264.5 C 204.833,264.5 206.167,264.5 207.5,264.5C 208.244,267.95 206.91,269.616 203.5,269.5C 203.5,267.833 203.5,266.167 203.5,264.5 Z"/></g>
<g><path style="opacity:1" fill="#718382" d="M 337.5,264.5 C 338.167,264.5 338.833,264.5 339.5,264.5C 339.5,266.833 339.5,269.167 339.5,271.5C 338.833,269.833 338.167,268.167 337.5,266.5C 337.44,265.957 337.107,265.624 336.5,265.5C 335.52,268.086 335.187,270.753 335.5,273.5C 334.523,270.713 334.19,267.713 334.5,264.5C 335.5,264.5 336.5,264.5 337.5,264.5 Z"/></g>
<g><path style="opacity:1" fill="#254b4b" d="M 89.5,265.5 C 90.7251,266.152 91.3917,267.319 91.5,269C 91.3917,270.681 90.7251,271.848 89.5,272.5C 89.5,270.167 89.5,267.833 89.5,265.5 Z"/></g>
<g><path style="opacity:1" fill="#377070" d="M 150.5,265.5 C 149.504,265.414 148.671,265.748 148,266.5C 147.505,268.473 147.338,270.473 147.5,272.5C 148.5,272.5 149.5,272.5 150.5,272.5C 146.609,274.152 144.609,272.652 144.5,268C 145.307,263.459 147.307,262.626 150.5,265.5 Z"/></g>
<g><path style="opacity:1" fill="#d8dcdc" d="M 180.5,262.5 C 182.414,265.684 183.08,269.351 182.5,273.5C 183.833,273.5 185.167,273.5 186.5,273.5C 187.011,269.97 186.344,266.804 184.5,264C 185.737,263.768 186.737,263.268 187.5,262.5C 188.5,263.833 189.5,263.833 190.5,262.5C 192.722,262.178 194.556,262.845 196,264.5C 196.181,267.695 196.681,270.695 197.5,273.5C 197.833,273.5 198.167,273.5 198.5,273.5C 198.158,274.338 197.492,274.672 196.5,274.5C 194.763,271.992 193.93,268.992 194,265.5C 192.708,264.209 191.542,264.209 190.5,265.5C 189.167,268.167 189.167,270.833 190.5,273.5C 186.366,274.485 182.032,274.818 177.5,274.5C 177.5,273.833 177.833,273.5 178.5,273.5C 179.158,272.207 179.492,270.707 179.5,269C 179.371,267.019 178.704,265.353 177.5,264C 178.737,263.768 179.737,263.268 180.5,262.5 Z"/></g>
<g><path style="opacity:1" fill="#e6e5e5" d="M 240.5,263.5 C 241.833,263.5 243.167,263.5 244.5,263.5C 244.187,267.042 244.521,270.375 245.5,273.5C 246.067,274.42 245.401,274.754 243.5,274.5C 241.599,274.754 240.933,274.42 241.5,273.5C 242.99,270.021 242.657,266.688 240.5,263.5 Z"/></g>
<g><path style="opacity:1" fill="#295f5f" d="M 287.5,265.5 C 288.117,265.611 288.617,265.944 289,266.5C 289.824,269.882 289.657,273.216 288.5,276.5C 287.478,276.145 286.811,275.478 286.5,274.5C 287.239,274.631 287.906,274.464 288.5,274C 287.556,271.281 287.223,268.448 287.5,265.5 Z"/></g>
<g><path style="opacity:1" fill="#366f6f" d="M 323.5,265.5 C 324.967,268.654 324.634,271.654 322.5,274.5C 322.38,275.586 321.713,276.253 320.5,276.5C 319.287,276.253 318.62,275.586 318.5,274.5C 319.552,274.649 320.552,274.483 321.5,274C 319.656,271.196 318.989,268.03 319.5,264.5C 320.15,264.196 320.817,263.863 321.5,263.5C 322.321,266.447 322.821,269.447 323,272.5C 323.497,270.19 323.663,267.857 323.5,265.5 Z"/></g>
<g><path style="opacity:1" fill="#244342" d="M 337.5,266.5 C 336.532,268.607 336.198,270.941 336.5,273.5C 336.167,273.5 335.833,273.5 335.5,273.5C 335.187,270.753 335.52,268.086 336.5,265.5C 337.107,265.624 337.44,265.957 337.5,266.5 Z"/></g>
<g><path style="opacity:1" fill="#e7eaea" d="M 374.5,262.5 C 377.007,262.805 379.674,262.971 382.5,263C 383.044,263.717 383.711,264.217 384.5,264.5C 383.989,268.03 384.656,271.196 386.5,274C 385.906,274.464 385.239,274.631 384.5,274.5C 384.167,274.5 383.833,274.5 383.5,274.5C 382.833,271.5 382.167,268.5 381.5,265.5C 377.682,263.628 376.015,264.961 376.5,269.5C 376.649,271.32 377.316,272.82 378.5,274C 377.552,274.483 376.552,274.649 375.5,274.5C 374.5,274.5 373.5,274.5 372.5,274.5C 375.094,270.996 375.094,267.496 372.5,264C 373.416,263.722 374.082,263.222 374.5,262.5 Z"/></g>
<g><path style="opacity:1" fill="#dee3e3" d="M 107.5,258.5 C 102.715,260.781 101.382,264.448 103.5,269.5C 106.002,273.424 109.336,274.424 113.5,272.5C 113.773,270.549 113.107,269.049 111.5,268C 113.473,267.505 115.473,267.338 117.5,267.5C 116.815,269.414 116.315,271.414 116,273.5C 114.989,274.337 113.822,274.67 112.5,274.5C 106.511,275.935 102.345,273.935 100,268.5C 99.3444,258.176 104.178,254.343 114.5,257C 116.497,258.153 116.83,259.653 115.5,261.5C 113.693,257.755 111.027,256.755 107.5,258.5 Z"/></g>
<g><path style="opacity:1" fill="#3b8180" d="M 136.5,272.5 C 134.006,274.077 132.173,273.41 131,270.5C 130.104,267.975 130.604,265.808 132.5,264C 134.367,263.289 135.867,263.789 137,265.5C 137.796,268.039 137.629,270.372 136.5,272.5 Z"/></g>
<g><path style="opacity:1" fill="#0da0a1" d="M 136.5,272.5 C 135.5,272.5 134.5,272.5 133.5,272.5C 133.5,270.5 133.5,268.5 133.5,266.5C 134.5,266.5 135.5,266.5 136.5,266.5C 136.5,268.5 136.5,270.5 136.5,272.5 Z"/></g>
<g><path style="opacity:1" fill="#466262" d="M 140.5,265.5 C 141.167,265.5 141.833,265.5 142.5,265.5C 142.5,267.833 142.5,270.167 142.5,272.5C 141.833,273.167 141.167,273.833 140.5,274.5C 139.662,274.158 139.328,273.492 139.5,272.5C 140.369,270.283 140.702,267.95 140.5,265.5 Z"/></g>
<g><path style="opacity:1" fill="#2c7e7e" d="M 160.5,265.5 C 161.542,264.209 162.708,264.209 164,265.5C 164.906,268.844 164.406,271.844 162.5,274.5C 162.38,275.586 161.713,276.253 160.5,276.5C 159.287,276.253 158.62,275.586 158.5,274.5C 159.791,274.737 160.791,274.404 161.5,273.5C 161.806,270.615 161.473,267.948 160.5,265.5 Z"/></g>
<g><path style="opacity:1" fill="#2c6565" d="M 171.5,265.5 C 169.302,268.572 168.968,271.905 170.5,275.5C 169.667,275.833 168.833,276.167 168,276.5C 166.624,276.316 165.791,275.649 165.5,274.5C 166.552,274.649 167.552,274.483 168.5,274C 167.39,271.263 167.223,268.429 168,265.5C 169.292,264.209 170.458,264.209 171.5,265.5 Z"/></g>
<g><path style="opacity:1" fill="#397070" d="M 174.5,264.5 C 175.15,264.804 175.817,265.137 176.5,265.5C 177.26,268.187 177.927,270.853 178.5,273.5C 177.833,273.5 177.5,273.833 177.5,274.5C 176.5,277.167 175.5,277.167 174.5,274.5C 175.239,274.631 175.906,274.464 176.5,274C 174.656,271.196 173.989,268.03 174.5,264.5 Z"/></g>
<g><path style="opacity:1" fill="#264949" d="M 190.5,265.5 C 190.805,267.919 190.805,270.586 190.5,273.5C 189.167,270.833 189.167,268.167 190.5,265.5 Z"/></g>
<g><path style="opacity:1" fill="#406464" d="M 231.5,264.5 C 232.9,265.1 233.9,266.1 234.5,267.5C 234.737,268.791 234.404,269.791 233.5,270.5C 232.637,268.579 231.971,266.579 231.5,264.5 Z"/></g>
<g><path style="opacity:1" fill="#214b4b" d="M 254.5,265.5 C 254.5,267.833 254.5,270.167 254.5,272.5C 253.833,272.5 253.167,272.5 252.5,272.5C 251.99,269.612 252.656,267.279 254.5,265.5 Z"/></g>
<g><path style="opacity:1" fill="#2a6363" d="M 381.5,265.5 C 379.702,268.831 379.036,272.498 379.5,276.5C 377.517,276.843 376.183,276.176 375.5,274.5C 376.552,274.649 377.552,274.483 378.5,274C 377.316,272.82 376.649,271.32 376.5,269.5C 376.015,264.961 377.682,263.628 381.5,265.5 Z"/></g>
<g><path style="opacity:1" fill="#e4e9e9" d="M 391.5,262.5 C 393.167,262.5 394.833,262.5 396.5,262.5C 396.768,264.099 396.434,265.432 395.5,266.5C 394.172,264.255 392.339,263.922 390,265.5C 388.913,268.614 389.746,270.947 392.5,272.5C 393.88,273.19 395.214,273.524 396.5,273.5C 393.232,274.936 390.232,274.603 387.5,272.5C 387.5,270.167 387.5,267.833 387.5,265.5C 388.833,264.5 390.167,263.5 391.5,262.5 Z"/></g>
<g><path style="opacity:1" fill="#326363" d="M 395.5,266.5 C 394.5,266.5 393.5,266.5 392.5,266.5C 392.5,268.5 392.5,270.5 392.5,272.5C 389.746,270.947 388.913,268.614 390,265.5C 392.339,263.922 394.172,264.255 395.5,266.5 Z"/></g>
<g><path style="opacity:1" fill="#377373" d="M 83.5,264.5 C 84.391,265.11 85.391,265.443 86.5,265.5C 86.5,267.167 86.5,268.833 86.5,270.5C 83.7531,270.187 81.0865,270.52 78.5,271.5C 79.325,272.386 80.325,272.719 81.5,272.5C 77.7932,274.163 75.7932,272.829 75.5,268.5C 78.1667,268.5 80.8333,268.5 83.5,268.5C 83.5,267.167 83.5,265.833 83.5,264.5 Z"/></g>
<g><path style="opacity:1" fill="#385d5d" d="M 127.5,263.5 C 128.5,263.5 129.5,263.5 130.5,263.5C 128.832,265.479 128.166,267.812 128.5,270.5C 127.842,269.602 127.176,268.602 126.5,267.5C 125.534,269.396 125.201,271.396 125.5,273.5C 123.631,271.365 122.964,268.698 123.5,265.5C 125.483,265.843 126.817,265.176 127.5,263.5 Z"/></g>
<g><path style="opacity:1" fill="#279a9a" d="M 150.5,265.5 C 151.833,267.833 151.833,270.167 150.5,272.5C 149.5,272.5 148.5,272.5 147.5,272.5C 147.338,270.473 147.505,268.473 148,266.5C 148.671,265.748 149.504,265.414 150.5,265.5 Z"/></g>
<g><path style="opacity:1" fill="#315555" d="M 160.5,265.5 C 161.473,267.948 161.806,270.615 161.5,273.5C 160.252,272.666 159.585,271.333 159.5,269.5C 159.511,267.955 159.844,266.622 160.5,265.5 Z"/></g>
<g><path style="opacity:1" fill="#4d8d8d" d="M 190.5,262.5 C 191.097,261.861 191.93,261.528 193,261.5C 195.589,262.986 198.423,263.653 201.5,263.5C 199.952,266.258 200.285,268.758 202.5,271C 202.011,273.209 201.011,275.042 199.5,276.5C 197.821,276.715 196.821,276.048 196.5,274.5C 197.492,274.672 198.158,274.338 198.5,273.5C 199.8,270.976 199.8,268.309 198.5,265.5C 197.52,268.086 197.187,270.753 197.5,273.5C 196.681,270.695 196.181,267.695 196,264.5C 194.556,262.845 192.722,262.178 190.5,262.5 Z"/></g>
<g><path style="opacity:1" fill="#236263" d="M 198.5,273.5 C 198.167,273.5 197.833,273.5 197.5,273.5C 197.187,270.753 197.52,268.086 198.5,265.5C 199.8,268.309 199.8,270.976 198.5,273.5 Z"/></g>
<g><path style="opacity:1" fill="#e0e5e5" d="M 229.5,262.5 C 230.167,263.167 230.833,263.833 231.5,264.5C 231.971,266.579 232.637,268.579 233.5,270.5C 233.833,271.167 234.167,271.833 234.5,272.5C 234.672,273.492 234.338,274.158 233.5,274.5C 232.5,273.167 231.5,271.833 230.5,270.5C 230.539,269.244 230.039,268.244 229,267.5C 227.82,269.86 226.653,272.193 225.5,274.5C 223.666,271.036 221.999,267.369 220.5,263.5C 221.5,263.5 222.5,263.5 223.5,263.5C 223.263,264.791 223.596,265.791 224.5,266.5C 224.709,267.922 225.209,269.255 226,270.5C 227.083,267.733 228.25,265.067 229.5,262.5 Z"/></g>
<g><path style="opacity:1" fill="#2e7273" d="M 230.5,270.5 C 230.131,272.441 229.464,274.275 228.5,276C 227.251,276.74 226.251,276.573 225.5,275.5C 225.5,275.167 225.5,274.833 225.5,274.5C 226.653,272.193 227.82,269.86 229,267.5C 230.039,268.244 230.539,269.244 230.5,270.5 Z"/></g>
<g><path style="opacity:1" fill="#2f7575" d="M 239.5,263.5 C 239.833,263.5 240.167,263.5 240.5,263.5C 242.657,266.688 242.99,270.021 241.5,273.5C 241.808,271.076 241.474,268.743 240.5,266.5C 239.085,269.411 237.918,272.411 237,275.5C 235.244,276.985 234.077,276.652 233.5,274.5C 234.338,274.158 234.672,273.492 234.5,272.5C 235.604,269.19 237.271,266.19 239.5,263.5 Z"/></g>
<g><path style="opacity:1" fill="#8d9e9e" d="M 255.5,264.5 C 255.5,265.167 255.167,265.5 254.5,265.5C 252.656,267.279 251.99,269.612 252.5,272.5C 251.527,270.052 251.194,267.385 251.5,264.5C 252.833,264.5 254.167,264.5 255.5,264.5 Z"/></g>
<g><path style="opacity:1" fill="#348889" d="M 256.5,256.5 C 257.488,261.64 257.821,266.974 257.5,272.5C 256.652,273.625 255.652,273.625 254.5,272.5C 254.5,270.167 254.5,267.833 254.5,265.5C 255.167,265.5 255.5,265.167 255.5,264.5C 254.791,263.596 253.791,263.263 252.5,263.5C 252.5,261.833 252.5,260.167 252.5,258.5C 254.38,258.771 255.713,258.104 256.5,256.5 Z"/></g>
<g><path style="opacity:1" fill="#386b6b" d="M 281.5,268.5 C 282.5,268.5 283.5,268.5 284.5,268.5C 284.833,271.5 283.5,272.833 280.5,272.5C 280.433,271.041 280.766,269.708 281.5,268.5 Z"/></g>
<g><path style="opacity:1" fill="#284948" d="M 358.5,265.5 C 357.612,268.054 357.279,270.721 357.5,273.5C 355.631,271.365 354.964,268.698 355.5,265.5C 356.5,265.5 357.5,265.5 358.5,265.5 Z"/></g>
<g><path style="opacity:1" fill="#306666" d="M 402.5,272.5 C 401.609,271.739 400.942,270.739 400.5,269.5C 403.086,268.52 405.753,268.187 408.5,268.5C 409.158,267.602 409.824,266.602 410.5,265.5C 411.747,267.006 411.747,268.506 410.5,270C 407.62,270.35 404.953,271.183 402.5,272.5 Z"/></g>
<g><path style="opacity:1" fill="#2d6565" d="M 210.5,265.5 C 211.552,265.351 212.552,265.517 213.5,266C 212.766,268.561 211.433,270.727 209.5,272.5C 202.178,272.768 201.844,271.935 208.5,270C 210.037,268.89 210.703,267.39 210.5,265.5 Z"/></g>
<g><path style="opacity:1" fill="#2c7a79" d="M 353.5,262.5 C 353.082,263.222 352.416,263.722 351.5,264C 353.101,267.596 352.768,270.929 350.5,274C 352.81,274.497 355.143,274.663 357.5,274.5C 359.048,274.821 359.715,275.821 359.5,277.5C 354.156,277.184 348.822,276.684 343.5,276C 344.737,275.768 345.737,275.268 346.5,274.5C 347.756,274.539 348.756,274.039 349.5,273C 347.557,273.305 345.557,273.305 343.5,273C 341.963,271.89 341.297,270.39 341.5,268.5C 344.167,268.5 346.833,268.5 349.5,268.5C 349.5,267.167 349.5,265.833 349.5,264.5C 350.467,263.194 351.801,262.527 353.5,262.5 Z"/></g>
<g><path style="opacity:1" fill="#3c7b7a" d="M 374.5,262.5 C 374.082,263.222 373.416,263.722 372.5,264C 375.094,267.496 375.094,270.996 372.5,274.5C 369.629,277.004 366.962,277.004 364.5,274.5C 366.75,274.819 368.75,274.319 370.5,273C 368.557,273.305 366.557,273.305 364.5,273C 363.707,271.915 363.04,270.748 362.5,269.5C 365.086,268.52 367.753,268.187 370.5,268.5C 370.634,266.708 370.301,265.042 369.5,263.5C 370.919,262.549 372.585,262.216 374.5,262.5 Z"/></g>
<g><path style="opacity:1" fill="#417e7e" d="M 105.5,263.5 C 104,270.33 106.667,273.33 113.5,272.5C 109.336,274.424 106.002,273.424 103.5,269.5C 104.167,267.5 104.833,265.5 105.5,263.5 Z"/></g>
<g><path style="opacity:1" fill="#2f5f5e" d="M 313.5,260.5 C 314.5,261.167 315.5,261.833 316.5,262.5C 317.167,262.5 317.833,262.5 318.5,262.5C 317.5,263.167 316.5,263.833 315.5,264.5C 315.579,267.271 315.079,269.937 314,272.5C 309.325,276.361 304.158,277.361 298.5,275.5C 298.5,275.167 298.5,274.833 298.5,274.5C 309.667,276.331 314.667,271.664 313.5,260.5 Z"/></g>
<g><path style="opacity:1" fill="#bcc6c6" d="M 260.5,266.5 C 260.232,269.119 260.565,271.619 261.5,274C 259.19,274.497 256.857,274.663 254.5,274.5C 253.833,273.833 253.167,273.167 252.5,272.5C 253.167,272.5 253.833,272.5 254.5,272.5C 255.652,273.625 256.652,273.625 257.5,272.5C 258.117,272.611 258.617,272.944 259,273.5C 259.186,270.964 259.686,268.631 260.5,266.5 Z"/></g>
<g><path style="opacity:1" fill="#dde1e1" d="M 313.5,260.5 C 314.667,271.664 309.667,276.331 298.5,274.5C 297.833,274.5 297.167,274.5 296.5,274.5C 297.615,269.25 297.781,263.917 297,258.5C 296.5,258 296,257.5 295.5,257C 302.155,255.54 308.155,256.707 313.5,260.5 Z"/></g>
<g><path style="opacity:1" fill="#295151" d="M 306.5,258.5 C 305.469,259.249 304.302,259.915 303,260.5C 303.102,264.956 302.268,268.956 300.5,272.5C 300.5,267.833 300.5,263.167 300.5,258.5C 302.5,258.5 304.5,258.5 306.5,258.5 Z"/></g>
<g><path style="opacity:1" fill="#239493" d="M 306.5,258.5 C 308.113,258.944 309.28,259.944 310,261.5C 310.701,264.928 310.368,268.262 309,271.5C 306.226,273.552 303.393,273.886 300.5,272.5C 302.268,268.956 303.102,264.956 303,260.5C 304.302,259.915 305.469,259.249 306.5,258.5 Z"/></g>
<g><path style="opacity:1" fill="#d4d9d9" d="M 353.5,262.5 C 355.389,263.38 357.389,263.38 359.5,262.5C 359.737,263.791 359.404,264.791 358.5,265.5C 357.5,265.5 356.5,265.5 355.5,265.5C 354.964,268.698 355.631,271.365 357.5,273.5C 357.5,273.833 357.5,274.167 357.5,274.5C 355.143,274.663 352.81,274.497 350.5,274C 352.768,270.929 353.101,267.596 351.5,264C 352.416,263.722 353.082,263.222 353.5,262.5 Z"/></g>
<g><path style="opacity:1" fill="#396767" d="M 384.5,264.5 C 385.391,265.11 386.391,265.443 387.5,265.5C 387.5,267.833 387.5,270.167 387.5,272.5C 387.5,273.833 387.5,275.167 387.5,276.5C 385.821,276.715 384.821,276.048 384.5,274.5C 385.239,274.631 385.906,274.464 386.5,274C 384.656,271.196 383.989,268.03 384.5,264.5 Z"/></g>
<g><path style="opacity:1" fill="#2f7070" d="M 119.5,264.5 C 120.99,267.979 120.657,271.312 118.5,274.5C 118.389,275.117 118.056,275.617 117.5,276C 114.167,276.667 110.833,276.667 107.5,276C 109.382,275.802 111.048,275.302 112.5,274.5C 113.822,274.67 114.989,274.337 116,273.5C 116.315,271.414 116.815,269.414 117.5,267.5C 119.048,267.179 119.715,266.179 119.5,264.5 Z"/></g>
<g><path style="opacity:1" fill="#3f8182" d="M 139.5,272.5 C 139.328,273.492 139.662,274.158 140.5,274.5C 139.223,275.898 137.557,276.564 135.5,276.5C 133.645,276.66 132.312,275.993 131.5,274.5C 134.513,274.893 137.18,274.226 139.5,272.5 Z"/></g>
<g><path style="opacity:1" fill="#3c7373" d="M 156.5,264.5 C 157.158,265.793 157.492,267.293 157.5,269C 157.431,270.986 156.765,272.486 155.5,273.5C 153.282,276.387 150.282,277.221 146.5,276C 147.737,275.768 148.737,275.268 149.5,274.5C 153.158,273.203 154.824,270.537 154.5,266.5C 155.833,266.5 156.5,265.833 156.5,264.5 Z"/></g>
<g><path style="opacity:1" fill="#2c7070" d="M 261.5,264.5 C 262.822,264.33 263.989,264.663 265,265.5C 265.498,268.482 265.665,271.482 265.5,274.5C 264.683,272.031 264.183,269.365 264,266.5C 262.977,267.6 262.477,268.933 262.5,270.5C 262.84,272.512 263.173,274.512 263.5,276.5C 259.818,276.665 256.152,276.499 252.5,276C 253.056,275.617 253.389,275.117 253.5,274.5C 253.833,274.5 254.167,274.5 254.5,274.5C 256.857,274.663 259.19,274.497 261.5,274C 260.565,271.619 260.232,269.119 260.5,266.5C 260.5,266.167 260.5,265.833 260.5,265.5C 261.167,265.5 261.5,265.167 261.5,264.5 Z"/></g>
<g><path style="opacity:1" fill="#296868" d="M 268.5,265.5 C 269.117,265.611 269.617,265.944 270,266.5C 270.455,269.854 270.955,273.187 271.5,276.5C 269.517,276.843 268.183,276.176 267.5,274.5C 268.239,274.631 268.906,274.464 269.5,274C 268.556,271.281 268.223,268.448 268.5,265.5 Z"/></g>
<g><path style="opacity:1" fill="#3a7a7a" d="M 327.5,265.5 C 328.833,265.5 330.167,265.5 331.5,265.5C 332.156,266.622 332.489,267.955 332.5,269.5C 332.351,271.32 331.684,272.82 330.5,274C 332.81,274.497 335.143,274.663 337.5,274.5C 338.043,274.56 338.376,274.893 338.5,275.5C 336.333,275.833 334.167,276.167 332,276.5C 329.39,276.467 327.223,275.8 325.5,274.5C 329.838,274.378 330.172,274.045 326.5,273.5C 326.194,270.615 326.527,267.948 327.5,265.5 Z"/></g>
<g><path style="opacity:1" fill="#336666" d="M 209.5,276.5 C 206.642,276.028 204.642,277.028 203.5,279.5C 201.725,276.343 202.725,274.676 206.5,274.5C 208.03,274.64 209.03,275.307 209.5,276.5 Z"/></g>
<g><path style="opacity:1" fill="#399192" d="M 209.5,276.5 C 208.744,280.179 206.744,281.179 203.5,279.5C 204.642,277.028 206.642,276.028 209.5,276.5 Z"/></g>
<g><path style="opacity:1" fill="#2b7373" d="M 212.5,274.5 C 214.793,279.904 212.96,282.904 207,283.5C 204.992,283.693 203.492,283.026 202.5,281.5C 208.406,282.565 211.739,280.231 212.5,274.5 Z"/></g>
</svg>
