<?xml version="1.0" encoding="UTF-8"?>
<!DOCTYPE svg PUBLIC "-//W3C//DTD SVG 1.1//EN" "http://www.w3.org/Graphics/SVG/1.1/DTD/svg11.dtd">
<svg xmlns="http://www.w3.org/2000/svg" version="1.1" width="438px" height="438px" style="shape-rendering:geometricPrecision; text-rendering:geometricPrecision; image-rendering:optimizeQuality; fill-rule:evenodd; clip-rule:evenodd" xmlns:xlink="http://www.w3.org/1999/xlink">
<g><path style="opacity:1" fill="#fefefe" d="M -0.5,-0.5 C 145.5,-0.5 291.5,-0.5 437.5,-0.5C 437.5,145.5 437.5,291.5 437.5,437.5C 291.5,437.5 145.5,437.5 -0.5,437.5C -0.5,291.5 -0.5,145.5 -0.5,-0.5 Z"/></g>
<g><path style="opacity:1" fill="#2c2829" d="M 188.5,152.5 C 187.432,151.566 186.099,151.232 184.5,151.5C 184.5,155.5 184.5,159.5 184.5,163.5C 182.5,163.5 180.5,163.5 178.5,163.5C 178.5,153.167 178.5,142.833 178.5,132.5C 183.511,132.334 188.511,132.501 193.5,133C 201.17,138.073 201.503,143.74 194.5,150C 197.036,154.235 199.702,158.402 202.5,162.5C 200.235,163.647 197.902,163.814 195.5,163C 193.304,159.323 190.97,155.823 188.5,152.5 Z"/></g>
<g><path style="opacity:1" fill="#efefef" d="M 184.5,137.5 C 190.917,136.163 193.25,138.496 191.5,144.5C 189.253,145.374 186.92,145.708 184.5,145.5C 184.5,142.833 184.5,140.167 184.5,137.5 Z"/></g>
<g><path style="opacity:1" fill="#2d2a2b" d="M 205.5,154.5 C 205.342,151.098 205.676,147.764 206.5,144.5C 207.625,142.871 208.959,141.371 210.5,140C 224.697,137.86 230.197,143.693 227,157.5C 222.451,163.537 216.618,165.037 209.5,162C 207.506,159.842 206.172,157.342 205.5,154.5 Z"/></g>
<g><path style="opacity:1" fill="#2b2728" d="M 232.5,139.5 C 238.167,139.5 243.833,139.5 249.5,139.5C 249.66,141.199 249.494,142.866 249,144.5C 245.911,148.354 243.078,152.354 240.5,156.5C 239.957,156.56 239.624,156.893 239.5,157.5C 242.768,158.487 246.102,158.82 249.5,158.5C 249.5,159.833 249.5,161.167 249.5,162.5C 243.5,162.5 237.5,162.5 231.5,162.5C 233.522,156.132 236.855,150.465 241.5,145.5C 242.043,145.44 242.376,145.107 242.5,144.5C 239.232,143.513 235.898,143.18 232.5,143.5C 232.5,142.167 232.5,140.833 232.5,139.5 Z"/></g>
<g><path style="opacity:1" fill="#6a6768" d="M 232.5,139.5 C 232.5,140.833 232.5,142.167 232.5,143.5C 235.898,143.18 239.232,143.513 242.5,144.5C 242.376,145.107 242.043,145.44 241.5,145.5C 238.375,144.521 235.042,144.187 231.5,144.5C 231.216,142.585 231.549,140.919 232.5,139.5 Z"/></g>
<g><path style="opacity:1" fill="#ececec" d="M 213.5,144.5 C 216.365,144.055 218.865,144.722 221,146.5C 221.956,150.572 221.456,154.405 219.5,158C 213.344,159.513 210.677,157.013 211.5,150.5C 211.363,148.159 212.03,146.159 213.5,144.5 Z"/></g>
<g><path style="opacity:1" fill="#a3a2a2" d="M 206.5,144.5 C 205.676,147.764 205.342,151.098 205.5,154.5C 204.362,151.696 204.195,148.696 205,145.5C 205.383,144.944 205.883,144.611 206.5,144.5 Z"/></g>
<g><path style="opacity:1" fill="#cdcccc" d="M 188.5,152.5 C 187.5,152.5 186.5,152.5 185.5,152.5C 185.815,156.371 185.482,160.038 184.5,163.5C 184.5,159.5 184.5,155.5 184.5,151.5C 186.099,151.232 187.432,151.566 188.5,152.5 Z"/></g>
<g><path style="opacity:1" fill="#b8cc95" d="M 31.5,151.5 C 33.4525,152.626 34.9525,154.292 36,156.5C 36.9722,160.143 37.8055,163.81 38.5,167.5C 40.1311,169.297 42.1311,170.464 44.5,171C 42.5861,172.827 40.5861,172.827 38.5,171C 37.0422,168.54 35.2089,166.373 33,164.5C 31.6326,160.3 31.1326,155.967 31.5,151.5 Z"/></g>
<g><path style="opacity:1" fill="#afc686" d="M 130.5,241.5 C 130.833,242.167 131.167,242.833 131.5,243.5C 133.108,246.382 134.441,249.382 135.5,252.5C 135.5,253.167 135.5,253.833 135.5,254.5C 134.272,253.694 133.272,252.694 132.5,251.5C 128.762,247.298 123.928,245.298 118,245.5C 113.35,245.588 109.183,246.922 105.5,249.5C 100.832,250.889 96.1652,252.389 91.5,254C 79.8807,256.107 72.0474,251.607 68,240.5C 66.9702,235.72 67.9702,231.387 71,227.5C 75.3333,223.833 79.6667,220.167 84,216.5C 87.1343,212.945 88.301,208.945 87.5,204.5C 77.9527,212.626 66.9527,216.46 54.5,216C 47.6417,213.451 45.1417,208.617 47,201.5C 48.1667,200.333 49.3333,199.167 50.5,198C 57.5079,197.5 64.5079,197.667 71.5,198.5C 76.8503,198.183 82.1836,197.683 87.5,197C 92.3473,187.997 90.0139,181.33 80.5,177C 74.9198,175.483 69.2531,175.149 63.5,176C 55.8231,179.678 47.8231,181.678 39.5,182C 30.6025,180.448 26.1025,175.282 26,166.5C 32.3316,179.89 41.4983,182.057 53.5,173C 60.1263,168.043 66.4596,162.709 72.5,157C 92.8167,156.323 101.65,166.156 99,186.5C 97.5596,190.547 95.7263,194.38 93.5,198C 96.2636,200.976 97.097,204.476 96,208.5C 93.0347,212.766 90.868,217.432 89.5,222.5C 90.0877,226.846 92.0877,230.346 95.5,233C 104.227,233.123 112.894,233.79 121.5,235C 125.279,236.211 128.279,238.377 130.5,241.5 Z"/></g>
<g><path style="opacity:1" fill="#bbbaba" d="M 240.5,156.5 C 243.833,157.167 247.167,157.833 250.5,158.5C 250.167,158.5 249.833,158.5 249.5,158.5C 246.102,158.82 242.768,158.487 239.5,157.5C 239.624,156.893 239.957,156.56 240.5,156.5 Z"/></g>
<g><path style="opacity:1" fill="#5a5758" d="M 249.5,158.5 C 249.833,158.5 250.167,158.5 250.5,158.5C 250.5,160.167 250.5,161.833 250.5,163.5C 243.978,163.823 237.645,163.49 231.5,162.5C 237.5,162.5 243.5,162.5 249.5,162.5C 249.5,161.167 249.5,159.833 249.5,158.5 Z"/></g>
<g><path style="opacity:1" fill="#bfbebe" d="M 167.5,177.5 C 164.098,177.342 160.764,177.676 157.5,178.5C 157.611,177.883 157.944,177.383 158.5,177C 161.696,176.195 164.696,176.362 167.5,177.5 Z"/></g>
<g><path style="opacity:1" fill="#2c2829" d="M 167.5,177.5 C 168.391,178.11 169.391,178.443 170.5,178.5C 171.11,179.391 171.443,180.391 171.5,181.5C 171.5,181.833 171.5,182.167 171.5,182.5C 170.609,183.11 169.609,183.443 168.5,183.5C 165.927,182.445 163.261,182.278 160.5,183C 159.065,185.267 159.398,187.267 161.5,189C 165.084,191.041 168.584,193.208 172,195.5C 174.085,202.678 171.585,207.012 164.5,208.5C 160.785,208.577 157.119,208.244 153.5,207.5C 153.216,205.585 153.549,203.919 154.5,202.5C 157.779,203.492 161.112,203.659 164.5,203C 167.064,200.724 166.73,198.724 163.5,197C 155.986,194.851 152.486,190.018 153,182.5C 154.371,180.959 155.871,179.625 157.5,178.5C 160.764,177.676 164.098,177.342 167.5,177.5 Z"/></g>
<g><path style="opacity:1" fill="#898788" d="M 170.5,178.5 C 172.552,179.053 172.885,180.053 171.5,181.5C 171.443,180.391 171.11,179.391 170.5,178.5 Z"/></g>
<g><path style="opacity:1" fill="#2c2829" d="M 180.5,180.5 C 181.833,180.5 183.167,180.5 184.5,180.5C 184.5,182.167 184.5,183.833 184.5,185.5C 186.833,185.5 189.167,185.5 191.5,185.5C 191.5,186.833 191.5,188.167 191.5,189.5C 189.167,189.5 186.833,189.5 184.5,189.5C 184.182,194.032 184.515,198.366 185.5,202.5C 185.5,203.167 185.833,203.5 186.5,203.5C 187.919,204.451 189.585,204.784 191.5,204.5C 191.5,205.833 191.5,207.167 191.5,208.5C 187.135,210.379 183.302,209.712 180,206.5C 178.649,200.928 178.149,195.262 178.5,189.5C 177.5,189.5 176.5,189.5 175.5,189.5C 177.515,186.787 179.182,183.787 180.5,180.5 Z"/></g>
<g><path style="opacity:1" fill="#7c7a7a" d="M 180.5,180.5 C 181.919,179.549 183.585,179.216 185.5,179.5C 185.5,181.167 185.5,182.833 185.5,184.5C 187.735,184.205 189.735,184.539 191.5,185.5C 189.167,185.5 186.833,185.5 184.5,185.5C 184.5,183.833 184.5,182.167 184.5,180.5C 183.167,180.5 181.833,180.5 180.5,180.5 Z"/></g>
<g><path style="opacity:1" fill="#979596" d="M 171.5,182.5 C 170.947,184.552 169.947,184.885 168.5,183.5C 169.609,183.443 170.609,183.11 171.5,182.5 Z"/></g>
<g><path style="opacity:1" fill="#2e2a2b" d="M 213.5,207.5 C 209.901,208.344 206.234,208.677 202.5,208.5C 199.909,207.746 198.076,206.079 197,203.5C 192.945,190.23 197.779,184.063 211.5,185C 219.067,190.303 220.567,197.136 216,205.5C 215.292,206.381 214.458,207.047 213.5,207.5 Z"/></g>
<g><path style="opacity:1" fill="#282425" d="M 245.5,190.5 C 245.5,196.5 245.5,202.5 245.5,208.5C 243.833,208.5 242.167,208.5 240.5,208.5C 240.821,203.305 240.487,198.305 239.5,193.5C 237.38,188.604 234.547,188.271 231,192.5C 230.501,197.823 230.334,203.156 230.5,208.5C 228.5,208.5 226.5,208.5 224.5,208.5C 224.5,200.833 224.5,193.167 224.5,185.5C 226.821,185.229 228.821,185.896 230.5,187.5C 233.278,184.693 236.611,183.86 240.5,185C 243.079,186.076 244.746,187.909 245.5,190.5 Z"/></g>
<g><path style="opacity:1" fill="#2b2728" d="M 272.5,190.5 C 272.5,192.833 272.5,195.167 272.5,197.5C 267.5,197.5 262.5,197.5 257.5,197.5C 257.232,199.099 257.566,200.432 258.5,201.5C 258.953,202.458 259.619,203.292 260.5,204C 263.888,204.659 267.221,204.492 270.5,203.5C 271.434,204.568 271.768,205.901 271.5,207.5C 267.232,208.373 262.898,208.706 258.5,208.5C 255.178,207.342 253.012,205.008 252,201.5C 249.529,192.424 252.696,186.757 261.5,184.5C 266.216,184.689 269.882,186.689 272.5,190.5 Z"/></g>
<g><path style="opacity:1" fill="#7b7979" d="M 191.5,189.5 C 189.735,190.461 187.735,190.795 185.5,190.5C 185.5,194.5 185.5,198.5 185.5,202.5C 184.515,198.366 184.182,194.032 184.5,189.5C 186.833,189.5 189.167,189.5 191.5,189.5 Z"/></g>
<g><path style="opacity:1" fill="#f3f3f3" d="M 211.5,201.5 C 209.521,203.168 207.188,203.834 204.5,203.5C 201.867,198.999 201.867,194.499 204.5,190C 207.025,189.104 209.192,189.604 211,191.5C 211.498,194.817 211.665,198.15 211.5,201.5 Z"/></g>
<g><path style="opacity:1" fill="#efefef" d="M 266.5,191.5 C 265.666,192.748 264.333,193.415 262.5,193.5C 260.955,193.489 259.622,193.156 258.5,192.5C 258.685,190.11 260.018,189.11 262.5,189.5C 264.355,189.34 265.688,190.007 266.5,191.5 Z"/></g>
<g><path style="opacity:1" fill="#797677" d="M 245.5,190.5 C 246.49,196.645 246.823,202.978 246.5,209.5C 244.167,209.5 241.833,209.5 239.5,209.5C 239.5,204.167 239.5,198.833 239.5,193.5C 240.487,198.305 240.821,203.305 240.5,208.5C 242.167,208.5 243.833,208.5 245.5,208.5C 245.5,202.5 245.5,196.5 245.5,190.5 Z"/></g>
<g><path style="opacity:1" fill="#999797" d="M 266.5,191.5 C 267.404,192.209 267.737,193.209 267.5,194.5C 264.102,194.82 260.768,194.487 257.5,193.5C 257.624,192.893 257.957,192.56 258.5,192.5C 259.622,193.156 260.955,193.489 262.5,193.5C 264.333,193.415 265.666,192.748 266.5,191.5 Z"/></g>
<g><path style="opacity:1" fill="#524f50" d="M 272.5,190.5 C 273.473,192.948 273.806,195.615 273.5,198.5C 268.5,198.5 263.5,198.5 258.5,198.5C 258.5,199.5 258.5,200.5 258.5,201.5C 257.566,200.432 257.232,199.099 257.5,197.5C 262.5,197.5 267.5,197.5 272.5,197.5C 272.5,195.167 272.5,192.833 272.5,190.5 Z"/></g>
<g><path style="opacity:1" fill="#b0c688" d="M 315.5,226.5 C 314.662,226.158 314.328,225.492 314.5,224.5C 317.079,214.84 322.079,206.674 329.5,200C 341.679,194.281 351.846,196.781 360,207.5C 359.94,214.862 360.106,222.195 360.5,229.5C 360.237,232.028 359.404,234.361 358,236.5C 359.93,223.183 354.764,214.016 342.5,209C 334.876,207.064 328.709,209.23 324,215.5C 321.158,219.197 318.325,222.863 315.5,226.5 Z"/></g>
<g><path style="opacity:1" fill="#f7f9f3" d="M 54.5,201.5 C 62.84,201.334 71.1733,201.5 79.5,202C 72.0508,206.195 64.0508,207.861 55.5,207C 53.3652,205.444 53.0319,203.611 54.5,201.5 Z"/></g>
<g><path style="opacity:1" fill="#5f5c5d" d="M 211.5,201.5 C 211.586,202.496 211.252,203.329 210.5,204C 208.288,204.789 206.288,204.622 204.5,203.5C 207.188,203.834 209.521,203.168 211.5,201.5 Z"/></g>
<g><path style="opacity:1" fill="#989697" d="M 270.5,203.5 C 270.56,202.957 270.893,202.624 271.5,202.5C 272.788,204.299 272.788,205.965 271.5,207.5C 271.768,205.901 271.434,204.568 270.5,203.5 Z"/></g>
<g><path style="opacity:1" fill="#817f7f" d="M 186.5,203.5 C 188.5,203.5 190.5,203.5 192.5,203.5C 192.784,205.415 192.451,207.081 191.5,208.5C 191.5,207.167 191.5,205.833 191.5,204.5C 189.585,204.784 187.919,204.451 186.5,203.5 Z"/></g>
<g><path style="opacity:1" fill="#b4ca8f" d="M 102.5,204.5 C 104.173,205.343 105.34,206.676 106,208.5C 105.927,214.162 105.927,219.829 106,225.5C 110.288,229.392 109.121,230.559 102.5,229C 101.299,228.097 100.465,226.931 100,225.5C 100.976,218.568 101.81,211.568 102.5,204.5 Z"/></g>
<g><path style="opacity:1" fill="#797677" d="M 154.5,202.5 C 153.549,203.919 153.216,205.585 153.5,207.5C 157.119,208.244 160.785,208.577 164.5,208.5C 160.966,209.793 157.299,209.793 153.5,208.5C 152.167,206.167 152.167,203.833 153.5,201.5C 154.107,201.624 154.44,201.957 154.5,202.5 Z"/></g>
<g><path style="opacity:1" fill="#b0aeaf" d="M 213.5,207.5 C 212.129,208.787 210.295,209.453 208,209.5C 205.967,209.494 204.134,209.161 202.5,208.5C 206.234,208.677 209.901,208.344 213.5,207.5 Z"/></g>
<g><path style="opacity:1" fill="#8e8c8d" d="M 271.5,207.5 C 271.389,208.117 271.056,208.617 270.5,209C 266.311,209.812 262.311,209.645 258.5,208.5C 262.898,208.706 267.232,208.373 271.5,207.5 Z"/></g>
<g><path style="opacity:1" fill="#aec586" d="M 346.5,286.5 C 347.103,281.381 346.436,276.715 344.5,272.5C 342.547,271.374 341.047,269.708 340,267.5C 339.667,262.167 339.333,256.833 339,251.5C 334.935,244.424 329.435,242.757 322.5,246.5C 316.917,248.771 311.583,251.437 306.5,254.5C 302.766,254.677 299.099,254.344 295.5,253.5C 295.158,252.662 294.492,252.328 293.5,252.5C 289.041,250.213 285.875,246.879 284,242.5C 286.219,244.995 289.052,245.995 292.5,245.5C 296.653,245.867 300.32,244.867 303.5,242.5C 304.721,241.972 305.887,241.305 307,240.5C 312.879,231.62 320.379,224.454 329.5,219C 350.926,218.694 357.093,228.194 348,247.5C 346.854,251.102 346.021,254.769 345.5,258.5C 345.295,261.229 346.128,263.562 348,265.5C 352.167,257.342 357.667,250.176 364.5,244C 371.842,238.863 378.675,239.363 385,245.5C 386.098,249.505 385.265,253.005 382.5,256C 371.928,260.41 361.761,265.577 352,271.5C 350.231,278.126 352.397,282.96 358.5,286C 365.024,287.011 371.357,286.345 377.5,284C 383.044,278.946 388.377,273.613 393.5,268C 401.97,262.304 410.47,262.137 419,267.5C 419.982,268.759 420.315,270.092 420,271.5C 414.704,266.283 408.537,265.116 401.5,268C 397.578,271.251 394.412,275.084 392,279.5C 389,286.833 386,294.167 383,301.5C 371.23,309.157 360.563,307.823 351,297.5C 348.934,294.039 347.434,290.373 346.5,286.5 Z"/></g>
<g><path style="opacity:1" fill="#b0c789" d="M 105.5,251.5 C 109.821,248.875 114.487,248.042 119.5,249C 116.793,249.395 114.127,249.895 111.5,250.5C 109.716,250.893 108.05,251.559 106.5,252.5C 99.2123,255.616 92.8789,260.116 87.5,266C 74.3196,274.801 62.8196,272.968 53,260.5C 49.9853,252.566 51.3187,245.566 57,239.5C 58.1965,236.911 59.1965,234.244 60,231.5C 62.016,228.898 64.1827,227.231 66.5,226.5C 57.7312,238.543 58.7312,249.71 69.5,260C 73.2176,262.298 77.2176,262.965 81.5,262C 89.4044,258.213 97.4044,254.713 105.5,251.5 Z"/></g>
<g><path style="opacity:1" fill="#e6e6e6" d="M 281.5,241.5 C 280.833,241.5 280.167,241.5 279.5,241.5C 266.839,240.722 254.173,240.556 241.5,241C 243.428,246.052 242.095,249.886 237.5,252.5C 233.769,251.91 230.102,251.076 226.5,250C 224.691,247.151 223.691,243.985 223.5,240.5C 197.491,240.339 171.491,240.672 145.5,241.5C 147.969,240.683 150.635,240.183 153.5,240C 191.5,239.333 229.5,239.333 267.5,240C 272.351,240.174 277.018,240.674 281.5,241.5 Z"/></g>
<g><path style="opacity:1" fill="#d3debd" d="M 314.5,224.5 C 314.328,225.492 314.662,226.158 315.5,226.5C 311.121,233.319 305.454,238.652 298.5,242.5C 297.209,242.737 296.209,242.404 295.5,241.5C 304.054,238.278 310.387,232.611 314.5,224.5 Z"/></g>
<g><path style="opacity:1" fill="#c5c5c4" d="M 279.5,241.5 C 280.167,241.5 280.833,241.5 281.5,241.5C 286.167,241.5 290.833,241.5 295.5,241.5C 296.209,242.404 297.209,242.737 298.5,242.5C 300.167,242.5 301.833,242.5 303.5,242.5C 300.32,244.867 296.653,245.867 292.5,245.5C 289.052,245.995 286.219,244.995 284,242.5C 285.875,246.879 289.041,250.213 293.5,252.5C 276.494,252.597 259.494,252.93 242.5,253.5C 244.002,249.658 244.668,245.658 244.5,241.5C 250.176,241.334 255.843,241.501 261.5,242C 265.355,244.522 268.522,247.689 271,251.5C 275.465,249.579 278.298,246.246 279.5,241.5 Z"/></g>
<g><path style="opacity:1" fill="#bfbfbf" d="M 131.5,243.5 C 135.514,243.334 139.514,243.501 143.5,244C 145.86,246.36 148.194,248.694 150.5,251C 145.599,252.325 140.599,252.825 135.5,252.5C 134.441,249.382 133.108,246.382 131.5,243.5 Z"/></g>
<g><path style="opacity:1" fill="#f6f8f1" d="M 373.5,249.5 C 379.798,248.931 380.798,250.764 376.5,255C 370.136,258.182 363.802,261.349 357.5,264.5C 357.167,264.167 356.833,263.833 356.5,263.5C 361.045,257.271 366.712,252.604 373.5,249.5 Z"/></g>
<g><path style="opacity:1" fill="#b0b0b0" d="M 111.5,250.5 C 111.5,251.167 111.833,251.5 112.5,251.5C 113.935,258.754 115.435,266.087 117,273.5C 123.262,287.765 133.095,298.931 146.5,307C 183.782,328.265 222.782,332.598 263.5,320C 276.527,315.075 288.361,308.242 299,299.5C 299.464,300.094 299.631,300.761 299.5,301.5C 298.136,303.191 296.803,304.858 295.5,306.5C 295.631,305.761 295.464,305.094 295,304.5C 259.301,330.461 220.135,337.294 177.5,325C 162.017,320.174 147.517,313.341 134,304.5C 133.536,305.094 133.369,305.761 133.5,306.5C 126.115,298.09 119.948,288.756 115,278.5C 111.657,269.972 108.824,261.306 106.5,252.5C 108.05,251.559 109.716,250.893 111.5,250.5 Z"/></g>
<g><path style="opacity:1" fill="#d2d2d2" d="M 279.5,241.5 C 278.298,246.246 275.465,249.579 271,251.5C 268.522,247.689 265.355,244.522 261.5,242C 255.843,241.501 250.176,241.334 244.5,241.5C 244.668,245.658 244.002,249.658 242.5,253.5C 216.839,254.158 191.173,254.658 165.5,255C 170.066,256.309 174.733,256.809 179.5,256.5C 178.781,258.764 178.448,261.097 178.5,263.5C 170.904,262.435 163.571,260.435 156.5,257.5C 153.823,258.074 151.157,258.741 148.5,259.5C 149.421,261.756 151.088,262.756 153.5,262.5C 153.547,265.928 154.713,268.928 157,271.5C 158.085,269.343 159.251,269.176 160.5,271C 156.105,274.276 156.605,276.442 162,277.5C 162.595,278.899 162.428,280.232 161.5,281.5C 164.684,282.596 167.684,283.929 170.5,285.5C 170.393,287.903 171.393,289.736 173.5,291C 172.044,291.423 171.544,292.256 172,293.5C 172.741,292.359 173.575,292.359 174.5,293.5C 175.479,290.223 176.813,289.89 178.5,292.5C 178.023,293.478 177.357,294.311 176.5,295C 179.36,297.554 182.693,299.221 186.5,300C 188.439,300.908 189.439,302.408 189.5,304.5C 194.434,304.991 199.268,305.991 204,307.5C 204.945,307.095 205.612,306.428 206,305.5C 207.309,307.891 208.309,307.891 209,305.5C 209.483,306.448 209.649,307.448 209.5,308.5C 216.21,308.913 222.876,309.58 229.5,310.5C 232.678,308.414 236.012,308.08 239.5,309.5C 242.056,308.949 244.389,307.949 246.5,306.5C 247.293,306.931 248.127,307.265 249,307.5C 252.164,306.829 254.997,305.495 257.5,303.5C 258.167,303.833 258.833,304.167 259.5,304.5C 267.33,300.039 275.33,295.872 283.5,292C 287.161,289.337 289.661,285.837 291,281.5C 292.718,280.15 294.552,278.983 296.5,278C 296.167,277.667 295.833,277.333 295.5,277C 297.516,272.78 300.349,269.28 304,266.5C 304.617,263.965 304.117,261.632 302.5,259.5C 305.016,258.274 307.349,256.774 309.5,255C 308.552,254.517 307.552,254.351 306.5,254.5C 311.583,251.437 316.917,248.771 322.5,246.5C 322.5,248.167 322.5,249.833 322.5,251.5C 320.5,252.167 318.5,252.833 316.5,253.5C 316.167,253.5 315.833,253.5 315.5,253.5C 313.857,255.973 311.69,257.973 309,259.5C 307.822,264.543 306.489,269.543 305,274.5C 302.244,277.018 300.244,280.018 299,283.5C 293.912,290.257 287.412,295.091 279.5,298C 277.5,299.667 275.5,301.333 273.5,303C 267.031,305.403 260.698,308.069 254.5,311C 246.985,312.803 239.152,314.303 231,315.5C 228.157,314.246 225.324,314.246 222.5,315.5C 218.86,313.303 215.36,313.303 212,315.5C 198.745,311.456 185.911,307.122 173.5,302.5C 172.571,301.311 172.238,299.978 172.5,298.5C 170.738,298.643 169.071,298.309 167.5,297.5C 164.425,293.988 161.425,290.488 158.5,287C 153.202,285.372 150.036,281.872 149,276.5C 142.622,270.752 139.289,263.752 139,255.5C 137.989,254.663 136.822,254.33 135.5,254.5C 135.5,253.833 135.5,253.167 135.5,252.5C 140.599,252.825 145.599,252.325 150.5,251C 148.194,248.694 145.86,246.36 143.5,244C 139.514,243.501 135.514,243.334 131.5,243.5C 131.167,242.833 130.833,242.167 130.5,241.5C 135.5,241.5 140.5,241.5 145.5,241.5C 171.491,240.672 197.491,240.339 223.5,240.5C 223.691,243.985 224.691,247.151 226.5,250C 230.102,251.076 233.769,251.91 237.5,252.5C 242.095,249.886 243.428,246.052 241.5,241C 254.173,240.556 266.839,240.722 279.5,241.5 Z"/></g>
<g><path style="opacity:1" fill="#c8c8c8" d="M 176.5,241.5 C 179.518,241.335 182.518,241.502 185.5,242C 183.347,249.02 186.014,251.854 193.5,250.5C 200.258,252.076 203.258,249.409 202.5,242.5C 204.792,242.756 206.959,242.423 209,241.5C 212.513,244.009 216.346,244.842 220.5,244C 221.833,247 223.167,250 224.5,253C 204.167,253.667 183.833,253.667 163.5,253C 162.743,250.152 163.743,247.819 166.5,246C 169.834,244.317 173.167,242.817 176.5,241.5 Z"/></g>
<g><path style="opacity:1" fill="#bcbcbc" d="M 112.5,251.5 C 114.308,251.491 115.975,251.991 117.5,253C 120.748,256.551 123.082,260.718 124.5,265.5C 123.397,265.998 122.397,266.331 121.5,266.5C 127.082,271.709 130.916,278.042 133,285.5C 178.526,327.48 229.026,334.314 284.5,306C 302.257,294.67 312.59,278.503 315.5,257.5C 315.5,256.167 315.5,254.833 315.5,253.5C 315.833,253.5 316.167,253.5 316.5,253.5C 318.167,254.167 319.833,254.833 321.5,255.5C 316.851,272.132 309.517,287.465 299.5,301.5C 299.631,300.761 299.464,300.094 299,299.5C 288.361,308.242 276.527,315.075 263.5,320C 222.782,332.598 183.782,328.265 146.5,307C 133.095,298.931 123.262,287.765 117,273.5C 115.435,266.087 113.935,258.754 112.5,251.5 Z"/></g>
<g><path style="opacity:1" fill="#c3c3c3" d="M 132.5,251.5 C 127.151,251.145 121.818,250.978 116.5,251C 120.284,252.704 124.118,254.204 128,255.5C 128.163,257.676 128.996,259.509 130.5,261C 129.692,261.308 129.025,261.808 128.5,262.5C 131.726,266.286 133.893,270.619 135,275.5C 138.992,276.865 140.992,279.532 141,283.5C 140.346,282.304 139.846,282.304 139.5,283.5C 141.539,287.703 144.872,290.203 149.5,291C 153.533,295.368 157.866,299.368 162.5,303C 172.278,307.389 181.945,312.056 191.5,317C 199.356,318.021 207.19,319.188 215,320.5C 230.869,320.277 246.702,317.777 262.5,313C 269.634,308.848 276.968,305.182 284.5,302C 295.147,295.021 303.314,285.854 309,274.5C 310.644,269.923 311.978,265.256 313,260.5C 313.377,259.058 314.21,258.058 315.5,257.5C 312.59,278.503 302.257,294.67 284.5,306C 229.026,334.314 178.526,327.48 133,285.5C 130.916,278.042 127.082,271.709 121.5,266.5C 122.397,266.331 123.397,265.998 124.5,265.5C 123.082,260.718 120.748,256.551 117.5,253C 115.975,251.991 114.308,251.491 112.5,251.5C 111.833,251.5 111.5,251.167 111.5,250.5C 114.127,249.895 116.793,249.395 119.5,249C 114.487,248.042 109.821,248.875 105.5,251.5C 105.5,250.833 105.5,250.167 105.5,249.5C 109.183,246.922 113.35,245.588 118,245.5C 123.928,245.298 128.762,247.298 132.5,251.5 Z"/></g>
<g><path style="opacity:1" fill="#b2c88c" d="M 322.5,251.5 C 325.044,251.104 327.211,251.771 329,253.5C 330.46,258.469 331.794,263.469 333,268.5C 333.833,270.667 335.333,272.167 337.5,273C 334.525,273.713 332.025,272.879 330,270.5C 327.909,267.155 326.576,263.488 326,259.5C 324.951,257.616 323.451,256.282 321.5,255.5C 319.833,254.833 318.167,254.167 316.5,253.5C 318.5,252.833 320.5,252.167 322.5,251.5 Z"/></g>
<g><path style="opacity:1" fill="#cbcbcb" d="M 132.5,251.5 C 133.272,252.694 134.272,253.694 135.5,254.5C 136.822,254.33 137.989,254.663 139,255.5C 139.289,263.752 142.622,270.752 149,276.5C 150.036,281.872 153.202,285.372 158.5,287C 161.425,290.488 164.425,293.988 167.5,297.5C 169.071,298.309 170.738,298.643 172.5,298.5C 172.238,299.978 172.571,301.311 173.5,302.5C 185.911,307.122 198.745,311.456 212,315.5C 215.36,313.303 218.86,313.303 222.5,315.5C 225.324,314.246 228.157,314.246 231,315.5C 239.152,314.303 246.985,312.803 254.5,311C 260.698,308.069 267.031,305.403 273.5,303C 275.5,301.333 277.5,299.667 279.5,298C 287.412,295.091 293.912,290.257 299,283.5C 300.244,280.018 302.244,277.018 305,274.5C 306.489,269.543 307.822,264.543 309,259.5C 311.69,257.973 313.857,255.973 315.5,253.5C 315.5,254.833 315.5,256.167 315.5,257.5C 314.21,258.058 313.377,259.058 313,260.5C 311.978,265.256 310.644,269.923 309,274.5C 303.314,285.854 295.147,295.021 284.5,302C 276.968,305.182 269.634,308.848 262.5,313C 246.702,317.777 230.869,320.277 215,320.5C 207.19,319.188 199.356,318.021 191.5,317C 181.945,312.056 172.278,307.389 162.5,303C 157.866,299.368 153.533,295.368 149.5,291C 144.872,290.203 141.539,287.703 139.5,283.5C 139.846,282.304 140.346,282.304 141,283.5C 140.992,279.532 138.992,276.865 135,275.5C 133.893,270.619 131.726,266.286 128.5,262.5C 129.025,261.808 129.692,261.308 130.5,261C 128.996,259.509 128.163,257.676 128,255.5C 124.118,254.204 120.284,252.704 116.5,251C 121.818,250.978 127.151,251.145 132.5,251.5 Z"/></g>
<g><path style="opacity:1" fill="#dedede" d="M 293.5,252.5 C 294.492,252.328 295.158,252.662 295.5,253.5C 294.192,254.232 292.858,255.066 291.5,256C 293.712,263.91 291.046,269.577 283.5,273C 282.167,274 282.167,275 283.5,276C 281.43,276.948 279.93,278.448 279,280.5C 278.282,279.549 277.449,279.383 276.5,280C 275.134,281.6 274.134,283.433 273.5,285.5C 271.77,286.026 270.436,287.026 269.5,288.5C 266.628,289.783 263.795,289.783 261,288.5C 258.115,291.452 254.782,292.786 251,292.5C 247.904,296.385 243.904,298.719 239,299.5C 238.653,297.82 237.653,296.82 236,296.5C 232.484,297.244 229.151,297.244 226,296.5C 223.156,296.826 220.989,298.16 219.5,300.5C 217.164,299.406 217.164,298.073 219.5,296.5C 219.167,295.5 218.5,294.833 217.5,294.5C 215.571,295.38 213.737,296.38 212,297.5C 211.5,297.167 211,296.833 210.5,296.5C 211.246,295.264 211.579,293.93 211.5,292.5C 208.308,290.893 205.308,291.226 202.5,293.5C 202.762,291.868 201.762,290.701 199.5,290C 199.833,289.667 200.167,289.333 200.5,289C 198.925,289.379 197.425,289.212 196,288.5C 195.138,286.913 194.471,285.246 194,283.5C 190.847,282.214 188.181,280.214 186,277.5C 185.333,276.167 185.333,274.833 186,273.5C 187.385,272.449 188.385,271.116 189,269.5C 189.5,270 190,270.5 190.5,271C 193,271.167 195.5,271.333 198,271.5C 203.206,270.73 208.373,270.73 213.5,271.5C 219.076,270.684 224.576,269.684 230,268.5C 233.297,269.079 236.297,268.079 239,265.5C 239.414,265.957 239.914,266.291 240.5,266.5C 246.47,264.762 252.303,262.762 258,260.5C 258.333,260.833 258.667,261.167 259,261.5C 263.582,259.79 268.082,257.957 272.5,256C 241.509,256.317 210.509,256.484 179.5,256.5C 174.733,256.809 170.066,256.309 165.5,255C 191.173,254.658 216.839,254.158 242.5,253.5C 259.494,252.93 276.494,252.597 293.5,252.5 Z"/></g>
<g><path style="opacity:1" fill="#d7d7d7" d="M 295.5,253.5 C 299.099,254.344 302.766,254.677 306.5,254.5C 307.552,254.351 308.552,254.517 309.5,255C 307.349,256.774 305.016,258.274 302.5,259.5C 304.117,261.632 304.617,263.965 304,266.5C 300.349,269.28 297.516,272.78 295.5,277C 295.833,277.333 296.167,277.667 296.5,278C 294.552,278.983 292.718,280.15 291,281.5C 289.661,285.837 287.161,289.337 283.5,292C 275.33,295.872 267.33,300.039 259.5,304.5C 258.833,304.167 258.167,303.833 257.5,303.5C 254.997,305.495 252.164,306.829 249,307.5C 248.127,307.265 247.293,306.931 246.5,306.5C 244.389,307.949 242.056,308.949 239.5,309.5C 236.012,308.08 232.678,308.414 229.5,310.5C 222.876,309.58 216.21,308.913 209.5,308.5C 209.649,307.448 209.483,306.448 209,305.5C 208.309,307.891 207.309,307.891 206,305.5C 205.612,306.428 204.945,307.095 204,307.5C 199.268,305.991 194.434,304.991 189.5,304.5C 189.439,302.408 188.439,300.908 186.5,300C 182.693,299.221 179.36,297.554 176.5,295C 177.357,294.311 178.023,293.478 178.5,292.5C 176.813,289.89 175.479,290.223 174.5,293.5C 173.575,292.359 172.741,292.359 172,293.5C 171.544,292.256 172.044,291.423 173.5,291C 171.393,289.736 170.393,287.903 170.5,285.5C 167.684,283.929 164.684,282.596 161.5,281.5C 162.428,280.232 162.595,278.899 162,277.5C 156.605,276.442 156.105,274.276 160.5,271C 159.251,269.176 158.085,269.343 157,271.5C 154.713,268.928 153.547,265.928 153.5,262.5C 151.088,262.756 149.421,261.756 148.5,259.5C 151.157,258.741 153.823,258.074 156.5,257.5C 163.571,260.435 170.904,262.435 178.5,263.5C 178.448,261.097 178.781,258.764 179.5,256.5C 210.509,256.484 241.509,256.317 272.5,256C 268.082,257.957 263.582,259.79 259,261.5C 258.667,261.167 258.333,260.833 258,260.5C 252.303,262.762 246.47,264.762 240.5,266.5C 239.914,266.291 239.414,265.957 239,265.5C 236.297,268.079 233.297,269.079 230,268.5C 224.576,269.684 219.076,270.684 213.5,271.5C 208.373,270.73 203.206,270.73 198,271.5C 195.5,271.333 193,271.167 190.5,271C 190,270.5 189.5,270 189,269.5C 188.385,271.116 187.385,272.449 186,273.5C 185.333,274.833 185.333,276.167 186,277.5C 188.181,280.214 190.847,282.214 194,283.5C 194.471,285.246 195.138,286.913 196,288.5C 197.425,289.212 198.925,289.379 200.5,289C 200.167,289.333 199.833,289.667 199.5,290C 201.762,290.701 202.762,291.868 202.5,293.5C 205.308,291.226 208.308,290.893 211.5,292.5C 211.579,293.93 211.246,295.264 210.5,296.5C 211,296.833 211.5,297.167 212,297.5C 213.737,296.38 215.571,295.38 217.5,294.5C 218.5,294.833 219.167,295.5 219.5,296.5C 217.164,298.073 217.164,299.406 219.5,300.5C 220.989,298.16 223.156,296.826 226,296.5C 229.151,297.244 232.484,297.244 236,296.5C 237.653,296.82 238.653,297.82 239,299.5C 243.904,298.719 247.904,296.385 251,292.5C 254.782,292.786 258.115,291.452 261,288.5C 263.795,289.783 266.628,289.783 269.5,288.5C 270.436,287.026 271.77,286.026 273.5,285.5C 274.134,283.433 275.134,281.6 276.5,280C 277.449,279.383 278.282,279.549 279,280.5C 279.93,278.448 281.43,276.948 283.5,276C 282.167,275 282.167,274 283.5,273C 291.046,269.577 293.712,263.91 291.5,256C 292.858,255.066 294.192,254.232 295.5,253.5 Z"/></g>
<g><path style="opacity:1" fill="#b9cd96" d="M 403.5,273.5 C 412.996,273.49 419.33,277.99 422.5,287C 420.212,287.418 418.212,286.751 416.5,285C 414.257,282.512 412.257,279.846 410.5,277C 407.007,275.996 403.841,276.496 401,278.5C 401.058,276.565 401.891,274.898 403.5,273.5 Z"/></g>
<g><path style="opacity:1" fill="#cfdcb6" d="M 344.5,272.5 C 346.436,276.715 347.103,281.381 346.5,286.5C 345.784,281.936 345.117,277.269 344.5,272.5 Z"/></g>
<g><path style="opacity:1" fill="#a4a4a4" d="M 295.5,306.5 C 290.749,312.587 285.082,317.587 278.5,321.5C 278.265,320.903 277.765,320.57 277,320.5C 268.07,323.421 259.236,326.421 250.5,329.5C 219.9,335.902 189.9,333.402 160.5,322C 155.167,319 149.833,316 144.5,313C 143.167,312.333 141.833,312.333 140.5,313C 141.056,313.383 141.389,313.883 141.5,314.5C 140.761,314.631 140.094,314.464 139.5,314C 137.666,311.337 135.666,308.837 133.5,306.5C 133.369,305.761 133.536,305.094 134,304.5C 147.517,313.341 162.017,320.174 177.5,325C 220.135,337.294 259.301,330.461 295,304.5C 295.464,305.094 295.631,305.761 295.5,306.5 Z"/></g>
<g><path style="opacity:1" fill="#969696" d="M 250.5,329.5 C 239.684,332.563 228.517,334.23 217,334.5C 209.176,333.871 201.342,333.371 193.5,333C 184.277,330.528 174.944,328.362 165.5,326.5C 163.585,326.216 161.919,326.549 160.5,327.5C 160.167,327.5 159.833,327.5 159.5,327.5C 159.167,327.5 158.833,327.5 158.5,327.5C 152.255,323.883 146.588,319.549 141.5,314.5C 141.389,313.883 141.056,313.383 140.5,313C 141.833,312.333 143.167,312.333 144.5,313C 149.833,316 155.167,319 160.5,322C 189.9,333.402 219.9,335.902 250.5,329.5 Z"/></g>
<g><path style="opacity:1" fill="#adadad" d="M 264.5,329.5 C 264.833,329.5 265.167,329.5 265.5,329.5C 266.445,336.281 263.779,340.947 257.5,343.5C 250.703,345.949 243.703,347.616 236.5,348.5C 237.5,347.833 238.5,347.167 239.5,346.5C 244.917,345.791 249.917,343.958 254.5,341C 257.065,338.705 258.731,335.872 259.5,332.5C 261.396,331.725 263.063,330.725 264.5,329.5 Z"/></g>
<g><path style="opacity:1" fill="#8c8c8c" d="M 278.5,321.5 C 275.5,323.5 272.5,325.5 269.5,327.5C 268.167,328.167 266.833,328.833 265.5,329.5C 265.167,329.5 264.833,329.5 264.5,329.5C 264.44,328.957 264.107,328.624 263.5,328.5C 248.002,333.799 232.002,336.799 215.5,337.5C 206.723,337.752 198.056,336.919 189.5,335C 183.237,331.803 176.571,329.803 169.5,329C 168.142,328.066 166.808,327.232 165.5,326.5C 174.944,328.362 184.277,330.528 193.5,333C 201.342,333.371 209.176,333.871 217,334.5C 228.517,334.23 239.684,332.563 250.5,329.5C 259.236,326.421 268.07,323.421 277,320.5C 277.765,320.57 278.265,320.903 278.5,321.5 Z"/></g>
<g><path style="opacity:1" fill="#777777" d="M 165.5,326.5 C 166.808,327.232 168.142,328.066 169.5,329C 176.571,329.803 183.237,331.803 189.5,335C 198.056,336.919 206.723,337.752 215.5,337.5C 232.002,336.799 248.002,333.799 263.5,328.5C 264.107,328.624 264.44,328.957 264.5,329.5C 263.063,330.725 261.396,331.725 259.5,332.5C 258.731,335.872 257.065,338.705 254.5,341C 249.917,343.958 244.917,345.791 239.5,346.5C 243.993,344.421 248.326,342.088 252.5,339.5C 255.476,338.321 255.809,336.987 253.5,335.5C 249.478,336.226 245.478,337.059 241.5,338C 224.142,338.968 206.809,339.802 189.5,340.5C 185.89,339.376 182.224,338.376 178.5,337.5C 177.167,338.833 177.167,340.167 178.5,341.5C 181.875,342.903 185.209,344.403 188.5,346C 178.952,346.391 172.618,342.058 169.5,333C 167.308,332.074 165.308,330.907 163.5,329.5C 162.29,329.068 161.29,328.401 160.5,327.5C 161.919,326.549 163.585,326.216 165.5,326.5 Z"/></g>
<g><path style="opacity:1" fill="#8b8b8b" d="M 252.5,339.5 C 252.209,338.351 251.376,337.684 250,337.5C 237.526,341.609 224.693,343.276 211.5,342.5C 205.5,342.333 199.5,342.167 193.5,342C 191.942,341.79 190.609,341.29 189.5,340.5C 206.809,339.802 224.142,338.968 241.5,338C 245.478,337.059 249.478,336.226 253.5,335.5C 255.809,336.987 255.476,338.321 252.5,339.5 Z"/></g>
<g><path style="opacity:1" fill="#9d9d9d" d="M 163.5,329.5 C 165.308,330.907 167.308,332.074 169.5,333C 172.618,342.058 178.952,346.391 188.5,346C 185.209,344.403 181.875,342.903 178.5,341.5C 177.167,340.167 177.167,338.833 178.5,337.5C 182.224,338.376 185.89,339.376 189.5,340.5C 190.609,341.29 191.942,341.79 193.5,342C 199.5,342.167 205.5,342.333 211.5,342.5C 224.693,343.276 237.526,341.609 250,337.5C 251.376,337.684 252.209,338.351 252.5,339.5C 248.326,342.088 243.993,344.421 239.5,346.5C 238.5,347.167 237.5,347.833 236.5,348.5C 216.379,350.349 196.379,349.516 176.5,346C 166.537,344.571 162.203,339.071 163.5,329.5 Z"/></g>
<g><path style="opacity:1" fill="#b5b5b5" d="M 230.5,342.5 C 233.898,342.18 237.232,342.513 240.5,343.5C 239.5,344.167 238.5,344.833 237.5,345.5C 223.945,348.804 210.278,349.304 196.5,347C 195.027,346.29 194.36,345.124 194.5,343.5C 206.678,343.828 218.678,343.495 230.5,342.5 Z"/></g>
<g><path style="opacity:1" fill="#cfcfcf" d="M 269.5,327.5 C 270.389,329.91 271.055,332.41 271.5,335C 271.458,336.967 270.958,338.801 270,340.5C 264.109,345.029 257.609,348.362 250.5,350.5C 241.664,352.87 232.664,353.87 223.5,353.5C 233.723,351.216 244.057,348.716 254.5,346C 255.571,345.148 256.571,344.315 257.5,343.5C 263.779,340.947 266.445,336.281 265.5,329.5C 266.833,328.833 268.167,328.167 269.5,327.5 Z"/></g>
<g><path style="opacity:1" fill="#bfbfbf" d="M 159.5,327.5 C 159.833,327.5 160.167,327.5 160.5,327.5C 161.29,328.401 162.29,329.068 163.5,329.5C 162.203,339.071 166.537,344.571 176.5,346C 196.379,349.516 216.379,350.349 236.5,348.5C 243.703,347.616 250.703,345.949 257.5,343.5C 256.571,344.315 255.571,345.148 254.5,346C 244.057,348.716 233.723,351.216 223.5,353.5C 201.222,355.067 180.222,351.233 160.5,342C 159.54,340.581 158.707,339.081 158,337.5C 157.952,334.122 158.452,330.789 159.5,327.5 Z"/></g>
<g><path style="opacity:1" fill="#dadada" d="M 158.5,327.5 C 158.833,327.5 159.167,327.5 159.5,327.5C 158.452,330.789 157.952,334.122 158,337.5C 158.707,339.081 159.54,340.581 160.5,342C 180.222,351.233 201.222,355.067 223.5,353.5C 211.992,354.648 200.325,354.648 188.5,353.5C 179.341,351.902 170.341,349.736 161.5,347C 159.904,343.952 157.737,341.452 155,339.5C 154.833,338.5 154.667,337.5 154.5,336.5C 155.044,333.084 156.378,330.084 158.5,327.5 Z"/></g>
<g><path style="opacity:1" fill="#ebebeb" d="M 250.5,350.5 C 249.571,351.315 248.571,352.148 247.5,353C 228.291,356.788 208.957,357.455 189.5,355C 188.944,354.617 188.611,354.117 188.5,353.5C 200.325,354.648 211.992,354.648 223.5,353.5C 232.664,353.87 241.664,352.87 250.5,350.5 Z"/></g>
</svg>
