<svg width="22" height="21" viewBox="0 0 22 21" fill="none" xmlns="http://www.w3.org/2000/svg">
<path id="Exit Symbol" fill-rule="evenodd" clip-rule="evenodd" d="M20.0207 2.83068C20.6065 2.24489 20.6065 1.29515 20.0207 0.709359C19.4349 0.123573 18.4852 0.123573 17.8994 0.709359L10.6096 7.99917L3.31979 0.709359C2.73401 0.123573 1.78426 0.123573 1.19847 0.709359C0.612687 1.29515 0.612687 2.24489 1.19847 2.83068L8.48828 10.1205L0.43934 18.1694C-0.146447 18.7552 -0.146447 19.705 0.43934 20.2907C1.02513 20.8765 1.97487 20.8765 2.56066 20.2907L10.6096 12.2418L18.6585 20.2907C19.2443 20.8765 20.1941 20.8765 20.7799 20.2907C21.3656 19.705 21.3656 18.7552 20.7799 18.1694L12.7309 10.1205L20.0207 2.83068Z" fill="#2E6C4A"/>
</svg>
