<svg width="34" height="34" viewBox="0 0 34 34" fill="none" xmlns="http://www.w3.org/2000/svg">
<g id="material-symbols:menu-rounded">
<path id="Vector" d="M5.66667 25.5C5.26528 25.5 4.92906 25.364 4.65801 25.092C4.38695 24.82 4.25095 24.4838 4.25 24.0833C4.24906 23.6829 4.38506 23.3467 4.65801 23.0747C4.93095 22.8027 5.26717 22.6667 5.66667 22.6667H28.3333C28.7347 22.6667 29.0714 22.8027 29.3434 23.0747C29.6154 23.3467 29.751 23.6829 29.75 24.0833C29.7491 24.4838 29.6131 24.8205 29.342 25.0934C29.071 25.3664 28.7347 25.5019 28.3333 25.5H5.66667ZM5.66667 18.4167C5.26528 18.4167 4.92906 18.2807 4.65801 18.0087C4.38695 17.7367 4.25095 17.4004 4.25 17C4.24906 16.5996 4.38506 16.2633 4.65801 15.9913C4.93095 15.7193 5.26717 15.5833 5.66667 15.5833H28.3333C28.7347 15.5833 29.0714 15.7193 29.3434 15.9913C29.6154 16.2633 29.751 16.5996 29.75 17C29.7491 17.4004 29.6131 17.7371 29.342 18.0101C29.071 18.283 28.7347 18.4186 28.3333 18.4167H5.66667ZM5.66667 11.3333C5.26528 11.3333 4.92906 11.1973 4.65801 10.9253C4.38695 10.6533 4.25095 10.3171 4.25 9.91667C4.24906 9.51622 4.38506 9.18 4.65801 8.908C4.93095 8.636 5.26717 8.5 5.66667 8.5H28.3333C28.7347 8.5 29.0714 8.636 29.3434 8.908C29.6154 9.18 29.751 9.51622 29.75 9.91667C29.7491 10.3171 29.6131 10.6538 29.342 10.9267C29.071 11.1997 28.7347 11.3352 28.3333 11.3333H17H5.66667Z" fill="#06803D"/>
</g>
</svg>
