<svg width="58" height="59" viewBox="0 0 58 59" fill="none" xmlns="http://www.w3.org/2000/svg">
<path d="M28.9058 40.8333L40.4682 29.1667L28.9058 17.5L24.859 21.5833L29.4839 26.25H17.3435V32.0833H29.4839L24.859 36.75L28.9058 40.8333ZM28.9058 58.3333C24.9072 58.3333 21.1494 57.5677 17.6326 56.0365C14.1157 54.5052 11.0565 52.4271 8.45495 49.8021C5.85343 47.1771 3.79389 44.0903 2.27633 40.5417C0.758778 36.9931 0 33.2014 0 29.1667C0 25.1319 0.758778 21.3403 2.27633 17.7917C3.79389 14.2431 5.85343 11.1562 8.45495 8.53125C11.0565 5.90625 14.1157 3.82812 17.6326 2.29688C21.1494 0.765625 24.9072 0 28.9058 0C32.9045 0 36.6622 0.765625 40.1791 2.29688C43.696 3.82812 46.7552 5.90625 49.3567 8.53125C51.9582 11.1562 54.0178 14.2431 55.5353 17.7917C57.0529 21.3403 57.8117 25.1319 57.8117 29.1667C57.8117 33.2014 57.0529 36.9931 55.5353 40.5417C54.0178 44.0903 51.9582 47.1771 49.3567 49.8021C46.7552 52.4271 43.696 54.5052 40.1791 56.0365C36.6622 57.5677 32.9045 58.3333 28.9058 58.3333ZM28.9058 52.5C35.3615 52.5 40.8295 50.2396 45.3099 45.7187C49.7903 41.1979 52.0305 35.6806 52.0305 29.1667C52.0305 22.6528 49.7903 17.1354 45.3099 12.6146C40.8295 8.09375 35.3615 5.83333 28.9058 5.83333C22.4502 5.83333 16.9822 8.09375 12.5018 12.6146C8.02137 17.1354 5.78117 22.6528 5.78117 29.1667C5.78117 35.6806 8.02137 41.1979 12.5018 45.7187C16.9822 50.2396 22.4502 52.5 28.9058 52.5Z" fill="#FAFAFA"/>
</svg>
