<svg width="79" height="79" viewBox="0 0 79 79" fill="none" xmlns="http://www.w3.org/2000/svg">
<path fill-rule="evenodd" clip-rule="evenodd" d="M78.2838 30.873C78.2838 47.4767 64.824 60.9366 48.2203 60.9366C31.6167 60.9366 18.1567 47.4767 18.1567 30.873C18.1567 14.2694 31.6167 0.809448 48.2203 0.809448C64.824 0.809448 78.2838 14.2694 78.2838 30.873ZM48.2199 8.17013C50.6164 8.17013 52.5592 10.1129 52.5592 12.5094V14.3433C54.625 14.8347 56.4486 15.952 57.8134 17.4766C58.6917 18.4581 59.386 19.6139 59.8372 20.8898C60.6357 23.1493 59.4513 25.6285 57.192 26.4271C54.9323 27.2257 52.4532 26.0414 51.6545 23.7819C51.5878 23.5931 51.4833 23.4172 51.3466 23.2645C51.0554 22.9391 50.6459 22.7445 50.1853 22.7445H48.2487L48.2199 22.7446L48.1911 22.7445H45.6217C45.1116 22.7445 44.6981 23.158 44.6981 23.6681C44.6981 24.1021 45.0004 24.4776 45.4243 24.5704L52.3726 26.0903C57.0728 27.1185 60.4204 31.2824 60.4204 36.0908C60.4204 40.9248 57.0682 44.9801 52.5592 46.0513V47.8851C52.5592 50.2816 50.6164 52.2243 48.2199 52.2243C45.8234 52.2243 43.8806 50.2816 43.8806 47.8851V46.0515C40.4846 45.2449 37.7491 42.7466 36.6031 39.5043C35.8044 37.2447 36.9888 34.7656 39.2483 33.967C41.5078 33.1683 43.9869 34.3526 44.7856 36.6122C45.0013 37.2226 45.5838 37.6496 46.2548 37.6496H50.1853C51.043 37.6496 51.742 36.9525 51.742 36.0908C51.742 35.3577 51.2311 34.7244 50.518 34.5684L43.5698 33.0485C39.1616 32.0842 36.0195 28.1805 36.0195 23.6681C36.0195 18.9595 39.4087 15.0425 43.8806 14.2234V12.5094C43.8806 10.1129 45.8234 8.17013 48.2199 8.17013ZM48.2203 68.1688C50.1094 68.1688 51.9657 68.0288 53.7793 67.7574C48.2645 74.3288 39.9903 78.5061 30.7403 78.5061C14.1366 78.5061 0.676697 65.0462 0.676697 48.4426C0.676697 39.2476 4.80463 31.0168 11.3085 25.5022C11.0555 27.256 10.9246 29.0493 10.9246 30.8732C10.9246 51.4711 27.6224 68.1688 48.2203 68.1688Z" fill="#2E6C4A"/>
</svg>
