<svg width="81" height="81" viewBox="0 0 81 81" fill="none" xmlns="http://www.w3.org/2000/svg">
<path fill-rule="evenodd" clip-rule="evenodd" d="M31.1562 30.3262L39.2807 22.9846C43.0609 19.5686 48.1512 17.9859 53.202 18.6564L63.9489 20.083L78.8662 12.0201C79.8295 11.4992 81 12.197 81 13.2925V40.7061C81 42.5729 80.0997 44.3249 78.5816 45.4113L68.5358 52.5996L57.664 43.4773C59.848 42.7028 61.7133 41.4255 63.2523 39.8294C64.6386 38.3918 64.5969 36.1025 63.1592 34.7163C61.722 33.3301 59.4326 33.3717 58.0463 34.8094C56.9703 35.9253 55.7267 36.6422 54.2715 36.927C53.0035 37.1753 51.3888 37.1309 49.3585 36.5086L46.7748 34.3407L39.5745 40.1679C36.7459 42.457 32.5872 41.9678 30.367 39.0847C28.3046 36.4065 28.6483 32.5926 31.1562 30.3262ZM26.3074 24.9603L32.1409 19.6887C29.6643 19.013 27.0403 18.8746 24.4479 19.3234L13.8279 21.1622L2.17815 14.8925C1.19359 14.3626 0 15.0757 0 16.1938L0.000118685 40.7036C0.000127906 42.6584 0.966544 44.4868 2.58176 45.5879L34.1424 67.1021C38.2281 69.8874 43.6155 69.8359 47.647 66.9725L62.1438 56.677L46.6917 43.7116L44.1241 45.7895C38.1375 50.6344 29.3358 49.599 24.637 43.4972C20.2719 37.8289 20.9992 29.757 26.3074 24.9603Z" fill="#2E6C4A"/>
</svg>
