<svg width="32" height="32" viewBox="0 0 32 32" fill="none" xmlns="http://www.w3.org/2000/svg">
<g id="iconamoon:location-pin-bold">
<g id="Group">
<path id="Vector" d="M16 14.668H16.0142V14.6813H16V14.668Z" stroke="black" stroke-width="3.75" stroke-linejoin="round"/>
<path id="Vector_2" d="M16.0001 29.3339L23.3334 22.0005C24.7837 20.5502 25.7714 18.7023 26.1715 16.6906C26.5716 14.6789 26.3662 12.5937 25.5813 10.6988C24.7963 8.80379 23.4671 7.18414 21.7617 6.04462C20.0562 4.90509 18.0512 4.29687 16.0001 4.29688C13.949 4.29687 11.9439 4.90509 10.2385 6.04462C8.53304 7.18414 7.20381 8.80379 6.41886 10.6988C5.63392 12.5937 5.42852 14.6789 5.82863 16.6906C6.22875 18.7023 7.21642 20.5502 8.66673 22.0005L16.0001 29.3339Z" stroke="black" stroke-width="2.5" stroke-linejoin="round"/>
</g>
</g>
</svg>
