<svg width="32" height="32" viewBox="0 0 32 32" fill="none" xmlns="http://www.w3.org/2000/svg">
<g id="solar:phone-linear">
<path id="Vector" d="M20.8389 20.854L21.4469 20.25L20.0349 18.8313L19.4296 19.4353L20.8389 20.854ZM23.4856 19.9966L26.0336 21.382L26.9869 19.6246L24.4402 18.2406L23.4856 19.9966ZM26.5229 24.134L24.6296 26.018L26.0389 27.4353L27.9322 25.5526L26.5229 24.134ZM23.4749 26.6233C21.5416 26.8046 16.5416 26.6433 11.1256 21.2593L9.7149 22.6766C15.6242 28.5526 21.2496 28.8406 23.6616 28.6153L23.4749 26.6233ZM11.1256 21.2593C5.96423 16.126 5.10823 11.81 5.00156 9.93663L3.00423 10.05C3.13756 12.4073 4.19757 17.1913 9.7149 22.6766L11.1256 21.2593ZM12.9589 13.0193L13.3416 12.638L11.9336 11.2206L11.5509 11.6006L12.9589 13.0193ZM13.6456 7.7913L11.9656 5.54596L10.3642 6.74596L12.0442 8.98996L13.6456 7.7913ZM6.3109 5.05663L4.21756 7.13663L5.62823 8.5553L7.72023 6.4753L6.3109 5.05663ZM12.2549 12.31C11.5482 11.6006 11.5482 11.6006 11.5482 11.6033H11.5456L11.5416 11.6086C11.4782 11.6725 11.4215 11.7426 11.3722 11.818C11.3002 11.9246 11.2216 12.0646 11.1549 12.242C10.9926 12.6997 10.9522 13.1918 11.0376 13.67C11.2162 14.8233 12.0109 16.3473 14.0456 18.3713L15.4562 16.9526C13.5509 15.0593 13.0976 13.9073 13.0136 13.3633C12.9736 13.1046 13.0149 12.9766 13.0269 12.9473C13.0349 12.9295 13.0349 12.9269 13.0269 12.9393C13.015 12.9577 13.0016 12.9751 12.9869 12.9913L12.9736 13.0046L12.9602 13.0166L12.2549 12.31ZM14.0456 18.3713C16.0816 20.3953 17.6136 21.1846 18.7682 21.3606C19.3589 21.4513 19.8349 21.3793 20.1962 21.2446C20.3986 21.1706 20.5877 21.0643 20.7562 20.93L20.8229 20.87L20.8322 20.862L20.8362 20.858L20.8376 20.8553C20.8376 20.8553 20.8389 20.854 20.1336 20.1446C19.4269 19.4353 19.4309 19.434 19.4309 19.434L19.4336 19.4313L19.4362 19.4286L19.4442 19.422L19.4576 19.4086L19.5082 19.3686C19.5207 19.3606 19.5176 19.3615 19.4989 19.3713C19.4656 19.3833 19.3349 19.4246 19.0722 19.3846C18.5202 19.2993 17.3602 18.846 15.4562 16.9526L14.0456 18.3713ZM11.9656 5.54463C10.6056 3.7313 7.93356 3.4433 6.3109 5.05663L7.72023 6.4753C8.42956 5.76996 9.68823 5.8433 10.3642 6.74596L11.9656 5.54463ZM5.0029 9.93796C4.97623 9.47663 5.18823 8.99396 5.62823 8.55663L4.21623 7.13796C3.50023 7.84996 2.93623 8.85796 3.00423 10.05L5.0029 9.93796ZM24.6296 26.018C24.2642 26.3833 23.8696 26.5886 23.4762 26.6246L23.6616 28.6153C24.6416 28.5233 25.4429 28.03 26.0402 27.4366L24.6296 26.018ZM13.3416 12.638C14.6549 11.3326 14.7522 9.26996 13.6469 7.79263L12.0456 8.9913C12.5829 9.70996 12.5029 10.6526 11.9322 11.222L13.3416 12.638ZM26.0349 21.3833C27.1242 21.9753 27.2936 23.37 26.5242 24.1353L27.9349 25.5526C29.7216 23.7753 29.1709 20.8113 26.9882 19.626L26.0349 21.3833ZM21.4469 20.2513C21.9589 19.742 22.7829 19.6166 23.4869 19.998L24.4416 18.242C22.9962 17.4553 21.2042 17.6726 20.0362 18.8326L21.4469 20.2513Z" fill="black"/>
</g>
</svg>
