<svg id="Layer_1" data-name="Layer 1" xmlns="http://www.w3.org/2000/svg" viewBox="0 0 241.42 179.02"><defs><style>.cls-1{fill:#004fa3;}.cls-2{fill:#ffc92b;}</style></defs><title>AFP_standalone_logo_RGB</title><path class="cls-1" d="M110.88,105.67h-2.66l-36,78.27c1.28-.11,2.55-.34,4-.34s2.65.23,4.27.34c3.23-10.53,7.39-20.38,11.44-30.23h29.33c4.62,10.19,8.78,20.94,12.13,30.23,2-.11,3.92-.34,6.12-.34,2,0,3.81.23,6,.34ZM119.54,149H94.13l12.59-28.66Z" transform="translate(-23.29 -54.49)"/><path class="cls-1" d="M157.65,107.35h41c-.12,1.23-.35,2.24-.35,3.36a31.89,31.89,0,0,0,.35,3.36,82,82,0,0,0-10.39-1.23l-11.56-.22h-8.89v28.1h17.9c3.47,0,6.82-.45,10.28-.56a23.23,23.23,0,0,0-.34,2.91c0,.9.23,1.91.34,3.14-3.46-.11-6.81-.56-10.28-.56h-17.9v38.29c-1.85-.11-3.47-.34-5.08-.34s-3.46.23-5.08.34Z" transform="translate(-23.29 -54.49)"/><path class="cls-1" d="M224.4,148.78c2.89,0,10.4.78,15.59-.22,16.28-3.14,24.72-9.3,24.72-22.85s-7.4-18.36-29.8-18.36H214.24v76.59c1.62-.11,3.35-.34,5.08-.34s3.24.23,5.08.34Zm0-37.06a139.32,139.32,0,0,1,16.64.11c9.11.79,13,6.83,13,14.45,0,10-6.7,17-18.24,18.13a64,64,0,0,1-11.44,0Z" transform="translate(-23.29 -54.49)"/><path class="cls-2" d="M140,233.51c-59.3-3.92-105.18-41.32-105.18-86.14,0-47.45,52.06-85.91,116.28-85.91,31.94,0,61.53,10.22,82.54,25.63-22-18.72-54.5-32.6-90.46-32.6C77,54.49,23.29,94.58,23.29,144c0,48.65,52,88.23,116.72,89.49" transform="translate(-23.29 -54.49)"/><path class="cls-2" d="M95.45,217.74c-29.59-14-48.59-40.2-48.59-68,0-43.37,47.7-78.53,106.55-78.53,14.71,0,29,1.07,41.76,5a135.29,135.29,0,0,0-48.93-8.92c-58.85,0-106.55,35.84-106.55,80.05,0,30.39,22.54,56.82,55.76,70.37" transform="translate(-23.29 -54.49)"/></svg>